<svg xmlns="http://www.w3.org/2000/svg" width="24" height="24" viewBox="0 0 24 24">
  <defs/>
  <path fill="#2D264B" d="M20,7 C20.54,7 21.046,6.857 21.484,6.608 C21.545,6.901 21.591,7.21 21.626,7.536 C21.75,8.679 21.75,10.118 21.75,11.955 L21.75,12.045 C21.75,13.882 21.75,15.321 21.626,16.463 C21.5,17.629 21.238,18.573 20.652,19.38 C20.297,19.868 19.868,20.297 19.38,20.652 C18.573,21.238 17.629,21.5 16.463,21.626 C15.321,21.75 13.882,21.75 12.045,21.75 L11.955,21.75 C10.118,21.75 8.679,21.75 7.536,21.626 C6.371,21.5 5.427,21.238 4.62,20.652 C4.132,20.297 3.703,19.868 3.348,19.38 C2.762,18.573 2.5,17.629 2.374,16.463 C2.25,15.321 2.25,13.882 2.25,12.045 L2.25,11.955 C2.25,10.118 2.25,8.679 2.374,7.536 C2.5,6.371 2.762,5.427 3.348,4.62 C3.703,4.132 4.132,3.703 4.62,3.348 C5.427,2.762 6.371,2.5 7.536,2.374 C8.679,2.25 10.118,2.25 11.955,2.25 L12.045,2.25 C13.882,2.25 15.321,2.25 16.463,2.374 C16.79,2.409 17.099,2.455 17.392,2.516 C17.143,2.954 17,3.46 17,4 C17,5.657 18.343,7 20,7 Z M17.33,8.469 C16.958,8.287 16.509,8.441 16.327,8.813 L14.866,11.79 C14.414,12.712 13.083,12.667 12.694,11.716 C11.815,9.567 8.81,9.465 7.787,11.55 L6.327,14.527 C6.144,14.899 6.298,15.348 6.67,15.531 C7.042,15.713 7.491,15.559 7.673,15.187 L9.134,12.21 C9.586,11.288 10.917,11.333 11.306,12.284 C12.185,14.433 15.19,14.535 16.213,12.45 L17.673,9.473 C17.856,9.101 17.702,8.652 17.33,8.469 Z"/>
  <path fill="#2D264B" d="M18,4 C18,5.105 18.895,6 20,6 C21.105,6 22,5.105 22,4 C22,2.895 21.105,2 20,2 C18.895,2 18,2.895 18,4 Z"/>
</svg>

