<svg xmlns="http://www.w3.org/2000/svg" width="24" height="24" viewBox="0 0 24 24">
  <defs/>
  <path fill="#2D264B" d="M22.276,12 Q22.276,16.002 21.642,17.238 Q21.512,17.492 21.357,17.732 Q20.604,18.898 17.138,20.899 Q13.672,22.9 12.285,22.969 Q12,22.984 11.715,22.969 Q10.328,22.9 6.862,20.899 Q3.396,18.898 2.643,17.732 Q2.488,17.493 2.358,17.238 Q1.724,16.002 1.724,12 Q1.724,7.998 2.358,6.762 Q2.488,6.508 2.643,6.268 Q3.396,5.101 6.862,3.1 Q10.328,1.099 11.715,1.031 Q12,1.016 12.285,1.031 Q13.672,1.099 17.138,3.1 L17.138,3.1 Q20.604,5.101 21.357,6.268 Q21.512,6.509 21.642,6.762 Q22.276,7.998 22.276,12 Z M20.776,12 Q20.776,8.36 20.308,7.447 Q20.212,7.259 20.097,7.082 Q19.54,6.219 16.388,4.399 L16.388,4.399 Q13.236,2.58 12.211,2.529 Q12,2.518 11.789,2.529 Q10.764,2.58 7.612,4.399 Q4.46,6.219 3.903,7.082 Q3.789,7.259 3.692,7.447 Q3.224,8.36 3.224,12 Q3.224,15.64 3.692,16.553 Q3.789,16.741 3.903,16.918 Q4.46,17.781 7.612,19.6 Q10.764,21.42 11.789,21.471 Q12,21.482 12.211,21.471 Q13.236,21.42 16.388,19.6 Q19.54,17.781 20.097,16.918 Q20.211,16.741 20.308,16.553 Q20.776,15.64 20.776,12 Z M6.327,14.527 L7.787,11.55 Q8.554,9.986 10.294,10.045 Q12.035,10.104 12.694,11.716 Q12.986,12.429 13.756,12.455 Q14.527,12.482 14.866,11.79 L16.327,8.812 Q16.463,8.534 16.757,8.433 Q17.051,8.333 17.33,8.469 Q17.609,8.606 17.71,8.9 Q17.81,9.194 17.673,9.473 L16.213,12.45 Q15.446,14.014 13.706,13.955 Q11.965,13.896 11.306,12.284 Q11.014,11.57 10.243,11.544 Q9.473,11.518 9.134,12.21 L7.673,15.187 Q7.536,15.466 7.242,15.567 Q6.949,15.667 6.67,15.53 Q6.391,15.394 6.29,15.1 Q6.19,14.806 6.327,14.527 Z"/>
</svg>

