<svg width="24" height="24" viewBox="0 0 24 24" fill="none" xmlns="http://www.w3.org/2000/svg">
<path fill-rule="evenodd" clip-rule="evenodd" d="M12.0452 2.25C13.8818 2.24999 15.3214 2.24999 16.4635 2.37373C17.6291 2.50001 18.5734 2.76232 19.3798 3.34815C19.8679 3.70281 20.2972 4.13209 20.6518 4.62024C21.2377 5.42656 21.5 6.37094 21.6263 7.53648C21.75 8.67859 21.75 10.1182 21.75 11.9547V12.0453C21.75 13.8818 21.75 15.3214 21.6263 16.4635C21.5 17.6291 21.2377 18.5734 20.6518 19.3798C20.2972 19.8679 19.8679 20.2972 19.3798 20.6518C18.5734 21.2377 17.6291 21.5 16.4635 21.6263C15.3214 21.75 13.8818 21.75 12.0453 21.75H11.9547C10.1182 21.75 8.67859 21.75 7.53648 21.6263C6.37094 21.5 5.42656 21.2377 4.62024 20.6518C4.13209 20.2972 3.70281 19.8679 3.34815 19.3798C2.76232 18.5734 2.50001 17.6291 2.37373 16.4635C2.24999 15.3214 2.24999 13.8818 2.25 12.0452V11.9548C2.24999 10.1182 2.24999 8.67861 2.37373 7.53648C2.50001 6.37094 2.76232 5.42656 3.34815 4.62024C3.70281 4.13209 4.13209 3.70281 4.62024 3.34815C5.42656 2.76232 6.37094 2.50001 7.53648 2.37373C8.67861 2.24999 10.1182 2.24999 11.9548 2.25H12.0452ZM17.6734 9.47315C17.8558 9.10127 17.7022 8.65192 17.3303 8.4695C16.9584 8.28708 16.5091 8.44067 16.3266 8.81255L14.8663 11.7896C14.4137 12.7124 13.0833 12.6673 12.6942 11.716C11.815 9.56697 8.80955 9.46517 7.78698 11.5498L6.32665 14.5268C6.14423 14.8987 6.29782 15.3481 6.6697 15.5305C7.04158 15.7129 7.49093 15.5593 7.67335 15.1874L9.13368 12.2104C9.58632 11.2876 10.9167 11.3327 11.3058 12.284C12.185 14.433 15.1904 14.5348 16.213 12.4502L17.6734 9.47315Z" fill="#2D264B"/>
</svg>
