<svg xmlns="http://www.w3.org/2000/svg" width="24" height="24" viewBox="0 0 24 24">
  <defs/>
  <path fill="#2D264B" d="M12,22.276 Q7.998,22.276 6.762,21.642 Q6.509,21.512 6.268,21.357 Q5.101,20.604 3.1,17.138 L3.1,17.138 Q1.099,13.672 1.031,12.285 Q1.016,12 1.031,11.715 Q1.099,10.328 3.1,6.862 Q5.101,3.396 6.268,2.643 Q6.508,2.488 6.762,2.358 Q7.998,1.724 12,1.724 Q16.002,1.724 17.238,2.358 Q17.493,2.488 17.732,2.643 Q18.898,3.396 20.899,6.862 Q22.9,10.328 22.969,11.715 Q22.984,12 22.969,12.285 Q22.9,13.672 20.899,17.138 Q18.898,20.604 17.732,21.357 Q17.492,21.512 17.238,21.642 Q16.002,22.276 12,22.276 Z M12,20.776 Q15.64,20.776 16.553,20.308 Q16.741,20.211 16.918,20.097 Q17.781,19.54 19.6,16.388 Q21.42,13.236 21.471,12.211 Q21.482,12 21.471,11.789 Q21.42,10.764 19.6,7.612 Q17.781,4.46 16.918,3.903 Q16.741,3.789 16.553,3.692 Q15.64,3.224 12,3.224 Q8.36,3.224 7.447,3.692 Q7.259,3.789 7.082,3.903 Q6.219,4.46 4.399,7.612 Q2.58,10.764 2.529,11.789 Q2.518,12 2.529,12.211 Q2.58,13.236 4.399,16.388 L4.399,16.388 Q6.219,19.54 7.082,20.097 Q7.259,20.212 7.447,20.308 Q8.36,20.776 12,20.776 Z M6.327,14.527 L7.787,11.55 Q8.554,9.986 10.294,10.045 Q12.035,10.104 12.694,11.716 Q12.986,12.429 13.756,12.455 Q14.527,12.482 14.866,11.79 L16.327,8.812 Q16.463,8.534 16.757,8.433 Q17.051,8.333 17.33,8.469 Q17.609,8.606 17.71,8.9 Q17.81,9.194 17.673,9.473 L16.213,12.45 Q15.446,14.014 13.706,13.955 Q11.965,13.896 11.306,12.284 Q11.014,11.57 10.243,11.544 Q9.473,11.518 9.134,12.21 L7.673,15.187 Q7.536,15.466 7.243,15.567 Q6.949,15.667 6.67,15.53 Q6.391,15.394 6.29,15.1 Q6.19,14.806 6.327,14.527 Z"/>
</svg>

