<svg width="24" height="24" viewBox="0 0 24 24" fill="none" xmlns="http://www.w3.org/2000/svg">
<path fill-rule="evenodd" clip-rule="evenodd" d="M15.0667 1.79551C14.2621 1.72362 13.279 1.72363 12.0351 1.72363H11.9647C10.7209 1.72363 9.73775 1.72362 8.93318 1.79551C8.10672 1.86936 7.41546 2.0224 6.76215 2.35755C6.59292 2.44437 6.4281 2.53953 6.26829 2.64268C5.65139 3.04089 5.17323 3.56301 4.69604 4.24182C4.2315 4.90266 3.73993 5.7541 3.11803 6.83127L3.0828 6.89228C2.46089 7.96945 1.96931 8.82088 1.62929 9.5536C1.28001 10.3063 1.06692 10.9814 1.03051 11.7148C1.02108 11.9048 1.02108 12.0951 1.03051 12.285C1.06692 13.0184 1.28001 13.6936 1.62929 14.4462C1.96931 15.1789 2.46089 16.0304 3.08279 17.1075L3.11803 17.1686C3.73992 18.2457 4.2315 19.0972 4.69604 19.758C5.17323 20.4368 5.65139 20.9589 6.2683 21.3571C6.4281 21.4603 6.59292 21.5555 6.76215 21.6423C7.41547 21.9774 8.10672 22.1305 8.93318 22.2043C9.73774 22.2762 10.7209 22.2762 11.9647 22.2762H12.0351C13.2789 22.2762 14.2621 22.2762 15.0667 22.2043C15.8932 22.1305 16.5844 21.9774 17.2377 21.6423C17.407 21.5555 17.5718 21.4603 17.7316 21.3571C18.3485 20.9589 18.8266 20.4368 19.3038 19.758C19.7684 19.0972 20.2599 18.2457 20.8818 17.1686L20.9171 17.1076C21.539 16.0304 22.0306 15.179 22.3706 14.4462C22.7199 13.6936 22.9329 13.0184 22.9694 12.285C22.9788 12.0951 22.9788 11.9048 22.9694 11.7148C22.9329 10.9814 22.7199 10.3063 22.3706 9.5536C22.0306 8.82087 21.539 7.96943 20.917 6.89225L20.8819 6.83129C20.26 5.75411 19.7684 4.90266 19.3038 4.24182C18.8266 3.56301 18.3485 3.04089 17.7316 2.64268C17.5718 2.53953 17.407 2.44437 17.2377 2.35755C16.5844 2.0224 15.8931 1.86936 15.0667 1.79551ZM17.6732 9.47307C17.8556 9.10119 17.7021 8.65184 17.3302 8.46942C16.9583 8.287 16.5089 8.44059 16.3265 8.81247L14.8662 11.7895C14.4136 12.7123 13.0832 12.6672 12.694 11.7159C11.8149 9.56689 8.80943 9.46508 7.78686 11.5497L6.32653 14.5268C6.14411 14.8986 6.2977 15.348 6.66958 15.5304C7.04146 15.7128 7.49081 15.5592 7.67323 15.1874L9.13356 12.2103C9.5862 11.2875 10.9166 11.3326 11.3057 12.2839C12.1849 14.4329 15.1903 14.5347 16.2129 12.4501L17.6732 9.47307Z" fill="#2D264B"/>
</svg>
