<svg width="24" height="24" viewBox="0 0 24 24" fill="none" xmlns="http://www.w3.org/2000/svg">
<path d="M6.99994 14.8571L8.46027 11.88C9.19787 10.3763 11.3658 10.4498 11.9999 11.9999C12.6341 13.5501 14.802 13.6235 15.5396 12.1198L16.9999 9.14277M11.9999 21.5262C9.45265 21.5262 8.17901 21.5262 7.10448 20.975C6.95732 20.8995 6.814 20.8167 6.67504 20.727C5.6604 20.0721 5.02358 18.9691 3.74994 16.7631C2.47629 14.557 1.83947 13.454 1.77959 12.2479C1.77139 12.0827 1.77139 11.9172 1.77959 11.752C1.83947 10.5458 2.47629 9.44278 3.74993 7.23677C5.02357 5.03076 5.6604 3.92776 6.67504 3.2728C6.814 3.1831 6.95732 3.10036 7.10448 3.02486C8.17901 2.47363 9.45265 2.47363 11.9999 2.47363C14.5472 2.47363 15.8209 2.47363 16.8954 3.02486C17.0425 3.10036 17.1859 3.1831 17.3248 3.2728C18.3395 3.92776 18.9763 5.03076 20.2499 7.23677C21.5236 9.44278 22.1604 10.5458 22.2203 11.752C22.2285 11.9172 22.2285 12.0827 22.2203 12.2478C22.1604 13.454 21.5236 14.557 20.2499 16.7631C18.9763 18.9691 18.3395 20.0721 17.3248 20.727C17.1859 20.8167 17.0425 20.8995 16.8954 20.975C15.8209 21.5262 14.5472 21.5262 11.9999 21.5262Z" stroke="#2D264B" stroke-width="1.5" stroke-linecap="round"/>
</svg>
