<svg xmlns="http://www.w3.org/2000/svg" width="24" height="24" viewBox="0 0 24 24">
  <defs/>
  <path fill="#2D264B" d="M15.067,1.796 C15.893,1.869 16.584,2.022 17.238,2.358 C17.407,2.444 17.572,2.54 17.732,2.643 C18.348,3.041 18.827,3.563 19.304,4.242 C19.768,4.903 20.26,5.754 20.882,6.831 L20.917,6.892 C21.539,7.969 22.031,8.821 22.371,9.554 C22.72,10.306 22.933,10.981 22.969,11.715 C22.979,11.905 22.979,12.095 22.969,12.285 C22.933,13.018 22.72,13.694 22.371,14.446 C22.031,15.179 21.539,16.03 20.917,17.108 L20.882,17.169 C20.26,18.246 19.768,19.097 19.304,19.758 C18.827,20.437 18.348,20.959 17.732,21.357 C17.572,21.46 17.407,21.556 17.238,21.642 C16.584,21.977 15.893,22.131 15.067,22.204 C14.262,22.276 13.279,22.276 12.035,22.276 L11.965,22.276 C10.721,22.276 9.738,22.276 8.933,22.204 C8.107,22.131 7.415,21.977 6.762,21.642 C6.593,21.556 6.428,21.46 6.268,21.357 C5.651,20.959 5.173,20.437 4.696,19.758 C4.232,19.097 3.74,18.246 3.118,17.169 L3.083,17.108 C2.461,16.03 1.969,15.179 1.629,14.446 C1.28,13.694 1.067,13.018 1.031,12.285 C1.021,12.095 1.021,11.905 1.031,11.715 C1.067,10.981 1.28,10.306 1.629,9.554 C1.969,8.821 2.461,7.969 3.083,6.892 L3.118,6.831 C3.74,5.754 4.232,4.903 4.696,4.242 C5.173,3.563 5.651,3.041 6.268,2.643 C6.428,2.54 6.593,2.444 6.762,2.358 C7.415,2.022 8.107,1.869 8.933,1.796 C9.738,1.724 10.721,1.724 11.964,1.724 L12.036,1.724 C13.279,1.724 14.262,1.724 15.067,1.796 Z M17.673,9.473 C17.856,9.101 17.702,8.652 17.33,8.469 C16.958,8.287 16.509,8.441 16.326,8.812 L14.866,11.79 C14.414,12.712 13.083,12.667 12.694,11.716 C11.815,9.567 8.809,9.465 7.787,11.55 L6.327,14.527 C6.144,14.899 6.298,15.348 6.67,15.53 C7.041,15.713 7.491,15.559 7.673,15.187 L9.134,12.21 C9.586,11.288 10.917,11.333 11.306,12.284 C12.185,14.433 15.19,14.535 16.213,12.45 Z"/>
</svg>

