<svg xmlns="http://www.w3.org/2000/svg" width="24" height="24" viewBox="0 0 24 24">
  <defs/>
  <path fill="#2D264B" d="M12,22 C6.477,22 2,17.523 2,12 C2,6.477 6.477,2 12,2 C17.523,2 22,6.477 22,12 C22,17.523 17.523,22 12,22 Z M12.75,9 C12.75,8.586 12.414,8.25 12,8.25 C11.586,8.25 11.25,8.586 11.25,9 L11.25,11.25 L9,11.25 C8.586,11.25 8.25,11.586 8.25,12 C8.25,12.414 8.586,12.75 9,12.75 L11.25,12.75 L11.25,15 C11.25,15.414 11.586,15.75 12,15.75 C12.414,15.75 12.75,15.414 12.75,15 L12.75,12.75 L15,12.75 C15.414,12.75 15.75,12.414 15.75,12 C15.75,11.586 15.414,11.25 15,11.25 L12.75,11.25 Z"/>
</svg>

