<svg xmlns="http://www.w3.org/2000/svg" width="24" height="24" viewBox="0 0 24 24">
  <defs/>
  <path fill="#2D264B" d="M12.75,4 C12.75,3.586 12.414,3.25 12,3.25 C11.586,3.25 11.25,3.586 11.25,4 L11.25,11.25 L4,11.25 C3.586,11.25 3.25,11.586 3.25,12 C3.25,12.414 3.586,12.75 4,12.75 L11.25,12.75 L11.25,20 C11.25,20.414 11.586,20.75 12,20.75 C12.414,20.75 12.75,20.414 12.75,20 L12.75,12.75 L20,12.75 C20.414,12.75 20.75,12.414 20.75,12 C20.75,11.586 20.414,11.25 20,11.25 L12.75,11.25 L12.75,4 Z"/>
</svg>

