<svg xmlns="http://www.w3.org/2000/svg" width="24" height="24" viewBox="0 0 24 24">
  <defs/>
  <path fill="#2D264B" d="M4,11.25 L11.25,11.25 L11.25,4 Q11.25,3.689 11.47,3.47 Q11.689,3.25 12,3.25 Q12.311,3.25 12.53,3.47 Q12.75,3.689 12.75,4 L12.75,11.25 L20,11.25 Q20.311,11.25 20.53,11.47 Q20.75,11.689 20.75,12 Q20.75,12.311 20.53,12.53 Q20.311,12.75 20,12.75 L12.75,12.75 L12.75,20 Q12.75,20.311 12.53,20.53 Q12.311,20.75 12,20.75 Q11.689,20.75 11.47,20.53 Q11.25,20.311 11.25,20 L11.25,12.75 L4,12.75 Q3.689,12.75 3.47,12.53 Q3.25,12.311 3.25,12 Q3.25,11.689 3.47,11.47 Q3.689,11.25 4,11.25 Z"/>
</svg>

