<svg xmlns="http://www.w3.org/2000/svg" width="24" height="24" viewBox="0 0 24 24">
  <defs/>
  <path fill="#2D264B" d="M14,6.25 C13.586,6.25 13.25,6.586 13.25,7 C13.25,7.414 13.586,7.75 14,7.75 L14,6.25 Z M20,7.75 C20.414,7.75 20.75,7.414 20.75,7 C20.75,6.586 20.414,6.25 20,6.25 L20,7.75 Z M16.25,10 C16.25,10.414 16.586,10.75 17,10.75 C17.414,10.75 17.75,10.414 17.75,10 L16.25,10 Z M17.75,4 C17.75,3.586 17.414,3.25 17,3.25 C16.586,3.25 16.25,3.586 16.25,4 L17.75,4 Z M7,9.25 C6.524,9.25 6.204,9.25 5.957,9.233 C5.716,9.216 5.599,9.187 5.522,9.155 L4.948,10.541 C5.238,10.661 5.538,10.708 5.855,10.729 C6.165,10.75 6.544,10.75 7,10.75 L7,9.25 Z M3.25,7 C3.25,7.456 3.25,7.835 3.271,8.145 C3.292,8.462 3.339,8.762 3.459,9.052 L4.845,8.478 C4.813,8.401 4.784,8.284 4.767,8.043 C4.75,7.796 4.75,7.476 4.75,7 L3.25,7 Z M5.522,9.155 C5.215,9.028 4.972,8.785 4.845,8.478 L3.459,9.052 C3.738,9.726 4.274,10.262 4.948,10.541 L5.522,9.155 Z M9.25,7 C9.25,7.476 9.25,7.796 9.233,8.043 C9.216,8.284 9.187,8.401 9.155,8.478 L10.541,9.052 C10.661,8.762 10.708,8.462 10.729,8.145 C10.75,7.835 10.75,7.456 10.75,7 L9.25,7 Z M7,10.75 C7.456,10.75 7.835,10.75 8.145,10.729 C8.462,10.708 8.762,10.661 9.052,10.541 L8.478,9.155 C8.401,9.187 8.284,9.216 8.043,9.233 C7.796,9.25 7.476,9.25 7,9.25 L7,10.75 Z M9.155,8.478 C9.028,8.785 8.785,9.028 8.478,9.155 L9.052,10.541 C9.726,10.262 10.262,9.726 10.541,9.052 L9.155,8.478 Z M7,4.75 C7.476,4.75 7.796,4.75 8.043,4.767 C8.284,4.784 8.401,4.813 8.478,4.845 L9.052,3.459 C8.762,3.339 8.462,3.292 8.145,3.271 C7.835,3.25 7.456,3.25 7,3.25 L7,4.75 Z M10.75,7 C10.75,6.544 10.75,6.165 10.729,5.855 C10.708,5.538 10.661,5.238 10.541,4.948 L9.155,5.522 C9.187,5.599 9.216,5.716 9.233,5.957 C9.25,6.204 9.25,6.524 9.25,7 L10.75,7 Z M8.478,4.845 C8.785,4.972 9.028,5.215 9.155,5.522 L10.541,4.948 C10.262,4.274 9.726,3.738 9.052,3.459 L8.478,4.845 Z M7,3.25 C6.544,3.25 6.165,3.25 5.855,3.271 C5.538,3.292 5.238,3.339 4.948,3.459 L5.522,4.845 C5.599,4.813 5.716,4.784 5.957,4.767 C6.204,4.75 6.524,4.75 7,4.75 L7,3.25 Z M4.75,7 C4.75,6.524 4.75,6.204 4.767,5.957 C4.784,5.716 4.813,5.599 4.845,5.522 L3.459,4.948 C3.339,5.238 3.292,5.538 3.271,5.855 C3.25,6.165 3.25,6.544 3.25,7 L4.75,7 Z M4.948,3.459 C4.274,3.738 3.738,4.274 3.459,4.948 L4.845,5.522 C4.972,5.215 5.215,4.972 5.522,4.845 L4.948,3.459 Z M14,7.75 L20,7.75 L20,6.25 L14,6.25 L14,7.75 Z M17.75,10 L17.75,4 L16.25,4 L16.25,10 L17.75,10 Z M7,19.25 C6.524,19.25 6.204,19.25 5.957,19.233 C5.716,19.216 5.599,19.187 5.522,19.155 L4.948,20.541 C5.238,20.661 5.538,20.708 5.855,20.729 C6.165,20.75 6.544,20.75 7,20.75 L7,19.25 Z M3.25,17 C3.25,17.456 3.25,17.835 3.271,18.145 C3.292,18.462 3.339,18.762 3.459,19.052 L4.845,18.478 C4.813,18.401 4.784,18.284 4.767,18.043 C4.75,17.796 4.75,17.476 4.75,17 L3.25,17 Z M5.522,19.155 C5.215,19.028 4.972,18.785 4.845,18.478 L3.459,19.052 C3.738,19.726 4.274,20.262 4.948,20.541 L5.522,19.155 Z M9.25,17 C9.25,17.476 9.25,17.796 9.233,18.043 C9.216,18.284 9.187,18.401 9.155,18.478 L10.541,19.052 C10.661,18.762 10.708,18.462 10.729,18.145 C10.75,17.835 10.75,17.456 10.75,17 L9.25,17 Z M7,20.75 C7.456,20.75 7.835,20.75 8.145,20.729 C8.462,20.708 8.762,20.661 9.052,20.541 L8.478,19.155 C8.401,19.187 8.284,19.216 8.043,19.233 C7.796,19.25 7.476,19.25 7,19.25 L7,20.75 Z M9.155,18.478 C9.028,18.785 8.785,19.028 8.478,19.155 L9.052,20.541 C9.726,20.262 10.262,19.726 10.541,19.052 L9.155,18.478 Z M7,14.75 C7.476,14.75 7.796,14.75 8.043,14.767 C8.284,14.784 8.401,14.813 8.478,14.845 L9.052,13.459 C8.762,13.339 8.462,13.292 8.145,13.271 C7.835,13.25 7.456,13.25 7,13.25 L7,14.75 Z M10.75,17 C10.75,16.544 10.75,16.165 10.729,15.855 C10.708,15.537 10.661,15.238 10.541,14.948 L9.155,15.522 C9.187,15.599 9.216,15.716 9.233,15.957 C9.25,16.204 9.25,16.524 9.25,17 L10.75,17 Z M8.478,14.845 C8.785,14.972 9.028,15.215 9.155,15.522 L10.541,14.948 C10.262,14.274 9.726,13.738 9.052,13.459 L8.478,14.845 Z M7,13.25 C6.544,13.25 6.165,13.25 5.855,13.271 C5.538,13.292 5.238,13.339 4.948,13.459 L5.522,14.845 C5.599,14.813 5.716,14.784 5.957,14.767 C6.204,14.75 6.524,14.75 7,14.75 L7,13.25 Z M4.75,17 C4.75,16.524 4.75,16.204 4.767,15.957 C4.784,15.716 4.813,15.599 4.845,15.522 L3.459,14.948 C3.339,15.238 3.292,15.537 3.271,15.855 C3.25,16.165 3.25,16.544 3.25,17 L4.75,17 Z M4.948,13.459 C4.274,13.738 3.738,14.274 3.459,14.948 L4.845,15.522 C4.972,15.215 5.215,14.972 5.522,14.845 L4.948,13.459 Z M17,19.25 C16.524,19.25 16.204,19.25 15.957,19.233 C15.716,19.216 15.599,19.187 15.522,19.155 L14.948,20.541 C15.238,20.661 15.537,20.708 15.855,20.729 C16.165,20.75 16.544,20.75 17,20.75 L17,19.25 Z M13.25,17 C13.25,17.456 13.25,17.835 13.271,18.145 C13.292,18.462 13.339,18.762 13.459,19.052 L14.845,18.478 C14.813,18.401 14.784,18.284 14.767,18.043 C14.75,17.796 14.75,17.476 14.75,17 L13.25,17 Z M15.522,19.155 C15.215,19.028 14.972,18.785 14.845,18.478 L13.459,19.052 C13.738,19.726 14.274,20.262 14.948,20.541 L15.522,19.155 Z M19.25,17 C19.25,17.476 19.25,17.796 19.233,18.043 C19.216,18.284 19.187,18.401 19.155,18.478 L20.541,19.052 C20.661,18.762 20.708,18.462 20.729,18.145 C20.75,17.835 20.75,17.456 20.75,17 L19.25,17 Z M17,20.75 C17.456,20.75 17.835,20.75 18.145,20.729 C18.462,20.708 18.762,20.661 19.052,20.541 L18.478,19.155 C18.401,19.187 18.284,19.216 18.043,19.233 C17.796,19.25 17.476,19.25 17,19.25 L17,20.75 Z M19.155,18.478 C19.028,18.785 18.785,19.028 18.478,19.155 L19.052,20.541 C19.726,20.262 20.262,19.726 20.541,19.052 L19.155,18.478 Z M17,14.75 C17.476,14.75 17.796,14.75 18.043,14.767 C18.284,14.784 18.401,14.813 18.478,14.845 L19.052,13.459 C18.762,13.339 18.462,13.292 18.145,13.271 C17.835,13.25 17.456,13.25 17,13.25 L17,14.75 Z M20.75,17 C20.75,16.544 20.75,16.165 20.729,15.855 C20.708,15.537 20.661,15.238 20.541,14.948 L19.155,15.522 C19.187,15.599 19.216,15.716 19.233,15.957 C19.25,16.204 19.25,16.524 19.25,17 L20.75,17 Z M18.478,14.845 C18.785,14.972 19.028,15.215 19.155,15.522 L20.541,14.948 C20.262,14.274 19.726,13.738 19.052,13.459 L18.478,14.845 Z M17,13.25 C16.544,13.25 16.165,13.25 15.855,13.271 C15.537,13.292 15.238,13.339 14.948,13.459 L15.522,14.845 C15.599,14.813 15.716,14.784 15.957,14.767 C16.204,14.75 16.524,14.75 17,14.75 L17,13.25 Z M14.75,17 C14.75,16.524 14.75,16.204 14.767,15.957 C14.784,15.716 14.813,15.599 14.845,15.522 L13.459,14.948 C13.339,15.238 13.292,15.537 13.271,15.855 C13.25,16.165 13.25,16.544 13.25,17 L14.75,17 Z M14.948,13.459 C14.274,13.738 13.738,14.274 13.459,14.948 L14.845,15.522 C14.972,15.215 15.215,14.972 15.522,14.845 L14.948,13.459 Z"/>
</svg>

