<svg width="24" height="24" viewBox="0 0 24 24" fill="none" xmlns="http://www.w3.org/2000/svg">
<path d="M16.2755 4.06372C15.6727 4.00259 15.2499 4.49813 15.2499 5.00012V19.0001C15.2499 19.4143 15.5857 19.7501 15.9999 19.7501C16.4141 19.7501 16.7499 19.4143 16.7499 19.0001L16.7499 5.86357C16.7641 5.87465 16.7786 5.88613 16.7934 5.89801C17.116 6.15711 17.4995 6.54247 18.0693 7.11737L19.4672 8.52774C19.7588 8.82194 20.2336 8.82406 20.5278 8.53247C20.822 8.24089 20.8242 7.76602 20.5326 7.47182L19.1042 6.03069C18.5728 5.49451 18.1297 5.04732 17.7326 4.72847C17.3162 4.39405 16.8786 4.13968 16.3454 4.07171C16.3221 4.06875 16.2988 4.06609 16.2755 4.06372Z" fill="#2D264B"/>
<path d="M8.74988 5.00013C8.74988 4.58591 8.41409 4.25013 7.99988 4.25013C7.58566 4.25013 7.24988 4.58591 7.24988 5.00013L7.24988 17.9364C7.23566 17.9254 7.22116 17.9139 7.20637 17.902C6.88374 17.6429 6.50021 17.2575 5.93042 16.6826L4.53257 15.2723C4.24099 14.9781 3.76612 14.976 3.47192 15.2675C3.17772 15.5591 3.1756 16.034 3.46719 16.3282L4.89551 17.7693C5.42689 18.3055 5.8701 18.7527 6.26712 19.0715C6.68354 19.406 7.12119 19.6603 7.65438 19.7283C8.305 19.8112 8.74988 19.2717 8.74988 18.7488L8.74988 5.00013Z" fill="#2D264B"/>
</svg>
