<svg width="24" height="24" viewBox="0 0 24 24" fill="none" xmlns="http://www.w3.org/2000/svg">
<path d="M8.72786 4.53269C9.02206 4.24111 9.02418 3.76624 8.73259 3.47204C8.44101 3.17784 7.96614 3.17573 7.67194 3.46731L6.2308 4.89565C5.69462 5.42704 5.24744 5.87022 4.92859 6.26724C4.59417 6.68367 4.33979 7.12131 4.27183 7.6545C4.1889 8.30512 4.72846 8.75 5.25133 8.75H19C19.4142 8.75 19.75 8.41421 19.75 8C19.75 7.58579 19.4142 7.25 19 7.25H6.06369C6.07477 7.23578 6.08625 7.22128 6.09813 7.20649C6.35723 6.88386 6.74258 6.50033 7.31748 5.93054L8.72786 4.53269Z" fill="#2D264B"/>
<path d="M5 15.25C4.58579 15.25 4.25 15.5858 4.25 16C4.25 16.4142 4.58579 16.75 5 16.75H18.1366C18.1255 16.7642 18.114 16.7787 18.1021 16.7935C17.843 17.1161 17.4577 17.4997 16.8828 18.0695L15.4724 19.4673C15.1782 19.7589 15.1761 20.2338 15.4677 20.528C15.7592 20.8222 16.2341 20.8243 16.5283 20.5327L17.9694 19.1044C18.5056 18.573 18.9528 18.1298 19.2717 17.7328C19.6061 17.3163 19.8604 16.8787 19.9284 16.3455C19.9314 16.3222 19.934 16.299 19.9364 16.2757C19.9975 15.6728 19.502 15.25 19 15.25H5Z" fill="#2D264B"/>
</svg>
