<svg xmlns="http://www.w3.org/2000/svg" width="24" height="24" viewBox="0 0 24 24">
  <defs/>
  <path fill="#2D264B" d="M19,8.75 C19.414,8.75 19.75,8.414 19.75,8 C19.75,7.586 19.414,7.25 19,7.25 L19,8.75 Z M8.728,4.533 C9.022,4.241 9.024,3.766 8.733,3.472 C8.441,3.178 7.966,3.176 7.672,3.467 L8.728,4.533 Z M15.472,19.467 C15.178,19.759 15.176,20.234 15.468,20.528 C15.759,20.822 16.234,20.824 16.528,20.533 L15.472,19.467 Z M5,15.25 C4.586,15.25 4.25,15.586 4.25,16 C4.25,16.414 4.586,16.75 5,16.75 L5,15.25 Z M5.251,8.75 L19,8.75 L19,7.25 L5.251,7.25 L5.251,8.75 Z M7.317,5.931 L8.728,4.533 L7.672,3.467 L6.262,4.865 L7.317,5.931 Z M6.262,4.865 C5.712,5.41 5.254,5.863 4.929,6.267 C4.594,6.684 4.34,7.121 4.272,7.654 L5.76,7.844 C5.778,7.698 5.849,7.517 6.098,7.206 C6.357,6.884 6.743,6.5 7.317,5.931 L6.262,4.865 Z M16.883,18.07 L15.472,19.467 L16.528,20.533 L17.939,19.135 L16.883,18.07 Z M17.939,19.135 C18.488,18.59 18.947,18.137 19.272,17.733 C19.606,17.316 19.86,16.879 19.928,16.346 L18.441,16.156 C18.422,16.302 18.352,16.483 18.102,16.794 C17.843,17.116 17.458,17.5 16.883,18.07 L17.939,19.135 Z M18.444,16.124 C18.443,16.135 18.442,16.145 18.441,16.156 L19.928,16.346 C19.931,16.322 19.934,16.299 19.936,16.276 L18.444,16.124 Z M19,15.25 L5,15.25 L5,16.75 L19,16.75 L19,15.25 Z M19.936,16.276 C19.997,15.673 19.502,15.25 19,15.25 L19,16.75 C18.719,16.75 18.405,16.507 18.444,16.124 L19.936,16.276 Z M5.251,7.25 C5.497,7.25 5.808,7.469 5.76,7.844 L4.272,7.654 C4.189,8.305 4.728,8.75 5.251,8.75 L5.251,7.25 Z"/>
</svg>

