<svg xmlns="http://www.w3.org/2000/svg" width="24" height="24" viewBox="0 0 24 24">
  <defs/>
  <path fill="#2D264B" d="M8.75,5 C8.75,4.586 8.414,4.25 8,4.25 C7.586,4.25 7.25,4.586 7.25,5 L8.75,5 Z M4.533,15.272 C4.241,14.978 3.766,14.976 3.472,15.267 C3.178,15.559 3.176,16.034 3.467,16.328 L4.533,15.272 Z M19.467,8.528 C19.759,8.822 20.234,8.824 20.528,8.532 C20.822,8.241 20.824,7.766 20.533,7.472 L19.467,8.528 Z M15.25,19 C15.25,19.414 15.586,19.75 16,19.75 C16.414,19.75 16.75,19.414 16.75,19 L15.25,19 Z M8.75,18.749 L8.75,5 L7.25,5 L7.25,18.749 L8.75,18.749 Z M5.93,16.682 L4.533,15.272 L3.467,16.328 L4.865,17.738 L5.93,16.682 Z M4.865,17.738 C5.41,18.288 5.863,18.746 6.267,19.071 C6.684,19.406 7.121,19.66 7.654,19.728 L7.844,18.24 C7.698,18.221 7.517,18.151 7.206,17.902 C6.884,17.643 6.5,17.257 5.93,16.682 L4.865,17.738 Z M18.069,7.117 L19.467,8.528 L20.533,7.472 L19.135,6.061 L18.069,7.117 Z M19.135,6.061 C18.59,5.511 18.137,5.053 17.733,4.728 C17.316,4.394 16.879,4.139 16.345,4.071 L16.156,5.559 C16.302,5.578 16.483,5.648 16.793,5.898 C17.116,6.157 17.5,6.542 18.069,7.117 L19.135,6.061 Z M16.124,5.556 C16.135,5.557 16.145,5.558 16.156,5.559 L16.345,4.071 C16.322,4.069 16.299,4.066 16.276,4.064 L16.124,5.556 Z M15.25,5 L15.25,19 L16.75,19 L16.75,5 L15.25,5 Z M16.276,4.064 C15.673,4.002 15.25,4.498 15.25,5 L16.75,5 C16.75,5.281 16.507,5.595 16.124,5.556 L16.276,4.064 Z M7.25,18.749 C7.25,18.503 7.469,18.192 7.844,18.24 L7.654,19.728 C8.305,19.811 8.75,19.271 8.75,18.749 L7.25,18.749 Z"/>
</svg>

