<svg width="24" height="24" viewBox="0 0 24 24" fill="none" xmlns="http://www.w3.org/2000/svg">
<path d="M8.74988 4.9999C8.74988 4.58569 8.41409 4.2499 7.99988 4.2499C7.58566 4.2499 7.24988 4.58569 7.24988 4.99991L8.74988 4.9999ZM5.39772 17.2104L4.86503 17.7383H4.86503L5.39772 17.2104ZM4.53257 15.272C4.24099 14.9778 3.76612 14.9757 3.47192 15.2673C3.17772 15.5589 3.1756 16.0338 3.46719 16.328L4.53257 15.272ZM18.602 6.58918L19.1347 6.06123V6.06123L18.602 6.58918ZM19.4672 8.52752C19.7588 8.82172 20.2336 8.82384 20.5278 8.53225C20.822 8.24067 20.8242 7.7658 20.5326 7.4716L19.4672 8.52752ZM16.2505 4.81547L16.3454 4.07149L16.3454 4.07149L16.2505 4.81547ZM15.2499 18.9999C15.2499 19.4141 15.5857 19.7499 15.9999 19.7499C16.4141 19.7499 16.7499 19.4141 16.7499 18.9999H15.2499ZM16.1999 4.80968L16.1242 5.55585L16.1999 4.80968ZM7.99988 18.7486H7.24988H7.99988ZM8.74988 18.7486L8.74988 4.9999L7.24988 4.99991L7.24988 18.7486H8.74988ZM5.93042 16.6824L4.53257 15.272L3.46719 16.328L4.86503 17.7383L5.93042 16.6824ZM4.86503 17.7383C5.41 18.2882 5.86253 18.7464 6.26712 19.0713C6.68354 19.4057 7.12119 19.6601 7.65438 19.7281L7.84404 18.2401C7.69788 18.2215 7.51716 18.1514 7.20637 17.9018C6.88374 17.6427 6.50021 17.2573 5.93042 16.6824L4.86503 17.7383ZM18.0693 7.11714L19.4672 8.52752L20.5326 7.4716L19.1347 6.06123L18.0693 7.11714ZM19.1347 6.06123C18.5898 5.51138 18.1372 5.05318 17.7326 4.72825C17.3162 4.39383 16.8786 4.13945 16.3454 4.07149L16.1557 5.55945C16.3019 5.57808 16.4826 5.64819 16.7934 5.89779C17.116 6.15689 17.4995 6.54224 18.0693 7.11714L19.1347 6.06123ZM16.1242 5.55585C16.1347 5.55691 16.1452 5.55812 16.1557 5.55945L16.3454 4.07149C16.3221 4.06853 16.2988 4.06587 16.2755 4.0635L16.1242 5.55585ZM15.2499 4.9999V18.9999H16.7499V4.9999H15.2499ZM16.2755 4.0635C15.6727 4.00237 15.2499 4.49791 15.2499 4.9999L16.7499 4.99991C16.7499 5.2806 16.5069 5.59465 16.1242 5.55585L16.2755 4.0635ZM7.24988 18.7486C7.24988 18.5033 7.46881 18.1923 7.84404 18.2401L7.65438 19.7281C8.305 19.811 8.74988 19.2714 8.74988 18.7486H7.24988Z" fill="#2D264B"/>
</svg>
