<svg xmlns="http://www.w3.org/2000/svg" width="24" height="24" viewBox="0 0 24 24">
  <defs/>
  <path fill="#2D264B" d="M16.276,4.064 C15.673,4.003 15.25,4.498 15.25,5 L15.25,19 C15.25,19.414 15.586,19.75 16,19.75 C16.414,19.75 16.75,19.414 16.75,19 L16.75,5.864 C16.764,5.875 16.779,5.886 16.793,5.898 C17.116,6.157 17.5,6.542 18.069,7.117 L19.467,8.528 C19.759,8.822 20.234,8.824 20.528,8.532 C20.822,8.241 20.824,7.766 20.533,7.472 L19.104,6.031 C18.573,5.495 18.13,5.047 17.733,4.728 C17.316,4.394 16.879,4.14 16.345,4.072 C16.322,4.069 16.299,4.066 16.276,4.064 Z"/>
  <path fill="#2D264B" d="M8.75,5 C8.75,4.586 8.414,4.25 8,4.25 C7.586,4.25 7.25,4.586 7.25,5 L7.25,17.936 C7.236,17.925 7.221,17.914 7.206,17.902 C6.884,17.643 6.5,17.258 5.93,16.683 L4.533,15.272 C4.241,14.978 3.766,14.976 3.472,15.268 C3.178,15.559 3.176,16.034 3.467,16.328 L4.896,17.769 C5.427,18.305 5.87,18.753 6.267,19.072 C6.684,19.406 7.121,19.66 7.654,19.728 C8.305,19.811 8.75,19.272 8.75,18.749 L8.75,5 Z"/>
</svg>

