<svg xmlns="http://www.w3.org/2000/svg" width="24" height="24" viewBox="0 0 24 24">
  <defs/>
  <path fill="#2D264B" d="M14.708,3.055 C15.323,2.75 16.045,2.659 16.76,2.85 C18.316,3.267 19.24,4.867 18.823,6.422 L16.45,15.277 C16.033,16.833 14.434,17.756 12.878,17.339 C11.322,16.922 10.399,15.323 10.816,13.767 L11.765,10.225 C11.872,9.825 11.634,9.414 11.234,9.307 C10.834,9.2 10.423,9.437 10.316,9.837 L9.367,13.379 C8.736,15.735 10.134,18.157 12.49,18.788 C14.846,19.419 17.268,18.021 17.899,15.665 L20.272,6.811 C20.903,4.455 19.505,2.033 17.149,1.401 C16.067,1.112 14.97,1.25 14.041,1.712 C13.471,1.995 12.963,2.401 12.558,2.905 C12.299,3.228 12.351,3.7 12.674,3.959 C12.997,4.219 13.469,4.167 13.728,3.844 C13.995,3.511 14.331,3.243 14.708,3.055 Z"/>
  <path fill="#2D264B" d="M8.223,9.276 C8.64,7.72 10.239,6.797 11.795,7.214 C13.351,7.631 14.274,9.23 13.858,10.786 L12.909,14.328 C12.801,14.728 13.039,15.139 13.439,15.246 C13.839,15.354 14.25,15.116 14.357,14.716 L15.306,11.174 C15.938,8.818 14.54,6.396 12.183,5.765 C9.827,5.134 7.405,6.532 6.774,8.888 L4.402,17.742 C3.77,20.099 5.168,22.52 7.525,23.152 C8.606,23.442 9.703,23.303 10.633,22.841 C11.202,22.558 11.71,22.152 12.115,21.648 C12.374,21.325 12.322,20.853 11.999,20.594 C11.676,20.335 11.204,20.386 10.945,20.709 C10.678,21.042 10.342,21.31 9.965,21.498 C9.35,21.803 8.628,21.894 7.913,21.703 C6.357,21.286 5.434,19.687 5.85,18.131 L8.223,9.276 Z"/>
</svg>

