<svg xmlns="http://www.w3.org/2000/svg" width="24" height="24" viewBox="0 0 24 24">
  <defs/>
  <path fill="#2D264B" d="M11.765,10.225 L10.816,13.767 Q10.503,14.934 11.107,15.98 Q11.711,17.026 12.878,17.339 Q14.045,17.652 15.091,17.048 Q16.137,16.444 16.45,15.277 L18.823,6.422 Q19.135,5.255 18.531,4.209 Q17.927,3.163 16.76,2.85 Q15.695,2.565 14.708,3.055 Q14.13,3.343 13.728,3.844 Q13.534,4.086 13.225,4.12 Q12.916,4.154 12.674,3.959 Q12.431,3.765 12.398,3.456 Q12.364,3.147 12.558,2.905 Q13.167,2.146 14.041,1.712 Q15.535,0.969 17.148,1.401 Q18.916,1.875 19.83,3.459 Q20.745,5.044 20.271,6.811 L17.899,15.665 Q17.425,17.432 15.841,18.347 Q14.257,19.262 12.49,18.788 Q10.723,18.315 9.808,16.73 Q8.893,15.146 9.367,13.379 L10.316,9.837 Q10.396,9.537 10.665,9.382 Q10.934,9.226 11.234,9.307 Q11.534,9.387 11.69,9.656 Q11.845,9.925 11.765,10.225 Z M12.908,14.328 L13.857,10.786 Q14.612,7.969 11.795,7.214 Q8.978,6.459 8.223,9.276 L5.85,18.131 Q5.538,19.298 6.142,20.344 Q6.746,21.39 7.913,21.703 Q8.978,21.988 9.965,21.498 Q10.543,21.211 10.945,20.709 Q11.139,20.467 11.448,20.433 Q11.757,20.399 11.999,20.594 Q12.241,20.788 12.275,21.097 Q12.309,21.406 12.115,21.648 Q11.506,22.407 10.632,22.841 Q9.138,23.584 7.524,23.152 Q5.757,22.678 4.843,21.094 Q3.928,19.509 4.401,17.742 L6.774,8.888 Q7.247,7.121 8.832,6.206 Q10.416,5.292 12.183,5.765 Q13.95,6.238 14.865,7.823 Q15.78,9.407 15.306,11.174 L14.357,14.716 Q14.277,15.016 14.008,15.171 Q13.739,15.327 13.439,15.246 Q13.139,15.166 12.983,14.897 Q12.828,14.628 12.908,14.328 Z"/>
</svg>

