<svg xmlns="http://www.w3.org/2000/svg" width="24" height="24" viewBox="0 0 24 24">
  <defs/>
  <path fill="#2D264B" d="M11.838,1.25 L12.162,1.25 C13.869,1.25 14.91,1.25 15.777,1.531 C17.528,2.1 18.9,3.473 19.469,5.223 L19.478,5.25 L19.77,5.25 C23.475,5.25 25.067,9.952 22.124,12.203 L22.113,12.211 L19.652,13.958 C19.56,14.023 19.465,14.083 19.367,14.139 C19.356,14.167 19.346,14.194 19.334,14.222 C19.079,14.857 18.58,15.618 18.101,16.106 C17.319,16.901 16.51,17.254 15.218,17.817 L15.132,17.854 C14.576,18.097 14.014,18.317 13.491,18.477 C13.244,18.553 12.994,18.62 12.75,18.668 L12.75,21.25 L16,21.25 C16.415,21.25 16.75,21.586 16.75,22 C16.75,22.414 16.415,22.75 16,22.75 L8,22.75 C7.586,22.75 7.25,22.414 7.25,22 C7.25,21.586 7.586,21.25 8,21.25 L11.25,21.25 L11.25,18.668 C11.007,18.62 10.757,18.553 10.509,18.477 C9.987,18.317 9.425,18.097 8.868,17.854 L8.782,17.817 C7.491,17.254 6.682,16.901 5.9,16.106 C5.421,15.618 4.922,14.857 4.666,14.222 C4.655,14.194 4.644,14.165 4.633,14.137 C4.537,14.083 4.444,14.025 4.355,13.962 L1.888,12.211 L1.877,12.203 C-1.066,9.952 0.526,5.25 4.231,5.25 L4.523,5.25 L4.532,5.223 C5.101,3.473 6.473,2.1 8.224,1.531 C9.091,1.25 10.132,1.25 11.838,1.25 Z M21.222,11.004 C23.013,9.621 22.037,6.75 19.77,6.75 L19.717,6.75 C19.75,7.335 19.75,8.037 19.75,8.916 L19.75,10.426 C19.75,11.047 19.75,11.583 19.73,12.062 Z M4.231,6.75 C1.964,6.75 0.988,9.621 2.778,11.004 L4.27,12.062 C4.25,11.58 4.25,11.042 4.25,10.417 L4.25,10.416 L4.25,8.916 C4.25,8.037 4.25,7.335 4.283,6.75 Z"/>
</svg>

