<svg xmlns="http://www.w3.org/2000/svg" width="24" height="24" viewBox="0 0 24 24">
  <defs/>
  <path fill="#2D264B" d="M19.5,8.5 C19.5,12.642 16.142,16 12,16 C7.858,16 4.5,12.642 4.5,8.5 C4.5,4.358 7.858,1 12,1 C16.142,1 19.5,4.358 19.5,8.5 Z"/>
  <path fill="#2D264B" d="M18,15.208 C16.408,16.633 14.305,17.5 12,17.5 C9.695,17.5 7.592,16.633 6,15.208 L6,19.879 C6,21.443 6,22.225 6.499,22.448 C6.998,22.671 7.609,22.162 8.83,21.144 L9.769,20.362 C10.834,19.474 11.366,19.031 12,19.031 C12.634,19.031 13.166,19.474 14.231,20.362 L15.17,21.144 C16.391,22.162 17.002,22.671 17.501,22.448 C18,22.225 18,21.443 18,19.879 L18,15.208 Z"/>
</svg>

