<svg width="24" height="24" viewBox="0 0 24 24" fill="none" xmlns="http://www.w3.org/2000/svg">
<path d="M11.9997 0.25C7.16723 0.25 3.24972 4.16751 3.24972 9C3.24972 9.42694 3.28035 9.84693 3.33955 10.2578C3.44804 10.5461 3.57051 10.8274 3.70611 11.1011C4.96228 13.6362 7.34619 15.5122 10.1985 16.0749C10.7805 16.1897 11.3827 16.25 11.9998 16.25C12.5274 16.25 13.0443 16.2059 13.5469 16.1213C16.4592 15.6312 18.9123 13.7781 20.224 11.2382C20.3875 10.9218 20.5332 10.5946 20.6598 10.2581C20.7191 9.84715 20.7497 9.42706 20.7497 9C20.7497 4.16751 16.8322 0.25 11.9997 0.25Z" fill="#2D264B"/>
<path d="M20.5811 13.4757C18.9621 15.618 16.5587 17.1356 13.7958 17.6005C13.5058 17.6493 13.2121 17.6865 12.915 17.7115C12.9989 17.8594 13.0914 18.0196 13.1921 18.194L14.9814 21.2932C15.2068 21.6837 15.4151 22.0447 15.6138 22.2982C15.8085 22.5465 16.1739 22.9287 16.7445 22.8798C17.3225 22.8304 17.6132 22.3832 17.7574 22.102C17.9035 21.8173 18.0374 21.4254 18.1812 21.0044L18.442 20.2414C18.5866 19.8184 18.6736 19.5681 18.7587 19.3942C18.7975 19.3148 18.8248 19.2759 18.8398 19.2576C18.8467 19.2493 18.8517 19.2449 18.8517 19.2449L18.853 19.2439L18.8544 19.243L18.8573 19.2416C18.8573 19.2416 18.8636 19.2395 18.8743 19.2377C18.8976 19.2338 18.945 19.2297 19.0332 19.2358C19.2263 19.2491 19.4865 19.2988 19.9252 19.3851L20.7165 19.5407C21.1529 19.6267 21.5592 19.7066 21.8788 19.7225C22.1944 19.7382 22.727 19.71 23.0589 19.2343C23.3865 18.7645 23.2382 18.2569 23.1205 17.9642C23.0003 17.6654 22.7918 17.3044 22.5664 16.9141L20.7216 13.7188C20.6733 13.635 20.6265 13.554 20.5811 13.4757Z" fill="#2D264B"/>
<path d="M10.8206 17.686C10.5125 17.6524 10.2081 17.6057 9.90816 17.5465C7.18083 17.0085 4.82578 15.4403 3.26334 13.2652C3.17469 13.4153 3.0813 13.5771 2.98074 13.7513L1.15476 16.914C0.929291 17.3044 0.72081 17.6654 0.600611 17.9642C0.482878 18.2569 0.334605 18.7645 0.662267 19.2343C0.994078 19.71 1.5267 19.7382 1.84236 19.7225C2.16195 19.7066 2.56824 19.6267 3.00467 19.5407L3.79593 19.3851C4.2346 19.2988 4.49486 19.2491 4.68796 19.2358C4.77615 19.2297 4.82351 19.2338 4.84681 19.2377C4.85751 19.2395 4.86383 19.2416 4.86383 19.2416L4.86676 19.243L4.86942 19.2449C4.86942 19.2449 4.87442 19.2493 4.88133 19.2576C4.89637 19.2759 4.92358 19.3148 4.96242 19.3942C5.04747 19.5681 5.1345 19.8184 5.27911 20.2414L5.53993 21.0044C5.68376 21.4254 5.81764 21.8172 5.96369 22.102C6.10793 22.3832 6.39867 22.8304 6.97657 22.8798C7.54725 22.9287 7.91266 22.5465 8.10728 22.2982C8.30598 22.0447 8.51437 21.6836 8.73973 21.2932L10.529 18.1941C10.6355 18.0096 10.7329 17.8409 10.8206 17.686Z" fill="#2D264B"/>
</svg>
