<svg xmlns="http://www.w3.org/2000/svg" width="24" height="24" viewBox="0 0 24 24">
  <defs/>
  <path fill="#2D264B" d="M9.38,6.716 C10.318,6.716 11.127,6.094 11.405,5.208 C11.598,4.597 12.402,4.597 12.595,5.208 C12.873,6.094 13.682,6.716 14.62,6.716 C14.91,6.716 15.127,6.895 15.214,7.175 C15.303,7.456 15.231,7.752 14.979,7.94 C14.236,8.498 13.936,9.474 14.214,10.356 C14.316,10.682 14.194,10.961 13.979,11.122 C13.767,11.281 13.502,11.304 13.26,11.122 C12.51,10.559 11.49,10.559 10.74,11.122 C10.498,11.304 10.233,11.281 10.021,11.122 C9.806,10.961 9.684,10.682 9.786,10.356 C10.064,9.474 9.764,8.498 9.021,7.94 C8.769,7.752 8.697,7.456 8.786,7.175 C8.874,6.895 9.09,6.716 9.38,6.716 Z"/>
  <path fill="#2D264B" d="M12,16 C7.858,16 4.5,12.642 4.5,8.5 C4.5,4.358 7.858,1 12,1 C16.142,1 19.5,4.358 19.5,8.5 C19.5,12.642 16.142,16 12,16 Z M14.025,4.758 C13.393,2.747 10.607,2.747 9.975,4.758 C9.884,5.045 9.636,5.216 9.38,5.216 C7.271,5.216 6.508,7.93 8.12,9.14 C8.342,9.307 8.447,9.616 8.355,9.906 C8.045,10.891 8.443,11.813 9.121,12.322 C9.803,12.833 10.804,12.95 11.641,12.322 C11.857,12.16 12.143,12.16 12.359,12.322 C13.196,12.95 14.198,12.833 14.879,12.322 C15.557,11.813 15.955,10.891 15.645,9.906 C15.553,9.616 15.658,9.307 15.88,9.14 C17.492,7.93 16.729,5.216 14.62,5.216 C14.364,5.216 14.116,5.045 14.025,4.758 Z"/>
  <path fill="#2D264B" d="M12,17.5 C14.305,17.5 16.408,16.633 18,15.208 L18,19.879 C18,21.443 18,22.225 17.501,22.448 C17.002,22.671 16.391,22.162 15.17,21.144 L14.231,20.362 C13.166,19.474 12.634,19.031 12,19.031 C11.366,19.031 10.834,19.474 9.769,20.362 L8.83,21.144 C7.609,22.162 6.998,22.671 6.499,22.448 C6,22.225 6,21.443 6,19.879 L6,15.208 C7.592,16.633 9.695,17.5 12,17.5 Z"/>
</svg>

