<svg width="24" height="24" viewBox="0 0 24 24" fill="none" xmlns="http://www.w3.org/2000/svg">
<path d="M19.5 8.5C19.5 12.6421 16.1421 16 12 16C7.85786 16 4.5 12.6421 4.5 8.5C4.5 4.35786 7.85786 1 12 1C16.1421 1 19.5 4.35786 19.5 8.5Z" fill="#2D264B"/>
<path d="M18 15.2083C16.4077 16.6334 14.3051 17.5 12 17.5C9.69494 17.5 7.59227 16.6334 6 15.2083V19.8787C6 21.4429 6 22.225 6.49898 22.4482C6.99796 22.6713 7.60862 22.1623 8.82993 21.1444L9.76871 20.3619C10.8335 19.4744 11.3658 19.0307 12 19.0307C12.6342 19.0307 13.1665 19.4744 14.2313 20.3619L15.1701 21.1444C16.3914 22.1623 17.002 22.6713 17.501 22.4482C18 22.225 18 21.4429 18 19.8787V15.2083Z" fill="#2D264B"/>
</svg>
