<svg width="24" height="24" viewBox="0 0 24 24" fill="none" xmlns="http://www.w3.org/2000/svg">
<path d="M5.36163 13.9422L6.05736 13.6621V13.6621L5.36163 13.9422ZM9.16743 17.1666L8.86769 17.8541L9.16743 17.1666ZM6.4345 15.5804L6.9693 15.0546L6.4345 15.5804ZM18.6381 13.9422L17.9424 13.6621L18.6381 13.9422ZM14.8323 17.1666L15.132 17.8541L14.8323 17.1666ZM17.5652 15.5804L18.1 16.1062L17.5652 15.5804ZM18.7551 5.45492L18.0419 5.68668L18.7551 5.45492ZM15.5449 2.24472L15.3132 2.95801L15.5449 2.24472ZM5.24458 5.45492L5.95787 5.68668L5.24458 5.45492ZM8.45478 2.24472L8.68654 2.95801L8.45478 2.24472ZM2.3324 11.6072L1.87681 12.203L1.88746 12.2111L1.89839 12.2189L2.3324 11.6072ZM21.6675 11.6072L22.1015 12.2189L22.1124 12.2111L22.1231 12.203L21.6675 11.6072ZM11.2499 22C11.2499 22.4142 11.5856 22.75 11.9999 22.75C12.4141 22.75 12.7499 22.4142 12.7499 22H11.2499ZM15.9999 22.75C16.4141 22.75 16.7499 22.4142 16.7499 22C16.7499 21.5858 16.4141 21.25 15.9999 21.25V22.75ZM7.99986 21.25C7.58565 21.25 7.24986 21.5858 7.24986 22C7.24986 22.4142 7.58565 22.75 7.99986 22.75V21.25ZM18.8861 6L18.1466 6.1246L18.8861 6ZM19.2171 13.3459L19.6511 13.9575L19.2171 13.3459ZM4.78837 13.3498L4.35437 13.9615L4.78837 13.3498ZM18.2499 9V10.3004H19.7499V9H18.2499ZM5.74986 10.3004V9H4.24986V10.3004H5.74986ZM14.5326 16.4791C14.0064 16.7085 13.4998 16.9052 13.0501 17.0434C12.5895 17.1849 12.2359 17.25 11.9999 17.25V18.75C12.458 18.75 12.9794 18.6343 13.4908 18.4772C14.0131 18.3167 14.5757 18.0966 15.132 17.8541L14.5326 16.4791ZM11.9999 17.25C11.7638 17.25 11.4103 17.1849 10.9496 17.0434C10.4999 16.9052 9.99337 16.7085 9.46717 16.4791L8.86769 17.8541C9.42404 18.0966 9.98661 18.3167 10.509 18.4772C11.0203 18.6343 11.5417 18.75 11.9999 18.75V17.25ZM9.46717 16.4791C8.07071 15.8702 7.52878 15.6236 6.9693 15.0546L5.89969 16.1062C6.69849 16.9187 7.52575 17.269 8.86769 17.8541L9.46717 16.4791ZM4.66589 14.2223C4.92137 14.8569 5.42007 15.6184 5.89969 16.1062L6.9693 15.0546C6.62831 14.7078 6.239 14.1133 6.05736 13.6621L4.66589 14.2223ZM15.132 17.8541C16.474 17.269 17.3012 16.9187 18.1 16.1062L17.0304 15.0546C16.471 15.6236 15.929 15.8702 14.5326 16.4791L15.132 17.8541ZM17.9424 13.6621C17.7607 14.1133 17.3714 14.7078 17.0304 15.0546L18.1 16.1062C18.5797 15.6184 19.0784 14.8569 19.3338 14.2223L17.9424 13.6621ZM11.9999 2.75C13.9195 2.75 14.7015 2.75925 15.3132 2.95801L15.7767 1.53142C14.8821 1.24075 13.8028 1.25 11.9999 1.25V2.75ZM19.4684 5.22315C18.8997 3.47263 17.5272 2.1002 15.7767 1.53142L15.3132 2.95801C16.607 3.37841 17.6215 4.39282 18.0419 5.68668L19.4684 5.22315ZM11.9999 1.25C10.197 1.25 9.11763 1.24075 8.22301 1.53142L8.68654 2.95801C9.29825 2.75925 10.0802 2.75 11.9999 2.75V1.25ZM5.95787 5.68668C6.37827 4.39282 7.39268 3.37841 8.68654 2.95801L8.22301 1.53142C6.4725 2.1002 5.10007 3.47263 4.53129 5.22315L5.95787 5.68668ZM5.22238 12.7382L2.7664 10.9956L1.89839 12.2189L4.35437 13.9615L5.22238 12.7382ZM2.78799 11.0115C0.983911 9.63188 1.95952 6.75 4.23063 6.75V5.25C0.525091 5.25 -1.06671 9.95207 1.87681 12.203L2.78799 11.0115ZM4.23063 6.75H5V5.25H4.23063V6.75ZM19.6511 13.9575L22.1015 12.2189L21.2335 10.9956L18.7831 12.7342L19.6511 13.9575ZM22.1231 12.203C25.0666 9.95207 23.4748 5.25 19.7692 5.25V6.75C22.0403 6.75 23.016 9.63188 21.2119 11.0115L22.1231 12.203ZM19.7692 5.25H18.9999V6.75H19.7692V5.25ZM11.2499 18V22H12.7499V18H11.2499ZM15.9999 21.25H7.99986V22.75H15.9999V21.25ZM5.74986 9C5.74986 7.52815 5.75248 6.7222 5.85316 6.1246L4.374 5.8754C4.24725 6.6278 4.24986 7.58853 4.24986 9H5.74986ZM5.85316 6.1246C5.881 5.95935 5.91558 5.81685 5.95787 5.68668L4.53129 5.22315C4.46324 5.43257 4.41236 5.64772 4.374 5.8754L5.85316 6.1246ZM5 6.75H5.11358V5.25H5V6.75ZM4.24986 10.3004C4.24986 11.8535 4.24256 12.8826 4.52232 13.8132L5.95881 13.3814C5.75717 12.7106 5.74986 11.9404 5.74986 10.3004H4.24986ZM4.52232 13.8132C4.56388 13.9515 4.61151 14.0872 4.66589 14.2223L6.05736 13.6621C6.01986 13.569 5.98727 13.476 5.95881 13.3814L4.52232 13.8132ZM18.2499 10.3004C18.2499 11.9475 18.2424 12.7174 18.0384 13.3896L19.4738 13.8252C19.7573 12.891 19.7499 11.8599 19.7499 10.3004H18.2499ZM18.0384 13.3896C18.0106 13.4814 17.9788 13.5717 17.9424 13.6621L19.3338 14.2223C19.3866 14.0912 19.4331 13.9593 19.4738 13.8252L18.0384 13.3896ZM19.7499 9C19.7499 7.58853 19.7525 6.6278 19.6257 5.87541L18.1466 6.1246C18.2472 6.7222 18.2499 7.52815 18.2499 9H19.7499ZM19.6257 5.87541C19.5874 5.64771 19.5365 5.43257 19.4684 5.22315L18.0419 5.68668C18.0842 5.81685 18.1187 5.95935 18.1466 6.1246L19.6257 5.87541ZM18.9999 5.25H18.8861V6.75H18.9999V5.25ZM18.7831 12.7342C18.6799 12.8074 18.5695 12.87 18.4537 12.9211L19.0585 14.2937C19.2669 14.2019 19.4654 14.0893 19.6511 13.9575L18.7831 12.7342ZM4.35437 13.9615C4.5425 14.095 4.74554 14.2061 4.95939 14.2926L5.52173 12.902C5.41592 12.8592 5.31546 12.8042 5.22238 12.7382L4.35437 13.9615Z" fill="#2D264B"/>
</svg>
