<svg xmlns="http://www.w3.org/2000/svg" width="24" height="24" viewBox="0 0 24 24">
  <defs/>
  <path fill="#2D264B" d="M10.38,16.932 L9.781,16.481 L9.745,16.529 L9.717,16.582 L10.38,16.932 Z M13.337,16.924 L12.587,16.924 L12.587,17.109 L12.674,17.273 L13.337,16.924 Z M4.75,9 C4.75,4.996 7.996,1.75 12,1.75 L12,0.25 C7.167,0.25 3.25,4.168 3.25,9 L4.75,9 Z M12,1.75 C16.004,1.75 19.25,4.996 19.25,9 L20.75,9 C20.75,4.168 16.832,0.25 12,0.25 L12,1.75 Z M9.38,7.716 C10.318,7.716 11.127,7.094 11.405,6.208 L9.975,5.758 C9.884,6.045 9.636,6.216 9.38,6.216 L9.38,7.716 Z M9.021,8.94 C8.769,8.752 8.697,8.456 8.785,8.175 C8.873,7.895 9.09,7.716 9.38,7.716 L9.38,6.216 C7.271,6.216 6.508,8.93 8.12,10.14 L9.021,8.94 Z M9.786,11.356 C10.064,10.474 9.764,9.498 9.021,8.94 L8.12,10.14 C8.342,10.307 8.447,10.616 8.355,10.906 L9.786,11.356 Z M10.74,12.122 C10.498,12.304 10.233,12.281 10.021,12.122 C9.806,11.961 9.684,11.682 9.786,11.356 L8.355,10.906 C8.045,11.891 8.443,12.813 9.121,13.322 C9.802,13.833 10.804,13.95 11.641,13.322 L10.74,12.122 Z M13.26,12.122 C12.51,11.559 11.49,11.559 10.74,12.122 L11.641,13.322 C11.857,13.159 12.143,13.159 12.359,13.322 L13.26,12.122 Z M14.214,11.356 C14.316,11.682 14.194,11.961 13.979,12.122 C13.767,12.281 13.502,12.304 13.26,12.122 L12.359,13.322 C13.196,13.95 14.197,13.833 14.879,13.322 C15.557,12.813 15.954,11.891 15.645,10.906 L14.214,11.356 Z M14.979,8.94 C14.236,9.498 13.936,10.474 14.214,11.356 L15.645,10.906 C15.553,10.616 15.658,10.307 15.88,10.14 L14.979,8.94 Z M14.62,7.716 C14.91,7.716 15.127,7.895 15.214,8.175 C15.303,8.456 15.231,8.752 14.979,8.94 L15.88,10.14 C17.492,8.93 16.729,6.216 14.62,6.216 L14.62,7.716 Z M12.595,6.208 C12.873,7.094 13.682,7.716 14.62,7.716 L14.62,6.216 C14.364,6.216 14.116,6.045 14.025,5.758 L12.595,6.208 Z M14.025,5.758 C13.393,3.747 10.607,3.747 9.975,5.758 L11.405,6.208 C11.598,5.597 12.402,5.597 12.595,6.208 L14.025,5.758 Z M9.223,17.456 L7.467,20.498 L8.766,21.248 L10.522,18.206 L9.223,17.456 Z M2.48,17.619 L4.236,14.577 L2.937,13.827 L1.181,16.869 L2.48,17.619 Z M6.943,20.47 L6.699,19.756 L5.279,20.241 L5.523,20.955 L6.943,20.47 Z M3.507,17.913 L2.767,18.059 L3.057,19.531 L3.796,19.385 L3.507,17.913 Z M6.699,19.756 C6.567,19.37 6.446,19.014 6.31,18.735 C6.165,18.438 5.962,18.143 5.617,17.944 L4.867,19.243 C4.868,19.244 4.869,19.244 4.87,19.245 C4.871,19.246 4.875,19.249 4.882,19.258 C4.897,19.276 4.924,19.315 4.963,19.394 C5.048,19.568 5.135,19.818 5.279,20.241 L6.699,19.756 Z M3.796,19.385 C4.235,19.299 4.495,19.249 4.688,19.236 C4.776,19.23 4.824,19.234 4.847,19.238 C4.858,19.239 4.863,19.241 4.864,19.242 C4.865,19.242 4.866,19.242 4.867,19.243 L5.617,17.944 C5.272,17.745 4.915,17.717 4.585,17.739 C4.276,17.761 3.907,17.835 3.507,17.913 L3.796,19.385 Z M1.181,16.869 C0.946,17.277 0.726,17.654 0.601,17.964 C0.483,18.257 0.335,18.765 0.663,19.234 L1.893,18.376 C2.03,18.573 1.91,18.729 1.993,18.524 C2.068,18.337 2.22,18.07 2.48,17.619 L1.181,16.869 Z M2.767,18.059 C2.261,18.158 1.965,18.215 1.768,18.224 C1.555,18.235 1.752,18.174 1.893,18.376 L0.663,19.234 C0.994,19.71 1.527,19.738 1.843,19.723 C2.175,19.706 2.601,19.62 3.057,19.531 L2.767,18.059 Z M7.467,20.498 C7.206,20.949 7.051,21.214 6.927,21.373 C6.791,21.547 6.866,21.365 7.105,21.385 L6.977,22.88 C7.548,22.929 7.913,22.547 8.108,22.298 C8.314,22.035 8.531,21.656 8.766,21.248 L7.467,20.498 Z M5.523,20.955 C5.674,21.395 5.812,21.806 5.964,22.102 C6.108,22.383 6.399,22.83 6.977,22.88 L7.105,21.385 C7.351,21.406 7.396,21.607 7.299,21.417 C7.209,21.242 7.109,20.958 6.943,20.47 L5.523,20.955 Z M4.236,14.577 C4.664,13.837 4.86,13.505 5.045,13.294 L3.918,12.304 C3.61,12.655 3.328,13.15 2.937,13.827 L4.236,14.577 Z M10.522,18.206 C10.732,17.842 10.907,17.54 11.043,17.282 L9.717,16.582 C9.597,16.808 9.439,17.083 9.223,17.456 L10.522,18.206 Z M13.199,18.206 L14.956,21.248 L16.255,20.498 L14.498,17.456 L13.199,18.206 Z M22.541,16.869 L20.784,13.827 L19.485,14.577 L21.242,17.619 L22.541,16.869 Z M18.198,20.955 L18.442,20.241 L17.023,19.756 L16.779,20.47 L18.198,20.955 Z M19.925,19.385 L20.665,19.531 L20.955,18.059 L20.215,17.913 L19.925,19.385 Z M18.442,20.241 C18.587,19.818 18.674,19.568 18.759,19.394 C18.798,19.315 18.825,19.276 18.84,19.258 C18.847,19.249 18.851,19.246 18.852,19.245 C18.853,19.244 18.853,19.244 18.855,19.243 L18.105,17.944 C17.76,18.143 17.557,18.438 17.412,18.735 C17.275,19.014 17.155,19.37 17.023,19.756 L18.442,20.241 Z M20.215,17.913 C19.815,17.835 19.446,17.761 19.136,17.739 C18.806,17.717 18.45,17.745 18.105,17.944 L18.855,19.243 C18.856,19.242 18.857,19.242 18.858,19.242 C18.859,19.241 18.864,19.239 18.875,19.238 C18.898,19.234 18.945,19.23 19.033,19.236 C19.227,19.249 19.487,19.299 19.925,19.385 L20.215,17.913 Z M21.242,17.619 C21.502,18.07 21.654,18.337 21.729,18.524 C21.811,18.729 21.692,18.573 21.829,18.376 L23.059,19.234 C23.387,18.765 23.238,18.257 23.121,17.964 C22.996,17.654 22.776,17.277 22.541,16.869 L21.242,17.619 Z M20.665,19.531 C21.121,19.62 21.547,19.706 21.879,19.723 C22.195,19.738 22.727,19.71 23.059,19.234 L21.829,18.376 C21.97,18.174 22.167,18.235 21.953,18.224 C21.757,18.215 21.461,18.158 20.955,18.059 L20.665,19.531 Z M14.956,21.248 C15.191,21.656 15.408,22.035 15.614,22.298 C15.809,22.547 16.174,22.929 16.745,22.88 L16.617,21.385 C16.855,21.365 16.931,21.547 16.795,21.373 C16.67,21.214 16.515,20.949 16.255,20.498 L14.956,21.248 Z M16.779,20.47 C16.612,20.958 16.513,21.242 16.423,21.417 C16.326,21.607 16.371,21.406 16.617,21.385 L16.745,22.88 C17.323,22.83 17.613,22.383 17.758,22.102 C17.91,21.806 18.048,21.395 18.198,20.955 L16.779,20.47 Z M14.498,17.456 C14.28,17.079 14.121,16.802 14.001,16.574 L12.674,17.273 C12.81,17.533 12.987,17.838 13.199,18.206 L14.498,17.456 Z M5.499,12.214 C5.02,11.246 4.75,10.156 4.75,9 L3.25,9 C3.25,10.392 3.576,11.71 4.155,12.88 L5.499,12.214 Z M12,16.25 C11.516,16.25 11.044,16.203 10.588,16.113 L10.298,17.584 C10.849,17.693 11.418,17.75 12,17.75 L12,16.25 Z M10.588,16.113 C8.353,15.672 6.484,14.201 5.499,12.214 L4.155,12.88 C5.343,15.276 7.595,17.051 10.298,17.584 L10.588,16.113 Z M10.979,17.383 L11.042,17.3 L9.844,16.398 L9.781,16.481 L10.979,17.383 Z M13.213,16.149 C12.819,16.215 12.414,16.25 12,16.25 L12,17.75 C12.498,17.75 12.986,17.708 13.462,17.628 L13.213,16.149 Z M14.087,16.924 L14.087,16.889 L12.587,16.889 L12.587,16.924 L14.087,16.924 Z M19.25,9 C19.25,10.199 18.96,11.327 18.446,12.322 L19.779,13.01 C20.4,11.808 20.75,10.444 20.75,9 L19.25,9 Z M18.446,12.322 C17.418,14.313 15.495,15.765 13.213,16.149 L13.462,17.628 C16.221,17.164 18.539,15.41 19.779,13.01 L18.446,12.322 Z M20.784,13.827 C20.332,13.044 20.025,12.496 19.628,12.121 L18.598,13.211 C18.795,13.398 18.979,13.701 19.485,14.577 L20.784,13.827 Z M5.045,13.294 C5.051,13.287 5.079,13.26 5.161,13.219 L4.494,11.875 C4.318,11.963 4.102,12.095 3.918,12.304 L5.045,13.294 Z"/>
</svg>

