<svg xmlns="http://www.w3.org/2000/svg" width="24" height="24" viewBox="0 0 24 24">
  <defs/>
  <path fill="#2D264B" d="M12.595,5.208 C12.403,4.597 11.598,4.597 11.406,5.208 C11.127,6.094 10.318,6.716 9.38,6.716 C9.09,6.716 8.874,6.895 8.786,7.175 C8.697,7.456 8.769,7.752 9.021,7.94 C9.764,8.498 10.064,9.474 9.786,10.356 C9.684,10.682 9.807,10.961 10.022,11.122 C10.233,11.281 10.498,11.304 10.74,11.122 C11.49,10.559 12.511,10.559 13.26,11.122 C13.503,11.304 13.767,11.281 13.979,11.122 C14.194,10.961 14.316,10.682 14.214,10.356 C13.937,9.474 14.236,8.498 14.98,7.94 C15.231,7.752 15.303,7.456 15.215,7.175 C15.127,6.895 14.91,6.716 14.62,6.716 C13.683,6.716 12.873,6.094 12.595,5.208 Z"/>
  <path fill="#2D264B" d="M3.25,9 C3.25,4.168 7.168,0.25 12,0.25 C16.833,0.25 20.75,4.168 20.75,9 C20.75,9.427 20.72,9.847 20.66,10.258 C20.534,10.595 20.388,10.922 20.225,11.238 C18.913,13.778 16.46,15.631 13.547,16.121 C13.045,16.206 12.528,16.25 12,16.25 C11.383,16.25 10.781,16.19 10.199,16.075 C7.347,15.512 4.963,13.636 3.707,11.101 C3.571,10.827 3.449,10.546 3.34,10.258 C3.281,9.847 3.25,9.427 3.25,9 Z M9.975,4.758 C9.885,5.045 9.636,5.216 9.38,5.216 C7.271,5.216 6.508,7.93 8.12,9.14 C8.343,9.307 8.447,9.616 8.356,9.906 C8.046,10.891 8.443,11.813 9.121,12.322 C9.803,12.833 10.804,12.95 11.641,12.322 C11.857,12.16 12.144,12.16 12.36,12.322 C13.196,12.95 14.198,12.833 14.879,12.322 C15.557,11.813 15.955,10.891 15.645,9.906 C15.554,9.616 15.658,9.307 15.88,9.14 C17.492,7.93 16.729,5.216 14.62,5.216 C14.364,5.216 14.116,5.045 14.026,4.758 C13.393,2.747 10.607,2.747 9.975,4.758 Z"/>
  <path fill="#2D264B" d="M3.264,13.265 C3.175,13.415 3.082,13.577 2.981,13.751 L1.155,16.914 C0.93,17.304 0.721,17.665 0.601,17.964 C0.483,18.257 0.335,18.765 0.663,19.234 C0.995,19.71 1.527,19.738 1.843,19.723 C2.162,19.707 2.569,19.627 3.005,19.541 L3.796,19.385 C4.235,19.299 4.495,19.249 4.688,19.236 C4.777,19.23 4.824,19.234 4.847,19.238 C4.858,19.239 4.864,19.242 4.864,19.242 L4.867,19.243 L4.87,19.245 C4.87,19.245 4.875,19.249 4.882,19.258 C4.897,19.276 4.924,19.315 4.963,19.394 C5.048,19.568 5.135,19.818 5.28,20.241 L5.54,21.004 C5.684,21.425 5.818,21.817 5.964,22.102 C6.108,22.383 6.399,22.83 6.977,22.88 C7.548,22.929 7.913,22.547 8.108,22.298 C8.306,22.045 8.515,21.684 8.74,21.293 L10.53,18.194 C10.636,18.01 10.733,17.841 10.821,17.686 C10.513,17.652 10.209,17.606 9.909,17.547 C7.181,17.009 4.826,15.44 3.264,13.265 Z"/>
  <path fill="#2D264B" d="M20.582,13.476 C20.627,13.554 20.674,13.635 20.722,13.719 L22.567,16.914 C22.792,17.304 23.001,17.665 23.121,17.964 C23.239,18.257 23.387,18.765 23.059,19.234 C22.727,19.71 22.195,19.738 21.879,19.723 C21.56,19.707 21.153,19.627 20.717,19.541 L19.926,19.385 C19.487,19.299 19.227,19.249 19.034,19.236 C18.945,19.23 18.898,19.234 18.875,19.238 C18.864,19.239 18.858,19.242 18.858,19.242 L18.855,19.243 L18.853,19.244 L18.852,19.245 C18.852,19.245 18.847,19.249 18.84,19.258 C18.825,19.276 18.798,19.315 18.759,19.394 C18.674,19.568 18.587,19.818 18.442,20.241 L18.182,21.004 C18.038,21.425 17.904,21.817 17.758,22.102 C17.614,22.383 17.323,22.83 16.745,22.88 C16.174,22.929 15.809,22.547 15.614,22.298 C15.416,22.045 15.207,21.684 14.982,21.293 L13.193,18.194 C13.092,18.02 12.999,17.859 12.915,17.712 C13.213,17.686 13.506,17.649 13.796,17.601 C16.559,17.136 18.963,15.618 20.582,13.476 Z"/>
</svg>

