<svg xmlns="http://www.w3.org/2000/svg" width="24" height="24" viewBox="0 0 24 24">
  <defs/>
  <path fill="#2D264B" d="M2.332,11.607 L1.877,12.203 L1.887,12.211 L1.898,12.219 L2.332,11.607 Z M21.668,11.607 L22.102,12.219 L22.112,12.211 L22.123,12.203 L21.668,11.607 Z M11.25,22 C11.25,22.414 11.586,22.75 12,22.75 C12.414,22.75 12.75,22.414 12.75,22 L11.25,22 Z M16,22.75 C16.414,22.75 16.75,22.414 16.75,22 C16.75,21.586 16.414,21.25 16,21.25 L16,22.75 Z M8,21.25 C7.586,21.25 7.25,21.586 7.25,22 C7.25,22.414 7.586,22.75 8,22.75 L8,21.25 Z M10.035,9.225 C10.823,9.225 11.5,8.702 11.733,7.962 L10.302,7.512 C10.258,7.652 10.142,7.725 10.035,7.725 L10.035,9.225 Z M9.878,9.805 C9.761,9.718 9.722,9.583 9.768,9.437 C9.79,9.365 9.83,9.31 9.872,9.277 C9.909,9.248 9.958,9.225 10.035,9.225 L10.035,7.725 C8.259,7.725 7.635,9.998 8.977,11.005 L9.878,9.805 Z M10.518,11.823 C10.75,11.088 10.5,10.273 9.878,9.805 L8.977,11.005 C9.079,11.081 9.133,11.229 9.087,11.373 L10.518,11.823 Z M10.942,12.191 C10.875,12.242 10.822,12.251 10.782,12.25 C10.736,12.248 10.681,12.231 10.628,12.191 C10.525,12.114 10.467,11.985 10.518,11.823 L9.087,11.373 C8.829,12.195 9.162,12.966 9.728,13.391 C10.298,13.819 11.141,13.918 11.843,13.391 L10.942,12.191 Z M13.057,12.191 C12.428,11.72 11.571,11.72 10.942,12.191 L11.843,13.391 C11.938,13.32 12.061,13.32 12.157,13.391 L13.057,12.191 Z M13.481,11.823 C13.532,11.985 13.475,12.114 13.371,12.191 C13.318,12.231 13.263,12.248 13.217,12.25 C13.177,12.251 13.124,12.242 13.057,12.191 L12.157,13.391 C12.859,13.918 13.702,13.819 14.272,13.391 C14.838,12.966 15.17,12.195 14.912,11.373 L13.481,11.823 Z M14.122,9.805 C13.499,10.273 13.25,11.088 13.481,11.823 L14.912,11.373 C14.867,11.229 14.921,11.081 15.022,11.005 L14.122,9.805 Z M13.965,9.225 C14.042,9.225 14.091,9.248 14.127,9.277 C14.169,9.31 14.209,9.365 14.232,9.437 C14.278,9.583 14.238,9.718 14.122,9.805 L15.022,11.005 C16.365,9.998 15.74,7.725 13.965,7.725 L13.965,9.225 Z M12.267,7.962 C12.499,8.702 13.176,9.225 13.965,9.225 L13.965,7.725 C13.858,7.725 13.742,7.652 13.698,7.512 L12.267,7.962 Z M13.698,7.512 C13.168,5.829 10.831,5.829 10.302,7.512 L11.733,7.962 C11.822,7.679 12.178,7.679 12.267,7.962 L13.698,7.512 Z M18.25,9 L18.25,10.3 L19.75,10.3 L19.75,9 L18.25,9 Z M5.75,10.3 L5.75,9 L4.25,9 L4.25,10.3 L5.75,10.3 Z M14.533,16.479 C14.006,16.709 13.5,16.905 13.05,17.043 C12.589,17.185 12.236,17.25 12,17.25 L12,18.75 C12.458,18.75 12.979,18.634 13.491,18.477 C14.013,18.317 14.576,18.097 15.132,17.854 L14.533,16.479 Z M12,17.25 C11.764,17.25 11.41,17.185 10.95,17.043 C10.5,16.905 9.993,16.709 9.467,16.479 L8.868,17.854 C9.424,18.097 9.987,18.317 10.509,18.477 C11.02,18.634 11.542,18.75 12,18.75 L12,17.25 Z M9.467,16.479 C8.071,15.87 7.529,15.624 6.969,15.055 L5.9,16.106 C6.698,16.919 7.526,17.269 8.868,17.854 L9.467,16.479 Z M4.666,14.222 C4.921,14.857 5.42,15.618 5.9,16.106 L6.969,15.055 C6.628,14.708 6.239,14.113 6.057,13.662 L4.666,14.222 Z M15.132,17.854 C16.474,17.269 17.301,16.919 18.1,16.106 L17.03,15.055 C16.471,15.624 15.929,15.87 14.533,16.479 L15.132,17.854 Z M17.942,13.662 C17.761,14.113 17.371,14.708 17.03,15.055 L18.1,16.106 C18.58,15.618 19.078,14.857 19.334,14.222 L17.942,13.662 Z M12,2.75 C13.919,2.75 14.701,2.759 15.313,2.958 L15.777,1.531 C14.882,1.241 13.803,1.25 12,1.25 L12,2.75 Z M19.468,5.223 C18.9,3.473 17.527,2.1 15.777,1.531 L15.313,2.958 C16.607,3.378 17.622,4.393 18.042,5.687 L19.468,5.223 Z M12,1.25 C10.197,1.25 9.118,1.241 8.223,1.531 L8.687,2.958 C9.298,2.759 10.08,2.75 12,2.75 L12,1.25 Z M5.958,5.687 C6.378,4.393 7.393,3.378 8.687,2.958 L8.223,1.531 C6.473,2.1 5.1,3.473 4.531,5.223 L5.958,5.687 Z M5.222,12.738 L2.766,10.996 L1.898,12.219 L4.354,13.961 L5.222,12.738 Z M2.788,11.011 C0.984,9.632 1.96,6.75 4.231,6.75 L4.231,5.25 C0.525,5.25 -1.067,9.952 1.877,12.203 L2.788,11.011 Z M19.651,13.957 L22.102,12.219 L21.233,10.996 L18.783,12.734 L19.651,13.957 Z M22.123,12.203 C25.067,9.952 23.475,5.25 19.769,5.25 L19.769,6.75 C22.04,6.75 23.016,9.632 21.212,11.011 L22.123,12.203 Z M11.25,18 L11.25,22 L12.75,22 L12.75,18 L11.25,18 Z M16,21.25 L8,21.25 L8,22.75 L16,22.75 L16,21.25 Z M5.75,9 C5.75,7.528 5.752,6.722 5.853,6.125 L4.374,5.875 C4.247,6.628 4.25,7.589 4.25,9 L5.75,9 Z M5.853,6.125 C5.881,5.959 5.916,5.817 5.958,5.687 L4.531,5.223 C4.463,5.433 4.412,5.648 4.374,5.875 L5.853,6.125 Z M4.25,10.3 C4.25,11.854 4.243,12.883 4.522,13.813 L5.959,13.381 C5.757,12.711 5.75,11.94 5.75,10.3 L4.25,10.3 Z M4.522,13.813 C4.564,13.951 4.612,14.087 4.666,14.222 L6.057,13.662 C6.02,13.569 5.987,13.476 5.959,13.381 L4.522,13.813 Z M18.25,10.3 C18.25,11.947 18.242,12.717 18.038,13.39 L19.474,13.825 C19.757,12.891 19.75,11.86 19.75,10.3 L18.25,10.3 Z M18.038,13.39 C18.011,13.481 17.979,13.572 17.942,13.662 L19.334,14.222 C19.387,14.091 19.433,13.959 19.474,13.825 L18.038,13.39 Z M19.75,9 C19.75,7.589 19.753,6.628 19.626,5.875 L18.147,6.125 C18.247,6.722 18.25,7.528 18.25,9 L19.75,9 Z M19.626,5.875 C19.587,5.648 19.537,5.433 19.468,5.223 L18.042,5.687 C18.084,5.817 18.119,5.959 18.147,6.125 L19.626,5.875 Z M18.783,12.734 C18.68,12.807 18.57,12.87 18.454,12.921 L19.058,14.294 C19.267,14.202 19.465,14.089 19.651,13.957 L18.783,12.734 Z M4.354,13.961 C4.543,14.095 4.746,14.206 4.959,14.293 L5.522,12.902 C5.416,12.859 5.315,12.804 5.222,12.738 L4.354,13.961 Z M4.231,6.75 L5.114,6.75 L5.114,5.25 L4.231,5.25 L4.231,6.75 Z M19.769,5.25 L18.886,5.25 L18.886,6.75 L19.769,6.75 L19.769,5.25 Z"/>
</svg>

