<svg xmlns="http://www.w3.org/2000/svg" width="24" height="24" viewBox="0 0 24 24">
  <defs/>
  <path fill="#2D264B" d="M18,14.312 L17.25,14.3 L17.25,14.307 L17.25,14.314 L18,14.312 Z M9.38,7.716 C10.318,7.716 11.127,7.094 11.405,6.208 L9.975,5.758 C9.884,6.045 9.636,6.216 9.38,6.216 L9.38,7.716 Z M9.021,8.94 C8.769,8.752 8.697,8.456 8.786,8.175 C8.874,7.895 9.09,7.716 9.38,7.716 L9.38,6.216 C7.271,6.216 6.508,8.93 8.12,10.14 L9.021,8.94 Z M9.786,11.356 C10.064,10.474 9.764,9.498 9.021,8.94 L8.12,10.14 C8.342,10.307 8.447,10.616 8.355,10.906 L9.786,11.356 Z M10.74,12.122 C10.498,12.304 10.233,12.281 10.021,12.122 C9.806,11.961 9.684,11.682 9.786,11.356 L8.355,10.906 C8.045,11.891 8.443,12.813 9.121,13.322 C9.803,13.833 10.804,13.95 11.641,13.322 L10.74,12.122 Z M13.26,12.122 C12.51,11.559 11.49,11.559 10.74,12.122 L11.641,13.322 C11.857,13.159 12.143,13.159 12.359,13.322 L13.26,12.122 Z M14.214,11.356 C14.316,11.682 14.194,11.961 13.979,12.122 C13.767,12.281 13.502,12.304 13.26,12.122 L12.359,13.322 C13.196,13.95 14.197,13.833 14.879,13.322 C15.557,12.813 15.954,11.891 15.645,10.906 L14.214,11.356 Z M14.979,8.94 C14.236,9.498 13.936,10.474 14.214,11.356 L15.645,10.906 C15.553,10.616 15.658,10.307 15.88,10.14 L14.979,8.94 Z M14.62,7.716 C14.91,7.716 15.127,7.895 15.214,8.175 C15.303,8.456 15.231,8.752 14.979,8.94 L15.88,10.14 C17.492,8.93 16.729,6.216 14.62,6.216 L14.62,7.716 Z M12.595,6.208 C12.873,7.094 13.682,7.716 14.62,7.716 L14.62,6.216 C14.364,6.216 14.116,6.045 14.025,5.758 L12.595,6.208 Z M14.025,5.758 C13.393,3.747 10.607,3.747 9.975,5.758 L11.405,6.208 C11.598,5.597 12.402,5.597 12.595,6.208 L14.025,5.758 Z M4.75,9 C4.75,4.996 7.996,1.75 12,1.75 L12,0.25 C7.168,0.25 3.25,4.168 3.25,9 L4.75,9 Z M12,1.75 C16.004,1.75 19.25,4.996 19.25,9 L20.75,9 C20.75,4.168 16.832,0.25 12,0.25 L12,1.75 Z M17.25,14.835 L17.25,20.379 L18.75,20.379 L18.75,14.835 L17.25,14.835 Z M6.75,20.379 L6.75,14.835 L5.25,14.835 L5.25,20.379 L6.75,20.379 Z M15.65,21.068 L14.711,20.286 L13.751,21.438 L14.69,22.221 L15.65,21.068 Z M9.289,20.286 L8.35,21.068 L9.31,22.221 L10.249,21.438 L9.289,20.286 Z M14.711,20.286 C14.194,19.854 13.753,19.485 13.36,19.232 C12.948,18.968 12.514,18.781 12,18.781 L12,20.281 C12.12,20.281 12.27,20.315 12.549,20.494 C12.846,20.685 13.204,20.982 13.751,21.438 L14.711,20.286 Z M10.249,21.438 C10.796,20.982 11.154,20.685 11.451,20.494 C11.73,20.315 11.88,20.281 12,20.281 L12,18.781 C11.486,18.781 11.052,18.968 10.64,19.232 C10.247,19.485 9.806,19.854 9.289,20.286 L10.249,21.438 Z M5.25,20.379 C5.25,21.135 5.248,21.789 5.321,22.277 C5.392,22.755 5.574,23.356 6.193,23.633 L6.805,22.264 C6.925,22.317 6.858,22.415 6.804,22.056 C6.752,21.706 6.75,21.187 6.75,20.379 L5.25,20.379 Z M8.35,21.068 C7.72,21.593 7.311,21.932 7,22.123 C6.678,22.322 6.695,22.214 6.805,22.264 L6.193,23.633 C6.802,23.905 7.373,23.655 7.787,23.4 C8.212,23.139 8.719,22.713 9.31,22.221 L8.35,21.068 Z M17.25,20.379 C17.25,21.187 17.248,21.706 17.196,22.056 C17.142,22.415 17.075,22.317 17.195,22.264 L17.807,23.633 C18.426,23.356 18.608,22.755 18.68,22.277 C18.752,21.789 18.75,21.135 18.75,20.379 L17.25,20.379 Z M14.69,22.221 C15.281,22.713 15.788,23.139 16.213,23.4 C16.627,23.655 17.198,23.905 17.807,23.633 L17.195,22.264 C17.305,22.214 17.322,22.322 17,22.123 C16.689,21.932 16.28,21.593 15.65,21.068 L14.69,22.221 Z M18.75,14.835 C18.75,14.65 18.75,14.476 18.75,14.311 L17.25,14.314 C17.25,14.477 17.25,14.65 17.25,14.835 L18.75,14.835 Z M19.25,9 C19.25,10.839 18.566,12.517 17.438,13.795 L18.562,14.788 C19.923,13.246 20.75,11.219 20.75,9 L19.25,9 Z M17.438,13.795 C16.108,15.302 14.165,16.25 12,16.25 L12,17.75 C14.614,17.75 16.96,16.603 18.562,14.788 L17.438,13.795 Z M18.75,14.325 L18.75,14.304 L17.25,14.279 L17.25,14.3 L18.75,14.325 Z M6.75,14.835 C6.75,14.642 6.75,14.463 6.75,14.294 L5.25,14.29 C5.25,14.461 5.25,14.642 5.25,14.835 L6.75,14.835 Z M12,16.25 C9.835,16.25 7.892,15.302 6.563,13.796 L5.438,14.788 C7.04,16.604 9.387,17.75 12,17.75 L12,16.25 Z M6.563,13.796 C5.434,12.517 4.75,10.839 4.75,9 L3.25,9 C3.25,11.219 4.077,13.246 5.438,14.788 L6.563,13.796 Z"/>
</svg>

