<svg xmlns="http://www.w3.org/2000/svg" width="24" height="24" viewBox="0 0 24 24">
  <defs/>
  <path fill="#2D264B" d="M11.733,7.962 C11.822,7.679 12.178,7.679 12.267,7.962 C12.5,8.702 13.177,9.225 13.965,9.225 C14.042,9.225 14.091,9.248 14.128,9.277 C14.17,9.31 14.21,9.365 14.232,9.437 C14.278,9.583 14.239,9.718 14.122,9.805 C13.5,10.273 13.25,11.088 13.482,11.823 C13.533,11.985 13.475,12.114 13.372,12.191 C13.319,12.231 13.264,12.248 13.218,12.25 C13.178,12.251 13.125,12.242 13.058,12.191 C12.429,11.72 11.572,11.72 10.943,12.191 C10.876,12.242 10.823,12.251 10.783,12.25 C10.737,12.248 10.682,12.231 10.629,12.191 C10.525,12.114 10.468,11.985 10.519,11.823 C10.75,11.088 10.501,10.273 9.878,9.805 C9.762,9.718 9.722,9.583 9.768,9.437 C9.791,9.365 9.831,9.31 9.873,9.277 C9.909,9.248 9.958,9.225 10.035,9.225 C10.824,9.225 11.501,8.702 11.733,7.962 Z"/>
  <path fill="#2D264B" d="M8.224,1.531 C9.091,1.25 10.132,1.25 11.838,1.25 L12.162,1.25 C13.869,1.25 14.91,1.25 15.777,1.531 C17.528,2.1 18.9,3.473 19.469,5.223 L19.478,5.25 L19.77,5.25 C23.475,5.25 25.067,9.952 22.124,12.203 L22.113,12.211 L19.652,13.958 C19.56,14.023 19.465,14.083 19.367,14.139 C19.356,14.167 19.346,14.194 19.334,14.222 C19.079,14.857 18.58,15.618 18.101,16.106 C17.319,16.901 16.51,17.254 15.218,17.817 L15.132,17.854 C14.576,18.097 14.014,18.317 13.491,18.477 C13.244,18.553 12.994,18.62 12.75,18.668 L12.75,21.25 L16,21.25 C16.415,21.25 16.75,21.586 16.75,22 C16.75,22.414 16.415,22.75 16,22.75 L8,22.75 C7.586,22.75 7.25,22.414 7.25,22 C7.25,21.586 7.586,21.25 8,21.25 L11.25,21.25 L11.25,18.668 C11.007,18.62 10.757,18.553 10.509,18.477 C9.987,18.317 9.425,18.097 8.868,17.854 L8.782,17.817 C7.491,17.254 6.682,16.901 5.9,16.106 C5.421,15.618 4.922,14.857 4.666,14.222 C4.655,14.194 4.644,14.165 4.633,14.137 C4.537,14.083 4.444,14.025 4.355,13.962 L1.888,12.211 L1.877,12.203 C-1.066,9.952 0.526,5.25 4.231,5.25 L4.523,5.25 L4.532,5.223 C5.101,3.473 6.473,2.1 8.224,1.531 Z M13.698,7.512 C13.169,5.829 10.832,5.829 10.302,7.512 C10.258,7.652 10.142,7.725 10.035,7.725 C8.26,7.725 7.635,9.998 8.978,11.005 C9.079,11.081 9.133,11.229 9.088,11.373 C8.83,12.195 9.162,12.966 9.728,13.391 C10.298,13.819 11.141,13.918 11.843,13.391 C11.939,13.32 12.062,13.32 12.157,13.391 C12.859,13.918 13.702,13.819 14.272,13.391 C14.839,12.966 15.171,12.195 14.913,11.373 C14.867,11.229 14.921,11.081 15.023,11.005 C16.365,9.998 15.741,7.725 13.965,7.725 C13.858,7.725 13.742,7.652 13.698,7.512 Z M19.73,12.062 L21.222,11.004 C23.013,9.621 22.037,6.75 19.77,6.75 L19.717,6.75 C19.75,7.335 19.75,8.037 19.75,8.916 L19.75,10.426 C19.75,11.047 19.75,11.583 19.73,12.062 Z M4.283,6.75 L4.231,6.75 C1.964,6.75 0.988,9.621 2.778,11.004 L4.27,12.062 C4.25,11.58 4.25,11.042 4.25,10.417 L4.25,10.416 L4.25,8.916 C4.25,8.037 4.25,7.335 4.283,6.75 Z"/>
</svg>

