<svg width="24" height="24" viewBox="0 0 24 24" fill="none" xmlns="http://www.w3.org/2000/svg">
<path d="M11.7332 7.96244C11.8223 7.67923 12.1782 7.67923 12.2673 7.96244C12.4998 8.70167 13.1769 9.22477 13.9652 9.22477C14.042 9.22477 14.0913 9.24756 14.128 9.27688C14.1698 9.3103 14.2095 9.3649 14.2323 9.43717C14.2782 9.58312 14.2386 9.718 14.1222 9.80537C13.4996 10.2727 13.2503 11.0877 13.4817 11.8233C13.5326 11.9852 13.475 12.114 13.3717 12.1915C13.3188 12.2312 13.2636 12.2485 13.2176 12.2499C13.1779 12.2512 13.1248 12.2419 13.0577 12.1915C12.4288 11.7196 11.5717 11.7196 10.9428 12.1915C10.8757 12.2419 10.8226 12.2512 10.7829 12.2499C10.7369 12.2485 10.6817 12.2312 10.6288 12.1915C10.5255 12.114 10.4679 11.9852 10.5188 11.8233C10.7502 11.0877 10.5009 10.2727 9.87826 9.80537C9.76185 9.718 9.72232 9.58312 9.76823 9.43717C9.79096 9.3649 9.8307 9.3103 9.87254 9.27688C9.90922 9.24756 9.95845 9.22477 10.0353 9.22477C10.8236 9.22477 11.5007 8.70167 11.7332 7.96244Z" fill="#2D264B"/>
<path fill-rule="evenodd" clip-rule="evenodd" d="M8.2235 1.53146C9.09102 1.24958 10.1322 1.24975 11.8385 1.25002H12.1622C13.8685 1.24975 14.9097 1.24958 15.7772 1.53146C17.5277 2.10024 18.9001 3.47267 19.4689 5.22319L19.4775 5.25003H19.7697C23.4753 5.25003 25.0671 9.95211 22.1235 12.203L22.1129 12.2112L19.6516 13.9576C19.5598 14.0227 19.4648 14.0832 19.3671 14.1388C19.3564 14.1667 19.3455 14.1945 19.3343 14.2224C19.0788 14.857 18.5801 15.6184 18.1005 16.1063C17.3189 16.9012 16.51 17.2538 15.2184 17.8167L15.1325 17.8541C14.5762 18.0967 14.0136 18.3167 13.4913 18.4772C13.2439 18.5532 12.9941 18.6196 12.7503 18.6678V21.25H16.0003C16.4146 21.25 16.7503 21.5858 16.7503 22C16.7503 22.4142 16.4146 22.75 16.0003 22.75H8.00035C7.58614 22.75 7.25035 22.4142 7.25035 22C7.25035 21.5858 7.58614 21.25 8.00035 21.25H11.2503V18.6678C11.0066 18.6196 10.7568 18.5532 10.5094 18.4772C9.9871 18.3167 9.42453 18.0967 8.86818 17.8541L8.78234 17.8167C7.49068 17.2538 6.6818 16.9012 5.90018 16.1063C5.42056 15.6184 4.92186 14.857 4.66638 14.2224C4.65486 14.1938 4.64365 14.1651 4.63274 14.1365C4.53703 14.0834 4.44426 14.025 4.35486 13.9615L1.88795 12.2112L1.8773 12.203C-1.06623 9.95211 0.525578 5.25003 4.23112 5.25003H4.52316L4.53177 5.22319C5.10055 3.47267 6.47298 2.10024 8.2235 1.53146ZM4.28341 6.75003H4.23112C1.96421 6.75003 0.988013 9.62126 2.77849 11.0038L4.27033 12.0623C4.2502 11.5801 4.25027 11.0411 4.25034 10.416L4.25035 8.91608C4.25031 8.03687 4.25029 7.33514 4.28341 6.75003ZM19.7304 12.0624L21.2224 11.0038C23.0128 9.62126 22.0366 6.75003 19.7697 6.75003H19.7173C19.7504 7.33508 19.7504 8.03691 19.7504 8.91599L19.7504 10.4169C19.7504 11.0416 19.7505 11.5804 19.7304 12.0624ZM13.6982 7.51236C13.1688 5.82925 10.8317 5.82925 10.3023 7.51236C10.2582 7.65248 10.142 7.72477 10.0353 7.72477C8.25979 7.72477 7.63541 9.99754 8.97787 11.0051C9.07935 11.0812 9.13312 11.2295 9.0879 11.3733C8.82955 12.1946 9.162 12.9661 9.72842 13.3912C10.2983 13.819 11.1413 13.9181 11.8432 13.3912C11.9386 13.3197 12.0619 13.3197 12.1573 13.3912C12.8592 13.9181 13.7021 13.819 14.2721 13.3912C14.8385 12.9661 15.1709 12.1946 14.9126 11.3733C14.8674 11.2295 14.9211 11.0812 15.0226 11.0051C16.3651 9.99754 15.7407 7.72477 13.9652 7.72477C13.8585 7.72477 13.7422 7.65248 13.6982 7.51236Z" fill="#2D264B"/>
</svg>
