<svg width="24" height="24" viewBox="0 0 24 24" fill="none" xmlns="http://www.w3.org/2000/svg">
<path d="M12.5948 5.20819C12.4026 4.59727 11.5978 4.59727 11.4057 5.20819C11.1271 6.09399 10.3178 6.71631 9.38025 6.71631C9.09019 6.71631 8.87372 6.89471 8.78571 7.17451C8.69717 7.45601 8.76949 7.75176 9.02083 7.9404C9.76418 8.49829 10.0639 9.47391 9.78645 10.3561C9.68401 10.6818 9.80661 10.9606 10.0216 11.122C10.233 11.2807 10.4978 11.304 10.7404 11.122C11.4899 10.5594 12.5105 10.5594 13.26 11.122C13.5026 11.304 13.7674 11.2807 13.9789 11.122C14.1938 10.9606 14.3164 10.6818 14.214 10.3561C13.9365 9.47391 14.2363 8.49829 14.9796 7.9404C15.2309 7.75176 15.3033 7.45601 15.2147 7.17451C15.1267 6.89471 14.9102 6.71631 14.6202 6.71631C13.6826 6.71631 12.8734 6.09399 12.5948 5.20819Z" fill="#2D264B"/>
<path fill-rule="evenodd" clip-rule="evenodd" d="M3.25021 9C3.25021 4.16751 7.16772 0.25 12.0002 0.25C16.8327 0.25 20.7502 4.16751 20.7502 9C20.7502 9.42706 20.7196 9.84715 20.6603 10.2581C20.5337 10.5946 20.388 10.9218 20.2245 11.2382C18.9128 13.7781 16.4597 15.6312 13.5474 16.1213C13.0448 16.2059 12.5279 16.25 12.0002 16.25C11.3832 16.25 10.781 16.1897 10.199 16.0749C7.34668 15.5122 4.96277 13.6362 3.7066 11.1011C3.57099 10.8274 3.44853 10.5461 3.34004 10.2578C3.28084 9.84693 3.25021 9.42694 3.25021 9ZM9.97479 4.75812C10.6073 2.74729 13.3931 2.74729 14.0256 4.75812C14.1158 5.0448 14.3643 5.21631 14.6202 5.21631C16.7292 5.21631 17.4923 7.93003 15.88 9.1401C15.6578 9.30685 15.5535 9.61567 15.6449 9.90599C15.9547 10.8912 15.5573 11.8128 14.8792 12.3217C14.1977 12.8332 13.1965 12.9498 12.3596 12.3217C12.1436 12.1595 11.8568 12.1595 11.6408 12.3217C10.8039 12.9498 9.80273 12.8332 9.12118 12.3217C8.44313 11.8128 8.04568 10.8912 8.35556 9.90599C8.44688 9.61567 8.34262 9.30685 8.12044 9.1401C6.50811 7.93003 7.27119 5.21631 9.38025 5.21631C9.63615 5.21631 9.88461 5.0448 9.97479 4.75812Z" fill="#2D264B"/>
<path d="M3.26383 13.2652C3.17517 13.4153 3.08179 13.5771 2.98123 13.7513L1.15525 16.914C0.929779 17.3044 0.721298 17.6654 0.6011 17.9642C0.483366 18.2569 0.335094 18.7645 0.662755 19.2343C0.994567 19.71 1.52719 19.7382 1.84285 19.7225C2.16244 19.7066 2.56872 19.6267 3.00516 19.5407L3.79642 19.3851C4.23508 19.2988 4.49535 19.2491 4.68845 19.2358C4.77664 19.2297 4.82399 19.2338 4.84729 19.2377C4.858 19.2395 4.86432 19.2416 4.86432 19.2416L4.86725 19.243L4.8699 19.2449C4.8699 19.2449 4.87491 19.2493 4.88181 19.2576C4.89686 19.2759 4.92407 19.3148 4.96291 19.3942C5.04796 19.5681 5.13499 19.8184 5.2796 20.2414L5.54042 21.0044C5.68424 21.4254 5.81813 21.8172 5.96418 22.102C6.10842 22.3832 6.39916 22.8304 6.97706 22.8798C7.54774 22.9287 7.91315 22.5465 8.10777 22.2982C8.30646 22.0447 8.51486 21.6836 8.74022 21.2932L10.5295 18.1941C10.636 18.0096 10.7334 17.8409 10.8211 17.686C10.513 17.6524 10.2086 17.6057 9.90864 17.5465C7.18132 17.0085 4.82627 15.4403 3.26383 13.2652Z" fill="#2D264B"/>
<path d="M20.5816 13.4757C20.627 13.554 20.6738 13.635 20.7221 13.7188L22.5669 16.9141C22.7923 17.3044 23.0008 17.6654 23.121 17.9642C23.2387 18.2569 23.387 18.7645 23.0593 19.2343C22.7275 19.71 22.1949 19.7382 21.8792 19.7225C21.5597 19.7066 21.1534 19.6267 20.7169 19.5407L19.9257 19.3851C19.487 19.2988 19.2267 19.2491 19.0336 19.2358C18.9455 19.2297 18.8981 19.2338 18.8748 19.2377C18.8641 19.2395 18.8578 19.2416 18.8578 19.2416L18.8548 19.243L18.8534 19.2439L18.8522 19.2449C18.8522 19.2449 18.8472 19.2493 18.8403 19.2576C18.8252 19.2759 18.798 19.3148 18.7592 19.3942C18.6741 19.5681 18.5871 19.8184 18.4425 20.2414L18.1817 21.0044C18.0379 21.4254 17.904 21.8173 17.7579 22.102C17.6137 22.3832 17.3229 22.8304 16.745 22.8798C16.1744 22.9287 15.8089 22.5465 15.6143 22.2982C15.4156 22.0447 15.2072 21.6837 14.9819 21.2932L13.1925 18.194C13.0919 18.0196 12.9994 17.8594 12.9155 17.7115C13.2126 17.6865 13.5063 17.6493 13.7963 17.6005C16.5592 17.1356 18.9626 15.618 20.5816 13.4757Z" fill="#2D264B"/>
</svg>
