<svg width="24" height="24" viewBox="0 0 24 24" fill="none" xmlns="http://www.w3.org/2000/svg">
<path d="M9.38004 6.71631C10.3176 6.71631 11.1268 6.09399 11.4055 5.20819C11.5976 4.59727 12.4024 4.59727 12.5945 5.20819C12.8732 6.09399 13.6824 6.71631 14.62 6.71631C14.91 6.71631 15.1265 6.89471 15.2145 7.17451C15.303 7.45601 15.2307 7.75176 14.9794 7.9404C14.236 8.49829 13.9363 9.47391 14.2138 10.3561C14.3162 10.6818 14.1936 10.9606 13.9786 11.122C13.7672 11.2807 13.5024 11.304 13.2598 11.122C12.5103 10.5594 11.4897 10.5594 10.7402 11.122C10.4976 11.304 10.2328 11.2807 10.0214 11.122C9.80639 10.9606 9.68379 10.6818 9.78623 10.3561C10.0637 9.47391 9.76396 8.49829 9.02062 7.9404C8.76928 7.75176 8.69695 7.45601 8.7855 7.17451C8.87351 6.89471 9.08997 6.71631 9.38004 6.71631Z" fill="#2D264B"/>
<path fill-rule="evenodd" clip-rule="evenodd" d="M12 16C16.1421 16 19.5 12.6421 19.5 8.5C19.5 4.35786 16.1421 1 12 1C7.85786 1 4.5 4.35786 4.5 8.5C4.5 12.6421 7.85786 16 12 16ZM14.0254 4.75812C13.3929 2.74729 10.6071 2.74729 9.97458 4.75812C9.8844 5.0448 9.63594 5.21631 9.38004 5.21631C7.27098 5.21631 6.5079 7.93003 8.12023 9.1401C8.3424 9.30685 8.44667 9.61567 8.35535 9.90599C8.04546 10.8912 8.44292 11.8128 9.12096 12.3217C9.80252 12.8332 10.8037 12.9498 11.6406 12.3217C11.8566 12.1595 12.1434 12.1595 12.3594 12.3217C13.1963 12.9498 14.1975 12.8332 14.879 12.3217C15.5571 11.8128 15.9545 10.8912 15.6447 9.90599C15.5533 9.61567 15.6576 9.30685 15.8798 9.1401C17.4921 7.93003 16.729 5.21631 14.62 5.21631C14.3641 5.21631 14.1156 5.0448 14.0254 4.75812Z" fill="#2D264B"/>
<path d="M12 17.5C14.3051 17.5 16.4077 16.6334 18 15.2083V19.8787C18 21.4429 18 22.225 17.501 22.4482C17.002 22.6713 16.3914 22.1623 15.1701 21.1444L14.2313 20.3619C13.1665 19.4744 12.6342 19.0307 12 19.0307C11.3658 19.0307 10.8335 19.4744 9.76871 20.3619L8.82993 21.1444C7.60862 22.1623 6.99796 22.6713 6.49898 22.4482C6 22.225 6 21.4429 6 19.8787V15.2083C7.59227 16.6334 9.69494 17.5 12 17.5Z" fill="#2D264B"/>
</svg>
