<svg xmlns="http://www.w3.org/2000/svg" width="24" height="24" viewBox="0 0 24 24">
  <defs/>
  <path fill="#2D264B" d="M12,0.25 C7.167,0.25 3.25,4.168 3.25,9 C3.25,9.427 3.28,9.847 3.34,10.258 C3.448,10.546 3.571,10.827 3.706,11.101 C4.962,13.636 7.346,15.512 10.198,16.075 C10.78,16.19 11.383,16.25 12,16.25 C12.527,16.25 13.044,16.206 13.547,16.121 C16.459,15.631 18.912,13.778 20.224,11.238 C20.387,10.922 20.533,10.595 20.66,10.258 C20.719,9.847 20.75,9.427 20.75,9 C20.75,4.168 16.832,0.25 12,0.25 Z"/>
  <path fill="#2D264B" d="M20.581,13.476 C18.962,15.618 16.559,17.136 13.796,17.601 C13.506,17.649 13.212,17.686 12.915,17.712 C12.999,17.859 13.091,18.02 13.192,18.194 L14.981,21.293 C15.207,21.684 15.415,22.045 15.614,22.298 C15.809,22.547 16.174,22.929 16.744,22.88 C17.323,22.83 17.613,22.383 17.757,22.102 C17.904,21.817 18.037,21.425 18.181,21.004 L18.442,20.241 C18.587,19.818 18.674,19.568 18.759,19.394 C18.797,19.315 18.825,19.276 18.84,19.258 C18.847,19.249 18.852,19.245 18.852,19.245 L18.853,19.244 L18.854,19.243 L18.857,19.242 C18.857,19.242 18.864,19.239 18.874,19.238 C18.898,19.234 18.945,19.23 19.033,19.236 C19.226,19.249 19.486,19.299 19.925,19.385 L20.716,19.541 C21.153,19.627 21.559,19.707 21.879,19.723 C22.194,19.738 22.727,19.71 23.059,19.234 C23.387,18.765 23.238,18.257 23.12,17.964 C23,17.665 22.792,17.304 22.566,16.914 L20.722,13.719 C20.673,13.635 20.627,13.554 20.581,13.476 Z"/>
  <path fill="#2D264B" d="M10.821,17.686 C10.512,17.652 10.208,17.606 9.908,17.547 C7.181,17.009 4.826,15.44 3.263,13.265 C3.175,13.415 3.081,13.577 2.981,13.751 L1.155,16.914 C0.929,17.304 0.721,17.665 0.601,17.964 C0.483,18.257 0.335,18.765 0.662,19.234 C0.994,19.71 1.527,19.738 1.842,19.723 C2.162,19.707 2.568,19.627 3.005,19.541 L3.796,19.385 C4.235,19.299 4.495,19.249 4.688,19.236 C4.776,19.23 4.824,19.234 4.847,19.238 C4.858,19.239 4.864,19.242 4.864,19.242 L4.867,19.243 L4.869,19.245 C4.869,19.245 4.874,19.249 4.881,19.258 C4.896,19.276 4.924,19.315 4.962,19.394 C5.047,19.568 5.135,19.818 5.279,20.241 L5.54,21.004 C5.684,21.425 5.818,21.817 5.964,22.102 C6.108,22.383 6.399,22.83 6.977,22.88 C7.547,22.929 7.913,22.547 8.107,22.298 C8.306,22.045 8.514,21.684 8.74,21.293 L10.529,18.194 C10.636,18.01 10.733,17.841 10.821,17.686 Z"/>
</svg>

