<svg width="24" height="24" viewBox="0 0 24 24" fill="none" xmlns="http://www.w3.org/2000/svg">
<path fill-rule="evenodd" clip-rule="evenodd" d="M11.8385 1.25002C10.1322 1.24975 9.09102 1.24958 8.2235 1.53146C6.47298 2.10024 5.10055 3.47267 4.53177 5.22319L4.52316 5.25003H4.23112C0.525578 5.25003 -1.06623 9.95211 1.8773 12.203L1.88795 12.2112L4.35486 13.9615C4.44426 14.025 4.53703 14.0834 4.63274 14.1365C4.64365 14.1651 4.65486 14.1938 4.66638 14.2224C4.92186 14.857 5.42056 15.6184 5.90018 16.1063C6.6818 16.9012 7.49068 17.2538 8.78234 17.8167L8.86818 17.8541C9.42453 18.0967 9.9871 18.3167 10.5094 18.4772C10.7568 18.5532 11.0066 18.6196 11.2503 18.6678V21.25H8.00035C7.58614 21.25 7.25035 21.5858 7.25035 22C7.25035 22.4142 7.58614 22.75 8.00035 22.75H16.0003C16.4146 22.75 16.7503 22.4142 16.7503 22C16.7503 21.5858 16.4146 21.25 16.0003 21.25H12.7503V18.6678C12.9941 18.6196 13.2439 18.5532 13.4913 18.4772C14.0136 18.3167 14.5762 18.0967 15.1325 17.8541L15.2184 17.8167C16.51 17.2538 17.3189 16.9012 18.1005 16.1063C18.5801 15.6184 19.0788 14.857 19.3343 14.2224C19.3455 14.1945 19.3564 14.1667 19.3671 14.1388C19.4648 14.0832 19.5598 14.0227 19.6516 13.9576L22.1129 12.2112L22.1235 12.203C25.0671 9.95211 23.4753 5.25003 19.7697 5.25003H19.4775L19.4689 5.22319C18.9001 3.47267 17.5277 2.10024 15.7772 1.53146C14.9097 1.24958 13.8685 1.24975 12.1622 1.25002H11.8385ZM4.23112 6.75003H4.28341C4.25029 7.33514 4.25031 8.03687 4.25035 8.91608L4.25034 10.416C4.25027 11.0411 4.2502 11.5801 4.27033 12.0623L2.77849 11.0038C0.988013 9.62126 1.96421 6.75003 4.23112 6.75003ZM21.2224 11.0038L19.7304 12.0624C19.7505 11.5804 19.7504 11.0416 19.7504 10.4169L19.7504 8.91603C19.7504 8.03693 19.7504 7.33509 19.7173 6.75003H19.7697C22.0366 6.75003 23.0128 9.62126 21.2224 11.0038Z" fill="#2D264B"/>
</svg>
