<svg width="24" height="24" viewBox="0 0 24 24" fill="none" xmlns="http://www.w3.org/2000/svg">
<path d="M9 16.75C8.58579 16.75 8.25 16.4142 8.25 16V10.8107L7.53033 11.5303C7.23744 11.8232 6.76256 11.8232 6.46967 11.5303C6.17678 11.2374 6.17678 10.7626 6.46967 10.4697L7.46967 9.46967C8.31117 8.62817 9.75 9.22416 9.75 10.4142V16C9.75 16.4142 9.41421 16.75 9 16.75Z" fill="#2D264B"/>
<path fill-rule="evenodd" clip-rule="evenodd" d="M15 9.25C13.4812 9.25 12.25 10.4812 12.25 12V14C12.25 15.5188 13.4812 16.75 15 16.75C16.5188 16.75 17.75 15.5188 17.75 14V12C17.75 10.4812 16.5188 9.25 15 9.25ZM13.75 12C13.75 11.3096 14.3096 10.75 15 10.75C15.6904 10.75 16.25 11.3096 16.25 12V14C16.25 14.6904 15.6904 15.25 15 15.25C14.3096 15.25 13.75 14.6904 13.75 14V12Z" fill="#2D264B"/>
<path d="M2.5127 0.996654C2.51455 0.582445 2.85183 0.24816 3.26604 0.250008C3.68025 0.251856 4.01454 0.589137 4.01269 1.00335L4.00383 2.98906C4.00022 3.79848 3.99893 4.34217 4.04385 4.75351L4.04554 4.76877C4.50198 4.26696 5.00527 3.80854 5.54852 3.40038C7.34544 2.05032 9.58034 1.25 12 1.25C17.9371 1.25 22.75 6.06294 22.75 12C22.75 17.9371 17.9371 22.75 12 22.75C6.06294 22.75 1.25 17.9371 1.25 12C1.25 11.5858 1.58579 11.25 2 11.25C2.41421 11.25 2.75 11.5858 2.75 12C2.75 17.1086 6.89137 21.25 12 21.25C17.1086 21.25 21.25 17.1086 21.25 12C21.25 6.89137 17.1086 2.75 12 2.75C9.91636 2.75 7.99559 3.43804 6.44953 4.59962C5.95055 4.97451 5.49067 5.39871 5.07717 5.86494C5.10551 5.86873 5.13511 5.87232 5.16604 5.8757C5.57738 5.92062 6.12107 5.91933 6.93049 5.91572L8.9162 5.90686C9.33041 5.90501 9.66769 6.2393 9.66954 6.65351C9.67139 7.06772 9.33711 7.405 8.9229 7.40685L6.89386 7.4159C6.13899 7.41929 5.50939 7.42211 5.0032 7.36684C4.47227 7.30886 3.98294 7.17926 3.55786 6.85029C3.49008 6.79784 3.42487 6.74227 3.36242 6.68379C3.25638 6.58449 3.15834 6.4768 3.06926 6.36169C2.74029 5.93661 2.61069 5.44728 2.55271 4.91635C2.49744 4.41017 2.50026 3.7806 2.50365 3.02573L2.5127 0.996654Z" fill="#2D264B"/>
</svg>
