<svg width="24" height="24" viewBox="0 0 24 24" fill="none" xmlns="http://www.w3.org/2000/svg">
<path d="M12.6779 8.82237C12.6874 8.92765 12.6956 9.03695 12.7028 9.15036C12.7989 9.07476 12.8988 9.00006 13.0022 8.92576C13.6482 8.46137 14.5276 7.94476 15.6385 7.29214L15.7072 7.2518C16.8179 6.59928 17.6974 6.08263 18.4158 5.74551C19.1377 5.40677 19.8108 5.19163 20.4876 5.26401C21.5193 5.37434 22.4524 5.92451 23.0575 6.77193C23.4528 7.32544 23.6054 8.01873 23.6779 8.82237C23.75 9.62256 23.75 10.6547 23.75 11.961V12.0388C23.75 13.3452 23.75 14.3774 23.6779 15.1776C23.6054 15.9812 23.4527 16.6745 23.0575 17.228C22.4524 18.0755 21.5193 18.6256 20.4876 18.7359C19.8108 18.8083 19.1377 18.5932 18.4158 18.2544C17.6974 17.9173 16.818 17.4007 15.7072 16.7482L15.6385 16.7078C14.5276 16.0552 13.6482 15.5386 13.0022 15.0742C12.8988 14.9999 12.7989 14.9252 12.7028 14.8496C12.6956 14.963 12.6874 15.0723 12.6779 15.1776C12.6054 15.9812 12.4528 16.6745 12.0575 17.228C11.4524 18.0755 10.5193 18.6256 9.4876 18.7359C8.81079 18.8083 8.13767 18.5932 7.41581 18.2544C6.6974 17.9173 5.81796 17.4007 4.70723 16.7482L4.63854 16.7078C3.52758 16.0552 2.64816 15.5386 2.00217 15.0742C1.3519 14.6067 0.836661 14.1237 0.563162 13.4986C0.145613 12.5444 0.145613 11.4556 0.563163 10.5013C0.836662 9.87628 1.3519 9.39323 2.00217 8.92576C2.64816 8.46137 3.52757 7.94476 4.63853 7.29214L4.7072 7.2518C5.81794 6.59928 6.69739 6.08263 7.41581 5.74551C8.13767 5.40677 8.81079 5.19163 9.4876 5.26401C10.5193 5.37434 11.4524 5.92451 12.0575 6.77193C12.4528 7.32544 12.6054 8.01873 12.6779 8.82237Z" fill="#2D264B"/>
</svg>
