<svg xmlns="http://www.w3.org/2000/svg" width="24" height="24" viewBox="0 0 24 24">
  <defs/>
  <path fill="#2D264B" d="M8.25,11 C8.25,9.481 9.481,8.25 11,8.25 L14.76,8.25 C15.174,8.25 15.51,8.586 15.51,9 C15.51,9.414 15.174,9.75 14.76,9.75 L11,9.75 C10.31,9.75 9.75,10.31 9.75,11 L9.75,12 C9.75,12.138 9.862,12.25 10,12.25 L14,12.25 C14.967,12.25 15.75,13.033 15.75,14 L15.75,15 C15.75,16.519 14.519,17.75 13,17.75 L9,17.75 C8.586,17.75 8.25,17.414 8.25,17 C8.25,16.586 8.586,16.25 9,16.25 L13,16.25 C13.69,16.25 14.25,15.69 14.25,15 L14.25,14 C14.25,13.862 14.138,13.75 14,13.75 L10,13.75 C9.033,13.75 8.25,12.967 8.25,12 Z"/>
  <path fill="#2D264B" d="M2.513,0.997 C2.515,0.582 2.852,0.248 3.266,0.25 C3.68,0.252 4.015,0.589 4.013,1.003 L4.004,2.989 C4,3.798 3.999,4.342 4.044,4.754 L4.046,4.769 C4.502,4.267 5.005,3.809 5.549,3.4 C7.345,2.05 9.58,1.25 12,1.25 C17.937,1.25 22.75,6.063 22.75,12 C22.75,17.937 17.937,22.75 12,22.75 C6.063,22.75 1.25,17.937 1.25,12 C1.25,11.586 1.586,11.25 2,11.25 C2.414,11.25 2.75,11.586 2.75,12 C2.75,17.109 6.891,21.25 12,21.25 C17.109,21.25 21.25,17.109 21.25,12 C21.25,6.891 17.109,2.75 12,2.75 C9.916,2.75 7.996,3.438 6.45,4.6 C5.951,4.975 5.491,5.399 5.077,5.865 C5.106,5.869 5.135,5.872 5.166,5.876 C5.577,5.921 6.121,5.919 6.93,5.916 L8.916,5.907 C9.33,5.905 9.668,6.239 9.67,6.654 C9.671,7.068 9.337,7.405 8.923,7.407 L6.894,7.416 C6.139,7.419 5.509,7.422 5.003,7.367 C4.472,7.309 3.983,7.179 3.558,6.85 C3.487,6.796 3.419,6.737 3.354,6.676 C3.251,6.579 3.156,6.474 3.069,6.362 C2.74,5.937 2.611,5.447 2.553,4.916 C2.497,4.41 2.5,3.781 2.504,3.026 L2.513,0.997 Z"/>
</svg>

