<svg xmlns="http://www.w3.org/2000/svg" width="24" height="24" viewBox="0 0 24 24">
  <defs/>
  <path fill="#2D264B" d="M12.678,8.822 C12.687,8.928 12.696,9.037 12.703,9.15 C12.799,9.075 12.899,9 13.002,8.926 C13.648,8.461 14.528,7.945 15.639,7.292 L15.707,7.252 C16.818,6.599 17.697,6.083 18.416,5.746 C19.138,5.407 19.811,5.192 20.488,5.264 C21.519,5.374 22.452,5.925 23.058,6.772 C23.453,7.325 23.605,8.019 23.678,8.822 C23.75,9.623 23.75,10.655 23.75,11.961 L23.75,12.039 C23.75,13.345 23.75,14.377 23.678,15.178 C23.605,15.981 23.453,16.674 23.058,17.228 C22.452,18.076 21.519,18.626 20.488,18.736 C19.811,18.808 19.138,18.593 18.416,18.254 C17.697,17.917 16.818,17.401 15.707,16.748 L15.639,16.708 C14.528,16.055 13.648,15.539 13.002,15.074 C12.899,15 12.799,14.925 12.703,14.85 C12.696,14.963 12.687,15.072 12.678,15.178 C12.605,15.981 12.453,16.674 12.057,17.228 C11.452,18.076 10.519,18.626 9.488,18.736 C8.811,18.808 8.138,18.593 7.416,18.254 C6.697,17.917 5.818,17.401 4.707,16.748 L4.639,16.708 C3.528,16.055 2.648,15.539 2.002,15.074 C1.352,14.607 0.837,14.124 0.563,13.499 C0.146,12.544 0.146,11.456 0.563,10.501 C0.837,9.876 1.352,9.393 2.002,8.926 C2.648,8.461 3.528,7.945 4.639,7.292 L4.707,7.252 C5.818,6.599 6.697,6.083 7.416,5.746 C8.138,5.407 8.811,5.192 9.488,5.264 C10.519,5.374 11.452,5.925 12.057,6.772 C12.453,7.325 12.605,8.019 12.678,8.822 Z"/>
</svg>

