<svg width="24" height="24" viewBox="0 0 24 24" fill="none" xmlns="http://www.w3.org/2000/svg">
<path fill-rule="evenodd" clip-rule="evenodd" d="M6.25577 5.73903C6.3922 2.68452 8.91177 0.25 11.9999 0.25C15.0881 0.25 17.6077 2.68452 17.7441 5.73903C17.7696 5.75012 17.795 5.76146 17.8203 5.77306C18.7052 6.17871 19.4706 6.80141 20.047 7.58057L19.2831 8.34266L18.4193 9.20647C16.7376 10.8881 15.5286 12.0949 14.4858 12.8905C13.4603 13.673 12.6842 13.9868 11.8786 13.9868C11.0729 13.9868 10.2968 13.673 9.27131 12.8905C8.2285 12.0949 7.01948 10.8881 5.33782 9.20647L3.85232 7.72097C4.43883 6.8761 5.24215 6.20279 6.17956 5.77306C6.20487 5.76146 6.23027 5.75012 6.25577 5.73903ZM7.79918 5.35109C8.65217 5.24978 9.69288 5.24987 11.0462 5.24999H12.9537C14.307 5.24987 15.3477 5.24978 16.2007 5.35109C15.8883 3.31188 14.1265 1.75 11.9999 1.75C9.87337 1.75 8.11159 3.31188 7.79918 5.35109Z" fill="#2D264B"/>
<path d="M20.7715 8.97674L20.3353 9.41183L19.4394 10.3077C17.8072 11.9399 16.5279 13.2192 15.3957 14.0831C14.2367 14.9673 13.144 15.4868 11.8786 15.4868C10.6131 15.4868 9.52037 14.9673 8.36144 14.0831C7.22918 13.2192 5.95 11.94 4.31774 10.3077L3.16985 9.15982C2.90399 10.0379 2.7484 11.1586 2.53734 12.6789L2.5161 12.8319C2.30219 14.372 2.13498 15.5759 2.08419 16.5457C2.03262 17.5303 2.095 18.3508 2.3912 19.1041C2.87532 20.3353 3.76921 21.362 4.92213 22.0109C5.62751 22.4079 6.43165 22.5825 7.41401 22.6669C8.38153 22.75 9.59703 22.75 11.1519 22.75H12.848C14.4029 22.75 15.6184 22.75 16.5859 22.6669C17.5683 22.5825 18.3724 22.4079 19.0778 22.0109C20.2307 21.362 21.1246 20.3353 21.6087 19.1041C21.9049 18.3508 21.9673 17.5303 21.9157 16.5457C21.8649 15.5759 21.6977 14.3719 21.4838 12.8318L21.4594 12.6563C21.236 11.0466 21.0745 9.88337 20.7715 8.97674Z" fill="#2D264B"/>
</svg>
