<svg width="24" height="24" viewBox="0 0 24 24" fill="none" xmlns="http://www.w3.org/2000/svg">
<path fill-rule="evenodd" clip-rule="evenodd" d="M12.8573 6C14.217 5.99999 15.2524 5.99998 16.0783 6.08679C16.7308 6.15536 17.2926 6.28112 17.8203 6.52306C18.8258 6.98397 19.6769 7.72509 20.2718 8.65756C20.6318 9.22195 20.8455 9.8533 21.0133 10.6235C21.1777 11.378 21.3084 12.3187 21.4746 13.5154L21.4838 13.5818C21.6977 15.1219 21.8649 16.3259 21.9157 17.2957C21.9673 18.2803 21.9049 19.1008 21.6087 19.8541C21.1246 21.0853 20.2307 22.112 19.0778 22.7609C18.3724 23.1579 17.5683 23.3325 16.5859 23.4169C15.6184 23.5 14.4029 23.5 12.848 23.5H11.1519C9.59703 23.5 8.38153 23.5 7.41401 23.4169C6.43165 23.3325 5.62751 23.1579 4.92213 22.7609C3.76921 22.112 2.87532 21.0853 2.3912 19.8541C2.095 19.1008 2.03262 18.2803 2.08419 17.2957C2.13498 16.3259 2.30219 15.122 2.5161 13.5819L2.52531 13.5156C2.69153 12.3188 2.82218 11.378 2.98661 10.6235C3.15443 9.8533 3.36807 9.22195 3.72811 8.65756C4.32296 7.72509 5.17413 6.98397 6.17956 6.52306C6.70733 6.28112 7.26913 6.15536 7.92156 6.08679C8.74754 5.99998 9.78287 5.99999 11.1426 6H12.8573ZM7.25 5.75C7.25 3.12665 9.37665 1 12 1C14.6234 1 16.75 3.12665 16.75 5.75V10.75C16.75 11.1642 16.4142 11.5 16 11.5C15.5858 11.5 15.25 11.1642 15.25 10.75V5.75C15.25 3.95507 13.7949 2.5 12 2.5C10.2051 2.5 8.75 3.95507 8.75 5.75V10.75C8.75 11.1642 8.41421 11.5 8 11.5C7.58579 11.5 7.25 11.1642 7.25 10.75V5.75Z" fill="#2D264B"/>
</svg>
