<svg width="24" height="24" viewBox="0 0 24 24" fill="none" xmlns="http://www.w3.org/2000/svg">
<path fill-rule="evenodd" clip-rule="evenodd" d="M11.9999 1.25C9.56979 1.25 7.56587 3.07495 7.2839 5.42915C6.89019 5.50456 6.52748 5.61356 6.17956 5.77306C5.17413 6.23397 4.32296 6.97509 3.72811 7.90756C3.36807 8.47195 3.15443 9.1033 2.98661 9.87347C2.82218 10.628 2.69153 11.5688 2.52531 12.7656L2.5161 12.8319C2.30219 14.372 2.13498 15.5759 2.08419 16.5457C2.03262 17.5303 2.095 18.3508 2.3912 19.1041C2.87532 20.3353 3.76921 21.362 4.92213 22.0109C5.62751 22.4079 6.43165 22.5825 7.41401 22.6669C8.38153 22.75 9.59703 22.75 11.1519 22.75H12.848C14.4029 22.75 15.6184 22.75 16.5859 22.6669C17.5683 22.5825 18.3724 22.4079 19.0778 22.0109C20.2307 21.362 21.1246 20.3353 21.6087 19.1041C21.9049 18.3508 21.9673 17.5303 21.9157 16.5457C21.8649 15.5759 21.6977 14.3719 21.4838 12.8318L21.4746 12.7656C21.3084 11.5688 21.1777 10.628 21.0133 9.87347C20.8455 9.1033 20.6318 8.47195 20.2718 7.90756C19.6769 6.97509 18.8258 6.23397 17.8203 5.77306C17.4724 5.61356 17.1097 5.50456 16.716 5.42915C16.434 3.07495 14.4301 1.25 11.9999 1.25ZM11.1426 5.25C10.2405 5.24999 9.48116 5.24999 8.83104 5.27533C9.16036 3.82924 10.4541 2.75 11.9999 2.75C13.5458 2.75 14.8395 3.82924 15.1689 5.27533C14.5187 5.24999 13.7594 5.24999 12.8573 5.25H11.1426ZM8.53033 10.4697C8.23744 10.1768 7.76256 10.1768 7.46967 10.4697C7.17678 10.7626 7.17678 11.2374 7.46967 11.5303L7.86967 11.9303C10.1508 14.2114 13.8492 14.2114 16.1303 11.9303L16.5303 11.5303C16.8232 11.2374 16.8232 10.7626 16.5303 10.4697C16.2374 10.1768 15.7626 10.1768 15.4697 10.4697L15.0697 10.8697C13.3743 12.565 10.6257 12.565 8.93033 10.8697L8.53033 10.4697Z" fill="#2D264B"/>
</svg>
