<svg width="24" height="24" viewBox="0 0 24 24" fill="none" xmlns="http://www.w3.org/2000/svg">
<path fill-rule="evenodd" clip-rule="evenodd" d="M6.2985 5.25C6.66621 2.42849 9.07851 0.25 12 0.25C14.9214 0.25 17.3338 2.42856 17.7015 5.25L18.364 5.25C19.3597 5.24997 20.1854 5.24994 20.8334 5.34049C21.5147 5.43567 22.1268 5.64585 22.5923 6.16597C23.0579 6.68609 23.1991 7.31769 23.2185 8.00527C23.2369 8.65931 23.1457 9.47993 23.0358 10.4695L22.7279 13.2406C22.4978 15.3109 22.3172 16.937 22.0103 18.2008C21.6958 19.4962 21.228 20.5072 20.3596 21.2845C19.4903 22.0625 18.4288 22.4154 17.0994 22.5847C15.8015 22.75 14.1533 22.75 12.0535 22.75H11.9465C9.84665 22.75 8.19847 22.75 6.90054 22.5847C5.57115 22.4154 4.50967 22.0625 3.64039 21.2845C2.77194 20.5072 2.30415 19.4962 1.98963 18.2008C1.68278 16.937 1.50212 15.3109 1.27209 13.2405L0.964197 10.4695C0.854212 9.47995 0.763004 8.65932 0.781433 8.00527C0.800806 7.31769 0.942096 6.68609 1.40763 6.16597C1.87316 5.64585 2.48529 5.43567 3.16653 5.34049C3.81454 5.24994 4.64023 5.24997 5.63592 5.25L6.2985 5.25ZM16.1841 5.25C15.8299 3.26065 14.0913 1.75 12 1.75C9.9087 1.75 8.16995 3.26071 7.81588 5.25H16.1841Z" fill="#2D264B"/>
</svg>
