<svg xmlns="http://www.w3.org/2000/svg" width="24" height="24" viewBox="0 0 24 24">
  <defs/>
  <path fill="#2D264B" d="M16.72,5.432 Q17.339,5.553 17.82,5.773 Q19.361,6.479 20.272,7.908 Q20.947,8.966 21.479,12.796 Q22.16,17.702 21.609,19.104 Q20.86,21.008 19.078,22.011 Q17.764,22.75 12.812,22.75 L11.188,22.75 Q6.235,22.75 4.922,22.011 Q3.14,21.008 2.391,19.104 Q1.84,17.702 2.521,12.796 L2.521,12.796 Q3.053,8.966 3.728,7.908 Q4.639,6.479 6.18,5.773 Q6.66,5.553 7.28,5.432 Q7.455,3.827 8.641,2.641 Q10.032,1.25 12,1.25 Q13.967,1.25 15.359,2.641 Q16.545,3.827 16.72,5.432 Z M8.059,6.831 Q7.291,6.913 6.805,7.137 Q5.666,7.658 4.993,8.714 Q4.494,9.496 4.007,13.003 L4.007,13.003 Q3.38,17.519 3.787,18.555 Q4.34,19.962 5.658,20.704 Q6.628,21.25 11.188,21.25 L12.812,21.25 Q17.371,21.25 18.342,20.704 Q19.659,19.962 20.213,18.555 Q20.62,17.519 19.993,13.003 L19.993,13.003 Q19.506,9.496 19.007,8.714 Q18.334,7.659 17.195,7.137 Q16.708,6.913 15.941,6.831 Q15.914,6.829 15.888,6.825 Q15.123,6.75 12.812,6.75 L11.188,6.75 Q8.877,6.75 8.111,6.825 Q8.085,6.829 8.059,6.831 Z M16,9.75 L8,9.75 Q7.689,9.75 7.47,9.53 Q7.25,9.311 7.25,9 Q7.25,8.689 7.47,8.47 Q7.689,8.25 8,8.25 L16,8.25 Q16.311,8.25 16.53,8.47 Q16.75,8.689 16.75,9 Q16.75,9.311 16.53,9.53 Q16.311,9.75 16,9.75 Z M15.176,5.282 Q14.985,4.389 14.298,3.702 Q13.346,2.75 12,2.75 Q10.654,2.75 9.702,3.702 Q9.015,4.389 8.824,5.282 Q9.709,5.25 11.188,5.25 L12.812,5.25 Q14.29,5.25 15.176,5.282 Z"/>
</svg>

