<svg xmlns="http://www.w3.org/2000/svg" width="24" height="24" viewBox="0 0 24 24">
  <defs/>
  <path fill="#2D264B" d="M7.25,5.75 C7.25,3.127 9.377,1 12,1 C14.623,1 16.75,3.127 16.75,5.75 L16.75,6.186 C17.131,6.261 17.482,6.368 17.82,6.523 C18.826,6.984 19.677,7.725 20.272,8.658 C20.632,9.222 20.846,9.853 21.013,10.623 C21.178,11.378 21.308,12.319 21.475,13.515 L21.484,13.582 C21.698,15.122 21.865,16.326 21.916,17.296 C21.967,18.28 21.905,19.101 21.609,19.854 C21.125,21.085 20.231,22.112 19.078,22.761 C18.372,23.158 17.568,23.333 16.586,23.417 C15.618,23.5 14.403,23.5 12.848,23.5 L11.152,23.5 C9.597,23.5 8.382,23.5 7.414,23.417 C6.432,23.333 5.628,23.158 4.922,22.761 C3.769,22.112 2.875,21.085 2.391,19.854 C2.095,19.101 2.033,18.28 2.084,17.296 C2.135,16.326 2.302,15.122 2.516,13.582 L2.525,13.516 C2.692,12.319 2.822,11.378 2.987,10.623 C3.154,9.853 3.368,9.222 3.728,8.658 C4.323,7.725 5.174,6.984 6.18,6.523 C6.517,6.368 6.869,6.261 7.25,6.186 Z M16.75,10.75 L16.75,6.186 C16.536,6.144 16.313,6.111 16.078,6.087 C15.823,6.06 15.548,6.041 15.25,6.029 L15.25,5.75 C15.25,3.955 13.795,2.5 12,2.5 C10.205,2.5 8.75,3.955 8.75,5.75 L8.75,6.029 C8.452,6.041 8.177,6.06 7.922,6.087 C7.687,6.111 7.464,6.144 7.25,6.186 L7.25,10.75 C7.25,11.164 7.586,11.5 8,11.5 C8.414,11.5 8.75,11.164 8.75,10.75 L8.75,6.029 C9.418,6 10.203,6 11.142,6 L12.857,6 C13.797,6 14.582,6 15.25,6.029 L15.25,10.75 C15.25,11.164 15.586,11.5 16,11.5 C16.414,11.5 16.75,11.164 16.75,10.75 Z"/>
</svg>

