<svg xmlns="http://www.w3.org/2000/svg" width="24" height="24" viewBox="0 0 24 24">
  <defs/>
  <path fill="#2D264B" d="M6.299,5.25 C6.666,2.428 9.079,0.25 12,0.25 C14.921,0.25 17.334,2.429 17.701,5.25 L18.364,5.25 C19.36,5.25 20.185,5.25 20.833,5.34 C21.515,5.436 22.127,5.646 22.592,6.166 C23.058,6.686 23.199,7.318 23.219,8.005 C23.237,8.659 23.146,9.479 23.036,10.467 L23.036,10.469 L22.728,13.241 C22.498,15.311 22.317,16.937 22.01,18.201 C21.696,19.496 21.228,20.507 20.36,21.285 C19.49,22.062 18.429,22.415 17.099,22.585 C15.802,22.75 14.153,22.75 12.054,22.75 L11.946,22.75 C9.847,22.75 8.198,22.75 6.901,22.585 C5.571,22.415 4.51,22.062 3.64,21.285 C2.772,20.507 2.304,19.496 1.99,18.201 C1.683,16.937 1.502,15.311 1.272,13.241 L0.964,10.469 C0.854,9.48 0.763,8.659 0.781,8.005 C0.801,7.318 0.942,6.686 1.408,6.166 C1.873,5.646 2.485,5.436 3.167,5.34 C3.815,5.25 4.64,5.25 5.636,5.25 Z M16.184,5.25 C15.83,3.261 14.091,1.75 12,1.75 C9.909,1.75 8.17,3.261 7.816,5.25 Z"/>
</svg>

