<svg xmlns="http://www.w3.org/2000/svg" width="24" height="24" viewBox="0 0 24 24">
  <defs/>
  <path fill="#2D264B" d="M17.705,5.25 L18.309,5.25 Q21.773,5.25 22.592,6.166 Q23.412,7.082 23.03,10.524 L23.03,10.525 L22.734,13.187 Q21.997,19.819 20.36,21.284 Q18.722,22.75 12,22.75 Q5.278,22.75 3.64,21.285 Q2.003,19.819 1.266,13.187 L1.266,13.187 L0.97,10.525 Q0.588,7.082 1.408,6.166 Q2.228,5.25 5.691,5.25 L6.296,5.25 Q6.535,3.287 8.003,1.867 Q9.674,0.25 12,0.25 Q14.345,0.25 16.021,1.89 Q17.47,3.307 17.705,5.25 Z M17,6.75 L5.691,6.75 Q2.898,6.75 2.525,7.166 Q2.153,7.583 2.461,10.359 L2.757,13.021 L2.757,13.022 Q3.431,19.084 4.641,20.167 Q5.851,21.25 12,21.25 Q18.149,21.25 19.359,20.167 Q20.569,19.084 21.243,13.021 L21.539,10.359 L21.539,10.358 Q21.847,7.583 21.475,7.166 Q21.102,6.75 18.309,6.75 L17,6.75 Z M7.797,5.25 L16.206,5.25 Q15.814,1.75 12,1.75 Q8.208,1.75 7.797,5.25 Z M6.53,9.47 L7.13,10.07 Q9.147,12.087 12,12.087 Q14.853,12.087 16.87,10.07 L17.47,9.47 Q17.689,9.25 18,9.25 Q18.311,9.25 18.53,9.47 Q18.75,9.689 18.75,10 Q18.75,10.311 18.53,10.53 L17.93,11.13 Q15.474,13.587 12,13.587 Q8.526,13.587 6.07,11.13 L5.47,10.53 Q5.25,10.311 5.25,10 Q5.25,9.689 5.47,9.47 Q5.689,9.25 6,9.25 Q6.311,9.25 6.53,9.47 Z"/>
</svg>

