<svg xmlns="http://www.w3.org/2000/svg" width="24" height="24" viewBox="0 0 24 24">
  <defs/>
  <path fill="#2D264B" d="M20.582,8.486 Q21.015,9.456 21.479,12.796 Q22.16,17.702 21.609,19.104 Q20.86,21.008 19.078,22.011 Q17.764,22.75 12.812,22.75 L11.188,22.75 Q6.235,22.75 4.922,22.011 Q3.14,21.008 2.391,19.104 Q1.84,17.702 2.521,12.796 Q2.961,9.626 3.334,8.685 L4.032,8.961 L3.334,8.685 Q3.502,8.262 3.728,7.908 Q4.639,6.479 6.18,5.773 Q6.217,5.756 6.255,5.739 Q6.343,3.525 7.934,1.934 Q9.618,0.25 12,0.25 Q14.382,0.25 16.066,1.934 Q17.657,3.525 17.745,5.739 Q17.783,5.756 17.82,5.773 Q19.361,6.479 20.272,7.908 Q20.444,8.178 20.582,8.485 Z M4.425,10.414 Q4.232,11.384 4.007,13.003 Q3.38,17.519 3.787,18.555 Q4.34,19.962 5.658,20.704 Q6.628,21.25 11.188,21.25 L12.812,21.25 Q17.371,21.25 18.342,20.704 Q19.659,19.962 20.213,18.555 Q20.62,17.519 19.993,13.003 Q19.747,11.234 19.53,10.217 L19.48,10.267 Q14.26,15.487 11.879,15.487 Q9.531,15.487 4.425,10.414 Z M16.791,6.987 Q15.974,6.75 12.812,6.75 L11.188,6.75 Q8.025,6.75 7.209,6.987 L7,6.267 L7.209,6.987 Q6.994,7.05 6.805,7.137 Q5.666,7.658 4.993,8.714 Q4.964,8.759 4.937,8.806 L5.338,9.206 L5.338,9.207 Q10.118,13.987 11.879,13.987 Q13.639,13.987 18.419,9.206 L18.419,9.206 L18.97,8.656 Q18.302,7.644 17.195,7.137 Q17.005,7.05 16.791,6.987 Z M15.005,2.995 Q13.76,1.75 12,1.75 Q10.24,1.75 8.995,2.995 Q7.977,4.013 7.791,5.376 Q8.991,5.25 11.188,5.25 L12.812,5.25 Q15.009,5.25 16.209,5.376 Q16.023,4.013 15.005,2.995 Z"/>
</svg>

