<svg xmlns="http://www.w3.org/2000/svg" width="24" height="24" viewBox="0 0 24 24">
  <defs/>
  <path fill="#2D264B" d="M17.706,5.25 L18.309,5.25 Q21.773,5.25 22.592,6.166 Q23.412,7.082 23.03,10.524 L23.03,10.525 L22.734,13.187 Q21.997,19.819 20.36,21.284 Q18.722,22.75 12,22.75 Q5.278,22.75 3.64,21.285 Q2.003,19.819 1.266,13.187 L1.266,13.187 L0.97,10.525 Q0.588,7.082 1.408,6.166 Q2.228,5.25 5.691,5.25 L6.296,5.25 Q6.537,3.278 8.012,1.858 Q9.681,0.25 12,0.25 Q14.382,0.25 16.066,1.934 Q17.478,3.347 17.706,5.25 Z M5.691,6.75 Q2.898,6.75 2.525,7.166 Q2.153,7.583 2.461,10.359 L2.757,13.021 L2.757,13.022 Q3.431,19.084 4.641,20.167 Q5.851,21.25 12,21.25 Q18.149,21.25 19.359,20.167 Q20.569,19.084 21.243,13.021 L21.539,10.359 L21.539,10.358 Q21.847,7.583 21.475,7.166 Q21.102,6.75 18.309,6.75 L5.691,6.75 Z M16.19,5.25 Q15.976,3.966 15.005,2.995 Q13.76,1.75 12,1.75 Q8.216,1.75 7.799,5.25 L16.19,5.25 Z"/>
  <path fill="#2D264B" d="M18,10 C18,10.552 17.552,11 17,11 C16.448,11 16,10.552 16,10 C16,9.448 16.448,9 17,9 C17.552,9 18,9.448 18,10 Z"/>
  <path fill="#2D264B" d="M8,10 C8,10.552 7.552,11 7,11 C6.448,11 6,10.552 6,10 C6,9.448 6.448,9 7,9 C7.552,9 8,9.448 8,10 Z"/>
</svg>

