<svg xmlns="http://www.w3.org/2000/svg" width="24" height="24" viewBox="0 0 24 24">
  <defs/>
  <path fill="#2D264B" d="M6.256,5.739 C6.392,2.685 8.912,0.25 12,0.25 C15.088,0.25 17.608,2.685 17.744,5.739 C17.77,5.75 17.795,5.761 17.82,5.773 C18.705,6.179 19.471,6.801 20.047,7.581 L19.283,8.343 L18.419,9.206 C16.738,10.888 15.529,12.095 14.486,12.891 C13.46,13.673 12.684,13.987 11.879,13.987 C11.073,13.987 10.297,13.673 9.271,12.891 C8.229,12.095 7.019,10.888 5.338,9.206 L3.852,7.721 C4.439,6.876 5.242,6.203 6.18,5.773 C6.205,5.761 6.23,5.75 6.256,5.739 Z M7.799,5.351 C8.652,5.25 9.693,5.25 11.046,5.25 L12.954,5.25 C14.307,5.25 15.348,5.25 16.201,5.351 C15.888,3.312 14.127,1.75 12,1.75 C9.873,1.75 8.112,3.312 7.799,5.351 Z"/>
  <path fill="#2D264B" d="M20.771,8.977 L20.335,9.412 L19.439,10.308 C17.807,11.94 16.528,13.219 15.396,14.083 C14.237,14.967 13.144,15.487 11.879,15.487 C10.613,15.487 9.52,14.967 8.361,14.083 C7.229,13.219 5.95,11.94 4.318,10.308 L3.17,9.16 C2.904,10.038 2.748,11.159 2.537,12.679 L2.516,12.832 C2.302,14.372 2.135,15.576 2.084,16.546 C2.033,17.53 2.095,18.351 2.391,19.104 C2.875,20.335 3.769,21.362 4.922,22.011 C5.628,22.408 6.432,22.582 7.414,22.667 C8.382,22.75 9.597,22.75 11.152,22.75 L12.848,22.75 C14.403,22.75 15.618,22.75 16.586,22.667 C17.568,22.582 18.372,22.408 19.078,22.011 C20.231,21.362 21.125,20.335 21.609,19.104 C21.905,18.351 21.967,17.53 21.916,16.546 C21.865,15.576 21.698,14.372 21.484,12.832 L21.459,12.656 C21.236,11.047 21.075,9.883 20.771,8.977 Z"/>
</svg>

