<svg xmlns="http://www.w3.org/2000/svg" width="24" height="24" viewBox="0 0 24 24">
  <defs/>
  <path fill="#2D264B" d="M16.75,5.438 Q17.351,5.558 17.82,5.773 Q19.361,6.479 20.272,7.908 Q20.947,8.966 21.479,12.796 Q22.16,17.702 21.609,19.104 Q20.86,21.008 19.078,22.011 Q17.764,22.75 12.812,22.75 L11.188,22.75 Q6.235,22.75 4.922,22.011 Q3.14,21.008 2.391,19.104 Q1.84,17.702 2.521,12.796 L2.521,12.796 Q3.053,8.966 3.728,7.908 Q4.639,6.479 6.18,5.773 Q6.649,5.558 7.25,5.438 L7.25,5 Q7.25,3.032 8.641,1.641 Q10.032,0.25 12,0.25 Q13.967,0.25 15.359,1.641 Q16.75,3.032 16.75,5 L16.75,5.438 Z M15.25,10 L15.25,6.785 Q14.392,6.75 12.812,6.75 L11.188,6.75 Q9.608,6.75 8.75,6.785 L8.75,10 Q8.75,10.311 8.53,10.53 Q8.311,10.75 8,10.75 Q7.689,10.75 7.47,10.53 Q7.25,10.311 7.25,10 L7.25,6.978 Q7.004,7.045 6.805,7.137 Q5.666,7.658 4.993,8.714 Q4.494,9.496 4.007,13.003 L4.007,13.003 Q3.38,17.519 3.787,18.555 Q4.34,19.962 5.658,20.704 Q6.628,21.25 11.188,21.25 L12.812,21.25 Q17.371,21.25 18.342,20.704 Q19.659,19.962 20.213,18.555 Q20.62,17.519 19.993,13.003 L19.993,13.003 Q19.506,9.496 19.007,8.714 Q18.334,7.659 17.195,7.137 Q16.996,7.045 16.75,6.977 L16.75,10 Q16.75,10.311 16.53,10.53 Q16.311,10.75 16,10.75 Q15.689,10.75 15.47,10.53 Q15.25,10.311 15.25,10 Z M8.75,5.285 Q9.647,5.25 11.188,5.25 L12.812,5.25 Q14.353,5.25 15.25,5.285 L15.25,5 Q15.25,3.654 14.298,2.702 Q13.346,1.75 12,1.75 Q8.75,1.75 8.75,5 L8.75,5.285 Z"/>
</svg>

