<svg xmlns="http://www.w3.org/2000/svg" width="24" height="24" viewBox="0 0 24 24">
  <defs/>
  <path fill="#2D264B" d="M17.706,5.25 L18.309,5.25 Q21.773,5.25 22.592,6.166 Q23.412,7.082 23.03,10.524 L23.03,10.525 L22.734,13.187 Q21.997,19.819 20.36,21.284 Q18.722,22.75 12,22.75 Q5.278,22.75 3.64,21.285 Q2.003,19.819 1.266,13.187 L1.266,13.187 L0.97,10.525 Q0.588,7.082 1.408,6.166 Q2.228,5.25 5.691,5.25 L6.294,5.25 Q6.522,3.347 7.934,1.934 Q9.618,0.25 12,0.25 Q14.382,0.25 16.066,1.934 Q17.478,3.347 17.706,5.25 Z M17,6.75 L5.691,6.75 Q2.898,6.75 2.525,7.166 Q2.153,7.583 2.461,10.359 L2.757,13.021 L2.757,13.022 Q3.431,19.084 4.641,20.167 Q5.851,21.25 12,21.25 Q18.149,21.25 19.359,20.167 Q20.569,19.084 21.243,13.021 L21.539,10.359 L21.539,10.358 Q21.847,7.583 21.475,7.166 Q21.102,6.75 18.309,6.75 L17,6.75 Z M7.81,5.25 L16.19,5.25 Q15.976,3.966 15.005,2.995 Q13.76,1.75 12,1.75 Q10.24,1.75 8.995,2.995 Q8.024,3.966 7.81,5.25 Z M18,10.75 L6,10.75 Q5.689,10.75 5.47,10.53 Q5.25,10.311 5.25,10 Q5.25,9.689 5.47,9.47 Q5.689,9.25 6,9.25 L18,9.25 Q18.311,9.25 18.53,9.47 Q18.75,9.689 18.75,10 Q18.75,10.311 18.53,10.53 Q18.311,10.75 18,10.75 Z"/>
</svg>

