<svg xmlns="http://www.w3.org/2000/svg" width="24" height="24" viewBox="0 0 24 24">
  <defs/>
  <path fill="#2D264B" d="M12,1.25 C14.43,1.25 16.434,3.075 16.716,5.429 C17.11,5.505 17.472,5.614 17.82,5.773 C18.826,6.234 19.677,6.975 20.272,7.908 C20.632,8.472 20.846,9.103 21.013,9.873 C21.178,10.628 21.308,11.569 21.475,12.766 L21.484,12.832 C21.698,14.372 21.865,15.576 21.916,16.546 C21.967,17.53 21.905,18.351 21.609,19.104 C21.125,20.335 20.231,21.362 19.078,22.011 C18.372,22.408 17.568,22.583 16.586,22.667 C15.618,22.75 14.403,22.75 12.848,22.75 L11.152,22.75 C9.597,22.75 8.382,22.75 7.414,22.667 C6.432,22.583 5.628,22.408 4.922,22.011 C3.769,21.362 2.875,20.335 2.391,19.104 C2.095,18.351 2.033,17.53 2.084,16.546 C2.135,15.576 2.302,14.372 2.516,12.832 L2.525,12.766 C2.692,11.569 2.822,10.628 2.987,9.873 C3.154,9.103 3.368,8.472 3.728,7.908 C4.323,6.975 5.174,6.234 6.18,5.773 C6.527,5.614 6.89,5.505 7.284,5.429 C7.566,3.075 9.57,1.25 12,1.25 Z M8,8.25 C7.586,8.25 7.25,8.586 7.25,9 C7.25,9.414 7.586,9.75 8,9.75 L16,9.75 C16.414,9.75 16.75,9.414 16.75,9 C16.75,8.586 16.414,8.25 16,8.25 Z M11.143,5.25 L12.857,5.25 C13.759,5.25 14.519,5.25 15.169,5.275 C14.84,3.829 13.546,2.75 12,2.75 C10.454,2.75 9.16,3.829 8.831,5.275 C9.481,5.25 10.241,5.25 11.143,5.25 Z"/>
</svg>

