<svg width="24" height="24" viewBox="0 0 24 24" fill="none" xmlns="http://www.w3.org/2000/svg">
<path fill-rule="evenodd" clip-rule="evenodd" d="M8 6H12C12.929 6 13.3935 6 13.7822 6.06156C15.495 6.33285 16.9121 7.46244 17.583 9H19C20.1046 9 21 9.89543 21 11V13C21 14.1046 20.1046 15 19 15H17.583C16.9121 16.5376 15.495 17.6672 13.7822 17.9384C13.3935 18 12.929 18 12 18H8C7.07099 18 6.60649 18 6.21783 17.9384C4.07836 17.5996 2.40042 15.9216 2.06156 13.7822C2 13.3935 2 12.929 2 12C2 11.071 2 10.6065 2.06156 10.2178C2.40042 8.07836 4.07836 6.40042 6.21783 6.06156C6.60649 6 7.07099 6 8 6ZM6.67082 9.66459C6.48558 9.29411 6.03507 9.14394 5.66459 9.32918C5.29411 9.51442 5.14394 9.96493 5.32918 10.3354L5.43475 10.5466C5.89223 11.4615 5.89223 12.5385 5.43475 13.4534L5.32918 13.6646C5.14394 14.0351 5.29411 14.4856 5.66459 14.6708C6.03507 14.8561 6.48558 14.7059 6.67082 14.3354L6.77639 14.1243C7.44502 12.787 7.44502 11.213 6.77639 9.87574L6.67082 9.66459ZM9.66459 9.32918C10.0351 9.14394 10.4856 9.29411 10.6708 9.66459L10.7764 9.87574C11.445 11.213 11.445 12.787 10.7764 14.1243L10.6708 14.3354C10.4856 14.7059 10.0351 14.8561 9.66459 14.6708C9.29411 14.4856 9.14394 14.0351 9.32918 13.6646L9.43475 13.4534C9.89223 12.5385 9.89223 11.4615 9.43475 10.5466L9.32918 10.3354C9.14394 9.96493 9.29411 9.51442 9.66459 9.32918ZM14.6708 9.66459C14.4856 9.29411 14.0351 9.14394 13.6646 9.32918C13.2941 9.51442 13.1439 9.96493 13.3292 10.3354L13.4348 10.5466C13.8922 11.4615 13.8922 12.5385 13.4348 13.4534L13.3292 13.6646C13.1439 14.0351 13.2941 14.4856 13.6646 14.6708C14.0351 14.8561 14.4856 14.7059 14.6708 14.3354L14.7764 14.1243C15.445 12.787 15.445 11.213 14.7764 9.87574L14.6708 9.66459Z" fill="#2D264B"/>
</svg>
