<svg xmlns="http://www.w3.org/2000/svg" width="24" height="24" viewBox="0 0 24 24">
  <defs/>
  <path fill="#2D264B" d="M9.978,9.44 C10.22,9.104 10.145,8.635 9.81,8.392 C9.474,8.15 9.005,8.225 8.762,8.56 L9.978,9.44 Z M10.033,14.551 C9.784,14.882 9.852,15.352 10.184,15.6 C10.515,15.849 10.985,15.781 11.233,15.449 L10.033,14.551 Z M8,6.75 L12,6.75 L12,5.25 L8,5.25 L8,6.75 Z M12,17.25 L8,17.25 L8,18.75 L12,18.75 L12,17.25 Z M8,17.25 C7.042,17.25 6.651,17.248 6.335,17.198 L6.101,18.679 C6.562,18.752 7.1,18.75 8,18.75 L8,17.25 Z M1.25,12 C1.25,12.9 1.248,13.438 1.321,13.899 L2.802,13.665 C2.752,13.349 2.75,12.958 2.75,12 L1.25,12 Z M6.335,17.198 C4.517,16.91 3.09,15.483 2.802,13.665 L1.321,13.899 C1.71,16.36 3.64,18.29 6.101,18.679 L6.335,17.198 Z M17.25,12 C17.25,12.958 17.248,13.349 17.198,13.665 L18.679,13.899 C18.752,13.438 18.75,12.9 18.75,12 L17.25,12 Z M12,18.75 C12.9,18.75 13.438,18.752 13.899,18.679 L13.665,17.198 C13.349,17.248 12.958,17.25 12,17.25 L12,18.75 Z M12,6.75 C12.958,6.75 13.349,6.752 13.665,6.802 L13.899,5.321 C13.438,5.248 12.9,5.25 12,5.25 L12,6.75 Z M18.75,12 C18.75,11.1 18.752,10.562 18.679,10.101 L17.198,10.335 C17.248,10.651 17.25,11.042 17.25,12 L18.75,12 Z M8,5.25 C7.1,5.25 6.562,5.248 6.101,5.321 L6.335,6.802 C6.651,6.752 7.042,6.75 8,6.75 L8,5.25 Z M2.75,12 C2.75,11.042 2.752,10.651 2.802,10.335 L1.321,10.101 C1.248,10.562 1.25,11.1 1.25,12 L2.75,12 Z M6.101,5.321 C3.64,5.71 1.71,7.64 1.321,10.101 L2.802,10.335 C3.09,8.517 4.517,7.09 6.335,6.802 L6.101,5.321 Z M18,9.75 L19,9.75 L19,8.25 L18,8.25 L18,9.75 Z M20.25,11 L20.25,13 L21.75,13 L21.75,11 L20.25,11 Z M19,14.25 L18,14.25 L18,15.75 L19,15.75 L19,14.25 Z M20.25,13 C20.25,13.69 19.69,14.25 19,14.25 L19,15.75 C20.519,15.75 21.75,14.519 21.75,13 L20.25,13 Z M19,9.75 C19.69,9.75 20.25,10.31 20.25,11 L21.75,11 C21.75,9.481 20.519,8.25 19,8.25 L19,9.75 Z M8.762,8.56 L8.21,9.323 L9.426,10.203 L9.978,9.44 L8.762,8.56 Z M10.544,13.867 L10.033,14.551 L11.233,15.449 L11.745,14.766 L10.544,13.867 Z M9.986,12.78 C10.5,12.782 10.827,12.784 11.06,12.808 C11.303,12.833 11.281,12.871 11.218,12.814 L12.234,11.71 C11.924,11.425 11.53,11.348 11.215,11.316 C10.889,11.282 10.47,11.282 9.99,11.28 L9.986,12.78 Z M11.745,14.766 C12.031,14.384 12.281,14.051 12.45,13.771 C12.612,13.5 12.788,13.138 12.743,12.717 L11.251,12.878 C11.242,12.789 11.288,12.791 11.163,12.999 C11.044,13.197 10.851,13.458 10.544,13.867 L11.745,14.766 Z M11.218,12.814 C11.238,12.831 11.249,12.854 11.251,12.878 L12.743,12.717 C12.701,12.33 12.52,11.972 12.234,11.71 L11.218,12.814 Z M8.21,9.323 C7.936,9.703 7.695,10.035 7.533,10.314 C7.377,10.585 7.209,10.945 7.259,11.361 L8.748,11.184 C8.759,11.271 8.714,11.27 8.832,11.065 C8.946,10.868 9.131,10.61 9.426,10.203 L8.21,9.323 Z M9.99,11.28 C9.485,11.279 9.165,11.277 8.937,11.253 C8.698,11.229 8.72,11.191 8.782,11.248 L7.772,12.357 C8.08,12.637 8.469,12.713 8.781,12.745 C9.103,12.779 9.515,12.779 9.986,12.78 L9.99,11.28 Z M7.259,11.361 C7.304,11.745 7.487,12.098 7.772,12.357 L8.782,11.248 C8.762,11.23 8.751,11.207 8.748,11.184 L7.259,11.361 Z M13.665,6.802 C15.12,7.033 16.325,7.993 16.896,9.3 L18.27,8.7 C17.499,6.932 15.87,5.633 13.899,5.321 L13.665,6.802 Z M16.896,9.3 C17.038,9.625 17.14,9.972 17.198,10.335 L18.679,10.101 C18.602,9.61 18.463,9.141 18.27,8.7 L16.896,9.3 Z M18,8.25 L17.583,8.25 L17.583,9.75 L18,9.75 L18,8.25 Z M17.198,13.665 C17.14,14.028 17.038,14.375 16.896,14.7 L18.27,15.3 C18.463,14.859 18.602,14.39 18.679,13.899 L17.198,13.665 Z M16.896,14.7 C16.325,16.007 15.12,16.967 13.665,17.198 L13.899,18.679 C15.87,18.367 17.499,17.068 18.27,15.3 L16.896,14.7 Z M18,14.25 L17.583,14.25 L17.583,15.75 L18,15.75 L18,14.25 Z"/>
</svg>

