<svg xmlns="http://www.w3.org/2000/svg" width="24" height="24" viewBox="0 0 24 24">
  <defs/>
  <path fill="#2D264B" d="M6.671,9.665 C6.486,9.294 6.035,9.144 5.665,9.329 C5.294,9.514 5.144,9.965 5.329,10.335 L6.671,9.665 Z M5.329,13.665 C5.144,14.035 5.294,14.486 5.665,14.671 C6.035,14.856 6.486,14.706 6.671,14.335 L5.329,13.665 Z M10.671,9.665 C10.486,9.294 10.035,9.144 9.665,9.329 C9.294,9.514 9.144,9.965 9.329,10.335 L10.671,9.665 Z M9.329,13.665 C9.144,14.035 9.294,14.486 9.665,14.671 C10.035,14.856 10.486,14.706 10.671,14.335 L9.329,13.665 Z M14.671,9.665 C14.486,9.294 14.035,9.144 13.665,9.329 C13.294,9.514 13.144,9.965 13.329,10.335 L14.671,9.665 Z M13.329,13.665 C13.144,14.035 13.294,14.486 13.665,14.671 C14.035,14.856 14.486,14.706 14.671,14.335 L13.329,13.665 Z M5.329,10.335 L5.435,10.547 L6.776,9.876 L6.671,9.665 L5.329,10.335 Z M5.435,13.453 L5.329,13.665 L6.671,14.335 L6.776,14.124 L5.435,13.453 Z M5.435,10.547 C5.892,11.461 5.892,12.539 5.435,13.453 L6.776,14.124 C7.445,12.787 7.445,11.213 6.776,9.876 L5.435,10.547 Z M9.329,10.335 L9.435,10.547 L10.776,9.876 L10.671,9.665 L9.329,10.335 Z M9.435,13.453 L9.329,13.665 L10.671,14.335 L10.776,14.124 L9.435,13.453 Z M9.435,10.547 C9.892,11.461 9.892,12.539 9.435,13.453 L10.776,14.124 C11.445,12.787 11.445,11.213 10.776,9.876 L9.435,10.547 Z M13.329,10.335 L13.435,10.547 L14.776,9.876 L14.671,9.665 L13.329,10.335 Z M13.435,13.453 L13.329,13.665 L14.671,14.335 L14.776,14.124 L13.435,13.453 Z M13.435,10.547 C13.892,11.461 13.892,12.539 13.435,13.453 L14.776,14.124 C15.445,12.787 15.445,11.213 14.776,9.876 L13.435,10.547 Z M8,6.75 L12,6.75 L12,5.25 L8,5.25 L8,6.75 Z M12,17.25 L8,17.25 L8,18.75 L12,18.75 L12,17.25 Z M8,17.25 C7.042,17.25 6.651,17.248 6.335,17.198 L6.101,18.679 C6.562,18.752 7.1,18.75 8,18.75 L8,17.25 Z M1.25,12 C1.25,12.9 1.248,13.438 1.321,13.899 L2.802,13.665 C2.752,13.349 2.75,12.958 2.75,12 L1.25,12 Z M6.335,17.198 C4.517,16.91 3.09,15.483 2.802,13.665 L1.321,13.899 C1.71,16.36 3.64,18.29 6.101,18.679 L6.335,17.198 Z M17.25,12 C17.25,12.958 17.248,13.349 17.198,13.665 L18.679,13.899 C18.752,13.438 18.75,12.9 18.75,12 L17.25,12 Z M12,18.75 C12.9,18.75 13.438,18.752 13.899,18.679 L13.665,17.198 C13.349,17.248 12.958,17.25 12,17.25 L12,18.75 Z M12,6.75 C12.958,6.75 13.349,6.752 13.665,6.802 L13.899,5.321 C13.438,5.248 12.9,5.25 12,5.25 L12,6.75 Z M18.75,12 C18.75,11.1 18.752,10.562 18.679,10.101 L17.198,10.335 C17.248,10.651 17.25,11.042 17.25,12 L18.75,12 Z M8,5.25 C7.1,5.25 6.562,5.248 6.101,5.321 L6.335,6.802 C6.651,6.752 7.042,6.75 8,6.75 L8,5.25 Z M2.75,12 C2.75,11.042 2.752,10.651 2.802,10.335 L1.321,10.101 C1.248,10.562 1.25,11.1 1.25,12 L2.75,12 Z M6.101,5.321 C3.64,5.71 1.71,7.64 1.321,10.101 L2.802,10.335 C3.09,8.517 4.517,7.09 6.335,6.802 L6.101,5.321 Z M20.25,11 L20.25,13 L21.75,13 L21.75,11 L20.25,11 Z M20.25,13 C20.25,13.69 19.69,14.25 19,14.25 L19,15.75 C20.519,15.75 21.75,14.519 21.75,13 L20.25,13 Z M19,9.75 C19.69,9.75 20.25,10.31 20.25,11 L21.75,11 C21.75,9.481 20.519,8.25 19,8.25 L19,9.75 Z M13.665,6.802 C15.12,7.033 16.325,7.993 16.896,9.3 L18.27,8.7 C17.499,6.932 15.87,5.633 13.899,5.321 L13.665,6.802 Z M16.896,9.3 C17.038,9.625 17.14,9.972 17.198,10.335 L18.679,10.101 C18.602,9.61 18.463,9.141 18.27,8.7 L16.896,9.3 Z M17.198,13.665 C17.14,14.028 17.038,14.375 16.896,14.7 L18.27,15.3 C18.463,14.859 18.602,14.39 18.679,13.899 L17.198,13.665 Z M16.896,14.7 C16.325,16.007 15.12,16.967 13.665,17.198 L13.899,18.679 C15.87,18.367 17.499,17.068 18.27,15.3 L16.896,14.7 Z M17.583,9.75 L19,9.75 L19,8.25 L17.583,8.25 L17.583,9.75 Z M19,14.25 L17.583,14.25 L17.583,15.75 L19,15.75 L19,14.25 Z"/>
</svg>

