<svg xmlns="http://www.w3.org/2000/svg" width="24" height="24" viewBox="0 0 24 24">
  <defs/>
  <path fill="#2D264B" d="M8,6 L12,6 C12.929,6 13.394,6 13.782,6.062 C15.495,6.333 16.912,7.462 17.583,9 L19,9 C20.105,9 21,9.895 21,11 L21,13 C21,14.105 20.105,15 19,15 L17.583,15 C16.912,16.538 15.495,17.667 13.782,17.938 C13.394,18 12.929,18 12,18 L8,18 C7.071,18 6.606,18 6.218,17.938 C4.078,17.6 2.4,15.922 2.062,13.782 C2,13.394 2,12.929 2,12 C2,11.071 2,10.606 2.062,10.218 C2.4,8.078 4.078,6.4 6.218,6.062 C6.606,6 7.071,6 8,6 Z M9.978,9.44 C10.22,9.104 10.145,8.635 9.81,8.392 C9.474,8.15 9.005,8.225 8.762,8.56 L8.188,9.355 C7.923,9.721 7.69,10.043 7.533,10.314 C7.377,10.585 7.209,10.945 7.259,11.361 C7.305,11.745 7.487,12.098 7.772,12.357 C8.08,12.637 8.469,12.713 8.781,12.745 C9.094,12.778 9.493,12.779 9.948,12.78 L9.986,12.78 C10.5,12.782 10.827,12.783 11.06,12.808 C11.156,12.818 11.21,12.83 11.238,12.837 C11.24,12.84 11.241,12.844 11.243,12.847 C11.232,12.874 11.209,12.922 11.163,12.999 C11.044,13.197 10.851,13.458 10.544,13.867 L10.033,14.551 C9.784,14.882 9.852,15.352 10.184,15.6 C10.515,15.849 10.985,15.781 11.233,15.449 L11.768,14.735 C12.045,14.366 12.286,14.043 12.45,13.771 C12.612,13.5 12.788,13.138 12.743,12.717 C12.701,12.33 12.52,11.972 12.234,11.71 C11.924,11.425 11.53,11.349 11.215,11.316 C10.897,11.283 10.493,11.282 10.029,11.28 L9.99,11.28 C9.485,11.279 9.165,11.277 8.937,11.253 C8.843,11.244 8.789,11.232 8.763,11.225 C8.761,11.221 8.759,11.218 8.757,11.214 C8.767,11.188 8.789,11.14 8.832,11.065 C8.946,10.868 9.131,10.61 9.426,10.203 Z"/>
</svg>

