<svg width="24" height="24" viewBox="0 0 24 24" fill="none" xmlns="http://www.w3.org/2000/svg">
<path fill-rule="evenodd" clip-rule="evenodd" d="M8 6H12C12.929 6 13.3935 6 13.7822 6.06156C15.495 6.33285 16.9121 7.46244 17.583 9H19C20.1046 9 21 9.89543 21 11V13C21 14.1046 20.1046 15 19 15H17.583C16.9121 16.5376 15.495 17.6672 13.7822 17.9384C13.3935 18 12.929 18 12 18H8C7.07099 18 6.60649 18 6.21783 17.9384C4.07836 17.5996 2.40042 15.9216 2.06156 13.7822C2 13.3935 2 12.929 2 12C2 11.071 2 10.6065 2.06156 10.2178C2.40042 8.07836 4.07836 6.40042 6.21783 6.06156C6.60649 6 7.07099 6 8 6ZM9.97777 9.43956C10.2205 9.10394 10.1453 8.63507 9.80964 8.39231C9.47402 8.14955 9.00515 8.22482 8.76239 8.56044L8.18793 9.35463C7.92262 9.72136 7.69013 10.0428 7.53326 10.3143C7.37705 10.5848 7.20929 10.9453 7.25883 11.3613C7.3045 11.7447 7.4873 12.0978 7.77229 12.3571C8.08032 12.6373 8.46922 12.7128 8.78099 12.7453C9.09419 12.778 9.49251 12.779 9.9482 12.7802L9.9863 12.7803C10.5 12.7817 10.8271 12.7835 11.0596 12.8077C11.1555 12.8177 11.2103 12.8296 11.2376 12.837C11.2396 12.8403 11.2413 12.8437 11.2429 12.8471C11.232 12.8736 11.2092 12.9222 11.1632 12.9989C11.0442 13.1974 10.8505 13.4578 10.5442 13.867L10.0325 14.5506C9.78429 14.8822 9.85189 15.3522 10.1835 15.6004C10.5151 15.8486 10.9851 15.781 11.2334 15.4494L11.7682 14.7349C12.0445 14.3658 12.286 14.0432 12.4496 13.7705C12.6118 13.5002 12.7882 13.1377 12.7427 12.7167C12.7009 12.3299 12.5196 11.9724 12.2339 11.7096C11.924 11.4246 11.5297 11.3485 11.2149 11.3157C10.8974 11.2827 10.4927 11.2816 10.0286 11.2804L9.99032 11.2803C9.48525 11.279 9.16455 11.2772 8.93653 11.2534C8.84288 11.2436 8.7894 11.232 8.76272 11.2248C8.76052 11.2212 8.75856 11.2176 8.75684 11.2139C8.76708 11.1879 8.78856 11.1401 8.83216 11.0646C8.94566 10.8681 9.1313 10.6098 9.42584 10.2026L9.97777 9.43956Z" fill="#2D264B"/>
</svg>
