<svg xmlns="http://www.w3.org/2000/svg" width="24" height="24" viewBox="0 0 24 24">
  <defs/>
  <path fill="#2D264B" d="M8,6 L12,6 C12.929,6 13.394,6 13.782,6.062 C15.495,6.333 16.912,7.462 17.583,9 L19,9 C20.105,9 21,9.895 21,11 L21,13 C21,14.105 20.105,15 19,15 L17.583,15 C16.912,16.538 15.495,17.667 13.782,17.938 C13.394,18 12.929,18 12,18 L8,18 C7.071,18 6.606,18 6.218,17.938 C4.078,17.6 2.4,15.922 2.062,13.782 C2,13.394 2,12.929 2,12 C2,11.071 2,10.606 2.062,10.218 C2.4,8.078 4.078,6.4 6.218,6.062 C6.606,6 7.071,6 8,6 Z M6.671,9.665 C6.486,9.294 6.035,9.144 5.665,9.329 C5.294,9.514 5.144,9.965 5.329,10.335 L5.435,10.547 C5.892,11.462 5.892,12.538 5.435,13.453 L5.329,13.665 C5.144,14.035 5.294,14.486 5.665,14.671 C6.035,14.856 6.486,14.706 6.671,14.335 L6.776,14.124 C7.445,12.787 7.445,11.213 6.776,9.876 Z"/>
</svg>

