<svg xmlns="http://www.w3.org/2000/svg" width="24" height="24" viewBox="0 0 24 24">
  <defs/>
  <path fill="#2D264B" d="M12,20.25 C10.108,20.25 8.75,20.249 7.698,20.135 C6.66,20.023 6.01,19.807 5.502,19.438 L4.62,20.652 C5.427,21.238 6.371,21.5 7.536,21.626 C8.688,21.751 10.142,21.75 12,21.75 L12,20.25 Z M2.25,12 C2.25,13.858 2.249,15.312 2.374,16.463 C2.5,17.629 2.762,18.573 3.348,19.38 L4.562,18.498 C4.193,17.99 3.977,17.34 3.865,16.302 C3.751,15.25 3.75,13.892 3.75,12 L2.25,12 Z M5.502,19.438 C5.141,19.176 4.824,18.859 4.562,18.498 L3.348,19.38 C3.703,19.868 4.132,20.297 4.62,20.652 L5.502,19.438 Z M20.25,12 C20.25,13.892 20.249,15.25 20.135,16.302 C20.023,17.34 19.807,17.99 19.438,18.498 L20.652,19.38 C21.238,18.573 21.5,17.629 21.626,16.463 C21.751,15.312 21.75,13.858 21.75,12 L20.25,12 Z M12,21.75 C13.858,21.75 15.312,21.751 16.463,21.626 C17.629,21.5 18.573,21.238 19.38,20.652 L18.498,19.438 C17.99,19.807 17.34,20.023 16.302,20.135 C15.25,20.249 13.892,20.25 12,20.25 L12,21.75 Z M19.438,18.498 C19.176,18.859 18.859,19.176 18.498,19.438 L19.38,20.652 C19.868,20.297 20.297,19.868 20.652,19.38 L19.438,18.498 Z M12,3.75 C13.892,3.75 15.25,3.751 16.302,3.865 C17.34,3.977 17.99,4.193 18.498,4.562 L19.38,3.348 C18.573,2.762 17.629,2.5 16.463,2.374 C15.312,2.249 13.858,2.25 12,2.25 L12,3.75 Z M21.75,12 C21.75,10.142 21.751,8.688 21.626,7.536 C21.5,6.371 21.238,5.427 20.652,4.62 L19.438,5.502 C19.807,6.01 20.023,6.66 20.135,7.698 C20.249,8.75 20.25,10.108 20.25,12 L21.75,12 Z M18.498,4.562 C18.859,4.824 19.176,5.141 19.438,5.502 L20.652,4.62 C20.297,4.132 19.868,3.703 19.38,3.348 L18.498,4.562 Z M12,2.25 C10.142,2.25 8.688,2.249 7.536,2.374 C6.371,2.5 5.427,2.762 4.62,3.348 L5.502,4.562 C6.01,4.193 6.66,3.977 7.698,3.865 C8.75,3.751 10.108,3.75 12,3.75 L12,2.25 Z M3.75,12 C3.75,10.108 3.751,8.75 3.865,7.698 C3.977,6.66 4.193,6.01 4.562,5.502 L3.348,4.62 C2.762,5.427 2.5,6.371 2.374,7.536 C2.249,8.688 2.25,10.142 2.25,12 L3.75,12 Z M4.62,3.348 C4.132,3.703 3.703,4.132 3.348,4.62 L4.562,5.502 C4.824,5.141 5.141,4.824 5.502,4.562 L4.62,3.348 Z M7.917,8 L7.917,12 L9.416,12 L9.416,8 L7.917,8 Z M7.917,12 L7.917,16 L9.416,16 L9.416,12 L7.917,12 Z M8.666,12.75 L13.111,12.75 L13.111,11.25 L8.666,11.25 L8.666,12.75 Z M13.111,12 C13.111,12.75 13.111,12.75 13.112,12.75 C13.112,12.75 13.112,12.75 13.113,12.75 C13.113,12.75 13.114,12.75 13.115,12.75 C13.116,12.75 13.118,12.75 13.119,12.75 C13.123,12.75 13.127,12.75 13.131,12.75 C13.14,12.75 13.151,12.749 13.164,12.749 C13.19,12.748 13.225,12.746 13.267,12.743 C13.35,12.736 13.463,12.723 13.596,12.698 C13.86,12.649 14.221,12.548 14.59,12.341 C15.376,11.899 16.083,11.028 16.083,9.5 L14.583,9.5 C14.583,10.472 14.18,10.851 13.854,11.034 C13.667,11.139 13.473,11.195 13.32,11.224 C13.245,11.238 13.185,11.244 13.146,11.248 C13.127,11.249 13.114,11.25 13.108,11.25 C13.105,11.25 13.103,11.25 13.104,11.25 C13.104,11.25 13.105,11.25 13.106,11.25 C13.107,11.25 13.107,11.25 13.108,11.25 C13.108,11.25 13.109,11.25 13.109,11.25 C13.11,11.25 13.11,11.25 13.11,11.25 C13.111,11.25 13.111,11.25 13.111,12 Z M16.083,9.5 C16.083,7.972 15.376,7.101 14.59,6.659 C13.867,6.252 13.157,6.25 13.111,6.25 L13.111,7.75 C13.065,7.75 13.466,7.748 13.854,7.966 C14.18,8.149 14.583,8.528 14.583,9.5 L16.083,9.5 Z M13.111,6.25 L9.666,6.25 L9.666,7.75 L13.111,7.75 L13.111,6.25 Z M9.666,17.75 L13.111,17.75 L13.111,16.25 L9.666,16.25 L9.666,17.75 Z M13.111,17 C13.111,17.75 13.111,17.75 13.112,17.75 C13.112,17.75 13.112,17.75 13.113,17.75 C13.113,17.75 13.114,17.75 13.115,17.75 C13.116,17.75 13.118,17.75 13.119,17.75 C13.123,17.75 13.127,17.75 13.131,17.75 C13.14,17.75 13.151,17.749 13.164,17.749 C13.19,17.748 13.225,17.746 13.267,17.743 C13.35,17.736 13.463,17.723 13.596,17.698 C13.86,17.649 14.221,17.548 14.59,17.341 C15.376,16.899 16.083,16.028 16.083,14.5 L14.583,14.5 C14.583,15.472 14.18,15.851 13.854,16.034 C13.667,16.139 13.473,16.195 13.32,16.224 C13.245,16.238 13.185,16.244 13.146,16.247 C13.127,16.249 13.114,16.25 13.108,16.25 C13.105,16.25 13.103,16.25 13.104,16.25 C13.104,16.25 13.105,16.25 13.106,16.25 C13.107,16.25 13.107,16.25 13.108,16.25 C13.108,16.25 13.109,16.25 13.109,16.25 C13.11,16.25 13.11,16.25 13.11,16.25 C13.111,16.25 13.111,16.25 13.111,17 Z M16.083,14.5 C16.083,12.972 15.376,12.101 14.59,11.659 C14.221,11.452 13.86,11.351 13.596,11.302 C13.463,11.277 13.35,11.264 13.267,11.257 C13.225,11.254 13.19,11.252 13.164,11.251 C13.151,11.251 13.14,11.25 13.131,11.25 C13.127,11.25 13.123,11.25 13.119,11.25 C13.118,11.25 13.116,11.25 13.115,11.25 C13.114,11.25 13.113,11.25 13.113,11.25 C13.112,11.25 13.112,11.25 13.112,11.25 C13.111,11.25 13.111,11.25 13.111,12 C13.111,12.75 13.111,12.75 13.11,12.75 C13.11,12.75 13.11,12.75 13.109,12.75 C13.109,12.75 13.108,12.75 13.108,12.75 C13.107,12.75 13.107,12.75 13.106,12.75 C13.105,12.75 13.104,12.75 13.104,12.75 C13.103,12.75 13.105,12.75 13.108,12.75 C13.114,12.75 13.127,12.751 13.146,12.752 C13.185,12.756 13.245,12.762 13.32,12.776 C13.473,12.805 13.667,12.861 13.854,12.966 C14.18,13.149 14.583,13.528 14.583,14.5 L16.083,14.5 Z M7.917,16 C7.917,16.966 8.7,17.75 9.666,17.75 L9.666,16.25 C9.528,16.25 9.416,16.138 9.416,16 L7.917,16 Z M9.416,8 C9.416,7.862 9.528,7.75 9.666,7.75 L9.666,6.25 C8.7,6.25 7.917,7.034 7.917,8 L9.416,8 Z"/>
</svg>

