<svg xmlns="http://www.w3.org/2000/svg" width="24" height="24" viewBox="0 0 24 24">
  <defs/>
  <path fill="#2D264B" d="M9.416,8 C9.416,7.862 9.528,7.75 9.666,7.75 L13.108,7.75 C13.108,7.75 13.108,7.75 13.109,7.75 C13.139,7.751 13.502,7.768 13.855,7.966 C14.18,8.149 14.583,8.528 14.583,9.5 C14.583,10.472 14.18,10.851 13.854,11.034 C13.667,11.139 13.473,11.195 13.32,11.224 C13.245,11.238 13.185,11.244 13.146,11.248 C13.127,11.249 13.114,11.25 13.108,11.25 L13.105,11.25 L9.416,11.25 L9.416,8 Z"/>
  <path fill="#2D264B" d="M13.108,16.25 L13.105,16.25 L9.666,16.25 C9.528,16.25 9.416,16.138 9.416,16 L9.416,12.75 L13.105,12.75 L13.108,12.75 C13.114,12.75 13.127,12.751 13.146,12.752 C13.185,12.756 13.245,12.762 13.32,12.776 C13.473,12.805 13.667,12.861 13.854,12.966 C14.18,13.149 14.583,13.528 14.583,14.5 C14.583,15.472 14.18,15.851 13.854,16.034 C13.667,16.139 13.473,16.195 13.32,16.224 C13.245,16.238 13.185,16.244 13.146,16.247 C13.127,16.249 13.114,16.25 13.108,16.25 Z"/>
  <path fill="#2D264B" d="M11.955,2.25 L12.045,2.25 C13.882,2.25 15.321,2.25 16.463,2.374 C17.629,2.5 18.573,2.762 19.38,3.348 C19.868,3.703 20.297,4.132 20.652,4.62 C21.238,5.427 21.5,6.371 21.626,7.536 C21.75,8.679 21.75,10.118 21.75,11.955 L21.75,12.045 C21.75,13.882 21.75,15.321 21.626,16.463 C21.5,17.629 21.238,18.573 20.652,19.38 C20.297,19.868 19.868,20.297 19.38,20.652 C18.573,21.238 17.629,21.5 16.463,21.626 C15.321,21.75 13.882,21.75 12.045,21.75 L11.955,21.75 C10.118,21.75 8.679,21.75 7.536,21.626 C6.371,21.5 5.427,21.238 4.62,20.652 C4.132,20.297 3.703,19.868 3.348,19.38 C2.762,18.573 2.5,17.629 2.374,16.463 C2.25,15.321 2.25,13.882 2.25,12.045 L2.25,11.955 C2.25,10.118 2.25,8.679 2.374,7.536 C2.5,6.371 2.762,5.427 3.348,4.62 C3.703,4.132 4.132,3.703 4.62,3.348 C5.427,2.762 6.371,2.5 7.536,2.374 C8.679,2.25 10.118,2.25 11.955,2.25 Z M16.083,9.5 C16.083,7.973 15.376,7.101 14.59,6.659 C13.867,6.252 13.157,6.25 13.111,6.25 L9.667,6.25 C8.7,6.25 7.917,7.034 7.917,8 L7.917,16 C7.917,16.966 8.7,17.75 9.667,17.75 L13.111,17.75 L13.111,17 C13.111,17.75 13.112,17.75 13.113,17.75 L13.119,17.75 L13.131,17.75 C13.135,17.75 13.141,17.75 13.146,17.749 C13.152,17.749 13.158,17.749 13.164,17.749 C13.19,17.748 13.225,17.746 13.267,17.743 C13.35,17.736 13.463,17.723 13.596,17.698 C13.86,17.649 14.221,17.548 14.59,17.341 C15.376,16.899 16.083,16.028 16.083,14.5 C16.083,13.296 15.644,12.5 15.073,12 C15.644,11.5 16.083,10.704 16.083,9.5 Z"/>
</svg>

