<svg width="24" height="24" viewBox="0 0 24 24" fill="none" xmlns="http://www.w3.org/2000/svg">
<path d="M9.4165 8C9.4165 7.86193 9.52843 7.75 9.6665 7.75H13.108C13.108 7.75002 13.108 7.75006 13.1093 7.75012C13.1392 7.75149 13.5022 7.76805 13.8546 7.96631C14.1797 8.14929 14.5832 8.52777 14.5832 9.5C14.5832 10.4724 14.1796 10.8509 13.8544 11.0338C13.6672 11.1391 13.4727 11.1951 13.32 11.2238C13.2451 11.2378 13.1847 11.2444 13.1464 11.2475C13.1273 11.2491 13.1141 11.2497 13.1078 11.2499L13.1054 11.25L9.4165 11.25V8Z" fill="#2D264B"/>
<path d="M13.1078 16.2499L13.1054 16.25H9.6665C9.52843 16.25 9.4165 16.1381 9.4165 16V12.75L13.1054 12.75L13.1078 12.7501C13.1141 12.7503 13.1273 12.7509 13.1464 12.7525C13.1847 12.7556 13.2451 12.7622 13.32 12.7762C13.4727 12.8049 13.6672 12.8609 13.8544 12.9662C14.1796 13.1491 14.5832 13.5276 14.5832 14.5C14.5832 15.4724 14.1796 15.8509 13.8544 16.0338C13.6672 16.1391 13.4727 16.1951 13.32 16.2238C13.2451 16.2378 13.1847 16.2444 13.1464 16.2475C13.1273 16.2491 13.1141 16.2497 13.1078 16.2499Z" fill="#2D264B"/>
<path fill-rule="evenodd" clip-rule="evenodd" d="M11.9548 2.25H12.0452C13.8818 2.24999 15.3214 2.24999 16.4635 2.37373C17.6291 2.50001 18.5734 2.76232 19.3798 3.34815C19.8679 3.70281 20.2972 4.13209 20.6518 4.62024C21.2377 5.42656 21.5 6.37094 21.6263 7.53648C21.75 8.67859 21.75 10.1182 21.75 11.9547V12.0453C21.75 13.8818 21.75 15.3214 21.6263 16.4635C21.5 17.6291 21.2377 18.5734 20.6518 19.3798C20.2972 19.8679 19.8679 20.2972 19.3798 20.6518C18.5734 21.2377 17.6291 21.5 16.4635 21.6263C15.3214 21.75 13.8818 21.75 12.0453 21.75H11.9547C10.1182 21.75 8.67859 21.75 7.53648 21.6263C6.37094 21.5 5.42656 21.2377 4.62024 20.6518C4.13209 20.2972 3.70281 19.8679 3.34815 19.3798C2.76232 18.5734 2.50001 17.6291 2.37373 16.4635C2.24999 15.3214 2.24999 13.8818 2.25 12.0452V11.9548C2.24999 10.1182 2.24999 8.67861 2.37373 7.53648C2.50001 6.37094 2.76232 5.42656 3.34815 4.62024C3.70281 4.13209 4.13209 3.70281 4.62024 3.34815C5.42656 2.76232 6.37094 2.50001 7.53648 2.37373C8.67861 2.24999 10.1182 2.24999 11.9548 2.25ZM16.0832 9.5C16.0832 10.7038 15.6438 11.5001 15.073 12C15.6438 12.4999 16.0832 13.2962 16.0832 14.5C16.0832 16.0276 15.3756 16.8991 14.5898 17.3412C14.2214 17.5484 13.8603 17.6486 13.5964 17.6981C13.4629 17.7231 13.3497 17.736 13.2665 17.7427C13.2248 17.7461 13.1902 17.7479 13.164 17.7489C13.1576 17.7491 13.1517 17.7493 13.1463 17.7494C13.1406 17.7496 13.1355 17.7497 13.1309 17.7498L13.1193 17.75L13.1147 17.75L13.1127 17.75C13.1123 17.75 13.1109 17.75 13.1109 17V17.75H9.6665C8.70001 17.75 7.9165 16.9665 7.9165 16V8C7.9165 7.0335 8.70001 6.25 9.6665 6.25H13.1109C13.1571 6.25001 13.8673 6.25231 14.5902 6.65907C15.3759 7.10122 16.0832 7.97274 16.0832 9.5Z" fill="#2D264B"/>
</svg>
