<svg xmlns="http://www.w3.org/2000/svg" width="24" height="24" viewBox="0 0 24 24">
  <defs/>
  <path fill="#2D264B" d="M5,10 C5,8.139 5,7.208 5.245,6.455 C5.739,4.933 6.933,3.739 8.455,3.245 C9.208,3 10.139,3 12,3 C13.861,3 14.792,3 15.545,3.245 C17.067,3.739 18.261,4.933 18.755,6.455 C19,7.208 19,8.139 19,10 L19,17.387 C19,19.305 19,20.263 18.658,20.77 C18.24,21.389 17.512,21.724 16.77,21.638 C16.163,21.568 15.435,20.944 13.979,19.697 C13.339,19.147 13.018,18.873 12.666,18.748 C12.235,18.596 11.765,18.596 11.334,18.748 C10.982,18.873 10.661,19.147 10.021,19.697 C8.565,20.944 7.837,21.568 7.23,21.638 C6.488,21.724 5.76,21.389 5.342,20.77 C5,20.263 5,19.305 5,17.387 L5,10 Z"/>
</svg>

