<svg xmlns="http://www.w3.org/2000/svg" width="24" height="24" viewBox="0 0 24 24">
  <defs/>
  <path fill="#2D264B" d="M4.25,10 Q4.25,7.089 4.531,6.223 Q5.437,3.437 8.223,2.531 Q9.089,2.25 12,2.25 Q14.911,2.25 15.777,2.531 Q18.563,3.437 19.469,6.223 Q19.75,7.089 19.75,10 L19.75,17.387 Q19.75,20.492 19.28,21.189 Q18.345,22.576 16.684,22.383 Q15.849,22.287 13.491,20.266 Q12.636,19.533 12.416,19.456 Q12,19.308 11.584,19.456 Q11.364,19.533 10.509,20.266 L10.509,20.266 Q8.151,22.287 7.316,22.383 Q5.655,22.576 4.72,21.189 Q4.25,20.492 4.25,17.387 Z M5.75,10 L5.75,17.387 Q5.75,20.034 5.964,20.351 Q6.389,20.981 7.144,20.893 Q7.523,20.849 9.533,19.127 L9.533,19.127 Q10.6,18.212 11.084,18.041 Q12,17.718 12.916,18.041 Q13.4,18.212 14.467,19.127 L14.467,19.127 Q16.477,20.849 16.856,20.893 Q17.611,20.981 18.036,20.351 Q18.25,20.034 18.25,17.387 L18.25,10 Q18.25,7.327 18.042,6.687 Q17.373,4.627 15.313,3.958 Q14.673,3.75 12,3.75 Q9.327,3.75 8.687,3.958 Q6.627,4.627 5.958,6.687 Q5.75,7.327 5.75,10 Z"/>
</svg>

