<svg xmlns="http://www.w3.org/2000/svg" width="24" height="24" viewBox="0 0 24 24">
  <defs/>
  <path fill="#2D264B" d="M5,10 Q5,7.208 5.245,6.455 Q6.032,4.032 8.455,3.245 Q9.208,3 12,3 Q14.792,3 15.545,3.245 Q17.968,4.032 18.755,6.455 Q19,7.208 19,10 L19,17.387 Q19,19.064 18.957,19.607 Q18.893,20.421 18.658,20.77 Q17.978,21.778 16.77,21.638 Q16.352,21.59 15.693,21.109 Q15.253,20.789 13.979,19.697 L13.88,19.611 Q13.021,18.874 12.666,18.748 Q12,18.513 11.334,18.748 Q10.979,18.874 10.12,19.611 L10.021,19.696 Q8.747,20.789 8.307,21.109 Q7.648,21.59 7.23,21.638 Q6.022,21.778 5.342,20.77 Q5.107,20.421 5.043,19.607 Q5,19.065 5,17.387 Z M6.5,10 L6.5,17.387 Q6.5,19.006 6.538,19.49 Q6.571,19.91 6.585,19.931 Q6.755,20.183 7.057,20.148 Q7.083,20.145 7.423,19.897 Q7.815,19.611 9.044,18.558 L9.143,18.473 Q10.214,17.553 10.834,17.334 Q12,16.922 13.166,17.334 Q13.786,17.553 14.857,18.473 L14.955,18.558 Q16.185,19.611 16.576,19.897 Q16.917,20.145 16.942,20.148 Q17.245,20.183 17.414,19.931 Q17.429,19.91 17.462,19.49 Q17.5,19.005 17.5,17.387 L17.5,10 Q17.5,7.446 17.329,6.918 Q16.778,5.222 15.082,4.671 Q14.554,4.5 12,4.5 Q9.446,4.5 8.918,4.671 Q7.222,5.222 6.671,6.918 Q6.5,7.446 6.5,10 Z"/>
</svg>

