<svg xmlns="http://www.w3.org/2000/svg" width="24" height="24" viewBox="0 0 24 24">
  <defs/>
  <path fill="#2D264B" d="M9,8.25 C8.586,8.25 8.25,8.586 8.25,9 C8.25,9.414 8.586,9.75 9,9.75 L9,8.25 Z M15,9.75 C15.414,9.75 15.75,9.414 15.75,9 C15.75,8.586 15.414,8.25 15,8.25 L15,9.75 Z M18.25,10 L18.25,17.387 L19.75,17.387 L19.75,10 L18.25,10 Z M5.75,17.387 L5.75,10 L4.25,10 L4.25,17.387 L5.75,17.387 Z M14.467,19.127 C13.877,18.621 13.433,18.224 12.916,18.041 L12.416,19.456 C12.604,19.522 12.8,19.674 13.491,20.266 L14.467,19.127 Z M10.509,20.266 C11.2,19.674 11.396,19.522 11.584,19.456 L11.084,18.041 C10.567,18.224 10.123,18.621 9.533,19.127 L10.509,20.266 Z M12.916,18.041 C12.323,17.832 11.677,17.832 11.084,18.041 L11.584,19.456 C11.853,19.36 12.147,19.36 12.416,19.456 L12.916,18.041 Z M4.25,17.387 C4.25,18.333 4.249,19.087 4.295,19.666 C4.339,20.23 4.434,20.765 4.72,21.189 L5.964,20.351 C5.908,20.268 5.832,20.07 5.79,19.549 C5.751,19.043 5.75,18.359 5.75,17.387 L4.25,17.387 Z M9.533,19.127 C8.795,19.759 8.276,20.204 7.865,20.503 C7.443,20.811 7.243,20.882 7.144,20.893 L7.316,22.383 C7.825,22.325 8.292,22.048 8.749,21.715 C9.219,21.373 9.791,20.881 10.509,20.266 L9.533,19.127 Z M4.72,21.189 C5.295,22.041 6.296,22.501 7.316,22.383 L7.144,20.893 C6.68,20.947 6.225,20.738 5.964,20.351 L4.72,21.189 Z M18.25,17.387 C18.25,18.359 18.249,19.043 18.21,19.549 C18.169,20.07 18.092,20.268 18.036,20.351 L19.28,21.189 C19.566,20.765 19.66,20.23 19.705,19.666 C19.751,19.087 19.75,18.333 19.75,17.387 L18.25,17.387 Z M13.491,20.266 C14.209,20.881 14.781,21.373 15.251,21.715 C15.708,22.048 16.175,22.325 16.684,22.383 L16.856,20.893 C16.757,20.882 16.557,20.811 16.135,20.503 C15.724,20.204 15.205,19.759 14.467,19.127 L13.491,20.266 Z M18.036,20.351 C17.775,20.738 17.32,20.947 16.856,20.893 L16.684,22.383 C17.704,22.501 18.705,22.041 19.28,21.189 L18.036,20.351 Z M12,3.75 C13.92,3.75 14.702,3.759 15.313,3.958 L15.777,2.531 C14.882,2.241 13.803,2.25 12,2.25 L12,3.75 Z M19.75,10 C19.75,8.197 19.759,7.118 19.469,6.223 L18.042,6.687 C18.241,7.298 18.25,8.08 18.25,10 L19.75,10 Z M15.313,3.958 C16.607,4.378 17.622,5.393 18.042,6.687 L19.469,6.223 C18.9,4.473 17.527,3.1 15.777,2.531 L15.313,3.958 Z M12,2.25 C10.197,2.25 9.118,2.241 8.223,2.531 L8.687,3.958 C9.298,3.759 10.08,3.75 12,3.75 L12,2.25 Z M5.75,10 C5.75,8.08 5.759,7.298 5.958,6.687 L4.531,6.223 C4.241,7.118 4.25,8.197 4.25,10 L5.75,10 Z M8.223,2.531 C6.473,3.1 5.1,4.473 4.531,6.223 L5.958,6.687 C6.378,5.393 7.393,4.378 8.687,3.958 L8.223,2.531 Z M9,9.75 L15,9.75 L15,8.25 L9,8.25 L9,9.75 Z"/>
</svg>

