<svg width="24" height="24" viewBox="0 0 24 24" fill="none" xmlns="http://www.w3.org/2000/svg">
<path d="M1.72754 1.81826C1.62707 1.41642 1.21986 1.1721 0.818015 1.27257C0.416171 1.37305 0.17186 1.78025 0.272331 2.1821L1.32418 6.38907L2.30298 10.4731C2.71918 12.2096 3.04677 13.5765 3.43552 14.6384C3.83428 15.7277 4.32329 16.5733 5.10786 17.2218C5.17557 17.2777 5.24455 17.3321 5.31476 17.3849C6.12821 17.9968 7.06452 18.2752 8.21672 18.4091C9.33994 18.5397 10.7455 18.5397 12.5312 18.5396H13.1248C14.6698 18.5397 15.886 18.5397 16.8658 18.4406C17.8694 18.3391 18.6952 18.1285 19.4383 17.6632C19.7908 17.4425 20.1183 17.1842 20.4151 16.8929C21.001 16.3177 21.3871 15.6192 21.7069 14.7502H17C16.5858 14.7502 16.25 14.4144 16.25 14.0002C16.25 13.586 16.5858 13.2502 17 13.2502H22.1699C22.2921 12.7957 22.4158 12.297 22.5482 11.7502L14 11.7502C13.5858 11.7502 13.25 11.4144 13.25 11.0002C13.25 10.586 13.5858 10.2502 14 10.2502L22.9074 10.2502C23.0559 9.61688 23.1724 9.07364 23.2251 8.61271C23.2968 7.98492 23.2675 7.38716 22.9542 6.84137C22.8201 6.60794 22.6525 6.39544 22.4568 6.21069C21.9991 5.77874 21.4246 5.61094 20.7973 5.53441C20.193 5.46066 19.4252 5.46068 18.4936 5.4607L2.63824 5.4607L1.72754 1.81826Z" fill="#2D264B"/>
<path d="M9.42109 22.0002C10.0024 22.0002 10.4737 21.5289 10.4737 20.9475C10.4737 20.3662 10.0024 19.8949 9.42109 19.8949C8.83973 19.8949 8.36845 20.3662 8.36845 20.9475C8.36845 21.5289 8.83973 22.0002 9.42109 22.0002Z" fill="#2D264B"/>
<path d="M15.7369 22.0002C16.3182 22.0002 16.7895 21.5289 16.7895 20.9475C16.7895 20.3662 16.3182 19.8949 15.7369 19.8949C15.1555 19.8949 14.6842 20.3662 14.6842 20.9475C14.6842 21.5289 15.1555 22.0002 15.7369 22.0002Z" fill="#2D264B"/>
</svg>
