<svg width="24" height="24" viewBox="0 0 24 24" fill="none" xmlns="http://www.w3.org/2000/svg">
<path fill-rule="evenodd" clip-rule="evenodd" d="M14.4697 3.46967C14.7626 3.17678 15.2375 3.17678 15.5304 3.46967L19.3107 7.25001H22C22.4142 7.25001 22.75 7.5858 22.75 8.00001C22.75 8.41422 22.4142 8.75001 22 8.75001H21.4557C21.2293 9.60606 20.9365 10.593 20.5959 11.7414L19.5708 15.1969C19.1636 16.5702 18.914 17.412 18.4765 18.0966C17.7233 19.2751 16.5663 20.1386 15.2223 20.5256C14.4416 20.7503 13.5635 20.7502 12.1312 20.75H11.8688C10.4365 20.7502 9.55843 20.7503 8.77772 20.5256C7.43365 20.1386 6.2767 19.2751 5.52349 18.0966C5.08598 17.412 4.83637 16.5702 4.42921 15.1969L3.40431 11.742C3.06357 10.5934 2.77073 9.60621 2.54431 8.75001H2C1.58579 8.75001 1.25 8.41422 1.25 8.00001C1.25 7.5858 1.58579 7.25001 2 7.25001H4.93198L8.71231 3.46969C9.0052 3.17679 9.48008 3.17679 9.77297 3.46969C10.0659 3.76258 10.0659 4.23745 9.77297 4.53035L7.05331 7.25001H17.1894L14.4697 4.53033C14.1768 4.23744 14.1768 3.76256 14.4697 3.46967ZM10.75 12C10.75 11.5858 10.4142 11.25 10 11.25C9.58579 11.25 9.25 11.5858 9.25 12V16C9.25 16.4142 9.58579 16.75 10 16.75C10.4142 16.75 10.75 16.4142 10.75 16V12ZM14.75 12C14.75 11.5858 14.4142 11.25 14 11.25C13.5858 11.25 13.25 11.5858 13.25 12V16C13.25 16.4142 13.5858 16.75 14 16.75C14.4142 16.75 14.75 16.4142 14.75 16V12Z" fill="#2D264B"/>
</svg>
