<svg width="24" height="24" viewBox="0 0 24 24" fill="none" xmlns="http://www.w3.org/2000/svg">
<path fill-rule="evenodd" clip-rule="evenodd" d="M1.72754 1.81828C1.62708 1.41643 1.21988 1.17211 0.818032 1.27257C0.416185 1.37303 0.171865 1.78023 0.272326 2.18208L1.32407 6.38905L2.30288 10.4731C2.71907 12.2096 3.04667 13.5765 3.43542 14.6384C3.83418 15.7277 4.32319 16.5733 5.10776 17.2218C5.17547 17.2777 5.24445 17.3321 5.31465 17.3849C6.12811 17.9968 7.06442 18.2752 8.21662 18.4091C9.33985 18.5397 10.7454 18.5397 12.5312 18.5396H13.1246C14.6696 18.5397 15.8859 18.5397 16.8657 18.4406C17.8693 18.3391 18.6951 18.1285 19.4382 17.6632C19.7907 17.4425 20.1182 17.1842 20.415 16.8929C21.0406 16.2787 21.4379 15.5247 21.7705 14.5724C22.0952 13.6427 22.3787 12.4599 22.7388 10.9575L22.7597 10.8702C22.9768 9.96433 23.1558 9.21757 23.225 8.61272C23.2967 7.98492 23.2674 7.38716 22.9541 6.84137C22.82 6.60794 22.6524 6.39545 22.4567 6.2107C21.999 5.77874 21.4245 5.61094 20.7972 5.53441C20.1929 5.46066 19.4251 5.46068 18.4935 5.4607L2.63815 5.4607L1.72754 1.81828ZM9.24994 14.0002C9.24994 13.586 9.58573 13.2502 9.99994 13.2502H15.9999C16.4142 13.2502 16.7499 13.586 16.7499 14.0002C16.7499 14.4144 16.4142 14.7502 15.9999 14.7502H9.99994C9.58573 14.7502 9.24994 14.4144 9.24994 14.0002Z" fill="#2D264B"/>
<path d="M9.42098 22.0002C10.0023 22.0002 10.4736 21.5289 10.4736 20.9475C10.4736 20.3662 10.0023 19.8949 9.42098 19.8949C8.83963 19.8949 8.36835 20.3662 8.36835 20.9475C8.36835 21.5289 8.83963 22.0002 9.42098 22.0002Z" fill="#2D264B"/>
<path d="M15.7368 22.0002C16.3181 22.0002 16.7894 21.5289 16.7894 20.9475C16.7894 20.3662 16.3181 19.8949 15.7368 19.8949C15.1554 19.8949 14.6841 20.3662 14.6841 20.9475C14.6841 21.5289 15.1554 22.0002 15.7368 22.0002Z" fill="#2D264B"/>
</svg>
