<svg xmlns="http://www.w3.org/2000/svg" width="24" height="24" viewBox="0 0 24 24">
  <defs/>
  <path fill="#2D264B" d="M1.728,1.818 L2.638,5.461 L18.494,5.461 C19.425,5.461 20.193,5.461 20.797,5.534 C21.424,5.611 21.999,5.779 22.457,6.211 C22.652,6.395 22.82,6.608 22.954,6.841 C23.267,7.387 23.297,7.985 23.225,8.613 C23.156,9.218 22.977,9.964 22.76,10.87 L22.739,10.958 C22.379,12.46 22.095,13.643 21.771,14.572 C21.438,15.525 21.041,16.279 20.415,16.893 C20.118,17.184 19.791,17.442 19.438,17.663 C18.695,18.128 17.869,18.339 16.866,18.441 C15.886,18.54 14.67,18.54 13.125,18.54 L12.531,18.54 C10.745,18.54 9.34,18.54 8.217,18.409 C7.064,18.275 6.128,17.997 5.315,17.385 C5.244,17.332 5.175,17.278 5.108,17.222 C4.323,16.573 3.834,15.728 3.435,14.638 C3.047,13.576 2.719,12.21 2.303,10.473 L1.324,6.389 L0.272,2.182 C0.172,1.78 0.416,1.373 0.818,1.273 C1.22,1.172 1.627,1.416 1.728,1.818 Z M9.25,14 C9.25,14.414 9.586,14.75 10,14.75 L16,14.75 C16.414,14.75 16.75,14.414 16.75,14 C16.75,13.586 16.414,13.25 16,13.25 L10,13.25 C9.586,13.25 9.25,13.586 9.25,14 Z"/>
  <path fill="#2D264B" d="M9.421,22 C10.002,22 10.474,21.529 10.474,20.948 C10.474,20.366 10.002,19.895 9.421,19.895 C8.84,19.895 8.368,20.366 8.368,20.948 C8.368,21.529 8.84,22 9.421,22 Z"/>
  <path fill="#2D264B" d="M15.737,22 C16.318,22 16.789,21.529 16.789,20.948 C16.789,20.366 16.318,19.895 15.737,19.895 C15.155,19.895 14.684,20.366 14.684,20.948 C14.684,21.529 15.155,22 15.737,22 Z"/>
</svg>

