<svg xmlns="http://www.w3.org/2000/svg" width="24" height="24" viewBox="0 0 24 24">
  <defs/>
  <path fill="#2D264B" d="M1.728,1.818 C1.627,1.416 1.22,1.172 0.818,1.273 C0.416,1.373 0.172,1.78 0.272,2.182 L1.324,6.389 L2.303,10.473 C2.719,12.21 3.047,13.576 3.436,14.638 C3.834,15.728 4.323,16.573 5.108,17.222 C5.176,17.278 5.245,17.332 5.315,17.385 C6.128,17.997 7.065,18.275 8.217,18.409 C9.34,18.54 10.745,18.54 12.531,18.54 L13.125,18.54 C14.67,18.54 15.886,18.54 16.866,18.441 C17.869,18.339 18.695,18.128 19.438,17.663 C19.791,17.442 20.118,17.184 20.415,16.893 C21.001,16.318 21.387,15.619 21.707,14.75 L17,14.75 C16.586,14.75 16.25,14.414 16.25,14 C16.25,13.586 16.586,13.25 17,13.25 L22.17,13.25 C22.292,12.796 22.416,12.297 22.548,11.75 L14,11.75 C13.586,11.75 13.25,11.414 13.25,11 C13.25,10.586 13.586,10.25 14,10.25 L22.907,10.25 C23.056,9.617 23.172,9.074 23.225,8.613 C23.297,7.985 23.267,7.387 22.954,6.841 C22.82,6.608 22.652,6.395 22.457,6.211 C21.999,5.779 21.425,5.611 20.797,5.534 C20.193,5.461 19.425,5.461 18.494,5.461 L2.638,5.461 L1.728,1.818 Z"/>
  <path fill="#2D264B" d="M9.421,22 C10.002,22 10.474,21.529 10.474,20.948 C10.474,20.366 10.002,19.895 9.421,19.895 C8.84,19.895 8.368,20.366 8.368,20.948 C8.368,21.529 8.84,22 9.421,22 Z"/>
  <path fill="#2D264B" d="M15.737,22 C16.318,22 16.79,21.529 16.79,20.948 C16.79,20.366 16.318,19.895 15.737,19.895 C15.155,19.895 14.684,20.366 14.684,20.948 C14.684,21.529 15.155,22 15.737,22 Z"/>
</svg>

