<svg xmlns="http://www.w3.org/2000/svg" width="24" height="24" viewBox="0 0 24 24">
  <defs/>
  <path fill="#2D264B" d="M1.728,1.818 C1.627,1.416 1.22,1.172 0.818,1.272 C0.416,1.373 0.172,1.78 0.272,2.182 L1.728,1.818 Z M16,14.75 C16.414,14.75 16.75,14.414 16.75,14 C16.75,13.586 16.414,13.25 16,13.25 L16,14.75 Z M10,13.25 C9.586,13.25 9.25,13.586 9.25,14 C9.25,14.414 9.586,14.75 10,14.75 L10,13.25 Z M2.053,6.961 L18.445,6.961 L18.445,5.461 L2.053,5.461 L2.053,6.961 Z M13.084,17.04 L12.579,17.04 L12.579,18.54 L13.084,18.54 L13.084,17.04 Z M3.751,10.077 L2.782,6.036 L1.323,6.385 L2.292,10.427 L3.751,10.077 Z M12.579,17.04 C10.735,17.04 9.417,17.038 8.39,16.919 C7.382,16.802 6.738,16.578 6.216,16.186 L5.315,17.385 C6.128,17.997 7.064,18.275 8.217,18.409 C9.35,18.541 10.771,18.54 12.579,18.54 L12.579,17.04 Z M2.292,10.427 C2.713,12.185 3.043,13.567 3.435,14.638 C3.834,15.727 4.323,16.573 5.108,17.222 L6.063,16.065 C5.56,15.65 5.193,15.075 4.844,14.123 C4.489,13.152 4.18,11.87 3.751,10.077 L2.292,10.427 Z M6.216,16.186 C6.164,16.147 6.113,16.107 6.063,16.065 L5.108,17.222 C5.176,17.277 5.245,17.332 5.315,17.385 L6.216,16.186 Z M21.29,10.568 C20.918,12.119 20.651,13.228 20.355,14.078 C20.063,14.913 19.763,15.43 19.364,15.822 L20.415,16.893 C21.041,16.279 21.438,15.524 21.771,14.572 C22.098,13.634 22.384,12.439 22.748,10.917 L21.29,10.568 Z M13.084,18.54 C14.648,18.54 15.877,18.54 16.866,18.44 C17.869,18.339 18.695,18.128 19.438,17.663 L18.642,16.392 C18.168,16.689 17.595,16.859 16.715,16.948 C15.819,17.039 14.679,17.04 13.084,17.04 L13.084,18.54 Z M19.364,15.822 C19.145,16.038 18.903,16.229 18.642,16.392 L19.438,17.663 C19.791,17.442 20.118,17.184 20.415,16.893 L19.364,15.822 Z M18.445,6.961 C19.437,6.961 20.113,6.962 20.616,7.023 C21.106,7.083 21.307,7.188 21.427,7.301 L22.457,6.211 C21.999,5.779 21.424,5.611 20.797,5.534 C20.183,5.459 19.398,5.461 18.445,5.461 L18.445,6.961 Z M22.748,10.917 C22.971,9.99 23.155,9.228 23.225,8.613 C23.297,7.985 23.267,7.387 22.954,6.841 L21.653,7.588 C21.736,7.731 21.791,7.951 21.735,8.442 C21.677,8.945 21.521,9.603 21.29,10.568 L22.748,10.917 Z M21.427,7.301 C21.516,7.385 21.592,7.482 21.653,7.588 L22.954,6.841 C22.82,6.608 22.652,6.395 22.457,6.211 L21.427,7.301 Z M2.78,6.029 L1.728,1.818 L0.272,2.182 L1.325,6.392 L2.78,6.029 Z M16,13.25 L10,13.25 L10,14.75 L16,14.75 L16,13.25 Z"/>
  <path fill="#2D264B" d="M10.474,20.947 C10.474,21.529 10.002,22 9.421,22 C8.84,22 8.368,21.529 8.368,20.947 C8.368,20.366 8.84,19.895 9.421,19.895 C10.002,19.895 10.474,20.366 10.474,20.947 Z"/>
  <path fill="#2D264B" d="M16.79,20.947 C16.79,21.529 16.318,22 15.737,22 C15.155,22 14.684,21.529 14.684,20.947 C14.684,20.366 15.155,19.895 15.737,19.895 C16.318,19.895 16.79,20.366 16.79,20.947 Z"/>
</svg>

