<svg xmlns="http://www.w3.org/2000/svg" width="24" height="24" viewBox="0 0 24 24">
  <defs/>
  <path fill="#2D264B" d="M14.47,3.47 C14.763,3.177 15.238,3.177 15.53,3.47 L19.311,7.25 L22,7.25 C22.414,7.25 22.75,7.586 22.75,8 C22.75,8.414 22.414,8.75 22,8.75 L21.456,8.75 C21.229,9.606 20.937,10.593 20.596,11.741 L19.571,15.197 C19.164,16.57 18.914,17.412 18.476,18.097 C17.723,19.275 16.566,20.139 15.222,20.526 C14.442,20.75 13.564,20.75 12.131,20.75 L11.869,20.75 C10.436,20.75 9.558,20.75 8.778,20.526 C7.434,20.139 6.277,19.275 5.523,18.097 C5.086,17.412 4.836,16.57 4.429,15.197 L3.404,11.742 C3.064,10.593 2.771,9.606 2.544,8.75 L2,8.75 C1.586,8.75 1.25,8.414 1.25,8 C1.25,7.586 1.586,7.25 2,7.25 L4.932,7.25 L8.712,3.47 C9.005,3.177 9.48,3.177 9.773,3.47 C10.066,3.763 10.066,4.237 9.773,4.53 L7.053,7.25 L17.189,7.25 L14.47,4.53 C14.177,4.237 14.177,3.763 14.47,3.47 Z M10.75,12 C10.75,11.586 10.414,11.25 10,11.25 C9.586,11.25 9.25,11.586 9.25,12 L9.25,16 C9.25,16.414 9.586,16.75 10,16.75 C10.414,16.75 10.75,16.414 10.75,16 Z M14.75,12 C14.75,11.586 14.414,11.25 14,11.25 C13.586,11.25 13.25,11.586 13.25,12 L13.25,16 C13.25,16.414 13.586,16.75 14,16.75 C14.414,16.75 14.75,16.414 14.75,16 Z"/>
</svg>

