<svg xmlns="http://www.w3.org/2000/svg" width="24" height="24" viewBox="0 0 24 24">
  <defs/>
  <path fill="#2D264B" d="M20.873,8 L20.873,7.25 L20.284,7.25 L20.144,7.822 L20.873,8 Z M3.127,8 L3.127,7.25 L2.172,7.25 L2.398,8.178 L3.127,8 Z M2,7.25 C1.586,7.25 1.25,7.586 1.25,8 C1.25,8.414 1.586,8.75 2,8.75 L2,7.25 Z M22,8.75 C22.414,8.75 22.75,8.414 22.75,8 C22.75,7.586 22.414,7.25 22,7.25 L22,8.75 Z M14.75,12 C14.75,11.586 14.414,11.25 14,11.25 C13.586,11.25 13.25,11.586 13.25,12 L14.75,12 Z M13.25,16 C13.25,16.414 13.586,16.75 14,16.75 C14.414,16.75 14.75,16.414 14.75,16 L13.25,16 Z M15.53,3.47 C15.238,3.177 14.763,3.177 14.47,3.47 C14.177,3.763 14.177,4.237 14.47,4.53 L15.53,3.47 Z M9.773,4.53 C10.066,4.237 10.066,3.763 9.773,3.47 C9.48,3.177 9.005,3.177 8.712,3.47 L9.773,4.53 Z M10.75,12 C10.75,11.586 10.414,11.25 10,11.25 C9.586,11.25 9.25,11.586 9.25,12 L10.75,12 Z M9.25,16 C9.25,16.414 9.586,16.75 10,16.75 C10.414,16.75 10.75,16.414 10.75,16 L9.25,16 Z M19.153,11.332 L18.17,14.645 L19.608,15.071 L20.591,11.759 L19.153,11.332 Z M5.83,14.645 L4.847,11.332 L3.409,11.759 L4.392,15.071 L5.83,14.645 Z M12,19.25 C10.395,19.25 9.744,19.243 9.193,19.084 L8.778,20.526 C9.582,20.757 10.49,20.75 12,20.75 L12,19.25 Z M4.392,15.071 C4.821,16.519 5.073,17.391 5.523,18.097 L6.787,17.289 C6.478,16.805 6.287,16.184 5.83,14.645 L4.392,15.071 Z M9.193,19.084 C8.199,18.798 7.344,18.16 6.787,17.289 L5.523,18.097 C6.277,19.275 7.434,20.139 8.778,20.526 L9.193,19.084 Z M18.17,14.645 C17.713,16.184 17.522,16.805 17.213,17.289 L18.477,18.097 C18.927,17.391 19.178,16.519 19.608,15.071 L18.17,14.645 Z M12,20.75 C13.51,20.75 14.418,20.757 15.222,20.526 L14.807,19.084 C14.256,19.243 13.605,19.25 12,19.25 L12,20.75 Z M17.213,17.289 C16.656,18.16 15.801,18.798 14.807,19.084 L15.222,20.526 C16.566,20.139 17.723,19.275 18.477,18.097 L17.213,17.289 Z M20.591,11.759 C21.012,10.338 21.361,9.163 21.602,8.178 L20.144,7.822 C19.914,8.764 19.578,9.899 19.153,11.332 L20.591,11.759 Z M4.847,11.332 C4.422,9.899 4.086,8.764 3.856,7.822 L2.398,8.178 C2.639,9.163 2.988,10.338 3.409,11.759 L4.847,11.332 Z M13.25,12 L13.25,16 L14.75,16 L14.75,12 L13.25,12 Z M9.25,12 L9.25,16 L10.75,16 L10.75,12 L9.25,12 Z M14.47,4.53 L18.47,8.53 L19.53,7.47 L15.53,3.47 L14.47,4.53 Z M19,8.75 L21,8.75 L21,7.25 L19,7.25 L19,8.75 Z M21,8.75 L22,8.75 L22,7.25 L21,7.25 L21,8.75 Z M20.873,8.75 L21,8.75 L21,7.25 L20.873,7.25 L20.873,8.75 Z M2,8.75 L5.243,8.75 L5.243,7.25 L2,7.25 L2,8.75 Z M5.243,8.75 L19,8.75 L19,7.25 L5.243,7.25 L5.243,8.75 Z M8.712,3.47 L4.712,7.47 L5.773,8.53 L9.773,4.53 L8.712,3.47 Z M3.127,8.75 L5.243,8.75 L5.243,7.25 L3.127,7.25 L3.127,8.75 Z"/>
</svg>

