<svg width="24" height="24" viewBox="0 0 24 24" fill="none" xmlns="http://www.w3.org/2000/svg">
<path fill-rule="evenodd" clip-rule="evenodd" d="M7.5 4.13266C6.45858 4.25614 5.69469 4.49457 5.06107 4.95492C4.6366 5.26331 4.26331 5.6366 3.95491 6.06107C3 7.3754 3 9.25027 3 13C3 16.7497 3 18.6246 3.95491 19.9389C4.26331 20.3634 4.6366 20.7367 5.06107 21.0451C6.3754 22 8.25027 22 12 22C12.8389 22 13.584 22 14.25 21.9893L14.25 21.9192C14.2499 21.0672 14.2499 20.5482 14.3208 20.1005C14.7105 17.6401 16.6401 15.7105 19.1005 15.3208C19.5482 15.2499 20.0672 15.2499 20.9192 15.25L20.9893 15.25C21 14.5842 21 13.8392 21 13.0005C21 9.25073 21 7.3754 20.0451 6.06107C19.7367 5.6366 19.3634 5.26331 18.9389 4.95492C18.3053 4.49457 17.5414 4.25614 16.5 4.13266V5C16.5 5.82843 15.8284 6.5 15 6.5C14.1716 6.5 13.5 5.82843 13.5 5V4.00281C13.0359 4 12.5372 4 12 4C11.4628 4 10.9641 4 10.5 4.00281V5C10.5 5.82843 9.82843 6.5 9 6.5C8.17157 6.5 7.5 5.82843 7.5 5V4.13266ZM7 10C7.55228 10 8 9.55228 8 9C8 8.44772 7.55228 8 7 8C6.44772 8 6 8.44772 6 9C6 9.55228 6.44772 10 7 10ZM8 13C8 13.5523 7.55228 14 7 14C6.44772 14 6 13.5523 6 13C6 12.4477 6.44772 12 7 12C7.55228 12 8 12.4477 8 13ZM12 10C12.5523 10 13 9.55228 13 9C13 8.44772 12.5523 8 12 8C11.4477 8 11 8.44772 11 9C11 9.55228 11.4477 10 12 10ZM13 13C13 13.5523 12.5523 14 12 14C11.4477 14 11 13.5523 11 13C11 12.4477 11.4477 12 12 12C12.5523 12 13 12.4477 13 13ZM12 18C12.5523 18 13 17.5523 13 17C13 16.4477 12.5523 16 12 16C11.4477 16 11 16.4477 11 17C11 17.5523 11.4477 18 12 18ZM18 9C18 9.55228 17.5523 10 17 10C16.4477 10 16 9.55228 16 9C16 8.44772 16.4477 8 17 8C17.5523 8 18 8.44772 18 9ZM17 14C17.5523 14 18 13.5523 18 13C18 12.4477 17.5523 12 17 12C16.4477 12 16 12.4477 16 13C16 13.5523 16.4477 14 17 14ZM8 17C8 17.5523 7.55228 18 7 18C6.44772 18 6 17.5523 6 17C6 16.4477 6.44772 16 7 16C7.55228 16 8 16.4477 8 17Z" fill="#2D264B"/>
<path d="M20.9347 16.75C20.0243 16.7501 19.6435 16.7535 19.3352 16.8023C17.5166 17.0904 16.0904 18.5166 15.8023 20.3352C15.7535 20.6435 15.7501 21.0243 15.75 21.9347C17.1896 21.8403 18.1622 21.6094 18.9389 21.0451C19.3634 20.7367 19.7367 20.3634 20.0451 19.9389C20.6094 19.1622 20.8403 18.1896 20.9347 16.75Z" fill="#2D264B"/>
<path d="M9.75 2C9.75 1.58579 9.41421 1.25 9 1.25C8.58579 1.25 8.25 1.58579 8.25 2V5C8.25 5.41421 8.58579 5.75 9 5.75C9.41421 5.75 9.75 5.41421 9.75 5V2Z" fill="#2D264B"/>
<path d="M15.75 2C15.75 1.58579 15.4142 1.25 15 1.25C14.5858 1.25 14.25 1.58579 14.25 2V5C14.25 5.41421 14.5858 5.75 15 5.75C15.4142 5.75 15.75 5.41421 15.75 5V2Z" fill="#2D264B"/>
</svg>
