<svg xmlns="http://www.w3.org/2000/svg" width="24" height="24" viewBox="0 0 24 24">
  <defs/>
  <path fill="#2D264B" d="M5.061,4.955 C5.695,4.495 6.459,4.256 7.5,4.133 L7.5,5 C7.5,5.828 8.172,6.5 9,6.5 C9.828,6.5 10.5,5.828 10.5,5 L10.5,4.003 C10.964,4 11.463,4 12,4 C12.537,4 13.036,4 13.5,4.003 L13.5,5 C13.5,5.828 14.172,6.5 15,6.5 C15.828,6.5 16.5,5.828 16.5,5 L16.5,4.133 C17.541,4.256 18.305,4.495 18.939,4.955 C19.363,5.263 19.737,5.637 20.045,6.061 C20.609,6.838 20.84,7.81 20.935,9.25 L3.065,9.25 C3.16,7.81 3.391,6.838 3.955,6.061 C4.263,5.637 4.637,5.263 5.061,4.955 Z"/>
  <path fill="#2D264B" d="M3.011,10.75 L3.029,10.75 L20.971,10.75 L20.989,10.75 C21,11.416 21,12.161 21,13 C21,13.839 21,14.584 20.989,15.25 L20.919,15.25 C20.067,15.25 19.548,15.25 19.101,15.321 C16.64,15.71 14.71,17.64 14.321,20.101 C14.25,20.548 14.25,21.067 14.25,21.919 L14.25,21.989 C13.584,22 12.839,22 12,22 C8.25,22 6.375,22 5.061,21.045 C4.637,20.737 4.263,20.363 3.955,19.939 C3,18.625 3,16.75 3,13 C3,12.161 3,11.416 3.011,10.75 Z M9,13.25 C8.586,13.25 8.25,13.586 8.25,14 C8.25,14.414 8.586,14.75 9,14.75 L15,14.75 C15.414,14.75 15.75,14.414 15.75,14 C15.75,13.586 15.414,13.25 15,13.25 Z"/>
  <path fill="#2D264B" d="M18.939,21.045 C18.162,21.609 17.19,21.84 15.75,21.935 C15.75,21.024 15.754,20.643 15.802,20.335 C16.09,18.517 17.517,17.09 19.335,16.802 C19.643,16.753 20.024,16.75 20.935,16.75 C20.84,18.19 20.609,19.162 20.045,19.939 C19.737,20.363 19.363,20.737 18.939,21.045 Z"/>
  <path fill="#2D264B" d="M9.75,2 C9.75,1.586 9.414,1.25 9,1.25 C8.586,1.25 8.25,1.586 8.25,2 L8.25,5 C8.25,5.414 8.586,5.75 9,5.75 C9.414,5.75 9.75,5.414 9.75,5 L9.75,2 Z"/>
  <path fill="#2D264B" d="M15.75,2 C15.75,1.586 15.414,1.25 15,1.25 C14.586,1.25 14.25,1.586 14.25,2 L14.25,5 C14.25,5.414 14.586,5.75 15,5.75 C15.414,5.75 15.75,5.414 15.75,5 L15.75,2 Z"/>
</svg>

