<svg xmlns="http://www.w3.org/2000/svg" width="24" height="24" viewBox="0 0 24 24">
  <defs/>
  <path fill="#2D264B" d="M7.5,4.133 L7.5,5 C7.5,5.828 8.172,6.5 9,6.5 C9.828,6.5 10.5,5.828 10.5,5 L10.5,4.003 C10.964,4 11.463,4 12,4 C12.537,4 13.036,4 13.5,4.003 L13.5,5 C13.5,5.828 14.172,6.5 15,6.5 C15.828,6.5 16.5,5.828 16.5,5 L16.5,4.133 C17.541,4.256 18.305,4.495 18.939,4.955 C19.363,5.263 19.737,5.637 20.045,6.061 C21,7.375 21,9.251 21,13 C21,13.839 21,14.584 20.989,15.25 L20.919,15.25 C20.067,15.25 19.548,15.25 19.101,15.321 C16.64,15.71 14.71,17.64 14.321,20.101 C14.25,20.548 14.25,21.067 14.25,21.919 L14.25,21.989 C13.584,22 12.839,22 12,22 C8.25,22 6.375,22 5.061,21.045 C4.637,20.737 4.263,20.363 3.955,19.939 C3,18.625 3,16.75 3,13 C3,9.25 3,7.375 3.955,6.061 C4.263,5.637 4.637,5.263 5.061,4.955 C5.695,4.495 6.459,4.256 7.5,4.133 Z M13,13 C13,12.448 12.552,12 12,12 C11.448,12 11,12.448 11,13 C11,13.552 11.448,14 12,14 C12.552,14 13,13.552 13,13 Z M17,14 C17.552,14 18,13.552 18,13 C18,12.448 17.552,12 17,12 C16.448,12 16,12.448 16,13 C16,13.552 16.448,14 17,14 Z M12,18 C12.552,18 13,17.552 13,17 C13,16.448 12.552,16 12,16 C11.448,16 11,16.448 11,17 C11,17.552 11.448,18 12,18 Z M12,10 C12.552,10 13,9.552 13,9 C13,8.448 12.552,8 12,8 C11.448,8 11,8.448 11,9 C11,9.552 11.448,10 12,10 Z M8,13 C8,12.448 7.552,12 7,12 C6.448,12 6,12.448 6,13 C6,13.552 6.448,14 7,14 C7.552,14 8,13.552 8,13 Z M18,9 C18,8.448 17.552,8 17,8 C16.448,8 16,8.448 16,9 C16,9.552 16.448,10 17,10 C17.552,10 18,9.552 18,9 Z M8,17 C8,16.448 7.552,16 7,16 C6.448,16 6,16.448 6,17 C6,17.552 6.448,18 7,18 C7.552,18 8,17.552 8,17 Z M7,10 C7.552,10 8,9.552 8,9 C8,8.448 7.552,8 7,8 C6.448,8 6,8.448 6,9 C6,9.552 6.448,10 7,10 Z"/>
  <path fill="#2D264B" d="M20.935,16.75 C20.024,16.75 19.643,16.753 19.335,16.802 C17.517,17.09 16.09,18.517 15.802,20.335 C15.754,20.643 15.75,21.024 15.75,21.935 C17.19,21.84 18.162,21.609 18.939,21.045 C19.363,20.737 19.737,20.363 20.045,19.939 C20.609,19.162 20.84,18.19 20.935,16.75 Z"/>
  <path fill="#2D264B" d="M9.75,2 C9.75,1.586 9.414,1.25 9,1.25 C8.586,1.25 8.25,1.586 8.25,2 L8.25,5 C8.25,5.414 8.586,5.75 9,5.75 C9.414,5.75 9.75,5.414 9.75,5 L9.75,2 Z"/>
  <path fill="#2D264B" d="M15.75,2 C15.75,1.586 15.414,1.25 15,1.25 C14.586,1.25 14.25,1.586 14.25,2 L14.25,5 C14.25,5.414 14.586,5.75 15,5.75 C15.414,5.75 15.75,5.414 15.75,5 L15.75,2 Z"/>
</svg>

