<svg xmlns="http://www.w3.org/2000/svg" width="24" height="24" viewBox="0 0 24 24">
  <defs/>
  <path fill="#2D264B" d="M9,13.25 C8.586,13.25 8.25,13.586 8.25,14 C8.25,14.414 8.586,14.75 9,14.75 L9,13.25 Z M15,14.75 C15.414,14.75 15.75,14.414 15.75,14 C15.75,13.586 15.414,13.25 15,13.25 L15,14.75 Z M14.25,5 C14.25,5.414 14.586,5.75 15,5.75 C15.414,5.75 15.75,5.414 15.75,5 L14.25,5 Z M15.75,2 C15.75,1.586 15.414,1.25 15,1.25 C14.586,1.25 14.25,1.586 14.25,2 L15.75,2 Z M8.25,5 C8.25,5.414 8.586,5.75 9,5.75 C9.414,5.75 9.75,5.414 9.75,5 L8.25,5 Z M9.75,2 C9.75,1.586 9.414,1.25 9,1.25 C8.586,1.25 8.25,1.586 8.25,2 L9.75,2 Z M12,21.25 C10.108,21.25 8.75,21.249 7.698,21.135 C6.66,21.023 6.01,20.807 5.502,20.438 L4.62,21.652 C5.427,22.238 6.371,22.5 7.536,22.626 C8.688,22.751 10.142,22.75 12,22.75 L12,21.25 Z M2.25,13 C2.25,14.858 2.249,16.312 2.374,17.463 C2.5,18.629 2.762,19.573 3.348,20.38 L4.562,19.498 C4.193,18.99 3.977,18.34 3.865,17.302 C3.751,16.25 3.75,14.892 3.75,13 L2.25,13 Z M5.502,20.438 C5.141,20.176 4.824,19.859 4.562,19.498 L3.348,20.38 C3.703,20.868 4.132,21.297 4.62,21.652 L5.502,20.438 Z M19.438,19.498 C19.176,19.859 18.859,20.176 18.498,20.438 L19.38,21.652 C19.868,21.297 20.297,20.868 20.652,20.38 L19.438,19.498 Z M18.498,5.562 C18.859,5.824 19.176,6.141 19.438,6.502 L20.652,5.62 C20.297,5.132 19.868,4.703 19.38,4.348 L18.498,5.562 Z M4.62,4.348 C4.132,4.703 3.703,5.132 3.348,5.62 L4.562,6.502 C4.824,6.141 5.141,5.824 5.502,5.562 L4.62,4.348 Z M19.101,15.321 C16.64,15.71 14.71,17.64 14.321,20.101 L15.802,20.335 C16.09,18.517 17.517,17.09 19.335,16.802 L19.101,15.321 Z M9,14.75 L15,14.75 L15,13.25 L9,13.25 L9,14.75 Z M20.971,15.25 C20.089,15.25 19.558,15.248 19.101,15.321 L19.335,16.802 C19.647,16.753 20.034,16.75 20.971,16.75 L20.971,15.25 Z M20.25,13 C20.25,14.173 20.25,15.146 20.221,15.974 L21.721,16.026 C21.75,15.166 21.75,14.165 21.75,13 L20.25,13 Z M20.221,15.974 C20.158,17.829 19.951,18.793 19.438,19.498 L20.652,20.38 C21.454,19.276 21.656,17.899 21.721,16.026 L20.221,15.974 Z M15.75,21.971 C15.75,21.034 15.753,20.647 15.802,20.335 L14.321,20.101 C14.248,20.558 14.25,21.089 14.25,21.971 L15.75,21.971 Z M12,22.75 C13.165,22.75 14.166,22.75 15.026,22.721 L14.974,21.221 C14.146,21.25 13.173,21.25 12,21.25 L12,22.75 Z M15.026,22.721 C16.899,22.656 18.276,22.454 19.38,21.652 L18.498,20.438 C17.793,20.951 16.829,21.158 14.974,21.221 L15.026,22.721 Z M3.75,13 C3.75,11.827 3.75,10.854 3.778,10.026 L2.279,9.974 C2.25,10.834 2.25,11.835 2.25,13 L3.75,13 Z M3.778,10.026 C3.842,8.171 4.049,7.207 4.562,6.502 L3.348,5.62 C2.546,6.724 2.344,8.101 2.279,9.974 L3.778,10.026 Z M3.029,10.75 L20.971,10.75 L20.971,9.25 L3.029,9.25 L3.029,10.75 Z M21.75,13 C21.75,11.835 21.75,10.834 21.721,9.974 L20.221,10.026 C20.25,10.854 20.25,11.827 20.25,13 L21.75,13 Z M21.721,9.974 C21.656,8.101 21.454,6.724 20.652,5.62 L19.438,6.502 C19.951,7.207 20.158,8.171 20.221,10.026 L21.721,9.974 Z M15.75,5 L15.75,4.029 L14.25,4.029 L14.25,5 L15.75,5 Z M15.75,4.029 L15.75,2 L14.25,2 L14.25,4.029 L15.75,4.029 Z M12,4.75 C13.173,4.75 14.146,4.75 14.974,4.778 L15.026,3.279 C14.166,3.25 13.165,3.25 12,3.25 L12,4.75 Z M14.974,4.778 C16.829,4.842 17.793,5.049 18.498,5.562 L19.38,4.348 C18.276,3.546 16.899,3.344 15.026,3.279 L14.974,4.778 Z M9.75,5 L9.75,4.029 L8.25,4.029 L8.25,5 L9.75,5 Z M9.75,4.029 L9.75,2 L8.25,2 L8.25,4.029 L9.75,4.029 Z M12,3.25 C10.835,3.25 9.834,3.25 8.974,3.279 L9.026,4.778 C9.854,4.75 10.827,4.75 12,4.75 L12,3.25 Z M8.974,3.279 C7.101,3.344 5.724,3.546 4.62,4.348 L5.502,5.562 C6.207,5.049 7.171,4.842 9.026,4.778 L8.974,3.279 Z"/>
</svg>

