<svg xmlns="http://www.w3.org/2000/svg" width="24" height="24" viewBox="0 0 24 24">
  <defs/>
  <path fill="#2D264B" d="M9.465,9.523 Q8.918,10.778 9.886,11.746 L12.283,14.143 Q13.251,15.111 14.506,14.564 Q16.698,13.608 18.389,15.299 L19.848,16.758 L19.855,16.765 Q19.966,16.876 20.005,16.918 Q21.714,18.778 20.004,20.639 Q19.966,20.68 19.859,20.787 L19.848,20.798 L18.961,21.685 Q17.511,23.135 15.509,22.69 Q10.204,21.511 6.361,17.668 Q2.518,13.825 1.339,8.52 Q0.894,6.518 2.344,5.068 L3.231,4.182 Q3.348,4.065 3.391,4.025 Q5.251,2.316 7.112,4.025 Q7.155,4.065 7.272,4.182 L8.73,5.64 Q10.421,7.331 9.465,9.523 Z M8.09,8.924 Q8.637,7.669 7.669,6.701 L6.211,5.242 Q6.117,5.148 6.097,5.13 Q5.251,4.353 4.405,5.13 Q4.386,5.148 4.291,5.242 L3.405,6.129 Q2.537,6.997 2.803,8.195 Q5.173,18.857 15.835,21.226 Q17.033,21.492 17.901,20.624 L18.786,19.739 L18.798,19.727 Q18.883,19.642 18.899,19.624 Q19.677,18.778 18.899,17.932 Q18.882,17.914 18.794,17.826 L18.787,17.818 L17.329,16.36 Q16.361,15.392 15.106,15.939 Q12.913,16.894 11.223,15.204 L8.826,12.807 Q7.135,11.116 8.09,8.924 Z M21.15,11.899 L21.15,10.91 Q21.15,9.676 21.121,9.354 Q20.886,6.733 19.026,4.873 Q17.166,3.013 14.546,2.779 Q14.223,2.75 12.99,2.75 L12,2.75 Q11.689,2.75 11.47,2.53 Q11.25,2.311 11.25,2 Q11.25,1.689 11.47,1.47 Q11.689,1.25 12,1.25 L12.99,1.25 Q14.291,1.25 14.68,1.285 Q17.842,1.568 20.087,3.813 Q22.332,6.058 22.615,9.22 Q22.65,9.609 22.65,10.91 L22.65,11.899 Q22.65,12.21 22.43,12.43 Q22.21,12.649 21.9,12.649 Q21.589,12.649 21.369,12.43 Q21.15,12.21 21.15,11.899 Z M17.614,11.192 L17.613,10.466 Q17.554,6.345 13.425,6.286 L13.27,6.286 L12.707,6.286 Q12.396,6.286 12.177,6.066 Q11.957,5.846 11.957,5.536 Q11.957,5.225 12.177,5.005 Q12.396,4.786 12.707,4.786 L13.275,4.786 L13.446,4.786 Q15.78,4.82 17.43,6.47 Q19.08,8.12 19.113,10.462 L19.114,10.627 L19.114,11.192 Q19.114,11.503 18.894,11.723 Q18.675,11.942 18.364,11.942 Q18.053,11.942 17.834,11.723 Q17.614,11.503 17.614,11.192 Z"/>
</svg>

