<svg width="24" height="24" viewBox="0 0 24 24" fill="none" xmlns="http://www.w3.org/2000/svg">
<path d="M8.11183 2.97505C7.05974 2.00832 5.44259 2.00832 4.3905 2.97505C4.34741 3.01464 4.30142 3.06065 4.24169 3.12039L3.34419 4.01788C2.44108 4.921 2.06196 6.22292 2.33902 7.4697C3.91099 14.5436 9.43553 20.0681 16.5094 21.6401C17.7562 21.9171 19.0581 21.538 19.9612 20.6349L20.8586 19.7375C20.9184 19.6777 20.9644 19.6317 21.004 19.5886C21.9708 18.5365 21.9708 16.9193 21.004 15.8673C20.9644 15.8241 20.9184 15.7781 20.8586 15.7184L19.3894 14.2491C18.3693 13.229 16.8287 12.9372 15.5063 13.5137C14.7492 13.8437 13.8672 13.6767 13.2832 13.0927L10.8864 10.6959C10.3024 10.1119 10.1354 9.22994 10.4654 8.47283C11.0418 7.15037 10.7501 5.60984 9.72999 4.58974L8.26066 3.12041C8.20093 3.06066 8.15492 3.01464 8.11183 2.97505Z" fill="#2D264B"/>
<path d="M14.2728 5.23529C14.36 5.23528 14.3957 5.2353 14.4248 5.23572C16.7244 5.26865 18.5806 7.12485 18.6135 9.42442C18.6139 9.4535 18.614 9.48921 18.614 9.57645V10.1421C18.614 10.5564 18.9497 10.8921 19.364 10.8921C19.7782 10.8921 20.114 10.5564 20.114 10.1421V9.56919C20.114 9.49148 20.114 9.44419 20.1134 9.40294C20.0688 6.29175 17.5575 3.78043 14.4463 3.73587C14.405 3.73528 14.3578 3.73528 14.28 3.73529H13.7071C13.2929 3.73529 12.9571 4.07107 12.9571 4.48529C12.9571 4.8995 13.2929 5.23529 13.7071 5.23529H14.2728Z" fill="#2D264B"/>
</svg>
