<svg xmlns="http://www.w3.org/2000/svg" width="24" height="24" viewBox="0 0 24 24">
  <defs/>
  <path fill="#2D264B" d="M8.112,2.975 C7.06,2.008 5.443,2.008 4.391,2.975 C4.347,3.015 4.301,3.061 4.242,3.12 L3.344,4.018 C2.441,4.921 2.062,6.223 2.339,7.47 C3.911,14.544 9.436,20.068 16.509,21.64 C17.756,21.917 19.058,21.538 19.961,20.635 L20.859,19.738 C20.918,19.678 20.964,19.632 21.004,19.589 C21.971,18.537 21.971,16.919 21.004,15.867 C20.964,15.824 20.918,15.778 20.859,15.718 L19.389,14.249 C18.369,13.229 16.829,12.937 15.506,13.514 C14.749,13.844 13.867,13.677 13.283,13.093 L10.886,10.696 C10.302,10.112 10.135,9.23 10.465,8.473 C11.042,7.15 10.75,5.61 9.73,4.59 L8.261,3.12 C8.201,3.061 8.155,3.015 8.112,2.975 Z"/>
  <path fill="#2D264B" d="M14.273,5.235 C14.36,5.235 14.396,5.235 14.425,5.236 C16.724,5.269 18.581,7.125 18.613,9.424 C18.614,9.454 18.614,9.489 18.614,9.576 L18.614,10.142 C18.614,10.556 18.95,10.892 19.364,10.892 C19.778,10.892 20.114,10.556 20.114,10.142 L20.114,9.569 C20.114,9.491 20.114,9.444 20.113,9.403 C20.069,6.292 17.558,3.78 14.446,3.736 C14.405,3.735 14.358,3.735 14.28,3.735 L13.707,3.735 C13.293,3.735 12.957,4.071 12.957,4.485 C12.957,4.899 13.293,5.235 13.707,5.235 L14.273,5.235 Z"/>
</svg>

