<svg xmlns="http://www.w3.org/2000/svg" width="24" height="24" viewBox="0 0 24 24">
  <defs/>
  <path fill="#2D264B" d="M12.99,2.75 C13.851,2.75 14.232,2.751 14.546,2.779 C18.039,3.092 20.808,5.86 21.121,9.353 C21.149,9.668 21.15,10.049 21.15,10.909 L21.15,11.899 C21.15,12.314 21.485,12.649 21.9,12.649 C22.314,12.649 22.65,12.314 22.65,11.899 L22.65,10.859 C22.65,10.062 22.65,9.609 22.615,9.22 C22.237,5.004 18.896,1.662 14.68,1.285 C14.29,1.25 13.837,1.25 13.04,1.25 L12,1.25 C11.586,1.25 11.25,1.586 11.25,2 C11.25,2.414 11.586,2.75 12,2.75 L12.99,2.75 Z"/>
  <path fill="#2D264B" d="M7.112,4.025 C6.06,3.059 4.443,3.059 3.39,4.025 C3.347,4.065 3.301,4.111 3.242,4.171 L2.344,5.068 C1.441,5.971 1.062,7.273 1.339,8.52 C2.911,15.594 8.436,21.118 15.509,22.69 C16.756,22.967 18.058,22.588 18.961,21.685 L19.859,20.788 C19.918,20.728 19.964,20.682 20.004,20.639 C20.971,19.587 20.971,17.97 20.004,16.918 C19.964,16.874 19.918,16.828 19.859,16.769 L18.389,15.299 C17.369,14.279 15.829,13.988 14.506,14.564 C13.749,14.894 12.867,14.727 12.283,14.143 L9.886,11.746 C9.302,11.162 9.135,10.28 9.465,9.523 C10.042,8.201 9.75,6.66 8.73,5.64 L7.261,4.171 C7.201,4.111 7.155,4.065 7.112,4.025 Z"/>
  <path fill="#2D264B" d="M12.707,4.786 C12.293,4.786 11.957,5.121 11.957,5.536 C11.957,5.95 12.293,6.286 12.707,6.286 L13.273,6.286 C13.36,6.286 13.396,6.286 13.425,6.286 C15.724,6.319 17.581,8.175 17.613,10.475 C17.614,10.504 17.614,10.54 17.614,10.627 L17.614,11.192 C17.614,11.607 17.95,11.942 18.364,11.942 C18.778,11.942 19.114,11.607 19.114,11.192 L19.114,10.619 C19.114,10.542 19.114,10.494 19.113,10.453 C19.069,7.342 16.558,4.831 13.446,4.786 C13.405,4.786 13.358,4.786 13.28,4.786 L12.707,4.786 Z"/>
</svg>

