<svg xmlns="http://www.w3.org/2000/svg" width="24" height="24" viewBox="0 0 24 24">
  <defs/>
  <path fill="#2D264B" d="M16.652,2.591 C16.359,2.298 15.884,2.298 15.591,2.591 C15.298,2.884 15.298,3.359 15.591,3.652 L16.652,2.591 Z M19.834,7.894 C20.127,8.187 20.602,8.187 20.895,7.894 C21.187,7.601 21.187,7.127 20.895,6.834 L19.834,7.894 Z M15.591,6.834 C15.298,7.127 15.298,7.601 15.591,7.894 C15.884,8.187 16.359,8.187 16.652,7.894 L15.591,6.834 Z M20.895,3.652 C21.187,3.359 21.187,2.884 20.895,2.591 C20.602,2.298 20.127,2.298 19.834,2.591 L20.895,3.652 Z M19.787,18.688 L18.901,19.574 L19.961,20.635 L20.848,19.749 L19.787,18.688 Z M4.405,5.079 L5.291,4.192 L4.231,3.132 L3.344,4.018 L4.405,5.079 Z M18.329,15.31 L19.787,16.768 L20.848,15.707 L19.389,14.249 L18.329,15.31 Z M7.211,4.192 L8.669,5.65 L9.73,4.59 L8.272,3.132 L7.211,4.192 Z M9.09,7.873 C8.514,9.196 8.806,10.736 9.826,11.757 L10.886,10.696 C10.302,10.112 10.135,9.23 10.465,8.473 L9.09,7.873 Z M12.223,14.153 C13.243,15.174 14.783,15.465 16.106,14.889 L15.506,13.514 C14.749,13.844 13.867,13.677 13.283,13.093 L12.223,14.153 Z M16.835,20.176 C10.329,18.73 5.249,13.65 3.803,7.144 L2.339,7.47 C3.911,14.544 9.436,20.068 16.509,21.64 L16.835,20.176 Z M8.669,5.65 C9.253,6.234 9.42,7.116 9.09,7.873 L10.465,8.473 C11.042,7.15 10.75,5.61 9.73,4.59 L8.669,5.65 Z M3.344,4.018 C2.441,4.921 2.062,6.223 2.339,7.47 L3.803,7.144 C3.637,6.398 3.864,5.619 4.405,5.079 L3.344,4.018 Z M18.901,19.574 C18.36,20.115 17.581,20.342 16.835,20.176 L16.509,21.64 C17.756,21.917 19.058,21.538 19.961,20.635 L18.901,19.574 Z M20.848,19.749 C20.913,19.683 20.962,19.634 21.004,19.589 L19.899,18.574 C19.884,18.59 19.863,18.612 19.787,18.688 L20.848,19.749 Z M19.787,16.768 C19.863,16.844 19.884,16.866 19.899,16.882 L21.004,15.867 C20.962,15.822 20.913,15.773 20.848,15.707 L19.787,16.768 Z M21.004,19.589 C21.971,18.537 21.971,16.919 21.004,15.867 L19.899,16.882 C20.339,17.36 20.339,18.096 19.899,18.574 L21.004,19.589 Z M19.389,14.249 C18.369,13.229 16.829,12.937 15.506,13.514 L16.106,14.889 C16.863,14.559 17.745,14.726 18.329,15.31 L19.389,14.249 Z M5.291,4.192 C5.367,4.116 5.389,4.095 5.405,4.08 L4.39,2.975 C4.345,3.017 4.296,3.066 4.231,3.132 L5.291,4.192 Z M8.272,3.132 C8.207,3.066 8.158,3.017 8.112,2.975 L7.097,4.08 C7.113,4.095 7.135,4.116 7.211,4.192 L8.272,3.132 Z M5.405,4.08 C5.884,3.64 6.619,3.64 7.097,4.08 L8.112,2.975 C7.06,2.008 5.443,2.008 4.39,2.975 L5.405,4.08 Z M9.826,11.757 L12.223,14.153 L13.283,13.093 L10.886,10.696 L9.826,11.757 Z M15.591,3.652 L19.834,7.894 L20.895,6.834 L16.652,2.591 L15.591,3.652 Z M16.652,7.894 L18.773,5.773 L17.712,4.712 L15.591,6.834 L16.652,7.894 Z M18.773,5.773 L20.895,3.652 L19.834,2.591 L17.712,4.712 L18.773,5.773 Z"/>
</svg>

