<svg xmlns="http://www.w3.org/2000/svg" width="24" height="24" viewBox="0 0 24 24">
  <defs/>
  <path fill="#2D264B" d="M8.112,2.975 C7.06,2.008 5.443,2.008 4.391,2.975 C4.347,3.015 4.301,3.061 4.242,3.12 L3.344,4.018 C2.441,4.921 2.062,6.223 2.339,7.47 C3.911,14.544 9.436,20.068 16.509,21.64 C17.756,21.917 19.058,21.538 19.961,20.635 L20.859,19.738 C20.918,19.678 20.964,19.632 21.004,19.589 C21.971,18.537 21.971,16.919 21.004,15.867 C20.964,15.824 20.918,15.778 20.859,15.718 L19.389,14.249 C18.369,13.229 16.829,12.937 15.506,13.514 C14.749,13.844 13.867,13.677 13.283,13.093 L10.886,10.696 C10.302,10.112 10.135,9.23 10.465,8.473 C11.042,7.15 10.75,5.61 9.73,4.59 L8.261,3.12 C8.201,3.061 8.155,3.015 8.112,2.975 Z"/>
</svg>

