<svg xmlns="http://www.w3.org/2000/svg" width="24" height="24" viewBox="0 0 24 24">
  <defs/>
  <path fill="#2D264B" d="M8.112,2.975 C7.06,2.008 5.443,2.008 4.391,2.975 C4.347,3.015 4.301,3.061 4.242,3.12 L3.344,4.018 C2.441,4.921 2.062,6.223 2.339,7.47 C3.02,10.533 4.441,13.305 6.409,15.592 L2.781,19.22 C2.488,19.513 2.488,19.987 2.781,20.28 C3.074,20.573 3.548,20.573 3.841,20.28 L19.841,4.28 C20.134,3.987 20.134,3.513 19.841,3.22 C19.548,2.927 19.073,2.927 18.781,3.22 L11.095,10.905 L10.886,10.696 C10.302,10.112 10.135,9.23 10.465,8.473 C11.042,7.15 10.75,5.61 9.73,4.59 L8.261,3.12 C8.201,3.061 8.155,3.015 8.112,2.975 Z"/>
  <path fill="#2D264B" d="M16.509,21.64 C13.486,20.968 10.745,19.574 8.476,17.646 L13.156,12.966 L13.283,13.093 C13.867,13.677 14.749,13.844 15.506,13.514 C16.829,12.937 18.369,13.229 19.389,14.249 L20.859,15.718 C20.918,15.778 20.964,15.824 21.004,15.867 C21.971,16.919 21.971,18.537 21.004,19.589 C20.964,19.632 20.918,19.678 20.859,19.738 L19.961,20.635 C19.058,21.538 17.756,21.917 16.509,21.64 Z"/>
</svg>

