<svg width="24" height="24" viewBox="0 0 24 24" fill="none" xmlns="http://www.w3.org/2000/svg">
<path d="M8.11183 2.97505C7.05974 2.00832 5.44259 2.00832 4.3905 2.97505C4.34741 3.01464 4.30142 3.06065 4.24169 3.12039L3.34419 4.01788C2.44108 4.921 2.06196 6.22292 2.33902 7.4697C3.91099 14.5436 9.43553 20.0681 16.5094 21.6401C17.7562 21.9171 19.0581 21.538 19.9612 20.6349L20.8586 19.7375C20.9184 19.6777 20.9644 19.6317 21.004 19.5886C21.9708 18.5365 21.9708 16.9193 21.004 15.8673C20.9644 15.8241 20.9184 15.7781 20.8586 15.7184L19.3894 14.2491C18.3693 13.229 16.8287 12.9372 15.5063 13.5137C14.7492 13.8437 13.8672 13.6767 13.2832 13.0927L10.8864 10.6959C10.3024 10.1119 10.1354 9.22994 10.4654 8.47283C11.0418 7.15037 10.7501 5.60984 9.72999 4.58974L8.26066 3.12041C8.20093 3.06066 8.15492 3.01464 8.11183 2.97505Z" fill="#2D264B"/>
</svg>
