<svg xmlns="http://www.w3.org/2000/svg" width="24" height="24" viewBox="0 0 24 24">
  <defs/>
  <path fill="#2D264B" d="M9.25,1.25 L14.75,1.25 C16.131,1.25 17.25,2.369 17.25,3.75 L17.25,3.929 C17.25,4.382 17.618,4.75 18.071,4.75 C18.344,4.75 18.611,4.773 18.871,4.818 L21.47,2.22 C21.763,1.927 22.237,1.927 22.53,2.22 C22.823,2.513 22.823,2.987 22.53,3.28 L2.53,23.28 C2.237,23.573 1.763,23.573 1.47,23.28 C1.177,22.987 1.177,22.513 1.47,22.22 L2.549,21.14 C2.385,20.939 2.234,20.727 2.097,20.504 C1.645,19.765 1.443,18.927 1.345,17.904 C1.25,16.9 1.25,15.643 1.25,14.039 L1.25,9.429 C1.25,6.845 3.345,4.75 5.929,4.75 C6.382,4.75 6.75,4.382 6.75,3.929 L6.75,3.75 C6.75,2.369 7.869,1.25 9.25,1.25 Z M14.33,9.36 C13.641,8.971 12.847,8.75 12,8.75 C9.377,8.75 7.25,10.877 7.25,13.5 C7.25,14.347 7.471,15.141 7.86,15.83 L8.982,14.708 C8.832,14.334 8.75,13.927 8.75,13.5 C8.75,11.705 10.205,10.25 12,10.25 C12.427,10.25 12.834,10.332 13.208,10.482 Z"/>
  <path fill="#2D264B" d="M6.596,23.154 C5.994,23.097 5.457,23.004 4.966,22.845 L10.001,17.81 C10.608,18.092 11.286,18.25 12,18.25 C14.623,18.25 16.75,16.123 16.75,13.5 C16.75,12.786 16.592,12.108 16.31,11.501 L17.465,10.345 C17.62,10.443 17.803,10.5 18,10.5 C18.552,10.5 19,10.052 19,9.5 C19,9.303 18.943,9.12 18.845,8.965 L21.531,6.279 C22.288,7.111 22.75,8.216 22.75,9.429 L22.75,14.039 C22.75,15.643 22.75,16.9 22.654,17.904 C22.557,18.927 22.355,19.765 21.903,20.504 C21.429,21.278 20.778,21.929 20.004,22.403 C19.265,22.855 18.427,23.057 17.404,23.154 C16.4,23.25 15.143,23.25 13.539,23.25 L10.461,23.25 C8.857,23.25 7.6,23.25 6.596,23.154 Z"/>
  <path fill="#2D264B" d="M12,16.75 C11.713,16.75 11.434,16.713 11.168,16.643 L15.143,12.668 C15.213,12.934 15.25,13.213 15.25,13.5 C15.25,15.295 13.795,16.75 12,16.75 Z"/>
</svg>

