<svg xmlns="http://www.w3.org/2000/svg" width="24" height="24" viewBox="0 0 24 24">
  <defs/>
  <path fill="#2D264B" d="M12,9.75 C10.205,9.75 8.75,11.205 8.75,13 C8.75,14.795 10.205,16.25 12,16.25 C13.795,16.25 15.25,14.795 15.25,13 C15.25,11.205 13.795,9.75 12,9.75 Z"/>
  <path fill="#2D264B" d="M15.65,2.241 L15.866,2.433 C16.458,2.959 17.223,3.25 18.015,3.25 C20.63,3.25 22.75,5.37 22.75,7.985 L22.75,13.045 C22.75,14.882 22.75,16.322 22.626,17.464 C22.5,18.629 22.238,19.574 21.652,20.38 C21.297,20.868 20.868,21.297 20.38,21.652 C19.573,22.238 18.629,22.5 17.463,22.626 C16.321,22.75 14.882,22.75 13.045,22.75 L10.955,22.75 C9.118,22.75 7.679,22.75 6.536,22.626 C5.371,22.5 4.427,22.238 3.62,21.652 C3.132,21.297 2.703,20.868 2.348,20.38 C1.762,19.574 1.5,18.629 1.374,17.464 C1.25,16.322 1.25,14.882 1.25,13.045 L1.25,7.985 C1.25,5.37 3.37,3.25 5.985,3.25 C6.777,3.25 7.542,2.959 8.134,2.433 L8.35,2.241 C10.432,0.391 13.568,0.391 15.65,2.241 Z M7.25,13 C7.25,15.624 9.377,17.75 12,17.75 C14.623,17.75 16.75,15.624 16.75,13 C16.75,10.377 14.623,8.25 12,8.25 C9.377,8.25 7.25,10.377 7.25,13 Z M18,9 C18.552,9 19,8.553 19,8 C19,7.448 18.552,7 18,7 C17.448,7 17,7.448 17,8 C17,8.553 17.448,9 18,9 Z"/>
</svg>

