<svg width="24" height="24" viewBox="0 0 24 24" fill="none" xmlns="http://www.w3.org/2000/svg">
<path d="M12 9.25C10.2051 9.25 8.75 10.7051 8.75 12.5C8.75 14.2949 10.2051 15.75 12 15.75C13.7949 15.75 15.25 14.2949 15.25 12.5C15.25 10.7051 13.7949 9.25 12 9.25Z" fill="#2D264B"/>
<path fill-rule="evenodd" clip-rule="evenodd" d="M9.25 0.25C7.86929 0.25 6.75 1.36929 6.75 2.75V2.92857C6.75 3.38223 6.38223 3.75 5.92857 3.75C3.34467 3.75 1.25 5.84467 1.25 8.42857V13.0394C1.24999 14.6427 1.24999 15.8997 1.34547 16.9039C1.44279 17.9274 1.64457 18.7655 2.09732 19.5044C2.57144 20.2781 3.22194 20.9286 3.99563 21.4027C4.73445 21.8554 5.57256 22.0572 6.59611 22.1545C7.60028 22.25 8.85722 22.25 10.4606 22.25H13.5394C15.1427 22.25 16.3997 22.25 17.4039 22.1545C18.4274 22.0572 19.2655 21.8554 20.0044 21.4027C20.7781 20.9286 21.4286 20.2781 21.9027 19.5044C22.3554 18.7655 22.5572 17.9274 22.6545 16.9039C22.75 15.8997 22.75 14.6428 22.75 13.0394V8.42857C22.75 5.84467 20.6553 3.75 18.0714 3.75C17.6178 3.75 17.25 3.38223 17.25 2.92857V2.75C17.25 1.36929 16.1307 0.25 14.75 0.25H9.25ZM7.25 12.5C7.25 9.87665 9.37665 7.75 12 7.75C14.6234 7.75 16.75 9.87665 16.75 12.5C16.75 15.1234 14.6234 17.25 12 17.25C9.37665 17.25 7.25 15.1234 7.25 12.5ZM18 9.5C17.4477 9.5 17 9.05228 17 8.5C17 7.94772 17.4477 7.5 18 7.5C18.5523 7.5 19 7.94772 19 8.5C19 9.05228 18.5523 9.5 18 9.5Z" fill="#2D264B"/>
</svg>
