<svg xmlns="http://www.w3.org/2000/svg" width="24" height="24" viewBox="0 0 24 24">
  <defs/>
  <path fill="#2D264B" d="M15.65,2.241 L15.866,2.433 C16.458,2.959 17.223,3.25 18.015,3.25 C18.561,3.25 19.086,3.343 19.574,3.513 L21.47,1.617 C21.763,1.324 22.237,1.324 22.53,1.617 C22.823,1.91 22.823,2.384 22.53,2.677 L2.53,22.677 C2.237,22.97 1.763,22.97 1.47,22.677 C1.177,22.384 1.177,21.91 1.47,21.617 L2.503,20.583 C2.45,20.517 2.398,20.449 2.348,20.38 C1.762,19.574 1.5,18.629 1.374,17.464 C1.25,16.322 1.25,14.882 1.25,13.045 L1.25,7.985 C1.25,5.37 3.37,3.25 5.985,3.25 C6.777,3.25 7.542,2.959 8.134,2.433 L8.35,2.241 C10.432,0.391 13.568,0.391 15.65,2.241 Z M14.263,8.823 C13.59,8.458 12.819,8.25 12,8.25 C9.377,8.25 7.25,10.377 7.25,13 C7.25,13.82 7.457,14.591 7.823,15.264 L8.953,14.133 C8.822,13.781 8.75,13.399 8.75,13 C8.75,11.205 10.205,9.75 12,9.75 C12.399,9.75 12.78,9.822 13.133,9.953 Z"/>
  <path fill="#2D264B" d="M6.536,22.627 C5.939,22.562 5.4,22.461 4.908,22.3 L9.931,17.277 C10.556,17.58 11.258,17.75 12,17.75 C14.623,17.75 16.75,15.624 16.75,13 C16.75,12.258 16.58,11.556 16.277,10.931 L18.235,8.972 C18.599,8.885 18.885,8.599 18.972,8.235 L21.912,5.295 C22.441,6.059 22.75,6.986 22.75,7.985 L22.75,13.046 C22.75,14.882 22.75,16.322 22.626,17.464 C22.5,18.629 22.238,19.574 21.652,20.38 C21.297,20.868 20.868,21.297 20.38,21.652 C19.573,22.238 18.629,22.5 17.463,22.627 C16.321,22.75 14.882,22.75 13.045,22.75 L10.955,22.75 C9.118,22.75 7.679,22.75 6.536,22.627 Z"/>
  <path fill="#2D264B" d="M12,16.25 C11.683,16.25 11.377,16.205 11.087,16.12 L15.12,12.088 C15.205,12.377 15.25,12.683 15.25,13 C15.25,14.795 13.795,16.25 12,16.25 Z"/>
</svg>

