<svg xmlns="http://www.w3.org/2000/svg" width="24" height="24" viewBox="0 0 24 24">
  <defs/>
  <path fill="#2D264B" d="M21.25,7.985 L21.25,13 L22.75,13 L22.75,7.985 L21.25,7.985 Z M13,21.25 L11,21.25 L11,22.75 L13,22.75 L13,21.25 Z M2.75,13 L2.75,7.985 L1.25,7.985 L1.25,13 L2.75,13 Z M14.654,3.362 L14.869,3.554 L15.866,2.433 L15.65,2.241 L14.654,3.362 Z M9.131,3.554 L9.346,3.362 L8.35,2.241 L8.134,2.433 L9.131,3.554 Z M5.985,4.75 C7.145,4.75 8.264,4.325 9.131,3.554 L8.134,2.433 C7.542,2.959 6.777,3.25 5.985,3.25 L5.985,4.75 Z M14.869,3.554 C15.736,4.325 16.855,4.75 18.015,4.75 L18.015,3.25 C17.223,3.25 16.458,2.959 15.866,2.433 L14.869,3.554 Z M15.65,2.241 C13.569,0.391 10.431,0.391 8.35,2.241 L9.346,3.362 C10.86,2.017 13.14,2.017 14.654,3.362 L15.65,2.241 Z M11,21.25 C9.108,21.25 7.75,21.249 6.698,21.135 C5.66,21.023 5.01,20.808 4.502,20.439 L3.62,21.652 C4.427,22.238 5.371,22.5 6.536,22.627 C7.688,22.751 9.142,22.75 11,22.75 L11,21.25 Z M1.25,13 C1.25,14.858 1.249,16.312 1.374,17.464 C1.5,18.629 1.762,19.574 2.348,20.38 L3.562,19.498 C3.193,18.99 2.977,18.34 2.865,17.302 C2.751,16.25 2.75,14.892 2.75,13 L1.25,13 Z M4.502,20.439 C4.141,20.176 3.824,19.859 3.562,19.498 L2.348,20.38 C2.703,20.868 3.132,21.297 3.62,21.652 L4.502,20.439 Z M21.25,13 C21.25,14.892 21.249,16.25 21.135,17.302 C21.023,18.34 20.807,18.99 20.438,19.498 L21.652,20.38 C22.238,19.574 22.5,18.629 22.626,17.464 C22.751,16.312 22.75,14.858 22.75,13 L21.25,13 Z M13,22.75 C14.858,22.75 16.312,22.751 17.463,22.627 C18.629,22.5 19.573,22.238 20.38,21.652 L19.498,20.439 C18.99,20.808 18.34,21.023 17.302,21.135 C16.25,21.249 14.892,21.25 13,21.25 L13,22.75 Z M20.438,19.498 C20.176,19.859 19.859,20.176 19.498,20.439 L20.38,21.652 C20.868,21.297 21.297,20.868 21.652,20.38 L20.438,19.498 Z M22.75,7.985 C22.75,5.37 20.63,3.25 18.015,3.25 L18.015,4.75 C19.802,4.75 21.25,6.199 21.25,7.985 L22.75,7.985 Z M2.75,7.985 C2.75,6.199 4.198,4.75 5.985,4.75 L5.985,3.25 C3.37,3.25 1.25,5.37 1.25,7.985 L2.75,7.985 Z M7.25,13 C7.25,15.623 9.377,17.75 12,17.75 L12,16.25 C10.205,16.25 8.75,14.795 8.75,13 L7.25,13 Z M12,17.75 C14.623,17.75 16.75,15.623 16.75,13 L15.25,13 C15.25,14.795 13.795,16.25 12,16.25 L12,17.75 Z M16.75,13 C16.75,10.377 14.623,8.25 12,8.25 L12,9.75 C13.795,9.75 15.25,11.205 15.25,13 L16.75,13 Z M12,8.25 C9.377,8.25 7.25,10.377 7.25,13 L8.75,13 C8.75,11.205 10.205,9.75 12,9.75 L12,8.25 Z"/>
  <path fill="#2D264B" d="M17,8 C17,8.552 17.448,9 18,9 C18.552,9 19,8.552 19,8 C19,7.448 18.552,7 18,7 C17.448,7 17,7.448 17,8 Z"/>
</svg>

