<svg xmlns="http://www.w3.org/2000/svg" width="24" height="24" viewBox="0 0 24 24">
  <defs/>
  <path fill="#2D264B" d="M21.25,8.429 L21.25,13 L22.75,13 L22.75,8.429 L21.25,8.429 Z M13.5,20.75 L10.5,20.75 L10.5,22.25 L13.5,22.25 L13.5,20.75 Z M2.75,13 L2.75,8.429 L1.25,8.429 L1.25,13 L2.75,13 Z M15.75,2.75 L15.75,2.929 L17.25,2.929 L17.25,2.75 L15.75,2.75 Z M8.25,2.929 L8.25,2.75 L6.75,2.75 L6.75,2.929 L8.25,2.929 Z M8.25,2.75 C8.25,2.198 8.698,1.75 9.25,1.75 L9.25,0.25 C7.869,0.25 6.75,1.369 6.75,2.75 L8.25,2.75 Z M14.75,1.75 C15.302,1.75 15.75,2.198 15.75,2.75 L17.25,2.75 C17.25,1.369 16.131,0.25 14.75,0.25 L14.75,1.75 Z M5.929,5.25 C7.211,5.25 8.25,4.211 8.25,2.929 L6.75,2.929 C6.75,3.382 6.382,3.75 5.929,3.75 L5.929,5.25 Z M10.5,20.75 C8.849,20.75 7.663,20.749 6.738,20.661 C5.824,20.574 5.243,20.408 4.779,20.124 L3.996,21.403 C4.734,21.855 5.573,22.057 6.596,22.154 C7.609,22.251 8.878,22.25 10.5,22.25 L10.5,20.75 Z M1.25,13 C1.25,14.622 1.249,15.892 1.345,16.904 C1.443,17.927 1.645,18.765 2.097,19.504 L3.376,18.721 C3.092,18.257 2.926,17.676 2.839,16.762 C2.751,15.837 2.75,14.651 2.75,13 L1.25,13 Z M4.779,20.124 C4.208,19.773 3.727,19.293 3.376,18.721 L2.097,19.504 C2.571,20.278 3.222,20.929 3.996,21.403 L4.779,20.124 Z M21.25,13 C21.25,14.651 21.249,15.837 21.161,16.762 C21.074,17.676 20.908,18.257 20.624,18.721 L21.903,19.504 C22.355,18.765 22.557,17.927 22.654,16.904 C22.751,15.892 22.75,14.622 22.75,13 L21.25,13 Z M13.5,22.25 C15.122,22.25 16.392,22.251 17.404,22.154 C18.427,22.057 19.265,21.855 20.004,21.403 L19.221,20.124 C18.757,20.408 18.176,20.574 17.262,20.661 C16.337,20.749 15.151,20.75 13.5,20.75 L13.5,22.25 Z M20.624,18.721 C20.273,19.293 19.793,19.773 19.221,20.124 L20.004,21.403 C20.778,20.929 21.429,20.278 21.903,19.504 L20.624,18.721 Z M22.75,8.429 C22.75,5.845 20.655,3.75 18.071,3.75 L18.071,5.25 C19.827,5.25 21.25,6.673 21.25,8.429 L22.75,8.429 Z M18.071,3.75 C17.618,3.75 17.25,3.382 17.25,2.929 L15.75,2.929 C15.75,4.211 16.789,5.25 18.071,5.25 L18.071,3.75 Z M2.75,8.429 C2.75,6.673 4.173,5.25 5.929,5.25 L5.929,3.75 C3.345,3.75 1.25,5.845 1.25,8.429 L2.75,8.429 Z M7.25,12.5 C7.25,15.123 9.377,17.25 12,17.25 L12,15.75 C10.205,15.75 8.75,14.295 8.75,12.5 L7.25,12.5 Z M12,17.25 C14.623,17.25 16.75,15.123 16.75,12.5 L15.25,12.5 C15.25,14.295 13.795,15.75 12,15.75 L12,17.25 Z M16.75,12.5 C16.75,9.877 14.623,7.75 12,7.75 L12,9.25 C13.795,9.25 15.25,10.705 15.25,12.5 L16.75,12.5 Z M12,7.75 C9.377,7.75 7.25,9.877 7.25,12.5 L8.75,12.5 C8.75,10.705 10.205,9.25 12,9.25 L12,7.75 Z M9.25,1.75 L14.75,1.75 L14.75,0.25 L9.25,0.25 L9.25,1.75 Z"/>
  <path fill="#2D264B" d="M17,8.5 C17,9.052 17.448,9.5 18,9.5 C18.552,9.5 19,9.052 19,8.5 C19,7.948 18.552,7.5 18,7.5 C17.448,7.5 17,7.948 17,8.5 Z"/>
</svg>

