<svg xmlns="http://www.w3.org/2000/svg" width="24" height="24" viewBox="0 0 24 24">
  <defs/>
  <path fill="#2D264B" d="M1.47,22.22 L21.47,2.22 Q21.689,2 22,2 Q22.311,2 22.53,2.22 Q22.75,2.439 22.75,2.75 Q22.75,3.061 22.53,3.28 L2.53,23.28 Q2.311,23.5 2,23.5 Q1.689,23.5 1.47,23.28 Q1.25,23.061 1.25,22.75 Q1.25,22.439 1.47,22.22 Z"/>
  <path fill="#2D264B" d="M8.25,3.5 C8.25,2.948 8.698,2.5 9.25,2.5 L14.75,2.5 C15.302,2.5 15.75,2.948 15.75,3.5 L15.75,3.679 C15.75,4.961 16.789,6 18.071,6 C18.35,6 18.62,6.036 18.878,6.103 C19.201,6.188 19.556,6.133 19.791,5.898 C20.156,5.534 20.081,4.921 19.593,4.753 C19.116,4.589 18.604,4.5 18.071,4.5 C17.618,4.5 17.25,4.132 17.25,3.679 L17.25,3.5 C17.25,2.119 16.131,1 14.75,1 L9.25,1 C7.869,1 6.75,2.119 6.75,3.5 L6.75,3.679 C6.75,4.132 6.382,4.5 5.929,4.5 C3.345,4.5 1.25,6.595 1.25,9.179 L1.25,13.789 C1.25,15.393 1.25,16.65 1.345,17.654 C1.443,18.677 1.645,19.515 2.097,20.254 C2.408,20.761 2.793,21.214 3.24,21.6 C3.505,21.829 3.898,21.791 4.146,21.543 L4.783,20.906 C4.793,20.897 4.791,20.881 4.779,20.874 C4.208,20.523 3.727,20.043 3.376,19.471 C3.092,19.007 2.926,18.426 2.839,17.512 C2.751,16.587 2.75,15.401 2.75,13.75 L2.75,9.179 C2.75,7.423 4.173,6 5.929,6 C7.211,6 8.25,4.961 8.25,3.679 L8.25,3.5 Z"/>
  <path fill="#2D264B" d="M6.738,21.411 C6.545,21.393 6.353,21.458 6.216,21.595 L6.148,21.663 C5.704,22.106 5.91,22.836 6.535,22.899 C6.555,22.901 6.576,22.903 6.596,22.904 C7.6,23 8.857,23 10.461,23 L13.539,23 C15.143,23 16.4,23 17.404,22.904 C18.427,22.807 19.265,22.605 20.004,22.153 C20.778,21.679 21.429,21.028 21.903,20.254 C22.355,19.515 22.557,18.677 22.654,17.654 C22.75,16.65 22.75,15.393 22.75,13.789 L22.75,9.179 C22.75,8.328 22.523,7.53 22.126,6.843 C21.902,6.455 21.376,6.434 21.059,6.751 C20.787,7.024 20.77,7.454 20.937,7.802 C21.138,8.218 21.25,8.685 21.25,9.179 L21.25,13.75 C21.25,15.401 21.249,16.587 21.161,17.512 C21.074,18.426 20.908,19.007 20.624,19.471 C20.273,20.043 19.793,20.523 19.221,20.874 C18.757,21.158 18.176,21.324 17.262,21.411 C16.337,21.499 15.151,21.5 13.5,21.5 L10.5,21.5 C8.849,21.5 7.663,21.499 6.738,21.411 Z"/>
  <path fill="#2D264B" d="M15.504,12.307 C15.925,11.886 16.632,12.036 16.709,12.626 C16.736,12.83 16.75,13.038 16.75,13.25 C16.75,15.873 14.623,18 12,18 C11.788,18 11.58,17.986 11.376,17.959 C10.786,17.882 10.636,17.175 11.057,16.754 C11.253,16.557 11.535,16.479 11.813,16.495 C11.875,16.498 11.937,16.5 12,16.5 C13.795,16.5 15.25,15.045 15.25,13.25 C15.25,13.187 15.248,13.125 15.245,13.063 C15.229,12.785 15.307,12.503 15.504,12.307 Z"/>
  <path fill="#2D264B" d="M15.082,10.607 C15.357,10.332 15.375,9.885 15.079,9.633 C14.25,8.926 13.175,8.5 12,8.5 C9.377,8.5 7.25,10.627 7.25,13.25 C7.25,14.425 7.676,15.5 8.383,16.329 C8.635,16.625 9.082,16.607 9.357,16.332 C9.666,16.024 9.633,15.519 9.376,15.168 C8.982,14.63 8.75,13.967 8.75,13.25 C8.75,11.455 10.205,10 12,10 C12.717,10 13.38,10.232 13.918,10.626 C14.269,10.883 14.774,10.916 15.082,10.607 Z"/>
</svg>

