<svg width="24" height="24" viewBox="0 0 24 24" fill="none" xmlns="http://www.w3.org/2000/svg">
<path fill-rule="evenodd" clip-rule="evenodd" d="M9.25 1.25C7.86929 1.25 6.75 2.36929 6.75 3.75V3.92857C6.75 4.38223 6.38223 4.75 5.92857 4.75C3.34467 4.75 1.25 6.84467 1.25 9.42857V14.0394C1.24999 15.6427 1.24999 16.8997 1.34547 17.9039C1.44279 18.9274 1.64457 19.7655 2.09732 20.5044C2.23372 20.727 2.38473 20.9394 2.54906 21.1403L1.46967 22.2197C1.17678 22.5126 1.17678 22.9874 1.46967 23.2803C1.76256 23.5732 2.23744 23.5732 2.53033 23.2803L22.5303 3.28033C22.8232 2.98744 22.8232 2.51256 22.5303 2.21967C22.2374 1.92678 21.7626 1.92678 21.4697 2.21967L18.8712 4.8181C18.6113 4.77333 18.3441 4.75 18.0714 4.75C17.6178 4.75 17.25 4.38223 17.25 3.92857V3.75C17.25 2.36929 16.1307 1.25 14.75 1.25H9.25ZM14.3297 9.35961C13.6414 8.97146 12.8466 8.75 12 8.75C9.37665 8.75 7.25 10.8766 7.25 13.5C7.25 14.3466 7.47146 15.1414 7.85961 15.8297L8.98175 14.7076C8.83224 14.3343 8.75 13.9267 8.75 13.5C8.75 11.7051 10.2051 10.25 12 10.25C12.4267 10.25 12.8343 10.3322 13.2076 10.4817L14.3297 9.35961Z" fill="#2D264B"/>
<path d="M6.59611 23.1545C5.99443 23.0973 5.45683 23.004 4.96581 22.8449L10.0007 17.81C10.6084 18.0924 11.2858 18.25 12 18.25C14.6234 18.25 16.75 16.1234 16.75 13.5C16.75 12.7858 16.5924 12.1084 16.31 11.5007L17.4654 10.3453C17.62 10.4433 17.8034 10.5 18 10.5C18.5523 10.5 19 10.0523 19 9.5C19 9.30339 18.9433 9.12003 18.8453 8.9654L21.5314 6.27928C22.2884 7.11053 22.75 8.21565 22.75 9.42857V14.0394C22.75 15.6428 22.75 16.8997 22.6545 17.9039C22.5572 18.9274 22.3554 19.7655 21.9027 20.5044C21.4286 21.2781 20.7781 21.9286 20.0044 22.4027C19.2655 22.8554 18.4274 23.0572 17.4039 23.1545C16.3997 23.25 15.1427 23.25 13.5394 23.25H10.4606C8.85722 23.25 7.60028 23.25 6.59611 23.1545Z" fill="#2D264B"/>
<path d="M12 16.75C11.7125 16.75 11.4336 16.7127 11.1681 16.6426L15.1426 12.6681C15.2127 12.9336 15.25 13.2125 15.25 13.5C15.25 15.2949 13.7949 16.75 12 16.75Z" fill="#2D264B"/>
</svg>
