<svg xmlns="http://www.w3.org/2000/svg" width="24" height="24" viewBox="0 0 24 24">
  <defs/>
  <path fill="#2D264B" d="M12,9.25 C10.205,9.25 8.75,10.705 8.75,12.5 C8.75,14.295 10.205,15.75 12,15.75 C13.795,15.75 15.25,14.295 15.25,12.5 C15.25,10.705 13.795,9.25 12,9.25 Z"/>
  <path fill="#2D264B" d="M9.25,0.25 L14.75,0.25 C16.131,0.25 17.25,1.369 17.25,2.75 L17.25,2.929 C17.25,3.382 17.618,3.75 18.071,3.75 C20.655,3.75 22.75,5.845 22.75,8.429 L22.75,13.039 C22.75,14.643 22.75,15.9 22.654,16.904 C22.557,17.927 22.355,18.765 21.903,19.504 C21.429,20.278 20.778,20.929 20.004,21.403 C19.265,21.855 18.427,22.057 17.404,22.154 C16.4,22.25 15.143,22.25 13.539,22.25 L10.461,22.25 C8.857,22.25 7.6,22.25 6.596,22.154 C5.573,22.057 4.734,21.855 3.996,21.403 C3.222,20.929 2.571,20.278 2.097,19.504 C1.645,18.765 1.443,17.927 1.345,16.904 C1.25,15.9 1.25,14.643 1.25,13.039 L1.25,8.429 C1.25,5.845 3.345,3.75 5.929,3.75 C6.382,3.75 6.75,3.382 6.75,2.929 L6.75,2.75 C6.75,1.369 7.869,0.25 9.25,0.25 Z M7.25,12.5 C7.25,15.123 9.377,17.25 12,17.25 C14.623,17.25 16.75,15.123 16.75,12.5 C16.75,9.877 14.623,7.75 12,7.75 C9.377,7.75 7.25,9.877 7.25,12.5 Z M18,9.5 C18.552,9.5 19,9.052 19,8.5 C19,7.948 18.552,7.5 18,7.5 C17.448,7.5 17,7.948 17,8.5 C17,9.052 17.448,9.5 18,9.5 Z"/>
</svg>

