<svg xmlns="http://www.w3.org/2000/svg" width="24" height="24" viewBox="0 0 24 24">
  <defs/>
  <path fill="#2D264B" d="M1.47,21.616 L21.47,1.616 Q21.689,1.396 22,1.396 Q22.311,1.396 22.53,1.616 Q22.75,1.836 22.75,2.146 Q22.75,2.457 22.53,2.677 L2.53,22.677 Q2.311,22.896 2,22.896 Q1.689,22.896 1.47,22.677 Q1.25,22.457 1.25,22.146 Q1.25,21.836 1.47,21.616 Z"/>
  <path fill="#2D264B" d="M15.65,2.388 C13.569,0.537 10.431,0.537 8.35,2.388 L8.134,2.58 C7.542,3.106 6.777,3.397 5.985,3.397 C3.37,3.397 1.25,5.517 1.25,8.132 L1.25,13.192 C1.25,15.028 1.25,16.468 1.374,17.61 C1.5,18.776 1.762,19.72 2.348,20.526 C2.646,20.936 2.996,21.305 3.39,21.622 C3.414,21.641 3.448,21.638 3.47,21.616 L3.558,21.528 C4.053,21.033 3.974,20.212 3.562,19.645 C3.193,19.137 2.977,18.486 2.865,17.449 C2.751,16.397 2.75,15.038 2.75,13.147 L2.75,8.132 C2.75,6.345 4.198,4.897 5.985,4.897 C7.145,4.897 8.264,4.471 9.131,3.701 L9.346,3.509 C10.86,2.164 13.14,2.164 14.654,3.509 L14.869,3.701 C15.736,4.471 16.855,4.897 18.015,4.897 C18.418,4.897 18.803,4.97 19.159,5.105 C19.496,5.232 19.89,5.196 20.145,4.941 C20.484,4.602 20.439,4.035 20.005,3.834 C19.4,3.553 18.726,3.397 18.015,3.397 C17.223,3.397 16.458,3.106 15.866,2.58 L15.65,2.388 Z"/>
  <path fill="#2D264B" d="M22.313,6.142 C22.111,5.707 21.545,5.663 21.206,6.001 C20.951,6.256 20.915,6.651 21.042,6.988 C21.176,7.344 21.25,7.729 21.25,8.132 L21.25,13.147 C21.25,15.038 21.249,16.397 21.135,17.449 C21.023,18.486 20.807,19.137 20.438,19.645 C20.176,20.006 19.859,20.323 19.498,20.585 C18.99,20.954 18.34,21.169 17.302,21.282 C16.25,21.396 14.892,21.397 13,21.397 L11,21.397 C9.108,21.397 7.75,21.396 6.698,21.282 C6.613,21.273 6.53,21.262 6.45,21.252 C6.182,21.216 5.909,21.298 5.718,21.49 C5.292,21.916 5.465,22.621 6.061,22.712 C6.215,22.735 6.374,22.755 6.536,22.773 C7.679,22.897 9.118,22.897 10.955,22.897 L13.045,22.897 C14.882,22.897 16.321,22.897 17.463,22.773 C18.629,22.647 19.573,22.384 20.38,21.799 C20.868,21.444 21.297,21.015 21.652,20.526 C22.238,19.72 22.5,18.776 22.626,17.61 C22.75,16.468 22.75,15.028 22.75,13.192 L22.75,8.132 C22.75,7.421 22.593,6.747 22.313,6.142 Z"/>
  <path fill="#2D264B" d="M10.621,16.587 C10.231,16.976 10.339,17.633 10.875,17.763 C11.236,17.85 11.612,17.897 12,17.897 C14.623,17.897 16.75,15.77 16.75,13.147 C16.75,12.759 16.704,12.382 16.616,12.021 C16.486,11.486 15.829,11.378 15.44,11.768 C15.222,11.985 15.155,12.305 15.206,12.608 C15.235,12.784 15.25,12.963 15.25,13.147 C15.25,14.942 13.795,16.397 12,16.397 C11.817,16.397 11.637,16.381 11.462,16.352 C11.159,16.302 10.838,16.369 10.621,16.587 Z"/>
  <path fill="#2D264B" d="M14.792,10.294 C14.501,10.585 14.034,10.579 13.682,10.365 C13.191,10.068 12.616,9.897 12,9.897 C10.205,9.897 8.75,11.352 8.75,13.147 C8.75,13.762 8.921,14.338 9.219,14.829 C9.432,15.181 9.438,15.648 9.147,15.939 C8.852,16.234 8.367,16.235 8.125,15.894 C7.574,15.118 7.25,14.17 7.25,13.147 C7.25,10.523 9.377,8.397 12,8.397 C13.024,8.397 13.972,8.721 14.748,9.271 C15.088,9.513 15.087,9.999 14.792,10.294 Z"/>
</svg>

