<svg width="24" height="24" viewBox="0 0 24 24" fill="none" xmlns="http://www.w3.org/2000/svg">
<path fill-rule="evenodd" clip-rule="evenodd" d="M15.6501 2.2413C13.5685 0.390922 10.4315 0.390922 8.34986 2.2413L8.1341 2.43308C7.54195 2.95944 6.77721 3.25019 5.98493 3.25019C3.3699 3.25019 1.25 5.37009 1.25 7.98513V13.0454C1.24999 14.882 1.24999 16.3216 1.37373 17.4637C1.50001 18.6293 1.76232 19.5736 2.34815 20.38C2.39828 20.4489 2.44989 20.5168 2.50295 20.5834L1.46967 21.6166C1.17678 21.9095 1.17678 22.3844 1.46967 22.6773C1.76256 22.9702 2.23744 22.9702 2.53033 22.6773L22.5303 2.6773C22.8232 2.38441 22.8232 1.90954 22.5303 1.61664C22.2374 1.32375 21.7626 1.32375 21.4697 1.61664L19.5736 3.51269C19.0856 3.34262 18.5611 3.25019 18.0151 3.25019C17.2228 3.25019 16.4581 2.95944 15.8659 2.43308L15.6501 2.2413ZM14.2633 8.82303C13.5904 8.4577 12.8195 8.2502 12 8.2502C9.37665 8.2502 7.25 10.3768 7.25 13.0002C7.25 13.8196 7.4575 14.5906 7.82284 15.2635L8.95299 14.1333C8.82173 13.7805 8.75 13.3987 8.75 13.0002C8.75 11.2053 10.2051 9.7502 12 9.7502C12.3985 9.7502 12.7803 9.82193 13.1331 9.95319L14.2633 8.82303Z" fill="#2D264B"/>
<path d="M6.53648 22.6265C5.9392 22.5618 5.40001 22.4613 4.9077 22.2999L9.93067 17.277C10.5562 17.5802 11.2582 17.7502 12 17.7502C14.6234 17.7502 16.75 15.6236 16.75 13.0002C16.75 12.2584 16.58 11.5564 16.2768 10.9309L18.2352 8.97243C18.5986 8.88483 18.8846 8.59881 18.9722 8.23545L21.9123 5.29531C22.4406 6.05924 22.75 6.98605 22.75 7.98512V13.0455C22.75 14.882 22.75 16.3216 22.6263 17.4637C22.5 18.6293 22.2377 19.5736 21.6518 20.38C21.2972 20.8681 20.8679 21.2974 20.3798 21.652C19.5734 22.2379 18.6291 22.5002 17.4635 22.6265C16.3214 22.7502 14.8818 22.7502 13.0453 22.7502H10.9547C9.11817 22.7502 7.67859 22.7502 6.53648 22.6265Z" fill="#2D264B"/>
<path d="M12 16.2502C11.6831 16.2502 11.3769 16.2049 11.0873 16.1203L15.1201 12.0875C15.2047 12.3771 15.25 12.6833 15.25 13.0002C15.25 14.7951 13.7949 16.2502 12 16.2502Z" fill="#2D264B"/>
</svg>
