<svg width="24" height="24" viewBox="0 0 24 24" fill="none" xmlns="http://www.w3.org/2000/svg">
<path d="M12 9.7502C10.2051 9.7502 8.75 11.2053 8.75 13.0002C8.75 14.7951 10.2051 16.2502 12 16.2502C13.7949 16.2502 15.25 14.7951 15.25 13.0002C15.25 11.2053 13.7949 9.7502 12 9.7502Z" fill="#2D264B"/>
<path fill-rule="evenodd" clip-rule="evenodd" d="M15.6501 2.2413C13.5685 0.390922 10.4315 0.390922 8.34986 2.2413L8.1341 2.43308C7.54195 2.95944 6.77721 3.25019 5.98493 3.25019C3.3699 3.25019 1.25 5.37009 1.25 7.98513V13.0454C1.24999 14.882 1.24999 16.3216 1.37373 17.4637C1.50001 18.6293 1.76232 19.5736 2.34815 20.38C2.70281 20.8681 3.13209 21.2974 3.62024 21.652C4.42656 22.2379 5.37094 22.5002 6.53648 22.6265C7.67859 22.7502 9.11817 22.7502 10.9547 22.7502H13.0453C14.8818 22.7502 16.3214 22.7502 17.4635 22.6265C18.6291 22.5002 19.5734 22.2379 20.3798 21.652C20.8679 21.2974 21.2972 20.8681 21.6518 20.38C22.2377 19.5736 22.5 18.6293 22.6263 17.4637C22.75 16.3216 22.75 14.882 22.75 13.0455V7.98512C22.75 5.37009 20.6301 3.25019 18.0151 3.25019C17.2228 3.25019 16.4581 2.95944 15.8659 2.43308L15.6501 2.2413ZM7.25 13.0002C7.25 10.3768 9.37665 8.2502 12 8.2502C14.6234 8.2502 16.75 10.3768 16.75 13.0002C16.75 15.6236 14.6234 17.7502 12 17.7502C9.37665 17.7502 7.25 15.6236 7.25 13.0002ZM18 9.00024C17.4477 9.00024 17 8.55253 17 8.00024C17 7.44796 17.4477 7.00024 18 7.00024C18.5523 7.00024 19 7.44796 19 8.00024C19 8.55253 18.5523 9.00024 18 9.00024Z" fill="#2D264B"/>
</svg>
