<svg xmlns="http://www.w3.org/2000/svg" width="24" height="24" viewBox="0 0 24 24">
  <defs/>
  <path fill="#2D264B" d="M1.877,6.39 Q2.725,4.725 4.39,3.877 Q5.62,3.25 10,3.25 L14,3.25 Q18.38,3.25 19.61,3.877 Q21.275,4.725 22.123,6.39 Q22.69,7.502 22.739,9.977 Q22.739,9.983 22.739,9.99 Q22.75,10.574 22.75,12 Q22.75,16.38 22.123,17.61 Q21.275,19.275 19.61,20.123 Q18.38,20.75 14,20.75 L10,20.75 Q5.62,20.75 4.39,20.123 Q2.725,19.275 1.877,17.61 Q1.25,16.38 1.25,12 Q1.25,10.575 1.261,9.99 Q1.261,9.983 1.261,9.977 Q1.31,7.502 1.877,6.39 Z M2.753,10.75 Q2.75,11.259 2.75,12 Q2.75,16.02 3.213,16.93 Q3.84,18.16 5.071,18.787 Q5.98,19.25 10,19.25 L14,19.25 Q18.02,19.25 18.93,18.787 Q20.16,18.16 20.787,16.93 Q21.25,16.02 21.25,12 Q21.25,11.259 21.247,10.75 L2.753,10.75 Z M21.21,9.25 Q21.12,7.724 20.787,7.071 Q20.16,5.84 18.93,5.213 Q18.02,4.75 14,4.75 L10,4.75 Q5.98,4.75 5.071,5.213 Q3.84,5.84 3.213,7.071 Q2.88,7.724 2.79,9.25 L21.21,9.25 Z M15,17.75 L11,17.75 Q10.689,17.75 10.47,17.53 Q10.25,17.311 10.25,17 Q10.25,16.689 10.47,16.47 Q10.689,16.25 11,16.25 L15,16.25 Q15.311,16.25 15.53,16.47 Q15.75,16.689 15.75,17 Q15.75,17.311 15.53,17.53 Q15.311,17.75 15,17.75 Z M8,17.75 L6,17.75 Q5.689,17.75 5.47,17.53 Q5.25,17.311 5.25,17 Q5.25,16.689 5.47,16.47 Q5.689,16.25 6,16.25 L8,16.25 Q8.311,16.25 8.53,16.47 Q8.75,16.689 8.75,17 Q8.75,17.311 8.53,17.53 Q8.311,17.75 8,17.75 Z"/>
</svg>

