<svg width="24" height="24" viewBox="0 0 24 24" fill="none" xmlns="http://www.w3.org/2000/svg">
<path d="M13.0336 3.25C14.4053 3.25 15.4807 3.24999 16.3451 3.32061C17.2252 3.39252 17.9523 3.54138 18.6104 3.87671C19.6924 4.42798 20.572 5.30762 21.1233 6.38955C21.5254 7.17877 21.6643 8.08233 21.7165 9.25H2.28354C2.33571 8.08233 2.47459 7.17877 2.87671 6.38955C3.42798 5.30762 4.30762 4.42798 5.38955 3.87671C6.04769 3.54138 6.77479 3.39252 7.65494 3.32061C8.51929 3.24999 9.59472 3.25 10.9664 3.25H13.0336Z" fill="#2D264B"/>
<path fill-rule="evenodd" clip-rule="evenodd" d="M2.25227 10.75C2.25 11.1341 2.25 11.548 2.25 11.9942V12.0336C2.25 13.4053 2.24999 14.4807 2.32061 15.3451C2.39252 16.2252 2.54138 16.9523 2.87671 17.6104C3.42798 18.6924 4.30762 19.572 5.38955 20.1233C6.04769 20.4586 6.77479 20.6075 7.65494 20.6794C8.51924 20.75 9.59461 20.75 10.9662 20.75H13.0336C14.4052 20.75 15.4808 20.75 16.3451 20.6794C17.2252 20.6075 17.9523 20.4586 18.6104 20.1233C19.6924 19.572 20.572 18.6924 21.1233 17.6104C21.4586 16.9523 21.6075 16.2252 21.6794 15.3451C21.75 14.4808 21.75 13.4054 21.75 12.0338V11.9942C21.75 11.548 21.75 11.1341 21.7477 10.75H2.25227ZM12.25 17C12.25 16.5858 12.5858 16.25 13 16.25H17C17.4142 16.25 17.75 16.5858 17.75 17C17.75 17.4142 17.4142 17.75 17 17.75H13C12.5858 17.75 12.25 17.4142 12.25 17Z" fill="#2D264B"/>
</svg>
