<svg width="24" height="24" viewBox="0 0 24 24" fill="none" xmlns="http://www.w3.org/2000/svg">
<path d="M14.0336 3.25C15.4053 3.25 16.4807 3.24999 17.3451 3.32061C18.2252 3.39252 18.9523 3.54138 19.6104 3.87671C20.6924 4.42798 21.572 5.30762 22.1233 6.38955C22.5254 7.17877 22.6643 8.08233 22.7165 9.25H1.28354C1.33571 8.08233 1.47459 7.17877 1.87671 6.38955C2.42798 5.30762 3.30762 4.42798 4.38955 3.87671C5.04769 3.54138 5.77479 3.39252 6.65494 3.32061C7.51929 3.24999 8.59472 3.25 9.96644 3.25H14.0336Z" fill="#2D264B"/>
<path fill-rule="evenodd" clip-rule="evenodd" d="M1.25227 10.75C1.25 11.1341 1.25 11.548 1.25 11.9942V12.0336C1.25 13.4053 1.24999 14.4807 1.32061 15.3451C1.39252 16.2252 1.54138 16.9523 1.87671 17.6104C2.42798 18.6924 3.30762 19.572 4.38955 20.1233C5.04769 20.4586 5.77479 20.6075 6.65494 20.6794C7.51924 20.75 8.59461 20.75 9.96623 20.75H14.0336C15.4052 20.75 16.4808 20.75 17.3451 20.6794C18.2252 20.6075 18.9523 20.4586 19.6104 20.1233C20.6924 19.572 21.572 18.6924 22.1233 17.6104C22.4586 16.9523 22.6075 16.2252 22.6794 15.3451C22.75 14.4808 22.75 13.4054 22.75 12.0338V11.9942C22.75 11.548 22.75 11.1341 22.7477 10.75H1.25227ZM5.25 17C5.25 16.5858 5.58579 16.25 6 16.25H8C8.41421 16.25 8.75 16.5858 8.75 17C8.75 17.4142 8.41421 17.75 8 17.75H6C5.58579 17.75 5.25 17.4142 5.25 17ZM10.25 17C10.25 16.5858 10.5858 16.25 11 16.25H15C15.4142 16.25 15.75 16.5858 15.75 17C15.75 17.4142 15.4142 17.75 15 17.75H11C10.5858 17.75 10.25 17.4142 10.25 17Z" fill="#2D264B"/>
</svg>
