<svg xmlns="http://www.w3.org/2000/svg" width="24" height="24" viewBox="0 0 24 24">
  <defs/>
  <path fill="#2D264B" d="M21.739,9.99 Q21.75,10.574 21.75,12 Q21.75,16.38 21.123,17.61 Q20.275,19.275 18.61,20.123 Q17.38,20.75 13,20.75 L11,20.75 Q6.62,20.75 5.39,20.123 Q3.725,19.275 2.877,17.61 Q2.25,16.38 2.25,12 Q2.25,10.575 2.261,9.99 Q2.261,9.983 2.261,9.977 Q2.31,7.502 2.877,6.39 Q3.725,4.725 5.39,3.877 Q6.62,3.25 11,3.25 L13,3.25 Q17.38,3.25 18.61,3.877 Q20.275,4.725 21.123,6.39 Q21.69,7.502 21.739,9.977 Q21.739,9.983 21.739,9.99 Z M20.247,10.75 L3.753,10.75 Q3.75,11.259 3.75,12 Q3.75,16.02 4.213,16.93 Q4.84,18.16 6.071,18.787 Q6.98,19.25 11,19.25 L13,19.25 Q17.02,19.25 17.93,18.787 Q19.16,18.16 19.787,16.93 Q20.25,16.02 20.25,12 Q20.25,11.259 20.247,10.75 Z M3.79,9.25 L20.21,9.25 Q20.12,7.724 19.787,7.071 Q19.16,5.84 17.93,5.213 Q17.02,4.75 13,4.75 L11,4.75 Q6.98,4.75 6.071,5.213 Q4.84,5.84 4.213,7.071 Q3.88,7.724 3.79,9.25 Z M17,17.75 L13,17.75 Q12.689,17.75 12.47,17.53 Q12.25,17.311 12.25,17 Q12.25,16.689 12.47,16.47 Q12.689,16.25 13,16.25 L17,16.25 Q17.311,16.25 17.53,16.47 Q17.75,16.689 17.75,17 Q17.75,17.311 17.53,17.53 Q17.311,17.75 17,17.75 Z"/>
</svg>

