<svg xmlns="http://www.w3.org/2000/svg" width="24" height="24" viewBox="0 0 24 24">
  <defs/>
  <path fill="#2D264B" d="M14.034,3.25 C15.405,3.25 16.481,3.25 17.345,3.321 C18.225,3.393 18.952,3.541 19.61,3.877 C20.692,4.428 21.572,5.308 22.123,6.39 C22.525,7.179 22.664,8.082 22.716,9.25 L1.284,9.25 C1.336,8.082 1.475,7.179 1.877,6.39 C2.428,5.308 3.308,4.428 4.39,3.877 C5.048,3.541 5.775,3.393 6.655,3.321 C7.519,3.25 8.595,3.25 9.966,3.25 L14.034,3.25 Z"/>
  <path fill="#2D264B" d="M1.252,10.75 L22.748,10.75 C22.75,11.134 22.75,11.548 22.75,11.994 L22.75,12.034 C22.75,13.405 22.75,14.481 22.679,15.345 C22.608,16.225 22.459,16.952 22.123,17.61 C21.572,18.692 20.692,19.572 19.61,20.123 C18.952,20.459 18.225,20.608 17.345,20.679 C16.481,20.75 15.405,20.75 14.034,20.75 L9.966,20.75 C8.595,20.75 7.519,20.75 6.655,20.679 C5.775,20.608 5.048,20.459 4.39,20.123 C3.308,19.572 2.428,18.692 1.877,17.61 C1.541,16.952 1.393,16.225 1.321,15.345 C1.25,14.481 1.25,13.406 1.25,12.034 L1.25,11.994 C1.25,11.548 1.25,11.134 1.252,10.75 Z M10.25,17 C10.25,17.414 10.586,17.75 11,17.75 L15,17.75 C15.414,17.75 15.75,17.414 15.75,17 C15.75,16.586 15.414,16.25 15,16.25 L11,16.25 C10.586,16.25 10.25,16.586 10.25,17 Z M5.25,17 C5.25,17.414 5.586,17.75 6,17.75 L8,17.75 C8.414,17.75 8.75,17.414 8.75,17 C8.75,16.586 8.414,16.25 8,16.25 L6,16.25 C5.586,16.25 5.25,16.586 5.25,17 Z"/>
</svg>

