<svg xmlns="http://www.w3.org/2000/svg" width="24" height="24" viewBox="0 0 24 24">
  <defs/>
  <path fill="#2D264B" d="M3.25,7 Q3.25,5.453 3.459,4.948 Q3.895,3.895 4.948,3.459 Q5.453,3.25 7,3.25 Q8.547,3.25 9.052,3.459 Q10.105,3.895 10.541,4.948 Q10.75,5.453 10.75,7 Q10.75,8.547 10.541,9.052 Q10.105,10.105 9.052,10.541 Q8.547,10.75 7,10.75 Q5.453,10.75 4.948,10.541 Q3.895,10.105 3.459,9.052 Q3.25,8.547 3.25,7 Z M4.75,7 Q4.75,8.249 4.845,8.478 Q5.043,8.957 5.522,9.155 Q5.751,9.25 7,9.25 Q8.249,9.25 8.478,9.155 Q8.957,8.957 9.155,8.478 Q9.25,8.249 9.25,7 Q9.25,5.751 9.155,5.522 Q8.957,5.043 8.478,4.845 Q8.249,4.75 7,4.75 Q5.751,4.75 5.522,4.845 Q5.043,5.043 4.845,5.522 Q4.75,5.751 4.75,7 Z"/>
  <path fill="#2D264B" d="M13.25,7 Q13.25,5.453 13.459,4.948 Q13.895,3.895 14.948,3.459 Q15.453,3.25 17,3.25 Q18.547,3.25 19.052,3.459 Q20.105,3.895 20.541,4.948 Q20.75,5.453 20.75,7 Q20.75,8.547 20.541,9.052 Q20.105,10.105 19.052,10.541 Q18.547,10.75 17,10.75 Q15.453,10.75 14.948,10.541 Q13.895,10.105 13.459,9.052 Q13.25,8.547 13.25,7 Z M14.75,7 Q14.75,8.249 14.845,8.478 Q15.043,8.957 15.522,9.155 Q15.751,9.25 17,9.25 Q18.249,9.25 18.478,9.155 Q18.957,8.957 19.155,8.478 Q19.25,8.249 19.25,7 Q19.25,5.751 19.155,5.522 Q18.957,5.043 18.478,4.845 Q18.249,4.75 17,4.75 Q15.751,4.75 15.522,4.845 Q15.043,5.043 14.845,5.522 Q14.75,5.751 14.75,7 Z"/>
  <path fill="#2D264B" d="M3.25,17 Q3.25,15.453 3.459,14.948 Q3.895,13.895 4.948,13.459 Q5.453,13.25 7,13.25 Q8.547,13.25 9.052,13.459 Q10.105,13.895 10.541,14.948 Q10.75,15.453 10.75,17 Q10.75,18.547 10.541,19.052 Q10.105,20.105 9.052,20.541 Q8.547,20.75 7,20.75 Q5.453,20.75 4.948,20.541 Q3.895,20.105 3.459,19.052 Q3.25,18.547 3.25,17 Z M4.75,17 Q4.75,18.249 4.845,18.478 Q5.043,18.957 5.522,19.155 Q5.751,19.25 7,19.25 Q8.249,19.25 8.478,19.155 Q8.957,18.957 9.155,18.478 Q9.25,18.249 9.25,17 Q9.25,15.751 9.155,15.522 Q8.957,15.043 8.478,14.845 Q8.249,14.75 7,14.75 Q5.751,14.75 5.522,14.845 Q5.043,15.043 4.845,15.522 Q4.75,15.751 4.75,17 Z"/>
  <path fill="#2D264B" d="M13.25,17 Q13.25,15.453 13.459,14.948 Q13.895,13.895 14.948,13.459 Q15.453,13.25 17,13.25 Q18.547,13.25 19.052,13.459 Q20.105,13.895 20.541,14.948 Q20.75,15.453 20.75,17 Q20.75,18.547 20.541,19.052 Q20.105,20.105 19.052,20.541 Q18.547,20.75 17,20.75 Q15.453,20.75 14.948,20.541 Q13.895,20.105 13.459,19.052 Q13.25,18.547 13.25,17 Z M14.75,17 Q14.75,18.249 14.845,18.478 Q15.043,18.957 15.522,19.155 Q15.751,19.25 17,19.25 Q18.249,19.25 18.478,19.155 Q18.957,18.957 19.155,18.478 Q19.25,18.249 19.25,17 Q19.25,15.751 19.155,15.522 Q18.957,15.043 18.478,14.845 Q18.249,14.75 17,14.75 Q15.751,14.75 15.522,14.845 Q15.043,15.043 14.845,15.522 Q14.75,15.751 14.75,17 Z"/>
</svg>

