<svg xmlns="http://www.w3.org/2000/svg" width="24" height="24" viewBox="0 0 24 24">
  <defs/>
  <path fill="#2D264B" d="M4,7 C4,6.068 4,5.602 4.152,5.235 C4.355,4.745 4.745,4.355 5.235,4.152 C5.602,4 6.068,4 7,4 C7.932,4 8.398,4 8.765,4.152 C9.255,4.355 9.645,4.745 9.848,5.235 C10,5.602 10,6.068 10,7 C10,7.932 10,8.398 9.848,8.765 C9.645,9.255 9.255,9.645 8.765,9.848 C8.398,10 7.932,10 7,10 C6.068,10 5.602,10 5.235,9.848 C4.745,9.645 4.355,9.255 4.152,8.765 C4,8.398 4,7.932 4,7 Z"/>
  <path fill="#2D264B" d="M14,7 C14,6.068 14,5.602 14.152,5.235 C14.355,4.745 14.745,4.355 15.235,4.152 C15.602,4 16.068,4 17,4 C17.932,4 18.398,4 18.765,4.152 C19.255,4.355 19.645,4.745 19.848,5.235 C20,5.602 20,6.068 20,7 C20,7.932 20,8.398 19.848,8.765 C19.645,9.255 19.255,9.645 18.765,9.848 C18.398,10 17.932,10 17,10 C16.068,10 15.602,10 15.235,9.848 C14.745,9.645 14.355,9.255 14.152,8.765 C14,8.398 14,7.932 14,7 Z"/>
  <path fill="#2D264B" d="M4,17 C4,16.068 4,15.602 4.152,15.235 C4.355,14.745 4.745,14.355 5.235,14.152 C5.602,14 6.068,14 7,14 C7.932,14 8.398,14 8.765,14.152 C9.255,14.355 9.645,14.745 9.848,15.235 C10,15.602 10,16.068 10,17 C10,17.932 10,18.398 9.848,18.765 C9.645,19.255 9.255,19.645 8.765,19.848 C8.398,20 7.932,20 7,20 C6.068,20 5.602,20 5.235,19.848 C4.745,19.645 4.355,19.255 4.152,18.765 C4,18.398 4,17.932 4,17 Z"/>
  <path fill="#2D264B" d="M14,17 C14,16.068 14,15.602 14.152,15.235 C14.355,14.745 14.745,14.355 15.235,14.152 C15.602,14 16.068,14 17,14 C17.932,14 18.398,14 18.765,14.152 C19.255,14.355 19.645,14.745 19.848,15.235 C20,15.602 20,16.068 20,17 C20,17.932 20,18.398 19.848,18.765 C19.645,19.255 19.255,19.645 18.765,19.848 C18.398,20 17.932,20 17,20 C16.068,20 15.602,20 15.235,19.848 C14.745,19.645 14.355,19.255 14.152,18.765 C14,18.398 14,17.932 14,17 Z"/>
</svg>

