<svg xmlns="http://www.w3.org/2000/svg" width="24" height="24" viewBox="0 0 24 24">
  <defs/>
  <path fill="#2D264B" d="M12,21.75 Q6.132,21.75 4.62,20.652 Q3.883,20.117 3.348,19.38 Q2.25,17.868 2.25,12 Q2.25,6.132 3.348,4.62 Q3.883,3.883 4.62,3.348 Q6.132,2.25 12,2.25 Q17.868,2.25 19.38,3.348 Q20.117,3.883 20.652,4.62 Q21.75,6.132 21.75,12 Q21.75,17.868 20.652,19.38 Q20.117,20.117 19.38,20.652 Q17.868,21.75 12,21.75 Z M12,20.25 Q17.381,20.25 18.498,19.438 Q19.043,19.043 19.438,18.498 Q20.25,17.381 20.25,12 Q20.25,6.619 19.438,5.502 Q19.043,4.957 18.498,4.562 Q17.381,3.75 12,3.75 Q6.619,3.75 5.502,4.562 Q4.957,4.957 4.562,5.502 Q3.75,6.619 3.75,12 Q3.75,17.381 4.562,18.498 Q4.957,19.043 5.502,19.438 Q6.619,20.25 12,20.25 Z M12.75,7 L12.75,17 Q12.75,17.311 12.53,17.53 Q12.311,17.75 12,17.75 Q11.689,17.75 11.47,17.53 Q11.25,17.311 11.25,17 L11.25,7 Q11.25,6.689 11.47,6.47 Q11.689,6.25 12,6.25 Q12.311,6.25 12.53,6.47 Q12.75,6.689 12.75,7 Z M16.75,11 L16.75,17 Q16.75,17.311 16.53,17.53 Q16.311,17.75 16,17.75 Q15.689,17.75 15.47,17.53 Q15.25,17.311 15.25,17 L15.25,11 Q15.25,10.689 15.47,10.47 Q15.689,10.25 16,10.25 Q16.311,10.25 16.53,10.47 Q16.75,10.689 16.75,11 Z M8.75,13 L8.75,17 Q8.75,17.311 8.53,17.53 Q8.311,17.75 8,17.75 Q7.689,17.75 7.47,17.53 Q7.25,17.311 7.25,17 L7.25,13 Q7.25,12.689 7.47,12.47 Q7.689,12.25 8,12.25 Q8.311,12.25 8.53,12.47 Q8.75,12.689 8.75,13 Z"/>
</svg>

