<svg width="24" height="24" viewBox="0 0 24 24" fill="none" xmlns="http://www.w3.org/2000/svg">
<path fill-rule="evenodd" clip-rule="evenodd" d="M3.95491 5.06107C3 6.3754 3 8.25027 3 12C3 15.7497 3 17.6246 3.95491 18.9389C4.26331 19.3634 4.6366 19.7367 5.06107 20.0451C6.3754 21 8.25027 21 12 21C15.7497 21 17.6246 21 18.9389 20.0451C19.3634 19.7367 19.7367 19.3634 20.0451 18.9389C21 17.6246 21 15.7497 21 12C21 8.25027 21 6.3754 20.0451 5.06107C19.7367 4.6366 19.3634 4.26331 18.9389 3.95491C17.6246 3 15.7497 3 12 3C8.25027 3 6.3754 3 5.06107 3.95491C4.6366 4.26331 4.26331 4.6366 3.95491 5.06107ZM10.409 9.59099C10.1161 9.2981 9.64123 9.2981 9.34833 9.59099C9.05544 9.88389 9.05544 10.3588 9.34833 10.6517L10.9393 12.2426L9.34833 13.8336C9.05544 14.1265 9.05544 14.6014 9.34833 14.8943C9.64123 15.1872 10.1161 15.1872 10.409 14.8943L12 13.3033L13.591 14.8943C13.8839 15.1872 14.3587 15.1872 14.6516 14.8943C14.9445 14.6014 14.9445 14.1265 14.6516 13.8336L13.0606 12.2426L14.6516 10.6517C14.9445 10.3588 14.9445 9.88389 14.6516 9.59099C14.3587 9.2981 13.8839 9.2981 13.591 9.59099L12 11.182L10.409 9.59099Z" fill="#2D264B"/>
</svg>
