<svg xmlns="http://www.w3.org/2000/svg" width="24" height="24" viewBox="0 0 24 24">
  <defs/>
  <path fill="#2D264B" d="M5.53,4.47 L12,10.939 L18.47,4.47 Q18.689,4.25 19,4.25 Q19.311,4.25 19.53,4.47 Q19.75,4.689 19.75,5 Q19.75,5.311 19.53,5.53 L13.061,12 L19.53,18.47 Q19.75,18.689 19.75,19 Q19.75,19.311 19.53,19.53 Q19.311,19.75 19,19.75 Q18.689,19.75 18.47,19.53 L12,13.061 L5.53,19.53 Q5.311,19.75 5,19.75 Q4.689,19.75 4.47,19.53 Q4.25,19.311 4.25,19 Q4.25,18.689 4.47,18.47 L10.939,12 L4.47,5.53 Q4.25,5.311 4.25,5 Q4.25,4.689 4.47,4.47 Q4.689,4.25 5,4.25 Q5.311,4.25 5.53,4.47 Z"/>
</svg>

