<svg width="24" height="24" viewBox="0 0 24 24" fill="none" xmlns="http://www.w3.org/2000/svg">
<path fill-rule="evenodd" clip-rule="evenodd" d="M12 22C17.5228 22 22 17.5228 22 12C22 6.47715 17.5228 2 12 2C6.47715 2 2 6.47715 2 12C2 17.5228 6.47715 22 12 22ZM14.6516 10.6516C14.9445 10.3588 14.9445 9.88388 14.6516 9.59099C14.3587 9.2981 13.8839 9.2981 13.591 9.59099L12 11.182L10.409 9.59099C10.1161 9.2981 9.64123 9.2981 9.34833 9.59099C9.05544 9.88388 9.05544 10.3588 9.34833 10.6517L10.9393 12.2426L9.34833 13.8336C9.05544 14.1265 9.05544 14.6014 9.34833 14.8943C9.64123 15.1872 10.1161 15.1872 10.409 14.8943L12 13.3033L13.591 14.8943C13.8839 15.1872 14.3587 15.1872 14.6516 14.8943C14.9445 14.6014 14.9445 14.1265 14.6516 13.8336L13.0606 12.2426L14.6516 10.6516Z" fill="#2D264B"/>
</svg>
