<svg xmlns="http://www.w3.org/2000/svg" width="24" height="24" viewBox="0 0 24 24">
  <defs/>
  <path fill="#2D264B" d="M19.53,5.53 C19.823,5.237 19.823,4.763 19.53,4.47 C19.238,4.177 18.763,4.177 18.47,4.47 L12,10.939 L5.53,4.47 C5.237,4.177 4.763,4.177 4.47,4.47 C4.177,4.763 4.177,5.237 4.47,5.53 L10.939,12 L4.47,18.47 C4.177,18.763 4.177,19.237 4.47,19.53 C4.763,19.823 5.237,19.823 5.53,19.53 L12,13.061 L18.47,19.53 C18.763,19.823 19.237,19.823 19.53,19.53 C19.823,19.237 19.823,18.763 19.53,18.47 L13.061,12 L19.53,5.53 Z"/>
</svg>

