<svg xmlns="http://www.w3.org/2000/svg" width="24" height="24" viewBox="0 0 24 24">
  <defs/>
  <path fill="#2D264B" d="M12,22 C6.477,22 2,17.523 2,12 C2,6.477 6.477,2 12,2 C17.523,2 22,6.477 22,12 C22,17.523 17.523,22 12,22 Z M14.652,10.652 C14.944,10.359 14.944,9.884 14.652,9.591 C14.359,9.298 13.884,9.298 13.591,9.591 L12,11.182 L10.409,9.591 C10.116,9.298 9.641,9.298 9.348,9.591 C9.055,9.884 9.055,10.359 9.348,10.652 L10.939,12.243 L9.348,13.834 C9.055,14.127 9.055,14.601 9.348,14.894 C9.641,15.187 10.116,15.187 10.409,14.894 L12,13.303 L13.591,14.894 C13.884,15.187 14.359,15.187 14.652,14.894 C14.944,14.601 14.944,14.127 14.652,13.834 L13.061,12.243 Z"/>
</svg>

