<svg xmlns="http://www.w3.org/2000/svg" width="24" height="24" viewBox="0 0 24 24">
  <defs/>
  <path fill="#2D264B" d="M3.955,5.061 C4.263,4.637 4.637,4.263 5.061,3.955 C6.375,3 8.25,3 12,3 C15.75,3 17.625,3 18.939,3.955 C19.363,4.263 19.737,4.637 20.045,5.061 C21,6.375 21,8.25 21,12 C21,15.75 21,17.625 20.045,18.939 C19.737,19.363 19.363,19.737 18.939,20.045 C17.625,21 15.75,21 12,21 C8.25,21 6.375,21 5.061,20.045 C4.637,19.737 4.263,19.363 3.955,18.939 C3,17.625 3,15.75 3,12 C3,8.25 3,6.375 3.955,5.061 Z M10.409,9.591 C10.116,9.298 9.641,9.298 9.348,9.591 C9.055,9.884 9.055,10.359 9.348,10.652 L10.939,12.243 L9.348,13.834 C9.055,14.127 9.055,14.601 9.348,14.894 C9.641,15.187 10.116,15.187 10.409,14.894 L12,13.303 L13.591,14.894 C13.884,15.187 14.359,15.187 14.652,14.894 C14.944,14.601 14.944,14.127 14.652,13.834 L13.061,12.243 L14.652,10.652 C14.944,10.359 14.944,9.884 14.652,9.591 C14.359,9.298 13.884,9.298 13.591,9.591 L12,11.182 Z"/>
</svg>

