<svg width="24" height="24" viewBox="0 0 24 24" fill="none" xmlns="http://www.w3.org/2000/svg">
<path d="M19.5304 5.53033C19.8232 5.23744 19.8232 4.76256 19.5304 4.46967C19.2375 4.17678 18.7626 4.17678 18.4697 4.46967L12 10.9394L5.53033 4.46967C5.23744 4.17678 4.76256 4.17678 4.46967 4.46967C4.17678 4.76257 4.17678 5.23744 4.46967 5.53033L10.9394 12L4.4697 18.4697C4.1768 18.7626 4.1768 19.2374 4.4697 19.5303C4.76259 19.8232 5.23746 19.8232 5.53036 19.5303L12 13.0607L18.4697 19.5303C18.7626 19.8232 19.2374 19.8232 19.5303 19.5303C19.8232 19.2374 19.8232 18.7626 19.5303 18.4697L13.0607 12L19.5304 5.53033Z" fill="#2D264B"/>
</svg>
