<svg width="24" height="24" viewBox="0 0 24 24" fill="none" xmlns="http://www.w3.org/2000/svg">
<path fill-rule="evenodd" clip-rule="evenodd" d="M15.3137 2.35479C14.6853 2.15038 14.059 2.26998 13.4277 2.49932C12.813 2.72265 12.0687 3.09917 11.1581 3.5598L11.1141 3.58209C10.5461 3.86937 10.3917 3.93965 10.2407 3.96783C10.1692 3.98118 10.0966 3.98826 10.0238 3.98898C9.87007 3.9905 9.70709 3.95194 9.10025 3.78143L8.09729 3.49962C7.04014 3.20258 5.90811 3.57079 5.22798 4.4329C4.20179 5.73366 4.56808 7.64205 6.00293 8.47046L7.89886 9.56508L5.11802 14.021C4.97335 14.2528 4.88418 14.3956 4.80309 14.5444C4.65472 14.8166 4.5286 15.1003 4.42597 15.3928C4.36988 15.5527 4.32357 15.7145 4.24843 15.9772L4.23496 16.0243C3.87931 17.2676 3.6038 18.2307 3.43837 18.951C3.35489 19.3145 3.29397 19.6389 3.26653 19.9209C3.23999 20.1937 3.23817 20.4855 3.31603 20.7564C3.72494 22.1787 5.18618 23.0224 6.62242 22.6653C6.89589 22.5973 7.14774 22.4498 7.37074 22.2904C7.60125 22.1257 7.8517 21.9107 8.12476 21.6567C8.6658 21.1533 9.36214 20.4331 10.261 19.5035L10.2951 19.4683C10.485 19.2718 10.602 19.1508 10.7124 19.0223C10.9144 18.7872 11.0971 18.5361 11.2586 18.2715C11.3469 18.1269 11.426 17.9783 11.5544 17.7371L14.0229 13.1008L15.919 14.1955C17.3539 15.0239 19.1897 14.387 19.8031 12.8479C20.2097 11.8278 19.9625 10.6633 19.1767 9.89633L18.3723 9.11119C17.9285 8.67804 17.8157 8.55838 17.7405 8.42607C17.7162 8.38333 17.6945 8.3392 17.6754 8.29389C17.6163 8.15366 17.5902 7.99125 17.5172 7.37543L17.4623 6.91179C17.3435 5.90887 17.2462 5.08786 17.0926 4.45699C16.9345 3.80772 16.6874 3.22383 16.1707 2.8144C15.9146 2.61151 15.6244 2.45587 15.3137 2.35479ZM12.7231 12.3504L9.19866 10.3155L6.40296 14.7952C6.24211 15.053 6.17757 15.157 6.12011 15.2624C6.01045 15.4635 5.91723 15.6732 5.84137 15.8894C5.80162 16.0027 5.76768 16.1203 5.68412 16.4124C5.32004 17.6851 5.05575 18.61 4.90031 19.2868C4.82282 19.6241 4.77787 19.8771 4.75949 20.0661C4.75042 20.1593 4.74877 20.2278 4.75081 20.2765C4.75267 20.3209 4.75764 20.3419 4.75764 20.3419C4.94349 20.9884 5.60756 21.3718 6.26034 21.2097C6.26034 21.2097 6.27941 21.2044 6.32058 21.1828C6.36383 21.1602 6.4223 21.1246 6.49849 21.0701C6.65298 20.9597 6.84957 20.7943 7.103 20.5585C7.61138 20.0855 8.28019 19.3942 9.20038 18.4425C9.41157 18.2241 9.49642 18.1359 9.57465 18.0448C9.72395 17.871 9.85896 17.6855 9.97834 17.4899C10.0409 17.3874 10.0987 17.2796 10.2415 17.0114L12.7231 12.3504Z" fill="#2D264B"/>
</svg>
