<svg xmlns="http://www.w3.org/2000/svg" width="24" height="24" viewBox="0 0 24 24">
  <defs/>
  <path fill="#2D264B" d="M5.228,4.433 Q6.351,3.009 8.097,3.5 L9.1,3.781 L9.1,3.781 Q9.845,3.991 10.024,3.989 Q10.133,3.988 10.241,3.968 Q10.416,3.935 11.114,3.582 L11.114,3.582 Q14.234,2.004 15.314,2.355 Q15.783,2.508 16.171,2.814 Q17.06,3.519 17.468,6.961 L17.468,6.961 L17.517,7.375 L17.517,7.376 Q17.607,8.131 17.675,8.294 Q17.704,8.362 17.74,8.426 Q17.828,8.58 18.372,9.111 L19.177,9.896 Q20.474,11.163 19.803,12.848 Q19.343,14.002 18.169,14.409 Q16.995,14.817 15.919,14.195 L14.023,13.101 L11.565,17.716 Q11.348,18.125 11.259,18.271 Q11.015,18.67 10.712,19.022 Q10.601,19.152 10.279,19.485 L10.279,19.485 Q7.388,22.475 6.622,22.665 Q4.049,23.305 3.316,20.756 Q3.098,19.998 4.242,16 L4.242,15.999 Q4.37,15.552 4.426,15.393 Q4.58,14.953 4.803,14.544 Q4.884,14.396 5.129,14.004 L5.13,14.001 L7.899,9.565 L6.003,8.47 Q4.927,7.849 4.692,6.629 Q4.458,5.408 5.228,4.433 Z M6.406,5.362 Q6.061,5.799 6.166,6.346 Q6.271,6.893 6.753,7.171 L16.669,12.896 Q17.151,13.175 17.677,12.992 Q18.203,12.81 18.41,12.292 Q18.711,11.537 18.129,10.97 L17.324,10.185 Q16.628,9.505 16.436,9.167 Q16.357,9.027 16.293,8.876 Q16.142,8.518 16.028,7.553 L16.028,7.552 L15.978,7.138 L15.978,7.137 Q15.643,4.31 15.239,3.99 Q15.063,3.851 14.849,3.781 Q14.359,3.622 11.791,4.92 L11.791,4.921 Q10.902,5.37 10.516,5.442 Q10.279,5.486 10.039,5.489 Q9.646,5.493 8.694,5.225 L8.694,5.225 L7.691,4.944 Q6.909,4.724 6.406,5.362 Z M12.723,12.35 L9.199,10.315 L6.403,14.795 L6.401,14.798 Q6.18,15.153 6.12,15.262 Q5.955,15.565 5.841,15.89 Q5.8,16.007 5.684,16.411 L5.684,16.412 Q4.659,19.997 4.758,20.342 Q5.091,21.5 6.261,21.21 Q6.608,21.123 9.2,18.442 L9.2,18.442 Q9.492,18.141 9.575,18.045 Q9.799,17.784 9.978,17.49 Q10.044,17.382 10.241,17.011 L12.723,12.35 Z"/>
</svg>

