<svg xmlns="http://www.w3.org/2000/svg" width="24" height="24" viewBox="0 0 24 24">
  <defs/>
  <path fill="#2D264B" d="M15.314,2.355 C15.624,2.456 15.915,2.612 16.171,2.814 C16.687,3.224 16.934,3.808 17.093,4.457 C17.246,5.088 17.344,5.909 17.462,6.912 L17.517,7.375 C17.59,7.991 17.616,8.154 17.675,8.294 C17.694,8.339 17.716,8.383 17.74,8.426 C17.816,8.558 17.928,8.678 18.372,9.111 L19.177,9.896 C19.962,10.663 20.21,11.828 19.803,12.848 C19.19,14.387 17.354,15.024 15.919,14.196 L14.023,13.101 L11.554,17.737 C11.426,17.978 11.347,18.127 11.259,18.271 C11.097,18.536 10.914,18.787 10.712,19.022 C10.602,19.151 10.485,19.272 10.295,19.468 L10.261,19.503 C9.362,20.433 8.666,21.153 8.125,21.657 C7.852,21.911 7.601,22.126 7.371,22.29 C7.148,22.45 6.896,22.597 6.622,22.665 C5.186,23.022 3.725,22.179 3.316,20.756 C3.238,20.486 3.24,20.194 3.267,19.921 C3.294,19.639 3.355,19.315 3.438,18.951 C3.604,18.231 3.879,17.268 4.235,16.024 L4.248,15.977 C4.324,15.715 4.37,15.553 4.426,15.393 C4.529,15.1 4.655,14.817 4.803,14.544 C4.884,14.396 4.973,14.253 5.118,14.021 L7.899,9.565 L6.003,8.47 C4.568,7.642 4.202,5.734 5.228,4.433 C5.908,3.571 7.04,3.203 8.097,3.5 L9.1,3.781 C9.707,3.952 9.87,3.99 10.024,3.989 C10.097,3.988 10.169,3.981 10.241,3.968 C10.392,3.94 10.546,3.869 11.114,3.582 L11.158,3.56 C12.069,3.099 12.813,2.723 13.428,2.499 C14.059,2.27 14.685,2.15 15.314,2.355 Z M12.723,12.35 L9.199,10.316 L6.403,14.795 C6.242,15.053 6.178,15.157 6.12,15.262 C6.01,15.464 5.917,15.673 5.841,15.889 C5.802,16.003 5.768,16.12 5.684,16.412 C5.32,17.685 5.056,18.61 4.9,19.287 C4.823,19.624 4.778,19.877 4.759,20.066 C4.75,20.159 4.749,20.228 4.751,20.277 C4.753,20.321 4.758,20.342 4.758,20.342 C4.943,20.988 5.608,21.372 6.26,21.21 C6.26,21.21 6.279,21.204 6.321,21.183 C6.364,21.16 6.422,21.125 6.498,21.07 C6.653,20.96 6.85,20.794 7.103,20.559 C7.611,20.086 8.28,19.394 9.2,18.442 C9.412,18.224 9.496,18.136 9.575,18.045 C9.724,17.871 9.859,17.685 9.978,17.49 C10.041,17.387 10.099,17.28 10.241,17.011 Z"/>
</svg>

