<svg xmlns="http://www.w3.org/2000/svg" width="24" height="24" viewBox="0 0 24 24">
  <defs/>
  <path fill="#2D264B" d="M2,3.068 L2.818,3.068 Q3.068,3.068 3.068,2.818 L3.068,2 Q3.068,1.689 3.288,1.47 Q3.508,1.25 3.818,1.25 Q4.129,1.25 4.349,1.47 Q4.568,1.689 4.568,2 L4.568,2.818 Q4.568,4.568 2.818,4.568 L2,4.568 Q1.689,4.568 1.47,4.349 Q1.25,4.129 1.25,3.818 Q1.25,3.508 1.47,3.288 Q1.689,3.068 2,3.068 Z M22,20.932 L21.182,20.932 Q20.932,20.932 20.932,21.182 L20.932,22 Q20.932,22.311 20.712,22.53 Q20.493,22.75 20.182,22.75 Q19.871,22.75 19.652,22.53 Q19.432,22.311 19.432,22 L19.432,21.182 Q19.432,20.457 19.944,19.944 Q20.457,19.432 21.182,19.432 L22,19.432 Q22.311,19.432 22.53,19.651 Q22.75,19.871 22.75,20.182 Q22.75,20.492 22.53,20.712 Q22.311,20.932 22,20.932 Z"/>
  <path fill="#2D264B" d="M3.818,10.182 L3.818,5.11 C4.395,4.858 4.858,4.395 5.11,3.818 L10.182,3.818 C14.316,3.818 16.637,3.818 18.134,4.806 L20.97,1.97 C21.263,1.677 21.738,1.677 22.031,1.97 C22.323,2.263 22.323,2.737 22.031,3.03 L19.194,5.867 C20.182,7.363 20.182,9.684 20.182,13.818 L20.182,18.89 C19.605,19.142 19.142,19.605 18.89,20.182 L13.818,20.182 C9.684,20.182 7.363,20.182 5.867,19.194 L19.194,5.867 C19.056,5.657 18.898,5.463 18.718,5.283 C18.537,5.102 18.344,4.944 18.134,4.806 L4.806,18.134 C3.818,16.637 3.818,14.316 3.818,10.182 Z"/>
</svg>

