<svg xmlns="http://www.w3.org/2000/svg" width="24" height="24" viewBox="0 0 24 24">
  <defs/>
  <path fill="#2D264B" d="M2,3.068 C1.586,3.068 1.25,3.404 1.25,3.818 C1.25,4.232 1.586,4.568 2,4.568 L2,3.068 Z M22,20.932 C22.414,20.932 22.75,20.596 22.75,20.182 C22.75,19.768 22.414,19.432 22,19.432 L22,20.932 Z M4.568,2 C4.568,1.586 4.232,1.25 3.818,1.25 C3.404,1.25 3.068,1.586 3.068,2 L4.568,2 Z M19.432,22 C19.432,22.414 19.768,22.75 20.182,22.75 C20.596,22.75 20.932,22.414 20.932,22 L19.432,22 Z M22.03,3.03 C22.323,2.737 22.323,2.263 22.03,1.97 C21.737,1.677 21.263,1.677 20.97,1.97 L22.03,3.03 Z M3.818,4.568 L10.182,4.568 L10.182,3.068 L3.818,3.068 L3.818,4.568 Z M19.432,13.818 L19.432,20.182 L20.932,20.182 L20.932,13.818 L19.432,13.818 Z M20.182,19.432 L13.818,19.432 L13.818,20.932 L20.182,20.932 L20.182,19.432 Z M4.568,10.182 L4.568,3.818 L3.068,3.818 L3.068,10.182 L4.568,10.182 Z M13.818,19.432 C11.44,19.432 9.732,19.43 8.432,19.255 C7.153,19.084 6.383,18.757 5.813,18.187 L4.752,19.248 C5.647,20.142 6.787,20.548 8.232,20.742 C9.655,20.933 11.482,20.932 13.818,20.932 L13.818,19.432 Z M3.068,10.182 C3.068,12.518 3.067,14.345 3.258,15.768 C3.452,17.213 3.858,18.353 4.752,19.248 L5.813,18.187 C5.243,17.617 4.916,16.847 4.745,15.568 C4.57,14.268 4.568,12.56 4.568,10.182 L3.068,10.182 Z M10.182,4.568 C12.56,4.568 14.268,4.57 15.568,4.745 C16.847,4.916 17.617,5.243 18.187,5.813 L19.248,4.752 C18.353,3.858 17.213,3.452 15.768,3.258 C14.345,3.067 12.518,3.068 10.182,3.068 L10.182,4.568 Z M20.932,13.818 C20.932,11.482 20.933,9.655 20.742,8.232 C20.548,6.787 20.142,5.647 19.248,4.752 L18.187,5.813 C18.757,6.383 19.084,7.153 19.255,8.432 C19.43,9.732 19.432,11.44 19.432,13.818 L20.932,13.818 Z M2,4.568 L3.818,4.568 L3.818,3.068 L2,3.068 L2,4.568 Z M22,19.432 L20.182,19.432 L20.182,20.932 L22,20.932 L22,19.432 Z M3.068,2 L3.068,3.818 L4.568,3.818 L4.568,2 L3.068,2 Z M20.932,22 L20.932,20.182 L19.432,20.182 L19.432,22 L20.932,22 Z M6.03,19.03 L22.03,3.03 L20.97,1.97 L4.97,17.97 L6.03,19.03 Z M4.97,17.97 L4.752,18.187 L5.813,19.248 L6.03,19.03 L4.97,17.97 Z"/>
</svg>

