<svg width="24" height="24" viewBox="0 0 24 24" fill="none" xmlns="http://www.w3.org/2000/svg">
<path d="M2 3.81818H2.81818C3.37047 3.81818 3.81818 3.37047 3.81818 2.81818V2M22 20.1818H21.1818C20.6296 20.1818 20.1818 20.6296 20.1818 21.1818L20.1819 22" stroke="#2D264B" stroke-width="1.5" stroke-linecap="round"/>
<path d="M3.81836 10.1818V5.11016C4.39508 4.85818 4.85836 4.3949 5.11034 3.81818H10.182C14.3161 3.81818 16.6374 3.81818 18.1338 4.8059L20.97 1.96967C21.2629 1.67678 21.7377 1.67678 22.0306 1.96967C22.3235 2.26256 22.3235 2.73744 22.0306 3.03033L19.1944 5.86659C20.182 7.36293 20.182 9.68426 20.182 13.8182V18.8899C19.6053 19.1418 19.142 19.6051 18.89 20.1818H13.8184C9.68443 20.1818 7.36311 20.1818 5.86677 19.1942L19.1944 5.86659C19.0558 5.6566 18.8977 5.46287 18.7175 5.28265C18.5374 5.10247 18.3437 4.94447 18.1338 4.8059L4.80608 18.1336C3.81836 16.6372 3.81836 14.3159 3.81836 10.1818Z" fill="#2D264B"/>
</svg>
