<svg xmlns="http://www.w3.org/2000/svg" width="24" height="24" viewBox="0 0 24 24">
  <defs/>
  <path fill="#2D264B" d="M4.568,2 C4.568,1.586 4.232,1.25 3.818,1.25 C3.404,1.25 3.068,1.586 3.068,2 L3.068,2.818 C3.068,2.956 2.956,3.068 2.818,3.068 L2,3.068 C1.586,3.068 1.25,3.404 1.25,3.818 C1.25,4.232 1.586,4.568 2,4.568 L2.818,4.568 C3.785,4.568 4.568,3.785 4.568,2.818 L4.568,2 Z"/>
  <path fill="#2D264B" d="M21.182,19.432 C20.215,19.432 19.432,20.215 19.432,21.182 L19.432,22 C19.432,22.414 19.768,22.75 20.182,22.75 C20.596,22.75 20.932,22.414 20.932,22 L20.932,21.182 C20.932,21.044 21.044,20.932 21.182,20.932 L22,20.932 C22.414,20.932 22.75,20.596 22.75,20.182 C22.75,19.768 22.414,19.432 22,19.432 L21.182,19.432 Z"/>
  <path fill="#2D264B" d="M3.818,5.11 L3.818,10.182 C3.818,14.896 3.818,17.253 5.283,18.717 C6.747,20.182 9.104,20.182 13.818,20.182 L18.89,20.182 C19.142,19.605 19.605,19.142 20.182,18.89 L20.182,13.818 C20.182,9.104 20.182,6.747 18.717,5.283 C17.253,3.818 14.896,3.818 10.182,3.818 L5.11,3.818 C4.858,4.395 4.395,4.858 3.818,5.11 Z"/>
</svg>

