<svg width="24" height="24" viewBox="0 0 24 24" fill="none" xmlns="http://www.w3.org/2000/svg">
<path d="M4.56818 2C4.56818 1.58579 4.2324 1.25 3.81818 1.25C3.40397 1.25 3.06818 1.58579 3.06818 2V2.81818C3.06818 2.95625 2.95625 3.06818 2.81818 3.06818H2C1.58579 3.06818 1.25 3.40397 1.25 3.81818C1.25 4.2324 1.58579 4.56818 2 4.56818H2.81818C3.78468 4.56818 4.56818 3.78468 4.56818 2.81818V2Z" fill="#2D264B"/>
<path d="M21.1818 19.4318C20.2153 19.4318 19.4318 20.2154 19.4318 21.1819L19.4319 22C19.4319 22.4142 19.7677 22.75 20.1819 22.75C20.5961 22.75 20.9319 22.4142 20.9319 22L20.9318 21.1818C20.9318 21.0438 21.0438 20.9318 21.1818 20.9318H22C22.4142 20.9318 22.75 20.596 22.75 20.1818C22.75 19.7676 22.4142 19.4318 22 19.4318H21.1818Z" fill="#2D264B"/>
<path d="M10.7501 12C10.7501 11.3096 11.3097 10.75 12.0001 10.75C12.6904 10.75 13.2501 11.3096 13.2501 12C13.2501 12.6904 12.6904 13.25 12.0001 13.25C11.3097 13.25 10.7501 12.6904 10.7501 12Z" fill="#2D264B"/>
<path fill-rule="evenodd" clip-rule="evenodd" d="M3.81818 10.1818V5.11016C4.3949 4.85818 4.85818 4.3949 5.11016 3.81818H10.1818C14.8959 3.81818 17.2529 3.81818 18.7174 5.28265C20.1818 6.74711 20.1818 9.10414 20.1818 13.8182V18.8899C19.6051 19.1418 19.1418 19.6051 18.8899 20.1818H13.8182C9.10414 20.1818 6.74711 20.1818 5.28265 18.7174C3.81818 17.2529 3.81818 14.8959 3.81818 10.1818ZM12.0001 9.25C10.4813 9.25 9.25007 10.4812 9.25007 12C9.25007 13.5188 10.4813 14.75 12.0001 14.75C13.5189 14.75 14.7501 13.5188 14.7501 12C14.7501 10.4812 13.5189 9.25 12.0001 9.25Z" fill="#2D264B"/>
</svg>
