<svg width="24" height="24" viewBox="0 0 24 24" fill="none" xmlns="http://www.w3.org/2000/svg">
<path d="M4.56818 2C4.56818 1.58579 4.2324 1.25 3.81818 1.25C3.40397 1.25 3.06818 1.58579 3.06818 2V2.81818C3.06818 2.95625 2.95625 3.06818 2.81818 3.06818H2C1.58579 3.06818 1.25 3.40397 1.25 3.81818C1.25 4.2324 1.58579 4.56818 2 4.56818H2.81818C3.78468 4.56818 4.56818 3.78468 4.56818 2.81818V2Z" fill="#2D264B"/>
<path d="M21.1818 19.4318C20.2153 19.4318 19.4318 20.2154 19.4318 21.1819L19.4319 22C19.4319 22.4142 19.7677 22.75 20.1819 22.75C20.5961 22.75 20.9319 22.4142 20.9319 22L20.9318 21.1818C20.9318 21.0438 21.0438 20.9318 21.1818 20.9318H22C22.4142 20.9318 22.75 20.596 22.75 20.1818C22.75 19.7676 22.4142 19.4318 22 19.4318H21.1818Z" fill="#2D264B"/>
<path d="M3.81818 5.11016V10.1818C3.81818 14.8959 3.81818 17.2529 5.28265 18.7174C6.74711 20.1818 9.10414 20.1818 13.8182 20.1818H18.8899C19.1418 19.6051 19.6051 19.1418 20.1818 18.8899V13.8182C20.1818 9.10414 20.1818 6.74711 18.7174 5.28265C17.2529 3.81818 14.8959 3.81818 10.1818 3.81818H5.11016C4.85818 4.3949 4.3949 4.85818 3.81818 5.11016Z" fill="#2D264B"/>
</svg>
