<svg width="24" height="24" viewBox="0 0 24 24" fill="none" xmlns="http://www.w3.org/2000/svg">
<path fill-rule="evenodd" clip-rule="evenodd" d="M9.91134 2.25002H10.252C12.006 2.24975 13.0719 2.24958 13.9251 2.52146C16.0236 3.19015 17.5558 4.99881 17.8704 7.1787C17.9209 7.52875 17.9241 7.90455 17.8917 8.33776C19.5734 8.70805 20.8317 10.2071 20.8317 12C20.8317 14.0711 19.1527 15.75 17.0817 15.75C16.9597 15.75 16.8391 15.7442 16.7199 15.7328L16.6333 16.2521C16.5245 16.9057 16.4579 17.305 16.3527 17.6552C15.6989 19.8302 13.8262 21.4166 11.5734 21.7038C11.2106 21.7501 10.8059 21.7501 10.1434 21.75H10.0201C9.35755 21.7501 8.95269 21.7501 8.58997 21.7038C6.33711 21.4166 4.4644 19.8302 3.81067 17.6552C3.7054 17.305 3.63888 16.9057 3.52999 16.2521L2.62904 10.8465C2.34042 9.11639 2.16502 8.06499 2.29293 7.1787C2.60754 4.99881 4.13969 3.19015 6.2382 2.52146C7.09141 2.24958 8.15734 2.24975 9.91134 2.25002ZM16.9675 14.2472C17.0053 14.2491 17.0433 14.25 17.0817 14.25C18.3243 14.25 19.3317 13.2427 19.3317 12C19.3317 10.9719 18.6421 10.1049 17.7002 9.83613C17.6512 10.1456 17.5953 10.4805 17.5344 10.8457L16.9675 14.2472ZM6.82027 9.86979C6.74834 9.46187 6.35935 9.1895 5.95143 9.26142C5.54351 9.33335 5.27113 9.72235 5.34306 10.1303L6.38495 16.0391C6.45688 16.447 6.84587 16.7194 7.25379 16.6475C7.66171 16.5756 7.93409 16.1866 7.86216 15.7786L6.82027 9.86979Z" fill="#2D264B"/>
</svg>
