<svg width="24" height="24" viewBox="0 0 24 24" fill="none" xmlns="http://www.w3.org/2000/svg">
<path d="M6.49577 0.329344C6.86625 0.144102 7.31676 0.29427 7.502 0.664754L7.55478 0.770327C7.94188 1.54453 7.94188 2.4558 7.55478 3.23L7.502 3.33557C7.31676 3.70606 6.86625 3.85623 6.49577 3.67098C6.12528 3.48574 5.97511 3.03524 6.16036 2.66475L6.21314 2.55918C6.3891 2.20727 6.3891 1.79306 6.21314 1.44115L6.16036 1.33557C5.97512 0.96509 6.12528 0.514586 6.49577 0.329344Z" fill="#2D264B"/>
<path d="M14.4958 0.329343C14.8663 0.144102 15.3168 0.294271 15.502 0.664755L15.5548 0.770328C15.9419 1.54453 15.9419 2.4558 15.5548 3.23L15.502 3.33558C15.3168 3.70606 14.8662 3.85623 14.4958 3.67098C14.1253 3.48574 13.9751 3.03523 14.1604 2.66475L14.2131 2.55918C14.3891 2.20727 14.3891 1.79306 14.2131 1.44115L14.1604 1.33557C13.9751 0.965089 14.1253 0.514584 14.4958 0.329343Z" fill="#2D264B"/>
<path d="M11.1666 0.329344C11.5371 0.514587 11.6872 0.965092 11.502 1.33558L11.4492 1.44115C11.2733 1.79306 11.2733 2.20727 11.4492 2.55918L11.502 2.66475C11.6872 3.03524 11.5371 3.48574 11.1666 3.67098C10.7961 3.85623 10.3456 3.70606 10.1604 3.33557L10.1076 3.23C9.72047 2.4558 9.72047 1.54453 10.1076 0.770327L10.1604 0.664753C10.3456 0.29427 10.7961 0.144102 11.1666 0.329344Z" fill="#2D264B"/>
<path fill-rule="evenodd" clip-rule="evenodd" d="M11.0015 4.25015C12.7555 4.24988 13.8214 4.24971 14.6746 4.52159C16.7731 5.19028 18.3053 6.99894 18.6199 9.17883C18.6719 9.53902 18.6739 9.91548 18.6418 10.338C20.3232 10.7085 21.5812 12.2074 21.5812 14.0002C21.5812 16.0712 19.9022 17.7502 17.8312 17.7502C17.7093 17.7502 17.5886 17.7443 17.4694 17.7329L17.3828 18.2523C17.274 18.9058 17.2074 19.3051 17.1022 19.6553C16.4484 21.8303 14.5757 23.4167 12.3229 23.704C11.9601 23.7502 11.5554 23.7502 10.8929 23.7502H10.7696C10.1071 23.7502 9.70221 23.7502 9.33948 23.704C7.08662 23.4167 5.21392 21.8303 4.56018 19.6553C4.45491 19.3051 4.38839 18.9058 4.2795 18.2522L3.37856 12.8466C3.08993 11.1165 2.91453 10.0651 3.04244 9.17883C3.35705 6.99894 4.88921 5.19028 6.98772 4.52159C7.29934 4.42229 7.6301 4.36076 7.99939 4.32186V9.00017H7.74939C7.19711 9.00017 6.74939 9.44788 6.74939 10.0002V12.0002C6.74939 12.5525 7.19711 13.0002 7.74939 13.0002H9.74939C10.3017 13.0002 10.7494 12.5525 10.7494 12.0002V10.0002C10.7494 9.44788 10.3017 9.00017 9.74939 9.00017H9.49939L9.49939 4.25447C9.88748 4.25016 10.324 4.25016 10.8176 4.25016L11.0015 4.25015ZM17.717 16.2473C17.7548 16.2492 17.7929 16.2502 17.8312 16.2502C19.0738 16.2502 20.0812 15.2428 20.0812 14.0002C20.0812 12.9718 19.3913 12.1046 18.4492 11.8361C18.394 12.1851 18.3296 12.572 18.2577 13.0032L17.717 16.2473Z" fill="#2D264B"/>
</svg>
