<svg xmlns="http://www.w3.org/2000/svg" width="24" height="24" viewBox="0 0 24 24">
  <defs/>
  <path fill="#2D264B" d="M6.385,16.039 C6.457,16.447 6.846,16.719 7.254,16.648 C7.662,16.576 7.934,16.186 7.862,15.779 L6.385,16.039 Z M6.821,9.87 C6.749,9.462 6.36,9.189 5.952,9.261 C5.544,9.333 5.271,9.722 5.343,10.13 L6.821,9.87 Z M16.027,10.768 L15.164,15.945 L16.644,16.191 L17.506,11.014 L16.027,10.768 Z M5,15.945 L4.137,10.768 L2.657,11.014 L3.52,16.191 L5,15.945 Z M10.082,20.25 C9.339,20.25 9.036,20.248 8.78,20.216 L8.59,21.704 C8.964,21.752 9.383,21.75 10.082,21.75 L10.082,20.25 Z M3.52,16.191 C3.635,16.881 3.702,17.294 3.811,17.655 L5.247,17.223 C5.173,16.976 5.122,16.678 5,15.945 L3.52,16.191 Z M8.78,20.216 C7.115,20.003 5.731,18.831 5.247,17.223 L3.811,17.655 C4.465,19.83 6.337,21.416 8.59,21.704 L8.78,20.216 Z M15.164,15.945 C15.042,16.678 14.991,16.976 14.916,17.223 L16.353,17.655 C16.461,17.294 16.529,16.881 16.644,16.191 L15.164,15.945 Z M10.082,21.75 C10.781,21.75 11.2,21.752 11.574,21.704 L11.384,20.216 C11.128,20.248 10.825,20.25 10.082,20.25 L10.082,21.75 Z M14.916,17.223 C14.433,18.831 13.049,20.003 11.384,20.216 L11.574,21.704 C13.826,21.416 15.699,19.83 16.353,17.655 L14.916,17.223 Z M10.082,3.75 C12.059,3.75 12.869,3.759 13.47,3.951 L13.925,2.521 C13.045,2.241 11.938,2.25 10.082,2.25 L10.082,3.75 Z M17.506,11.014 C17.812,9.184 18.003,8.093 17.871,7.179 L16.386,7.393 C16.476,8.017 16.352,8.817 16.027,10.768 L17.506,11.014 Z M13.47,3.951 C15.021,4.445 16.154,5.782 16.386,7.393 L17.871,7.179 C17.556,4.999 16.024,3.19 13.925,2.521 L13.47,3.951 Z M10.082,2.25 C8.226,2.25 7.119,2.241 6.238,2.521 L6.694,3.951 C7.295,3.759 8.104,3.75 10.082,3.75 L10.082,2.25 Z M4.137,10.768 C3.812,8.817 3.688,8.017 3.778,7.393 L2.293,7.179 C2.161,8.093 2.352,9.184 2.657,11.014 L4.137,10.768 Z M6.238,2.521 C4.14,3.19 2.608,4.999 2.293,7.179 L3.778,7.393 C4.01,5.782 5.143,4.445 6.694,3.951 L6.238,2.521 Z M19.332,12 C19.332,13.243 18.325,14.25 17.082,14.25 L17.082,15.75 C19.153,15.75 20.832,14.071 20.832,12 L19.332,12 Z M17.082,9.75 C18.325,9.75 19.332,10.757 19.332,12 L20.832,12 C20.832,9.929 19.153,8.25 17.082,8.25 L17.082,9.75 Z M17.082,14.25 C16.818,14.25 16.566,14.205 16.332,14.122 L15.832,15.536 C16.224,15.675 16.645,15.75 17.082,15.75 L17.082,14.25 Z M7.862,15.779 L6.821,9.87 L5.343,10.13 L6.385,16.039 L7.862,15.779 Z"/>
</svg>

