<svg xmlns="http://www.w3.org/2000/svg" width="24" height="24" viewBox="0 0 24 24">
  <defs/>
  <path fill="#2D264B" d="M6.496,0.329 C6.866,0.144 7.317,0.294 7.502,0.665 L7.555,0.77 C7.942,1.545 7.942,2.456 7.555,3.23 L7.502,3.336 C7.317,3.706 6.866,3.856 6.496,3.671 C6.125,3.486 5.975,3.035 6.16,2.665 L6.213,2.559 C6.389,2.207 6.389,1.793 6.213,1.441 L6.16,1.336 C5.975,0.965 6.125,0.515 6.496,0.329 Z"/>
  <path fill="#2D264B" d="M14.496,0.329 C14.866,0.144 15.317,0.294 15.502,0.665 L15.555,0.77 C15.942,1.545 15.942,2.456 15.555,3.23 L15.502,3.336 C15.317,3.706 14.866,3.856 14.496,3.671 C14.125,3.486 13.975,3.035 14.16,2.665 L14.213,2.559 C14.389,2.207 14.389,1.793 14.213,1.441 L14.16,1.336 C13.975,0.965 14.125,0.515 14.496,0.329 Z"/>
  <path fill="#2D264B" d="M11.167,0.329 C11.537,0.515 11.687,0.965 11.502,1.336 L11.449,1.441 C11.273,1.793 11.273,2.207 11.449,2.559 L11.502,2.665 C11.687,3.035 11.537,3.486 11.167,3.671 C10.796,3.856 10.346,3.706 10.16,3.336 L10.108,3.23 C9.72,2.456 9.72,1.545 10.108,0.77 L10.16,0.665 C10.346,0.294 10.796,0.144 11.167,0.329 Z"/>
  <path fill="#2D264B" d="M11.002,4.25 C12.756,4.25 13.821,4.25 14.675,4.522 C16.773,5.19 18.305,6.999 18.62,9.179 C18.672,9.539 18.674,9.915 18.642,10.338 C20.323,10.708 21.581,12.207 21.581,14 C21.581,16.071 19.902,17.75 17.831,17.75 C17.709,17.75 17.589,17.744 17.469,17.733 L17.383,18.252 C17.274,18.906 17.207,19.305 17.102,19.655 C16.448,21.83 14.576,23.417 12.323,23.704 C11.96,23.75 11.555,23.75 10.893,23.75 L10.77,23.75 C10.107,23.75 9.702,23.75 9.339,23.704 C7.087,23.417 5.214,21.83 4.56,19.655 C4.455,19.305 4.388,18.906 4.28,18.252 L3.379,12.847 C3.09,11.116 2.915,10.065 3.042,9.179 C3.357,6.999 4.889,5.19 6.988,4.522 C7.299,4.422 7.63,4.361 7.999,4.322 L7.999,9 L7.749,9 C7.197,9 6.749,9.448 6.749,10 L6.749,12 C6.749,12.552 7.197,13 7.749,13 L9.749,13 C10.302,13 10.749,12.552 10.749,12 L10.749,10 C10.749,9.448 10.302,9 9.749,9 L9.499,9 L9.499,4.254 C9.887,4.25 10.324,4.25 10.818,4.25 Z M17.717,16.247 C17.755,16.249 17.793,16.25 17.831,16.25 C19.074,16.25 20.081,15.243 20.081,14 C20.081,12.972 19.391,12.105 18.449,11.836 C18.394,12.185 18.33,12.572 18.258,13.003 Z"/>
</svg>

