<svg xmlns="http://www.w3.org/2000/svg" width="24" height="24" viewBox="0 0 24 24">
  <defs/>
  <path fill="#2D264B" d="M10.252,2.25 L10.252,2.25 C12.006,2.25 13.072,2.25 13.925,2.521 C16.024,3.19 17.556,4.999 17.87,7.179 C17.921,7.529 17.924,7.905 17.892,8.338 C19.573,8.708 20.832,10.207 20.832,12 C20.832,14.071 19.153,15.75 17.082,15.75 C16.96,15.75 16.839,15.744 16.72,15.733 L16.633,16.252 C16.524,16.906 16.458,17.305 16.353,17.655 C15.699,19.83 13.826,21.417 11.573,21.704 C11.211,21.75 10.806,21.75 10.143,21.75 L10.02,21.75 C9.358,21.75 8.953,21.75 8.59,21.704 C6.337,21.417 4.464,19.83 3.811,17.655 C3.705,17.305 3.639,16.906 3.53,16.252 L2.629,10.847 L2.629,10.846 C2.34,9.116 2.165,8.065 2.293,7.179 C2.608,4.999 4.14,3.19 6.238,2.521 C7.091,2.25 8.157,2.25 9.911,2.25 L10.252,2.25 Z M6.82,9.87 C6.748,9.462 6.359,9.189 5.951,9.261 C5.544,9.333 5.271,9.722 5.343,10.13 L6.385,16.039 C6.457,16.447 6.846,16.719 7.254,16.647 C7.662,16.576 7.934,16.187 7.862,15.779 Z M16.968,14.247 C17.005,14.249 17.043,14.25 17.082,14.25 C18.324,14.25 19.332,13.243 19.332,12 C19.332,10.972 18.642,10.105 17.7,9.836 C17.651,10.146 17.595,10.481 17.534,10.846 Z"/>
</svg>

