<svg xmlns="http://www.w3.org/2000/svg" width="24" height="24" viewBox="0 0 24 24">
  <defs/>
  <path fill="#2D264B" d="M6.082,10 C6.082,9.448 6.529,9 7.082,9 L9.082,9 C9.634,9 10.082,9.448 10.082,10 L10.082,12 C10.082,12.552 9.634,13 9.082,13 L7.082,13 C6.529,13 6.082,12.552 6.082,12 L6.082,10 Z"/>
  <path fill="#2D264B" d="M7.332,12 C7.332,12.414 7.668,12.75 8.082,12.75 C8.496,12.75 8.832,12.414 8.832,12 L7.332,12 Z M9.411,3.335 C9.596,3.706 10.047,3.856 10.417,3.671 C10.788,3.486 10.938,3.035 10.753,2.665 L9.411,3.335 Z M10.753,1.335 C10.938,0.965 10.788,0.514 10.417,0.329 C10.047,0.144 9.596,0.294 9.411,0.665 L10.753,1.335 Z M5.411,2.665 C5.226,3.035 5.376,3.486 5.746,3.671 C6.117,3.856 6.567,3.706 6.753,3.335 L5.411,2.665 Z M6.753,0.665 C6.567,0.294 6.117,0.144 5.746,0.329 C5.376,0.514 5.226,0.965 5.411,1.335 L6.753,0.665 Z M13.411,2.665 C13.226,3.035 13.376,3.486 13.746,3.671 C14.117,3.856 14.568,3.706 14.753,3.335 L13.411,2.665 Z M14.753,0.665 C14.568,0.294 14.117,0.144 13.746,0.329 C13.376,0.514 13.226,0.965 13.411,1.335 L14.753,0.665 Z M5,17.945 L4.137,12.768 L2.657,13.014 L3.52,18.191 L5,17.945 Z M10.082,22.25 C9.339,22.25 9.036,22.248 8.78,22.216 L8.59,23.704 C8.964,23.752 9.383,23.75 10.082,23.75 L10.082,22.25 Z M3.52,18.191 C3.635,18.881 3.702,19.294 3.811,19.655 L5.247,19.223 C5.173,18.976 5.122,18.678 5,17.945 L3.52,18.191 Z M8.78,22.216 C7.115,22.003 5.731,20.831 5.247,19.223 L3.811,19.655 C4.465,21.83 6.337,23.416 8.59,23.704 L8.78,22.216 Z M15.164,17.945 C15.042,18.678 14.991,18.976 14.916,19.223 L16.353,19.655 C16.461,19.294 16.529,18.881 16.644,18.191 L15.164,17.945 Z M10.082,23.75 C10.781,23.75 11.2,23.752 11.574,23.704 L11.384,22.216 C11.128,22.248 10.825,22.25 10.082,22.25 L10.082,23.75 Z M14.916,19.223 C14.433,20.831 13.049,22.003 11.384,22.216 L11.574,23.704 C13.826,23.416 15.699,21.83 16.353,19.655 L14.916,19.223 Z M10.082,5.75 C12.059,5.75 12.869,5.759 13.47,5.951 L13.925,4.521 C13.045,4.241 11.938,4.25 10.082,4.25 L10.082,5.75 Z M13.47,5.951 C15.021,6.445 16.154,7.782 16.386,9.393 L17.871,9.179 C17.556,6.999 16.024,5.19 13.925,4.521 L13.47,5.951 Z M4.137,12.768 C3.812,10.817 3.688,10.017 3.778,9.393 L2.293,9.179 C2.161,10.093 2.352,11.184 2.657,13.014 L4.137,12.768 Z M6.238,4.521 C4.14,5.19 2.608,6.999 2.293,9.179 L3.778,9.393 C4.01,7.782 5.143,6.445 6.694,5.951 L6.238,4.521 Z M19.332,14 C19.332,15.243 18.325,16.25 17.082,16.25 L17.082,17.75 C19.153,17.75 20.832,16.071 20.832,14 L19.332,14 Z M17.082,11.75 C18.325,11.75 19.332,12.757 19.332,14 L20.832,14 C20.832,11.929 19.153,10.25 17.082,10.25 L17.082,11.75 Z M8.832,12 L8.832,6 L7.332,6 L7.332,12 L8.832,12 Z M10.753,2.665 L10.7,2.559 L9.358,3.23 L9.411,3.335 L10.753,2.665 Z M10.7,1.441 L10.753,1.335 L9.411,0.665 L9.358,0.77 L10.7,1.441 Z M10.7,2.559 C10.524,2.207 10.524,1.793 10.7,1.441 L9.358,0.77 C8.971,1.544 8.971,2.456 9.358,3.23 L10.7,2.559 Z M6.753,3.335 L6.806,3.23 L5.464,2.559 L5.411,2.665 L6.753,3.335 Z M6.806,0.77 L6.753,0.665 L5.411,1.335 L5.464,1.441 L6.806,0.77 Z M6.806,3.23 C7.193,2.456 7.193,1.544 6.806,0.77 L5.464,1.441 C5.64,1.793 5.64,2.207 5.464,2.559 L6.806,3.23 Z M14.753,3.335 L14.806,3.23 L13.464,2.559 L13.411,2.665 L14.753,3.335 Z M14.806,0.77 L14.753,0.665 L13.411,1.335 L13.464,1.441 L14.806,0.77 Z M14.806,3.23 C15.193,2.456 15.193,1.544 14.806,0.77 L13.464,1.441 C13.64,1.793 13.64,2.207 13.464,2.559 L14.806,3.23 Z M17.506,13.014 C17.634,12.249 17.739,11.623 17.809,11.1 L16.323,10.9 C16.256,11.394 16.156,11.994 16.027,12.768 L17.506,13.014 Z M17.809,11.1 C17.911,10.344 17.952,9.742 17.871,9.179 L16.386,9.393 C16.436,9.742 16.42,10.176 16.323,10.9 L17.809,11.1 Z M17.082,10.25 L17.066,10.25 L17.066,11.75 L17.082,11.75 L17.082,10.25 Z M17.082,16.25 C16.825,16.25 16.58,16.207 16.352,16.129 L15.866,17.548 C16.248,17.679 16.657,17.75 17.082,17.75 L17.082,16.25 Z M16.027,12.768 L15.369,16.715 L16.849,16.962 L17.506,13.014 L16.027,12.768 Z M15.369,16.715 L15.164,17.945 L16.644,18.191 L16.849,16.962 L15.369,16.715 Z M10.082,4.25 C9.263,4.25 8.6,4.25 8.055,4.269 L8.109,5.768 C8.621,5.75 9.253,5.75 10.082,5.75 L10.082,4.25 Z M8.055,4.269 C7.335,4.295 6.76,4.355 6.238,4.521 L6.694,5.951 C7.017,5.848 7.427,5.793 8.109,5.768 L8.055,4.269 Z M8.832,6 L8.832,5.019 L7.332,5.019 L7.332,6 L8.832,6 Z"/>
</svg>

