<svg xmlns="http://www.w3.org/2000/svg" width="24" height="24" viewBox="0 0 24 24">
  <defs/>
  <path fill="#2D264B" d="M12,21.75 Q4.936,21.75 3.424,20.652 Q1.353,19.147 1.085,16.601 Q0.89,14.743 4.422,8.626 L4.422,8.625 Q7.955,2.507 9.661,1.747 Q12,0.706 14.339,1.747 Q16.046,2.507 19.578,8.625 L19.579,8.626 Q23.11,14.743 22.915,16.601 Q22.647,19.147 20.576,20.652 Q19.064,21.75 12,21.75 Z M12,20.25 Q18.577,20.25 19.694,19.438 Q21.225,18.326 21.423,16.444 Q21.567,15.071 18.279,9.376 L18.279,9.375 Q14.99,3.679 13.729,3.117 Q12,2.348 10.271,3.117 Q9.01,3.679 5.721,9.375 L5.721,9.376 Q2.433,15.071 2.577,16.444 Q2.775,18.326 4.306,19.438 Q5.423,20.25 12,20.25 Z M12.75,7 L12.75,13 Q12.75,13.311 12.53,13.53 Q12.311,13.75 12,13.75 Q11.689,13.75 11.47,13.53 Q11.25,13.311 11.25,13 L11.25,7 Q11.25,6.689 11.47,6.47 Q11.689,6.25 12,6.25 Q12.311,6.25 12.53,6.47 Q12.75,6.689 12.75,7 Z"/>
  <path fill="#2D264B" d="M13,16 C13,16.552 12.552,17 12,17 C11.448,17 11,16.552 11,16 C11,15.448 11.448,15 12,15 C12.552,15 13,15.448 13,16 Z"/>
</svg>

