<svg xmlns="http://www.w3.org/2000/svg" width="24" height="24" viewBox="0 0 24 24">
  <defs/>
  <path fill="#2D264B" d="M5.072,9 C7.345,5.062 8.482,3.093 9.966,2.432 C11.261,1.856 12.739,1.856 14.034,2.432 C15.518,3.093 16.655,5.062 18.928,9 L18.929,9.001 C21.202,12.938 22.339,14.907 22.169,16.523 C22.021,17.932 21.282,19.212 20.135,20.045 C18.821,21 16.547,21 12,21 C7.453,21 5.179,21 3.865,20.045 C2.719,19.212 1.979,17.932 1.831,16.523 C1.661,14.907 2.798,12.938 5.072,9.001 Z M12,6.25 C11.586,6.25 11.25,6.586 11.25,7 L11.25,13 C11.25,13.414 11.586,13.75 12,13.75 C12.414,13.75 12.75,13.414 12.75,13 L12.75,7 C12.75,6.586 12.414,6.25 12,6.25 Z M12,17 C12.552,17 13,16.552 13,16 C13,15.448 12.552,15 12,15 C11.448,15 11,15.448 11,16 C11,16.552 11.448,17 12,17 Z"/>
</svg>

