<svg xmlns="http://www.w3.org/2000/svg" width="24" height="24" viewBox="0 0 24 24">
  <defs/>
  <path fill="#2D264B" d="M12,1.25 C9.377,1.25 7.25,3.377 7.25,6 L7.25,6.25 L4,6.25 C3.586,6.25 3.25,6.586 3.25,7 C3.25,7.414 3.586,7.75 4,7.75 L20,7.75 C20.414,7.75 20.75,7.414 20.75,7 C20.75,6.586 20.414,6.25 20,6.25 L16.75,6.25 L16.75,6 C16.75,3.377 14.623,1.25 12,1.25 Z"/>
  <path fill="#2D264B" d="M18.517,12.78 L18.255,14.665 C17.97,16.713 17.827,17.738 17.525,18.56 C16.96,20.099 15.983,21.245 14.816,21.737 C14.193,22 13.462,22 12,22 C10.538,22 9.807,22 9.184,21.737 C8.017,21.245 7.04,20.099 6.475,18.56 C6.173,17.738 6.03,16.713 5.745,14.665 L5.483,12.78 C5.402,12.199 5.328,11.669 5.263,11.183 C5.128,10.183 5.061,9.684 5.359,9.342 C5.658,9 6.172,9 7.199,9 L16.801,9 C17.828,9 18.342,9 18.641,9.342 C18.939,9.684 18.872,10.183 18.737,11.183 C18.672,11.669 18.598,12.2 18.517,12.78 Z"/>
</svg>

