<svg width="24" height="24" viewBox="0 0 24 24" fill="none" xmlns="http://www.w3.org/2000/svg">
<path fill-rule="evenodd" clip-rule="evenodd" d="M18.2549 14.6645L18.5172 12.7795C18.5979 12.1995 18.6717 11.6693 18.7373 11.1829C18.8721 10.1834 18.9395 9.68367 18.6406 9.34184C18.3418 9 17.8282 9 16.801 9H7.19905C6.17182 9 5.65821 9 5.35938 9.34184C5.06054 9.68367 5.12793 10.1834 5.26272 11.1829C5.32833 11.6695 5.40207 12.1993 5.48281 12.7795L5.74515 14.6645C6.03026 16.7132 6.17282 17.7376 6.47509 18.5603C7.04034 20.0988 8.01744 21.2447 9.18366 21.7368C9.8073 22 10.5382 22 12 22C13.4618 22 14.1927 22 14.8164 21.7368C15.9826 21.2447 16.9597 20.0988 17.5249 18.5603C17.8272 17.7376 17.9698 16.7132 18.2549 14.6645ZM10.75 11C10.75 10.5858 10.4142 10.25 10 10.25C9.58579 10.25 9.25 10.5858 9.25 11V19C9.25 19.4142 9.58579 19.75 10 19.75C10.4142 19.75 10.75 19.4142 10.75 19V11ZM14.75 11C14.75 10.5858 14.4142 10.25 14 10.25C13.5858 10.25 13.25 10.5858 13.25 11V19C13.25 19.4142 13.5858 19.75 14 19.75C14.4142 19.75 14.75 19.4142 14.75 19V11Z" fill="#2D264B"/>
<path d="M12 1.25C9.37665 1.25 7.25 3.37665 7.25 6V6.25H4C3.58579 6.25 3.25 6.58579 3.25 7C3.25 7.41421 3.58579 7.75 4 7.75H20C20.4142 7.75 20.75 7.41421 20.75 7C20.75 6.58579 20.4142 6.25 20 6.25H16.75V6C16.75 3.37665 14.6234 1.25 12 1.25Z" fill="#2D264B"/>
</svg>
