<svg width="24" height="24" viewBox="0 0 24 24" fill="none" xmlns="http://www.w3.org/2000/svg">
<path d="M12 1.25C9.37665 1.25 7.25 3.37665 7.25 6V6.25H4C3.58579 6.25 3.25 6.58579 3.25 7C3.25 7.41421 3.58579 7.75 4 7.75H20C20.4142 7.75 20.75 7.41421 20.75 7C20.75 6.58579 20.4142 6.25 20 6.25H16.75V6C16.75 3.37665 14.6234 1.25 12 1.25Z" fill="#2D264B"/>
<path d="M18.5172 12.7795L18.2549 14.6645C17.9697 16.7132 17.8272 17.7376 17.5249 18.5603C16.9597 20.0988 15.9826 21.2447 14.8164 21.7368C14.1927 22 13.4618 22 12 22C10.5382 22 9.80729 22 9.18365 21.7368C8.01742 21.2447 7.04033 20.0988 6.47508 18.5603C6.17281 17.7376 6.03025 16.7133 5.74514 14.6645L5.4828 12.7795C5.40206 12.1993 5.32832 11.6695 5.26271 11.1829C5.12792 10.1834 5.06053 9.68367 5.35936 9.34184C5.6582 9 6.17181 9 7.19903 9H16.801C17.8282 9 18.3418 9 18.6406 9.34184C18.9395 9.68367 18.8721 10.1834 18.7373 11.1829C18.6717 11.6693 18.5979 12.1995 18.5172 12.7795Z" fill="#2D264B"/>
</svg>
