<svg xmlns="http://www.w3.org/2000/svg" width="24" height="24" viewBox="0 0 24 24">
  <defs/>
  <path fill="#2D264B" d="M5.747,8.929 C5.707,8.517 5.341,8.214 4.929,8.253 C4.517,8.293 4.214,8.659 4.253,9.071 L5.747,8.929 Z M19.747,9.071 C19.786,8.659 19.483,8.293 19.071,8.253 C18.659,8.214 18.293,8.517 18.253,8.929 L19.747,9.071 Z M20,7.75 C20.414,7.75 20.75,7.414 20.75,7 C20.75,6.586 20.414,6.25 20,6.25 L20,7.75 Z M4,6.25 C3.586,6.25 3.25,6.586 3.25,7 C3.25,7.414 3.586,7.75 4,7.75 L4,6.25 Z M16,7 L16,7.75 L16.75,7.75 L16.75,7 L16,7 Z M8,7 L7.25,7 L7.25,7.75 L8,7.75 L8,7 Z M17.774,12.676 L17.512,14.561 L18.998,14.768 L19.26,12.883 L17.774,12.676 Z M6.488,14.561 L6.226,12.676 L4.74,12.883 L5.002,14.768 L6.488,14.561 Z M12,21.25 C10.471,21.25 9.925,21.236 9.475,21.046 L8.892,22.428 C9.689,22.764 10.606,22.75 12,22.75 L12,21.25 Z M5.002,14.768 C5.282,16.778 5.434,17.902 5.771,18.819 L7.179,18.302 C6.912,17.574 6.779,16.649 6.488,14.561 L5.002,14.768 Z M9.475,21.046 C8.553,20.657 7.695,19.706 7.179,18.302 L5.771,18.819 C6.386,20.492 7.482,21.833 8.892,22.428 L9.475,21.046 Z M17.512,14.561 C17.221,16.649 17.088,17.574 16.821,18.302 L18.229,18.819 C18.566,17.902 18.718,16.778 18.998,14.768 L17.512,14.561 Z M12,22.75 C13.394,22.75 14.311,22.764 15.108,22.428 L14.525,21.046 C14.075,21.236 13.529,21.25 12,21.25 L12,22.75 Z M16.821,18.302 C16.305,19.706 15.447,20.657 14.525,21.046 L15.108,22.428 C16.518,21.833 17.614,20.492 18.229,18.819 L16.821,18.302 Z M6.226,12.676 C6.004,11.08 5.838,9.887 5.747,8.929 L4.253,9.071 C4.348,10.069 4.52,11.3 4.74,12.883 L6.226,12.676 Z M19.26,12.883 C19.48,11.3 19.652,10.069 19.747,9.071 L18.253,8.929 C18.162,9.887 17.997,11.08 17.774,12.676 L19.26,12.883 Z M20,6.25 L4,6.25 L4,7.75 L20,7.75 L20,6.25 Z M15.25,6 L15.25,7 L16.75,7 L16.75,6 L15.25,6 Z M16,6.25 L8,6.25 L8,7.75 L16,7.75 L16,6.25 Z M8.75,7 L8.75,6 L7.25,6 L7.25,7 L8.75,7 Z M12,2.75 C13.795,2.75 15.25,4.205 15.25,6 L16.75,6 C16.75,3.377 14.623,1.25 12,1.25 L12,2.75 Z M12,1.25 C9.377,1.25 7.25,3.377 7.25,6 L8.75,6 C8.75,4.205 10.205,2.75 12,2.75 L12,1.25 Z"/>
</svg>

