<svg xmlns="http://www.w3.org/2000/svg" width="24" height="24" viewBox="0 0 24 24">
  <defs/>
  <path fill="#2D264B" d="M18.255,14.665 C17.97,16.713 17.827,17.738 17.525,18.56 C16.96,20.099 15.983,21.245 14.816,21.737 C14.193,22 13.462,22 12,22 C10.538,22 9.807,22 9.184,21.737 C8.017,21.245 7.04,20.099 6.475,18.56 C6.173,17.738 6.03,16.713 5.745,14.665 L5.483,12.78 C5.402,12.199 5.328,11.67 5.263,11.183 C5.128,10.183 5.061,9.684 5.359,9.342 C5.658,9 6.172,9 7.199,9 L16.801,9 C17.828,9 18.342,9 18.641,9.342 C18.939,9.684 18.872,10.183 18.737,11.183 C18.672,11.669 18.598,12.2 18.517,12.78 Z M10.75,11 C10.75,10.586 10.414,10.25 10,10.25 C9.586,10.25 9.25,10.586 9.25,11 L9.25,19 C9.25,19.414 9.586,19.75 10,19.75 C10.414,19.75 10.75,19.414 10.75,19 Z M14.75,11 C14.75,10.586 14.414,10.25 14,10.25 C13.586,10.25 13.25,10.586 13.25,11 L13.25,19 C13.25,19.414 13.586,19.75 14,19.75 C14.414,19.75 14.75,19.414 14.75,19 Z"/>
  <path fill="#2D264B" d="M12,1.25 C9.377,1.25 7.25,3.377 7.25,6 L7.25,6.25 L4,6.25 C3.586,6.25 3.25,6.586 3.25,7 C3.25,7.414 3.586,7.75 4,7.75 L20,7.75 C20.414,7.75 20.75,7.414 20.75,7 C20.75,6.586 20.414,6.25 20,6.25 L16.75,6.25 L16.75,6 C16.75,3.377 14.623,1.25 12,1.25 Z"/>
</svg>

