<svg xmlns="http://www.w3.org/2000/svg" width="24" height="24" viewBox="0 0 24 24">
  <defs/>
  <path fill="#2D264B" d="M6.862,3.1 L6.862,3.1 Q10.328,1.099 11.715,1.031 Q12,1.016 12.285,1.031 Q13.672,1.099 17.138,3.1 L17.138,3.1 Q20.604,5.101 21.357,6.268 Q21.512,6.508 21.643,6.762 Q22.276,7.998 22.276,12 Q22.276,16.002 21.643,17.238 Q21.512,17.493 21.357,17.732 Q20.604,18.898 17.138,20.899 L17.138,20.899 Q13.673,22.9 12.285,22.969 Q12,22.984 11.715,22.969 Q10.328,22.9 6.862,20.899 L6.862,20.899 Q3.396,18.898 2.643,17.732 Q2.488,17.492 2.358,17.238 Q1.724,16.002 1.724,12 Q1.724,7.998 2.358,6.762 Q2.488,6.508 2.643,6.268 Q3.396,5.101 6.862,3.1 Z M7.612,4.399 Q4.46,6.219 3.903,7.082 Q3.789,7.259 3.692,7.447 Q3.224,8.36 3.224,12 Q3.224,15.64 3.692,16.553 Q3.789,16.741 3.903,16.918 Q4.46,17.781 7.612,19.6 L7.612,19.6 Q10.764,21.42 11.789,21.471 Q12,21.482 12.211,21.471 Q13.236,21.42 16.388,19.6 L16.388,19.6 Q19.54,17.781 20.097,16.918 Q20.211,16.742 20.308,16.553 Q20.776,15.64 20.776,12 Q20.776,8.36 20.308,7.447 Q20.211,7.259 20.097,7.082 Q19.54,6.219 16.388,4.399 L16.388,4.399 Q13.236,2.58 12.211,2.529 Q12,2.518 11.789,2.529 Q10.764,2.58 7.612,4.399 Z"/>
  <path fill="#2D264B" d="M9.323,10.818 Q9.759,9.759 10.819,9.322 L13.495,8.22 Q14.574,7.776 15.399,8.601 Q16.224,9.426 15.78,10.505 L14.678,13.182 Q14.241,14.241 13.182,14.677 L10.505,15.78 Q9.426,16.224 8.601,15.399 Q7.776,14.574 8.22,13.495 L9.323,10.818 Z M10.71,11.389 L9.607,14.066 Q9.544,14.22 9.662,14.338 Q9.78,14.456 9.934,14.393 L12.611,13.29 Q13.092,13.092 13.29,12.61 L14.393,9.934 Q14.456,9.78 14.338,9.662 Q14.221,9.544 14.066,9.607 L11.389,10.71 Q10.908,10.908 10.71,11.389 Z"/>
</svg>

