<svg width="24" height="24" viewBox="0 0 24 24" fill="none" xmlns="http://www.w3.org/2000/svg">
<path fill-rule="evenodd" clip-rule="evenodd" d="M8.43562 2.75683C9.45899 -0.829098 14.5409 -0.829098 15.5643 2.75683C15.8911 3.90199 17.0676 4.58125 18.2228 4.2917C21.84 3.385 24.381 7.78611 21.7872 10.4653C20.9588 11.3209 20.9588 12.6795 21.7872 13.5351C24.381 16.2143 21.84 20.6154 18.2228 19.7087C17.0676 19.4192 15.8911 20.0984 15.5643 21.2436C14.5409 24.8295 9.45899 24.8295 8.43562 21.2436C8.1088 20.0984 6.93229 19.4192 5.77714 19.7087C2.15995 20.6154 -0.381026 16.2143 2.21279 13.5351C3.04112 12.6795 3.04112 11.3209 2.21279 10.4653C-0.381025 7.78611 2.15995 3.385 5.77714 4.2917C6.93229 4.58125 8.1088 3.90199 8.43562 2.75683ZM15.1872 8.81302C15.4801 9.10592 15.4801 9.58079 15.1872 9.87368L9.53033 15.5305C9.23744 15.8234 8.76256 15.8234 8.46967 15.5305C8.17678 15.2376 8.17678 14.7628 8.46967 14.4699L14.1265 8.81302C14.4194 8.52013 14.8943 8.52013 15.1872 8.81302ZM9 10.0002C8.44772 10.0002 8 9.55253 8 9.00024C8 8.44796 8.44772 8.00024 9 8.00024C9.55228 8.00024 10 8.44796 10 9.00024C10 9.55253 9.55228 10.0002 9 10.0002ZM15 16.0002C14.4477 16.0002 14 15.5525 14 15.0002C14 14.448 14.4477 14.0002 15 14.0002C15.5523 14.0002 16 14.448 16 15.0002C16 15.5525 15.5523 16.0002 15 16.0002Z" fill="#2D264B"/>
</svg>
