<svg xmlns="http://www.w3.org/2000/svg" width="24" height="24" viewBox="0 0 24 24">
  <defs/>
  <path fill="#2D264B" d="M1.25,12 C1.25,6.063 6.063,1.25 12,1.25 C17.937,1.25 22.75,6.063 22.75,12 C22.75,17.937 17.937,22.75 12,22.75 C6.063,22.75 1.25,17.937 1.25,12 Z M15.187,8.813 C14.894,8.52 14.419,8.52 14.127,8.813 L8.47,14.47 C8.177,14.763 8.177,15.237 8.47,15.53 C8.763,15.823 9.237,15.823 9.53,15.53 L15.187,9.873 C15.48,9.581 15.48,9.106 15.187,8.813 Z M15,16 C15.552,16 16,15.552 16,15 C16,14.448 15.552,14 15,14 C14.448,14 14,14.448 14,15 C14,15.552 14.448,16 15,16 Z M9,10 C9.552,10 10,9.552 10,9 C10,8.448 9.552,8 9,8 C8.448,8 8,8.448 8,9 C8,9.552 8.448,10 9,10 Z"/>
</svg>

