<svg width="24" height="24" viewBox="0 0 24 24" fill="none" xmlns="http://www.w3.org/2000/svg">
<path fill-rule="evenodd" clip-rule="evenodd" d="M11.7148 1.03051C11.9048 1.02108 12.0951 1.02108 12.285 1.03051C13.0184 1.06692 13.6936 1.28001 14.4462 1.62929C15.1789 1.96931 16.0304 2.46089 17.1075 3.0828L17.1685 3.11801C18.2457 3.73991 19.0972 4.2315 19.758 4.69604C20.4368 5.17323 20.9589 5.65139 21.3571 6.26829C21.4603 6.42809 21.5555 6.59292 21.6423 6.76215C21.9774 7.41546 22.1305 8.10672 22.2043 8.93318C22.2762 9.73774 22.2762 10.7209 22.2762 11.9647V12.0351C22.2762 13.2789 22.2762 14.2621 22.2043 15.0667C22.1305 15.8931 21.9774 16.5844 21.6423 17.2377C21.5555 17.407 21.4603 17.5718 21.3571 17.7316C20.9589 18.3485 20.4368 18.8266 19.758 19.3038C19.0972 19.7684 18.2457 20.2599 17.1686 20.8818L17.1076 20.9171C16.0304 21.539 15.179 22.0306 14.4462 22.3706C13.6936 22.7199 13.0184 22.9329 12.285 22.9694C12.0951 22.9788 11.9048 22.9788 11.7148 22.9694C10.9814 22.9329 10.3063 22.7199 9.5536 22.3706C8.82087 22.0306 7.96944 21.539 6.89226 20.9171L6.83121 20.8818C5.75413 20.26 4.90262 19.7683 4.24182 19.3038C3.56301 18.8266 3.04089 18.3485 2.64268 17.7316C2.53952 17.5718 2.44436 17.407 2.35755 17.2377C2.0224 16.5844 1.86936 15.8931 1.79551 15.0667C1.72362 14.2621 1.72363 13.279 1.72363 12.0352V11.9647C1.72363 10.7209 1.72362 9.73775 1.79551 8.93318C1.86936 8.10672 2.0224 7.41546 2.35755 6.76215C2.44437 6.59292 2.53952 6.4281 2.64268 6.26829C3.04089 5.65139 3.56301 5.17323 4.24182 4.69604C4.90266 4.2315 5.7541 3.73993 6.83127 3.11803L6.89228 3.0828C7.96945 2.46089 8.82088 1.96931 9.5536 1.62929C10.3063 1.28001 10.9814 1.06692 11.7148 1.03051ZM15.1871 8.81275C15.48 9.10564 15.48 9.58052 15.1871 9.87341L9.53021 15.5303C9.23731 15.8232 8.76244 15.8232 8.46955 15.5303C8.17665 15.2374 8.17665 14.7625 8.46955 14.4696L14.1264 8.81275C14.4193 8.51986 14.8942 8.51986 15.1871 8.81275ZM9 9.99988C8.44772 9.99988 8 9.55216 8 8.99988C8 8.44759 8.44772 7.99988 9 7.99988C9.55228 7.99988 10 8.44759 10 8.99988C10 9.55216 9.55228 9.99988 9 9.99988ZM15 15.9999C14.4477 15.9999 14 15.5522 14 14.9999C14 14.4476 14.4477 13.9999 15 13.9999C15.5523 13.9999 16 14.4476 16 14.9999C16 15.5522 15.5523 15.9999 15 15.9999Z" fill="#2D264B"/>
</svg>
