<svg xmlns="http://www.w3.org/2000/svg" width="24" height="24" viewBox="0 0 24 24">
  <defs/>
  <path fill="#2D264B" d="M8.47,14.47 C8.177,14.763 8.177,15.238 8.47,15.53 C8.763,15.823 9.237,15.823 9.53,15.53 L8.47,14.47 Z M15.187,9.874 C15.48,9.581 15.48,9.106 15.187,8.813 C14.894,8.52 14.419,8.52 14.127,8.813 L15.187,9.874 Z M9.53,15.53 L15.187,9.874 L14.127,8.813 L8.47,14.47 L9.53,15.53 Z M5.412,5.747 C7.353,6.233 9.329,5.092 9.878,3.168 L8.436,2.757 C8.109,3.902 6.932,4.581 5.777,4.292 L5.412,5.747 Z M3.29,9.422 C1.746,7.827 3.259,5.207 5.412,5.747 L5.777,4.292 C2.16,3.385 -0.381,7.786 2.213,10.465 L3.29,9.422 Z M3.29,14.578 C4.682,13.141 4.682,10.859 3.29,9.422 L2.213,10.465 C3.041,11.321 3.041,12.68 2.213,13.535 L3.29,14.578 Z M5.412,18.254 C3.259,18.794 1.746,16.173 3.29,14.578 L2.213,13.535 C-0.381,16.214 2.16,20.615 5.777,19.709 L5.412,18.254 Z M9.878,20.832 C9.329,18.908 7.353,17.767 5.412,18.254 L5.777,19.709 C6.932,19.419 8.109,20.098 8.436,21.244 L9.878,20.832 Z M14.122,20.832 C13.513,22.967 10.487,22.967 9.878,20.832 L8.436,21.244 C9.459,24.829 14.541,24.829 15.564,21.244 L14.122,20.832 Z M18.587,18.254 C16.647,17.767 14.671,18.908 14.122,20.832 L15.564,21.244 C15.891,20.098 17.068,19.419 18.223,19.709 L18.587,18.254 Z M20.709,14.578 C22.254,16.173 20.741,18.794 18.587,18.254 L18.223,19.709 C21.84,20.615 24.381,16.214 21.787,13.535 L20.709,14.578 Z M20.709,9.422 C19.318,10.859 19.318,13.141 20.709,14.578 L21.787,13.535 C20.959,12.68 20.959,11.321 21.787,10.465 L20.709,9.422 Z M18.587,5.747 C20.741,5.207 22.254,7.827 20.709,9.422 L21.787,10.465 C24.381,7.786 21.84,3.385 18.223,4.292 L18.587,5.747 Z M14.122,3.168 C14.671,5.092 16.647,6.233 18.587,5.747 L18.223,4.292 C17.068,4.581 15.891,3.902 15.564,2.757 L14.122,3.168 Z M15.564,2.757 C14.541,-0.829 9.459,-0.829 8.436,2.757 L9.878,3.168 C10.487,1.034 13.513,1.034 14.122,3.168 L15.564,2.757 Z"/>
  <path fill="#2D264B" d="M8,9 C8,9.552 8.448,10 9,10 C9.552,10 10,9.552 10,9 C10,8.448 9.552,8 9,8 C8.448,8 8,8.448 8,9 Z"/>
  <path fill="#2D264B" d="M14,15 C14,15.552 14.448,16 15,16 C15.552,16 16,15.552 16,15 C16,14.448 15.552,14 15,14 C14.448,14 14,14.448 14,15 Z"/>
</svg>

