<svg xmlns="http://www.w3.org/2000/svg" width="24" height="24" viewBox="0 0 24 24">
  <defs/>
  <path fill="#2D264B" d="M20.899,6.862 Q22.9,10.328 22.969,11.715 Q22.984,12 22.969,12.285 Q22.9,13.672 20.899,17.138 Q18.898,20.604 17.732,21.357 Q17.492,21.512 17.238,21.642 Q16.002,22.276 12,22.276 Q7.998,22.276 6.762,21.642 Q6.509,21.512 6.268,21.357 Q5.101,20.604 3.1,17.138 L3.1,17.138 Q1.099,13.672 1.031,12.285 Q1.016,12 1.031,11.715 Q1.099,10.328 3.1,6.862 Q5.101,3.396 6.268,2.643 Q6.508,2.488 6.762,2.358 Q7.998,1.724 12,1.724 Q16.002,1.724 17.238,2.358 Q17.493,2.488 17.732,2.643 Q18.898,3.396 20.899,6.862 Z M19.6,7.612 Q17.781,4.46 16.918,3.903 Q16.741,3.789 16.553,3.692 Q15.64,3.224 12,3.224 Q8.36,3.224 7.447,3.692 Q7.259,3.789 7.082,3.903 Q6.219,4.46 4.399,7.612 Q2.58,10.764 2.529,11.789 Q2.518,12 2.529,12.211 Q2.58,13.236 4.399,16.388 L4.399,16.388 Q6.219,19.54 7.082,20.097 Q7.259,20.212 7.447,20.308 Q8.36,20.776 12,20.776 Q15.64,20.776 16.553,20.308 Q16.741,20.211 16.918,20.097 Q17.781,19.54 19.6,16.388 Q21.42,13.236 21.471,12.211 Q21.482,12 21.471,11.789 Q21.42,10.764 19.6,7.612 Z"/>
  <path fill="#2D264B" d="M9.322,10.818 Q9.759,9.759 10.818,9.322 L13.495,8.22 Q14.574,7.776 15.399,8.601 Q16.224,9.426 15.78,10.505 L14.677,13.182 Q14.241,14.241 13.182,14.677 L10.505,15.78 Q9.426,16.224 8.601,15.399 Q7.776,14.574 8.22,13.495 Z M10.71,11.389 L9.607,14.066 Q9.544,14.22 9.662,14.338 Q9.779,14.456 9.934,14.393 L12.61,13.29 Q13.092,13.092 13.29,12.61 L14.393,9.933 Q14.456,9.779 14.338,9.662 Q14.22,9.544 14.066,9.607 L11.389,10.71 Q10.908,10.908 10.71,11.389 Z"/>
</svg>

