<svg width="24" height="24" viewBox="0 0 24 24" fill="none" xmlns="http://www.w3.org/2000/svg">
<path fill-rule="evenodd" clip-rule="evenodd" d="M12.0351 1.72363C13.279 1.72363 14.2621 1.72362 15.0667 1.79551C15.8931 1.86936 16.5844 2.0224 17.2377 2.35755C17.407 2.44437 17.5718 2.53953 17.7316 2.64268C18.3485 3.04089 18.8266 3.56301 19.3038 4.24182C19.7684 4.90266 20.26 5.75411 20.8819 6.83129L20.917 6.89225C21.539 7.96943 22.0306 8.82087 22.3706 9.5536C22.7199 10.3063 22.9329 10.9814 22.9694 11.7148C22.9788 11.9048 22.9788 12.0951 22.9694 12.285C22.9329 13.0184 22.7199 13.6936 22.3706 14.4462C22.0306 15.179 21.539 16.0304 20.9171 17.1076L20.8818 17.1686C20.2599 18.2457 19.7684 19.0972 19.3038 19.758C18.8266 20.4368 18.3485 20.9589 17.7316 21.3571C17.5718 21.4603 17.407 21.5555 17.2377 21.6423C16.5844 21.9774 15.8932 22.1305 15.0667 22.2043C14.2621 22.2762 13.279 22.2762 12.0352 22.2762H11.9647C10.7209 22.2762 9.73774 22.2762 8.93318 22.2043C8.10672 22.1305 7.41547 21.9774 6.76215 21.6423C6.59292 21.5555 6.4281 21.4603 6.2683 21.3571C5.65139 20.9589 5.17323 20.4368 4.69604 19.758C4.2315 19.0972 3.73994 18.2458 3.11805 17.1686L3.0828 17.1075C2.4609 16.0304 1.96931 15.1789 1.62929 14.4462C1.28001 13.6936 1.06692 13.0184 1.03051 12.285C1.02108 12.0951 1.02108 11.9048 1.03051 11.7148C1.06692 10.9814 1.28001 10.3063 1.62929 9.5536C1.96931 8.82088 2.46089 7.96945 3.0828 6.89228L3.11803 6.83127C3.73993 5.7541 4.2315 4.90266 4.69604 4.24182C5.17323 3.56301 5.65139 3.04089 6.26829 2.64268C6.4281 2.53953 6.59292 2.44437 6.76215 2.35755C7.41546 2.0224 8.10672 1.86936 8.93318 1.79551C9.73775 1.72362 10.7209 1.72363 11.9647 1.72363H12.0351ZM15.1871 8.81273C15.48 9.10562 15.48 9.5805 15.1871 9.87339L9.53021 15.5302C9.23732 15.8231 8.76244 15.8231 8.46955 15.5302C8.17665 15.2374 8.17665 14.7625 8.46955 14.4696L14.1264 8.81273C14.4193 8.51984 14.8942 8.51984 15.1871 8.81273ZM9 9.99988C8.44772 9.99988 8 9.55216 8 8.99988C8 8.44759 8.44772 7.99988 9 7.99988C9.55228 7.99988 10 8.44759 10 8.99988C10 9.55216 9.55228 9.99988 9 9.99988ZM15 15.9999C14.4477 15.9999 14 15.5522 14 14.9999C14 14.4476 14.4477 13.9999 15 13.9999C15.5523 13.9999 16 14.4476 16 14.9999C16 15.5522 15.5523 15.9999 15 15.9999Z" fill="#2D264B"/>
</svg>
