<svg xmlns="http://www.w3.org/2000/svg" width="24" height="24" viewBox="0 0 24 24">
  <defs/>
  <path fill="#2D264B" d="M14.066,9.607 C14.272,9.523 14.477,9.728 14.393,9.934 L13.291,12.611 C13.164,12.919 12.919,13.164 12.611,13.29 L9.934,14.393 C9.728,14.477 9.523,14.272 9.607,14.066 L10.71,11.389 C10.837,11.081 11.081,10.836 11.39,10.71 L14.066,9.607 Z"/>
  <path fill="#2D264B" d="M12.285,1.031 C13.019,1.067 13.694,1.28 14.446,1.629 C15.179,1.969 16.031,2.461 17.108,3.083 L17.169,3.118 C18.246,3.74 19.097,4.232 19.758,4.696 C20.437,5.173 20.959,5.651 21.357,6.268 C21.461,6.428 21.556,6.593 21.642,6.762 C21.978,7.415 22.131,8.107 22.205,8.933 C22.276,9.738 22.276,10.721 22.276,11.965 L22.276,12.035 C22.276,13.279 22.276,14.262 22.205,15.067 C22.131,15.893 21.978,16.584 21.642,17.238 C21.556,17.407 21.461,17.572 21.357,17.732 C20.959,18.348 20.437,18.827 19.758,19.304 C19.097,19.768 18.246,20.26 17.169,20.882 L17.108,20.917 C16.031,21.539 15.179,22.031 14.446,22.371 C13.694,22.72 13.019,22.933 12.285,22.969 C12.095,22.979 11.905,22.979 11.715,22.969 C10.982,22.933 10.307,22.72 9.554,22.371 C8.821,22.031 7.97,21.539 6.892,20.917 L6.831,20.882 C5.754,20.26 4.903,19.768 4.242,19.304 C3.563,18.827 3.041,18.348 2.643,17.732 C2.54,17.572 2.445,17.407 2.358,17.238 C2.023,16.584 1.87,15.893 1.796,15.067 C1.724,14.262 1.724,13.279 1.724,12.035 L1.724,11.965 C1.724,10.721 1.724,9.738 1.796,8.933 C1.87,8.107 2.023,7.415 2.358,6.762 C2.445,6.593 2.54,6.428 2.643,6.268 C3.041,5.651 3.563,5.173 4.242,4.696 C4.903,4.232 5.754,3.74 6.832,3.118 L6.893,3.083 C7.97,2.461 8.821,1.969 9.554,1.629 C10.307,1.28 10.982,1.067 11.715,1.031 C11.905,1.021 12.095,1.021 12.285,1.031 Z M15.78,10.505 C16.372,9.066 14.934,7.628 13.495,8.22 L10.818,9.322 C10.14,9.602 9.602,10.14 9.323,10.818 L8.22,13.495 C7.628,14.934 9.067,16.372 10.505,15.78 L13.182,14.677 C13.86,14.398 14.398,13.86 14.678,13.182 Z"/>
</svg>

