<svg width="24" height="24" viewBox="0 0 24 24" fill="none" xmlns="http://www.w3.org/2000/svg">
<path d="M14.0665 9.60725C14.2719 9.52264 14.4774 9.72812 14.3928 9.93361L13.2906 12.6105C13.1636 12.9187 12.9189 13.1635 12.6107 13.2904L9.93378 14.3926C9.7283 14.4772 9.52281 14.2718 9.60742 14.0663L10.7097 11.3894C10.8366 11.0812 11.0813 10.8364 11.3896 10.7095L14.0665 9.60725Z" fill="#2D264B"/>
<path fill-rule="evenodd" clip-rule="evenodd" d="M12.2853 1.03051C12.0953 1.02108 11.905 1.02108 11.715 1.03051C10.9817 1.06692 10.3065 1.28001 9.55385 1.62929C8.82112 1.96931 7.96969 2.46089 6.89252 3.0828L6.83152 3.11803C5.75434 3.73993 4.9029 4.2315 4.24207 4.69604C3.56326 5.17323 3.04113 5.65139 2.64292 6.26829C2.53977 6.4281 2.44461 6.59292 2.35779 6.76215C2.02265 7.41546 1.8696 8.10672 1.79576 8.93318C1.72387 9.73775 1.72387 10.7209 1.72388 11.9647V12.0352C1.72387 13.279 1.72387 14.2621 1.79576 15.0667C1.8696 15.8931 2.02265 16.5844 2.35779 17.2377C2.44461 17.407 2.53977 17.5718 2.64292 17.7316C3.04113 18.3485 3.56326 18.8266 4.24207 19.3038C4.90286 19.7683 5.75423 20.2599 6.83131 20.8817L6.8925 20.9171C7.96968 21.539 8.82112 22.0306 9.55385 22.3706C10.3065 22.7199 10.9817 22.9329 11.715 22.9694C11.905 22.9788 12.0953 22.9788 12.2853 22.9694C13.0186 22.9329 13.6938 22.7199 14.4465 22.3706C15.1792 22.0306 16.0306 21.539 17.1078 20.9171L17.1688 20.8818C18.246 20.2599 19.0974 19.7684 19.7582 19.3038C20.4371 18.8266 20.9592 18.3485 21.3574 17.7316C21.4605 17.5718 21.5557 17.407 21.6425 17.2377C21.9777 16.5844 22.1307 15.8931 22.2046 15.0667C22.2764 14.2621 22.2764 13.279 22.2764 12.0352V11.9647C22.2764 10.7209 22.2764 9.73774 22.2046 8.93318C22.1307 8.10672 21.9777 7.41546 21.6425 6.76215C21.5557 6.59292 21.4605 6.42809 21.3574 6.26829C20.9592 5.65139 20.4371 5.17323 19.7582 4.69604C19.0974 4.2315 18.246 3.73993 17.1688 3.11803L17.1078 3.0828C16.0306 2.46089 15.1792 1.96931 14.4465 1.62929C13.6938 1.28001 13.0186 1.06692 12.2853 1.03051ZM15.7798 10.5047C16.3721 9.06635 14.9337 7.62796 13.4953 8.22024L10.8184 9.32248C10.1404 9.6017 9.60186 10.1402 9.32265 10.8183L8.2204 13.4952C7.62813 14.9335 9.06651 16.3719 10.5049 15.7797L13.1818 14.6774C13.8599 14.3982 14.3984 13.8597 14.6776 13.1816L15.7798 10.5047Z" fill="#2D264B"/>
</svg>
