<svg xmlns="http://www.w3.org/2000/svg" width="24" height="24" viewBox="0 0 24 24">
  <defs/>
  <path fill="#2D264B" d="M8.436,2.757 C9.459,-0.829 14.541,-0.829 15.564,2.757 C15.891,3.902 17.068,4.581 18.223,4.292 C21.84,3.385 24.381,7.786 21.787,10.465 C20.959,11.321 20.959,12.679 21.787,13.535 C24.381,16.214 21.84,20.615 18.223,19.709 C17.068,19.419 15.891,20.098 15.564,21.244 C14.541,24.83 9.459,24.83 8.436,21.244 C8.109,20.098 6.932,19.419 5.777,19.709 C2.16,20.615 -0.381,16.214 2.213,13.535 C3.041,12.679 3.041,11.321 2.213,10.465 C-0.381,7.786 2.16,3.385 5.777,4.292 C6.932,4.581 8.109,3.902 8.436,2.757 Z M15.187,8.813 C14.894,8.52 14.419,8.52 14.127,8.813 L8.47,14.47 C8.177,14.763 8.177,15.238 8.47,15.531 C8.763,15.823 9.237,15.823 9.53,15.531 L15.187,9.874 C15.48,9.581 15.48,9.106 15.187,8.813 Z M15,16 C15.552,16 16,15.552 16,15 C16,14.448 15.552,14 15,14 C14.448,14 14,14.448 14,15 C14,15.552 14.448,16 15,16 Z M9,10 C9.552,10 10,9.553 10,9 C10,8.448 9.552,8 9,8 C8.448,8 8,8.448 8,9 C8,9.553 8.448,10 9,10 Z"/>
</svg>

