<svg width="24" height="24" viewBox="0 0 24 24" fill="none" xmlns="http://www.w3.org/2000/svg">
<path d="M14.0663 9.60722C14.2718 9.52261 14.4773 9.72809 14.3927 9.93358L13.2904 12.6105C13.1635 12.9187 12.9188 13.1634 12.6105 13.2904L9.93365 14.3926C9.72817 14.4772 9.52269 14.2717 9.6073 14.0662L10.7095 11.3894C10.8365 11.0811 11.0812 10.8364 11.3895 10.7095L14.0663 9.60722Z" fill="#2D264B"/>
<path fill-rule="evenodd" clip-rule="evenodd" d="M15.0667 1.79551C14.2621 1.72362 13.279 1.72363 12.0352 1.72363H11.9647C10.7209 1.72363 9.73775 1.72362 8.93318 1.79551C8.10672 1.86936 7.41547 2.0224 6.76215 2.35755C6.59292 2.44437 6.4281 2.53952 6.2683 2.64268C5.65139 3.04089 5.17323 3.56301 4.69604 4.24182C4.2315 4.90266 3.73993 5.7541 3.11803 6.83127L3.08281 6.89227C2.4609 7.96944 1.96931 8.82087 1.62929 9.5536C1.28001 10.3063 1.06692 10.9814 1.03051 11.7148C1.02108 11.9048 1.02108 12.0951 1.03051 12.285C1.06692 13.0184 1.28001 13.6936 1.62929 14.4462C1.9693 15.1789 2.46087 16.0303 3.08275 17.1075L3.11801 17.1685C3.73991 18.2457 4.2315 19.0972 4.69604 19.758C5.17323 20.4368 5.65139 20.9589 6.26829 21.3571C6.42809 21.4603 6.59292 21.5555 6.76215 21.6423C7.41546 21.9774 8.10672 22.1305 8.93318 22.2043C9.73774 22.2762 10.7209 22.2762 11.9647 22.2762H12.0351C13.2789 22.2762 14.2621 22.2762 15.0667 22.2043C15.8931 22.1305 16.5844 21.9774 17.2377 21.6423C17.4069 21.5555 17.5718 21.4603 17.7316 21.3571C18.3485 20.9589 18.8266 20.4368 19.3038 19.758C19.7684 19.0972 20.2599 18.2458 20.8818 17.1686L20.9171 17.1076C21.539 16.0304 22.0306 15.179 22.3706 14.4462C22.7199 13.6936 22.9329 13.0184 22.9694 12.285C22.9788 12.0951 22.9788 11.9048 22.9694 11.7148C22.9329 10.9814 22.7199 10.3063 22.3706 9.5536C22.0306 8.82087 21.539 7.96943 20.917 6.89225L20.8818 6.83121C20.2599 5.75406 19.7684 4.90265 19.3038 4.24182C18.8266 3.56301 18.3485 3.04089 17.7316 2.64268C17.5718 2.53953 17.407 2.44437 17.2377 2.35755C16.5844 2.0224 15.8932 1.86936 15.0667 1.79551ZM15.7797 10.5047C16.372 9.06632 14.9336 7.62793 13.4952 8.22021L10.8183 9.32245C10.1402 9.60166 9.60174 10.1402 9.32253 10.8182L8.22028 13.4951C7.62801 14.9335 9.06639 16.3719 10.5048 15.7796L13.1817 14.6774C13.8598 14.3982 14.3982 13.8597 14.6775 13.1816L15.7797 10.5047Z" fill="#2D264B"/>
</svg>
