<svg width="24" height="24" viewBox="0 0 24 24" fill="none" xmlns="http://www.w3.org/2000/svg">
<path d="M20.2499 7.23677C21.5236 9.44278 22.1604 10.5458 22.2203 11.752C22.2285 11.9172 22.2285 12.0827 22.2203 12.2479C22.1604 13.454 21.5236 14.557 20.2499 16.7631C18.9763 18.9691 18.3395 20.0721 17.3248 20.727C17.1859 20.8167 17.0425 20.8995 16.8954 20.975C15.8209 21.5262 14.5472 21.5262 11.9999 21.5262C9.45265 21.5262 8.17901 21.5262 7.10448 20.975C6.95732 20.8995 6.814 20.8167 6.67504 20.727C5.6604 20.0721 5.02357 18.9691 3.74993 16.7631C2.47629 14.557 1.83947 13.454 1.77959 12.2478C1.77139 12.0827 1.77139 11.9172 1.77959 11.752C1.83947 10.5458 2.47629 9.44278 3.74994 7.23677C5.02358 5.03076 5.6604 3.92776 6.67504 3.2728C6.814 3.1831 6.95732 3.10036 7.10448 3.02486C8.17901 2.47363 9.45265 2.47363 11.9999 2.47363C14.5472 2.47363 15.8209 2.47363 16.8954 3.02486C17.0425 3.10036 17.1859 3.1831 17.3248 3.2728C18.3395 3.92776 18.9763 5.03076 20.2499 7.23677Z" stroke="#2D264B" stroke-width="1.5"/>
<path d="M10.016 11.1038C10.219 10.6106 10.6107 10.219 11.1038 10.016L13.7807 8.91371C14.6026 8.57527 15.4246 9.3972 15.0861 10.2191L13.9839 12.896C13.7808 13.3892 13.3892 13.7808 12.896 13.9839L10.2192 15.0861C9.39722 15.4246 8.57529 14.6026 8.91373 13.7807L10.016 11.1038Z" stroke="#2D264B" stroke-width="1.5"/>
</svg>
