<svg width="24" height="24" viewBox="0 0 24 24" fill="none" xmlns="http://www.w3.org/2000/svg">
<path fill-rule="evenodd" clip-rule="evenodd" d="M12.0452 2.25C13.8818 2.24999 15.3214 2.24999 16.4635 2.37373C17.6291 2.50001 18.5734 2.76232 19.3798 3.34815C19.8679 3.70281 20.2972 4.13209 20.6518 4.62024C21.2377 5.42656 21.5 6.37094 21.6263 7.53648C21.75 8.67859 21.75 10.1182 21.75 11.9547V12.0453C21.75 13.8818 21.75 15.3214 21.6263 16.4635C21.5 17.6291 21.2377 18.5734 20.6518 19.3798C20.2972 19.8679 19.8679 20.2972 19.3798 20.6518C18.5734 21.2377 17.6291 21.5 16.4635 21.6263C15.3214 21.75 13.8818 21.75 12.0453 21.75H11.9547C10.1182 21.75 8.67859 21.75 7.53648 21.6263C6.37094 21.5 5.42656 21.2377 4.62024 20.6518C4.13209 20.2972 3.70281 19.8679 3.34815 19.3798C2.76232 18.5734 2.50001 17.6291 2.37373 16.4635C2.24999 15.3214 2.24999 13.8818 2.25 12.0452V11.9548C2.24999 10.1182 2.24999 8.67861 2.37373 7.53648C2.50001 6.37094 2.76232 5.42656 3.34815 4.62024C3.70281 4.13209 4.13209 3.70281 4.62024 3.34815C5.42656 2.76232 6.37094 2.50001 7.53648 2.37373C8.67861 2.24999 10.1182 2.24999 11.9548 2.25H12.0452ZM15.1872 8.81282C15.4801 9.10571 15.4801 9.58058 15.1872 9.87348L9.53033 15.5303C9.23744 15.8232 8.76256 15.8232 8.46967 15.5303C8.17678 15.2374 8.17678 14.7626 8.46967 14.4697L14.1265 8.81282C14.4194 8.51992 14.8943 8.51992 15.1872 8.81282ZM9 10C8.44772 10 8 9.55228 8 9C8 8.44772 8.44772 8 9 8C9.55228 8 10 8.44772 10 9C10 9.55228 9.55228 10 9 10ZM15 16C14.4477 16 14 15.5523 14 15C14 14.4477 14.4477 14 15 14C15.5523 14 16 14.4477 16 15C16 15.5523 15.5523 16 15 16Z" fill="#2D264B"/>
</svg>
