<svg width="24" height="24" viewBox="0 0 24 24" fill="none" xmlns="http://www.w3.org/2000/svg">
<path d="M9.34488 16.1854L11.5754 19.81C11.8393 20.2388 12.3067 20.5 12.8101 20.5C13.6987 20.5 14.3782 19.708 14.243 18.8298L14 17.25C13.7371 15.5411 15.0593 14 16.7882 14H17.478C20.015 14 21.6651 11.3301 20.5305 9.06096L19.382 6.76394C18.535 5.07001 16.8037 4 14.9098 4H12C10.6521 4 9.45994 4.66669 8.73525 5.6883C8.74501 5.79088 8.75 5.89486 8.75 6V14C8.75 14.331 8.70052 14.6504 8.60855 14.9513C8.78577 15.2769 9.02173 15.6603 9.34488 16.1854Z" fill="#2D264B"/>
<path d="M7.25 6C7.25 5.0335 6.4665 4.25 5.5 4.25C4.5335 4.25 3.75 5.0335 3.75 6V14C3.75 14.9665 4.5335 15.75 5.5 15.75C6.4665 15.75 7.25 14.9665 7.25 14V6Z" fill="#2D264B"/>
</svg>
