<svg xmlns="http://www.w3.org/2000/svg" width="24" height="24" viewBox="0 0 24 24">
  <defs/>
  <path fill="#2D264B" d="M9.345,16.185 L11.575,19.81 C11.839,20.239 12.307,20.5 12.81,20.5 C13.699,20.5 14.378,19.708 14.243,18.83 L14,17.25 C13.737,15.541 15.059,14 16.788,14 L17.478,14 C20.015,14 21.665,11.33 20.53,9.061 L19.382,6.764 C18.535,5.07 16.804,4 14.91,4 L12,4 C10.652,4 9.46,4.667 8.735,5.688 C8.745,5.791 8.75,5.895 8.75,6 L8.75,14 C8.75,14.331 8.701,14.65 8.609,14.951 C8.786,15.277 9.022,15.66 9.345,16.185 Z"/>
  <path fill="#2D264B" d="M7.25,6 C7.25,5.034 6.466,4.25 5.5,4.25 C4.534,4.25 3.75,5.034 3.75,6 L3.75,14 C3.75,14.966 4.534,15.75 5.5,15.75 C6.466,15.75 7.25,14.966 7.25,14 L7.25,6 Z"/>
</svg>

