<svg xmlns="http://www.w3.org/2000/svg" width="24" height="24" viewBox="0 0 24 24">
  <defs/>
  <path fill="#2D264B" d="M2.25,14.5 L2.25,6.5 Q2.25,3.25 5.5,3.25 Q8.75,3.25 8.75,6.5 L8.75,14.5 Q8.75,15.846 7.798,16.798 Q6.846,17.75 5.5,17.75 Q4.154,17.75 3.202,16.798 Q2.25,15.846 2.25,14.5 Z M3.75,14.5 Q3.75,16.25 5.5,16.25 Q7.25,16.25 7.25,14.5 L7.25,6.5 Q7.25,4.75 5.5,4.75 Q3.75,4.75 3.75,6.5 Z"/>
  <path fill="#2D264B" d="M10.937,20.203 L8.706,16.578 Q7.764,15.047 7.555,14.434 Q7.46,14.153 7.394,13.864 Q7.25,13.232 7.25,11.434 L7.25,8 Q7.25,6.032 8.641,4.641 Q10.032,3.25 12,3.25 L14.91,3.25 Q18.463,3.25 20.053,6.429 L21.201,8.726 Q22.239,10.801 21.019,12.776 Q19.799,14.75 17.478,14.75 L16.788,14.75 Q15.836,14.75 15.216,15.473 Q14.597,16.195 14.741,17.136 L14.984,18.716 Q15.138,19.715 14.48,20.483 Q13.821,21.25 12.81,21.25 Q11.581,21.25 10.937,20.203 Z M12.214,19.417 Q12.419,19.75 12.81,19.75 Q13.132,19.75 13.341,19.506 Q13.551,19.262 13.502,18.944 L13.259,17.364 Q13.009,15.742 14.078,14.496 Q15.147,13.25 16.788,13.25 L17.478,13.25 Q18.963,13.25 19.743,11.987 Q20.524,10.724 19.86,9.396 L18.711,7.099 Q17.536,4.75 14.91,4.75 L12,4.75 Q8.75,4.75 8.75,8 L8.75,11.434 Q8.75,13.063 8.856,13.53 Q8.905,13.744 8.976,13.951 Q9.13,14.405 9.984,15.792 Z"/>
</svg>

