<svg xmlns="http://www.w3.org/2000/svg" width="24" height="24" viewBox="0 0 24 24">
  <defs/>
  <path fill="#2D264B" d="M7.818,22.272 C7.416,22.373 7.172,22.78 7.272,23.182 C7.373,23.584 7.78,23.828 8.182,23.728 L7.818,22.272 Z M15.818,23.728 C16.22,23.828 16.627,23.584 16.728,23.182 C16.828,22.78 16.584,22.373 16.182,22.272 L15.818,23.728 Z M12.75,19 C12.75,18.586 12.414,18.25 12,18.25 C11.586,18.25 11.25,18.586 11.25,19 L12.75,19 Z M13.938,18.25 L10.062,18.25 L10.062,19.75 L13.938,19.75 L13.938,18.25 Z M10.062,3.75 L13.938,3.75 L13.938,2.25 L10.062,2.25 L10.062,3.75 Z M13.938,3.75 C15.2,3.75 16.104,3.751 16.818,3.806 C17.523,3.86 17.987,3.965 18.373,4.144 L19.004,2.783 C18.39,2.499 17.728,2.372 16.933,2.31 C16.148,2.249 15.177,2.25 13.938,2.25 L13.938,3.75 Z M22.62,9.915 C22.467,8.686 22.347,7.722 22.189,6.95 C22.029,6.168 21.821,5.528 21.463,4.954 L20.191,5.749 C20.416,6.11 20.578,6.557 20.719,7.25 C20.863,7.952 20.975,8.849 21.132,10.101 L22.62,9.915 Z M18.373,4.144 C19.122,4.491 19.754,5.049 20.191,5.749 L21.463,4.954 C20.872,4.007 20.017,3.252 19.004,2.783 L18.373,4.144 Z M2.868,10.101 C3.025,8.849 3.137,7.952 3.281,7.25 C3.422,6.557 3.584,6.11 3.809,5.749 L2.537,4.954 C2.179,5.528 1.971,6.168 1.811,6.95 C1.654,7.722 1.534,8.686 1.38,9.915 L2.868,10.101 Z M10.062,2.25 C8.824,2.25 7.852,2.249 7.067,2.31 C6.272,2.372 5.61,2.499 4.996,2.783 L5.627,4.144 C6.014,3.965 6.477,3.86 7.182,3.806 C7.897,3.751 8.801,3.75 10.062,3.75 L10.062,2.25 Z M3.809,5.749 C4.247,5.049 4.878,4.491 5.627,4.144 L4.996,2.783 C3.983,3.252 3.129,4.007 2.537,4.954 L3.809,5.749 Z M10.062,18.25 C8.483,18.25 7.346,18.249 6.461,18.174 C5.583,18.099 5.029,17.954 4.595,17.712 L3.864,19.022 C4.565,19.413 5.361,19.585 6.333,19.668 C7.297,19.751 8.51,19.75 10.062,19.75 L10.062,18.25 Z M1.38,9.915 C1.187,11.456 1.036,12.658 0.999,13.625 C0.96,14.6 1.032,15.411 1.333,16.155 L2.724,15.593 C2.538,15.132 2.463,14.564 2.497,13.684 C2.532,12.796 2.672,11.668 2.868,10.101 L1.38,9.915 Z M4.595,17.712 C3.748,17.24 3.087,16.492 2.724,15.593 L1.333,16.155 C1.825,17.372 2.718,18.383 3.864,19.022 L4.595,17.712 Z M13.938,19.75 C15.491,19.75 16.703,19.751 17.667,19.668 C18.639,19.585 19.435,19.413 20.136,19.022 L19.405,17.712 C18.971,17.954 18.417,18.099 17.539,18.174 C16.654,18.249 15.517,18.25 13.938,18.25 L13.938,19.75 Z M21.132,10.101 C21.328,11.668 21.468,12.796 21.503,13.684 C21.537,14.564 21.463,15.132 21.276,15.593 L22.667,16.155 C22.968,15.411 23.04,14.6 23.002,13.625 C22.964,12.658 22.813,11.456 22.62,9.915 L21.132,10.101 Z M20.136,19.022 C21.282,18.383 22.175,17.372 22.667,16.155 L21.276,15.593 C20.913,16.492 20.253,17.24 19.405,17.712 L20.136,19.022 Z M8.182,23.728 L9.757,23.334 L9.393,21.879 L7.818,22.272 L8.182,23.728 Z M14.244,23.334 L15.818,23.728 L16.182,22.272 L14.607,21.879 L14.244,23.334 Z M12.75,22 L12.75,19 L11.25,19 L11.25,22 L12.75,22 Z M9.757,23.334 C10.493,23.15 11.247,23.058 12,23.058 L12,21.558 C11.124,21.558 10.249,21.665 9.393,21.879 L9.757,23.334 Z M12,23.058 C12.754,23.058 13.507,23.15 14.244,23.334 L14.607,21.879 C13.751,21.665 12.876,21.558 12,21.558 L12,23.058 Z M11.25,22 L11.25,22.308 L12.75,22.308 L12.75,22 L11.25,22 Z"/>
</svg>

