<svg xmlns="http://www.w3.org/2000/svg" width="24" height="24" viewBox="0 0 24 24">
  <defs/>
  <path fill="#2D264B" d="M7.818,22.272 L9.393,21.879 C10.004,21.726 10.626,21.628 11.25,21.584 L11.25,18.699 C9.372,18.729 7.496,18.871 5.631,19.125 C2.785,19.514 0.25,17.301 0.25,14.428 L0.25,6.093 C0.25,3.94 1.79,2.094 3.909,1.709 C9.259,0.736 14.741,0.736 20.091,1.709 C22.21,2.094 23.75,3.94 23.75,6.093 L23.75,14.428 C23.75,17.301 21.215,19.514 18.369,19.125 C16.504,18.871 14.628,18.729 12.75,18.699 L12.75,21.584 C13.374,21.628 13.996,21.726 14.607,21.879 L16.182,22.272 C16.584,22.373 16.828,22.78 16.728,23.182 C16.627,23.584 16.22,23.828 15.818,23.728 L14.243,23.334 C13.507,23.15 12.753,23.058 12,23.058 C11.247,23.058 10.493,23.15 9.757,23.334 L8.182,23.728 C7.78,23.828 7.373,23.584 7.272,23.182 C7.172,22.78 7.416,22.373 7.818,22.272 Z M22.25,6.093 C22.25,4.665 21.228,3.44 19.822,3.185 C14.65,2.244 9.35,2.244 4.178,3.185 C2.772,3.44 1.75,4.665 1.75,6.093 L1.75,14.428 C1.75,16.392 3.483,17.905 5.428,17.639 C7.609,17.342 9.804,17.193 12,17.193 C14.196,17.193 16.391,17.342 18.572,17.639 C20.517,17.905 22.25,16.392 22.25,14.428 Z"/>
</svg>

