<svg xmlns="http://www.w3.org/2000/svg" width="24" height="24" viewBox="0 0 24 24">
  <defs/>
  <path fill="#2D264B" d="M3.909,1.709 C9.259,0.736 14.741,0.736 20.091,1.709 C22.21,2.094 23.75,3.94 23.75,6.094 L23.75,14.429 C23.75,17.301 21.215,19.514 18.369,19.126 C16.504,18.871 14.628,18.729 12.75,18.699 L12.75,21.584 C13.374,21.628 13.996,21.726 14.607,21.879 L16.182,22.273 C16.584,22.373 16.828,22.78 16.728,23.182 C16.627,23.584 16.22,23.828 15.818,23.728 L14.243,23.334 C13.507,23.15 12.753,23.058 12,23.058 C11.247,23.058 10.493,23.15 9.757,23.334 L8.182,23.728 C7.78,23.828 7.373,23.584 7.272,23.182 C7.172,22.78 7.416,22.373 7.818,22.273 L9.393,21.879 C10.004,21.726 10.626,21.628 11.25,21.584 L11.25,18.699 C9.372,18.729 7.496,18.871 5.631,19.126 C2.785,19.514 0.25,17.301 0.25,14.429 L0.25,6.094 C0.25,3.94 1.79,2.094 3.909,1.709 Z"/>
</svg>

