<svg xmlns="http://www.w3.org/2000/svg" width="24" height="24" viewBox="0 0 24 24">
  <defs/>
  <path fill="#2D264B" d="M13.969,2.25 C15.193,2.25 16.154,2.25 16.933,2.31 C17.729,2.372 18.39,2.499 19.004,2.783 C20.017,3.252 20.872,4.007 21.463,4.954 C21.821,5.528 22.029,6.168 22.189,6.95 C22.345,7.715 22.465,8.669 22.616,9.884 L22.625,9.95 C22.815,11.474 22.964,12.666 23.002,13.625 C23.04,14.6 22.968,15.411 22.667,16.155 C22.175,17.372 21.282,18.383 20.136,19.022 C19.435,19.413 18.639,19.585 17.667,19.668 C16.71,19.75 15.509,19.75 13.974,19.75 L12.75,19.75 L12.75,21.584 C13.374,21.628 13.996,21.726 14.607,21.879 L16.182,22.272 C16.584,22.373 16.828,22.78 16.728,23.182 C16.627,23.584 16.22,23.828 15.818,23.728 L14.244,23.334 C13.507,23.15 12.754,23.058 12,23.058 C11.247,23.058 10.493,23.15 9.757,23.334 L8.182,23.728 C7.78,23.828 7.373,23.584 7.273,23.182 C7.172,22.78 7.416,22.373 7.818,22.272 L9.393,21.879 C10.004,21.726 10.626,21.628 11.25,21.584 L11.25,19.75 L10.027,19.75 C8.491,19.75 7.29,19.75 6.333,19.668 C5.361,19.585 4.565,19.413 3.864,19.022 C2.718,18.383 1.825,17.372 1.333,16.155 C1.032,15.411 0.961,14.6 0.999,13.625 C1.036,12.666 1.185,11.474 1.376,9.95 L1.384,9.884 C1.536,8.669 1.655,7.715 1.811,6.95 C1.971,6.168 2.179,5.528 2.537,4.954 C3.129,4.007 3.983,3.252 4.997,2.783 C5.61,2.499 6.272,2.372 7.067,2.31 C7.846,2.25 8.807,2.25 10.031,2.25 L13.969,2.25 Z"/>
</svg>

