<svg width="24" height="24" viewBox="0 0 24 24" fill="none" xmlns="http://www.w3.org/2000/svg">
<path d="M13.9691 2.25C15.1928 2.25 16.1545 2.24999 16.9335 2.31015C17.7285 2.37154 18.3902 2.4986 19.0038 2.78291C20.017 3.25244 20.8716 4.00685 21.4632 4.95403C21.8214 5.52758 22.0295 6.16844 22.1891 6.94964C22.3454 7.71517 22.4646 8.66936 22.6164 9.88359L22.6247 9.95023C22.8152 11.474 22.9642 12.6656 23.0017 13.6252C23.0397 14.5998 22.9678 15.4113 22.6671 16.1551C22.1752 17.3717 21.2821 18.3834 20.1359 19.0224C19.4351 19.413 18.6389 19.5851 17.667 19.6682C16.7102 19.75 15.5093 19.75 13.9736 19.75H12.7501V21.584C13.3745 21.6276 13.996 21.7259 14.6074 21.8787L16.182 22.2724C16.5839 22.3729 16.8282 22.7801 16.7277 23.1819C16.6273 23.5837 16.2201 23.8281 15.8182 23.7276L14.2436 23.3339C13.5071 23.1498 12.7536 23.0578 12.0001 23.0578C11.2466 23.0578 10.4932 23.1498 9.75668 23.3339L8.18203 23.7276C7.78018 23.8281 7.37298 23.5837 7.27252 23.1819C7.17206 22.7801 7.41638 22.3729 7.81823 22.2724L9.39287 21.8787C10.0043 21.7259 10.6258 21.6276 11.2501 21.584V19.75H10.0266C8.49094 19.75 7.29007 19.75 6.33322 19.6682C5.36141 19.5851 4.56514 19.413 3.86432 19.0224C2.71817 18.3834 1.82503 17.3717 1.3332 16.1551C1.03247 15.4113 0.960524 14.5998 0.998597 13.6252C1.03608 12.6656 1.18504 11.474 1.37553 9.95014L1.38383 9.8837C1.53561 8.66942 1.65489 7.71519 1.81121 6.94964C1.97073 6.16844 2.17888 5.52758 2.5371 4.95403C3.12867 4.00685 3.98326 3.25244 4.9965 2.78291C5.61005 2.4986 6.27178 2.37154 7.06674 2.31015C7.84576 2.24999 8.80743 2.25 10.0311 2.25H13.9691Z" fill="#2D264B"/>
</svg>
