<svg width="24" height="24" viewBox="0 0 24 24" fill="none" xmlns="http://www.w3.org/2000/svg">
<path fill-rule="evenodd" clip-rule="evenodd" d="M15.0336 2.25C16.4053 2.25 17.4807 2.24999 18.3451 2.32061C19.2252 2.39252 19.9523 2.54138 20.6104 2.87671C21.6924 3.42798 22.572 4.30762 23.1233 5.38955C23.4586 6.04769 23.6075 6.77479 23.6794 7.65494C23.75 8.51924 23.75 9.59466 23.75 10.9663V11.0336C23.75 12.4052 23.75 13.4808 23.6794 14.3451C23.6075 15.2252 23.4586 15.9523 23.1233 16.6104C22.572 17.6924 21.6924 18.572 20.6104 19.1233C19.9523 19.4586 19.2252 19.6075 18.3451 19.6794C17.4808 19.75 16.4053 19.75 15.0337 19.75H12.75V21.584C13.3744 21.6276 13.9959 21.7259 14.6073 21.8787L16.1819 22.2724C16.5837 22.3729 16.8281 22.7801 16.7276 23.1819C16.6271 23.5837 16.2199 23.8281 15.8181 23.7276L14.2435 23.3339C13.507 23.1498 12.7535 23.0578 12 23.0578C11.2465 23.0578 10.493 23.1498 9.75655 23.3339L8.1819 23.7276C7.78006 23.8281 7.37285 23.5837 7.27239 23.1819C7.17193 22.7801 7.41625 22.3729 7.8181 22.2724L9.39274 21.8787C10.0041 21.7259 10.6256 21.6276 11.25 21.584V19.75H8.96637C7.59476 19.75 6.51924 19.75 5.65494 19.6794C4.77479 19.6075 4.04769 19.4586 3.38955 19.1233C2.30762 18.572 1.42798 17.6924 0.876713 16.6104C0.541379 15.9523 0.392522 15.2252 0.320612 14.3451C0.249992 13.4807 0.249996 12.4053 0.25 11.0336V10.9664C0.249996 9.59472 0.249992 8.51929 0.320612 7.65494C0.392522 6.7748 0.541379 6.04769 0.876713 5.38955C1.42798 4.30762 2.30762 3.42798 3.38955 2.87671C4.04769 2.54138 4.77479 2.39252 5.65494 2.32061C6.51929 2.24999 7.59472 2.25 8.96644 2.25H15.0336ZM11.25 16C11.25 16.4142 11.5858 16.75 12 16.75L18 16.75C18.4142 16.75 18.75 16.4142 18.75 16C18.75 15.5858 18.4142 15.25 18 15.25L12 15.25C11.5858 15.25 11.25 15.5858 11.25 16ZM8 16C8 16.5523 7.55229 17 7 17C6.44772 17 6 16.5523 6 16C6 15.4477 6.44772 15 7 15C7.55229 15 8 15.4477 8 16Z" fill="#2D264B"/>
</svg>
