<svg xmlns="http://www.w3.org/2000/svg" width="24" height="24" viewBox="0 0 24 24">
  <defs/>
  <path fill="#2D264B" d="M7.818,22.272 C7.416,22.373 7.172,22.78 7.272,23.182 C7.373,23.584 7.78,23.828 8.182,23.728 L7.818,22.272 Z M15.818,23.728 C16.22,23.828 16.627,23.584 16.728,23.182 C16.828,22.78 16.584,22.373 16.182,22.272 L15.818,23.728 Z M12.75,19 C12.75,18.586 12.414,18.25 12,18.25 C11.586,18.25 11.25,18.586 11.25,19 L12.75,19 Z M12,15.25 C11.586,15.25 11.25,15.586 11.25,16 C11.25,16.414 11.586,16.75 12,16.75 L12,15.25 Z M18,16.75 C18.414,16.75 18.75,16.414 18.75,16 C18.75,15.586 18.414,15.25 18,15.25 L18,16.75 Z M9,3.75 L15,3.75 L15,2.25 L9,2.25 L9,3.75 Z M15,18.25 L9,18.25 L9,19.75 L15,19.75 L15,18.25 Z M9,18.25 C7.587,18.25 6.573,18.249 5.777,18.184 C4.99,18.12 4.482,17.996 4.071,17.787 L3.39,19.123 C4.048,19.459 4.775,19.608 5.655,19.679 C6.526,19.751 7.612,19.75 9,19.75 L9,18.25 Z M0.25,11 C0.25,12.388 0.249,13.474 0.321,14.345 C0.393,15.225 0.541,15.952 0.877,16.61 L2.213,15.93 C2.004,15.518 1.88,15.01 1.816,14.223 C1.751,13.427 1.75,12.412 1.75,11 L0.25,11 Z M4.071,17.787 C3.271,17.379 2.621,16.729 2.213,15.93 L0.877,16.61 C1.428,17.692 2.308,18.572 3.39,19.123 L4.071,17.787 Z M22.25,11 C22.25,12.412 22.249,13.427 22.184,14.223 C22.12,15.01 21.996,15.518 21.787,15.93 L23.123,16.61 C23.459,15.952 23.608,15.225 23.679,14.345 C23.751,13.474 23.75,12.388 23.75,11 L22.25,11 Z M15,19.75 C16.388,19.75 17.474,19.751 18.345,19.679 C19.225,19.608 19.952,19.459 20.61,19.123 L19.93,17.787 C19.518,17.996 19.01,18.12 18.223,18.184 C17.427,18.249 16.413,18.25 15,18.25 L15,19.75 Z M21.787,15.93 C21.379,16.729 20.729,17.379 19.93,17.787 L20.61,19.123 C21.692,18.572 22.572,17.692 23.123,16.61 L21.787,15.93 Z M15,3.75 C16.413,3.75 17.427,3.751 18.223,3.816 C19.01,3.88 19.518,4.004 19.93,4.213 L20.61,2.877 C19.952,2.541 19.225,2.393 18.345,2.321 C17.474,2.249 16.388,2.25 15,2.25 L15,3.75 Z M23.75,11 C23.75,9.612 23.751,8.526 23.679,7.655 C23.608,6.775 23.459,6.048 23.123,5.39 L21.787,6.071 C21.996,6.482 22.12,6.99 22.184,7.777 C22.249,8.573 22.25,9.587 22.25,11 L23.75,11 Z M19.93,4.213 C20.729,4.621 21.379,5.271 21.787,6.071 L23.123,5.39 C22.572,4.308 21.692,3.428 20.61,2.877 L19.93,4.213 Z M9,2.25 C7.612,2.25 6.526,2.249 5.655,2.321 C4.775,2.393 4.048,2.541 3.39,2.877 L4.071,4.213 C4.482,4.004 4.99,3.88 5.777,3.816 C6.573,3.751 7.587,3.75 9,3.75 L9,2.25 Z M1.75,11 C1.75,9.587 1.751,8.573 1.816,7.777 C1.88,6.99 2.004,6.482 2.213,6.071 L0.877,5.39 C0.541,6.048 0.393,6.775 0.321,7.655 C0.249,8.526 0.25,9.612 0.25,11 L1.75,11 Z M3.39,2.877 C2.308,3.428 1.428,4.308 0.877,5.39 L2.213,6.071 C2.621,5.271 3.271,4.621 4.071,4.213 L3.39,2.877 Z M8.182,23.728 L9.757,23.334 L9.393,21.879 L7.818,22.272 L8.182,23.728 Z M14.243,23.334 L15.818,23.728 L16.182,22.272 L14.607,21.879 L14.243,23.334 Z M12.75,22 L12.75,19 L11.25,19 L11.25,22 L12.75,22 Z M12,16.75 L18,16.75 L18,15.25 L12,15.25 L12,16.75 Z M9.757,23.334 C10.493,23.15 11.246,23.058 12,23.058 L12,21.558 C11.124,21.558 10.249,21.665 9.393,21.879 L9.757,23.334 Z M12,23.058 C12.754,23.058 13.507,23.15 14.243,23.334 L14.607,21.879 C13.751,21.665 12.876,21.558 12,21.558 L12,23.058 Z M11.25,22 L11.25,22.308 L12.75,22.308 L12.75,22 L11.25,22 Z"/>
  <path fill="#2D264B" d="M8,16 C8,16.552 7.552,17 7,17 C6.448,17 6,16.552 6,16 C6,15.448 6.448,15 7,15 C7.552,15 8,15.448 8,16 Z"/>
</svg>

