<svg xmlns="http://www.w3.org/2000/svg" width="24" height="24" viewBox="0 0 24 24">
  <defs/>
  <path fill="#2D264B" d="M15.034,2.25 C16.405,2.25 17.481,2.25 18.345,2.321 C19.225,2.393 19.952,2.541 20.61,2.877 C21.692,3.428 22.572,4.308 23.123,5.39 C23.459,6.048 23.608,6.775 23.679,7.655 C23.75,8.519 23.75,9.595 23.75,10.966 L23.75,11.034 C23.75,12.405 23.75,13.481 23.679,14.345 C23.608,15.225 23.459,15.952 23.123,16.61 C22.572,17.692 21.692,18.572 20.61,19.123 C19.952,19.459 19.225,19.608 18.345,19.679 C17.481,19.75 16.405,19.75 15.034,19.75 L12.75,19.75 L12.75,21.584 C13.374,21.628 13.996,21.726 14.607,21.879 L16.182,22.272 C16.584,22.373 16.828,22.78 16.728,23.182 C16.627,23.584 16.22,23.828 15.818,23.728 L14.243,23.334 C13.507,23.15 12.754,23.058 12,23.058 C11.246,23.058 10.493,23.15 9.757,23.334 L8.182,23.728 C7.78,23.828 7.373,23.584 7.272,23.182 C7.172,22.78 7.416,22.373 7.818,22.272 L9.393,21.879 C10.004,21.726 10.626,21.628 11.25,21.584 L11.25,19.75 L8.966,19.75 C7.595,19.75 6.519,19.75 5.655,19.679 C4.775,19.608 4.048,19.459 3.39,19.123 C2.308,18.572 1.428,17.692 0.877,16.61 C0.541,15.952 0.393,15.225 0.321,14.345 C0.25,13.481 0.25,12.405 0.25,11.034 L0.25,10.966 C0.25,9.595 0.25,8.519 0.321,7.655 C0.393,6.775 0.541,6.048 0.877,5.39 C1.428,4.308 2.308,3.428 3.39,2.877 C4.048,2.541 4.775,2.393 5.655,2.321 C6.519,2.25 7.595,2.25 8.966,2.25 L15.034,2.25 Z"/>
</svg>

