<svg width="24" height="24" viewBox="0 0 24 24" fill="none" xmlns="http://www.w3.org/2000/svg">
<g clip-path="url(#clip0_113_22905)">
<path d="M3.90932 1.70903C9.25925 0.736313 14.7407 0.736313 20.0907 1.70903C22.2097 2.09431 23.75 3.93989 23.75 6.09367V14.4286C23.75 17.3013 21.2153 19.5139 18.3689 19.1257C16.504 18.8714 14.6277 18.7293 12.75 18.6994V21.5842C13.3744 21.6279 13.9959 21.7262 14.6073 21.879L16.1819 22.2727C16.5837 22.3731 16.8281 22.7803 16.7276 23.1822C16.6271 23.584 16.2199 23.8284 15.8181 23.7279L14.2435 23.3342C13.507 23.1501 12.7535 23.0581 12 23.0581C11.2465 23.0581 10.493 23.1501 9.75655 23.3342L8.1819 23.7279C7.78006 23.8284 7.37285 23.584 7.27239 23.1822C7.17193 22.7803 7.41625 22.3731 7.8181 22.2727L9.39274 21.879C10.0041 21.7262 10.6256 21.6279 11.25 21.5842V18.6994C9.37234 18.7293 7.49602 18.8714 5.63113 19.1257C2.78473 19.5139 0.25 17.3013 0.25 14.4286V6.09367C0.25 3.93989 1.79028 2.09431 3.90932 1.70903Z" fill="#2D264B"/>
</g>
<defs>
<clipPath id="clip0_113_22905">
<rect width="24" height="24" fill="white"/>
</clipPath>
</defs>
</svg>
