<svg width="24" height="24" viewBox="0 0 24 24" fill="none" xmlns="http://www.w3.org/2000/svg">
<path fill-rule="evenodd" clip-rule="evenodd" d="M3 12C3 8.25027 3 6.3754 3.95491 5.06107C4.26331 4.6366 4.6366 4.26331 5.06107 3.95491C6.3754 3 8.25027 3 12 3C12.8389 3 13.584 3 14.25 3.01069L14.25 3.08082C14.2499 3.93284 14.2499 4.45182 14.3208 4.8995C14.7105 7.35988 16.6401 9.28952 19.1005 9.67921C19.5482 9.75011 20.0672 9.75007 20.9192 9.75L20.9893 9.75C21 10.416 21 11.1611 21 12C21 15.7497 21 17.6246 20.0451 18.9389C19.7367 19.3634 19.3634 19.7367 18.9389 20.0451C17.6246 21 15.7497 21 12 21C8.25027 21 6.3754 21 5.06107 20.0451C4.6366 19.7367 4.26331 19.3634 3.95491 18.9389C3 17.6246 3 15.7497 3 12ZM8 7.25C7.58579 7.25 7.25 7.58579 7.25 8C7.25 8.41421 7.58579 8.75 8 8.75H11C11.4142 8.75 11.75 8.41421 11.75 8C11.75 7.58579 11.4142 7.25 11 7.25H8ZM8 11.25C7.58579 11.25 7.25 11.5858 7.25 12C7.25 12.4142 7.58579 12.75 8 12.75H16C16.4142 12.75 16.75 12.4142 16.75 12C16.75 11.5858 16.4142 11.25 16 11.25H8ZM8 15.25C7.58579 15.25 7.25 15.5858 7.25 16C7.25 16.4142 7.58579 16.75 8 16.75H11C11.4142 16.75 11.75 16.4142 11.75 16C11.75 15.5858 11.4142 15.25 11 15.25H8Z" fill="#2D264B"/>
<path d="M15.8023 4.66485C15.7535 4.35646 15.7501 3.97568 15.75 3.06534C17.1896 3.15974 18.1622 3.39057 18.9389 3.95491C19.3634 4.26331 19.7367 4.6366 20.0451 5.06107C20.6094 5.83783 20.8403 6.81037 20.9347 8.25C20.0243 8.24987 19.6435 8.24652 19.3352 8.19768C17.5166 7.90965 16.0904 6.48339 15.8023 4.66485Z" fill="#2D264B"/>
</svg>
