<svg width="24" height="24" viewBox="0 0 24 24" fill="none" xmlns="http://www.w3.org/2000/svg">
<path fill-rule="evenodd" clip-rule="evenodd" d="M3 12C3 8.25027 3 6.3754 3.95491 5.06107C4.26331 4.6366 4.6366 4.26331 5.06107 3.95491C6.3754 3 8.25027 3 12 3C12.8389 3 13.584 3 14.25 3.01069L14.25 3.08082C14.2499 3.93284 14.2499 4.45182 14.3208 4.8995C14.7105 7.35988 16.6401 9.28952 19.1005 9.67921C19.5482 9.75011 20.0672 9.75007 20.9192 9.75L20.9893 9.75C21 10.416 21 11.1611 21 12C21 15.7497 21 17.6246 20.0451 18.9389C19.7367 19.3634 19.3634 19.7367 18.9389 20.0451C17.6246 21 15.7497 21 12 21C8.25027 21 6.3754 21 5.06107 20.0451C4.6366 19.7367 4.26331 19.3634 3.95491 18.9389C3 17.6246 3 15.7497 3 12ZM11.7935 10.0982C11.7787 10.0863 11.7642 10.0749 11.75 10.0638V17C11.75 17.4142 11.4142 17.75 11 17.75C10.5858 17.75 10.25 17.4142 10.25 17V10.0638C10.2358 10.0749 10.2213 10.0863 10.2065 10.0982C9.88386 10.3573 9.50033 10.7427 8.93054 11.3176L7.53269 12.728C7.24111 13.0222 6.76624 13.0243 6.47204 12.7327C6.17784 12.4411 6.17573 11.9662 6.46731 11.672L7.89565 10.2309C8.42704 9.69472 8.87022 9.24754 9.26724 8.92869C9.68367 8.59426 10.1213 8.33989 10.6545 8.27193C10.8839 8.24269 11.1161 8.24269 11.3455 8.27193C11.8787 8.33989 12.3163 8.59427 12.7328 8.92869C13.1298 9.24753 13.5729 9.6947 14.1043 10.2309L15.5327 11.672C15.8243 11.9662 15.8222 12.4411 15.528 12.7327C15.2338 13.0243 14.7589 13.0222 14.4673 12.728L13.0695 11.3176C12.4997 10.7427 12.1161 10.3573 11.7935 10.0982Z" fill="#2D264B"/>
<path d="M15.8023 4.66485C15.7535 4.35646 15.7501 3.97568 15.75 3.06534C17.1896 3.15974 18.1622 3.39057 18.9389 3.95491C19.3634 4.26331 19.7367 4.6366 20.0451 5.06107C20.6094 5.83783 20.8403 6.81037 20.9347 8.25C20.0243 8.24987 19.6435 8.24652 19.3352 8.19768C17.5166 7.90965 16.0904 6.48339 15.8023 4.66485Z" fill="#2D264B"/>
</svg>
