<svg xmlns="http://www.w3.org/2000/svg" width="24" height="24" viewBox="0 0 24 24">
  <defs/>
  <path fill="#2D264B" d="M3,12 C3,8.25 3,6.375 3.955,5.061 C4.263,4.637 4.637,4.263 5.061,3.955 C6.375,3 8.25,3 12,3 C12.839,3 13.584,3 14.25,3.011 L14.25,3.081 C14.25,3.933 14.25,4.452 14.321,4.899 C14.71,7.36 16.64,9.29 19.101,9.679 C19.548,9.75 20.067,9.75 20.919,9.75 L20.989,9.75 C21,10.416 21,11.161 21,12 C21,15.75 21,17.625 20.045,18.939 C19.737,19.363 19.363,19.737 18.939,20.045 C17.625,21 15.75,21 12,21 C8.25,21 6.375,21 5.061,20.045 C4.637,19.737 4.263,19.363 3.955,18.939 C3,17.625 3,15.75 3,12 Z M11.75,9 C11.75,8.586 11.414,8.25 11,8.25 C10.586,8.25 10.25,8.586 10.25,9 L10.25,15.936 C10.236,15.925 10.221,15.914 10.207,15.902 C9.884,15.643 9.5,15.257 8.931,14.682 L7.533,13.272 C7.241,12.978 6.766,12.976 6.472,13.267 C6.178,13.559 6.176,14.034 6.467,14.328 L7.896,15.769 C8.427,16.305 8.87,16.753 9.267,17.071 C9.684,17.406 10.121,17.66 10.655,17.728 C10.884,17.757 11.116,17.757 11.345,17.728 C11.879,17.66 12.316,17.406 12.733,17.071 C13.13,16.753 13.573,16.305 14.104,15.769 L15.533,14.328 C15.824,14.034 15.822,13.559 15.528,13.267 C15.234,12.976 14.759,12.978 14.467,13.272 L13.069,14.682 C12.5,15.257 12.116,15.643 11.793,15.902 C11.779,15.914 11.764,15.925 11.75,15.936 Z"/>
  <path fill="#2D264B" d="M15.802,4.665 C15.754,4.356 15.75,3.976 15.75,3.065 C17.19,3.16 18.162,3.391 18.939,3.955 C19.363,4.263 19.737,4.637 20.045,5.061 C20.609,5.838 20.84,6.81 20.935,8.25 C20.024,8.25 19.643,8.247 19.335,8.198 C17.517,7.91 16.09,6.483 15.802,4.665 Z"/>
</svg>

