<svg xmlns="http://www.w3.org/2000/svg" width="24" height="24" viewBox="0 0 24 24">
  <defs/>
  <path fill="#2D264B" d="M13,15.25 C12.586,15.25 12.25,15.586 12.25,16 C12.25,16.414 12.586,16.75 13,16.75 L13,15.25 Z M16,16.75 C16.414,16.75 16.75,16.414 16.75,16 C16.75,15.586 16.414,15.25 16,15.25 L16,16.75 Z M8,11.25 C7.586,11.25 7.25,11.586 7.25,12 C7.25,12.414 7.586,12.75 8,12.75 L8,11.25 Z M16,12.75 C16.414,12.75 16.75,12.414 16.75,12 C16.75,11.586 16.414,11.25 16,11.25 L16,12.75 Z M20.25,11 L20.25,13 L21.75,13 L21.75,11 L20.25,11 Z M3.75,13 L3.75,11 L2.25,11 L2.25,13 L3.75,13 Z M12,21.25 C10.108,21.25 8.75,21.249 7.698,21.135 C6.66,21.023 6.01,20.807 5.502,20.438 L4.62,21.652 C5.427,22.238 6.371,22.5 7.536,22.626 C8.688,22.751 10.142,22.75 12,22.75 L12,21.25 Z M2.25,13 C2.25,14.858 2.249,16.312 2.374,17.463 C2.5,18.629 2.762,19.573 3.348,20.38 L4.562,19.498 C4.193,18.99 3.977,18.34 3.865,17.302 C3.751,16.25 3.75,14.892 3.75,13 L2.25,13 Z M5.502,20.438 C5.141,20.176 4.824,19.859 4.562,19.498 L3.348,20.38 C3.703,20.868 4.132,21.297 4.62,21.652 L5.502,20.438 Z M20.25,13 C20.25,14.892 20.249,16.25 20.135,17.302 C20.023,18.34 19.807,18.99 19.438,19.498 L20.652,20.38 C21.238,19.573 21.5,18.629 21.626,17.463 C21.751,16.312 21.75,14.858 21.75,13 L20.25,13 Z M12,22.75 C13.858,22.75 15.312,22.751 16.463,22.626 C17.629,22.5 18.573,22.238 19.38,21.652 L18.498,20.438 C17.99,20.807 17.34,21.023 16.302,21.135 C15.25,21.249 13.892,21.25 12,21.25 L12,22.75 Z M19.438,19.498 C19.176,19.859 18.859,20.176 18.498,20.438 L19.38,21.652 C19.868,21.297 20.297,20.868 20.652,20.38 L19.438,19.498 Z M21.75,11 C21.75,9.142 21.751,7.688 21.626,6.536 C21.5,5.371 21.238,4.427 20.652,3.62 L19.438,4.502 C19.807,5.01 20.023,5.66 20.135,6.698 C20.249,7.75 20.25,9.108 20.25,11 L21.75,11 Z M18.498,3.562 C18.859,3.824 19.176,4.141 19.438,4.502 L20.652,3.62 C20.297,3.132 19.868,2.703 19.38,2.348 L18.498,3.562 Z M3.75,11 C3.75,9.108 3.751,7.75 3.865,6.698 C3.977,5.66 4.193,5.01 4.562,4.502 L3.348,3.62 C2.762,4.427 2.5,5.371 2.374,6.536 C2.249,7.688 2.25,9.142 2.25,11 L3.75,11 Z M4.62,2.348 C4.132,2.703 3.703,3.132 3.348,3.62 L4.562,4.502 C4.824,4.141 5.141,3.824 5.502,3.562 L4.62,2.348 Z M13.029,5.855 C12.588,5.924 12.14,5.924 11.699,5.855 L11.464,7.336 C12.06,7.43 12.668,7.43 13.264,7.336 L13.029,5.855 Z M17.91,2.121 C16.67,3.36 15.766,4.25 14.986,4.865 C14.216,5.471 13.626,5.76 13.029,5.855 L13.264,7.336 C14.212,7.186 15.038,6.733 15.914,6.043 C16.778,5.362 17.749,4.403 18.971,3.182 L17.91,2.121 Z M12,2.75 C13.662,2.75 14.915,2.751 15.915,2.829 C16.912,2.908 17.584,3.06 18.103,3.321 L18.778,1.982 C18.005,1.592 17.107,1.418 16.032,1.334 C14.96,1.249 13.639,1.25 12,1.25 L12,2.75 Z M18.103,3.321 C18.243,3.392 18.374,3.471 18.498,3.562 L19.38,2.348 C19.189,2.21 18.989,2.088 18.778,1.982 L18.103,3.321 Z M5.542,2.967 C6.832,4.257 7.845,5.268 8.738,5.983 C9.642,6.707 10.489,7.182 11.464,7.336 L11.699,5.855 C11.085,5.757 10.478,5.454 9.676,4.812 C8.862,4.161 7.915,3.219 6.603,1.906 L5.542,2.967 Z M12,1.25 C10.564,1.25 9.374,1.25 8.385,1.306 C7.397,1.362 6.556,1.476 5.828,1.727 L6.317,3.145 C6.852,2.96 7.532,2.856 8.47,2.803 C9.407,2.75 10.549,2.75 12,2.75 L12,1.25 Z M5.828,1.727 C5.387,1.879 4.988,2.081 4.62,2.348 L5.502,3.562 C5.738,3.39 6.003,3.254 6.317,3.145 L5.828,1.727 Z M13,16.75 L16,16.75 L16,15.25 L13,15.25 L13,16.75 Z M8,12.75 L16,12.75 L16,11.25 L8,11.25 L8,12.75 Z"/>
</svg>

