<svg xmlns="http://www.w3.org/2000/svg" width="24" height="24" viewBox="0 0 24 24">
  <defs/>
  <path fill="#2D264B" d="M21,11 L21,13 C21,16.75 21,18.625 20.045,19.939 C19.737,20.363 19.363,20.737 18.939,21.045 C17.625,22 15.75,22 12,22 C8.25,22 6.375,22 5.061,21.045 C4.637,20.737 4.263,20.363 3.955,19.939 C3,18.625 3,16.75 3,13 L3,11 C3,10.161 3,9.416 3.011,8.75 L3.081,8.75 C3.933,8.75 4.452,8.75 4.899,8.679 C7.36,8.29 9.29,6.36 9.679,3.899 C9.75,3.452 9.75,2.933 9.75,2.081 L9.75,2.011 C10.416,2 11.161,2 12,2 C15.75,2 17.625,2 18.939,2.955 C19.363,3.263 19.737,3.637 20.045,4.061 C21,5.375 21,7.25 21,11 Z M12.75,9 C12.75,8.586 12.414,8.25 12,8.25 C11.586,8.25 11.25,8.586 11.25,9 L11.25,15.936 C11.236,15.925 11.221,15.914 11.207,15.902 C10.884,15.643 10.5,15.257 9.931,14.682 L8.533,13.272 C8.241,12.978 7.766,12.976 7.472,13.267 C7.178,13.559 7.176,14.034 7.467,14.328 L8.896,15.769 C9.427,16.305 9.87,16.753 10.267,17.071 C10.684,17.406 11.121,17.66 11.655,17.728 C11.884,17.757 12.116,17.757 12.345,17.728 C12.879,17.66 13.316,17.406 13.733,17.071 C14.13,16.753 14.573,16.305 15.104,15.769 L16.533,14.328 C16.824,14.034 16.822,13.559 16.528,13.267 C16.234,12.976 15.759,12.978 15.467,13.272 L14.069,14.682 C13.5,15.257 13.116,15.643 12.793,15.902 C12.779,15.914 12.764,15.925 12.75,15.936 Z"/>
  <path fill="#2D264B" d="M4.665,7.198 C4.356,7.247 3.976,7.25 3.065,7.25 C3.16,5.81 3.391,4.838 3.955,4.061 C4.263,3.637 4.637,3.263 5.061,2.955 C5.838,2.391 6.81,2.16 8.25,2.065 C8.25,2.976 8.247,3.356 8.198,3.665 C7.91,5.483 6.483,6.91 4.665,7.198 Z"/>
</svg>

