<svg width="24" height="24" viewBox="0 0 24 24" fill="none" xmlns="http://www.w3.org/2000/svg">
<path fill-rule="evenodd" clip-rule="evenodd" d="M21 13C21 16.7497 21 18.6246 20.0451 19.9389C19.7367 20.3634 19.3634 20.7367 18.9389 21.0451C17.6246 22 15.7497 22 12 22C8.25027 22 6.3754 22 5.06107 21.0451C4.6366 20.7367 4.26331 20.3634 3.95491 19.9389C3 18.6246 3 16.7497 3 13V11C3 10.1611 3 9.41596 3.01069 8.75L3.08082 8.75C3.93284 8.75007 4.45182 8.75011 4.8995 8.67921C7.35988 8.28952 9.28952 6.35988 9.67921 3.8995C9.75011 3.45182 9.75007 2.93284 9.75 2.08082L9.75 2.01069C10.416 2 11.1611 2 12 2C15.7497 2 17.6246 2 18.9389 2.95491C19.3634 3.26331 19.7367 3.6366 20.0451 4.06107C21 5.3754 21 7.25027 21 11V13ZM14.6519 11.6516C14.9448 11.3587 14.9448 10.8839 14.6519 10.591C14.359 10.2981 13.8841 10.2981 13.5912 10.591L12.0002 12.182L10.4092 10.591C10.1163 10.2981 9.64147 10.2981 9.34858 10.591C9.05568 10.8839 9.05568 11.3587 9.34858 11.6516L10.9396 13.2426L9.34858 14.8336C9.05568 15.1265 9.05568 15.6014 9.34858 15.8943C9.64147 16.1872 10.1163 16.1872 10.4092 15.8943L12.0002 14.3033L13.5912 15.8943C13.8841 16.1872 14.359 16.1872 14.6519 15.8943C14.9448 15.6014 14.9448 15.1265 14.6519 14.8336L13.0609 13.2426L14.6519 11.6516Z" fill="#2D264B"/>
<path d="M4.66485 7.19768C4.35646 7.24652 3.97568 7.24987 3.06534 7.25C3.15974 5.81037 3.39057 4.83783 3.95491 4.06107C4.26331 3.6366 4.6366 3.26331 5.06107 2.95491C5.83783 2.39057 6.81037 2.15974 8.25 2.06534C8.24987 2.97568 8.24652 3.35645 8.19768 3.66485C7.90965 5.48339 6.48339 6.90965 4.66485 7.19768Z" fill="#2D264B"/>
</svg>
