<svg width="24" height="24" viewBox="0 0 24 24" fill="none" xmlns="http://www.w3.org/2000/svg">
<path fill-rule="evenodd" clip-rule="evenodd" d="M3 12C3 8.25027 3 6.3754 3.95491 5.06107C4.26331 4.6366 4.6366 4.26331 5.06107 3.95491C6.3754 3 8.25027 3 12 3C15.7497 3 17.6246 3 18.9389 3.95491C19.3634 4.26331 19.7367 4.6366 20.0451 5.06107C21 6.3754 21 8.25027 21 12C21 15.7497 21 17.6246 20.0451 18.9389C19.7367 19.3634 19.3634 19.7367 18.9389 20.0451C17.6246 21 15.7497 21 12 21C11.1611 21 10.416 21 9.75 20.9893L9.75 20.9192C9.75007 20.0672 9.75011 19.5482 9.67921 19.1005C9.28952 16.6401 7.35988 14.7105 4.8995 14.3208C4.45182 14.2499 3.93284 14.2499 3.08082 14.25L3.01069 14.25C3 13.584 3 12.8389 3 12ZM8 8.75L11 8.75C11.4142 8.75 11.75 8.41421 11.75 8C11.75 7.58579 11.4142 7.25 11 7.25L8 7.25C7.58579 7.25 7.25 7.58579 7.25 8C7.25 8.41421 7.58579 8.75 8 8.75ZM7.25 12C7.25 12.4142 7.58579 12.75 8 12.75L16 12.75C16.4142 12.75 16.75 12.4142 16.75 12C16.75 11.5858 16.4142 11.25 16 11.25L8 11.25C7.58579 11.25 7.25 11.5858 7.25 12Z" fill="#2D264B"/>
<path d="M8.19768 19.3352C8.24652 19.6435 8.24987 20.0243 8.25 20.9347C6.81037 20.8403 5.83783 20.6094 5.06107 20.0451C4.6366 19.7367 4.26331 19.3634 3.95491 18.9389C3.39057 18.1622 3.15974 17.1896 3.06534 15.75C3.97568 15.7501 4.35646 15.7535 4.66485 15.8023C6.48339 16.0904 7.90965 17.5166 8.19768 19.3352Z" fill="#2D264B"/>
</svg>
