<svg xmlns="http://www.w3.org/2000/svg" width="24" height="24" viewBox="0 0 24 24">
  <defs/>
  <path fill="#2D264B" d="M10.25,17 C10.25,17.414 10.586,17.75 11,17.75 C11.414,17.75 11.75,17.414 11.75,17 L10.25,17 Z M6.467,11.672 C6.176,11.966 6.178,12.441 6.472,12.733 C6.766,13.024 7.241,13.022 7.533,12.728 L6.467,11.672 Z M14.467,12.728 C14.759,13.022 15.234,13.024 15.528,12.733 C15.822,12.441 15.824,11.966 15.533,11.672 L14.467,12.728 Z M19.335,8.198 C17.517,7.91 16.09,6.483 15.802,4.665 L14.321,4.899 C14.71,7.36 16.64,9.29 19.101,9.679 L19.335,8.198 Z M12,20.25 C10.108,20.25 8.75,20.249 7.698,20.135 C6.66,20.023 6.01,19.807 5.502,19.438 L4.62,20.652 C5.427,21.238 6.371,21.5 7.536,21.626 C8.688,21.751 10.142,21.75 12,21.75 L12,20.25 Z M2.25,12 C2.25,13.858 2.249,15.312 2.374,16.463 C2.5,17.629 2.762,18.573 3.348,19.38 L4.562,18.498 C4.193,17.99 3.977,17.34 3.865,16.302 C3.751,15.25 3.75,13.892 3.75,12 L2.25,12 Z M5.502,19.438 C5.141,19.176 4.824,18.859 4.562,18.498 L3.348,19.38 C3.703,19.868 4.132,20.297 4.62,20.652 L5.502,19.438 Z M20.25,12 C20.25,13.892 20.249,15.25 20.135,16.302 C20.023,17.34 19.807,17.99 19.438,18.498 L20.652,19.38 C21.238,18.573 21.5,17.629 21.626,16.463 C21.751,15.312 21.75,13.858 21.75,12 L20.25,12 Z M12,21.75 C13.858,21.75 15.312,21.751 16.463,21.626 C17.629,21.5 18.573,21.238 19.38,20.652 L18.498,19.438 C17.99,19.807 17.34,20.023 16.302,20.135 C15.25,20.249 13.892,20.25 12,20.25 L12,21.75 Z M19.438,18.498 C19.176,18.859 18.859,19.176 18.498,19.438 L19.38,20.652 C19.868,20.297 20.297,19.868 20.652,19.38 L19.438,18.498 Z M18.498,4.562 C18.859,4.824 19.176,5.141 19.438,5.502 L20.652,4.62 C20.297,4.132 19.868,3.703 19.38,3.348 L18.498,4.562 Z M12,2.25 C10.142,2.25 8.688,2.249 7.536,2.374 C6.371,2.5 5.427,2.762 4.62,3.348 L5.502,4.562 C6.01,4.193 6.66,3.977 7.698,3.865 C8.75,3.751 10.108,3.75 12,3.75 L12,2.25 Z M3.75,12 C3.75,10.108 3.751,8.75 3.865,7.698 C3.977,6.66 4.193,6.01 4.562,5.502 L3.348,4.62 C2.762,5.427 2.5,6.371 2.374,7.536 C2.249,8.688 2.25,10.142 2.25,12 L3.75,12 Z M4.62,3.348 C4.132,3.703 3.703,4.132 3.348,4.62 L4.562,5.502 C4.824,5.141 5.141,4.824 5.502,4.562 L4.62,3.348 Z M12,3.75 C13.173,3.75 14.146,3.75 14.974,3.778 L15.026,2.279 C14.166,2.25 13.165,2.25 12,2.25 L12,3.75 Z M14.974,3.778 C16.829,3.842 17.793,4.049 18.498,4.562 L19.38,3.348 C18.276,2.546 16.899,2.344 15.026,2.279 L14.974,3.778 Z M14.25,3.029 C14.25,3.911 14.248,4.442 14.321,4.899 L15.802,4.665 C15.753,4.353 15.75,3.966 15.75,3.029 L14.25,3.029 Z M21.75,12 C21.75,10.835 21.75,9.834 21.721,8.974 L20.221,9.026 C20.25,9.854 20.25,10.827 20.25,12 L21.75,12 Z M21.721,8.974 C21.656,7.101 21.454,5.724 20.652,4.62 L19.438,5.502 C19.951,6.207 20.158,7.171 20.221,9.026 L21.721,8.974 Z M20.971,8.25 C20.034,8.25 19.647,8.247 19.335,8.198 L19.101,9.679 C19.558,9.752 20.089,9.75 20.971,9.75 L20.971,8.25 Z M11.75,17 L11.75,9.8 L10.25,9.8 L10.25,17 L11.75,17 Z M7.533,12.728 L8.931,11.318 L7.865,10.262 L6.467,11.672 L7.533,12.728 Z M13.069,11.318 L14.467,12.728 L15.533,11.672 L14.135,10.262 L13.069,11.318 Z M8.931,11.318 C9.5,10.743 9.884,10.357 10.207,10.098 C10.517,9.849 10.698,9.779 10.844,9.76 L10.655,8.272 C10.121,8.34 9.684,8.594 9.267,8.929 C8.863,9.254 8.41,9.712 7.865,10.262 L8.931,11.318 Z M14.135,10.262 C13.59,9.712 13.137,9.254 12.733,8.929 C12.316,8.594 11.879,8.34 11.345,8.272 L11.156,9.76 C11.302,9.779 11.483,9.849 11.793,10.098 C12.116,10.357 12.5,10.743 13.069,11.318 L14.135,10.262 Z M10.844,9.76 C10.896,9.753 10.948,9.75 11,9.75 L11,8.25 C10.885,8.25 10.769,8.257 10.655,8.272 L10.844,9.76 Z M11,9.75 C11.052,9.75 11.104,9.753 11.156,9.76 L11.345,8.272 C11.231,8.257 11.115,8.25 11,8.25 L11,9.75 Z M11.75,9.8 C11.75,9.799 11.75,9.799 11.75,9.798 C11.75,9.798 11.75,9.797 11.75,9.797 C11.75,9.796 11.75,9.796 11.75,9.795 C11.75,9.795 11.75,9.794 11.75,9.794 C11.75,9.793 11.75,9.793 11.75,9.792 C11.75,9.792 11.75,9.791 11.75,9.791 C11.75,9.79 11.75,9.789 11.75,9.789 C11.75,9.788 11.75,9.788 11.75,9.787 C11.75,9.787 11.75,9.786 11.75,9.786 C11.75,9.785 11.75,9.785 11.75,9.784 C11.75,9.784 11.75,9.783 11.75,9.782 C11.75,9.782 11.75,9.781 11.75,9.781 C11.75,9.78 11.75,9.78 11.75,9.779 C11.75,9.779 11.75,9.778 11.75,9.778 C11.75,9.777 11.75,9.776 11.75,9.776 C11.75,9.775 11.75,9.775 11.75,9.774 C11.75,9.774 11.75,9.773 11.75,9.773 C11.75,9.772 11.75,9.771 11.75,9.771 C11.75,9.77 11.75,9.77 11.75,9.769 C11.75,9.769 11.75,9.768 11.75,9.768 C11.75,9.767 11.75,9.766 11.75,9.766 C11.75,9.765 11.75,9.765 11.75,9.764 C11.75,9.764 11.75,9.763 11.75,9.763 C11.75,9.762 11.75,9.761 11.75,9.761 C11.75,9.76 11.75,9.76 11.75,9.759 C11.75,9.759 11.75,9.758 11.75,9.757 C11.75,9.757 11.75,9.756 11.75,9.756 C11.75,9.755 11.75,9.755 11.75,9.754 C11.75,9.753 11.75,9.753 11.75,9.752 C11.75,9.752 11.75,9.751 11.75,9.751 C11.75,9.75 11.75,9.749 11.75,9.749 C11.75,9.748 11.75,9.748 11.75,9.747 C11.75,9.746 11.75,9.746 11.75,9.745 C11.75,9.745 11.75,9.744 11.75,9.744 C11.75,9.743 11.75,9.742 11.75,9.742 C11.75,9.741 11.75,9.741 11.75,9.74 C11.75,9.739 11.75,9.739 11.75,9.738 C11.75,9.738 11.75,9.737 11.75,9.737 C11.75,9.736 11.75,9.735 11.75,9.735 C11.75,9.734 11.75,9.734 11.75,9.733 C11.75,9.732 11.75,9.732 11.75,9.731 C11.75,9.731 11.75,9.73 11.75,9.729 C11.75,9.729 11.75,9.728 11.75,9.728 C11.75,9.727 11.75,9.726 11.75,9.726 C11.75,9.725 11.75,9.725 11.75,9.724 C11.75,9.723 11.75,9.723 11.75,9.722 C11.75,9.722 11.75,9.721 11.75,9.72 C11.75,9.72 11.75,9.719 11.75,9.719 C11.75,9.718 11.75,9.717 11.75,9.717 C11.75,9.716 11.75,9.716 11.75,9.715 C11.75,9.714 11.75,9.714 11.75,9.713 C11.75,9.713 11.75,9.712 11.75,9.711 C11.75,9.711 11.75,9.71 11.75,9.71 C11.75,9.709 11.75,9.708 11.75,9.708 C11.75,9.707 11.75,9.706 11.75,9.706 C11.75,9.705 11.75,9.705 11.75,9.704 C11.75,9.703 11.75,9.703 11.75,9.702 C11.75,9.702 11.75,9.701 11.75,9.7 C11.75,9.7 11.75,9.699 11.75,9.698 C11.75,9.698 11.75,9.697 11.75,9.697 C11.75,9.696 11.75,9.695 11.75,9.695 C11.75,9.694 11.75,9.693 11.75,9.693 C11.75,9.692 11.75,9.692 11.75,9.691 C11.75,9.69 11.75,9.69 11.75,9.689 C11.75,9.688 11.75,9.688 11.75,9.687 C11.75,9.687 11.75,9.686 11.75,9.685 C11.75,9.685 11.75,9.684 11.75,9.683 C11.75,9.683 11.75,9.682 11.75,9.682 C11.75,9.681 11.75,9.68 11.75,9.68 C11.75,9.679 11.75,9.678 11.75,9.678 C11.75,9.677 11.75,9.676 11.75,9.676 C11.75,9.675 11.75,9.675 11.75,9.674 C11.75,9.673 11.75,9.673 11.75,9.672 C11.75,9.671 11.75,9.671 11.75,9.67 C11.75,9.669 11.75,9.669 11.75,9.668 C11.75,9.668 11.75,9.667 11.75,9.666 C11.75,9.666 11.75,9.665 11.75,9.664 C11.75,9.664 11.75,9.663 11.75,9.662 C11.75,9.662 11.75,9.661 11.75,9.66 C11.75,9.66 11.75,9.659 11.75,9.659 C11.75,9.658 11.75,9.657 11.75,9.657 C11.75,9.656 11.75,9.655 11.75,9.655 C11.75,9.654 11.75,9.653 11.75,9.653 C11.75,9.652 11.75,9.651 11.75,9.651 C11.75,9.65 11.75,9.649 11.75,9.649 C11.75,9.648 11.75,9.648 11.75,9.647 C11.75,9.646 11.75,9.646 11.75,9.645 C11.75,9.644 11.75,9.644 11.75,9.643 C11.75,9.642 11.75,9.642 11.75,9.641 C11.75,9.64 11.75,9.64 11.75,9.639 C11.75,9.638 11.75,9.638 11.75,9.637 C11.75,9.636 11.75,9.636 11.75,9.635 C11.75,9.634 11.75,9.634 11.75,9.633 C11.75,9.632 11.75,9.632 11.75,9.631 C11.75,9.63 11.75,9.63 11.75,9.629 C11.75,9.628 11.75,9.628 11.75,9.627 C11.75,9.626 11.75,9.626 11.75,9.625 C11.75,9.624 11.75,9.624 11.75,9.623 C11.75,9.623 11.75,9.622 11.75,9.621 C11.75,9.621 11.75,9.62 11.75,9.619 C11.75,9.619 11.75,9.618 11.75,9.617 C11.75,9.617 11.75,9.616 11.75,9.615 C11.75,9.615 11.75,9.614 11.75,9.613 C11.75,9.613 11.75,9.612 11.75,9.611 C11.75,9.611 11.75,9.61 11.75,9.609 C11.75,9.609 11.75,9.608 11.75,9.607 C11.75,9.607 11.75,9.606 11.75,9.605 C11.75,9.604 11.75,9.604 11.75,9.603 C11.75,9.602 11.75,9.602 11.75,9.601 C11.75,9.6 11.75,9.6 11.75,9.599 C11.75,9.598 11.75,9.598 11.75,9.597 C11.75,9.596 11.75,9.596 11.75,9.595 C11.75,9.594 11.75,9.594 11.75,9.593 C11.75,9.592 11.75,9.592 11.75,9.591 C11.75,9.59 11.75,9.59 11.75,9.589 C11.75,9.588 11.75,9.588 11.75,9.587 C11.75,9.586 11.75,9.586 11.75,9.585 C11.75,9.584 11.75,9.584 11.75,9.583 C11.75,9.582 11.75,9.582 11.75,9.581 C11.75,9.58 11.75,9.58 11.75,9.579 C11.75,9.578 11.75,9.578 11.75,9.577 C11.75,9.576 11.75,9.575 11.75,9.575 C11.75,9.574 11.75,9.573 11.75,9.573 C11.75,9.572 11.75,9.571 11.75,9.571 C11.75,9.57 11.75,9.569 11.75,9.569 C11.75,9.568 11.75,9.567 11.75,9.567 C11.75,9.566 11.75,9.565 11.75,9.565 C11.75,9.564 11.75,9.563 11.75,9.562 C11.75,9.562 11.75,9.561 11.75,9.56 C11.75,9.56 11.75,9.559 11.75,9.558 C11.75,9.558 11.75,9.557 11.75,9.556 C11.75,9.556 11.75,9.555 11.75,9.554 C11.75,9.554 11.75,9.553 11.75,9.552 C11.75,9.552 11.75,9.551 11.75,9.55 C11.75,9.549 11.75,9.549 11.75,9.548 C11.75,9.547 11.75,9.547 11.75,9.546 C11.75,9.545 11.75,9.545 11.75,9.544 C11.75,9.543 11.75,9.543 11.75,9.542 C11.75,9.541 11.75,9.541 11.75,9.54 C11.75,9.539 11.75,9.538 11.75,9.538 C11.75,9.537 11.75,9.536 11.75,9.536 C11.75,9.535 11.75,9.534 11.75,9.534 C11.75,9.533 11.75,9.532 11.75,9.532 C11.75,9.531 11.75,9.53 11.75,9.53 C11.75,9.529 11.75,9.528 11.75,9.527 C11.75,9.527 11.75,9.526 11.75,9.525 C11.75,9.525 11.75,9.524 11.75,9.523 C11.75,9.523 11.75,9.522 11.75,9.521 C11.75,9.521 11.75,9.52 11.75,9.519 C11.75,9.518 11.75,9.518 11.75,9.517 C11.75,9.516 11.75,9.516 11.75,9.515 C11.75,9.514 11.75,9.514 11.75,9.513 C11.75,9.512 11.75,9.512 11.75,9.511 C11.75,9.51 11.75,9.509 11.75,9.509 C11.75,9.508 11.75,9.507 11.75,9.507 C11.75,9.506 11.75,9.505 11.75,9.505 C11.75,9.504 11.75,9.503 11.75,9.503 C11.75,9.502 11.75,9.501 11.75,9.5 C11.75,9.5 11.75,9.499 11.75,9.498 C11.75,9.498 11.75,9.497 11.75,9.496 C11.75,9.496 11.75,9.495 11.75,9.494 C11.75,9.494 11.75,9.493 11.75,9.492 C11.75,9.491 11.75,9.491 11.75,9.49 C11.75,9.489 11.75,9.489 11.75,9.488 C11.75,9.487 11.75,9.487 11.75,9.486 C11.75,9.485 11.75,9.484 11.75,9.484 C11.75,9.483 11.75,9.482 11.75,9.482 C11.75,9.481 11.75,9.48 11.75,9.48 C11.75,9.479 11.75,9.478 11.75,9.478 C11.75,9.477 11.75,9.476 11.75,9.475 C11.75,9.475 11.75,9.474 11.75,9.473 C11.75,9.473 11.75,9.472 11.75,9.471 C11.75,9.471 11.75,9.47 11.75,9.469 C11.75,9.469 11.75,9.468 11.75,9.467 C11.75,9.466 11.75,9.466 11.75,9.465 C11.75,9.464 11.75,9.464 11.75,9.463 C11.75,9.462 11.75,9.462 11.75,9.461 C11.75,9.46 11.75,9.459 11.75,9.459 C11.75,9.458 11.75,9.457 11.75,9.457 C11.75,9.456 11.75,9.455 11.75,9.455 C11.75,9.454 11.75,9.453 11.75,9.453 C11.75,9.452 11.75,9.451 11.75,9.45 C11.75,9.45 11.75,9.449 11.75,9.448 C11.75,9.448 11.75,9.447 11.75,9.446 C11.75,9.446 11.75,9.445 11.75,9.444 C11.75,9.444 11.75,9.443 11.75,9.442 C11.75,9.441 11.75,9.441 11.75,9.44 C11.75,9.439 11.75,9.439 11.75,9.438 C11.75,9.437 11.75,9.437 11.75,9.436 C11.75,9.435 11.75,9.435 11.75,9.434 C11.75,9.433 11.75,9.432 11.75,9.432 C11.75,9.431 11.75,9.43 11.75,9.43 C11.75,9.429 11.75,9.428 11.75,9.428 C11.75,9.427 11.75,9.426 11.75,9.426 C11.75,9.425 11.75,9.424 11.75,9.423 C11.75,9.423 11.75,9.422 11.75,9.421 C11.75,9.421 11.75,9.42 11.75,9.419 C11.75,9.419 11.75,9.418 11.75,9.417 C11.75,9.417 11.75,9.416 11.75,9.415 C11.75,9.414 11.75,9.414 11.75,9.413 C11.75,9.412 11.75,9.412 11.75,9.411 C11.75,9.41 11.75,9.41 11.75,9.409 C11.75,9.408 11.75,9.408 11.75,9.407 C11.75,9.406 11.75,9.406 11.75,9.405 C11.75,9.404 11.75,9.403 11.75,9.403 C11.75,9.402 11.75,9.401 11.75,9.401 C11.75,9.4 11.75,9.399 11.75,9.399 C11.75,9.398 11.75,9.397 11.75,9.397 C11.75,9.396 11.75,9.395 11.75,9.395 C11.75,9.394 11.75,9.393 11.75,9.392 C11.75,9.392 11.75,9.391 11.75,9.39 C11.75,9.39 11.75,9.389 11.75,9.388 C11.75,9.388 11.75,9.387 11.75,9.386 C11.75,9.386 11.75,9.385 11.75,9.384 C11.75,9.384 11.75,9.383 11.75,9.382 C11.75,9.382 11.75,9.381 11.75,9.38 C11.75,9.38 11.75,9.379 11.75,9.378 C11.75,9.377 11.75,9.377 11.75,9.376 C11.75,9.375 11.75,9.375 11.75,9.374 C11.75,9.373 11.75,9.373 11.75,9.372 C11.75,9.371 11.75,9.371 11.75,9.37 C11.75,9.369 11.75,9.369 11.75,9.368 C11.75,9.367 11.75,9.367 11.75,9.366 C11.75,9.365 11.75,9.365 11.75,9.364 C11.75,9.363 11.75,9.363 11.75,9.362 C11.75,9.361 11.75,9.36 11.75,9.36 C11.75,9.359 11.75,9.358 11.75,9.358 C11.75,9.357 11.75,9.356 11.75,9.356 C11.75,9.355 11.75,9.354 11.75,9.354 C11.75,9.353 11.75,9.352 11.75,9.352 C11.75,9.351 11.75,9.35 11.75,9.35 C11.75,9.349 11.75,9.348 11.75,9.348 C11.75,9.347 11.75,9.346 11.75,9.346 C11.75,9.345 11.75,9.344 11.75,9.344 C11.75,9.343 11.75,9.342 11.75,9.342 C11.75,9.341 11.75,9.34 11.75,9.34 C11.75,9.339 11.75,9.338 11.75,9.338 C11.75,9.337 11.75,9.336 11.75,9.336 C11.75,9.335 11.75,9.334 11.75,9.334 C11.75,9.333 11.75,9.332 11.75,9.332 C11.75,9.331 11.75,9.33 11.75,9.33 C11.75,9.329 11.75,9.328 11.75,9.328 C11.75,9.327 11.75,9.326 11.75,9.326 C11.75,9.325 11.75,9.324 11.75,9.324 C11.75,9.323 11.75,9.322 11.75,9.322 C11.75,9.321 11.75,9.32 11.75,9.32 C11.75,9.319 11.75,9.318 11.75,9.318 C11.75,9.317 11.75,9.316 11.75,9.316 C11.75,9.315 11.75,9.314 11.75,9.314 C11.75,9.313 11.75,9.312 11.75,9.312 C11.75,9.311 11.75,9.31 11.75,9.31 C11.75,9.309 11.75,9.308 11.75,9.308 C11.75,9.307 11.75,9.307 11.75,9.306 C11.75,9.305 11.75,9.305 11.75,9.304 C11.75,9.303 11.75,9.303 11.75,9.302 C11.75,9.301 11.75,9.301 11.75,9.3 C11.75,9.299 11.75,9.299 11.75,9.298 C11.75,9.297 11.75,9.297 11.75,9.296 C11.75,9.295 11.75,9.295 11.75,9.294 C11.75,9.294 11.75,9.293 11.75,9.292 C11.75,9.292 11.75,9.291 11.75,9.29 C11.75,9.29 11.75,9.289 11.75,9.288 C11.75,9.288 11.75,9.287 11.75,9.286 C11.75,9.286 11.75,9.285 11.75,9.284 C11.75,9.284 11.75,9.283 11.75,9.283 C11.75,9.282 11.75,9.281 11.75,9.281 C11.75,9.28 11.75,9.279 11.75,9.279 C11.75,9.278 11.75,9.277 11.75,9.277 C11.75,9.276 11.75,9.276 11.75,9.275 C11.75,9.274 11.75,9.274 11.75,9.273 C11.75,9.272 11.75,9.272 11.75,9.271 C11.75,9.27 11.75,9.27 11.75,9.269 C11.75,9.269 11.75,9.268 11.75,9.267 C11.75,9.267 11.75,9.266 11.75,9.265 C11.75,9.265 11.75,9.264 11.75,9.263 C11.75,9.263 11.75,9.262 11.75,9.262 C11.75,9.261 11.75,9.26 11.75,9.26 C11.75,9.259 11.75,9.258 11.75,9.258 C11.75,9.257 11.75,9.257 11.75,9.256 C11.75,9.255 11.75,9.255 11.75,9.254 C11.75,9.253 11.75,9.253 11.75,9.252 C11.75,9.252 11.75,9.251 11.75,9.25 C11.75,9.25 11.75,9.249 11.75,9.248 C11.75,9.248 11.75,9.247 11.75,9.247 C11.75,9.246 11.75,9.245 11.75,9.245 C11.75,9.244 11.75,9.244 11.75,9.243 C11.75,9.242 11.75,9.242 11.75,9.241 C11.75,9.24 11.75,9.24 11.75,9.239 C11.75,9.239 11.75,9.238 11.75,9.237 C11.75,9.237 11.75,9.236 11.75,9.236 C11.75,9.235 11.75,9.234 11.75,9.234 C11.75,9.233 11.75,9.233 11.75,9.232 C11.75,9.231 11.75,9.231 11.75,9.23 C11.75,9.23 11.75,9.229 11.75,9.228 C11.75,9.228 11.75,9.227 11.75,9.226 C11.75,9.226 11.75,9.225 11.75,9.225 C11.75,9.224 11.75,9.223 11.75,9.223 C11.75,9.222 11.75,9.222 11.75,9.221 C11.75,9.22 11.75,9.22 11.75,9.219 C11.75,9.219 11.75,9.218 11.75,9.218 C11.75,9.217 11.75,9.216 11.75,9.216 C11.75,9.215 11.75,9.215 11.75,9.214 C11.75,9.213 11.75,9.213 11.75,9.212 C11.75,9.212 11.75,9.211 11.75,9.21 C11.75,9.21 11.75,9.209 11.75,9.209 C11.75,9.208 11.75,9.207 11.75,9.207 C11.75,9.206 11.75,9.206 11.75,9.205 C11.75,9.205 11.75,9.204 11.75,9.203 C11.75,9.203 11.75,9.202 11.75,9.202 C11.75,9.201 11.75,9.2 11.75,9.2 C11.75,9.199 11.75,9.199 11.75,9.198 C11.75,9.198 11.75,9.197 11.75,9.196 C11.75,9.196 11.75,9.195 11.75,9.195 C11.75,9.194 11.75,9.194 11.75,9.193 C11.75,9.192 11.75,9.192 11.75,9.191 C11.75,9.191 11.75,9.19 11.75,9.19 C11.75,9.189 11.75,9.188 11.75,9.188 C11.75,9.187 11.75,9.187 11.75,9.186 C11.75,9.186 11.75,9.185 11.75,9.184 C11.75,9.184 11.75,9.183 11.75,9.183 C11.75,9.182 11.75,9.182 11.75,9.181 C11.75,9.181 11.75,9.18 11.75,9.179 C11.75,9.179 11.75,9.178 11.75,9.178 C11.75,9.177 11.75,9.177 11.75,9.176 C11.75,9.176 11.75,9.175 11.75,9.174 C11.75,9.174 11.75,9.173 11.75,9.173 C11.75,9.172 11.75,9.172 11.75,9.171 C11.75,9.171 11.75,9.17 11.75,9.17 C11.75,9.169 11.75,9.168 11.75,9.168 C11.75,9.167 11.75,9.167 11.75,9.166 C11.75,9.166 11.75,9.165 11.75,9.165 C11.75,9.164 11.75,9.164 11.75,9.163 C11.75,9.162 11.75,9.162 11.75,9.161 C11.75,9.161 11.75,9.16 11.75,9.16 C11.75,9.159 11.75,9.159 11.75,9.158 C11.75,9.158 11.75,9.157 11.75,9.157 C11.75,9.156 11.75,9.155 11.75,9.155 C11.75,9.154 11.75,9.154 11.75,9.153 C11.75,9.153 11.75,9.152 11.75,9.152 C11.75,9.151 11.75,9.151 11.75,9.15 C11.75,9.15 11.75,9.149 11.75,9.149 C11.75,9.148 11.75,9.148 11.75,9.147 C11.75,9.147 11.75,9.146 11.75,9.146 C11.75,9.145 11.75,9.145 11.75,9.144 C11.75,9.143 11.75,9.143 11.75,9.142 C11.75,9.142 11.75,9.141 11.75,9.141 C11.75,9.14 11.75,9.14 11.75,9.139 C11.75,9.139 11.75,9.138 11.75,9.138 C11.75,9.137 11.75,9.137 11.75,9.136 C11.75,9.136 11.75,9.135 11.75,9.135 C11.75,9.134 11.75,9.134 11.75,9.133 C11.75,9.133 11.75,9.132 11.75,9.132 C11.75,9.131 11.75,9.131 11.75,9.13 C11.75,9.13 11.75,9.129 11.75,9.129 C11.75,9.128 11.75,9.128 11.75,9.127 C11.75,9.127 11.75,9.126 11.75,9.126 C11.75,9.125 11.75,9.125 11.75,9.124 C11.75,9.124 11.75,9.123 11.75,9.123 C11.75,9.123 11.75,9.122 11.75,9.122 C11.75,9.121 11.75,9.121 11.75,9.12 C11.75,9.12 11.75,9.119 11.75,9.119 C11.75,9.118 11.75,9.118 11.75,9.117 C11.75,9.117 11.75,9.116 11.75,9.116 C11.75,9.115 11.75,9.115 11.75,9.114 C11.75,9.114 11.75,9.113 11.75,9.113 C11.75,9.112 11.75,9.112 11.75,9.112 C11.75,9.111 11.75,9.111 11.75,9.11 C11.75,9.11 11.75,9.109 11.75,9.109 C11.75,9.108 11.75,9.108 11.75,9.107 C11.75,9.107 11.75,9.106 11.75,9.106 C11.75,9.106 11.75,9.105 11.75,9.105 C11.75,9.104 11.75,9.104 11.75,9.103 C11.75,9.103 11.75,9.102 11.75,9.102 C11.75,9.101 11.75,9.101 11.75,9.101 C11.75,9.1 11.75,9.1 11.75,9.099 C11.75,9.099 11.75,9.098 11.75,9.098 C11.75,9.097 11.75,9.097 11.75,9.097 C11.75,9.096 11.75,9.096 11.75,9.095 C11.75,9.095 11.75,9.094 11.75,9.094 C11.75,9.094 11.75,9.093 11.75,9.093 C11.75,9.092 11.75,9.092 11.75,9.091 C11.75,9.091 11.75,9.09 11.75,9.09 C11.75,9.09 11.75,9.089 11.75,9.089 C11.75,9.088 11.75,9.088 11.75,9.088 C11.75,9.087 11.75,9.087 11.75,9.086 C11.75,9.086 11.75,9.085 11.75,9.085 C11.75,9.085 11.75,9.084 11.75,9.084 C11.75,9.083 11.75,9.083 11.75,9.082 C11.75,9.082 11.75,9.082 11.75,9.081 C11.75,9.081 11.75,9.08 11.75,9.08 C11.75,9.08 11.75,9.079 11.75,9.079 C11.75,9.078 11.75,9.078 11.75,9.078 C11.75,9.077 11.75,9.077 11.75,9.076 C11.75,9.076 11.75,9.076 11.75,9.075 C11.75,9.075 11.75,9.074 11.75,9.074 C11.75,9.074 11.75,9.073 11.75,9.073 C11.75,9.072 11.75,9.072 11.75,9.072 C11.75,9.071 11.75,9.071 11.75,9.07 C11.75,9.07 11.75,9.07 11.75,9.069 C11.75,9.069 11.75,9.069 11.75,9.068 C11.75,9.068 11.75,9.067 11.75,9.067 C11.75,9.067 11.75,9.066 11.75,9.066 C11.75,9.066 11.75,9.065 11.75,9.065 C11.75,9.064 11.75,9.064 11.75,9.064 C11.75,9.063 11.75,9.063 11.75,9.063 C11.75,9.062 11.75,9.062 11.75,9.061 C11.75,9.061 11.75,9.061 11.75,9.06 C11.75,9.06 11.75,9.06 11.75,9.059 C11.75,9.059 11.75,9.059 11.75,9.058 C11.75,9.058 11.75,9.058 11.75,9.057 C11.75,9.057 11.75,9.056 11.75,9.056 C11.75,9.056 11.75,9.055 11.75,9.055 C11.75,9.055 11.75,9.054 11.75,9.054 C11.75,9.054 11.75,9.053 11.75,9.053 C11.75,9.053 11.75,9.052 11.75,9.052 C11.75,9.052 11.75,9.051 11.75,9.051 C11.75,9.051 11.75,9.05 11.75,9.05 C11.75,9.05 11.75,9.049 11.75,9.049 C11.75,9.049 11.75,9.048 11.75,9.048 C11.75,9.048 11.75,9.047 11.75,9.047 C11.75,9.047 11.75,9.046 11.75,9.046 C11.75,9.046 11.75,9.045 11.75,9.045 C11.75,9.045 11.75,9.044 11.75,9.044 C11.75,9.044 11.75,9.044 11.75,9.043 C11.75,9.043 11.75,9.043 11.75,9.042 C11.75,9.042 11.75,9.042 11.75,9.041 C11.75,9.041 11.75,9.041 11.75,9.04 C11.75,9.04 11.75,9.04 11.75,9.04 C11.75,9.039 11.75,9.039 11.75,9.039 C11.75,9.038 11.75,9.038 11.75,9.038 C11.75,9.037 11.75,9.037 11.75,9.037 C11.75,9.037 11.75,9.036 11.75,9.036 C11.75,9.036 11.75,9.035 11.75,9.035 C11.75,9.035 11.75,9.035 11.75,9.034 C11.75,9.034 11.75,9.034 11.75,9.033 C11.75,9.033 11.75,9.033 11.75,9.033 C11.75,9.032 11.75,9.032 11.75,9.032 C11.75,9.032 11.75,9.031 11.75,9.031 C11.75,9.031 11.75,9.03 11.75,9.03 C11.75,9.03 11.75,9.03 11.75,9.029 C11.75,9.029 11.75,9.029 11.75,9.029 C11.75,9.028 11.75,9.028 11.75,9.028 C11.75,9.028 11.75,9.027 11.75,9.027 C11.75,9.027 11.75,9.027 11.75,9.026 C11.75,9.026 11.75,9.026 11.75,9.026 C11.75,9.025 11.75,9.025 11.75,9.025 C11.75,9.025 11.75,9.024 11.75,9.024 C11.75,9.024 11.75,9.024 11.75,9.023 C11.75,9.023 11.75,9.023 11.75,9.023 C11.75,9.023 11.75,9.022 11.75,9.022 C11.75,9.022 11.75,9.022 11.75,9.021 C11.75,9.021 11.75,9.021 11.75,9.021 C11.75,9.02 11.75,9.02 11.75,9.02 C11.75,9.02 11.75,9.02 11.75,9.019 C11.75,9.019 11.75,9.019 11.75,9.019 C11.75,9.019 11.75,9.018 11.75,9.018 C11.75,9.018 11.75,9.018 11.75,9.017 C11.75,9.017 11.75,9.017 11.75,9.017 C11.75,9.017 11.75,9.016 11.75,9.016 C11.75,9.016 11.75,9.016 11.75,9.016 C11.75,9.015 11.75,9.015 11.75,9.015 C11.75,9.015 11.75,9.015 11.75,9.015 C11.75,9.014 11.75,9.014 11.75,9.014 C11.75,9.014 11.75,9.014 11.75,9.013 C11.75,9.013 11.75,9.013 11.75,9.013 C11.75,9.013 11.75,9.013 11.75,9.012 C11.75,9.012 11.75,9.012 11.75,9.012 C11.75,9.012 11.75,9.011 11.75,9.011 C11.75,9.011 11.75,9.011 11.75,9.011 C11.75,9.011 11.75,9.01 11.75,9.01 C11.75,9.01 11.75,9.01 11.75,9.01 C11.75,9.01 11.75,9.01 11.75,9.009 C11.75,9.009 11.75,9.009 11.75,9.009 C11.75,9.009 11.75,9.009 11.75,9.008 C11.75,9.008 11.75,9.008 11.75,9.008 C11.75,9.008 11.75,9.008 11.75,9.008 C11.75,9.007 11.75,9.007 11.75,9.007 C11.75,9.007 11.75,9.007 11.75,9.007 C11.75,9.007 11.75,9.007 11.75,9.006 C11.75,9.006 11.75,9.006 11.75,9.006 C11.75,9.006 11.75,9.006 11.75,9.006 C11.75,9.006 11.75,9.005 11.75,9.005 C11.75,9.005 11.75,9.005 11.75,9.005 C11.75,9.005 11.75,9.005 11.75,9.005 C11.75,9.005 11.75,9.004 11.75,9.004 C11.75,9.004 11.75,9.004 11.75,9.004 C11.75,9.004 11.75,9.004 11.75,9.004 C11.75,9.004 11.75,9.004 11.75,9.003 C11.75,9.003 11.75,9.003 11.75,9.003 C11.75,9.003 11.75,9.003 11.75,9.003 C11.75,9.003 11.75,9.003 11.75,9.003 C11.75,9.003 11.75,9.002 11.75,9.002 C11.75,9.002 11.75,9.002 11.75,9.002 C11.75,9.002 11.75,9.002 11.75,9.002 C11.75,9.002 11.75,9.002 11.75,9.002 C11.75,9.002 11.75,9.002 11.75,9.002 C11.75,9.001 11.75,9.001 11.75,9.001 C11.75,9.001 11.75,9.001 11.75,9.001 C11.75,9.001 11.75,9.001 11.75,9.001 C11.75,9.001 11.75,9.001 11.75,9.001 C11.75,9.001 11.75,9.001 11.75,9.001 C11.75,9.001 11.75,9.001 11.75,9.001 C11.75,9.001 11.75,9.001 11.75,9 C11.75,9 11.75,9 11.75,9 C11.75,9 11.75,9 11.75,9 C11.75,9 11.75,9 11.75,9 C11.75,9 11.75,9 11.75,9 C11.75,9 11.75,9 11.75,9 C11.75,9 11.75,9 11.75,9 C11.75,9 11.75,9 11.75,9 C11.75,9 11.75,9 11.75,9 C11.75,9 11.75,9 11,9 C10.25,9 10.25,9 10.25,9 C10.25,9 10.25,9 10.25,9 C10.25,9 10.25,9 10.25,9 C10.25,9 10.25,9 10.25,9 C10.25,9 10.25,9 10.25,9 C10.25,9 10.25,9 10.25,9 C10.25,9 10.25,9 10.25,9 C10.25,9 10.25,9 10.25,9 C10.25,9 10.25,9 10.25,9 C10.25,9.001 10.25,9.001 10.25,9.001 C10.25,9.001 10.25,9.001 10.25,9.001 C10.25,9.001 10.25,9.001 10.25,9.001 C10.25,9.001 10.25,9.001 10.25,9.001 C10.25,9.001 10.25,9.001 10.25,9.001 C10.25,9.001 10.25,9.001 10.25,9.001 C10.25,9.001 10.25,9.001 10.25,9.002 C10.25,9.002 10.25,9.002 10.25,9.002 C10.25,9.002 10.25,9.002 10.25,9.002 C10.25,9.002 10.25,9.002 10.25,9.002 C10.25,9.002 10.25,9.002 10.25,9.002 C10.25,9.002 10.25,9.003 10.25,9.003 C10.25,9.003 10.25,9.003 10.25,9.003 C10.25,9.003 10.25,9.003 10.25,9.003 C10.25,9.003 10.25,9.003 10.25,9.003 C10.25,9.004 10.25,9.004 10.25,9.004 C10.25,9.004 10.25,9.004 10.25,9.004 C10.25,9.004 10.25,9.004 10.25,9.004 C10.25,9.004 10.25,9.005 10.25,9.005 C10.25,9.005 10.25,9.005 10.25,9.005 C10.25,9.005 10.25,9.005 10.25,9.005 C10.25,9.005 10.25,9.006 10.25,9.006 C10.25,9.006 10.25,9.006 10.25,9.006 C10.25,9.006 10.25,9.006 10.25,9.006 C10.25,9.007 10.25,9.007 10.25,9.007 C10.25,9.007 10.25,9.007 10.25,9.007 C10.25,9.007 10.25,9.007 10.25,9.008 C10.25,9.008 10.25,9.008 10.25,9.008 C10.25,9.008 10.25,9.008 10.25,9.008 C10.25,9.009 10.25,9.009 10.25,9.009 C10.25,9.009 10.25,9.009 10.25,9.009 C10.25,9.01 10.25,9.01 10.25,9.01 C10.25,9.01 10.25,9.01 10.25,9.01 C10.25,9.01 10.25,9.011 10.25,9.011 C10.25,9.011 10.25,9.011 10.25,9.011 C10.25,9.011 10.25,9.012 10.25,9.012 C10.25,9.012 10.25,9.012 10.25,9.012 C10.25,9.013 10.25,9.013 10.25,9.013 C10.25,9.013 10.25,9.013 10.25,9.013 C10.25,9.014 10.25,9.014 10.25,9.014 C10.25,9.014 10.25,9.014 10.25,9.015 C10.25,9.015 10.25,9.015 10.25,9.015 C10.25,9.015 10.25,9.015 10.25,9.016 C10.25,9.016 10.25,9.016 10.25,9.016 C10.25,9.016 10.25,9.017 10.25,9.017 C10.25,9.017 10.25,9.017 10.25,9.017 C10.25,9.018 10.25,9.018 10.25,9.018 C10.25,9.018 10.25,9.019 10.25,9.019 C10.25,9.019 10.25,9.019 10.25,9.019 C10.25,9.02 10.25,9.02 10.25,9.02 C10.25,9.02 10.25,9.02 10.25,9.021 C10.25,9.021 10.25,9.021 10.25,9.021 C10.25,9.022 10.25,9.022 10.25,9.022 C10.25,9.022 10.25,9.023 10.25,9.023 C10.25,9.023 10.25,9.023 10.25,9.023 C10.25,9.024 10.25,9.024 10.25,9.024 C10.25,9.024 10.25,9.025 10.25,9.025 C10.25,9.025 10.25,9.025 10.25,9.026 C10.25,9.026 10.25,9.026 10.25,9.026 C10.25,9.027 10.25,9.027 10.25,9.027 C10.25,9.027 10.25,9.028 10.25,9.028 C10.25,9.028 10.25,9.028 10.25,9.029 C10.25,9.029 10.25,9.029 10.25,9.029 C10.25,9.03 10.25,9.03 10.25,9.03 C10.25,9.03 10.25,9.031 10.25,9.031 C10.25,9.031 10.25,9.032 10.25,9.032 C10.25,9.032 10.25,9.032 10.25,9.033 C10.25,9.033 10.25,9.033 10.25,9.033 C10.25,9.034 10.25,9.034 10.25,9.034 C10.25,9.035 10.25,9.035 10.25,9.035 C10.25,9.035 10.25,9.036 10.25,9.036 C10.25,9.036 10.25,9.037 10.25,9.037 C10.25,9.037 10.25,9.037 10.25,9.038 C10.25,9.038 10.25,9.038 10.25,9.039 C10.25,9.039 10.25,9.039 10.25,9.04 C10.25,9.04 10.25,9.04 10.25,9.04 C10.25,9.041 10.25,9.041 10.25,9.041 C10.25,9.042 10.25,9.042 10.25,9.042 C10.25,9.043 10.25,9.043 10.25,9.043 C10.25,9.044 10.25,9.044 10.25,9.044 C10.25,9.044 10.25,9.045 10.25,9.045 C10.25,9.045 10.25,9.046 10.25,9.046 C10.25,9.046 10.25,9.047 10.25,9.047 C10.25,9.047 10.25,9.048 10.25,9.048 C10.25,9.048 10.25,9.049 10.25,9.049 C10.25,9.049 10.25,9.05 10.25,9.05 C10.25,9.05 10.25,9.051 10.25,9.051 C10.25,9.051 10.25,9.052 10.25,9.052 C10.25,9.052 10.25,9.053 10.25,9.053 C10.25,9.053 10.25,9.054 10.25,9.054 C10.25,9.054 10.25,9.055 10.25,9.055 C10.25,9.055 10.25,9.056 10.25,9.056 C10.25,9.056 10.25,9.057 10.25,9.057 C10.25,9.058 10.25,9.058 10.25,9.058 C10.25,9.059 10.25,9.059 10.25,9.059 C10.25,9.06 10.25,9.06 10.25,9.06 C10.25,9.061 10.25,9.061 10.25,9.061 C10.25,9.062 10.25,9.062 10.25,9.063 C10.25,9.063 10.25,9.063 10.25,9.064 C10.25,9.064 10.25,9.064 10.25,9.065 C10.25,9.065 10.25,9.066 10.25,9.066 C10.25,9.066 10.25,9.067 10.25,9.067 C10.25,9.067 10.25,9.068 10.25,9.068 C10.25,9.069 10.25,9.069 10.25,9.069 C10.25,9.07 10.25,9.07 10.25,9.07 C10.25,9.071 10.25,9.071 10.25,9.072 C10.25,9.072 10.25,9.072 10.25,9.073 C10.25,9.073 10.25,9.074 10.25,9.074 C10.25,9.074 10.25,9.075 10.25,9.075 C10.25,9.076 10.25,9.076 10.25,9.076 C10.25,9.077 10.25,9.077 10.25,9.078 C10.25,9.078 10.25,9.078 10.25,9.079 C10.25,9.079 10.25,9.08 10.25,9.08 C10.25,9.08 10.25,9.081 10.25,9.081 C10.25,9.082 10.25,9.082 10.25,9.082 C10.25,9.083 10.25,9.083 10.25,9.084 C10.25,9.084 10.25,9.085 10.25,9.085 C10.25,9.085 10.25,9.086 10.25,9.086 C10.25,9.087 10.25,9.087 10.25,9.088 C10.25,9.088 10.25,9.088 10.25,9.089 C10.25,9.089 10.25,9.09 10.25,9.09 C10.25,9.09 10.25,9.091 10.25,9.091 C10.25,9.092 10.25,9.092 10.25,9.093 C10.25,9.093 10.25,9.094 10.25,9.094 C10.25,9.094 10.25,9.095 10.25,9.095 C10.25,9.096 10.25,9.096 10.25,9.097 C10.25,9.097 10.25,9.097 10.25,9.098 C10.25,9.098 10.25,9.099 10.25,9.099 C10.25,9.1 10.25,9.1 10.25,9.101 C10.25,9.101 10.25,9.101 10.25,9.102 C10.25,9.102 10.25,9.103 10.25,9.103 C10.25,9.104 10.25,9.104 10.25,9.105 C10.25,9.105 10.25,9.106 10.25,9.106 C10.25,9.106 10.25,9.107 10.25,9.107 C10.25,9.108 10.25,9.108 10.25,9.109 C10.25,9.109 10.25,9.11 10.25,9.11 C10.25,9.111 10.25,9.111 10.25,9.112 C10.25,9.112 10.25,9.112 10.25,9.113 C10.25,9.113 10.25,9.114 10.25,9.114 C10.25,9.115 10.25,9.115 10.25,9.116 C10.25,9.116 10.25,9.117 10.25,9.117 C10.25,9.118 10.25,9.118 10.25,9.119 C10.25,9.119 10.25,9.12 10.25,9.12 C10.25,9.121 10.25,9.121 10.25,9.122 C10.25,9.122 10.25,9.123 10.25,9.123 C10.25,9.123 10.25,9.124 10.25,9.124 C10.25,9.125 10.25,9.125 10.25,9.126 C10.25,9.126 10.25,9.127 10.25,9.127 C10.25,9.128 10.25,9.128 10.25,9.129 C10.25,9.129 10.25,9.13 10.25,9.13 C10.25,9.131 10.25,9.131 10.25,9.132 C10.25,9.132 10.25,9.133 10.25,9.133 C10.25,9.134 10.25,9.134 10.25,9.135 C10.25,9.135 10.25,9.136 10.25,9.136 C10.25,9.137 10.25,9.137 10.25,9.138 C10.25,9.138 10.25,9.139 10.25,9.139 C10.25,9.14 10.25,9.14 10.25,9.141 C10.25,9.141 10.25,9.142 10.25,9.142 C10.25,9.143 10.25,9.143 10.25,9.144 C10.25,9.145 10.25,9.145 10.25,9.146 C10.25,9.146 10.25,9.147 10.25,9.147 C10.25,9.148 10.25,9.148 10.25,9.149 C10.25,9.149 10.25,9.15 10.25,9.15 C10.25,9.151 10.25,9.151 10.25,9.152 C10.25,9.152 10.25,9.153 10.25,9.153 C10.25,9.154 10.25,9.154 10.25,9.155 C10.25,9.155 10.25,9.156 10.25,9.157 C10.25,9.157 10.25,9.158 10.25,9.158 C10.25,9.159 10.25,9.159 10.25,9.16 C10.25,9.16 10.25,9.161 10.25,9.161 C10.25,9.162 10.25,9.162 10.25,9.163 C10.25,9.164 10.25,9.164 10.25,9.165 C10.25,9.165 10.25,9.166 10.25,9.166 C10.25,9.167 10.25,9.167 10.25,9.168 C10.25,9.168 10.25,9.169 10.25,9.17 C10.25,9.17 10.25,9.171 10.25,9.171 C10.25,9.172 10.25,9.172 10.25,9.173 C10.25,9.173 10.25,9.174 10.25,9.174 C10.25,9.175 10.25,9.176 10.25,9.176 C10.25,9.177 10.25,9.177 10.25,9.178 C10.25,9.178 10.25,9.179 10.25,9.179 C10.25,9.18 10.25,9.181 10.25,9.181 C10.25,9.182 10.25,9.182 10.25,9.183 C10.25,9.183 10.25,9.184 10.25,9.184 C10.25,9.185 10.25,9.186 10.25,9.186 C10.25,9.187 10.25,9.187 10.25,9.188 C10.25,9.188 10.25,9.189 10.25,9.19 C10.25,9.19 10.25,9.191 10.25,9.191 C10.25,9.192 10.25,9.192 10.25,9.193 C10.25,9.194 10.25,9.194 10.25,9.195 C10.25,9.195 10.25,9.196 10.25,9.196 C10.25,9.197 10.25,9.198 10.25,9.198 C10.25,9.199 10.25,9.199 10.25,9.2 C10.25,9.2 10.25,9.201 10.25,9.202 C10.25,9.202 10.25,9.203 10.25,9.203 C10.25,9.204 10.25,9.205 10.25,9.205 C10.25,9.206 10.25,9.206 10.25,9.207 C10.25,9.207 10.25,9.208 10.25,9.209 C10.25,9.209 10.25,9.21 10.25,9.21 C10.25,9.211 10.25,9.212 10.25,9.212 C10.25,9.213 10.25,9.213 10.25,9.214 C10.25,9.215 10.25,9.215 10.25,9.216 C10.25,9.216 10.25,9.217 10.25,9.218 C10.25,9.218 10.25,9.219 10.25,9.219 C10.25,9.22 10.25,9.22 10.25,9.221 C10.25,9.222 10.25,9.222 10.25,9.223 C10.25,9.223 10.25,9.224 10.25,9.225 C10.25,9.225 10.25,9.226 10.25,9.226 C10.25,9.227 10.25,9.228 10.25,9.228 C10.25,9.229 10.25,9.23 10.25,9.23 C10.25,9.231 10.25,9.231 10.25,9.232 C10.25,9.233 10.25,9.233 10.25,9.234 C10.25,9.234 10.25,9.235 10.25,9.236 C10.25,9.236 10.25,9.237 10.25,9.237 C10.25,9.238 10.25,9.239 10.25,9.239 C10.25,9.24 10.25,9.24 10.25,9.241 C10.25,9.242 10.25,9.242 10.25,9.243 C10.25,9.244 10.25,9.244 10.25,9.245 C10.25,9.245 10.25,9.246 10.25,9.247 C10.25,9.247 10.25,9.248 10.25,9.248 C10.25,9.249 10.25,9.25 10.25,9.25 C10.25,9.251 10.25,9.252 10.25,9.252 C10.25,9.253 10.25,9.253 10.25,9.254 C10.25,9.255 10.25,9.255 10.25,9.256 C10.25,9.257 10.25,9.257 10.25,9.258 C10.25,9.258 10.25,9.259 10.25,9.26 C10.25,9.26 10.25,9.261 10.25,9.262 C10.25,9.262 10.25,9.263 10.25,9.263 C10.25,9.264 10.25,9.265 10.25,9.265 C10.25,9.266 10.25,9.267 10.25,9.267 C10.25,9.268 10.25,9.269 10.25,9.269 C10.25,9.27 10.25,9.27 10.25,9.271 C10.25,9.272 10.25,9.272 10.25,9.273 C10.25,9.274 10.25,9.274 10.25,9.275 C10.25,9.276 10.25,9.276 10.25,9.277 C10.25,9.277 10.25,9.278 10.25,9.279 C10.25,9.279 10.25,9.28 10.25,9.281 C10.25,9.281 10.25,9.282 10.25,9.283 C10.25,9.283 10.25,9.284 10.25,9.284 C10.25,9.285 10.25,9.286 10.25,9.286 C10.25,9.287 10.25,9.288 10.25,9.288 C10.25,9.289 10.25,9.29 10.25,9.29 C10.25,9.291 10.25,9.292 10.25,9.292 C10.25,9.293 10.25,9.294 10.25,9.294 C10.25,9.295 10.25,9.295 10.25,9.296 C10.25,9.297 10.25,9.297 10.25,9.298 C10.25,9.299 10.25,9.299 10.25,9.3 C10.25,9.301 10.25,9.301 10.25,9.302 C10.25,9.303 10.25,9.303 10.25,9.304 C10.25,9.305 10.25,9.305 10.25,9.306 C10.25,9.307 10.25,9.307 10.25,9.308 C10.25,9.308 10.25,9.309 10.25,9.31 C10.25,9.31 10.25,9.311 10.25,9.312 C10.25,9.312 10.25,9.313 10.25,9.314 C10.25,9.314 10.25,9.315 10.25,9.316 C10.25,9.316 10.25,9.317 10.25,9.318 C10.25,9.318 10.25,9.319 10.25,9.32 C10.25,9.32 10.25,9.321 10.25,9.322 C10.25,9.322 10.25,9.323 10.25,9.324 C10.25,9.324 10.25,9.325 10.25,9.326 C10.25,9.326 10.25,9.327 10.25,9.328 C10.25,9.328 10.25,9.329 10.25,9.33 C10.25,9.33 10.25,9.331 10.25,9.332 C10.25,9.332 10.25,9.333 10.25,9.334 C10.25,9.334 10.25,9.335 10.25,9.336 C10.25,9.336 10.25,9.337 10.25,9.338 C10.25,9.338 10.25,9.339 10.25,9.34 C10.25,9.34 10.25,9.341 10.25,9.342 C10.25,9.342 10.25,9.343 10.25,9.344 C10.25,9.344 10.25,9.345 10.25,9.346 C10.25,9.346 10.25,9.347 10.25,9.348 C10.25,9.348 10.25,9.349 10.25,9.35 C10.25,9.35 10.25,9.351 10.25,9.352 C10.25,9.352 10.25,9.353 10.25,9.354 C10.25,9.354 10.25,9.355 10.25,9.356 C10.25,9.356 10.25,9.357 10.25,9.358 C10.25,9.358 10.25,9.359 10.25,9.36 C10.25,9.36 10.25,9.361 10.25,9.362 C10.25,9.363 10.25,9.363 10.25,9.364 C10.25,9.365 10.25,9.365 10.25,9.366 C10.25,9.367 10.25,9.367 10.25,9.368 C10.25,9.369 10.25,9.369 10.25,9.37 C10.25,9.371 10.25,9.371 10.25,9.372 C10.25,9.373 10.25,9.373 10.25,9.374 C10.25,9.375 10.25,9.375 10.25,9.376 C10.25,9.377 10.25,9.377 10.25,9.378 C10.25,9.379 10.25,9.38 10.25,9.38 C10.25,9.381 10.25,9.382 10.25,9.382 C10.25,9.383 10.25,9.384 10.25,9.384 C10.25,9.385 10.25,9.386 10.25,9.386 C10.25,9.387 10.25,9.388 10.25,9.388 C10.25,9.389 10.25,9.39 10.25,9.39 C10.25,9.391 10.25,9.392 10.25,9.392 C10.25,9.393 10.25,9.394 10.25,9.395 C10.25,9.395 10.25,9.396 10.25,9.397 C10.25,9.397 10.25,9.398 10.25,9.399 C10.25,9.399 10.25,9.4 10.25,9.401 C10.25,9.401 10.25,9.402 10.25,9.403 C10.25,9.403 10.25,9.404 10.25,9.405 C10.25,9.406 10.25,9.406 10.25,9.407 C10.25,9.408 10.25,9.408 10.25,9.409 C10.25,9.41 10.25,9.41 10.25,9.411 C10.25,9.412 10.25,9.412 10.25,9.413 C10.25,9.414 10.25,9.414 10.25,9.415 C10.25,9.416 10.25,9.417 10.25,9.417 C10.25,9.418 10.25,9.419 10.25,9.419 C10.25,9.42 10.25,9.421 10.25,9.421 C10.25,9.422 10.25,9.423 10.25,9.423 C10.25,9.424 10.25,9.425 10.25,9.426 C10.25,9.426 10.25,9.427 10.25,9.428 C10.25,9.428 10.25,9.429 10.25,9.43 C10.25,9.43 10.25,9.431 10.25,9.432 C10.25,9.432 10.25,9.433 10.25,9.434 C10.25,9.435 10.25,9.435 10.25,9.436 C10.25,9.437 10.25,9.437 10.25,9.438 C10.25,9.439 10.25,9.439 10.25,9.44 C10.25,9.441 10.25,9.441 10.25,9.442 C10.25,9.443 10.25,9.444 10.25,9.444 C10.25,9.445 10.25,9.446 10.25,9.446 C10.25,9.447 10.25,9.448 10.25,9.448 C10.25,9.449 10.25,9.45 10.25,9.45 C10.25,9.451 10.25,9.452 10.25,9.453 C10.25,9.453 10.25,9.454 10.25,9.455 C10.25,9.455 10.25,9.456 10.25,9.457 C10.25,9.457 10.25,9.458 10.25,9.459 C10.25,9.459 10.25,9.46 10.25,9.461 C10.25,9.462 10.25,9.462 10.25,9.463 C10.25,9.464 10.25,9.464 10.25,9.465 C10.25,9.466 10.25,9.466 10.25,9.467 C10.25,9.468 10.25,9.469 10.25,9.469 C10.25,9.47 10.25,9.471 10.25,9.471 C10.25,9.472 10.25,9.473 10.25,9.473 C10.25,9.474 10.25,9.475 10.25,9.475 C10.25,9.476 10.25,9.477 10.25,9.478 C10.25,9.478 10.25,9.479 10.25,9.48 C10.25,9.48 10.25,9.481 10.25,9.482 C10.25,9.482 10.25,9.483 10.25,9.484 C10.25,9.484 10.25,9.485 10.25,9.486 C10.25,9.487 10.25,9.487 10.25,9.488 C10.25,9.489 10.25,9.489 10.25,9.49 C10.25,9.491 10.25,9.491 10.25,9.492 C10.25,9.493 10.25,9.494 10.25,9.494 C10.25,9.495 10.25,9.496 10.25,9.496 C10.25,9.497 10.25,9.498 10.25,9.498 C10.25,9.499 10.25,9.5 10.25,9.5 C10.25,9.501 10.25,9.502 10.25,9.503 C10.25,9.503 10.25,9.504 10.25,9.505 C10.25,9.505 10.25,9.506 10.25,9.507 C10.25,9.507 10.25,9.508 10.25,9.509 C10.25,9.509 10.25,9.51 10.25,9.511 C10.25,9.512 10.25,9.512 10.25,9.513 C10.25,9.514 10.25,9.514 10.25,9.515 C10.25,9.516 10.25,9.516 10.25,9.517 C10.25,9.518 10.25,9.518 10.25,9.519 C10.25,9.52 10.25,9.521 10.25,9.521 C10.25,9.522 10.25,9.523 10.25,9.523 C10.25,9.524 10.25,9.525 10.25,9.525 C10.25,9.526 10.25,9.527 10.25,9.527 C10.25,9.528 10.25,9.529 10.25,9.53 C10.25,9.53 10.25,9.531 10.25,9.532 C10.25,9.532 10.25,9.533 10.25,9.534 C10.25,9.534 10.25,9.535 10.25,9.536 C10.25,9.536 10.25,9.537 10.25,9.538 C10.25,9.538 10.25,9.539 10.25,9.54 C10.25,9.541 10.25,9.541 10.25,9.542 C10.25,9.543 10.25,9.543 10.25,9.544 C10.25,9.545 10.25,9.545 10.25,9.546 C10.25,9.547 10.25,9.547 10.25,9.548 C10.25,9.549 10.25,9.549 10.25,9.55 C10.25,9.551 10.25,9.552 10.25,9.552 C10.25,9.553 10.25,9.554 10.25,9.554 C10.25,9.555 10.25,9.556 10.25,9.556 C10.25,9.557 10.25,9.558 10.25,9.558 C10.25,9.559 10.25,9.56 10.25,9.56 C10.25,9.561 10.25,9.562 10.25,9.562 C10.25,9.563 10.25,9.564 10.25,9.565 C10.25,9.565 10.25,9.566 10.25,9.567 C10.25,9.567 10.25,9.568 10.25,9.569 C10.25,9.569 10.25,9.57 10.25,9.571 C10.25,9.571 10.25,9.572 10.25,9.573 C10.25,9.573 10.25,9.574 10.25,9.575 C10.25,9.575 10.25,9.576 10.25,9.577 C10.25,9.578 10.25,9.578 10.25,9.579 C10.25,9.58 10.25,9.58 10.25,9.581 C10.25,9.582 10.25,9.582 10.25,9.583 C10.25,9.584 10.25,9.584 10.25,9.585 C10.25,9.586 10.25,9.586 10.25,9.587 C10.25,9.588 10.25,9.588 10.25,9.589 C10.25,9.59 10.25,9.59 10.25,9.591 C10.25,9.592 10.25,9.592 10.25,9.593 C10.25,9.594 10.25,9.594 10.25,9.595 C10.25,9.596 10.25,9.596 10.25,9.597 C10.25,9.598 10.25,9.598 10.25,9.599 C10.25,9.6 10.25,9.6 10.25,9.601 C10.25,9.602 10.25,9.602 10.25,9.603 C10.25,9.604 10.25,9.604 10.25,9.605 C10.25,9.606 10.25,9.607 10.25,9.607 C10.25,9.608 10.25,9.609 10.25,9.609 C10.25,9.61 10.25,9.611 10.25,9.611 C10.25,9.612 10.25,9.613 10.25,9.613 C10.25,9.614 10.25,9.615 10.25,9.615 C10.25,9.616 10.25,9.617 10.25,9.617 C10.25,9.618 10.25,9.619 10.25,9.619 C10.25,9.62 10.25,9.621 10.25,9.621 C10.25,9.622 10.25,9.623 10.25,9.623 C10.25,9.624 10.25,9.624 10.25,9.625 C10.25,9.626 10.25,9.626 10.25,9.627 C10.25,9.628 10.25,9.628 10.25,9.629 C10.25,9.63 10.25,9.63 10.25,9.631 C10.25,9.632 10.25,9.632 10.25,9.633 C10.25,9.634 10.25,9.634 10.25,9.635 C10.25,9.636 10.25,9.636 10.25,9.637 C10.25,9.638 10.25,9.638 10.25,9.639 C10.25,9.64 10.25,9.64 10.25,9.641 C10.25,9.642 10.25,9.642 10.25,9.643 C10.25,9.644 10.25,9.644 10.25,9.645 C10.25,9.646 10.25,9.646 10.25,9.647 C10.25,9.648 10.25,9.648 10.25,9.649 C10.25,9.649 10.25,9.65 10.25,9.651 C10.25,9.651 10.25,9.652 10.25,9.653 C10.25,9.653 10.25,9.654 10.25,9.655 C10.25,9.655 10.25,9.656 10.25,9.657 C10.25,9.657 10.25,9.658 10.25,9.659 C10.25,9.659 10.25,9.66 10.25,9.66 C10.25,9.661 10.25,9.662 10.25,9.662 C10.25,9.663 10.25,9.664 10.25,9.664 C10.25,9.665 10.25,9.666 10.25,9.666 C10.25,9.667 10.25,9.668 10.25,9.668 C10.25,9.669 10.25,9.669 10.25,9.67 C10.25,9.671 10.25,9.671 10.25,9.672 C10.25,9.673 10.25,9.673 10.25,9.674 C10.25,9.675 10.25,9.675 10.25,9.676 C10.25,9.676 10.25,9.677 10.25,9.678 C10.25,9.678 10.25,9.679 10.25,9.68 C10.25,9.68 10.25,9.681 10.25,9.682 C10.25,9.682 10.25,9.683 10.25,9.683 C10.25,9.684 10.25,9.685 10.25,9.685 C10.25,9.686 10.25,9.687 10.25,9.687 C10.25,9.688 10.25,9.688 10.25,9.689 C10.25,9.69 10.25,9.69 10.25,9.691 C10.25,9.692 10.25,9.692 10.25,9.693 C10.25,9.693 10.25,9.694 10.25,9.695 C10.25,9.695 10.25,9.696 10.25,9.697 C10.25,9.697 10.25,9.698 10.25,9.698 C10.25,9.699 10.25,9.7 10.25,9.7 C10.25,9.701 10.25,9.702 10.25,9.702 C10.25,9.703 10.25,9.703 10.25,9.704 C10.25,9.705 10.25,9.705 10.25,9.706 C10.25,9.706 10.25,9.707 10.25,9.708 C10.25,9.708 10.25,9.709 10.25,9.71 C10.25,9.71 10.25,9.711 10.25,9.711 C10.25,9.712 10.25,9.713 10.25,9.713 C10.25,9.714 10.25,9.714 10.25,9.715 C10.25,9.716 10.25,9.716 10.25,9.717 C10.25,9.717 10.25,9.718 10.25,9.719 C10.25,9.719 10.25,9.72 10.25,9.72 C10.25,9.721 10.25,9.722 10.25,9.722 C10.25,9.723 10.25,9.723 10.25,9.724 C10.25,9.725 10.25,9.725 10.25,9.726 C10.25,9.726 10.25,9.727 10.25,9.728 C10.25,9.728 10.25,9.729 10.25,9.729 C10.25,9.73 10.25,9.731 10.25,9.731 C10.25,9.732 10.25,9.732 10.25,9.733 C10.25,9.734 10.25,9.734 10.25,9.735 C10.25,9.735 10.25,9.736 10.25,9.737 C10.25,9.737 10.25,9.738 10.25,9.738 C10.25,9.739 10.25,9.739 10.25,9.74 C10.25,9.741 10.25,9.741 10.25,9.742 C10.25,9.742 10.25,9.743 10.25,9.744 C10.25,9.744 10.25,9.745 10.25,9.745 C10.25,9.746 10.25,9.746 10.25,9.747 C10.25,9.748 10.25,9.748 10.25,9.749 C10.25,9.749 10.25,9.75 10.25,9.751 C10.25,9.751 10.25,9.752 10.25,9.752 C10.25,9.753 10.25,9.753 10.25,9.754 C10.25,9.755 10.25,9.755 10.25,9.756 C10.25,9.756 10.25,9.757 10.25,9.757 C10.25,9.758 10.25,9.759 10.25,9.759 C10.25,9.76 10.25,9.76 10.25,9.761 C10.25,9.761 10.25,9.762 10.25,9.763 C10.25,9.763 10.25,9.764 10.25,9.764 C10.25,9.765 10.25,9.765 10.25,9.766 C10.25,9.766 10.25,9.767 10.25,9.768 C10.25,9.768 10.25,9.769 10.25,9.769 C10.25,9.77 10.25,9.77 10.25,9.771 C10.25,9.771 10.25,9.772 10.25,9.773 C10.25,9.773 10.25,9.774 10.25,9.774 C10.25,9.775 10.25,9.775 10.25,9.776 C10.25,9.776 10.25,9.777 10.25,9.778 C10.25,9.778 10.25,9.779 10.25,9.779 C10.25,9.78 10.25,9.78 10.25,9.781 C10.25,9.781 10.25,9.782 10.25,9.782 C10.25,9.783 10.25,9.784 10.25,9.784 C10.25,9.785 10.25,9.785 10.25,9.786 C10.25,9.786 10.25,9.787 10.25,9.787 C10.25,9.788 10.25,9.788 10.25,9.789 C10.25,9.789 10.25,9.79 10.25,9.791 C10.25,9.791 10.25,9.792 10.25,9.792 C10.25,9.793 10.25,9.793 10.25,9.794 C10.25,9.794 10.25,9.795 10.25,9.795 C10.25,9.796 10.25,9.796 10.25,9.797 C10.25,9.797 10.25,9.798 10.25,9.798 C10.25,9.799 10.25,9.799 10.25,9.8 L11.75,9.8 Z"/>
</svg>

