<svg xmlns="http://www.w3.org/2000/svg" width="24" height="24" viewBox="0 0 24 24">
  <defs/>
  <path fill="#2D264B" d="M9,12.25 C8.586,12.25 8.25,12.586 8.25,13 C8.25,13.414 8.586,13.75 9,13.75 L9,12.25 Z M15,13.75 C15.414,13.75 15.75,13.414 15.75,13 C15.75,12.586 15.414,12.25 15,12.25 L15,13.75 Z M11.25,16 C11.25,16.414 11.586,16.75 12,16.75 C12.414,16.75 12.75,16.414 12.75,16 L11.25,16 Z M12.75,10 C12.75,9.586 12.414,9.25 12,9.25 C11.586,9.25 11.25,9.586 11.25,10 L12.75,10 Z M19.335,7.198 C17.517,6.91 16.09,5.483 15.802,3.665 L14.321,3.9 C14.71,6.36 16.64,8.29 19.101,8.679 L19.335,7.198 Z M20.25,11 L20.25,13 L21.75,13 L21.75,11 L20.25,11 Z M3.75,13 L3.75,11 L2.25,11 L2.25,13 L3.75,13 Z M12,21.25 C10.108,21.25 8.75,21.249 7.698,21.135 C6.66,21.023 6.01,20.807 5.502,20.438 L4.62,21.652 C5.427,22.238 6.371,22.5 7.536,22.626 C8.688,22.751 10.142,22.75 12,22.75 L12,21.25 Z M2.25,13 C2.25,14.858 2.249,16.312 2.374,17.463 C2.5,18.629 2.762,19.573 3.348,20.38 L4.562,19.498 C4.193,18.99 3.977,18.34 3.865,17.302 C3.751,16.25 3.75,14.892 3.75,13 L2.25,13 Z M5.502,20.438 C5.141,20.176 4.824,19.859 4.562,19.498 L3.348,20.38 C3.703,20.868 4.132,21.297 4.62,21.652 L5.502,20.438 Z M20.25,13 C20.25,14.892 20.249,16.25 20.135,17.302 C20.023,18.34 19.807,18.99 19.438,19.498 L20.652,20.38 C21.238,19.573 21.5,18.629 21.626,17.463 C21.751,16.312 21.75,14.858 21.75,13 L20.25,13 Z M12,22.75 C13.858,22.75 15.312,22.751 16.463,22.626 C17.629,22.5 18.573,22.238 19.38,21.652 L18.498,20.438 C17.99,20.807 17.34,21.023 16.302,21.135 C15.25,21.249 13.892,21.25 12,21.25 L12,22.75 Z M19.438,19.498 C19.176,19.859 18.859,20.176 18.498,20.438 L19.38,21.652 C19.868,21.297 20.297,20.868 20.652,20.38 L19.438,19.498 Z M18.498,3.562 C18.859,3.824 19.176,4.141 19.438,4.502 L20.652,3.62 C20.297,3.132 19.868,2.703 19.38,2.348 L18.498,3.562 Z M12,1.25 C10.142,1.25 8.688,1.249 7.536,1.374 C6.371,1.5 5.427,1.762 4.62,2.348 L5.502,3.562 C6.01,3.193 6.66,2.977 7.698,2.865 C8.75,2.751 10.108,2.75 12,2.75 L12,1.25 Z M3.75,11 C3.75,9.108 3.751,7.75 3.865,6.698 C3.977,5.66 4.193,5.01 4.562,4.502 L3.348,3.62 C2.762,4.427 2.5,5.371 2.374,6.536 C2.249,7.688 2.25,9.142 2.25,11 L3.75,11 Z M4.62,2.348 C4.132,2.703 3.703,3.132 3.348,3.62 L4.562,4.502 C4.824,4.141 5.141,3.824 5.502,3.562 L4.62,2.348 Z M12,2.75 C13.173,2.75 14.146,2.75 14.974,2.778 L15.026,1.279 C14.166,1.25 13.165,1.25 12,1.25 L12,2.75 Z M14.974,2.778 C16.829,2.842 17.793,3.049 18.498,3.562 L19.38,2.348 C18.276,1.546 16.899,1.344 15.026,1.279 L14.974,2.778 Z M14.25,2.029 C14.25,2.911 14.248,3.442 14.321,3.9 L15.802,3.665 C15.753,3.353 15.75,2.966 15.75,2.029 L14.25,2.029 Z M21.75,11 C21.75,9.835 21.75,8.834 21.721,7.974 L20.221,8.026 C20.25,8.854 20.25,9.827 20.25,11 L21.75,11 Z M21.721,7.974 C21.656,6.101 21.454,4.724 20.652,3.62 L19.438,4.502 C19.951,5.207 20.158,6.171 20.221,8.026 L21.721,7.974 Z M20.971,7.25 C20.034,7.25 19.647,7.247 19.335,7.198 L19.101,8.679 C19.558,8.752 20.089,8.75 20.971,8.75 L20.971,7.25 Z M9,13.75 L15,13.75 L15,12.25 L9,12.25 L9,13.75 Z M12.75,16 L12.75,10 L11.25,10 L11.25,16 L12.75,16 Z"/>
</svg>

