<svg xmlns="http://www.w3.org/2000/svg" width="24" height="24" viewBox="0 0 24 24">
  <defs/>
  <path fill="#2D264B" d="M11.25,17 C11.25,17.414 11.586,17.75 12,17.75 C12.414,17.75 12.75,17.414 12.75,17 L11.25,17 Z M7.467,11.672 C7.176,11.966 7.178,12.441 7.472,12.733 C7.766,13.024 8.241,13.022 8.533,12.728 L7.467,11.672 Z M15.467,12.728 C15.759,13.022 16.234,13.024 16.528,12.733 C16.822,12.441 16.824,11.966 16.533,11.672 L15.467,12.728 Z M4.899,8.679 C7.36,8.29 9.29,6.36 9.679,3.9 L8.198,3.665 C7.91,5.483 6.483,6.91 4.665,7.198 L4.899,8.679 Z M2.25,11 L2.25,13 L3.75,13 L3.75,11 L2.25,11 Z M21.75,13 L21.75,11 L20.25,11 L20.25,13 L21.75,13 Z M12,22.75 C13.858,22.75 15.312,22.751 16.463,22.626 C17.629,22.5 18.573,22.238 19.38,21.652 L18.498,20.438 C17.99,20.807 17.34,21.023 16.302,21.135 C15.25,21.249 13.892,21.25 12,21.25 L12,22.75 Z M20.25,13 C20.25,14.892 20.249,16.25 20.135,17.302 C20.023,18.34 19.807,18.99 19.438,19.498 L20.652,20.38 C21.238,19.573 21.5,18.629 21.626,17.463 C21.751,16.312 21.75,14.858 21.75,13 L20.25,13 Z M19.38,21.652 C19.868,21.297 20.297,20.868 20.652,20.38 L19.438,19.498 C19.176,19.859 18.859,20.176 18.498,20.438 L19.38,21.652 Z M2.25,13 C2.25,14.858 2.249,16.312 2.374,17.463 C2.5,18.629 2.762,19.573 3.348,20.38 L4.562,19.498 C4.193,18.99 3.977,18.34 3.865,17.302 C3.751,16.25 3.75,14.892 3.75,13 L2.25,13 Z M12,21.25 C10.108,21.25 8.75,21.249 7.698,21.135 C6.66,21.023 6.01,20.807 5.502,20.438 L4.62,21.652 C5.427,22.238 6.371,22.5 7.536,22.626 C8.688,22.751 10.142,22.75 12,22.75 L12,21.25 Z M3.348,20.38 C3.703,20.868 4.132,21.297 4.62,21.652 L5.502,20.438 C5.141,20.176 4.824,19.859 4.562,19.498 L3.348,20.38 Z M4.62,2.348 C4.132,2.703 3.703,3.132 3.348,3.62 L4.562,4.502 C4.824,4.141 5.141,3.824 5.502,3.562 L4.62,2.348 Z M12,2.75 C13.892,2.75 15.25,2.751 16.302,2.865 C17.34,2.977 17.99,3.193 18.498,3.562 L19.38,2.348 C18.573,1.762 17.629,1.5 16.463,1.374 C15.312,1.249 13.858,1.25 12,1.25 L12,2.75 Z M21.75,11 C21.75,9.142 21.751,7.688 21.626,6.536 C21.5,5.371 21.238,4.427 20.652,3.62 L19.438,4.502 C19.807,5.01 20.023,5.66 20.135,6.698 C20.249,7.75 20.25,9.108 20.25,11 L21.75,11 Z M18.498,3.562 C18.859,3.824 19.176,4.141 19.438,4.502 L20.652,3.62 C20.297,3.132 19.868,2.703 19.38,2.348 L18.498,3.562 Z M12,1.25 C10.835,1.25 9.834,1.25 8.974,1.279 L9.026,2.778 C9.854,2.75 10.827,2.75 12,2.75 L12,1.25 Z M8.974,1.279 C7.101,1.344 5.724,1.546 4.62,2.348 L5.502,3.562 C6.207,3.049 7.171,2.842 9.026,2.778 L8.974,1.279 Z M8.25,2.029 C8.25,2.966 8.247,3.353 8.198,3.665 L9.679,3.9 C9.752,3.442 9.75,2.911 9.75,2.029 L8.25,2.029 Z M3.75,11 C3.75,9.827 3.75,8.854 3.778,8.026 L2.279,7.974 C2.25,8.834 2.25,9.835 2.25,11 L3.75,11 Z M3.778,8.026 C3.842,6.171 4.049,5.207 4.562,4.502 L3.348,3.62 C2.546,4.724 2.344,6.101 2.279,7.974 L3.778,8.026 Z M3.029,8.75 C3.911,8.75 4.442,8.752 4.899,8.679 L4.665,7.198 C4.353,7.247 3.966,7.25 3.029,7.25 L3.029,8.75 Z M12.75,17 L12.75,9.8 L11.25,9.8 L11.25,17 L12.75,17 Z M8.533,12.728 L9.931,11.318 L8.865,10.262 L7.467,11.672 L8.533,12.728 Z M14.069,11.318 L15.467,12.728 L16.533,11.672 L15.135,10.262 L14.069,11.318 Z M9.931,11.318 C10.5,10.743 10.884,10.357 11.207,10.098 C11.517,9.849 11.698,9.779 11.844,9.76 L11.655,8.272 C11.121,8.34 10.684,8.594 10.267,8.929 C9.863,9.254 9.41,9.712 8.865,10.262 L9.931,11.318 Z M15.135,10.262 C14.59,9.712 14.137,9.254 13.733,8.929 C13.316,8.594 12.879,8.34 12.345,8.272 L12.156,9.76 C12.302,9.779 12.483,9.849 12.793,10.098 C13.116,10.357 13.5,10.743 14.069,11.318 L15.135,10.262 Z M11.844,9.76 C11.896,9.753 11.948,9.75 12,9.75 L12,8.25 C11.885,8.25 11.769,8.257 11.655,8.272 L11.844,9.76 Z M12,9.75 C12.052,9.75 12.104,9.753 12.156,9.76 L12.345,8.272 C12.231,8.257 12.115,8.25 12,8.25 L12,9.75 Z M12.75,9.8 L12.75,9 L11.25,9 L11.25,9.8 L12.75,9.8 Z"/>
</svg>

