<svg xmlns="http://www.w3.org/2000/svg" width="24" height="24" viewBox="0 0 24 24">
  <defs/>
  <path fill="#2D264B" d="M5.061,2.955 C5.166,2.879 5.275,2.808 5.388,2.744 C5.424,2.824 5.476,2.9 5.542,2.967 C6.832,4.257 7.845,5.268 8.738,5.983 C9.642,6.707 10.489,7.182 11.465,7.336 C12.061,7.43 12.668,7.43 13.264,7.336 C14.212,7.186 15.038,6.733 15.914,6.043 C16.778,5.362 17.749,4.403 18.971,3.182 C19.01,3.143 19.044,3.1 19.073,3.055 C19.442,3.343 19.77,3.682 20.045,4.061 C21,5.375 21,7.25 21,11 L21,13 C21,16.75 21,18.625 20.045,19.939 C19.737,20.363 19.363,20.737 18.939,21.045 C17.625,22 15.75,22 12,22 C8.25,22 6.375,22 5.061,21.045 C4.637,20.737 4.263,20.363 3.955,19.939 C3,18.625 3,16.75 3,13 L3,11 C3,7.25 3,5.375 3.955,4.061 C4.263,3.637 4.637,3.263 5.061,2.955 Z M8,13.25 C7.586,13.25 7.25,13.586 7.25,14 C7.25,14.414 7.586,14.75 8,14.75 L16,14.75 C16.414,14.75 16.75,14.414 16.75,14 C16.75,13.586 16.414,13.25 16,13.25 Z M8,17.25 C7.586,17.25 7.25,17.586 7.25,18 C7.25,18.414 7.586,18.75 8,18.75 L16,18.75 C16.414,18.75 16.75,18.414 16.75,18 C16.75,17.586 16.414,17.25 16,17.25 Z M8,9.25 C7.586,9.25 7.25,9.586 7.25,10 C7.25,10.414 7.586,10.75 8,10.75 L11,10.75 C11.414,10.75 11.75,10.414 11.75,10 C11.75,9.586 11.414,9.25 11,9.25 Z"/>
  <path fill="#2D264B" d="M12,2 C14.7,2 16.428,2 17.674,2.356 C16.554,3.474 15.716,4.29 14.986,4.865 C14.216,5.471 13.626,5.76 13.029,5.855 C12.588,5.924 12.14,5.924 11.699,5.855 C11.085,5.757 10.478,5.454 9.676,4.812 C8.929,4.214 8.069,3.37 6.917,2.22 C8.109,2 9.702,2 12,2 Z"/>
</svg>

