<svg xmlns="http://www.w3.org/2000/svg" width="24" height="24" viewBox="0 0 24 24">
  <defs/>
  <path fill="#2D264B" d="M21,12 C21,15.75 21,17.625 20.045,18.939 C19.737,19.363 19.363,19.737 18.939,20.045 C17.625,21 15.75,21 12,21 C8.25,21 6.375,21 5.061,20.045 C4.637,19.737 4.263,19.363 3.955,18.939 C3,17.625 3,15.75 3,12 C3,11.161 3,10.416 3.011,9.75 L3.081,9.75 C3.933,9.75 4.452,9.75 4.899,9.679 C7.36,9.29 9.29,7.36 9.679,4.899 C9.75,4.452 9.75,3.933 9.75,3.081 L9.75,3.011 C10.416,3 11.161,3 12,3 C15.75,3 17.625,3 18.939,3.955 C19.363,4.263 19.737,4.637 20.045,5.061 C21,6.375 21,8.25 21,12 Z M12.25,9 L12.25,15.936 C12.236,15.925 12.221,15.914 12.207,15.902 C11.884,15.643 11.5,15.257 10.931,14.682 L9.533,13.272 C9.241,12.978 8.766,12.976 8.472,13.267 C8.178,13.559 8.176,14.034 8.467,14.328 L9.896,15.769 C10.427,16.305 10.87,16.753 11.267,17.071 C11.684,17.406 12.121,17.66 12.655,17.728 C12.884,17.757 13.116,17.757 13.345,17.728 C13.879,17.66 14.316,17.406 14.733,17.071 C15.13,16.753 15.573,16.305 16.104,15.769 L17.533,14.328 C17.824,14.034 17.822,13.559 17.528,13.267 C17.234,12.976 16.759,12.978 16.467,13.272 L15.069,14.682 C14.5,15.257 14.116,15.643 13.793,15.902 C13.779,15.914 13.764,15.925 13.75,15.936 L13.75,9 C13.75,8.586 13.414,8.25 13,8.25 C12.586,8.25 12.25,8.586 12.25,9 Z"/>
  <path fill="#2D264B" d="M8.198,4.665 C8.247,4.356 8.25,3.976 8.25,3.065 C6.81,3.16 5.838,3.391 5.061,3.955 C4.637,4.263 4.263,4.637 3.955,5.061 C3.391,5.838 3.16,6.81 3.065,8.25 C3.976,8.25 4.356,8.247 4.665,8.198 C6.483,7.91 7.91,6.483 8.198,4.665 Z"/>
</svg>

