<svg xmlns="http://www.w3.org/2000/svg" width="24" height="24" viewBox="0 0 24 24">
  <defs/>
  <path fill="#2D264B" d="M21,12 C21,15.75 21,17.625 20.045,18.939 C19.737,19.363 19.363,19.737 18.939,20.045 C17.625,21 15.75,21 12,21 C8.25,21 6.375,21 5.061,20.045 C4.637,19.737 4.263,19.363 3.955,18.939 C3,17.625 3,15.75 3,12 C3,11.161 3,10.416 3.011,9.75 L3.081,9.75 C3.933,9.75 4.452,9.75 4.899,9.679 C7.36,9.29 9.29,7.36 9.679,4.899 C9.75,4.452 9.75,3.933 9.75,3.081 L9.75,3.011 C10.416,3 11.161,3 12,3 C15.75,3 17.625,3 18.939,3.955 C19.363,4.263 19.737,4.637 20.045,5.061 C21,6.375 21,8.25 21,12 Z M12.207,10.098 C12.221,10.086 12.236,10.075 12.25,10.064 L12.25,17 C12.25,17.414 12.586,17.75 13,17.75 C13.414,17.75 13.75,17.414 13.75,17 L13.75,10.064 C13.764,10.075 13.779,10.086 13.793,10.098 C14.116,10.357 14.5,10.743 15.069,11.318 L16.467,12.728 C16.759,13.022 17.234,13.024 17.528,12.733 C17.822,12.441 17.824,11.966 17.533,11.672 L16.104,10.231 C15.573,9.695 15.13,9.248 14.733,8.929 C14.316,8.594 13.879,8.34 13.345,8.272 C13.116,8.243 12.884,8.243 12.655,8.272 C12.121,8.34 11.684,8.594 11.267,8.929 C10.87,9.248 10.427,9.695 9.896,10.231 L8.467,11.672 C8.176,11.966 8.178,12.441 8.472,12.733 C8.766,13.024 9.241,13.022 9.533,12.728 L10.931,11.318 C11.5,10.743 11.884,10.357 12.207,10.098 Z"/>
  <path fill="#2D264B" d="M8.198,4.665 C8.247,4.356 8.25,3.976 8.25,3.065 C6.81,3.16 5.838,3.391 5.061,3.955 C4.637,4.263 4.263,4.637 3.955,5.061 C3.391,5.838 3.16,6.81 3.065,8.25 C3.976,8.25 4.356,8.247 4.665,8.198 C6.483,7.91 7.91,6.483 8.198,4.665 Z"/>
</svg>

