<svg width="24" height="24" viewBox="0 0 24 24" fill="none" xmlns="http://www.w3.org/2000/svg">
<path fill-rule="evenodd" clip-rule="evenodd" d="M21 13C21 16.7497 21 18.6246 20.0451 19.9389C19.7367 20.3634 19.3634 20.7367 18.9389 21.0451C17.6246 22 15.7497 22 12 22C8.25027 22 6.3754 22 5.06107 21.0451C4.6366 20.7367 4.26331 20.3634 3.95491 19.9389C3 18.6246 3 16.7497 3 13V11C3 10.1611 3 9.41596 3.01069 8.75L3.08082 8.75C3.93284 8.75007 4.45182 8.75011 4.8995 8.67921C7.35988 8.28952 9.28952 6.35988 9.67921 3.8995C9.75011 3.45182 9.75007 2.93284 9.75 2.08082L9.75 2.01069C10.416 2 11.1611 2 12 2C15.7497 2 17.6246 2 18.9389 2.95491C19.3634 3.26331 19.7367 3.6366 20.0451 4.06107C21 5.3754 21 7.25027 21 11V13ZM12.7935 10.0982C12.7787 10.0863 12.7642 10.0749 12.75 10.0638V17C12.75 17.4142 12.4142 17.75 12 17.75C11.5858 17.75 11.25 17.4142 11.25 17V10.0638C11.2358 10.0749 11.2213 10.0863 11.2065 10.0982C10.8839 10.3573 10.5003 10.7427 9.93054 11.3176L8.53269 12.728C8.24111 13.0222 7.76624 13.0243 7.47204 12.7327C7.17784 12.4411 7.17573 11.9662 7.46731 11.672L8.89565 10.2309C9.42704 9.69472 9.87022 9.24754 10.2672 8.92869C10.6837 8.59426 11.1213 8.33989 11.6545 8.27193C11.8839 8.24269 12.1161 8.24269 12.3455 8.27193C12.8787 8.33989 13.3163 8.59427 13.7328 8.92869C14.1298 9.24753 14.5729 9.6947 15.1043 10.2309L16.5327 11.672C16.8243 11.9662 16.8222 12.4411 16.528 12.7327C16.2338 13.0243 15.7589 13.0222 15.4673 12.728L14.0695 11.3176C13.4997 10.7427 13.1161 10.3573 12.7935 10.0982Z" fill="#2D264B"/>
<path d="M4.66485 7.19768C4.35646 7.24652 3.97568 7.24987 3.06534 7.25C3.15974 5.81037 3.39057 4.83783 3.95491 4.06107C4.26331 3.6366 4.6366 3.26331 5.06107 2.95491C5.83783 2.39057 6.81037 2.15974 8.25 2.06534C8.24987 2.97568 8.24652 3.35645 8.19768 3.66485C7.90965 5.48339 6.48339 6.90965 4.66485 7.19768Z" fill="#2D264B"/>
</svg>
