<svg xmlns="http://www.w3.org/2000/svg" width="24" height="24" viewBox="0 0 24 24">
  <defs/>
  <path fill="#2D264B" d="M3,12 C3,8.25 3,6.375 3.955,5.061 C4.263,4.637 4.637,4.263 5.061,3.955 C6.375,3 8.25,3 12,3 C12.839,3 13.584,3 14.25,3.011 L14.25,3.081 C14.25,3.933 14.25,4.452 14.321,4.899 C14.71,7.36 16.64,9.29 19.101,9.679 C19.548,9.75 20.067,9.75 20.919,9.75 L20.989,9.75 C21,10.416 21,11.161 21,12 C21,15.75 21,17.625 20.045,18.939 C19.737,19.363 19.363,19.737 18.939,20.045 C17.625,21 15.75,21 12,21 C8.25,21 6.375,21 5.061,20.045 C4.637,19.737 4.263,19.363 3.955,18.939 C3,17.625 3,15.75 3,12 Z M8,11.25 C7.586,11.25 7.25,11.586 7.25,12 C7.25,12.414 7.586,12.75 8,12.75 L16,12.75 C16.414,12.75 16.75,12.414 16.75,12 C16.75,11.586 16.414,11.25 16,11.25 Z M8,7.25 C7.586,7.25 7.25,7.586 7.25,8 C7.25,8.414 7.586,8.75 8,8.75 L11,8.75 C11.414,8.75 11.75,8.414 11.75,8 C11.75,7.586 11.414,7.25 11,7.25 Z M8,15.25 C7.586,15.25 7.25,15.586 7.25,16 C7.25,16.414 7.586,16.75 8,16.75 L11,16.75 C11.414,16.75 11.75,16.414 11.75,16 C11.75,15.586 11.414,15.25 11,15.25 Z"/>
  <path fill="#2D264B" d="M15.802,4.665 C15.754,4.356 15.75,3.976 15.75,3.065 C17.19,3.16 18.162,3.391 18.939,3.955 C19.363,4.263 19.737,4.637 20.045,5.061 C20.609,5.838 20.84,6.81 20.935,8.25 C20.024,8.25 19.643,8.247 19.335,8.198 C17.517,7.91 16.09,6.483 15.802,4.665 Z"/>
</svg>

