<svg xmlns="http://www.w3.org/2000/svg" width="24" height="24" viewBox="0 0 24 24">
  <defs/>
  <path fill="#2D264B" d="M21,12 C21,15.75 21,17.625 20.045,18.939 C19.737,19.363 19.363,19.737 18.939,20.045 C17.625,21 15.75,21 12,21 C8.25,21 6.375,21 5.061,20.045 C4.637,19.737 4.263,19.363 3.955,18.939 C3,17.625 3,15.75 3,12 C3,11.161 3,10.416 3.011,9.75 L3.081,9.75 C3.933,9.75 4.452,9.75 4.899,9.679 C7.36,9.29 9.29,7.36 9.679,4.899 C9.75,4.452 9.75,3.933 9.75,3.081 L9.75,3.011 C10.416,3 11.161,3 12,3 C15.75,3 17.625,3 18.939,3.955 C19.363,4.263 19.737,4.637 20.045,5.061 C21,6.375 21,8.25 21,12 Z M8,11.25 C7.586,11.25 7.25,11.586 7.25,12 C7.25,12.414 7.586,12.75 8,12.75 L16,12.75 C16.414,12.75 16.75,12.414 16.75,12 C16.75,11.586 16.414,11.25 16,11.25 Z M13,7.25 C12.586,7.25 12.25,7.586 12.25,8 C12.25,8.414 12.586,8.75 13,8.75 L16,8.75 C16.414,8.75 16.75,8.414 16.75,8 C16.75,7.586 16.414,7.25 16,7.25 Z M13,15.25 C12.586,15.25 12.25,15.586 12.25,16 C12.25,16.414 12.586,16.75 13,16.75 L16,16.75 C16.414,16.75 16.75,16.414 16.75,16 C16.75,15.586 16.414,15.25 16,15.25 Z"/>
  <path fill="#2D264B" d="M8.198,4.665 C8.247,4.356 8.25,3.976 8.25,3.065 C6.81,3.16 5.838,3.391 5.061,3.955 C4.637,4.263 4.263,4.637 3.955,5.061 C3.391,5.838 3.16,6.81 3.065,8.25 C3.976,8.25 4.356,8.247 4.665,8.198 C6.483,7.91 7.91,6.483 8.198,4.665 Z"/>
</svg>

