<svg width="24" height="24" viewBox="0 0 24 24" fill="none" xmlns="http://www.w3.org/2000/svg">
<path fill-rule="evenodd" clip-rule="evenodd" d="M3 12C3 8.25027 3 6.3754 3.95491 5.06107C4.26331 4.6366 4.6366 4.26331 5.06107 3.95491C6.3754 3 8.25027 3 12 3C12.8389 3 13.584 3 14.25 3.01069L14.25 3.08082C14.2499 3.93284 14.2499 4.45182 14.3208 4.8995C14.7105 7.35988 16.6401 9.28952 19.1005 9.67921C19.5482 9.75011 20.0672 9.75007 20.9192 9.75L20.9893 9.75C21 10.416 21 11.1611 21 12C21 15.7497 21 17.6246 20.0451 18.9389C19.7367 19.3634 19.3634 19.7367 18.9389 20.0451C17.6246 21 15.7497 21 12 21C8.25027 21 6.3754 21 5.06107 20.0451C4.6366 19.7367 4.26331 19.3634 3.95491 18.9389C3 17.6246 3 15.7497 3 12ZM11.75 9C11.75 8.58579 11.4142 8.25 11 8.25C10.5858 8.25 10.25 8.58579 10.25 9V15.9362C10.2358 15.9251 10.2213 15.9137 10.2065 15.9018C9.88386 15.6427 9.50033 15.2573 8.93054 14.6824L7.53269 13.272C7.24111 12.9778 6.76624 12.9757 6.47204 13.2673C6.17784 13.5589 6.17573 14.0338 6.46731 14.328L7.89565 15.7691C8.42702 16.3053 8.87023 16.7525 9.26724 17.0713C9.68367 17.4057 10.1213 17.6601 10.6545 17.7281C10.8839 17.7573 11.1161 17.7573 11.3455 17.7281C11.8787 17.6601 12.3163 17.4057 12.7328 17.0713C13.1298 16.7525 13.5729 16.3053 14.1043 15.7691L15.5327 14.328C15.8243 14.0338 15.8222 13.5589 15.528 13.2673C15.2338 12.9757 14.7589 12.9778 14.4673 13.272L13.0695 14.6824C12.4997 15.2573 12.1161 15.6427 11.7935 15.9018C11.7787 15.9137 11.7642 15.9251 11.75 15.9362V9Z" fill="#2D264B"/>
<path d="M15.8023 4.66485C15.7535 4.35646 15.7501 3.97568 15.75 3.06534C17.1896 3.15974 18.1622 3.39057 18.9389 3.95491C19.3634 4.26331 19.7367 4.6366 20.0451 5.06107C20.6094 5.83783 20.8403 6.81037 20.9347 8.25C20.0243 8.24987 19.6435 8.24652 19.3352 8.19768C17.5166 7.90965 16.0904 6.48339 15.8023 4.66485Z" fill="#2D264B"/>
</svg>
