<svg width="24" height="24" viewBox="0 0 24 24" fill="none" xmlns="http://www.w3.org/2000/svg">
<path fill-rule="evenodd" clip-rule="evenodd" d="M3 13C3 16.7497 3 18.6246 3.95491 19.9389C4.26331 20.3634 4.6366 20.7367 5.06107 21.0451C6.3754 22 8.25027 22 12 22C15.7497 22 17.6246 22 18.9389 21.0451C19.3634 20.7367 19.7367 20.3634 20.0451 19.9389C21 18.6246 21 16.7497 21 13V11C21 10.1611 21 9.41596 20.9893 8.75L20.9192 8.75C20.0672 8.75007 19.5482 8.75011 19.1005 8.67921C16.6401 8.28952 14.7105 6.35988 14.3208 3.8995C14.2499 3.45182 14.2499 2.93284 14.25 2.08082L14.25 2.01069C13.584 2 12.8389 2 12 2C8.25027 2 6.3754 2 5.06107 2.95491C4.6366 3.26331 4.26331 3.6366 3.95491 4.06107C3 5.3754 3 7.25027 3 11V13ZM8 7.25C7.58579 7.25 7.25 7.58579 7.25 8C7.25 8.41421 7.58579 8.75 8 8.75H11C11.4142 8.75 11.75 8.41421 11.75 8C11.75 7.58579 11.4142 7.25 11 7.25H8ZM8 11.25C7.58579 11.25 7.25 11.5858 7.25 12C7.25 12.4142 7.58579 12.75 8 12.75H16C16.4142 12.75 16.75 12.4142 16.75 12C16.75 11.5858 16.4142 11.25 16 11.25H8ZM8 15.25C7.58579 15.25 7.25 15.5858 7.25 16C7.25 16.4142 7.58579 16.75 8 16.75H11C11.4142 16.75 11.75 16.4142 11.75 16C11.75 15.5858 11.4142 15.25 11 15.25H8Z" fill="#2D264B"/>
<path d="M19.3352 7.19768C19.6435 7.24652 20.0243 7.24987 20.9347 7.25C20.8403 5.81037 20.6094 4.83783 20.0451 4.06107C19.7367 3.6366 19.3634 3.26331 18.9389 2.95491C18.1622 2.39057 17.1896 2.15974 15.75 2.06534C15.7501 2.97568 15.7535 3.35645 15.8023 3.66485C16.0904 5.48339 17.5166 6.90965 19.3352 7.19768Z" fill="#2D264B"/>
</svg>
