<svg width="24" height="24" viewBox="0 0 24 24" fill="none" xmlns="http://www.w3.org/2000/svg">
<path fill-rule="evenodd" clip-rule="evenodd" d="M21 13C21 16.7497 21 18.6246 20.0451 19.9389C19.7367 20.3634 19.3634 20.7367 18.9389 21.0451C17.6246 22 15.7497 22 12 22C8.25027 22 6.3754 22 5.06107 21.0451C4.6366 20.7367 4.26331 20.3634 3.95491 19.9389C3 18.6246 3 16.7497 3 13V11C3 10.1611 3 9.41596 3.01069 8.75L3.08082 8.75C3.93284 8.75007 4.45182 8.75011 4.8995 8.67921C7.35988 8.28952 9.28952 6.35988 9.67921 3.8995C9.75011 3.45182 9.75007 2.93284 9.75 2.08082L9.75 2.01069C10.416 2 11.1611 2 12 2C15.7497 2 17.6246 2 18.9389 2.95491C19.3634 3.26331 19.7367 3.6366 20.0451 4.06107C21 5.3754 21 7.25027 21 11V13ZM13 7.25C12.5858 7.25 12.25 7.58579 12.25 8C12.25 8.41421 12.5858 8.75 13 8.75H16C16.4142 8.75 16.75 8.41421 16.75 8C16.75 7.58579 16.4142 7.25 16 7.25H13ZM8 11.25C7.58579 11.25 7.25 11.5858 7.25 12C7.25 12.4142 7.58579 12.75 8 12.75H16C16.4142 12.75 16.75 12.4142 16.75 12C16.75 11.5858 16.4142 11.25 16 11.25H8ZM13 15.25C12.5858 15.25 12.25 15.5858 12.25 16C12.25 16.4142 12.5858 16.75 13 16.75H16C16.4142 16.75 16.75 16.4142 16.75 16C16.75 15.5858 16.4142 15.25 16 15.25H13Z" fill="#2D264B"/>
<path d="M4.66485 7.19768C4.35646 7.24652 3.97568 7.24987 3.06534 7.25C3.15974 5.81037 3.39057 4.83783 3.95491 4.06107C4.26331 3.6366 4.6366 3.26331 5.06107 2.95491C5.83783 2.39057 6.81037 2.15974 8.25 2.06534C8.24987 2.97568 8.24652 3.35645 8.19768 3.66485C7.90965 5.48339 6.48339 6.90965 4.66485 7.19768Z" fill="#2D264B"/>
</svg>
