<svg xmlns="http://www.w3.org/2000/svg" width="24" height="24" viewBox="0 0 24 24">
  <defs/>
  <path fill="#2D264B" d="M3,13 L3,11 C3,7.25 3,5.375 3.955,4.061 C4.263,3.637 4.637,3.263 5.061,2.955 C6.375,2 8.25,2 12,2 C12.839,2 13.584,2 14.25,2.011 L14.25,2.081 C14.25,2.933 14.25,3.452 14.321,3.899 C14.71,6.36 16.64,8.29 19.101,8.679 C19.548,8.75 20.067,8.75 20.919,8.75 L20.989,8.75 C21,9.416 21,10.161 21,11 L21,13 C21,16.75 21,18.625 20.045,19.939 C19.737,20.363 19.363,20.737 18.939,21.045 C17.625,22 15.75,22 12,22 C8.25,22 6.375,22 5.061,21.045 C4.637,20.737 4.263,20.363 3.955,19.939 C3,18.625 3,16.75 3,13 Z M8,13.25 C7.586,13.25 7.25,13.586 7.25,14 C7.25,14.414 7.586,14.75 8,14.75 L16,14.75 C16.414,14.75 16.75,14.414 16.75,14 C16.75,13.586 16.414,13.25 16,13.25 Z M8,9.25 C7.586,9.25 7.25,9.586 7.25,10 C7.25,10.414 7.586,10.75 8,10.75 L11,10.75 C11.414,10.75 11.75,10.414 11.75,10 C11.75,9.586 11.414,9.25 11,9.25 Z"/>
  <path fill="#2D264B" d="M19.335,7.198 C19.643,7.247 20.024,7.25 20.935,7.25 C20.84,5.81 20.609,4.838 20.045,4.061 C19.737,3.637 19.363,3.263 18.939,2.955 C18.162,2.391 17.19,2.16 15.75,2.065 C15.75,2.976 15.754,3.356 15.802,3.665 C16.09,5.483 17.517,6.91 19.335,7.198 Z"/>
</svg>

