<svg xmlns="http://www.w3.org/2000/svg" width="24" height="24" viewBox="0 0 24 24">
  <defs/>
  <path fill="#2D264B" d="M3,12 C3,8.25 3,6.375 3.955,5.061 C4.263,4.637 4.637,4.263 5.061,3.955 C6.375,3 8.25,3 12,3 C15.75,3 17.625,3 18.939,3.955 C19.363,4.263 19.737,4.637 20.045,5.061 C21,6.375 21,8.25 21,12 C21,12.839 21,13.584 20.989,14.25 L20.919,14.25 C20.067,14.25 19.548,14.25 19.101,14.321 C16.64,14.71 14.71,16.64 14.321,19.101 C14.25,19.548 14.25,20.067 14.25,20.919 L14.25,20.989 C13.584,21 12.839,21 12,21 C8.25,21 6.375,21 5.061,20.045 C4.637,19.737 4.263,19.363 3.955,18.939 C3,17.625 3,15.75 3,12 Z M8,11.25 C7.586,11.25 7.25,11.586 7.25,12 C7.25,12.414 7.586,12.75 8,12.75 L16,12.75 C16.414,12.75 16.75,12.414 16.75,12 C16.75,11.586 16.414,11.25 16,11.25 Z M10,7.25 C9.586,7.25 9.25,7.586 9.25,8 C9.25,8.414 9.586,8.75 10,8.75 L14,8.75 C14.414,8.75 14.75,8.414 14.75,8 C14.75,7.586 14.414,7.25 14,7.25 Z"/>
  <path fill="#2D264B" d="M19.335,15.802 C19.643,15.754 20.024,15.75 20.935,15.75 C20.84,17.19 20.609,18.162 20.045,18.939 C19.737,19.363 19.363,19.737 18.939,20.045 C18.162,20.609 17.19,20.84 15.75,20.935 C15.75,20.024 15.754,19.643 15.802,19.335 C16.09,17.517 17.517,16.09 19.335,15.802 Z"/>
</svg>

