<svg width="24" height="24" viewBox="0 0 24 24" fill="none" xmlns="http://www.w3.org/2000/svg">
<path fill-rule="evenodd" clip-rule="evenodd" d="M21 12C21 8.25027 21 6.3754 20.0451 5.06107C19.7367 4.6366 19.3634 4.26331 18.9389 3.95491C17.6246 3 15.7497 3 12 3C11.1611 3 10.416 3 9.75 3.01069L9.75 3.08082C9.75007 3.93284 9.75011 4.45182 9.67921 4.8995C9.28952 7.35988 7.35988 9.28952 4.8995 9.67921C4.45182 9.75011 3.93284 9.75007 3.08082 9.75L3.01069 9.75C3 10.416 3 11.1611 3 12C3 15.7497 3 17.6246 3.95491 18.9389C4.26331 19.3634 4.6366 19.7367 5.06107 20.0451C6.3754 21 8.25027 21 12 21C15.7497 21 17.6246 21 18.9389 20.0451C19.3634 19.7367 19.7367 19.3634 20.0451 18.9389C21 17.6246 21 15.7497 21 12ZM12.2065 10.0982C12.2213 10.0863 12.2358 10.0749 12.25 10.0638V17C12.25 17.4142 12.5858 17.75 13 17.75C13.4142 17.75 13.75 17.4142 13.75 17V10.0638C13.7642 10.0749 13.7787 10.0863 13.7935 10.0982C14.1161 10.3573 14.4997 10.7427 15.0695 11.3176L16.4673 12.728C16.7589 13.0222 17.2338 13.0243 17.528 12.7327C17.8222 12.4411 17.8243 11.9662 17.5327 11.672L16.1044 10.2309C15.573 9.69472 15.1298 9.24754 14.7328 8.92869C14.3163 8.59426 13.8787 8.33989 13.3455 8.27193C13.1161 8.24269 12.8839 8.24269 12.6545 8.27193C12.1213 8.33989 11.6837 8.59427 11.2672 8.92869C10.8702 9.24753 10.4271 9.6947 9.89568 10.2309L8.46731 11.672C8.17572 11.9662 8.17784 12.4411 8.47204 12.7327C8.76624 13.0243 9.24111 13.0222 9.53269 12.728L10.9305 11.3176C11.5003 10.7427 11.8839 10.3573 12.2065 10.0982Z" fill="#2D264B"/>
<path d="M8.19768 4.66485C8.24652 4.35646 8.24987 3.97568 8.25 3.06534C6.81037 3.15974 5.83783 3.39057 5.06107 3.95491C4.6366 4.26331 4.26331 4.6366 3.95491 5.06107C3.39057 5.83783 3.15974 6.81037 3.06534 8.25C3.97568 8.24987 4.35646 8.24652 4.66485 8.19768C6.48339 7.90965 7.90965 6.48339 8.19768 4.66485Z" fill="#2D264B"/>
</svg>
