<svg xmlns="http://www.w3.org/2000/svg" width="24" height="24" viewBox="0 0 24 24">
  <defs/>
  <path fill="#2D264B" d="M3,13 L3,11 C3,7.25 3,5.375 3.955,4.061 C4.263,3.637 4.637,3.263 5.061,2.955 C6.375,2 8.25,2 12,2 C12.839,2 13.584,2 14.25,2.011 L14.25,2.081 C14.25,2.933 14.25,3.452 14.321,3.899 C14.71,6.36 16.64,8.29 19.101,8.679 C19.548,8.75 20.067,8.75 20.919,8.75 L20.989,8.75 C21,9.416 21,10.161 21,11 L21,13 C21,16.75 21,18.625 20.045,19.939 C19.737,20.363 19.363,20.737 18.939,21.045 C17.625,22 15.75,22 12,22 C8.25,22 6.375,22 5.061,21.045 C4.637,20.737 4.263,20.363 3.955,19.939 C3,18.625 3,16.75 3,13 Z M14.652,11.652 C14.945,11.359 14.945,10.884 14.652,10.591 C14.359,10.298 13.884,10.298 13.591,10.591 L12,12.182 L10.409,10.591 C10.116,10.298 9.641,10.298 9.349,10.591 C9.056,10.884 9.056,11.359 9.349,11.652 L10.94,13.243 L9.349,14.834 C9.056,15.127 9.056,15.601 9.349,15.894 C9.641,16.187 10.116,16.187 10.409,15.894 L12,14.303 L13.591,15.894 C13.884,16.187 14.359,16.187 14.652,15.894 C14.945,15.601 14.945,15.127 14.652,14.834 L13.061,13.243 Z"/>
  <path fill="#2D264B" d="M19.335,7.198 C19.643,7.247 20.024,7.25 20.935,7.25 C20.84,5.81 20.609,4.838 20.045,4.061 C19.737,3.637 19.363,3.263 18.939,2.955 C18.162,2.391 17.19,2.16 15.75,2.065 C15.75,2.976 15.754,3.356 15.802,3.665 C16.09,5.483 17.517,6.91 19.335,7.198 Z"/>
</svg>

