<svg xmlns="http://www.w3.org/2000/svg" width="24" height="24" viewBox="0 0 24 24">
  <defs/>
  <path fill="#2D264B" d="M21,12 C21,15.75 21,17.625 20.045,18.939 C19.737,19.363 19.363,19.737 18.939,20.045 C17.625,21 15.75,21 12,21 C8.25,21 6.375,21 5.061,20.045 C4.637,19.737 4.263,19.363 3.955,18.939 C3,17.625 3,15.75 3,12 C3,11.161 3,10.416 3.011,9.75 L3.081,9.75 C3.933,9.75 4.452,9.75 4.899,9.679 C7.36,9.29 9.29,7.36 9.679,4.899 C9.75,4.452 9.75,3.933 9.75,3.081 L9.75,3.011 C10.416,3 11.161,3 12,3 C15.75,3 17.625,3 18.939,3.955 C19.363,4.263 19.737,4.637 20.045,5.061 C21,6.375 21,8.25 21,12 Z M10.348,11.652 L11.939,13.243 L10.348,14.834 C10.055,15.127 10.055,15.601 10.348,15.894 C10.641,16.187 11.116,16.187 11.409,15.894 L13,14.303 L14.591,15.894 C14.884,16.187 15.358,16.187 15.651,15.894 C15.944,15.601 15.944,15.127 15.651,14.834 L14.06,13.243 L15.651,11.652 C15.944,11.359 15.944,10.884 15.651,10.591 C15.358,10.298 14.884,10.298 14.591,10.591 L13,12.182 L11.409,10.591 C11.116,10.298 10.641,10.298 10.348,10.591 C10.055,10.884 10.055,11.359 10.348,11.652 Z"/>
  <path fill="#2D264B" d="M8.198,4.665 C8.247,4.356 8.25,3.976 8.25,3.065 C6.81,3.16 5.838,3.391 5.061,3.955 C4.637,4.263 4.263,4.637 3.955,5.061 C3.391,5.838 3.16,6.81 3.065,8.25 C3.976,8.25 4.356,8.247 4.665,8.198 C6.483,7.91 7.91,6.483 8.198,4.665 Z"/>
</svg>

