<svg xmlns="http://www.w3.org/2000/svg" width="24" height="24" viewBox="0 0 24 24">
  <defs/>
  <path fill="#2D264B" d="M3,13 L3,11 C3,7.25 3,5.375 3.955,4.061 C4.263,3.637 4.637,3.263 5.061,2.955 C6.375,2 8.25,2 12,2 C12.839,2 13.584,2 14.25,2.011 L14.25,2.081 C14.25,2.933 14.25,3.452 14.321,3.899 C14.71,6.36 16.64,8.29 19.101,8.679 C19.548,8.75 20.067,8.75 20.919,8.75 L20.989,8.75 C21,9.416 21,10.161 21,11 L21,13 C21,16.75 21,18.625 20.045,19.939 C19.737,20.363 19.363,20.737 18.939,21.045 C17.625,22 15.75,22 12,22 C8.25,22 6.375,22 5.061,21.045 C4.637,20.737 4.263,20.363 3.955,19.939 C3,18.625 3,16.75 3,13 Z M12.793,10.098 C13.116,10.357 13.5,10.743 14.069,11.318 L15.467,12.728 C15.759,13.022 16.234,13.024 16.528,12.733 C16.822,12.441 16.824,11.966 16.533,11.672 L15.104,10.231 C14.573,9.695 14.13,9.248 13.733,8.929 C13.316,8.594 12.879,8.34 12.345,8.272 C12.116,8.243 11.884,8.243 11.655,8.272 C11.121,8.34 10.684,8.594 10.267,8.929 C9.87,9.248 9.427,9.695 8.896,10.231 L7.467,11.672 C7.176,11.966 7.178,12.441 7.472,12.733 C7.766,13.024 8.241,13.022 8.533,12.728 L9.931,11.318 C10.5,10.743 10.884,10.357 11.207,10.098 C11.221,10.086 11.236,10.075 11.25,10.064 L11.25,17 C11.25,17.414 11.586,17.75 12,17.75 C12.414,17.75 12.75,17.414 12.75,17 L12.75,10.064 C12.764,10.075 12.779,10.086 12.793,10.098 Z"/>
  <path fill="#2D264B" d="M19.335,7.198 C19.643,7.247 20.024,7.25 20.935,7.25 C20.84,5.81 20.609,4.838 20.045,4.061 C19.737,3.637 19.363,3.263 18.939,2.955 C18.162,2.391 17.19,2.16 15.75,2.065 C15.75,2.976 15.754,3.356 15.802,3.665 C16.09,5.483 17.517,6.91 19.335,7.198 Z"/>
</svg>

