<svg xmlns="http://www.w3.org/2000/svg" width="24" height="24" viewBox="0 0 24 24">
  <defs/>
  <path fill="#2D264B" d="M8,11.25 C7.586,11.25 7.25,11.586 7.25,12 C7.25,12.414 7.586,12.75 8,12.75 L8,11.25 Z M16,12.75 C16.414,12.75 16.75,12.414 16.75,12 C16.75,11.586 16.414,11.25 16,11.25 L16,12.75 Z M10,7.25 C9.586,7.25 9.25,7.586 9.25,8 C9.25,8.414 9.586,8.75 10,8.75 L10,7.25 Z M14,8.75 C14.414,8.75 14.75,8.414 14.75,8 C14.75,7.586 14.414,7.25 14,7.25 L14,8.75 Z M19.101,14.321 C16.64,14.71 14.71,16.64 14.321,19.101 L15.802,19.335 C16.09,17.517 17.517,16.09 19.335,15.802 L19.101,14.321 Z M12,20.25 C10.108,20.25 8.75,20.249 7.698,20.135 C6.66,20.023 6.01,19.807 5.502,19.438 L4.62,20.652 C5.427,21.238 6.371,21.5 7.536,21.626 C8.688,21.751 10.142,21.75 12,21.75 L12,20.25 Z M2.25,12 C2.25,13.858 2.249,15.312 2.374,16.463 C2.5,17.629 2.762,18.573 3.348,19.38 L4.562,18.498 C4.193,17.99 3.977,17.34 3.865,16.302 C3.751,15.25 3.75,13.892 3.75,12 L2.25,12 Z M5.502,19.438 C5.141,19.176 4.824,18.859 4.562,18.498 L3.348,19.38 C3.703,19.868 4.132,20.297 4.62,20.652 L5.502,19.438 Z M19.438,18.498 C19.176,18.859 18.859,19.176 18.498,19.438 L19.38,20.652 C19.868,20.297 20.297,19.868 20.652,19.38 L19.438,18.498 Z M12,3.75 C13.892,3.75 15.25,3.751 16.302,3.865 C17.34,3.977 17.99,4.193 18.498,4.562 L19.38,3.348 C18.573,2.762 17.629,2.5 16.463,2.374 C15.312,2.249 13.858,2.25 12,2.25 L12,3.75 Z M21.75,12 C21.75,10.142 21.751,8.688 21.626,7.536 C21.5,6.371 21.238,5.427 20.652,4.62 L19.438,5.502 C19.807,6.01 20.023,6.66 20.135,7.698 C20.249,8.75 20.25,10.108 20.25,12 L21.75,12 Z M18.498,4.562 C18.859,4.824 19.176,5.141 19.438,5.502 L20.652,4.62 C20.297,4.132 19.868,3.703 19.38,3.348 L18.498,4.562 Z M12,2.25 C10.142,2.25 8.688,2.249 7.536,2.374 C6.371,2.5 5.427,2.762 4.62,3.348 L5.502,4.562 C6.01,4.193 6.66,3.977 7.698,3.865 C8.75,3.751 10.108,3.75 12,3.75 L12,2.25 Z M3.75,12 C3.75,10.108 3.751,8.75 3.865,7.698 C3.977,6.66 4.193,6.01 4.562,5.502 L3.348,4.62 C2.762,5.427 2.5,6.371 2.374,7.536 C2.249,8.688 2.25,10.142 2.25,12 L3.75,12 Z M4.62,3.348 C4.132,3.703 3.703,4.132 3.348,4.62 L4.562,5.502 C4.824,5.141 5.141,4.824 5.502,4.562 L4.62,3.348 Z M20.25,12 C20.25,13.173 20.25,14.146 20.221,14.974 L21.721,15.026 C21.75,14.166 21.75,13.165 21.75,12 L20.25,12 Z M20.221,14.974 C20.158,16.829 19.951,17.793 19.438,18.498 L20.652,19.38 C21.454,18.276 21.656,16.899 21.721,15.026 L20.221,14.974 Z M20.971,14.25 C20.089,14.25 19.558,14.248 19.101,14.321 L19.335,15.802 C19.647,15.753 20.034,15.75 20.971,15.75 L20.971,14.25 Z M12,21.75 C13.165,21.75 14.166,21.75 15.026,21.721 L14.974,20.221 C14.146,20.25 13.173,20.25 12,20.25 L12,21.75 Z M15.026,21.721 C16.899,21.656 18.276,21.454 19.38,20.652 L18.498,19.438 C17.793,19.951 16.829,20.158 14.974,20.221 L15.026,21.721 Z M15.75,20.971 C15.75,20.034 15.753,19.647 15.802,19.335 L14.321,19.101 C14.248,19.558 14.25,20.089 14.25,20.971 L15.75,20.971 Z M8,12.75 L16,12.75 L16,11.25 L8,11.25 L8,12.75 Z M10,8.75 L14,8.75 L14,7.25 L10,7.25 L10,8.75 Z"/>
</svg>

