<svg width="24" height="24" viewBox="0 0 24 24" fill="none" xmlns="http://www.w3.org/2000/svg">
<path fill-rule="evenodd" clip-rule="evenodd" d="M3 13C3 16.7497 3 18.6246 3.95491 19.9389C4.26331 20.3634 4.6366 20.7367 5.06107 21.0451C6.3754 22 8.25027 22 12 22C15.7497 22 17.6246 22 18.9389 21.0451C19.3634 20.7367 19.7367 20.3634 20.0451 19.9389C21 18.6246 21 16.7497 21 13V11C21 10.1611 21 9.41596 20.9893 8.75L20.9192 8.75C20.0672 8.75007 19.5482 8.75011 19.1005 8.67921C16.6401 8.28952 14.7105 6.35988 14.3208 3.8995C14.2499 3.45182 14.2499 2.93284 14.25 2.08082L14.25 2.01069C13.584 2 12.8389 2 12 2C8.25027 2 6.3754 2 5.06107 2.95491C4.6366 3.26331 4.26331 3.6366 3.95491 4.06107C3 5.3754 3 7.25027 3 11V13ZM14.6519 11.6516C14.9448 11.3587 14.9448 10.8839 14.6519 10.591C14.359 10.2981 13.8841 10.2981 13.5912 10.591L12.0002 12.182L10.4092 10.591C10.1163 10.2981 9.64147 10.2981 9.34858 10.591C9.05568 10.8839 9.05568 11.3587 9.34858 11.6516L10.9396 13.2426L9.34858 14.8336C9.05568 15.1265 9.05568 15.6014 9.34858 15.8943C9.64147 16.1872 10.1163 16.1872 10.4092 15.8943L12.0002 14.3033L13.5912 15.8943C13.8841 16.1872 14.359 16.1872 14.6519 15.8943C14.9448 15.6014 14.9448 15.1265 14.6519 14.8336L13.0609 13.2426L14.6519 11.6516Z" fill="#2D264B"/>
<path d="M19.3352 7.19768C19.6435 7.24652 20.0243 7.24987 20.9347 7.25C20.8403 5.81037 20.6094 4.83783 20.0451 4.06107C19.7367 3.6366 19.3634 3.26331 18.9389 2.95491C18.1622 2.39057 17.1896 2.15974 15.75 2.06534C15.7501 2.97568 15.7535 3.35645 15.8023 3.66485C16.0904 5.48339 17.5166 6.90965 19.3352 7.19768Z" fill="#2D264B"/>
</svg>
