<svg width="24" height="24" viewBox="0 0 24 24" fill="none" xmlns="http://www.w3.org/2000/svg">
<path fill-rule="evenodd" clip-rule="evenodd" d="M3 13C3 16.7497 3 18.6246 3.95491 19.9389C4.26331 20.3634 4.6366 20.7367 5.06107 21.0451C6.3754 22 8.25027 22 12 22C15.7497 22 17.6246 22 18.9389 21.0451C19.3634 20.7367 19.7367 20.3634 20.0451 19.9389C21 18.6246 21 16.7497 21 13V11C21 10.1611 21 9.41596 20.9893 8.75L20.9192 8.75C20.0672 8.75007 19.5482 8.75011 19.1005 8.67921C16.6401 8.28952 14.7105 6.35988 14.3208 3.8995C14.2499 3.45182 14.2499 2.93284 14.25 2.08082L14.25 2.01069C13.584 2 12.8389 2 12 2C8.25027 2 6.3754 2 5.06107 2.95491C4.6366 3.26331 4.26331 3.6366 3.95491 4.06107C3 5.3754 3 7.25027 3 11V13ZM12.7935 10.0982C12.7787 10.0863 12.7642 10.0749 12.75 10.0638V17C12.75 17.4142 12.4142 17.75 12 17.75C11.5858 17.75 11.25 17.4142 11.25 17V10.0638C11.2358 10.0749 11.2213 10.0863 11.2065 10.0982C10.8839 10.3573 10.5003 10.7427 9.93054 11.3176L8.53269 12.728C8.24111 13.0222 7.76624 13.0243 7.47204 12.7327C7.17784 12.4411 7.17573 11.9662 7.46731 11.672L8.89565 10.2309C9.42704 9.69472 9.87022 9.24754 10.2672 8.92869C10.6837 8.59426 11.1213 8.33989 11.6545 8.27193C11.8839 8.24269 12.1161 8.24269 12.3455 8.27193C12.8787 8.33989 13.3163 8.59427 13.7328 8.92869C14.1298 9.24753 14.5729 9.6947 15.1043 10.2309L16.5327 11.672C16.8243 11.9662 16.8222 12.4411 16.528 12.7327C16.2338 13.0243 15.7589 13.0222 15.4673 12.728L14.0695 11.3176C13.4997 10.7427 13.1161 10.3573 12.7935 10.0982Z" fill="#2D264B"/>
<path d="M19.3352 7.19768C19.6435 7.24652 20.0243 7.24987 20.9347 7.25C20.8403 5.81037 20.6094 4.83783 20.0451 4.06107C19.7367 3.6366 19.3634 3.26331 18.9389 2.95491C18.1622 2.39057 17.1896 2.15974 15.75 2.06534C15.7501 2.97568 15.7535 3.35645 15.8023 3.66485C16.0904 5.48339 17.5166 6.90965 19.3352 7.19768Z" fill="#2D264B"/>
</svg>
