<svg width="24" height="24" viewBox="0 0 24 24" fill="none" xmlns="http://www.w3.org/2000/svg">
<path fill-rule="evenodd" clip-rule="evenodd" d="M3 13C3 16.7497 3 18.6246 3.95491 19.9389C4.26331 20.3634 4.6366 20.7367 5.06107 21.0451C6.3754 22 8.25027 22 12 22C15.7497 22 17.6246 22 18.9389 21.0451C19.3634 20.7367 19.7367 20.3634 20.0451 19.9389C21 18.6246 21 16.7497 21 13V11C21 10.1611 21 9.41596 20.9893 8.75L20.9192 8.75C20.0672 8.75007 19.5482 8.75011 19.1005 8.67921C16.6401 8.28952 14.7105 6.35988 14.3208 3.8995C14.2499 3.45182 14.2499 2.93284 14.25 2.08082L14.25 2.01069C13.584 2 12.8389 2 12 2C8.25027 2 6.3754 2 5.06107 2.95491C4.6366 3.26331 4.26331 3.6366 3.95491 4.06107C3 5.3754 3 7.25027 3 11V13ZM12.75 9C12.75 8.58579 12.4142 8.25 12 8.25C11.5858 8.25 11.25 8.58579 11.25 9V15.9362C11.2358 15.9251 11.2213 15.9137 11.2065 15.9018C10.8839 15.6427 10.5003 15.2573 9.93054 14.6824L8.53269 13.272C8.24111 12.9778 7.76624 12.9757 7.47204 13.2673C7.17784 13.5589 7.17573 14.0338 7.46731 14.328L8.89564 15.7691C9.42703 16.3053 9.87022 16.7525 10.2672 17.0713C10.6837 17.4057 11.1213 17.6601 11.6545 17.7281C11.8839 17.7573 12.1161 17.7573 12.3455 17.7281C12.8787 17.6601 13.3163 17.4057 13.7328 17.0713C14.1298 16.7525 14.5729 16.3053 15.1043 15.7691L16.5327 14.328C16.8243 14.0338 16.8222 13.5589 16.528 13.2673C16.2338 12.9757 15.7589 12.9778 15.4673 13.272L14.0695 14.6824C13.4997 15.2573 13.1161 15.6427 12.7935 15.9018C12.7787 15.9137 12.7642 15.9251 12.75 15.9362V9Z" fill="#2D264B"/>
<path d="M19.3352 7.19768C19.6435 7.24652 20.0243 7.24987 20.9347 7.25C20.8403 5.81037 20.6094 4.83783 20.0451 4.06107C19.7367 3.6366 19.3634 3.26331 18.9389 2.95491C18.1622 2.39057 17.1896 2.15974 15.75 2.06534C15.7501 2.97568 15.7535 3.35645 15.8023 3.66485C16.0904 5.48339 17.5166 6.90965 19.3352 7.19768Z" fill="#2D264B"/>
</svg>
