<svg xmlns="http://www.w3.org/2000/svg" width="24" height="24" viewBox="0 0 24 24">
  <defs/>
  <path fill="#2D264B" d="M13,11.25 C12.586,11.25 12.25,11.586 12.25,12 C12.25,12.414 12.586,12.75 13,12.75 L13,11.25 Z M16,12.75 C16.414,12.75 16.75,12.414 16.75,12 C16.75,11.586 16.414,11.25 16,11.25 L16,12.75 Z M8,7.25 C7.586,7.25 7.25,7.586 7.25,8 C7.25,8.414 7.586,8.75 8,8.75 L8,7.25 Z M16,8.75 C16.414,8.75 16.75,8.414 16.75,8 C16.75,7.586 16.414,7.25 16,7.25 L16,8.75 Z M4.665,15.802 C6.483,16.09 7.91,17.517 8.198,19.335 L9.679,19.101 C9.29,16.64 7.36,14.71 4.899,14.321 L4.665,15.802 Z M5.502,19.438 C5.141,19.176 4.824,18.859 4.562,18.498 L3.348,19.38 C3.703,19.868 4.132,20.297 4.62,20.652 L5.502,19.438 Z M20.25,12 C20.25,13.892 20.249,15.25 20.135,16.302 C20.023,17.34 19.807,17.99 19.438,18.498 L20.652,19.38 C21.238,18.573 21.5,17.629 21.626,16.463 C21.751,15.312 21.75,13.858 21.75,12 L20.25,12 Z M12,21.75 C13.858,21.75 15.312,21.751 16.463,21.626 C17.629,21.5 18.573,21.238 19.38,20.652 L18.498,19.438 C17.99,19.807 17.34,20.023 16.302,20.135 C15.25,20.249 13.892,20.25 12,20.25 L12,21.75 Z M19.438,18.498 C19.176,18.859 18.859,19.176 18.498,19.438 L19.38,20.652 C19.868,20.297 20.297,19.868 20.652,19.38 L19.438,18.498 Z M12,3.75 C13.892,3.75 15.25,3.751 16.302,3.865 C17.34,3.977 17.99,4.193 18.498,4.562 L19.38,3.348 C18.573,2.762 17.629,2.5 16.463,2.374 C15.312,2.249 13.858,2.25 12,2.25 L12,3.75 Z M21.75,12 C21.75,10.142 21.751,8.688 21.626,7.536 C21.5,6.371 21.238,5.427 20.652,4.62 L19.438,5.502 C19.807,6.01 20.023,6.66 20.135,7.698 C20.249,8.75 20.25,10.108 20.25,12 L21.75,12 Z M18.498,4.562 C18.859,4.824 19.176,5.141 19.438,5.502 L20.652,4.62 C20.297,4.132 19.868,3.703 19.38,3.348 L18.498,4.562 Z M12,2.25 C10.142,2.25 8.688,2.249 7.536,2.374 C6.371,2.5 5.427,2.762 4.62,3.348 L5.502,4.562 C6.01,4.193 6.66,3.977 7.698,3.865 C8.75,3.751 10.108,3.75 12,3.75 L12,2.25 Z M3.75,12 C3.75,10.108 3.751,8.75 3.865,7.698 C3.977,6.66 4.193,6.01 4.562,5.502 L3.348,4.62 C2.762,5.427 2.5,6.371 2.374,7.536 C2.249,8.688 2.25,10.142 2.25,12 L3.75,12 Z M4.62,3.348 C4.132,3.703 3.703,4.132 3.348,4.62 L4.562,5.502 C4.824,5.141 5.141,4.824 5.502,4.562 L4.62,3.348 Z M2.25,12 C2.25,13.165 2.25,14.166 2.279,15.026 L3.778,14.974 C3.75,14.146 3.75,13.173 3.75,12 L2.25,12 Z M2.279,15.026 C2.344,16.899 2.546,18.276 3.348,19.38 L4.562,18.498 C4.049,17.793 3.842,16.829 3.778,14.974 L2.279,15.026 Z M3.029,15.75 C3.966,15.75 4.353,15.753 4.665,15.802 L4.899,14.321 C4.442,14.248 3.911,14.25 3.029,14.25 L3.029,15.75 Z M12,20.25 C10.827,20.25 9.854,20.25 9.026,20.221 L8.974,21.721 C9.834,21.75 10.835,21.75 12,21.75 L12,20.25 Z M9.026,20.221 C7.171,20.158 6.207,19.951 5.502,19.438 L4.62,20.652 C5.724,21.454 7.101,21.656 8.974,21.721 L9.026,20.221 Z M9.75,20.971 C9.75,20.089 9.752,19.558 9.679,19.101 L8.198,19.335 C8.247,19.647 8.25,20.034 8.25,20.971 L9.75,20.971 Z M13,12.75 L16,12.75 L16,11.25 L13,11.25 L13,12.75 Z M8,8.75 L16,8.75 L16,7.25 L8,7.25 L8,8.75 Z"/>
</svg>

