<svg width="24" height="24" viewBox="0 0 24 24" fill="none" xmlns="http://www.w3.org/2000/svg">
<path fill-rule="evenodd" clip-rule="evenodd" d="M3 12C3 8.25027 3 6.3754 3.95491 5.06107C4.26331 4.6366 4.6366 4.26331 5.06107 3.95491C6.3754 3 8.25027 3 12 3C12.8389 3 13.584 3 14.25 3.01069L14.25 3.08082C14.2499 3.93284 14.2499 4.45182 14.3208 4.8995C14.7105 7.35988 16.6401 9.28952 19.1005 9.67921C19.5482 9.75011 20.0672 9.75007 20.9192 9.75L20.9893 9.75C21 10.416 21 11.1611 21 12C21 15.7497 21 17.6246 20.0451 18.9389C19.7367 19.3634 19.3634 19.7367 18.9389 20.0451C17.6246 21 15.7497 21 12 21C8.25027 21 6.3754 21 5.06107 20.0451C4.6366 19.7367 4.26331 19.3634 3.95491 18.9389C3 17.6246 3 15.7497 3 12ZM13.6519 11.6516C13.9448 11.3588 13.9448 10.8839 13.6519 10.591C13.359 10.2981 12.8841 10.2981 12.5912 10.591L11.0002 12.182L9.40924 10.591C9.11634 10.2981 8.64147 10.2981 8.34858 10.591C8.05568 10.8839 8.05568 11.3588 8.34858 11.6516L9.93957 13.2426L8.34858 14.8336C8.05568 15.1265 8.05568 15.6014 8.34858 15.8943C8.64147 16.1872 9.11634 16.1872 9.40924 15.8943L11.0002 14.3033L12.5912 15.8943C12.8841 16.1872 13.359 16.1872 13.6519 15.8943C13.9448 15.6014 13.9448 15.1265 13.6519 14.8336L12.0609 13.2426L13.6519 11.6516Z" fill="#2D264B"/>
<path d="M15.8023 4.66485C15.7535 4.35646 15.7501 3.97568 15.75 3.06534C17.1896 3.15974 18.1622 3.39057 18.9389 3.95491C19.3634 4.26331 19.7367 4.6366 20.0451 5.06107C20.6094 5.83783 20.8403 6.81037 20.9347 8.25C20.0243 8.24987 19.6435 8.24652 19.3352 8.19768C17.5166 7.90965 16.0904 6.48339 15.8023 4.66485Z" fill="#2D264B"/>
</svg>
