<svg width="24" height="24" viewBox="0 0 24 24" fill="none" xmlns="http://www.w3.org/2000/svg">
<path fill-rule="evenodd" clip-rule="evenodd" d="M21 12C21 8.25027 21 6.3754 20.0451 5.06107C19.7367 4.6366 19.3634 4.26331 18.9389 3.95491C17.6246 3 15.7497 3 12 3C8.25027 3 6.3754 3 5.06107 3.95491C4.6366 4.26331 4.26331 4.6366 3.95491 5.06107C3 6.3754 3 8.25027 3 12C3 12.8389 3 13.584 3.01069 14.25L3.08082 14.25C3.93284 14.2499 4.45182 14.2499 4.8995 14.3208C7.35988 14.7105 9.28952 16.6401 9.67921 19.1005C9.75011 19.5482 9.75007 20.0672 9.75 20.9192L9.75 20.9893C10.416 21 11.1611 21 12 21C15.7497 21 17.6246 21 18.9389 20.0451C19.3634 19.7367 19.7367 19.3634 20.0451 18.9389C21 17.6246 21 15.7497 21 12ZM16 7.25C16.4142 7.25 16.75 7.58579 16.75 8C16.75 8.41421 16.4142 8.75 16 8.75H13C12.5858 8.75 12.25 8.41421 12.25 8C12.25 7.58579 12.5858 7.25 13 7.25H16ZM16 11.25C16.4142 11.25 16.75 11.5858 16.75 12C16.75 12.4142 16.4142 12.75 16 12.75H8C7.58579 12.75 7.25 12.4142 7.25 12C7.25 11.5858 7.58579 11.25 8 11.25H16ZM16 15.25C16.4142 15.25 16.75 15.5858 16.75 16C16.75 16.4142 16.4142 16.75 16 16.75H13C12.5858 16.75 12.25 16.4142 12.25 16C12.25 15.5858 12.5858 15.25 13 15.25H16Z" fill="#2D264B"/>
<path d="M4.66485 15.8023C4.35646 15.7535 3.97568 15.7501 3.06534 15.75C3.15974 17.1896 3.39057 18.1622 3.95491 18.9389C4.26331 19.3634 4.6366 19.7367 5.06107 20.0451C5.83783 20.6094 6.81037 20.8403 8.25 20.9347C8.24987 20.0243 8.24652 19.6435 8.19768 19.3352C7.90965 17.5166 6.48339 16.0904 4.66485 15.8023Z" fill="#2D264B"/>
</svg>
