<svg xmlns="http://www.w3.org/2000/svg" width="24" height="24" viewBox="0 0 24 24">
  <defs/>
  <path fill="#2D264B" d="M3,12 C3,8.25 3,6.375 3.955,5.061 C4.263,4.637 4.637,4.263 5.061,3.955 C6.375,3 8.25,3 12,3 C12.839,3 13.584,3 14.25,3.011 L14.25,3.081 C14.25,3.933 14.25,4.452 14.321,4.899 C14.71,7.36 16.64,9.29 19.101,9.679 C19.548,9.75 20.067,9.75 20.919,9.75 L20.989,9.75 C21,10.416 21,11.161 21,12 C21,15.75 21,17.625 20.045,18.939 C19.737,19.363 19.363,19.737 18.939,20.045 C17.625,21 15.75,21 12,21 C8.25,21 6.375,21 5.061,20.045 C4.637,19.737 4.263,19.363 3.955,18.939 C3,17.625 3,15.75 3,12 Z M13.652,11.652 C13.945,11.359 13.945,10.884 13.652,10.591 C13.359,10.298 12.884,10.298 12.591,10.591 L11,12.182 L9.409,10.591 C9.116,10.298 8.641,10.298 8.349,10.591 C8.056,10.884 8.056,11.359 8.349,11.652 L9.94,13.243 L8.349,14.834 C8.056,15.127 8.056,15.601 8.349,15.894 C8.641,16.187 9.116,16.187 9.409,15.894 L11,14.303 L12.591,15.894 C12.884,16.187 13.359,16.187 13.652,15.894 C13.945,15.601 13.945,15.127 13.652,14.834 L12.061,13.243 Z"/>
  <path fill="#2D264B" d="M15.802,4.665 C15.754,4.356 15.75,3.976 15.75,3.065 C17.19,3.16 18.162,3.391 18.939,3.955 C19.363,4.263 19.737,4.637 20.045,5.061 C20.609,5.838 20.84,6.81 20.935,8.25 C20.024,8.25 19.643,8.247 19.335,8.198 C17.517,7.91 16.09,6.483 15.802,4.665 Z"/>
</svg>

