<svg width="24" height="24" viewBox="0 0 24 24" fill="none" xmlns="http://www.w3.org/2000/svg">
<path fill-rule="evenodd" clip-rule="evenodd" d="M21 11C21 7.25027 21 5.3754 20.0451 4.06107C19.7367 3.6366 19.3634 3.26331 18.9389 2.95491C17.6246 2 15.7497 2 12 2C8.25027 2 6.3754 2 5.06107 2.95491C4.6366 3.26331 4.26331 3.6366 3.95491 4.06107C3 5.3754 3 7.25027 3 11V13C3 13.8389 3 14.584 3.01069 15.25L3.08082 15.25C3.93284 15.2499 4.45182 15.2499 4.8995 15.3208C7.35988 15.7105 9.28952 17.6401 9.67921 20.1005C9.75011 20.5482 9.75007 21.0672 9.75 21.9192L9.75 21.9893C10.416 22 11.1611 22 12 22C15.7497 22 17.6246 22 18.9389 21.0451C19.3634 20.7367 19.7367 20.3634 20.0451 19.9389C21 18.6246 21 16.7497 21 13V11ZM10 7.25C9.58579 7.25 9.25 7.58579 9.25 8C9.25 8.41421 9.58579 8.75 10 8.75H14C14.4142 8.75 14.75 8.41421 14.75 8C14.75 7.58579 14.4142 7.25 14 7.25H10ZM8 11.25C7.58579 11.25 7.25 11.5858 7.25 12C7.25 12.4142 7.58579 12.75 8 12.75H16C16.4142 12.75 16.75 12.4142 16.75 12C16.75 11.5858 16.4142 11.25 16 11.25H8Z" fill="#2D264B"/>
<path d="M4.66485 16.8023C4.35646 16.7535 3.97568 16.7501 3.06534 16.75C3.15974 18.1896 3.39057 19.1622 3.95491 19.9389C4.26331 20.3634 4.6366 20.7367 5.06107 21.0451C5.83783 21.6094 6.81037 21.8403 8.25 21.9347C8.24987 21.0243 8.24652 20.6435 8.19768 20.3352C7.90965 18.5166 6.48339 17.0904 4.66485 16.8023Z" fill="#2D264B"/>
</svg>
