<svg xmlns="http://www.w3.org/2000/svg" width="24" height="24" viewBox="0 0 24 24">
  <defs/>
  <path fill="#2D264B" d="M3,12 C3,8.25 3,6.375 3.955,5.061 C4.263,4.637 4.637,4.263 5.061,3.955 C6.375,3 8.25,3 12,3 C12.839,3 13.584,3 14.25,3.011 L14.25,3.081 C14.25,3.933 14.25,4.452 14.321,4.899 C14.71,7.36 16.64,9.29 19.101,9.679 C19.548,9.75 20.067,9.75 20.919,9.75 L20.989,9.75 C21,10.416 21,11.161 21,12 C21,15.75 21,17.625 20.045,18.939 C19.737,19.363 19.363,19.737 18.939,20.045 C17.625,21 15.75,21 12,21 C8.25,21 6.375,21 5.061,20.045 C4.637,19.737 4.263,19.363 3.955,18.939 C3,17.625 3,15.75 3,12 Z M11.793,10.098 C12.116,10.357 12.5,10.743 13.069,11.318 L14.467,12.728 C14.759,13.022 15.234,13.024 15.528,12.733 C15.822,12.441 15.824,11.966 15.533,11.672 L14.104,10.231 C13.573,9.695 13.13,9.248 12.733,8.929 C12.316,8.594 11.879,8.34 11.345,8.272 C11.116,8.243 10.884,8.243 10.655,8.272 C10.121,8.34 9.684,8.594 9.267,8.929 C8.87,9.248 8.427,9.695 7.896,10.231 L6.467,11.672 C6.176,11.966 6.178,12.441 6.472,12.733 C6.766,13.024 7.241,13.022 7.533,12.728 L8.931,11.318 C9.5,10.743 9.884,10.357 10.207,10.098 C10.221,10.086 10.236,10.075 10.25,10.064 L10.25,17 C10.25,17.414 10.586,17.75 11,17.75 C11.414,17.75 11.75,17.414 11.75,17 L11.75,10.064 C11.764,10.075 11.779,10.086 11.793,10.098 Z"/>
  <path fill="#2D264B" d="M15.802,4.665 C15.754,4.356 15.75,3.976 15.75,3.065 C17.19,3.16 18.162,3.391 18.939,3.955 C19.363,4.263 19.737,4.637 20.045,5.061 C20.609,5.838 20.84,6.81 20.935,8.25 C20.024,8.25 19.643,8.247 19.335,8.198 C17.517,7.91 16.09,6.483 15.802,4.665 Z"/>
</svg>

