<svg xmlns="http://www.w3.org/2000/svg" width="24" height="24" viewBox="0 0 24 24">
  <defs/>
  <path fill="#2D264B" d="M21,13 C21,16.75 21,18.625 20.045,19.939 C19.737,20.363 19.363,20.737 18.939,21.045 C17.625,22 15.75,22 12,22 C8.25,22 6.375,22 5.061,21.045 C4.637,20.737 4.263,20.363 3.955,19.939 C3,18.625 3,16.75 3,13 L3,11 C3,10.161 3,9.416 3.011,8.75 L3.081,8.75 C3.933,8.75 4.452,8.75 4.899,8.679 C7.36,8.29 9.29,6.36 9.679,3.899 C9.75,3.452 9.75,2.933 9.75,2.081 L9.75,2.011 C10.416,2 11.161,2 12,2 C15.75,2 17.625,2 18.939,2.955 C19.363,3.263 19.737,3.637 20.045,4.061 C21,5.375 21,7.25 21,11 Z M14.652,11.652 C14.945,11.359 14.945,10.884 14.652,10.591 C14.359,10.298 13.884,10.298 13.591,10.591 L12,12.182 L10.409,10.591 C10.116,10.298 9.641,10.298 9.349,10.591 C9.056,10.884 9.056,11.359 9.349,11.652 L10.94,13.243 L9.349,14.834 C9.056,15.127 9.056,15.601 9.349,15.894 C9.641,16.187 10.116,16.187 10.409,15.894 L12,14.303 L13.591,15.894 C13.884,16.187 14.359,16.187 14.652,15.894 C14.945,15.601 14.945,15.127 14.652,14.834 L13.061,13.243 Z"/>
  <path fill="#2D264B" d="M4.665,7.198 C4.356,7.247 3.976,7.25 3.065,7.25 C3.16,5.81 3.391,4.838 3.955,4.061 C4.263,3.637 4.637,3.263 5.061,2.955 C5.838,2.391 6.81,2.16 8.25,2.065 C8.25,2.976 8.247,3.356 8.198,3.665 C7.91,5.483 6.483,6.91 4.665,7.198 Z"/>
</svg>

