<svg width="24" height="24" viewBox="0 0 24 24" fill="none" xmlns="http://www.w3.org/2000/svg">
<path fill-rule="evenodd" clip-rule="evenodd" d="M21 12C21 8.25027 21 6.3754 20.0451 5.06107C19.7367 4.6366 19.3634 4.26331 18.9389 3.95491C17.6246 3 15.7497 3 12 3C11.1611 3 10.416 3 9.75 3.01069L9.75 3.08082C9.75007 3.93284 9.75011 4.45182 9.67921 4.8995C9.28952 7.35988 7.35988 9.28952 4.8995 9.67921C4.45182 9.75011 3.93284 9.75007 3.08082 9.75L3.01069 9.75C3 10.416 3 11.1611 3 12C3 15.7497 3 17.6246 3.95491 18.9389C4.26331 19.3634 4.6366 19.7367 5.06107 20.0451C6.3754 21 8.25027 21 12 21C15.7497 21 17.6246 21 18.9389 20.0451C19.3634 19.7367 19.7367 19.3634 20.0451 18.9389C21 17.6246 21 15.7497 21 12ZM12.25 9C12.25 8.58579 12.5858 8.25 13 8.25C13.4142 8.25 13.75 8.58579 13.75 9V15.9362C13.7642 15.9251 13.7787 15.9137 13.7935 15.9018C14.1161 15.6427 14.4997 15.2573 15.0695 14.6824L16.4673 13.272C16.7589 12.9778 17.2338 12.9757 17.528 13.2673C17.8222 13.5589 17.8243 14.0338 17.5327 14.328L16.1044 15.7691C15.573 16.3053 15.1298 16.7525 14.7328 17.0713C14.3163 17.4057 13.8787 17.6601 13.3455 17.7281C13.1161 17.7573 12.8839 17.7573 12.6545 17.7281C12.1213 17.6601 11.6837 17.4057 11.2672 17.0713C10.8702 16.7525 10.4271 16.3053 9.89569 15.7691L8.46731 14.328C8.17572 14.0338 8.17784 13.5589 8.47204 13.2673C8.76624 12.9757 9.24111 12.9778 9.53269 13.272L10.9305 14.6824C11.5003 15.2573 11.8839 15.6427 12.2065 15.9018C12.2213 15.9137 12.2358 15.9251 12.25 15.9362V9Z" fill="#2D264B"/>
<path d="M8.19768 4.66485C8.24652 4.35646 8.24987 3.97568 8.25 3.06534C6.81037 3.15974 5.83783 3.39057 5.06107 3.95491C4.6366 4.26331 4.26331 4.6366 3.95491 5.06107C3.39057 5.83783 3.15974 6.81037 3.06534 8.25C3.97568 8.24987 4.35646 8.24652 4.66485 8.19768C6.48339 7.90965 7.90965 6.48339 8.19768 4.66485Z" fill="#2D264B"/>
</svg>
