<svg width="24" height="24" viewBox="0 0 24 24" fill="none" xmlns="http://www.w3.org/2000/svg">
<path fill-rule="evenodd" clip-rule="evenodd" d="M21 12C21 8.25027 21 6.3754 20.0451 5.06107C19.7367 4.6366 19.3634 4.26331 18.9389 3.95491C17.6246 3 15.7497 3 12 3C11.1611 3 10.416 3 9.75 3.01069L9.75 3.08082C9.75007 3.93284 9.75011 4.45182 9.67921 4.8995C9.28952 7.35988 7.35988 9.28952 4.8995 9.67921C4.45182 9.75011 3.93284 9.75007 3.08082 9.75L3.01069 9.75C3 10.416 3 11.1611 3 12C3 15.7497 3 17.6246 3.95491 18.9389C4.26331 19.3634 4.6366 19.7367 5.06107 20.0451C6.3754 21 8.25027 21 12 21C15.7497 21 17.6246 21 18.9389 20.0451C19.3634 19.7367 19.7367 19.3634 20.0451 18.9389C21 17.6246 21 15.7497 21 12ZM10.3481 11.6516C10.0552 11.3588 10.0552 10.8839 10.3481 10.591C10.641 10.2981 11.1159 10.2981 11.4088 10.591L12.9998 12.182L14.5908 10.591C14.8837 10.2981 15.3585 10.2981 15.6514 10.591C15.9443 10.8839 15.9443 11.3588 15.6514 11.6516L14.0604 13.2426L15.6514 14.8336C15.9443 15.1265 15.9443 15.6014 15.6514 15.8943C15.3585 16.1872 14.8837 16.1872 14.5908 15.8943L12.9998 14.3033L11.4088 15.8943C11.1159 16.1872 10.641 16.1872 10.3481 15.8943C10.0552 15.6014 10.0552 15.1265 10.3481 14.8336L11.9391 13.2426L10.3481 11.6516Z" fill="#2D264B"/>
<path d="M8.19768 4.66485C8.24652 4.35646 8.24987 3.97568 8.25 3.06534C6.81037 3.15974 5.83783 3.39057 5.06107 3.95491C4.6366 4.26331 4.26331 4.6366 3.95491 5.06107C3.39057 5.83783 3.15974 6.81037 3.06534 8.25C3.97568 8.24987 4.35646 8.24652 4.66485 8.19768C6.48339 7.90965 7.90965 6.48339 8.19768 4.66485Z" fill="#2D264B"/>
</svg>
