<svg xmlns="http://www.w3.org/2000/svg" width="24" height="24" viewBox="0 0 24 24">
  <defs/>
  <path fill="#2D264B" d="M21,11 L21,13 C21,16.75 21,18.625 20.045,19.939 C19.737,20.363 19.363,20.737 18.939,21.045 C17.625,22 15.75,22 12,22 C11.161,22 10.416,22 9.75,21.989 L9.75,21.919 C9.75,21.067 9.75,20.548 9.679,20.101 C9.29,17.64 7.36,15.71 4.899,15.321 C4.452,15.25 3.933,15.25 3.081,15.25 L3.011,15.25 C3,14.584 3,13.839 3,13 L3,11 C3,7.25 3,5.375 3.955,4.061 C4.263,3.637 4.637,3.263 5.061,2.955 C6.375,2 8.25,2 12,2 C15.75,2 17.625,2 18.939,2.955 C19.363,3.263 19.737,3.637 20.045,4.061 C21,5.375 21,7.25 21,11 Z M8,11.25 C7.586,11.25 7.25,11.586 7.25,12 C7.25,12.414 7.586,12.75 8,12.75 L16,12.75 C16.414,12.75 16.75,12.414 16.75,12 C16.75,11.586 16.414,11.25 16,11.25 Z M10,7.25 C9.586,7.25 9.25,7.586 9.25,8 C9.25,8.414 9.586,8.75 10,8.75 L14,8.75 C14.414,8.75 14.75,8.414 14.75,8 C14.75,7.586 14.414,7.25 14,7.25 Z"/>
  <path fill="#2D264B" d="M4.665,16.802 C4.356,16.753 3.976,16.75 3.065,16.75 C3.16,18.19 3.391,19.162 3.955,19.939 C4.263,20.363 4.637,20.737 5.061,21.045 C5.838,21.609 6.81,21.84 8.25,21.935 C8.25,21.024 8.247,20.643 8.198,20.335 C7.91,18.517 6.483,17.09 4.665,16.802 Z"/>
</svg>

