<svg width="24" height="24" viewBox="0 0 24 24" fill="none" xmlns="http://www.w3.org/2000/svg">
<path fill-rule="evenodd" clip-rule="evenodd" d="M5.06107 2.95491C5.16622 2.87852 5.27495 2.80825 5.38793 2.74359C5.42423 2.82442 5.47557 2.90015 5.54195 2.96653C6.8325 4.25703 7.84549 5.26842 8.73846 5.98311C9.64248 6.70666 10.4891 7.18158 11.4645 7.33608C12.0605 7.43047 12.6676 7.43047 13.2635 7.33608C14.2117 7.1859 15.038 6.73301 15.9137 6.04333C16.7783 5.36245 17.7489 4.40277 18.9707 3.18187C19.0099 3.1427 19.0438 3.10027 19.0725 3.05545C19.442 3.34326 19.7695 3.68172 20.0451 4.06107C21 5.3754 21 7.25027 21 11V13C21 16.7497 21 18.6246 20.0451 19.9389C19.7367 20.3634 19.3634 20.7367 18.9389 21.0451C17.6246 22 15.7497 22 12 22C8.25027 22 6.3754 22 5.06107 21.0451C4.6366 20.7367 4.26331 20.3634 3.95491 19.9389C3 18.6246 3 16.7497 3 13V11C3 7.25027 3 5.3754 3.95491 4.06107C4.26331 3.6366 4.6366 3.26331 5.06107 2.95491ZM8 9.25C7.58579 9.25 7.25 9.58579 7.25 10C7.25 10.4142 7.58579 10.75 8 10.75H16C16.4142 10.75 16.75 10.4142 16.75 10C16.75 9.58579 16.4142 9.25 16 9.25H8ZM8 13.25C7.58579 13.25 7.25 13.5858 7.25 14C7.25 14.4142 7.58579 14.75 8 14.75H16C16.4142 14.75 16.75 14.4142 16.75 14C16.75 13.5858 16.4142 13.25 16 13.25H8ZM8 17.25C7.58579 17.25 7.25 17.5858 7.25 18C7.25 18.4142 7.58579 18.75 8 18.75H16C16.4142 18.75 16.75 18.4142 16.75 18C16.75 17.5858 16.4142 17.25 16 17.25H8Z" fill="#2D264B"/>
<path d="M12 2C14.6999 2 16.4278 2 17.6744 2.35647C16.554 3.47389 15.716 4.28975 14.9857 4.8649C14.2161 5.47095 13.6262 5.75993 13.0289 5.85454C12.5884 5.92431 12.1397 5.92431 11.6992 5.85454C11.0846 5.75721 10.4782 5.45425 9.67576 4.81202C8.92863 4.21404 8.06901 3.37043 6.9166 2.21968C8.10873 2 9.70241 2 12 2Z" fill="#2D264B"/>
</svg>
