<svg xmlns="http://www.w3.org/2000/svg" width="24" height="24" viewBox="0 0 24 24">
  <defs/>
  <path fill="#2D264B" d="M13.75,9 C13.75,8.586 13.414,8.25 13,8.25 C12.586,8.25 12.25,8.586 12.25,9 L13.75,9 Z M17.533,14.328 C17.824,14.034 17.822,13.559 17.528,13.267 C17.234,12.976 16.759,12.978 16.467,13.272 L17.533,14.328 Z M9.533,13.272 C9.241,12.978 8.766,12.976 8.472,13.267 C8.178,13.559 8.176,14.034 8.467,14.328 L9.533,13.272 Z M4.899,9.679 C7.36,9.29 9.29,7.36 9.679,4.899 L8.198,4.665 C7.91,6.483 6.483,7.91 4.665,8.198 L4.899,9.679 Z M12,21.75 C13.858,21.75 15.312,21.751 16.463,21.626 C17.629,21.5 18.573,21.238 19.38,20.652 L18.498,19.438 C17.99,19.807 17.34,20.023 16.302,20.135 C15.25,20.249 13.892,20.25 12,20.25 L12,21.75 Z M20.25,12 C20.25,13.892 20.249,15.25 20.135,16.302 C20.023,17.34 19.807,17.99 19.438,18.498 L20.652,19.38 C21.238,18.573 21.5,17.629 21.626,16.463 C21.751,15.312 21.75,13.858 21.75,12 L20.25,12 Z M19.38,20.652 C19.868,20.297 20.297,19.868 20.652,19.38 L19.438,18.498 C19.176,18.859 18.859,19.176 18.498,19.438 L19.38,20.652 Z M2.25,12 C2.25,13.858 2.249,15.312 2.374,16.463 C2.5,17.629 2.762,18.573 3.348,19.38 L4.562,18.498 C4.193,17.99 3.977,17.34 3.865,16.302 C3.751,15.25 3.75,13.892 3.75,12 L2.25,12 Z M12,20.25 C10.108,20.25 8.75,20.249 7.698,20.135 C6.66,20.023 6.01,19.807 5.502,19.438 L4.62,20.652 C5.427,21.238 6.371,21.5 7.536,21.626 C8.688,21.751 10.142,21.75 12,21.75 L12,20.25 Z M3.348,19.38 C3.703,19.868 4.132,20.297 4.62,20.652 L5.502,19.438 C5.141,19.176 4.824,18.859 4.562,18.498 L3.348,19.38 Z M4.62,3.348 C4.132,3.703 3.703,4.132 3.348,4.62 L4.562,5.502 C4.824,5.141 5.141,4.824 5.502,4.562 L4.62,3.348 Z M12,3.75 C13.892,3.75 15.25,3.751 16.302,3.865 C17.34,3.977 17.99,4.193 18.498,4.562 L19.38,3.348 C18.573,2.762 17.629,2.5 16.463,2.374 C15.312,2.249 13.858,2.25 12,2.25 L12,3.75 Z M21.75,12 C21.75,10.142 21.751,8.688 21.626,7.536 C21.5,6.371 21.238,5.427 20.652,4.62 L19.438,5.502 C19.807,6.01 20.023,6.66 20.135,7.698 C20.249,8.75 20.25,10.108 20.25,12 L21.75,12 Z M18.498,4.562 C18.859,4.824 19.176,5.141 19.438,5.502 L20.652,4.62 C20.297,4.132 19.868,3.703 19.38,3.348 L18.498,4.562 Z M12,2.25 C10.835,2.25 9.834,2.25 8.974,2.279 L9.026,3.778 C9.854,3.75 10.827,3.75 12,3.75 L12,2.25 Z M8.974,2.279 C7.101,2.344 5.724,2.546 4.62,3.348 L5.502,4.562 C6.207,4.049 7.171,3.842 9.026,3.778 L8.974,2.279 Z M8.25,3.029 C8.25,3.966 8.247,4.353 8.198,4.665 L9.679,4.899 C9.752,4.442 9.75,3.911 9.75,3.029 L8.25,3.029 Z M3.75,12 C3.75,10.827 3.75,9.854 3.778,9.026 L2.279,8.974 C2.25,9.834 2.25,10.835 2.25,12 L3.75,12 Z M3.778,9.026 C3.842,7.171 4.049,6.207 4.562,5.502 L3.348,4.62 C2.546,5.724 2.344,7.101 2.279,8.974 L3.778,9.026 Z M3.029,9.75 C3.911,9.75 4.442,9.752 4.899,9.679 L4.665,8.198 C4.353,8.247 3.966,8.25 3.029,8.25 L3.029,9.75 Z M12.25,9 L12.25,16.2 L13.75,16.2 L13.75,9 L12.25,9 Z M16.467,13.272 L15.069,14.682 L16.135,15.738 L17.533,14.328 L16.467,13.272 Z M10.931,14.682 L9.533,13.272 L8.467,14.328 L9.865,15.738 L10.931,14.682 Z M15.069,14.682 C14.5,15.257 14.116,15.643 13.793,15.902 C13.483,16.151 13.302,16.221 13.156,16.24 L13.345,17.728 C13.879,17.66 14.316,17.406 14.733,17.071 C15.137,16.746 15.59,16.288 16.135,15.738 L15.069,14.682 Z M9.865,15.738 C10.41,16.288 10.863,16.746 11.267,17.071 C11.684,17.406 12.121,17.66 12.655,17.728 L12.844,16.24 C12.698,16.221 12.517,16.151 12.207,15.902 C11.884,15.643 11.5,15.257 10.931,14.682 L9.865,15.738 Z M13.156,16.24 C13.104,16.247 13.052,16.25 13,16.25 L13,17.75 C13.115,17.75 13.231,17.743 13.345,17.728 L13.156,16.24 Z M13,16.25 C12.948,16.25 12.896,16.247 12.844,16.24 L12.655,17.728 C12.769,17.743 12.885,17.75 13,17.75 L13,16.25 Z M12.25,16.2 L12.25,17 L13.75,17 L13.75,16.2 L12.25,16.2 Z"/>
</svg>

