<svg width="24" height="24" viewBox="0 0 24 24" fill="none" xmlns="http://www.w3.org/2000/svg">
<path fill-rule="evenodd" clip-rule="evenodd" d="M21 11V13C21 16.7497 21 18.6246 20.0451 19.9389C19.7367 20.3634 19.3634 20.7367 18.9389 21.0451C17.6246 22 15.7497 22 12 22C8.25027 22 6.3754 22 5.06107 21.0451C4.6366 20.7367 4.26331 20.3634 3.95491 19.9389C3 18.6246 3 16.7497 3 13V11C3 10.1611 3 9.41596 3.01069 8.75L3.08082 8.75C3.93284 8.75007 4.45182 8.75011 4.8995 8.67921C7.35988 8.28952 9.28952 6.35988 9.67921 3.8995C9.75011 3.45182 9.75007 2.93284 9.75 2.08082L9.75 2.01069C10.416 2 11.1611 2 12 2C15.7497 2 17.6246 2 18.9389 2.95491C19.3634 3.26331 19.7367 3.6366 20.0451 4.06107C21 5.3754 21 7.25027 21 11ZM12.75 9C12.75 8.58579 12.4142 8.25 12 8.25C11.5858 8.25 11.25 8.58579 11.25 9V15.9362C11.2358 15.9251 11.2213 15.9137 11.2065 15.9018C10.8839 15.6427 10.5003 15.2573 9.93054 14.6824L8.53269 13.272C8.24111 12.9778 7.76624 12.9757 7.47204 13.2673C7.17784 13.5589 7.17573 14.0338 7.46731 14.328L8.89564 15.7691C9.42703 16.3053 9.87022 16.7525 10.2672 17.0713C10.6837 17.4057 11.1213 17.6601 11.6545 17.7281C11.8839 17.7573 12.1161 17.7573 12.3455 17.7281C12.8787 17.6601 13.3163 17.4057 13.7328 17.0713C14.1298 16.7525 14.5729 16.3053 15.1043 15.7691L16.5327 14.328C16.8243 14.0338 16.8222 13.5589 16.528 13.2673C16.2338 12.9757 15.7589 12.9778 15.4673 13.272L14.0695 14.6824C13.4997 15.2573 13.1161 15.6427 12.7935 15.9018C12.7787 15.9137 12.7642 15.9251 12.75 15.9362V9Z" fill="#2D264B"/>
<path d="M4.66485 7.19768C4.35646 7.24652 3.97568 7.24987 3.06534 7.25C3.15974 5.81037 3.39057 4.83783 3.95491 4.06107C4.26331 3.6366 4.6366 3.26331 5.06107 2.95491C5.83783 2.39057 6.81037 2.15974 8.25 2.06534C8.24987 2.97568 8.24652 3.35645 8.19768 3.66485C7.90965 5.48339 6.48339 6.90965 4.66485 7.19768Z" fill="#2D264B"/>
</svg>
