<svg width="24" height="24" viewBox="0 0 24 24" fill="none" xmlns="http://www.w3.org/2000/svg">
<path fill-rule="evenodd" clip-rule="evenodd" d="M3 11C3 7.25027 3 5.3754 3.95491 4.06107C4.26331 3.6366 4.6366 3.26331 5.06107 2.95491C6.3754 2 8.25027 2 12 2C15.7497 2 17.6246 2 18.9389 2.95491C19.3634 3.26331 19.7367 3.6366 20.0451 4.06107C21 5.3754 21 7.25027 21 11V13C21 13.8389 21 14.584 20.9893 15.25L20.9192 15.25C20.0672 15.2499 19.5482 15.2499 19.1005 15.3208C16.6401 15.7105 14.7105 17.6401 14.3208 20.1005C14.2499 20.5482 14.2499 21.0672 14.25 21.9192L14.25 21.9893C13.584 22 12.8389 22 12 22C8.25027 22 6.3754 22 5.06107 21.0451C4.6366 20.7367 4.26331 20.3634 3.95491 19.9389C3 18.6246 3 16.7497 3 13V11ZM8 7.25C7.58579 7.25 7.25 7.58579 7.25 8C7.25 8.41421 7.58579 8.75 8 8.75H11C11.4142 8.75 11.75 8.41421 11.75 8C11.75 7.58579 11.4142 7.25 11 7.25H8ZM8 11.25C7.58579 11.25 7.25 11.5858 7.25 12C7.25 12.4142 7.58579 12.75 8 12.75H16C16.4142 12.75 16.75 12.4142 16.75 12C16.75 11.5858 16.4142 11.25 16 11.25H8ZM8 15.25C7.58579 15.25 7.25 15.5858 7.25 16C7.25 16.4142 7.58579 16.75 8 16.75H11C11.4142 16.75 11.75 16.4142 11.75 16C11.75 15.5858 11.4142 15.25 11 15.25H8Z" fill="#2D264B"/>
<path d="M19.3352 16.8023C19.6435 16.7535 20.0243 16.7501 20.9347 16.75C20.8403 18.1896 20.6094 19.1622 20.0451 19.9389C19.7367 20.3634 19.3634 20.7367 18.9389 21.0451C18.1622 21.6094 17.1896 21.8403 15.75 21.9347C15.7501 21.0243 15.7535 20.6435 15.8023 20.3352C16.0904 18.5166 17.5166 17.0904 19.3352 16.8023Z" fill="#2D264B"/>
</svg>
