<svg xmlns="http://www.w3.org/2000/svg" width="24" height="24" viewBox="0 0 24 24">
  <defs/>
  <path fill="#2D264B" d="M3.955,4.061 C4.263,3.637 4.637,3.263 5.061,2.955 C6.375,2 8.25,2 12,2 C15.75,2 17.625,2 18.939,2.955 C19.363,3.263 19.737,3.637 20.045,4.061 C21,5.375 21,7.25 21,11 L21,13 C21,16.75 21,18.625 20.045,19.939 C19.737,20.363 19.363,20.737 18.939,21.045 C17.625,22 15.75,22 12,22 C8.25,22 6.375,22 5.061,21.045 C4.637,20.737 4.263,20.363 3.955,19.939 C3,18.625 3,16.75 3,13 L3,11 C3,7.25 3,5.375 3.955,4.061 Z M8,7.25 C7.586,7.25 7.25,7.586 7.25,8 C7.25,8.414 7.586,8.75 8,8.75 L16,8.75 C16.414,8.75 16.75,8.414 16.75,8 C16.75,7.586 16.414,7.25 16,7.25 Z M8,11.25 C7.586,11.25 7.25,11.586 7.25,12 C7.25,12.414 7.586,12.75 8,12.75 L16,12.75 C16.414,12.75 16.75,12.414 16.75,12 C16.75,11.586 16.414,11.25 16,11.25 Z M8,15.25 C7.586,15.25 7.25,15.586 7.25,16 C7.25,16.414 7.586,16.75 8,16.75 L16,16.75 C16.414,16.75 16.75,16.414 16.75,16 C16.75,15.586 16.414,15.25 16,15.25 Z"/>
</svg>

