<svg xmlns="http://www.w3.org/2000/svg" width="24" height="24" viewBox="0 0 24 24">
  <defs/>
  <path fill="#2D264B" d="M8,15.25 C7.586,15.25 7.25,15.586 7.25,16 C7.25,16.414 7.586,16.75 8,16.75 L8,15.25 Z M16,16.75 C16.414,16.75 16.75,16.414 16.75,16 C16.75,15.586 16.414,15.25 16,15.25 L16,16.75 Z M8,11.25 C7.586,11.25 7.25,11.586 7.25,12 C7.25,12.414 7.586,12.75 8,12.75 L8,11.25 Z M16,12.75 C16.414,12.75 16.75,12.414 16.75,12 C16.75,11.586 16.414,11.25 16,11.25 L16,12.75 Z M13,7.25 C12.586,7.25 12.25,7.586 12.25,8 C12.25,8.414 12.586,8.75 13,8.75 L13,7.25 Z M16,8.75 C16.414,8.75 16.75,8.414 16.75,8 C16.75,7.586 16.414,7.25 16,7.25 L16,8.75 Z M20.25,11 L20.25,13 L21.75,13 L21.75,11 L20.25,11 Z M3.75,13 L3.75,11 L2.25,11 L2.25,13 L3.75,13 Z M12,21.25 C10.108,21.25 8.75,21.249 7.698,21.135 C6.66,21.023 6.01,20.807 5.502,20.438 L4.62,21.652 C5.427,22.238 6.371,22.5 7.536,22.626 C8.688,22.751 10.142,22.75 12,22.75 L12,21.25 Z M2.25,13 C2.25,14.858 2.249,16.312 2.374,17.463 C2.5,18.629 2.762,19.573 3.348,20.38 L4.562,19.498 C4.193,18.99 3.977,18.34 3.865,17.302 C3.751,16.25 3.75,14.892 3.75,13 L2.25,13 Z M5.502,20.438 C5.141,20.176 4.824,19.859 4.562,19.498 L3.348,20.38 C3.703,20.868 4.132,21.297 4.62,21.652 L5.502,20.438 Z M20.25,13 C20.25,14.892 20.249,16.25 20.135,17.302 C20.023,18.34 19.807,18.99 19.438,19.498 L20.652,20.38 C21.238,19.573 21.5,18.629 21.626,17.463 C21.751,16.312 21.75,14.858 21.75,13 L20.25,13 Z M12,22.75 C13.858,22.75 15.312,22.751 16.463,22.626 C17.629,22.5 18.573,22.238 19.38,21.652 L18.498,20.438 C17.99,20.807 17.34,21.023 16.302,21.135 C15.25,21.249 13.892,21.25 12,21.25 L12,22.75 Z M19.438,19.498 C19.176,19.859 18.859,20.176 18.498,20.438 L19.38,21.652 C19.868,21.297 20.297,20.868 20.652,20.38 L19.438,19.498 Z M12,2.75 C13.892,2.75 15.25,2.751 16.302,2.865 C17.34,2.977 17.99,3.193 18.498,3.562 L19.38,2.348 C18.573,1.762 17.629,1.5 16.463,1.374 C15.312,1.249 13.858,1.25 12,1.25 L12,2.75 Z M21.75,11 C21.75,9.142 21.751,7.688 21.626,6.536 C21.5,5.371 21.238,4.427 20.652,3.62 L19.438,4.502 C19.807,5.01 20.023,5.66 20.135,6.698 C20.249,7.75 20.25,9.108 20.25,11 L21.75,11 Z M18.498,3.562 C18.859,3.824 19.176,4.141 19.438,4.502 L20.652,3.62 C20.297,3.132 19.868,2.703 19.38,2.348 L18.498,3.562 Z M12,1.25 C10.142,1.25 8.688,1.249 7.536,1.374 C6.371,1.5 5.427,1.762 4.62,2.348 L5.502,3.562 C6.01,3.193 6.66,2.977 7.698,2.865 C8.75,2.751 10.108,2.75 12,2.75 L12,1.25 Z M3.75,11 C3.75,9.108 3.751,7.75 3.865,6.698 C3.977,5.66 4.193,5.01 4.562,4.502 L3.348,3.62 C2.762,4.427 2.5,5.371 2.374,6.536 C2.249,7.688 2.25,9.142 2.25,11 L3.75,11 Z M4.62,2.348 C4.132,2.703 3.703,3.132 3.348,3.62 L4.562,4.502 C4.824,4.141 5.141,3.824 5.502,3.562 L4.62,2.348 Z M8,16.75 L16,16.75 L16,15.25 L8,15.25 L8,16.75 Z M8,12.75 L16,12.75 L16,11.25 L8,11.25 L8,12.75 Z M13,8.75 L16,8.75 L16,7.25 L13,7.25 L13,8.75 Z"/>
</svg>

