<svg width="24" height="24" viewBox="0 0 24 24" fill="none" xmlns="http://www.w3.org/2000/svg">
<path fill-rule="evenodd" clip-rule="evenodd" d="M21 12C21 8.25027 21 6.3754 20.0451 5.06107C19.7367 4.6366 19.3634 4.26331 18.9389 3.95491C17.6246 3 15.7497 3 12 3C11.1611 3 10.416 3 9.75 3.01069L9.75 3.08082C9.75007 3.93284 9.75011 4.45182 9.67921 4.8995C9.28952 7.35988 7.35988 9.28952 4.8995 9.67921C4.45182 9.75011 3.93284 9.75007 3.08082 9.75L3.01069 9.75C3 10.416 3 11.1611 3 12C3 15.7497 3 17.6246 3.95491 18.9389C4.26331 19.3634 4.6366 19.7367 5.06107 20.0451C6.3754 21 8.25027 21 12 21C15.7497 21 17.6246 21 18.9389 20.0451C19.3634 19.7367 19.7367 19.3634 20.0451 18.9389C21 17.6246 21 15.7497 21 12ZM13 7.25C12.5858 7.25 12.25 7.58579 12.25 8C12.25 8.41421 12.5858 8.75 13 8.75H16C16.4142 8.75 16.75 8.41421 16.75 8C16.75 7.58579 16.4142 7.25 16 7.25H13ZM8 11.25C7.58579 11.25 7.25 11.5858 7.25 12C7.25 12.4142 7.58579 12.75 8 12.75H16C16.4142 12.75 16.75 12.4142 16.75 12C16.75 11.5858 16.4142 11.25 16 11.25H8ZM13 15.25C12.5858 15.25 12.25 15.5858 12.25 16C12.25 16.4142 12.5858 16.75 13 16.75H16C16.4142 16.75 16.75 16.4142 16.75 16C16.75 15.5858 16.4142 15.25 16 15.25H13Z" fill="#2D264B"/>
<path d="M8.19768 4.66485C8.24652 4.35646 8.24987 3.97568 8.25 3.06534C6.81037 3.15974 5.83783 3.39057 5.06107 3.95491C4.6366 4.26331 4.26331 4.6366 3.95491 5.06107C3.39057 5.83783 3.15974 6.81037 3.06534 8.25C3.97568 8.24987 4.35646 8.24652 4.66485 8.19768C6.48339 7.90965 7.90965 6.48339 8.19768 4.66485Z" fill="#2D264B"/>
</svg>
