<svg xmlns="http://www.w3.org/2000/svg" width="24" height="24" viewBox="0 0 24 24">
  <defs/>
  <path fill="#2D264B" d="M12.25,17 C12.25,17.414 12.586,17.75 13,17.75 C13.414,17.75 13.75,17.414 13.75,17 L12.25,17 Z M8.467,11.672 C8.176,11.966 8.178,12.441 8.472,12.733 C8.766,13.024 9.241,13.022 9.533,12.728 L8.467,11.672 Z M16.467,12.728 C16.759,13.022 17.234,13.024 17.528,12.733 C17.822,12.441 17.824,11.966 17.533,11.672 L16.467,12.728 Z M4.899,9.679 C7.36,9.29 9.29,7.36 9.679,4.899 L8.198,4.665 C7.91,6.483 6.483,7.91 4.665,8.198 L4.899,9.679 Z M12,21.75 C13.858,21.75 15.312,21.751 16.463,21.626 C17.629,21.5 18.573,21.238 19.38,20.652 L18.498,19.438 C17.99,19.807 17.34,20.023 16.302,20.135 C15.25,20.249 13.892,20.25 12,20.25 L12,21.75 Z M20.25,12 C20.25,13.892 20.249,15.25 20.135,16.302 C20.023,17.34 19.807,17.99 19.438,18.498 L20.652,19.38 C21.238,18.573 21.5,17.629 21.626,16.463 C21.751,15.312 21.75,13.858 21.75,12 L20.25,12 Z M19.38,20.652 C19.868,20.297 20.297,19.868 20.652,19.38 L19.438,18.498 C19.176,18.859 18.859,19.176 18.498,19.438 L19.38,20.652 Z M2.25,12 C2.25,13.858 2.249,15.312 2.374,16.463 C2.5,17.629 2.762,18.573 3.348,19.38 L4.562,18.498 C4.193,17.99 3.977,17.34 3.865,16.302 C3.751,15.25 3.75,13.892 3.75,12 L2.25,12 Z M12,20.25 C10.108,20.25 8.75,20.249 7.698,20.135 C6.66,20.023 6.01,19.807 5.502,19.438 L4.62,20.652 C5.427,21.238 6.371,21.5 7.536,21.626 C8.688,21.751 10.142,21.75 12,21.75 L12,20.25 Z M3.348,19.38 C3.703,19.868 4.132,20.297 4.62,20.652 L5.502,19.438 C5.141,19.176 4.824,18.859 4.562,18.498 L3.348,19.38 Z M4.62,3.348 C4.132,3.703 3.703,4.132 3.348,4.62 L4.562,5.502 C4.824,5.141 5.141,4.824 5.502,4.562 L4.62,3.348 Z M12,3.75 C13.892,3.75 15.25,3.751 16.302,3.865 C17.34,3.977 17.99,4.193 18.498,4.562 L19.38,3.348 C18.573,2.762 17.629,2.5 16.463,2.374 C15.312,2.249 13.858,2.25 12,2.25 L12,3.75 Z M21.75,12 C21.75,10.142 21.751,8.688 21.626,7.536 C21.5,6.371 21.238,5.427 20.652,4.62 L19.438,5.502 C19.807,6.01 20.023,6.66 20.135,7.698 C20.249,8.75 20.25,10.108 20.25,12 L21.75,12 Z M18.498,4.562 C18.859,4.824 19.176,5.141 19.438,5.502 L20.652,4.62 C20.297,4.132 19.868,3.703 19.38,3.348 L18.498,4.562 Z M12,2.25 C10.835,2.25 9.834,2.25 8.974,2.279 L9.026,3.778 C9.854,3.75 10.827,3.75 12,3.75 L12,2.25 Z M8.974,2.279 C7.101,2.344 5.724,2.546 4.62,3.348 L5.502,4.562 C6.207,4.049 7.171,3.842 9.026,3.778 L8.974,2.279 Z M8.25,3.029 C8.25,3.966 8.247,4.353 8.198,4.665 L9.679,4.899 C9.752,4.442 9.75,3.911 9.75,3.029 L8.25,3.029 Z M3.75,12 C3.75,10.827 3.75,9.854 3.778,9.026 L2.279,8.974 C2.25,9.834 2.25,10.835 2.25,12 L3.75,12 Z M3.778,9.026 C3.842,7.171 4.049,6.207 4.562,5.502 L3.348,4.62 C2.546,5.724 2.344,7.101 2.279,8.974 L3.778,9.026 Z M3.029,9.75 C3.911,9.75 4.442,9.752 4.899,9.679 L4.665,8.198 C4.353,8.247 3.966,8.25 3.029,8.25 L3.029,9.75 Z M13.75,17 L13.75,9.8 L12.25,9.8 L12.25,17 L13.75,17 Z M9.533,12.728 L10.931,11.318 L9.865,10.262 L8.467,11.672 L9.533,12.728 Z M15.069,11.318 L16.467,12.728 L17.533,11.672 L16.135,10.262 L15.069,11.318 Z M10.931,11.318 C11.5,10.743 11.884,10.357 12.207,10.098 C12.517,9.849 12.698,9.779 12.844,9.76 L12.655,8.272 C12.121,8.34 11.684,8.594 11.267,8.929 C10.863,9.254 10.41,9.712 9.865,10.262 L10.931,11.318 Z M16.135,10.262 C15.59,9.712 15.137,9.254 14.733,8.929 C14.316,8.594 13.879,8.34 13.345,8.272 L13.156,9.76 C13.302,9.779 13.483,9.849 13.793,10.098 C14.116,10.357 14.5,10.743 15.069,11.318 L16.135,10.262 Z M12.844,9.76 C12.896,9.753 12.948,9.75 13,9.75 L13,8.25 C12.885,8.25 12.769,8.257 12.655,8.272 L12.844,9.76 Z M13,9.75 C13.052,9.75 13.104,9.753 13.156,9.76 L13.345,8.272 C13.231,8.257 13.115,8.25 13,8.25 L13,9.75 Z M13.75,9.8 L13.75,9 L12.25,9 L12.25,9.8 L13.75,9.8 Z"/>
</svg>

