<svg xmlns="http://www.w3.org/2000/svg" width="24" height="24" viewBox="0 0 24 24">
  <defs/>
  <path fill="#2D264B" d="M8,12.25 C7.586,12.25 7.25,12.586 7.25,13 C7.25,13.414 7.586,13.75 8,13.75 L8,12.25 Z M14,13.75 C14.414,13.75 14.75,13.414 14.75,13 C14.75,12.586 14.414,12.25 14,12.25 L14,13.75 Z M10.25,16 C10.25,16.414 10.586,16.75 11,16.75 C11.414,16.75 11.75,16.414 11.75,16 L10.25,16 Z M11.75,10 C11.75,9.586 11.414,9.25 11,9.25 C10.586,9.25 10.25,9.586 10.25,10 L11.75,10 Z M19.335,8.198 C17.517,7.91 16.09,6.483 15.802,4.665 L14.321,4.899 C14.71,7.36 16.64,9.29 19.101,9.679 L19.335,8.198 Z M12,20.25 C10.108,20.25 8.75,20.249 7.698,20.135 C6.66,20.023 6.01,19.807 5.502,19.438 L4.62,20.652 C5.427,21.238 6.371,21.5 7.536,21.626 C8.688,21.751 10.142,21.75 12,21.75 L12,20.25 Z M2.25,12 C2.25,13.858 2.249,15.312 2.374,16.463 C2.5,17.629 2.762,18.573 3.348,19.38 L4.562,18.498 C4.193,17.99 3.977,17.34 3.865,16.302 C3.751,15.25 3.75,13.892 3.75,12 L2.25,12 Z M5.502,19.438 C5.141,19.176 4.824,18.859 4.562,18.498 L3.348,19.38 C3.703,19.868 4.132,20.297 4.62,20.652 L5.502,19.438 Z M20.25,12 C20.25,13.892 20.249,15.25 20.135,16.302 C20.023,17.34 19.807,17.99 19.438,18.498 L20.652,19.38 C21.238,18.573 21.5,17.629 21.626,16.463 C21.751,15.312 21.75,13.858 21.75,12 L20.25,12 Z M12,21.75 C13.858,21.75 15.312,21.751 16.463,21.626 C17.629,21.5 18.573,21.238 19.38,20.652 L18.498,19.438 C17.99,19.807 17.34,20.023 16.302,20.135 C15.25,20.249 13.892,20.25 12,20.25 L12,21.75 Z M19.438,18.498 C19.176,18.859 18.859,19.176 18.498,19.438 L19.38,20.652 C19.868,20.297 20.297,19.868 20.652,19.38 L19.438,18.498 Z M18.498,4.562 C18.859,4.824 19.176,5.141 19.438,5.502 L20.652,4.62 C20.297,4.132 19.868,3.703 19.38,3.348 L18.498,4.562 Z M12,2.25 C10.142,2.25 8.688,2.249 7.536,2.374 C6.371,2.5 5.427,2.762 4.62,3.348 L5.502,4.562 C6.01,4.193 6.66,3.977 7.698,3.865 C8.75,3.751 10.108,3.75 12,3.75 L12,2.25 Z M3.75,12 C3.75,10.108 3.751,8.75 3.865,7.698 C3.977,6.66 4.193,6.01 4.562,5.502 L3.348,4.62 C2.762,5.427 2.5,6.371 2.374,7.536 C2.249,8.688 2.25,10.142 2.25,12 L3.75,12 Z M4.62,3.348 C4.132,3.703 3.703,4.132 3.348,4.62 L4.562,5.502 C4.824,5.141 5.141,4.824 5.502,4.562 L4.62,3.348 Z M12,3.75 C13.173,3.75 14.146,3.75 14.974,3.778 L15.026,2.279 C14.166,2.25 13.165,2.25 12,2.25 L12,3.75 Z M14.974,3.778 C16.829,3.842 17.793,4.049 18.498,4.562 L19.38,3.348 C18.276,2.546 16.899,2.344 15.026,2.279 L14.974,3.778 Z M14.25,3.029 C14.25,3.911 14.248,4.442 14.321,4.899 L15.802,4.665 C15.753,4.353 15.75,3.966 15.75,3.029 L14.25,3.029 Z M21.75,12 C21.75,10.835 21.75,9.834 21.721,8.974 L20.221,9.026 C20.25,9.854 20.25,10.827 20.25,12 L21.75,12 Z M21.721,8.974 C21.656,7.101 21.454,5.724 20.652,4.62 L19.438,5.502 C19.951,6.207 20.158,7.171 20.221,9.026 L21.721,8.974 Z M20.971,8.25 C20.034,8.25 19.647,8.247 19.335,8.198 L19.101,9.679 C19.558,9.752 20.089,9.75 20.971,9.75 L20.971,8.25 Z M8,13.75 L14,13.75 L14,12.25 L8,12.25 L8,13.75 Z M11.75,16 L11.75,10 L10.25,10 L10.25,16 L11.75,16 Z"/>
</svg>

