<svg width="24" height="24" viewBox="0 0 24 24" fill="none" xmlns="http://www.w3.org/2000/svg">
<path d="M11.0473 6.99343C11.1139 6.95499 11.1816 6.92044 11.2501 6.88969L11.2501 10.92C9.62302 10.2015 9.4706 7.90376 11.0473 6.99343Z" fill="#2D264B"/>
<path d="M12.7501 17.1103L12.7501 13.08C14.3772 13.7984 14.5296 16.0962 12.9529 17.0066C12.8863 17.045 12.8186 17.0796 12.7501 17.1103Z" fill="#2D264B"/>
<path fill-rule="evenodd" clip-rule="evenodd" d="M11.9548 2.25H12.0452C13.8818 2.24999 15.3214 2.24999 16.4635 2.37373C17.6291 2.50001 18.5734 2.76232 19.3798 3.34815C19.8679 3.70281 20.2972 4.13209 20.6518 4.62024C21.2377 5.42656 21.5 6.37094 21.6263 7.53648C21.75 8.67859 21.75 10.1182 21.75 11.9547V12.0453C21.75 13.8818 21.75 15.3214 21.6263 16.4635C21.5 17.6291 21.2377 18.5734 20.6518 19.3798C20.2972 19.8679 19.8679 20.2972 19.3798 20.6518C18.5734 21.2377 17.6291 21.5 16.4635 21.6263C15.3214 21.75 13.8818 21.75 12.0453 21.75H11.9547C10.1182 21.75 8.67859 21.75 7.53648 21.6263C6.37094 21.5 5.42656 21.2377 4.62024 20.6518C4.13209 20.2972 3.70281 19.8679 3.34815 19.3798C2.76232 18.5734 2.50001 17.6291 2.37373 16.4635C2.24999 15.3214 2.24999 13.8818 2.25 12.0452V11.9548C2.24999 10.1182 2.24999 8.67861 2.37373 7.53648C2.50001 6.37094 2.76232 5.42656 3.34815 4.62024C3.70281 4.13209 4.13209 3.70281 4.62024 3.34815C5.42656 2.76232 6.37094 2.50001 7.53648 2.37373C8.67861 2.24999 10.1182 2.24999 11.9548 2.25ZM12.7501 5C12.7501 4.58579 12.4143 4.25 12.0001 4.25C11.5858 4.25 11.2501 4.58579 11.2501 5V5.30807C10.9233 5.39005 10.6026 5.51813 10.2973 5.69439C7.57547 7.26586 7.92142 11.2989 10.8712 12.3839L11.2501 12.5233L11.2501 17.2195C10.7152 17.0686 10.2373 16.717 9.93805 16.1988L9.56248 15.5483C9.35538 15.1895 8.89668 15.0666 8.53796 15.2737C8.17924 15.4808 8.05634 15.9395 8.26344 16.2983L8.63901 16.9488C9.21748 17.9507 10.1927 18.5796 11.2501 18.7535L11.2501 19C11.2501 19.4142 11.5858 19.75 12 19.75C12.4143 19.75 12.7501 19.4142 12.7501 19L12.7501 18.692C13.0769 18.61 13.3975 18.4819 13.7029 18.3056C16.4247 16.7341 16.0788 12.7011 13.1291 11.6161L12.7501 11.4767L12.7501 6.78053C13.285 6.93138 13.7629 7.28298 14.0622 7.80125L14.4377 8.45175C14.6448 8.81047 15.1035 8.93337 15.4622 8.72626C15.821 8.51916 15.9439 8.06047 15.7368 7.70175L15.3612 7.05125C14.7827 6.04928 13.8074 5.42033 12.7501 5.2465V5Z" fill="#2D264B"/>
</svg>
