<svg xmlns="http://www.w3.org/2000/svg" width="24" height="24" viewBox="0 0 24 24">
  <defs/>
  <path fill="#2D264B" d="M11.25,19 C11.25,19.414 11.586,19.75 12,19.75 C12.414,19.75 12.75,19.414 12.75,19 L11.25,19 Z M12.75,5 C12.75,4.586 12.414,4.25 12,4.25 C11.586,4.25 11.25,4.586 11.25,5 L12.75,5 Z M14.438,8.452 C14.645,8.81 15.104,8.933 15.462,8.726 C15.821,8.519 15.944,8.06 15.737,7.702 L14.438,8.452 Z M9.562,15.548 C9.355,15.19 8.897,15.067 8.538,15.274 C8.179,15.481 8.056,15.94 8.263,16.298 L9.562,15.548 Z M21.25,12 C21.25,17.109 17.109,21.25 12,21.25 L12,22.75 C17.937,22.75 22.75,17.937 22.75,12 L21.25,12 Z M12,21.25 C6.891,21.25 2.75,17.109 2.75,12 L1.25,12 C1.25,17.937 6.063,22.75 12,22.75 L12,21.25 Z M2.75,12 C2.75,6.891 6.891,2.75 12,2.75 L12,1.25 C6.063,1.25 1.25,6.063 1.25,12 L2.75,12 Z M12,2.75 C17.109,2.75 21.25,6.891 21.25,12 L22.75,12 C22.75,6.063 17.937,1.25 12,1.25 L12,2.75 Z M15.737,7.702 L15.361,7.051 L14.062,7.801 L14.438,8.452 L15.737,7.702 Z M9.938,16.199 L9.562,15.548 L8.263,16.298 L8.639,16.949 L9.938,16.199 Z M12.611,13.024 C14.367,13.67 14.573,16.071 12.953,17.007 L13.703,18.306 C16.425,16.734 16.079,12.701 13.129,11.616 L12.611,13.024 Z M10.297,5.694 C7.575,7.266 7.921,11.299 10.871,12.384 L11.389,10.976 C9.633,10.33 9.427,7.929 11.047,6.993 L10.297,5.694 Z M12.75,19 L12.75,18.049 L11.25,18.049 L11.25,19 L12.75,19 Z M12.75,18.049 L12.75,12 L11.25,12 L11.25,18.049 L12.75,18.049 Z M12.953,17.007 C12.638,17.188 12.3,17.283 11.962,17.3 L12.038,18.798 C12.607,18.77 13.178,18.609 13.703,18.306 L12.953,17.007 Z M11.962,17.3 C11.159,17.34 10.366,16.94 9.938,16.199 L8.639,16.949 C9.359,18.196 10.694,18.866 12.038,18.798 L11.962,17.3 Z M10.871,12.384 L11.741,12.704 L12.259,11.296 L11.389,10.976 L10.871,12.384 Z M11.741,12.704 L12.611,13.024 L13.129,11.616 L12.259,11.296 L11.741,12.704 Z M12.75,12 L12.75,5.951 L11.25,5.951 L11.25,12 L12.75,12 Z M12.75,5.951 L12.75,5 L11.25,5 L11.25,5.951 L12.75,5.951 Z M15.361,7.051 C14.641,5.804 13.306,5.134 11.962,5.202 L12.038,6.7 C12.841,6.66 13.634,7.06 14.062,7.801 L15.361,7.051 Z M11.962,5.202 C11.393,5.231 10.823,5.391 10.297,5.694 L11.047,6.993 C11.362,6.812 11.7,6.717 12.038,6.7 L11.962,5.202 Z"/>
</svg>

