<svg width="24" height="24" viewBox="0 0 24 24" fill="none" xmlns="http://www.w3.org/2000/svg">
<path d="M11.0473 6.99343C11.1139 6.95501 11.1815 6.92046 11.25 6.88972V10.9199C9.62301 10.2014 9.47063 7.90374 11.0473 6.99343Z" fill="#2D264B"/>
<path d="M12.75 17.1104V13.08C14.3772 13.7984 14.5296 16.0962 12.9529 17.0066C12.8862 17.045 12.8185 17.0796 12.75 17.1104Z" fill="#2D264B"/>
<path fill-rule="evenodd" clip-rule="evenodd" d="M1.25 12C1.25 6.06294 6.06294 1.25 12 1.25C17.9371 1.25 22.75 6.06294 22.75 12C22.75 17.9371 17.9371 22.75 12 22.75C6.06294 22.75 1.25 17.9371 1.25 12ZM12.75 5C12.75 4.58579 12.4142 4.25 12 4.25C11.5858 4.25 11.25 4.58579 11.25 5V5.30809C10.9232 5.39007 10.6026 5.51814 10.2973 5.6944C7.57547 7.26586 7.92142 11.2989 10.8712 12.3839L11.25 12.5232V17.2194C10.7151 17.0686 10.2372 16.717 9.93805 16.1988L9.56248 15.5483C9.35538 15.1895 8.89668 15.0666 8.53796 15.2737C8.17924 15.4808 8.05634 15.9395 8.26344 16.2983L8.63901 16.9488C9.21747 17.9507 10.1927 18.5796 11.25 18.7535V19C11.25 19.4142 11.5858 19.75 12 19.75C12.4142 19.75 12.75 19.4142 12.75 19V18.692C13.0768 18.61 13.3975 18.4819 13.7029 18.3056C16.4247 16.7341 16.0788 12.7011 13.1291 11.6161L12.75 11.4767V6.78051C13.285 6.93135 13.7629 7.28296 14.0622 7.80125L14.4377 8.45175C14.6448 8.81047 15.1035 8.93338 15.4622 8.72627C15.821 8.51916 15.9439 8.06047 15.7368 7.70175L15.3612 7.05125C14.7827 6.04927 13.8074 5.42031 12.75 5.24649V5Z" fill="#2D264B"/>
</svg>
