<svg xmlns="http://www.w3.org/2000/svg" width="24" height="24" viewBox="0 0 24 24">
  <defs/>
  <path fill="#2D264B" d="M11.25,19 C11.25,19.414 11.586,19.75 12,19.75 C12.414,19.75 12.75,19.414 12.75,19 L11.25,19 Z M12.75,5 C12.75,4.586 12.414,4.25 12,4.25 C11.586,4.25 11.25,4.586 11.25,5 L12.75,5 Z M14.438,8.452 C14.645,8.81 15.104,8.933 15.462,8.726 C15.821,8.519 15.944,8.06 15.737,7.702 L14.438,8.452 Z M9.562,15.548 C9.355,15.19 8.897,15.067 8.538,15.274 C8.179,15.481 8.056,15.94 8.263,16.298 L9.562,15.548 Z M15.737,7.702 L15.361,7.051 L14.062,7.801 L14.438,8.452 L15.737,7.702 Z M9.938,16.199 L9.562,15.548 L8.263,16.298 L8.639,16.949 L9.938,16.199 Z M12.611,13.024 C14.367,13.67 14.573,16.071 12.953,17.007 L13.703,18.306 C16.425,16.734 16.079,12.701 13.129,11.616 L12.611,13.024 Z M10.297,5.694 C7.575,7.266 7.921,11.299 10.871,12.384 L11.389,10.976 C9.633,10.33 9.427,7.929 11.047,6.993 L10.297,5.694 Z M12,20.25 C10.108,20.25 8.75,20.249 7.698,20.135 C6.66,20.023 6.01,19.807 5.502,19.438 L4.62,20.652 C5.427,21.238 6.371,21.5 7.536,21.626 C8.688,21.751 10.142,21.75 12,21.75 L12,20.25 Z M2.25,12 C2.25,13.858 2.249,15.312 2.374,16.463 C2.5,17.629 2.762,18.573 3.348,19.38 L4.562,18.498 C4.193,17.99 3.977,17.34 3.865,16.302 C3.751,15.25 3.75,13.892 3.75,12 L2.25,12 Z M5.502,19.438 C5.141,19.176 4.824,18.859 4.562,18.498 L3.348,19.38 C3.703,19.868 4.132,20.297 4.62,20.652 L5.502,19.438 Z M20.25,12 C20.25,13.892 20.249,15.25 20.135,16.302 C20.023,17.34 19.807,17.99 19.438,18.498 L20.652,19.38 C21.238,18.573 21.5,17.629 21.626,16.463 C21.751,15.312 21.75,13.858 21.75,12 L20.25,12 Z M12,21.75 C13.858,21.75 15.312,21.751 16.463,21.626 C17.629,21.5 18.573,21.238 19.38,20.652 L18.498,19.438 C17.99,19.807 17.34,20.023 16.302,20.135 C15.25,20.249 13.892,20.25 12,20.25 L12,21.75 Z M19.438,18.498 C19.176,18.859 18.859,19.176 18.498,19.438 L19.38,20.652 C19.868,20.297 20.297,19.868 20.652,19.38 L19.438,18.498 Z M12,3.75 C13.892,3.75 15.25,3.751 16.302,3.865 C17.34,3.977 17.99,4.193 18.498,4.562 L19.38,3.348 C18.573,2.762 17.629,2.5 16.463,2.374 C15.312,2.249 13.858,2.25 12,2.25 L12,3.75 Z M21.75,12 C21.75,10.142 21.751,8.688 21.626,7.536 C21.5,6.371 21.238,5.427 20.652,4.62 L19.438,5.502 C19.807,6.01 20.023,6.66 20.135,7.698 C20.249,8.75 20.25,10.108 20.25,12 L21.75,12 Z M18.498,4.562 C18.859,4.824 19.176,5.141 19.438,5.502 L20.652,4.62 C20.297,4.132 19.868,3.703 19.38,3.348 L18.498,4.562 Z M12,2.25 C10.142,2.25 8.688,2.249 7.536,2.374 C6.371,2.5 5.427,2.762 4.62,3.348 L5.502,4.562 C6.01,4.193 6.66,3.977 7.698,3.865 C8.75,3.751 10.108,3.75 12,3.75 L12,2.25 Z M3.75,12 C3.75,10.108 3.751,8.75 3.865,7.698 C3.977,6.66 4.193,6.01 4.562,5.502 L3.348,4.62 C2.762,5.427 2.5,6.371 2.374,7.536 C2.249,8.688 2.25,10.142 2.25,12 L3.75,12 Z M4.62,3.348 C4.132,3.703 3.703,4.132 3.348,4.62 L4.562,5.502 C4.824,5.141 5.141,4.824 5.502,4.562 L4.62,3.348 Z M15.361,7.051 C14.641,5.804 13.306,5.134 11.962,5.202 L12.038,6.7 C12.841,6.66 13.634,7.06 14.062,7.801 L15.361,7.051 Z M11.962,5.202 C11.393,5.231 10.822,5.391 10.297,5.694 L11.047,6.993 C11.362,6.812 11.7,6.717 12.038,6.7 L11.962,5.202 Z M12.75,5.951 L12.75,5 L11.25,5 L11.25,5.951 L12.75,5.951 Z M12.75,12 L12.75,5.951 L11.25,5.951 L11.25,12 L12.75,12 Z M10.871,12.384 L11.741,12.704 L12.259,11.296 L11.389,10.976 L10.871,12.384 Z M11.741,12.704 L12.611,13.024 L13.129,11.616 L12.259,11.296 L11.741,12.704 Z M12.75,19 L12.75,18.049 L11.25,18.049 L11.25,19 L12.75,19 Z M12.75,18.049 L12.75,12 L11.25,12 L11.25,18.049 L12.75,18.049 Z M12.953,17.007 C12.638,17.188 12.3,17.283 11.962,17.3 L12.038,18.798 C12.607,18.77 13.178,18.609 13.703,18.306 L12.953,17.007 Z M11.962,17.3 C11.159,17.34 10.366,16.94 9.938,16.199 L8.639,16.949 C9.359,18.196 10.694,18.866 12.038,18.798 L11.962,17.3 Z"/>
</svg>

