<svg xmlns="http://www.w3.org/2000/svg" width="24" height="24" viewBox="0 0 24 24">
  <defs/>
  <path fill="#2D264B" d="M11.047,6.993 C11.114,6.955 11.182,6.92 11.25,6.89 L11.25,10.92 C9.623,10.201 9.471,7.904 11.047,6.993 Z"/>
  <path fill="#2D264B" d="M12.75,17.11 L12.75,13.08 C14.377,13.798 14.53,16.096 12.953,17.007 C12.886,17.045 12.819,17.08 12.75,17.11 Z"/>
  <path fill="#2D264B" d="M11.955,2.25 L12.045,2.25 C13.882,2.25 15.321,2.25 16.463,2.374 C17.629,2.5 18.573,2.762 19.38,3.348 C19.868,3.703 20.297,4.132 20.652,4.62 C21.238,5.427 21.5,6.371 21.626,7.536 C21.75,8.679 21.75,10.118 21.75,11.955 L21.75,12.045 C21.75,13.882 21.75,15.321 21.626,16.463 C21.5,17.629 21.238,18.573 20.652,19.38 C20.297,19.868 19.868,20.297 19.38,20.652 C18.573,21.238 17.629,21.5 16.463,21.626 C15.321,21.75 13.882,21.75 12.045,21.75 L11.955,21.75 C10.118,21.75 8.679,21.75 7.536,21.626 C6.371,21.5 5.427,21.238 4.62,20.652 C4.132,20.297 3.703,19.868 3.348,19.38 C2.762,18.573 2.5,17.629 2.374,16.463 C2.25,15.321 2.25,13.882 2.25,12.045 L2.25,11.955 C2.25,10.118 2.25,8.679 2.374,7.536 C2.5,6.371 2.762,5.427 3.348,4.62 C3.703,4.132 4.132,3.703 4.62,3.348 C5.427,2.762 6.371,2.5 7.536,2.374 C8.679,2.25 10.118,2.25 11.955,2.25 Z M12.75,5 C12.75,4.586 12.414,4.25 12,4.25 C11.586,4.25 11.25,4.586 11.25,5 L11.25,5.308 C10.923,5.39 10.603,5.518 10.297,5.694 C7.575,7.266 7.921,11.299 10.871,12.384 L11.25,12.523 L11.25,17.219 C10.715,17.069 10.237,16.717 9.938,16.199 L9.562,15.548 C9.355,15.189 8.897,15.067 8.538,15.274 C8.179,15.481 8.056,15.939 8.263,16.298 L8.639,16.949 C9.217,17.951 10.193,18.58 11.25,18.753 L11.25,19 C11.25,19.414 11.586,19.75 12,19.75 C12.414,19.75 12.75,19.414 12.75,19 L12.75,18.692 C13.077,18.61 13.398,18.482 13.703,18.306 C16.425,16.734 16.079,12.701 13.129,11.616 L12.75,11.477 L12.75,6.781 C13.285,6.931 13.763,7.283 14.062,7.801 L14.438,8.452 C14.645,8.81 15.104,8.933 15.462,8.726 C15.821,8.519 15.944,8.06 15.737,7.702 L15.361,7.051 C14.783,6.049 13.807,5.42 12.75,5.247 Z"/>
</svg>

