<svg xmlns="http://www.w3.org/2000/svg" width="24" height="24" viewBox="0 0 24 24">
  <defs/>
  <path fill="#2D264B" d="M12.75,4 C12.75,3.586 12.414,3.25 12,3.25 C11.586,3.25 11.25,3.586 11.25,4 L12.75,4 Z M11.25,20 C11.25,20.414 11.586,20.75 12,20.75 C12.414,20.75 12.75,20.414 12.75,20 L11.25,20 Z M17.533,16.528 C17.824,16.234 17.822,15.759 17.528,15.467 C17.234,15.176 16.759,15.178 16.467,15.472 L17.533,16.528 Z M7.533,15.472 C7.241,15.178 6.766,15.176 6.472,15.467 C6.178,15.759 6.176,16.234 6.467,16.528 L7.533,15.472 Z M11.25,4 L11.25,20 L12.75,20 L12.75,4 L11.25,4 Z M16.467,15.472 L14.72,17.235 L15.785,18.291 L17.533,16.528 L16.467,15.472 Z M9.28,17.235 L7.533,15.472 L6.467,16.528 L8.215,18.291 L9.28,17.235 Z M14.72,17.235 C14.011,17.951 13.523,18.441 13.109,18.773 C12.708,19.096 12.45,19.207 12.219,19.236 L12.408,20.724 C13.026,20.645 13.541,20.35 14.049,19.943 C14.544,19.545 15.101,18.981 15.785,18.291 L14.72,17.235 Z M8.215,18.291 C8.899,18.981 9.456,19.545 9.951,19.943 C10.459,20.35 10.974,20.645 11.592,20.724 L11.781,19.236 C11.55,19.207 11.292,19.096 10.891,18.773 C10.477,18.441 9.989,17.951 9.28,17.235 L8.215,18.291 Z M12.219,19.236 C12.073,19.255 11.927,19.255 11.781,19.236 L11.592,20.724 C11.863,20.759 12.137,20.759 12.408,20.724 L12.219,19.236 Z"/>
</svg>

