<svg xmlns="http://www.w3.org/2000/svg" width="24" height="24" viewBox="0 0 24 24">
  <defs/>
  <path fill="#2D264B" d="M3.955,5.061 C4.263,4.637 4.637,4.263 5.061,3.955 C6.375,3 8.25,3 12,3 C15.75,3 17.625,3 18.939,3.955 C19.363,4.263 19.737,4.637 20.045,5.061 C21,6.375 21,8.25 21,12 C21,15.75 21,17.625 20.045,18.939 C19.737,19.363 19.363,19.737 18.939,20.045 C17.625,21 15.75,21 12,21 C8.25,21 6.375,21 5.061,20.045 C4.637,19.737 4.263,19.363 3.955,18.939 C3,17.625 3,15.75 3,12 C3,8.25 3,6.375 3.955,5.061 Z M12.75,8 C12.75,7.586 12.414,7.25 12,7.25 C11.586,7.25 11.25,7.586 11.25,8 L11.25,14.936 C11.236,14.925 11.221,14.914 11.207,14.902 C10.884,14.643 10.5,14.257 9.931,13.682 L8.533,12.272 C8.241,11.978 7.766,11.976 7.472,12.267 C7.178,12.559 7.176,13.034 7.467,13.328 L8.896,14.769 C9.427,15.305 9.87,15.752 10.267,16.071 C10.684,16.406 11.121,16.66 11.655,16.728 C11.769,16.743 11.885,16.75 12,16.75 C12.115,16.75 12.231,16.743 12.345,16.728 C12.879,16.66 13.316,16.406 13.733,16.071 C14.13,15.752 14.573,15.305 15.104,14.769 L16.533,13.328 C16.824,13.034 16.822,12.559 16.528,12.267 C16.234,11.976 15.759,11.978 15.467,12.272 L14.069,13.682 C13.5,14.257 13.116,14.643 12.793,14.902 C12.779,14.914 12.764,14.925 12.75,14.936 Z"/>
</svg>

