<svg xmlns="http://www.w3.org/2000/svg" width="24" height="24" viewBox="0 0 24 24">
  <defs/>
  <path fill="#2D264B" d="M12.75,3 C12.75,2.586 12.414,2.25 12,2.25 C11.586,2.25 11.25,2.586 11.25,3 L12.75,3 Z M11.25,14 C11.25,14.414 11.586,14.75 12,14.75 C12.414,14.75 12.75,14.414 12.75,14 L11.25,14 Z M11.25,3 L11.25,14 L12.75,14 L12.75,3 L11.25,3 Z M11.009,20.484 L8.145,16.762 L6.956,17.677 L9.821,21.399 L11.009,20.484 Z M9.135,14.75 L14.865,14.75 L14.865,13.25 L9.135,13.25 L9.135,14.75 Z M15.855,16.762 L12.991,20.484 L14.179,21.399 L17.044,17.677 L15.855,16.762 Z M14.865,14.75 C15.902,14.75 16.488,15.941 15.855,16.762 L17.044,17.677 C18.436,15.869 17.147,13.25 14.865,13.25 L14.865,14.75 Z M8.145,16.762 C7.512,15.941 8.098,14.75 9.135,14.75 L9.135,13.25 C6.853,13.25 5.564,15.869 6.956,17.677 L8.145,16.762 Z M9.821,21.399 C10.922,22.829 13.078,22.829 14.179,21.399 L12.991,20.484 C12.49,21.134 11.51,21.134 11.009,20.484 L9.821,21.399 Z"/>
</svg>

