<svg width="24" height="24" viewBox="0 0 24 24" fill="none" xmlns="http://www.w3.org/2000/svg">
<path d="M12.75 4C12.75 3.58579 12.4142 3.25 12 3.25C11.5858 3.25 11.25 3.58579 11.25 4L11.25 19.0309C11.1434 18.9655 11.0251 18.8813 10.8907 18.7734C10.4772 18.4413 9.98914 17.9505 9.28 17.235L7.53269 15.472C7.24111 15.1778 6.76624 15.1757 6.47204 15.4673C6.17784 15.7589 6.17573 16.2338 6.46731 16.528L8.2461 18.3227C8.91604 18.9987 9.46359 19.5511 9.95146 19.9429C10.4588 20.3504 10.9737 20.6453 11.5918 20.7241C11.8629 20.7586 12.1371 20.7586 12.4082 20.7241C13.0263 20.6453 13.5412 20.3504 14.0485 19.9429C14.5364 19.5511 15.0839 18.9987 15.7539 18.3227L17.5327 16.528C17.8243 16.2338 17.8222 15.7589 17.528 15.4673C17.2338 15.1757 16.7589 15.1778 16.4673 15.472L14.72 17.235C14.0109 17.9505 13.5228 18.4413 13.1093 18.7734C12.9749 18.8813 12.8566 18.9655 12.75 19.0309L12.75 4Z" fill="#2D264B"/>
</svg>
