<svg xmlns="http://www.w3.org/2000/svg" width="24" height="24" viewBox="0 0 24 24">
  <defs/>
  <path fill="#2D264B" d="M17.533,10.528 C17.824,10.234 17.822,9.759 17.528,9.467 C17.234,9.176 16.759,9.178 16.467,9.472 L14.72,11.235 C14.011,11.95 13.523,12.441 13.109,12.773 C12.708,13.096 12.45,13.207 12.219,13.236 C12.073,13.255 11.927,13.255 11.781,13.236 C11.55,13.207 11.292,13.096 10.891,12.773 C10.477,12.441 9.989,11.95 9.28,11.235 L7.533,9.472 C7.241,9.178 6.766,9.176 6.472,9.467 C6.178,9.759 6.176,10.234 6.467,10.528 L8.246,12.323 C8.916,12.999 9.464,13.551 9.951,13.943 C10.459,14.35 10.974,14.645 11.592,14.724 C11.863,14.759 12.137,14.759 12.408,14.724 C13.026,14.645 13.541,14.35 14.049,13.943 C14.536,13.551 15.084,12.999 15.754,12.323 L17.533,10.528 Z"/>
</svg>

