<svg xmlns="http://www.w3.org/2000/svg" width="24" height="24" viewBox="0 0 24 24">
  <defs/>
  <path fill="#2D264B" d="M17.533,10.528 L15.785,12.292 Q13.513,14.583 12.408,14.724 Q12,14.776 11.592,14.724 Q10.487,14.583 8.215,12.292 L8.215,12.291 L6.467,10.528 Q6.249,10.307 6.25,9.997 Q6.251,9.686 6.472,9.467 Q6.693,9.249 7.003,9.25 Q7.314,9.251 7.533,9.472 L9.28,11.235 L9.281,11.236 Q11.189,13.161 11.781,13.236 Q12,13.264 12.219,13.236 Q12.811,13.161 14.719,11.236 L14.72,11.235 L16.467,9.472 Q16.686,9.251 16.997,9.25 Q17.307,9.249 17.528,9.467 Q17.749,9.686 17.75,9.997 Q17.751,10.307 17.533,10.528 Z"/>
</svg>

