<svg xmlns="http://www.w3.org/2000/svg" width="24" height="24" viewBox="0 0 24 24">
  <defs/>
  <path fill="#2D264B" d="M12.75,8 C12.75,7.586 12.414,7.25 12,7.25 C11.586,7.25 11.25,7.586 11.25,8 L12.75,8 Z M16.533,13.328 C16.824,13.034 16.822,12.559 16.528,12.267 C16.234,11.976 15.759,11.978 15.467,12.272 L16.533,13.328 Z M8.533,12.272 C8.241,11.978 7.766,11.976 7.472,12.267 C7.178,12.559 7.176,13.034 7.467,13.328 L8.533,12.272 Z M21.25,12 C21.25,17.109 17.109,21.25 12,21.25 L12,22.75 C17.937,22.75 22.75,17.937 22.75,12 L21.25,12 Z M12,21.25 C6.891,21.25 2.75,17.109 2.75,12 L1.25,12 C1.25,17.937 6.063,22.75 12,22.75 L12,21.25 Z M2.75,12 C2.75,6.891 6.891,2.75 12,2.75 L12,1.25 C6.063,1.25 1.25,6.063 1.25,12 L2.75,12 Z M12,2.75 C17.109,2.75 21.25,6.891 21.25,12 L22.75,12 C22.75,6.063 17.937,1.25 12,1.25 L12,2.75 Z M11.25,8 L11.25,15.2 L12.75,15.2 L12.75,8 L11.25,8 Z M15.467,12.272 L14.069,13.682 L15.135,14.738 L16.533,13.328 L15.467,12.272 Z M9.931,13.682 L8.533,12.272 L7.467,13.328 L8.865,14.738 L9.931,13.682 Z M14.069,13.682 C13.5,14.257 13.116,14.643 12.793,14.902 C12.483,15.151 12.302,15.222 12.156,15.24 L12.345,16.728 C12.879,16.66 13.316,16.406 13.733,16.071 C14.137,15.746 14.59,15.288 15.135,14.738 L14.069,13.682 Z M8.865,14.738 C9.41,15.288 9.863,15.746 10.267,16.071 C10.684,16.406 11.121,16.66 11.655,16.728 L11.844,15.24 C11.698,15.222 11.517,15.151 11.207,14.902 C10.884,14.643 10.5,14.257 9.931,13.682 L8.865,14.738 Z M12.156,15.24 C12.104,15.247 12.052,15.25 12,15.25 L12,16.75 C12.115,16.75 12.231,16.743 12.345,16.728 L12.156,15.24 Z M12,15.25 C11.948,15.25 11.896,15.247 11.844,15.24 L11.655,16.728 C11.769,16.743 11.885,16.75 12,16.75 L12,15.25 Z M11.25,15.2 L11.25,16 L12.75,16 L12.75,15.2 L11.25,15.2 Z"/>
</svg>

