<svg xmlns="http://www.w3.org/2000/svg" width="24" height="24" viewBox="0 0 24 24">
  <defs/>
  <path fill="#2D264B" d="M12.75,9 L15,9 C15.929,9 16.393,9 16.782,9.062 C18.922,9.4 20.6,11.078 20.938,13.218 C21,13.606 21,14.071 21,15 C21,15.929 21,16.393 20.938,16.782 C20.6,18.922 18.922,20.6 16.782,20.938 C16.393,21 15.929,21 15,21 L9,21 C8.071,21 7.606,21 7.218,20.938 C5.078,20.6 3.4,18.922 3.062,16.782 C3,16.393 3,15.929 3,15 C3,14.071 3,13.606 3.062,13.218 C3.4,11.078 5.078,9.4 7.218,9.062 C7.606,9 8.071,9 9,9 L11.25,9 L11.25,15.811 C10.927,15.483 10.544,15.001 9.986,14.297 L8.588,12.534 C8.33,12.21 7.859,12.155 7.534,12.412 C7.209,12.67 7.155,13.141 7.412,13.466 L8.839,15.265 C9.372,15.937 9.812,16.492 10.205,16.888 C10.61,17.293 11.058,17.629 11.631,17.721 C11.753,17.74 11.877,17.75 12,17.75 C12.123,17.75 12.247,17.74 12.369,17.721 C12.942,17.629 13.39,17.293 13.795,16.888 C14.188,16.492 14.628,15.937 15.161,15.265 L16.588,13.466 C16.845,13.141 16.791,12.67 16.466,12.412 C16.141,12.155 15.67,12.21 15.412,12.534 L14.014,14.297 C13.456,15.001 13.073,15.483 12.75,15.811 Z M12.75,3 L12.75,9 L11.25,9 L11.25,3 C11.25,2.586 11.586,2.25 12,2.25 C12.414,2.25 12.75,2.586 12.75,3 Z"/>
</svg>

