<svg xmlns="http://www.w3.org/2000/svg" width="24" height="24" viewBox="0 0 24 24">
  <defs/>
  <path fill="#2D264B" d="M20.6,10.55 C20.351,10.218 19.881,10.152 19.55,10.4 C19.219,10.649 19.152,11.119 19.401,11.45 L20.6,10.55 Z M4.599,11.45 C4.848,11.119 4.781,10.649 4.45,10.4 C4.119,10.152 3.649,10.218 3.4,10.55 L4.599,11.45 Z M12.75,3 C12.75,2.586 12.414,2.25 12,2.25 C11.586,2.25 11.25,2.586 11.25,3 L12.75,3 Z M8.588,12.534 C8.33,12.21 7.859,12.155 7.534,12.412 C7.209,12.67 7.155,13.141 7.412,13.466 L8.588,12.534 Z M16.588,13.466 C16.845,13.141 16.791,12.67 16.466,12.412 C16.141,12.155 15.67,12.21 15.412,12.534 L16.588,13.466 Z M20.25,14 L20.25,15 L21.75,15 L21.75,14 L20.25,14 Z M15,20.25 L9,20.25 L9,21.75 L15,21.75 L15,20.25 Z M3.75,15 L3.75,14 L2.25,14 L2.25,15 L3.75,15 Z M9,20.25 C8.042,20.25 7.651,20.248 7.335,20.198 L7.101,21.679 C7.562,21.752 8.1,21.75 9,21.75 L9,20.25 Z M2.25,15 C2.25,15.9 2.248,16.438 2.321,16.899 L3.802,16.665 C3.752,16.349 3.75,15.958 3.75,15 L2.25,15 Z M7.335,20.198 C5.517,19.91 4.09,18.483 3.802,16.665 L2.321,16.899 C2.71,19.36 4.64,21.29 7.101,21.679 L7.335,20.198 Z M20.25,15 C20.25,15.958 20.248,16.349 20.198,16.665 L21.679,16.899 C21.752,16.438 21.75,15.9 21.75,15 L20.25,15 Z M15,21.75 C15.9,21.75 16.438,21.752 16.899,21.679 L16.665,20.198 C16.349,20.248 15.958,20.25 15,20.25 L15,21.75 Z M20.198,16.665 C19.91,18.483 18.483,19.91 16.665,20.198 L16.899,21.679 C19.36,21.29 21.29,19.36 21.679,16.899 L20.198,16.665 Z M21.75,14 C21.75,12.706 21.322,11.511 20.6,10.55 L19.401,11.45 C19.934,12.161 20.25,13.042 20.25,14 L21.75,14 Z M3.75,14 C3.75,13.042 4.066,12.161 4.599,11.45 L3.4,10.55 C2.678,11.511 2.25,12.706 2.25,14 L3.75,14 Z M11.25,3 L11.25,16 L12.75,16 L12.75,3 L11.25,3 Z M7.412,13.466 L8.81,15.229 L9.986,14.297 L8.588,12.534 L7.412,13.466 Z M15.19,15.229 L16.588,13.466 L15.412,12.534 L14.014,14.297 L15.19,15.229 Z M8.81,15.229 C9.356,15.918 9.805,16.485 10.206,16.887 C10.61,17.293 11.058,17.629 11.631,17.721 L11.867,16.239 C11.761,16.223 11.591,16.153 11.268,15.829 C10.942,15.501 10.554,15.014 9.986,14.297 L8.81,15.229 Z M14.014,14.297 C13.446,15.014 13.058,15.501 12.732,15.829 C12.409,16.153 12.239,16.223 12.133,16.239 L12.369,17.721 C12.942,17.629 13.39,17.293 13.794,16.887 C14.195,16.485 14.644,15.918 15.19,15.229 L14.014,14.297 Z M11.631,17.721 C11.753,17.74 11.877,17.75 12,17.75 L12,16.25 C11.956,16.25 11.912,16.247 11.867,16.239 L11.631,17.721 Z M12,17.75 C12.123,17.75 12.247,17.74 12.369,17.721 L12.133,16.239 C12.088,16.247 12.044,16.25 12,16.25 L12,17.75 Z M11.25,16 L11.25,17 L12.75,17 L12.75,16 L11.25,16 Z"/>
</svg>

