<svg width="24" height="24" viewBox="0 0 24 24" fill="none" xmlns="http://www.w3.org/2000/svg">
<path fill-rule="evenodd" clip-rule="evenodd" d="M12.75 3C12.75 2.58579 12.4142 2.25 12 2.25C11.5858 2.25 11.25 2.58579 11.25 3V9H9C8.07099 9 7.60649 9 7.21783 9.06156C5.07837 9.40042 3.40042 11.0784 3.06156 13.2178C3 13.6065 3 14.071 3 15C3 15.929 3 16.3935 3.06156 16.7822C3.40042 18.9216 5.07837 20.5996 7.21783 20.9384C7.60649 21 8.07099 21 9 21H15C15.929 21 16.3935 21 16.7822 20.9384C18.9216 20.5996 20.5996 18.9216 20.9384 16.7822C21 16.3935 21 15.929 21 15C21 14.071 21 13.6065 20.9384 13.2178C20.5996 11.0784 18.9216 9.40042 16.7822 9.06156C16.3935 9 15.929 9 15 9H12.75V3ZM12.75 9H11.25V15.8105C10.9273 15.483 10.5437 15.001 9.98553 14.297L8.58768 12.534C8.33034 12.2095 7.8586 12.155 7.53403 12.4123C7.20946 12.6697 7.15497 13.1414 7.41232 13.466L8.83857 15.2648C9.37175 15.9373 9.81172 16.4922 10.2055 16.8875C10.6096 17.2932 11.0582 17.6294 11.6313 17.7208C11.7534 17.7402 11.8766 17.75 12 17.75C12.1234 17.75 12.2466 17.7402 12.3687 17.7208C12.9418 17.6294 13.3904 17.2932 13.7945 16.8875C14.1883 16.4922 14.6283 15.9372 15.1614 15.2648L16.5877 13.466C16.845 13.1414 16.7905 12.6697 16.466 12.4123C16.1414 12.155 15.6697 12.2095 15.4123 12.534L14.0145 14.297C13.4563 15.001 13.0727 15.483 12.75 15.8105V9Z" fill="#2D264B"/>
</svg>
