<svg width="24" height="24" viewBox="0 0 24 24" fill="none" xmlns="http://www.w3.org/2000/svg">
<path fill-rule="evenodd" clip-rule="evenodd" d="M3.95491 5.06107C3 6.3754 3 8.25027 3 12C3 15.7497 3 17.6246 3.95491 18.9389C4.26331 19.3634 4.6366 19.7367 5.06107 20.0451C6.3754 21 8.25027 21 12 21C15.7497 21 17.6246 21 18.9389 20.0451C19.3634 19.7367 19.7367 19.3634 20.0451 18.9389C21 17.6246 21 15.7497 21 12C21 8.25027 21 6.3754 20.0451 5.06107C19.7367 4.6366 19.3634 4.26331 18.9389 3.95491C17.6246 3 15.7497 3 12 3C8.25027 3 6.3754 3 5.06107 3.95491C4.6366 4.26331 4.26331 4.6366 3.95491 5.06107ZM12.75 8C12.75 7.58579 12.4142 7.25 12 7.25C11.5858 7.25 11.25 7.58579 11.25 8V14.9362C11.2358 14.9251 11.2213 14.9137 11.2065 14.9018C10.8839 14.6427 10.5003 14.2573 9.93054 13.6824L8.53269 12.272C8.24111 11.9778 7.76624 11.9757 7.47204 12.2673C7.17784 12.5589 7.17573 13.0338 7.46731 13.328L8.89565 14.7691C9.42703 15.3053 9.87022 15.7525 10.2672 16.0713C10.6837 16.4057 11.1213 16.6601 11.6545 16.7281C11.7692 16.7427 11.8846 16.75 12 16.75C12.1154 16.75 12.2308 16.7427 12.3455 16.7281C12.8787 16.6601 13.3163 16.4057 13.7328 16.0713C14.1298 15.7525 14.573 15.3053 15.1043 14.7691L16.5327 13.328C16.8243 13.0338 16.8222 12.5589 16.528 12.2673C16.2338 11.9757 15.7589 11.9778 15.4673 12.272L14.0695 13.6824C13.4997 14.2573 13.1161 14.6427 12.7935 14.9018C12.7787 14.9137 12.7642 14.9251 12.75 14.9362V8Z" fill="#2D264B"/>
</svg>
