<svg xmlns="http://www.w3.org/2000/svg" width="24" height="24" viewBox="0 0 24 24">
  <defs/>
  <path fill="#2D264B" d="M12,0.25 C11.271,0.25 10.705,0.555 10.192,1.021 C9.722,1.448 9.237,2.067 8.668,2.793 L8.629,2.842 C7.463,4.329 6.133,6.169 5.091,8.011 C4.065,9.824 3.25,11.756 3.25,13.397 C3.25,18.513 7.117,22.756 12,22.756 C16.883,22.756 20.75,18.513 20.75,13.397 C20.75,11.756 19.935,9.824 18.909,8.011 C17.867,6.169 16.537,4.329 15.371,2.842 L15.332,2.793 C14.763,2.067 14.278,1.448 13.808,1.021 C13.295,0.555 12.729,0.25 12,0.25 Z"/>
</svg>

