<svg width="24" height="24" viewBox="0 0 24 24" fill="none" xmlns="http://www.w3.org/2000/svg">
<path d="M12 0.25C11.2709 0.25 10.7052 0.555101 10.1922 1.0211C9.72204 1.44822 9.23714 2.06663 8.66794 2.79256L8.62903 2.84218C7.46288 4.32926 6.13277 6.16852 5.09064 8.01095C4.06511 9.82403 3.25 11.7561 3.25 13.3968C3.25 18.5127 7.11666 22.7555 12 22.7555C16.8833 22.7555 20.75 18.5127 20.75 13.3968C20.75 11.7561 19.9349 9.82403 18.9094 8.01095C17.8672 6.16852 16.5371 4.32926 15.371 2.84218L15.3321 2.79257C14.7629 2.06664 14.278 1.44822 13.8078 1.0211C13.2948 0.555101 12.7291 0.25 12 0.25Z" fill="#2D264B"/>
</svg>
