<svg xmlns="http://www.w3.org/2000/svg" width="24" height="24" viewBox="0 0 24 24">
  <defs/>
  <path fill="#2D264B" d="M3.25,13.397 Q3.25,9.701 8.629,2.842 Q10.662,0.25 12,0.25 Q13.338,0.25 15.371,2.842 Q20.75,9.702 20.75,13.397 Q20.75,17.257 18.206,19.995 Q15.641,22.756 12,22.756 Q8.359,22.756 5.794,19.995 Q3.25,17.257 3.25,13.397 Z M4.75,13.397 Q4.75,16.668 6.893,18.974 Q9.013,21.255 12,21.256 Q14.987,21.256 17.107,18.974 Q19.25,16.668 19.25,13.397 Q19.25,10.22 14.191,3.768 Q12.608,1.75 12,1.75 Q11.392,1.75 9.809,3.768 Q4.75,10.219 4.75,13.397 Z"/>
</svg>

