<svg width="24" height="24" viewBox="0 0 24 24" fill="none" xmlns="http://www.w3.org/2000/svg">
<path d="M16.2041 4.5755L16.2941 4.6275C17.0723 5.07671 17.7211 5.4513 18.1962 5.81795C18.6977 6.20494 19.0957 6.64914 19.2625 7.27132C19.4292 7.8935 19.3066 8.4772 19.0658 9.06309C18.8986 9.46976 18.6529 9.92674 18.3567 10.448L17.7214 10.0704L17.7132 10.0656L10.7879 6.06728L10.1403 5.68557C10.4404 5.17448 10.7107 4.73795 10.9769 4.393C11.3639 3.89152 11.8081 3.49349 12.4303 3.32678C13.0525 3.16006 13.6362 3.28267 14.2221 3.52347C14.7771 3.7516 15.426 4.12624 16.2041 4.5755Z" fill="#2D264B"/>
<path d="M9.38884 6.98384L5.91087 13.0077C5.61308 13.5225 5.37762 13.9296 5.29039 14.3926C5.20315 14.8556 5.27434 15.3204 5.36437 15.9083L5.38862 16.0672C5.55481 17.1586 5.69179 18.0581 5.89839 18.7403C6.11446 19.4537 6.44662 20.0712 7.09989 20.4484C7.75316 20.8256 8.45402 20.8045 9.17991 20.6349C9.87398 20.4727 10.7215 20.1416 11.7497 19.7398L11.8995 19.6814C12.4536 19.4654 12.8918 19.2946 13.2491 18.9876C13.6065 18.6805 13.8413 18.2731 14.1382 17.7578L17.6079 11.7479L16.9591 11.3623L10.0292 7.36127L9.38884 6.98384Z" fill="#2D264B"/>
</svg>
