<svg xmlns="http://www.w3.org/2000/svg" width="24" height="24" viewBox="0 0 24 24">
  <defs/>
  <path fill="#2D264B" d="M16.204,4.575 L16.294,4.628 C17.072,5.077 17.721,5.451 18.196,5.818 C18.698,6.205 19.096,6.649 19.262,7.271 C19.429,7.894 19.307,8.477 19.066,9.063 C18.899,9.47 18.653,9.927 18.357,10.448 L17.721,10.07 L17.713,10.066 L10.788,6.067 L10.14,5.686 C10.44,5.174 10.711,4.738 10.977,4.393 C11.364,3.892 11.808,3.493 12.43,3.327 C13.053,3.16 13.636,3.283 14.222,3.523 C14.777,3.752 15.426,4.126 16.204,4.575 Z"/>
  <path fill="#2D264B" d="M9.389,6.984 L5.911,13.008 C5.613,13.523 5.378,13.93 5.29,14.393 C5.203,14.856 5.274,15.32 5.364,15.908 L5.389,16.067 C5.555,17.159 5.692,18.058 5.898,18.74 C6.114,19.454 6.447,20.071 7.1,20.448 C7.753,20.826 8.454,20.805 9.18,20.635 C9.874,20.473 10.722,20.142 11.75,19.74 L11.899,19.681 C12.454,19.465 12.892,19.295 13.249,18.988 C13.607,18.68 13.841,18.273 14.138,17.758 L17.608,11.748 L16.959,11.362 L10.029,7.361 L9.389,6.984 Z"/>
</svg>

