<svg xmlns="http://www.w3.org/2000/svg" width="24" height="24" viewBox="0 0 24 24">
  <defs/>
  <path fill="#2D264B" d="M20.75,11.998 L15.952,16.796 C15.919,16.829 15.885,16.864 15.849,16.9 C15.477,17.276 14.934,17.825 14.223,18.166 C13.513,18.508 12.744,18.589 12.219,18.645 C12.168,18.65 12.12,18.655 12.074,18.66 L11.93,18.676 C10.909,18.79 9.893,18.903 9.052,18.876 C8.104,18.846 6.895,18.631 5.91,17.646 C4.925,16.661 4.71,15.452 4.68,14.504 C4.653,13.663 4.766,12.647 4.88,11.626 L4.896,11.482 C4.901,11.436 4.906,11.388 4.911,11.337 C4.967,10.812 5.048,10.043 5.39,9.333 C5.731,8.622 6.281,8.079 6.656,7.707 C6.692,7.671 6.727,7.637 6.76,7.604 L12.113,2.251 C11.773,2.25 11.417,2.25 11.045,2.25 L10.955,2.25 C9.118,2.25 7.679,2.25 6.536,2.374 C5.371,2.5 4.427,2.762 3.62,3.348 C3.132,3.703 2.703,4.132 2.348,4.62 C1.762,5.427 1.5,6.371 1.374,7.536 C1.25,8.679 1.25,10.118 1.25,11.955 L1.25,12.045 C1.25,13.882 1.25,15.321 1.374,16.463 C1.5,17.629 1.762,18.573 2.348,19.38 C2.703,19.868 3.132,20.297 3.62,20.652 C4.427,21.238 5.371,21.5 6.536,21.626 C7.679,21.75 9.118,21.75 10.955,21.75 L11.045,21.75 C12.882,21.75 14.321,21.75 15.463,21.626 C16.629,21.5 17.573,21.238 18.38,20.652 C18.868,20.297 19.297,19.868 19.652,19.38 C20.238,18.573 20.5,17.629 20.626,16.463 C20.75,15.321 20.75,13.882 20.75,12.045 L20.75,11.998 Z"/>
  <path fill="#2D264B" d="M12.848,3.991 L7.925,8.914 C7.504,9.334 7.171,9.666 6.967,10.091 C6.763,10.515 6.711,10.983 6.646,11.574 L6.628,11.734 C6.506,12.831 6.406,13.735 6.429,14.448 C6.453,15.193 6.614,15.875 7.147,16.409 C7.681,16.942 8.363,17.103 9.108,17.127 C9.821,17.15 10.725,17.05 11.822,16.928 L11.982,16.91 C12.573,16.845 13.041,16.793 13.465,16.589 C13.89,16.385 14.222,16.052 14.642,15.631 L19.567,10.707 L19.031,10.193 L13.36,4.521 L12.848,3.991 Z"/>
  <path fill="#2D264B" d="M20.627,9.644 C21.04,9.225 21.389,8.853 21.652,8.508 C22.037,8.005 22.306,7.473 22.306,6.828 C22.306,6.184 22.037,5.652 21.652,5.149 C21.288,4.671 20.759,4.142 20.123,3.506 L20.05,3.433 C19.414,2.798 18.885,2.268 18.407,1.904 C17.904,1.52 17.372,1.25 16.728,1.25 C16.084,1.25 15.551,1.52 15.048,1.904 C14.703,2.167 14.33,2.517 13.909,2.931 L14.434,3.474 L20.081,9.121 L20.627,9.644 Z"/>
</svg>

