<svg xmlns="http://www.w3.org/2000/svg" width="24" height="24" viewBox="0 0 24 24">
  <defs/>
  <path fill="#2D264B" d="M19.41,21.001 C19.824,21.001 20.16,20.665 20.16,20.251 C20.16,19.837 19.824,19.501 19.41,19.501 L19.41,21.001 Z M13.41,19.501 C12.996,19.501 12.66,19.837 12.66,20.251 C12.66,20.665 12.996,21.001 13.41,21.001 L13.41,19.501 Z M14.689,10.34 L10.89,16.919 L12.189,17.669 L15.988,11.09 L14.689,10.34 Z M5.261,13.669 L9.059,7.09 L7.76,6.34 L3.962,12.919 L5.261,13.669 Z M9.258,18.321 C8.162,18.75 7.415,19.039 6.839,19.174 C6.282,19.304 6.029,19.253 5.85,19.149 L5.1,20.448 C5.753,20.826 6.454,20.804 7.18,20.635 C7.886,20.47 8.751,20.13 9.804,19.718 L9.258,18.321 Z M3.38,16.009 C3.55,17.127 3.688,18.046 3.898,18.74 C4.114,19.454 4.447,20.071 5.1,20.448 L5.85,19.149 C5.671,19.046 5.5,18.853 5.334,18.305 C5.162,17.739 5.04,16.947 4.863,15.784 L3.38,16.009 Z M3.962,12.919 C3.64,13.476 3.382,13.903 3.29,14.393 L4.764,14.67 C4.798,14.49 4.888,14.315 5.261,13.669 L3.962,12.919 Z M4.863,15.784 C4.75,15.046 4.73,14.851 4.764,14.67 L3.29,14.393 C3.198,14.882 3.283,15.373 3.38,16.009 L4.863,15.784 Z M10.89,16.919 C10.517,17.565 10.411,17.73 10.271,17.85 L11.249,18.988 C11.627,18.663 11.867,18.227 12.189,17.669 L10.89,16.919 Z M9.804,19.718 C10.404,19.484 10.871,19.312 11.249,18.988 L10.271,17.85 C10.132,17.969 9.953,18.05 9.258,18.321 L9.804,19.718 Z M13.499,5.9 C14.334,6.382 14.894,6.708 15.28,7.005 C15.648,7.29 15.766,7.481 15.813,7.659 L17.262,7.271 C17.096,6.649 16.698,6.205 16.196,5.818 C15.712,5.444 15.047,5.062 14.249,4.601 L13.499,5.9 Z M15.988,11.09 C16.448,10.292 16.833,9.629 17.066,9.063 C17.306,8.477 17.429,7.893 17.262,7.271 L15.813,7.659 C15.861,7.837 15.855,8.062 15.678,8.493 C15.493,8.944 15.171,9.505 14.689,10.34 L15.988,11.09 Z M14.249,4.601 C13.451,4.141 12.788,3.756 12.222,3.523 C11.636,3.283 11.052,3.16 10.43,3.327 L10.818,4.776 C10.996,4.728 11.221,4.734 11.652,4.911 C12.102,5.096 12.664,5.418 13.499,5.9 L14.249,4.601 Z M9.059,7.09 C9.541,6.255 9.867,5.695 10.164,5.309 C10.449,4.941 10.64,4.823 10.818,4.776 L10.43,3.327 C9.808,3.493 9.364,3.891 8.977,4.393 C8.603,4.877 8.221,5.542 7.76,6.34 L9.059,7.09 Z M15.713,10.066 L8.785,6.066 L8.035,7.365 L14.963,11.364 L15.713,10.066 Z M19.41,19.501 L13.41,19.501 L13.41,21.001 L19.41,21.001 L19.41,19.501 Z"/>
</svg>

