<svg xmlns="http://www.w3.org/2000/svg" width="24" height="24" viewBox="0 0 24 24">
  <defs/>
  <path fill="#2D264B" d="M9.009,3.928 C9.423,3.924 9.755,3.584 9.75,3.17 C9.745,2.755 9.405,2.424 8.991,2.429 L9.009,3.928 Z M20.743,14.18 C20.748,13.766 20.416,13.426 20.002,13.421 C19.588,13.416 19.248,13.748 19.243,14.162 L20.743,14.18 Z M11,20.421 C9.108,20.421 7.75,20.42 6.698,20.306 C5.66,20.194 5.01,19.979 4.502,19.61 L3.62,20.823 C4.427,21.409 5.371,21.671 6.536,21.798 C7.688,21.922 9.142,21.921 11,21.921 L11,20.421 Z M1.25,12.171 C1.25,14.03 1.249,15.483 1.374,16.635 C1.5,17.8 1.762,18.745 2.348,19.551 L3.562,18.669 C3.193,18.161 2.977,17.511 2.865,16.473 C2.751,15.421 2.75,14.063 2.75,12.171 L1.25,12.171 Z M4.502,19.61 C4.141,19.348 3.824,19.03 3.562,18.669 L2.348,19.551 C2.703,20.039 3.132,20.468 3.62,20.823 L4.502,19.61 Z M11,21.921 C12.858,21.921 14.312,21.922 15.463,21.798 C16.629,21.671 17.573,21.409 18.38,20.823 L17.498,19.61 C16.99,19.979 16.34,20.194 15.302,20.306 C14.25,20.42 12.892,20.421 11,20.421 L11,21.921 Z M18.438,18.669 C18.176,19.03 17.859,19.348 17.498,19.61 L18.38,20.823 C18.868,20.468 19.297,20.039 19.652,19.551 L18.438,18.669 Z M2.75,12.171 C2.75,10.28 2.751,8.921 2.865,7.869 C2.977,6.831 3.193,6.181 3.562,5.673 L2.348,4.792 C1.762,5.598 1.5,6.542 1.374,7.708 C1.249,8.859 1.25,10.313 1.25,12.171 L2.75,12.171 Z M3.62,3.519 C3.132,3.874 2.703,4.303 2.348,4.792 L3.562,5.673 C3.824,5.312 4.141,4.995 4.502,4.733 L3.62,3.519 Z M8.991,2.429 C6.564,2.458 4.899,2.59 3.62,3.519 L4.502,4.733 C5.336,4.127 6.508,3.958 9.009,3.928 L8.991,2.429 Z M19.243,14.162 C19.213,16.663 19.044,17.835 18.438,18.669 L19.652,19.551 C20.581,18.272 20.714,16.607 20.743,14.18 L19.243,14.162 Z M19.026,9.127 L13.654,14.498 L14.715,15.559 L20.086,10.187 L19.026,9.127 Z M9.058,9.902 L14.43,4.53 L13.369,3.47 L7.997,8.841 L9.058,9.902 Z M11.715,15.43 C10.545,15.56 9.748,15.647 9.157,15.628 C8.585,15.609 8.354,15.494 8.208,15.348 L7.147,16.409 C7.681,16.942 8.363,17.103 9.108,17.127 C9.833,17.151 10.757,17.046 11.88,16.921 L11.715,15.43 Z M6.635,11.676 C6.51,12.799 6.406,13.723 6.429,14.448 C6.453,15.193 6.614,15.875 7.147,16.409 L8.208,15.348 C8.062,15.202 7.947,14.971 7.928,14.399 C7.909,13.808 7.996,13.011 8.126,11.841 L6.635,11.676 Z M7.997,8.841 C7.542,9.297 7.183,9.642 6.967,10.091 L8.319,10.741 C8.398,10.575 8.53,10.43 9.058,9.902 L7.997,8.841 Z M8.126,11.841 C8.208,11.1 8.239,10.906 8.319,10.741 L6.967,10.091 C6.751,10.54 6.706,11.036 6.635,11.676 L8.126,11.841 Z M13.654,14.498 C13.127,15.026 12.981,15.158 12.816,15.237 L13.465,16.589 C13.914,16.373 14.259,16.014 14.715,15.559 L13.654,14.498 Z M11.88,16.921 C12.52,16.85 13.017,16.805 13.465,16.589 L12.816,15.237 C12.65,15.317 12.456,15.348 11.715,15.43 L11.88,16.921 Z M19.026,4.53 C19.707,5.212 20.164,5.671 20.46,6.058 C20.742,6.429 20.806,6.644 20.806,6.828 L22.306,6.828 C22.306,6.184 22.037,5.652 21.652,5.149 C21.281,4.662 20.738,4.121 20.086,3.47 L19.026,4.53 Z M20.086,10.187 C20.738,9.536 21.281,8.995 21.652,8.508 C22.037,8.005 22.306,7.473 22.306,6.828 L20.806,6.828 C20.806,7.013 20.742,7.228 20.46,7.598 C20.164,7.986 19.707,8.445 19.026,9.127 L20.086,10.187 Z M20.086,3.47 C19.435,2.818 18.894,2.275 18.407,1.904 C17.904,1.52 17.372,1.25 16.728,1.25 L16.728,2.75 C16.912,2.75 17.127,2.814 17.498,3.096 C17.885,3.392 18.344,3.849 19.026,4.53 L20.086,3.47 Z M14.43,4.53 C15.111,3.849 15.57,3.392 15.958,3.096 C16.328,2.814 16.543,2.75 16.728,2.75 L16.728,1.25 C16.084,1.25 15.551,1.52 15.048,1.904 C14.562,2.275 14.021,2.818 13.369,3.47 L14.43,4.53 Z M20.086,9.127 L14.43,3.47 L13.369,4.53 L19.026,10.187 L20.086,9.127 Z"/>
</svg>

