<svg xmlns="http://www.w3.org/2000/svg" width="24" height="24" viewBox="0 0 24 24">
  <defs/>
  <path fill="#2D264B" d="M13.41,19.501 C12.996,19.501 12.66,19.837 12.66,20.251 C12.66,20.665 12.996,21.001 13.41,21.001 L19.41,21.001 C19.824,21.001 20.16,20.665 20.16,20.251 C20.16,19.837 19.824,19.501 19.41,19.501 L13.41,19.501 Z"/>
  <path fill="#2D264B" d="M14.204,4.575 L14.294,4.628 C15.072,5.077 15.721,5.451 16.196,5.818 C16.698,6.205 17.096,6.649 17.262,7.271 C17.429,7.894 17.307,8.477 17.066,9.063 C16.899,9.47 16.653,9.927 16.357,10.448 L15.721,10.07 L15.713,10.066 L8.788,6.067 L8.14,5.686 C8.44,5.174 8.711,4.738 8.977,4.393 C9.364,3.892 9.808,3.493 10.43,3.327 C11.053,3.16 11.636,3.283 12.222,3.523 C12.777,3.752 13.426,4.126 14.204,4.575 Z"/>
  <path fill="#2D264B" d="M7.389,6.984 L3.911,13.008 C3.613,13.523 3.378,13.93 3.29,14.393 C3.203,14.856 3.274,15.32 3.364,15.908 L3.389,16.067 C3.555,17.159 3.692,18.058 3.898,18.74 C4.114,19.454 4.447,20.071 5.1,20.448 C5.753,20.826 6.454,20.805 7.18,20.635 C7.874,20.473 8.722,20.142 9.75,19.74 L9.899,19.681 C10.454,19.465 10.892,19.295 11.249,18.988 C11.607,18.68 11.841,18.273 12.138,17.758 L15.608,11.748 L14.959,11.362 L8.029,7.361 L7.389,6.984 Z"/>
</svg>

