<svg xmlns="http://www.w3.org/2000/svg" width="24" height="24" viewBox="0 0 24 24">
  <defs/>
  <path fill="#2D264B" d="M16.689,10.34 L12.89,16.919 L14.189,17.669 L17.988,11.09 L16.689,10.34 Z M7.261,13.669 L11.059,7.09 L9.76,6.34 L5.962,12.919 L7.261,13.669 Z M11.258,18.321 C10.162,18.75 9.415,19.039 8.839,19.174 C8.282,19.304 8.029,19.253 7.85,19.149 L7.1,20.448 C7.753,20.826 8.454,20.804 9.18,20.635 C9.886,20.47 10.751,20.13 11.804,19.718 L11.258,18.321 Z M5.38,16.009 C5.55,17.127 5.688,18.046 5.898,18.74 C6.114,19.454 6.447,20.071 7.1,20.448 L7.85,19.149 C7.671,19.046 7.5,18.853 7.334,18.305 C7.162,17.739 7.04,16.947 6.863,15.784 L5.38,16.009 Z M5.962,12.919 C5.64,13.476 5.382,13.903 5.29,14.393 L6.764,14.67 C6.798,14.49 6.888,14.315 7.261,13.669 L5.962,12.919 Z M6.863,15.784 C6.75,15.046 6.73,14.851 6.764,14.67 L5.29,14.393 C5.198,14.882 5.283,15.373 5.38,16.009 L6.863,15.784 Z M12.89,16.919 C12.517,17.565 12.411,17.73 12.271,17.85 L13.249,18.988 C13.627,18.663 13.867,18.227 14.189,17.669 L12.89,16.919 Z M11.804,19.718 C12.404,19.484 12.871,19.312 13.249,18.988 L12.271,17.85 C12.132,17.969 11.953,18.05 11.258,18.321 L11.804,19.718 Z M15.499,5.9 C16.334,6.382 16.894,6.708 17.28,7.005 C17.648,7.29 17.766,7.481 17.814,7.659 L19.262,7.271 C19.096,6.649 18.698,6.205 18.196,5.818 C17.712,5.444 17.047,5.062 16.249,4.601 L15.499,5.9 Z M17.988,11.09 C18.448,10.292 18.833,9.629 19.066,9.063 C19.306,8.477 19.429,7.893 19.262,7.271 L17.814,7.659 C17.861,7.837 17.855,8.062 17.678,8.493 C17.493,8.944 17.171,9.505 16.689,10.34 L17.988,11.09 Z M16.249,4.601 C15.451,4.141 14.788,3.756 14.222,3.523 C13.636,3.283 13.052,3.16 12.43,3.327 L12.818,4.776 C12.996,4.728 13.221,4.734 13.652,4.911 C14.102,5.096 14.664,5.418 15.499,5.9 L16.249,4.601 Z M11.059,7.09 C11.541,6.255 11.867,5.695 12.164,5.309 C12.449,4.941 12.64,4.823 12.818,4.776 L12.43,3.327 C11.808,3.493 11.364,3.891 10.977,4.393 C10.603,4.877 10.221,5.542 9.76,6.34 L11.059,7.09 Z M17.713,10.066 L10.785,6.066 L10.035,7.365 L16.963,11.364 L17.713,10.066 Z"/>
</svg>

