<svg width="24" height="24" viewBox="0 0 24 24" fill="none" xmlns="http://www.w3.org/2000/svg">
<path d="M13.41 19.501C12.9958 19.501 12.66 19.8368 12.66 20.251C12.66 20.6652 12.9958 21.001 13.41 21.001H19.41C19.8242 21.001 20.16 20.6652 20.16 20.251C20.16 19.8368 19.8242 19.501 19.41 19.501H13.41Z" fill="#2D264B"/>
<path d="M14.2041 4.5755L14.2941 4.6275C15.0723 5.07671 15.7211 5.4513 16.1962 5.81795C16.6977 6.20494 17.0957 6.64914 17.2625 7.27132C17.4292 7.8935 17.3066 8.4772 17.0658 9.06309C16.8986 9.46976 16.6529 9.92674 16.3567 10.448L15.7214 10.0704L15.7132 10.0656L8.78791 6.06728L8.14026 5.68557C8.44035 5.17448 8.71074 4.73795 8.97693 4.393C9.36392 3.89152 9.80812 3.49349 10.4303 3.32678C11.0525 3.16006 11.6362 3.28267 12.2221 3.52347C12.7771 3.7516 13.426 4.12624 14.2041 4.5755Z" fill="#2D264B"/>
<path d="M7.38884 6.98384L3.91087 13.0077C3.61308 13.5225 3.37762 13.9296 3.29039 14.3926C3.20315 14.8556 3.27434 15.3204 3.36437 15.9083L3.38862 16.0672C3.55481 17.1586 3.69179 18.0581 3.89839 18.7403C4.11446 19.4537 4.44662 20.0712 5.09989 20.4484C5.75316 20.8256 6.45402 20.8045 7.17991 20.6349C7.87398 20.4727 8.72151 20.1416 9.74974 19.7398L9.89949 19.6814C10.4536 19.4654 10.8918 19.2946 11.2491 18.9876C11.6065 18.6805 11.8413 18.2731 12.1382 17.7578L15.6079 11.7479L14.9591 11.3623L8.02918 7.36127L7.38884 6.98384Z" fill="#2D264B"/>
</svg>
