<svg width="24" height="24" viewBox="0 0 24 24" fill="none" xmlns="http://www.w3.org/2000/svg">
<path d="M4.99993 11.0781V13.6264C4.99993 15.4877 4.99993 16.4184 5.24465 17.1715C5.73924 18.6937 6.93266 19.8871 8.45485 20.3817C9.20801 20.6264 10.1387 20.6264 11.9999 20.6264C13.8612 20.6264 14.7919 20.6264 15.545 20.3817C17.0672 19.8871 18.2606 18.6937 18.7552 17.1715C18.9999 16.4184 18.9999 15.4877 18.9999 13.6264V11.0813M18.9999 11.0813C18.0427 11.4693 16.8601 11.8907 15.4528 12.3933L13.3454 13.146C12.6794 13.3838 12.3465 13.5028 12 13.5028C11.6536 13.5028 11.3206 13.3838 10.6547 13.146L8.54728 12.3933C4.14662 10.8217 1.94629 10.0358 1.94629 8.62638C1.94629 7.21695 4.14662 6.4311 8.54728 4.85942L10.6547 4.10677C11.3206 3.86892 11.6536 3.75 12 3.75C12.3465 3.75 12.6794 3.86892 13.3454 4.10677L15.4528 4.85942C19.8535 6.4311 22.0538 7.21695 22.0538 8.62638C22.0538 9.58509 21.0361 10.2561 18.9999 11.0813Z" stroke="#2D264B" stroke-width="1.5"/>
<path fill-rule="evenodd" clip-rule="evenodd" d="M8.23248 4.17545L10.4024 3.40046C10.4355 3.38864 10.4682 3.37694 10.5005 3.36538C11.0703 3.16135 11.5208 3 12 3C12.4793 3 12.9298 3.16135 13.4996 3.36539C13.5319 3.37695 13.5646 3.38865 13.5977 3.40046L15.7676 4.17544C17.9151 4.94242 19.603 5.54521 20.7481 6.13759C21.855 6.71014 22.8038 7.44609 22.8038 8.62638C22.8038 9.80667 21.855 10.5426 20.7481 11.1152C19.603 11.7075 17.9151 12.3103 15.7676 13.0773L13.5977 13.8523C13.5646 13.8641 13.5319 13.8758 13.4996 13.8874C12.9298 14.0914 12.4793 14.2528 12 14.2528C11.5208 14.2528 11.0703 14.0914 10.5005 13.8874C10.4682 13.8758 10.4355 13.8641 10.4024 13.8523L8.23247 13.0773C6.08493 12.3103 4.39712 11.7075 3.25195 11.1152C2.14511 10.5426 1.19629 9.80667 1.19629 8.62638C1.19629 7.44609 2.14511 6.71014 3.25195 6.13759C4.39712 5.54521 6.08494 4.94242 8.23248 4.17545ZM3.94113 7.46989C2.84763 8.03555 2.69629 8.39724 2.69629 8.62638C2.69629 8.85552 2.84763 9.21721 3.94113 9.78286C4.98519 10.3229 6.57621 10.893 8.79954 11.687L10.9069 12.4397C11.622 12.6951 11.8135 12.7528 12 12.7528C12.1865 12.7528 12.3781 12.6951 13.0931 12.4397L15.2005 11.687C17.4239 10.893 19.0149 10.3229 20.059 9.78286C21.1524 9.21721 21.3038 8.85552 21.3038 8.62638C21.3038 8.39723 21.1524 8.03555 20.059 7.46989C19.0149 6.92981 17.4239 6.35978 15.2005 5.56572L13.0931 4.81307C12.3781 4.55769 12.1865 4.5 12 4.5C11.8135 4.5 11.622 4.55769 10.9069 4.81307L8.79954 5.56572C6.57621 6.35978 4.98519 6.92981 3.94113 7.46989ZM1.99993 16.3764C1.58572 16.3764 1.19629 16.0523 1.19629 15.6381V8.62638C1.19629 8.21216 1.58572 7.87638 1.99993 7.87638C2.41415 7.87638 2.69629 8.21216 2.69629 8.62638L2.74993 9.85294V15.6264C2.74993 16.0406 2.41415 16.3764 1.99993 16.3764Z" fill="#2D264B"/>
</svg>
