<svg xmlns="http://www.w3.org/2000/svg" width="24" height="24" viewBox="0 0 24 24">
  <defs/>
  <path fill="#2D264B" d="M4.25,11.425 Q1.196,9.898 1.196,8.626 Q1.196,6.688 8.295,4.153 L10.402,3.4 Q11.524,3 12,3 Q12.476,3 13.597,3.4 L13.598,3.4 L15.705,4.153 Q22.804,6.688 22.804,8.626 Q22.804,10.23 19.75,11.578 L19.75,13.626 Q19.75,16.537 19.468,17.403 Q18.563,20.19 15.777,21.095 Q14.911,21.376 12,21.376 Q9.089,21.376 8.223,21.095 Q5.437,20.19 4.531,17.403 Q4.25,16.537 4.25,13.626 L4.25,11.425 Z M18.718,10.386 Q21.304,9.338 21.304,8.626 Q21.304,7.745 15.201,5.566 L13.093,4.813 L13.093,4.813 Q12.217,4.5 12,4.5 Q11.783,4.5 10.907,4.813 L8.8,5.566 Q2.696,7.745 2.696,8.626 Q2.696,9.507 8.8,11.687 L10.907,12.44 L10.908,12.44 Q11.784,12.753 12,12.753 Q12.216,12.753 13.091,12.44 L13.093,12.44 L15.201,11.687 L15.284,11.657 Q17.795,10.761 18.718,10.386 Z M18.25,12.175 Q17.3,12.53 15.789,13.07 L15.705,13.1 L13.598,13.852 L13.595,13.853 Q12.476,14.253 12,14.253 Q11.524,14.253 10.404,13.853 L10.402,13.852 L8.295,13.1 Q6.882,12.595 5.75,12.114 L5.75,13.626 Q5.75,16.3 5.958,16.94 Q6.627,18.999 8.687,19.668 Q9.327,19.876 12,19.876 Q14.673,19.876 15.313,19.668 Q17.373,18.999 18.042,16.94 Q18.25,16.3 18.25,13.626 L18.25,12.175 Z"/>
  <path fill="#2D264B" d="M8.232,4.175 L10.402,3.4 C10.436,3.389 10.468,3.377 10.5,3.365 C11.07,3.161 11.521,3 12,3 C12.479,3 12.93,3.161 13.5,3.365 C13.532,3.377 13.565,3.389 13.598,3.4 L15.768,4.175 C17.915,4.942 19.603,5.545 20.748,6.138 C21.855,6.71 22.804,7.446 22.804,8.626 C22.804,9.807 21.855,10.543 20.748,11.115 C19.603,11.708 17.915,12.31 15.768,13.077 L13.598,13.852 C13.565,13.864 13.532,13.876 13.5,13.887 C12.93,14.091 12.479,14.253 12,14.253 C11.521,14.253 11.07,14.091 10.5,13.887 C10.468,13.876 10.436,13.864 10.402,13.852 L8.232,13.077 C6.085,12.31 4.397,11.708 3.252,11.115 C3.08,11.026 2.911,10.933 2.75,10.835 L2.75,15.626 C2.75,16.041 2.414,16.376 2,16.376 C1.586,16.376 1.196,16.052 1.196,15.638 L1.196,8.626 C1.196,7.446 2.145,6.71 3.252,6.138 C4.397,5.545 6.085,4.942 8.232,4.175 Z M3.941,7.47 C2.848,8.036 2.696,8.397 2.696,8.626 C2.696,8.212 2.414,7.876 2,7.876 C1.586,7.876 1.196,8.212 1.196,8.626 C1.196,9.623 1.873,10.303 2.75,10.835 L2.75,9.853 L2.698,8.67 C2.719,8.901 2.915,9.252 3.941,9.783 C4.985,10.323 6.576,10.893 8.8,11.687 L10.907,12.44 C11.622,12.695 11.814,12.753 12,12.753 C12.186,12.753 12.378,12.695 13.093,12.44 L15.2,11.687 C17.424,10.893 19.015,10.323 20.059,9.783 C21.152,9.217 21.304,8.856 21.304,8.626 C21.304,8.397 21.152,8.036 20.059,7.47 C19.015,6.93 17.424,6.36 15.2,5.566 L13.093,4.813 C12.378,4.558 12.186,4.5 12,4.5 C11.814,4.5 11.622,4.558 10.907,4.813 L8.8,5.566 C6.576,6.36 4.985,6.93 3.941,7.47 Z M2.698,8.67 C2.697,8.655 2.696,8.641 2.696,8.626 L2.698,8.67 Z"/>
</svg>

