<svg width="24" height="24" viewBox="0 0 24 24" fill="none" xmlns="http://www.w3.org/2000/svg">
<path d="M4.99993 11.0781V13.6264C4.99993 15.4877 4.99993 16.4184 5.24465 17.1715C5.73924 18.6937 6.93266 19.8871 8.45485 20.3817C9.20801 20.6264 10.1387 20.6264 11.9999 20.6264C13.8612 20.6264 14.7919 20.6264 15.545 20.3817C17.0672 19.8871 18.2606 18.6937 18.7552 17.1715C18.9999 16.4184 18.9999 15.4877 18.9999 13.6264V11.0813M18.9999 11.0813C18.0427 11.4693 16.8601 11.8907 15.4528 12.3933L13.3454 13.146C12.6794 13.3838 12.3465 13.5028 12 13.5028C11.6536 13.5028 11.3206 13.3838 10.6547 13.146L8.54728 12.3933C4.14662 10.8217 1.94629 10.0358 1.94629 8.62638C1.94629 7.21695 4.14662 6.4311 8.54728 4.85942L10.6547 4.10677C11.3206 3.86892 11.6536 3.75 12 3.75C12.3465 3.75 12.6794 3.86892 13.3454 4.10677L15.4528 4.85942C19.8535 6.4311 22.0538 7.21695 22.0538 8.62638C22.0538 9.58509 21.0361 10.2561 18.9999 11.0813Z" stroke="#2D264B" stroke-width="1.5"/>
<path d="M10.5005 3.36538L8.23248 4.17545C6.08494 4.94242 4.39712 5.54521 3.25195 6.13759C2.14511 6.71014 1.19629 7.44609 1.19629 8.62638V15.6381C1.19629 16.0523 1.58572 16.3764 1.99993 16.3764C2.41415 16.3764 2.74993 16.0406 2.74993 15.6264V10.8351C2.46167 10.6602 2.19506 10.4693 1.96701 10.2565C1.50122 9.82179 1.19629 9.29549 1.19629 8.62638C1.19629 8.21216 1.58572 7.87638 1.99993 7.87638C2.07344 7.87638 2.14279 7.88695 2.20714 7.90666L2 7.99988L2.15664 8.62643H2.69635C2.69635 8.85558 2.84769 9.21727 3.94119 9.78292C4.98525 10.323 6.57627 10.893 8.7996 11.6871L10.907 12.4397C11.622 12.6951 11.8136 12.7528 12.0001 12.7528C12.1866 12.7528 12.3782 12.6951 13.0932 12.4397L15.271 11.6619C16.6524 11.1686 17.7947 10.7606 18.7183 10.3863C19.7289 9.97669 20.4109 9.63369 20.8337 9.30907C21.2397 8.99736 21.3039 8.78585 21.3039 8.62643H22.8038C22.8038 8.62642 22.8038 8.62645 22.8038 8.62643C22.8038 7.44614 21.855 6.71014 20.7481 6.13759C19.603 5.54521 17.9151 4.94242 15.7676 4.17544L13.4996 3.36539C12.9298 3.16135 12.4793 3 12 3C11.5208 3 11.0703 3.16135 10.5005 3.36538Z" fill="#2D264B"/>
<path d="M22.8006 8.74459C22.7698 9.29407 22.5251 9.74782 22.1636 10.1277C22.5292 9.74561 22.7703 9.29483 22.8006 8.74459Z" fill="#2D264B"/>
</svg>
