<svg xmlns="http://www.w3.org/2000/svg" width="24" height="24" viewBox="0 0 24 24">
  <defs/>
  <path fill="#2D264B" d="M22,12 C22,17.523 17.523,22 12,22 C6.477,22 2,17.523 2,12 C2,6.477 6.477,2 12,2 C17.523,2 22,6.477 22,12 Z M13.559,7.661 C14.128,8.421 14.088,9.475 13.463,10.189 L12.544,11.239 C11.71,12.193 11.25,13.417 11.25,14.683 L11.25,15 C11.25,15.414 11.586,15.75 12,15.75 C12.414,15.75 12.75,15.414 12.75,15 L12.75,14.683 C12.75,13.78 13.078,12.907 13.673,12.227 L14.592,11.177 C15.684,9.929 15.753,8.088 14.759,6.761 C13.061,4.497 9.519,5.072 8.624,7.757 L8.288,8.763 C8.158,9.156 8.37,9.581 8.763,9.712 C9.156,9.842 9.581,9.63 9.712,9.237 L10.047,8.231 C10.559,6.694 12.587,6.365 13.559,7.661 Z M12,19 C12.552,19 13,18.552 13,18 C13,17.448 12.552,17 12,17 C11.448,17 11,17.448 11,18 C11,18.552 11.448,19 12,19 Z"/>
</svg>

