<svg xmlns="http://www.w3.org/2000/svg" width="24" height="24" viewBox="0 0 24 24">
  <defs/>
  <path fill="#2D264B" d="M12,17.75 C12.414,17.75 12.75,17.414 12.75,17 C12.75,16.586 12.414,16.25 12,16.25 L12,17.75 Z M4,16.25 C3.586,16.25 3.25,16.586 3.25,17 C3.25,17.414 3.586,17.75 4,17.75 L4,16.25 Z M12,6.25 C11.586,6.25 11.25,6.586 11.25,7 C11.25,7.414 11.586,7.75 12,7.75 L12,6.25 Z M20,7.75 C20.414,7.75 20.75,7.414 20.75,7 C20.75,6.586 20.414,6.25 20,6.25 L20,7.75 Z M12,16.25 L4,16.25 L4,17.75 L12,17.75 L12,16.25 Z M12,7.75 L20,7.75 L20,6.25 L12,6.25 L12,7.75 Z M3.25,7 C3.25,8.519 4.481,9.75 6,9.75 L6,8.25 C5.31,8.25 4.75,7.69 4.75,7 L3.25,7 Z M6,9.75 C7.519,9.75 8.75,8.519 8.75,7 L7.25,7 C7.25,7.69 6.69,8.25 6,8.25 L6,9.75 Z M8.75,7 C8.75,5.481 7.519,4.25 6,4.25 L6,5.75 C6.69,5.75 7.25,6.31 7.25,7 L8.75,7 Z M6,4.25 C4.481,4.25 3.25,5.481 3.25,7 L4.75,7 C4.75,6.31 5.31,5.75 6,5.75 L6,4.25 Z M20.75,17 C20.75,15.481 19.519,14.25 18,14.25 L18,15.75 C18.69,15.75 19.25,16.31 19.25,17 L20.75,17 Z M18,14.25 C16.481,14.25 15.25,15.481 15.25,17 L16.75,17 C16.75,16.31 17.31,15.75 18,15.75 L18,14.25 Z M15.25,17 C15.25,18.519 16.481,19.75 18,19.75 L18,18.25 C17.31,18.25 16.75,17.69 16.75,17 L15.25,17 Z M18,19.75 C19.519,19.75 20.75,18.519 20.75,17 L19.25,17 C19.25,17.69 18.69,18.25 18,18.25 L18,19.75 Z"/>
</svg>

