<svg xmlns="http://www.w3.org/2000/svg" width="24" height="24" viewBox="0 0 24 24">
  <defs/>
  <path fill="#2D264B" d="M2.25,6.472 Q2.25,4.723 3.487,3.487 Q4.723,2.25 6.472,2.25 L17.584,2.25 Q19.31,2.25 20.53,3.47 Q21.75,4.69 21.75,6.416 Q21.75,8.348 20.275,9.596 L16.755,12.575 Q15.25,13.848 15.25,15.819 L15.25,17.6 Q15.25,19.382 13.809,20.43 L11.867,21.842 Q10.738,22.663 9.494,22.03 Q8.25,21.396 8.25,20 L8.25,15.7 Q8.25,13.83 6.872,12.567 L3.619,9.585 Q2.25,8.33 2.25,6.472 Z M3.75,6.472 Q3.75,7.67 4.633,8.479 L7.885,11.461 Q9.75,13.17 9.75,15.7 L9.75,20 Q9.75,20.477 10.175,20.693 Q10.6,20.909 10.985,20.629 L12.926,19.217 Q13.75,18.618 13.75,17.6 L13.75,15.819 Q13.75,13.152 15.786,11.43 L19.306,8.451 Q20.25,7.652 20.25,6.416 Q20.25,3.75 17.584,3.75 L6.472,3.75 Q5.111,3.75 4.431,4.431 Q3.75,5.111 3.75,6.472 Z"/>
</svg>

