<svg xmlns="http://www.w3.org/2000/svg" width="24" height="24" viewBox="0 0 24 24">
  <defs/>
  <path fill="#2D264B" d="M13.75,8 C13.75,7.31 14.31,6.75 15,6.75 C15.69,6.75 16.25,7.31 16.25,8 C16.25,8.69 15.69,9.25 15,9.25 C14.31,9.25 13.75,8.69 13.75,8 Z"/>
  <path fill="#2D264B" d="M7.75,16 C7.75,15.31 8.31,14.75 9,14.75 C9.69,14.75 10.25,15.31 10.25,16 C10.25,16.69 9.69,17.25 9,17.25 C8.31,17.25 7.75,16.69 7.75,16 Z"/>
  <path fill="#2D264B" d="M16.463,2.374 C17.629,2.5 18.573,2.762 19.38,3.348 C19.868,3.703 20.297,4.132 20.652,4.62 C21.238,5.427 21.5,6.371 21.626,7.536 C21.75,8.679 21.75,10.118 21.75,11.955 L21.75,12.045 C21.75,13.882 21.75,15.321 21.626,16.463 C21.5,17.629 21.238,18.573 20.652,19.38 C20.297,19.868 19.868,20.297 19.38,20.652 C18.573,21.238 17.629,21.5 16.463,21.626 C15.321,21.75 13.882,21.75 12.045,21.75 L11.955,21.75 C10.118,21.75 8.679,21.75 7.536,21.626 C6.371,21.5 5.427,21.238 4.62,20.652 C4.132,20.297 3.703,19.868 3.348,19.38 C2.762,18.573 2.5,17.629 2.374,16.463 C2.25,15.321 2.25,13.882 2.25,12.045 L2.25,11.955 C2.25,10.118 2.25,8.679 2.374,7.536 C2.5,6.371 2.762,5.427 3.348,4.62 C3.703,4.132 4.132,3.703 4.62,3.348 C5.427,2.762 6.371,2.5 7.536,2.374 C8.679,2.25 10.118,2.25 11.955,2.25 L12.045,2.25 C13.882,2.25 15.321,2.25 16.463,2.374 Z M15,5.25 C13.481,5.25 12.25,6.481 12.25,8 C12.25,9.519 13.481,10.75 15,10.75 C16.519,10.75 17.75,9.519 17.75,8 C17.75,6.481 16.519,5.25 15,5.25 Z M9,13.25 C7.481,13.25 6.25,14.481 6.25,16 C6.25,17.519 7.481,18.75 9,18.75 C10.519,18.75 11.75,17.519 11.75,16 C11.75,14.481 10.519,13.25 9,13.25 Z M15.75,12 C15.75,11.586 15.414,11.25 15,11.25 C14.586,11.25 14.25,11.586 14.25,12 L14.25,18 C14.25,18.414 14.586,18.75 15,18.75 C15.414,18.75 15.75,18.414 15.75,18 Z M9.75,6 C9.75,5.586 9.414,5.25 9,5.25 C8.586,5.25 8.25,5.586 8.25,6 L8.25,12 C8.25,12.414 8.586,12.75 9,12.75 C9.414,12.75 9.75,12.414 9.75,12 Z"/>
</svg>

