<svg width="24" height="24" viewBox="0 0 24 24" fill="none" xmlns="http://www.w3.org/2000/svg">
<path d="M3.25 7C3.25 5.48122 4.48122 4.25 6 4.25C7.51878 4.25 8.75 5.48122 8.75 7C8.75 8.51878 7.51878 9.75 6 9.75C4.48122 9.75 3.25 8.51878 3.25 7Z" fill="#2D264B"/>
<path d="M11.25 7C11.25 6.58579 11.5858 6.25 12 6.25L20 6.25C20.4142 6.25 20.75 6.58579 20.75 7C20.75 7.41421 20.4142 7.75 20 7.75L12 7.75C11.5858 7.75 11.25 7.41421 11.25 7Z" fill="#2D264B"/>
<path d="M18 14.25C16.4812 14.25 15.25 15.4812 15.25 17C15.25 18.5188 16.4812 19.75 18 19.75C19.5188 19.75 20.75 18.5188 20.75 17C20.75 15.4812 19.5188 14.25 18 14.25Z" fill="#2D264B"/>
<path d="M3.25 17C3.25 16.5858 3.58579 16.25 4 16.25L12 16.25C12.4142 16.25 12.75 16.5858 12.75 17C12.75 17.4142 12.4142 17.75 12 17.75L4 17.75C3.58579 17.75 3.25 17.4142 3.25 17Z" fill="#2D264B"/>
</svg>
