<svg xmlns="http://www.w3.org/2000/svg" width="24" height="24" viewBox="0 0 24 24">
  <defs/>
  <path fill="#2D264B" d="M3.25,7 C3.25,5.481 4.481,4.25 6,4.25 C7.519,4.25 8.75,5.481 8.75,7 C8.75,8.519 7.519,9.75 6,9.75 C4.481,9.75 3.25,8.519 3.25,7 Z"/>
  <path fill="#2D264B" d="M11.25,7 C11.25,6.586 11.586,6.25 12,6.25 L20,6.25 C20.414,6.25 20.75,6.586 20.75,7 C20.75,7.414 20.414,7.75 20,7.75 L12,7.75 C11.586,7.75 11.25,7.414 11.25,7 Z"/>
  <path fill="#2D264B" d="M18,14.25 C16.481,14.25 15.25,15.481 15.25,17 C15.25,18.519 16.481,19.75 18,19.75 C19.519,19.75 20.75,18.519 20.75,17 C20.75,15.481 19.519,14.25 18,14.25 Z"/>
  <path fill="#2D264B" d="M3.25,17 C3.25,16.586 3.586,16.25 4,16.25 L12,16.25 C12.414,16.25 12.75,16.586 12.75,17 C12.75,17.414 12.414,17.75 12,17.75 L4,17.75 C3.586,17.75 3.25,17.414 3.25,17 Z"/>
</svg>

