<svg width="24" height="24" viewBox="0 0 24 24" fill="none" xmlns="http://www.w3.org/2000/svg">
<path d="M6.47246 2.25C4.16114 2.25 2.25 4.07558 2.25 6.37307C2.25 7.53648 2.75289 8.64108 3.62728 9.41967L6.87987 12.3159C7.75613 13.0961 8.25 14.1925 8.25 15.336V19.5134C8.25 21.3745 10.3855 22.367 11.859 21.3261L13.8002 19.9547C14.7061 19.3147 15.25 18.2855 15.25 17.1817V15.4521C15.25 14.2522 15.7936 13.107 16.7465 12.3238L20.2668 9.43032C21.2037 8.66027 21.75 7.52281 21.75 6.318C21.75 4.05092 19.8642 2.25 17.5842 2.25H6.47246Z" fill="#2D264B"/>
</svg>
