<svg xmlns="http://www.w3.org/2000/svg" width="24" height="24" viewBox="0 0 24 24">
  <defs/>
  <path fill="#2D264B" d="M12,4.25 C11.586,4.25 11.25,4.586 11.25,5 C11.25,5.414 11.586,5.75 12,5.75 L12,4.25 Z M20,5.75 C20.414,5.75 20.75,5.414 20.75,5 C20.75,4.586 20.414,4.25 20,4.25 L20,5.75 Z M12,18.25 C11.586,18.25 11.25,18.586 11.25,19 C11.25,19.414 11.586,19.75 12,19.75 L12,18.25 Z M20,19.75 C20.414,19.75 20.75,19.414 20.75,19 C20.75,18.586 20.414,18.25 20,18.25 L20,19.75 Z M12,12.75 C12.414,12.75 12.75,12.414 12.75,12 C12.75,11.586 12.414,11.25 12,11.25 L12,12.75 Z M4,11.25 C3.586,11.25 3.25,11.586 3.25,12 C3.25,12.414 3.586,12.75 4,12.75 L4,11.25 Z M12,5.75 L20,5.75 L20,4.25 L12,4.25 L12,5.75 Z M12,19.75 L20,19.75 L20,18.25 L12,18.25 L12,19.75 Z M12,11.25 L4,11.25 L4,12.75 L12,12.75 L12,11.25 Z M3.25,5 C3.25,6.519 4.481,7.75 6,7.75 L6,6.25 C5.31,6.25 4.75,5.69 4.75,5 L3.25,5 Z M6,7.75 C7.519,7.75 8.75,6.519 8.75,5 L7.25,5 C7.25,5.69 6.69,6.25 6,6.25 L6,7.75 Z M8.75,5 C8.75,3.481 7.519,2.25 6,2.25 L6,3.75 C6.69,3.75 7.25,4.31 7.25,5 L8.75,5 Z M6,2.25 C4.481,2.25 3.25,3.481 3.25,5 L4.75,5 C4.75,4.31 5.31,3.75 6,3.75 L6,2.25 Z M3.25,19 C3.25,20.519 4.481,21.75 6,21.75 L6,20.25 C5.31,20.25 4.75,19.69 4.75,19 L3.25,19 Z M6,21.75 C7.519,21.75 8.75,20.519 8.75,19 L7.25,19 C7.25,19.69 6.69,20.25 6,20.25 L6,21.75 Z M8.75,19 C8.75,17.481 7.519,16.25 6,16.25 L6,17.75 C6.69,17.75 7.25,18.31 7.25,19 L8.75,19 Z M6,16.25 C4.481,16.25 3.25,17.481 3.25,19 L4.75,19 C4.75,18.31 5.31,17.75 6,17.75 L6,16.25 Z M20.75,12 C20.75,10.481 19.519,9.25 18,9.25 L18,10.75 C18.69,10.75 19.25,11.31 19.25,12 L20.75,12 Z M18,9.25 C16.481,9.25 15.25,10.481 15.25,12 L16.75,12 C16.75,11.31 17.31,10.75 18,10.75 L18,9.25 Z M15.25,12 C15.25,13.519 16.481,14.75 18,14.75 L18,13.25 C17.31,13.25 16.75,12.69 16.75,12 L15.25,12 Z M18,14.75 C19.519,14.75 20.75,13.519 20.75,12 L19.25,12 C19.25,12.69 18.69,13.25 18,13.25 L18,14.75 Z"/>
</svg>

