<svg xmlns="http://www.w3.org/2000/svg" width="24" height="24" viewBox="0 0 24 24">
  <defs/>
  <path fill="#2D264B" d="M3.25,5 C3.25,3.481 4.481,2.25 6,2.25 C7.519,2.25 8.75,3.481 8.75,5 C8.75,6.519 7.519,7.75 6,7.75 C4.481,7.75 3.25,6.519 3.25,5 Z"/>
  <path fill="#2D264B" d="M11.25,5 C11.25,4.586 11.586,4.25 12,4.25 L20,4.25 C20.414,4.25 20.75,4.586 20.75,5 C20.75,5.414 20.414,5.75 20,5.75 L12,5.75 C11.586,5.75 11.25,5.414 11.25,5 Z"/>
  <path fill="#2D264B" d="M15.25,12 C15.25,10.481 16.481,9.25 18,9.25 C19.519,9.25 20.75,10.481 20.75,12 C20.75,13.519 19.519,14.75 18,14.75 C16.481,14.75 15.25,13.519 15.25,12 Z"/>
  <path fill="#2D264B" d="M3.25,12 C3.25,11.586 3.586,11.25 4,11.25 L12,11.25 C12.414,11.25 12.75,11.586 12.75,12 C12.75,12.414 12.414,12.75 12,12.75 L4,12.75 C3.586,12.75 3.25,12.414 3.25,12 Z"/>
  <path fill="#2D264B" d="M3.25,19 C3.25,17.481 4.481,16.25 6,16.25 C7.519,16.25 8.75,17.481 8.75,19 C8.75,20.519 7.519,21.75 6,21.75 C4.481,21.75 3.25,20.519 3.25,19 Z"/>
  <path fill="#2D264B" d="M11.25,19 C11.25,18.586 11.586,18.25 12,18.25 L20,18.25 C20.414,18.25 20.75,18.586 20.75,19 C20.75,19.414 20.414,19.75 20,19.75 L12,19.75 C11.586,19.75 11.25,19.414 11.25,19 Z"/>
</svg>

