<svg xmlns="http://www.w3.org/2000/svg" width="24" height="24" viewBox="0 0 24 24">
  <defs/>
  <path fill="#2D264B" d="M16,7.75 C16.414,7.75 16.75,7.414 16.75,7 C16.75,6.586 16.414,6.25 16,6.25 L16,7.75 Z M8,6.25 C7.586,6.25 7.25,6.586 7.25,7 C7.25,7.414 7.586,7.75 8,7.75 L8,6.25 Z M6.472,3.75 L17.584,3.75 L17.584,2.25 L6.472,2.25 L6.472,3.75 Z M12.935,18.73 L10.993,20.101 L11.859,21.326 L13.8,19.955 L12.935,18.73 Z M9.75,19.513 L9.75,15.336 L8.25,15.336 L8.25,19.513 L9.75,19.513 Z M7.877,11.196 L4.625,8.299 L3.627,9.42 L6.88,12.316 L7.877,11.196 Z M19.314,8.272 L15.794,11.165 L16.747,12.324 L20.267,9.43 L19.314,8.272 Z M13.75,15.452 L13.75,17.182 L15.25,17.182 L15.25,15.452 L13.75,15.452 Z M15.794,11.165 C14.502,12.227 13.75,13.795 13.75,15.452 L15.25,15.452 C15.25,14.252 15.794,13.107 16.747,12.324 L15.794,11.165 Z M9.75,15.336 C9.75,13.757 9.067,12.255 7.877,11.196 L6.88,12.316 C7.756,13.096 8.25,14.193 8.25,15.336 L9.75,15.336 Z M13.8,19.955 C14.706,19.315 15.25,18.285 15.25,17.182 L13.75,17.182 C13.75,17.787 13.452,18.364 12.935,18.73 L13.8,19.955 Z M10.993,20.101 C10.447,20.487 9.75,20.078 9.75,19.513 L8.25,19.513 C8.25,21.375 10.386,22.367 11.859,21.326 L10.993,20.101 Z M2.25,6.373 C2.25,7.536 2.753,8.641 3.627,9.42 L4.625,8.299 C4.064,7.8 3.75,7.101 3.75,6.373 L2.25,6.373 Z M20.25,6.318 C20.25,7.065 19.912,7.781 19.314,8.272 L20.267,9.43 C21.204,8.66 21.75,7.523 21.75,6.318 L20.25,6.318 Z M17.584,3.75 C19.077,3.75 20.25,4.92 20.25,6.318 L21.75,6.318 C21.75,4.051 19.864,2.25 17.584,2.25 L17.584,3.75 Z M6.472,2.25 C4.161,2.25 2.25,4.076 2.25,6.373 L3.75,6.373 C3.75,4.945 4.948,3.75 6.472,3.75 L6.472,2.25 Z M16,6.25 L8,6.25 L8,7.75 L16,7.75 L16,6.25 Z"/>
</svg>

