<svg xmlns="http://www.w3.org/2000/svg" width="24" height="24" viewBox="0 0 24 24">
  <defs/>
  <path fill="#2D264B" d="M6.472,2.25 C4.161,2.25 2.25,4.076 2.25,6.373 C2.25,7.536 2.753,8.641 3.627,9.42 L6.88,12.316 C7.756,13.096 8.25,14.193 8.25,15.336 L8.25,19.513 C8.25,21.375 10.386,22.367 11.859,21.326 L13.8,19.955 C14.706,19.315 15.25,18.285 15.25,17.182 L15.25,15.452 C15.25,14.252 15.794,13.107 16.747,12.324 L20.267,9.43 C21.204,8.66 21.75,7.523 21.75,6.318 C21.75,4.051 19.864,2.25 17.584,2.25 L6.472,2.25 Z"/>
</svg>

