<svg width="24" height="24" viewBox="0 0 24 24" fill="none" xmlns="http://www.w3.org/2000/svg">
<path d="M13.75 7.99996C13.75 7.30961 14.3096 6.74996 15 6.74996C15.6904 6.74996 16.25 7.30961 16.25 7.99996C16.25 8.69032 15.6904 9.24996 15 9.24996C14.3096 9.24996 13.75 8.69032 13.75 7.99996Z" fill="#2D264B"/>
<path d="M7.75 16C7.75 15.3096 8.30964 14.75 9 14.75C9.69036 14.75 10.25 15.3096 10.25 16C10.25 16.6903 9.69036 17.25 9 17.25C8.30964 17.25 7.75 16.6903 7.75 16Z" fill="#2D264B"/>
<path fill-rule="evenodd" clip-rule="evenodd" d="M16.4635 2.37373C15.3214 2.24999 13.8818 2.24999 12.0452 2.25H11.9548C10.1182 2.24999 8.67861 2.24999 7.53648 2.37373C6.37094 2.50001 5.42656 2.76232 4.62024 3.34815C4.13209 3.70281 3.70281 4.13209 3.34815 4.62024C2.76232 5.42656 2.50001 6.37094 2.37373 7.53648C2.24999 8.67861 2.24999 10.1182 2.25 11.9548V12.0452C2.24999 13.8818 2.24999 15.3214 2.37373 16.4635C2.50001 17.6291 2.76232 18.5734 3.34815 19.3798C3.70281 19.8679 4.13209 20.2972 4.62024 20.6518C5.42656 21.2377 6.37094 21.5 7.53648 21.6263C8.67859 21.75 10.1182 21.75 11.9547 21.75H12.0453C13.8818 21.75 15.3214 21.75 16.4635 21.6263C17.6291 21.5 18.5734 21.2377 19.3798 20.6518C19.8679 20.2972 20.2972 19.8679 20.6518 19.3798C21.2377 18.5734 21.5 17.6291 21.6263 16.4635C21.75 15.3214 21.75 13.8818 21.75 12.0453V11.9547C21.75 10.1182 21.75 8.67859 21.6263 7.53648C21.5 6.37094 21.2377 5.42656 20.6518 4.62024C20.2972 4.13209 19.8679 3.70281 19.3798 3.34815C18.5734 2.76232 17.6291 2.50001 16.4635 2.37373ZM15 5.24996C13.4812 5.24996 12.25 6.48118 12.25 7.99996C12.25 9.51874 13.4812 10.75 15 10.75C16.5188 10.75 17.75 9.51875 17.75 7.99996C17.75 6.48118 16.5188 5.24996 15 5.24996ZM9.75005 6C9.75005 5.58579 9.41427 5.25 9.00005 5.25C8.58584 5.25 8.25005 5.58579 8.25005 6L8.25005 12C8.25005 12.4142 8.58584 12.75 9.00005 12.75C9.41427 12.75 9.75005 12.4142 9.75005 12L9.75005 6ZM15.7501 12C15.7501 11.5858 15.4143 11.25 15.0001 11.25C14.5858 11.25 14.2501 11.5858 14.2501 12V18C14.2501 18.4142 14.5858 18.75 15.0001 18.75C15.4143 18.75 15.7501 18.4142 15.7501 18V12ZM9 13.25C7.48122 13.25 6.25 14.4812 6.25 16C6.25 17.5187 7.48122 18.75 9 18.75C10.5188 18.75 11.75 17.5187 11.75 16C11.75 14.4812 10.5188 13.25 9 13.25Z" fill="#2D264B"/>
</svg>
