<svg xmlns="http://www.w3.org/2000/svg" width="24" height="24" viewBox="0 0 24 24">
  <defs/>
  <path fill="#2D264B" d="M2.25,6.373 C2.25,4.076 4.161,2.25 6.472,2.25 L17.584,2.25 C19.864,2.25 21.75,4.051 21.75,6.318 C21.75,7.523 21.204,8.66 20.267,9.43 L16.747,12.324 C15.794,13.107 15.25,14.252 15.25,15.452 L15.25,17.182 C15.25,18.285 14.706,19.315 13.8,19.955 L11.859,21.326 C10.385,22.367 8.25,21.375 8.25,19.513 L8.25,15.336 C8.25,14.193 7.756,13.096 6.88,12.316 L3.627,9.42 C2.753,8.641 2.25,7.536 2.25,6.373 Z M8,6.25 C7.586,6.25 7.25,6.586 7.25,7 C7.25,7.414 7.586,7.75 8,7.75 L16,7.75 C16.414,7.75 16.75,7.414 16.75,7 C16.75,6.586 16.414,6.25 16,6.25 Z"/>
</svg>

