<svg xmlns="http://www.w3.org/2000/svg" width="24" height="24" viewBox="0 0 24 24">
  <defs/>
  <path fill="#2D264B" d="M10.75,5 C10.75,4.586 10.414,4.25 10,4.25 C9.586,4.25 9.25,4.586 9.25,5 L10.75,5 Z M9.25,7 C9.25,7.414 9.586,7.75 10,7.75 C10.414,7.75 10.75,7.414 10.75,7 L9.25,7 Z M14.75,5 C14.75,4.586 14.414,4.25 14,4.25 C13.586,4.25 13.25,4.586 13.25,5 L14.75,5 Z M13.25,7 C13.25,7.414 13.586,7.75 14,7.75 C14.414,7.75 14.75,7.414 14.75,7 L13.25,7 Z M2.5,13 L2.385,13.741 L2.389,13.742 L2.5,13 Z M10,2.75 L14,2.75 L14,1.25 L10,1.25 L10,2.75 Z M17.25,6 L17.25,9 L18.75,9 L18.75,6 L17.25,6 Z M6.75,9 L6.75,6 L5.25,6 L5.25,9 L6.75,9 Z M10,1.25 C9.078,1.25 8.312,1.248 7.706,1.33 C7.078,1.414 6.511,1.6 6.055,2.055 L7.116,3.116 C7.246,2.986 7.444,2.879 7.905,2.817 C8.388,2.752 9.036,2.75 10,2.75 L10,1.25 Z M6.75,6 C6.75,5.036 6.752,4.388 6.817,3.905 C6.879,3.444 6.986,3.246 7.116,3.116 L6.055,2.055 C5.6,2.511 5.414,3.078 5.33,3.706 C5.248,4.312 5.25,5.078 5.25,6 L6.75,6 Z M14,2.75 C14.964,2.75 15.612,2.752 16.095,2.817 C16.556,2.879 16.754,2.986 16.884,3.116 L17.945,2.055 C17.489,1.6 16.922,1.414 16.294,1.33 C15.688,1.248 14.922,1.25 14,1.25 L14,2.75 Z M18.75,6 C18.75,5.078 18.752,4.312 18.67,3.706 C18.586,3.078 18.4,2.511 17.945,2.055 L16.884,3.116 C17.014,3.246 17.121,3.444 17.183,3.905 C17.248,4.388 17.25,5.036 17.25,6 L18.75,6 Z M15.5,21.25 L8.5,21.25 L8.5,22.75 L15.5,22.75 L15.5,21.25 Z M8.5,9.75 L15.5,9.75 L15.5,8.25 L8.5,8.25 L8.5,9.75 Z M2.867,13.008 C3.241,11.454 4.454,10.241 6.008,9.867 L5.658,8.409 C3.555,8.914 1.914,10.555 1.409,12.658 L2.867,13.008 Z M8.5,21.25 C7.062,21.25 6.475,21.245 6.008,21.133 L5.658,22.591 C6.341,22.755 7.149,22.75 8.5,22.75 L8.5,21.25 Z M1.25,15.5 C1.25,16.851 1.245,17.659 1.409,18.342 L2.867,17.992 C2.755,17.525 2.75,16.938 2.75,15.5 L1.25,15.5 Z M6.008,21.133 C4.454,20.759 3.241,19.546 2.867,17.992 L1.409,18.342 C1.914,20.445 3.555,22.086 5.658,22.591 L6.008,21.133 Z M21.25,15.5 C21.25,16.938 21.245,17.525 21.133,17.992 L22.591,18.342 C22.755,17.659 22.75,16.851 22.75,15.5 L21.25,15.5 Z M15.5,22.75 C16.851,22.75 17.659,22.755 18.342,22.591 L17.992,21.133 C17.525,21.245 16.938,21.25 15.5,21.25 L15.5,22.75 Z M21.133,17.992 C20.759,19.546 19.546,20.759 17.992,21.133 L18.342,22.591 C20.445,22.086 22.086,20.445 22.591,18.342 L21.133,17.992 Z M22.591,12.658 C22.086,10.555 20.445,8.914 18.342,8.409 L17.992,9.867 C19.546,10.241 20.759,11.454 21.133,13.008 L22.591,12.658 Z M9.25,5 L9.25,7 L10.75,7 L10.75,5 L9.25,5 Z M13.25,5 L13.25,7 L14.75,7 L14.75,5 L13.25,5 Z M4.999,12.617 L2.611,12.258 L2.389,13.742 L4.777,14.1 L4.999,12.617 Z M19.986,12.559 C15.023,13.342 9.969,13.362 4.999,12.617 L4.777,14.1 C9.897,14.868 15.105,14.848 20.22,14.04 L19.986,12.559 Z M2.75,15.5 C2.75,14.153 2.754,13.554 2.849,13.091 L1.38,12.789 C1.246,13.439 1.25,14.228 1.25,15.5 L2.75,15.5 Z M2.849,13.091 C2.855,13.062 2.861,13.035 2.867,13.008 L1.409,12.658 C1.398,12.701 1.389,12.745 1.38,12.789 L2.849,13.091 Z M2.615,12.259 L2.23,12.199 L1.999,13.681 L2.385,13.741 L2.615,12.259 Z M21.783,12.275 L19.986,12.559 L20.22,14.04 L22.017,13.757 L21.783,12.275 Z M22.75,15.5 C22.75,14.283 22.753,13.509 22.638,12.881 L21.163,13.151 C21.247,13.611 21.25,14.216 21.25,15.5 L22.75,15.5 Z M22.638,12.881 C22.624,12.805 22.609,12.731 22.591,12.658 L21.133,13.008 C21.143,13.053 21.154,13.101 21.163,13.151 L22.638,12.881 Z M15.5,9.75 C16.797,9.75 17.401,9.753 17.862,9.84 L18.138,8.365 C17.506,8.247 16.728,8.25 15.5,8.25 L15.5,9.75 Z M17.862,9.84 C17.907,9.848 17.95,9.857 17.992,9.867 L18.342,8.409 C18.275,8.393 18.207,8.378 18.138,8.365 L17.862,9.84 Z M17.25,9 L17.25,9.103 L18.75,9.103 L18.75,9 L17.25,9 Z M8.5,8.25 C7.272,8.25 6.494,8.247 5.862,8.365 L6.138,9.84 C6.599,9.753 7.203,9.75 8.5,9.75 L8.5,8.25 Z M5.862,8.365 C5.793,8.378 5.725,8.393 5.658,8.409 L6.008,9.867 C6.05,9.857 6.093,9.848 6.138,9.84 L5.862,8.365 Z M5.25,9 L5.25,9.102 L6.75,9.102 L6.75,9 L5.25,9 Z"/>
</svg>

