<svg xmlns="http://www.w3.org/2000/svg" width="24" height="24" viewBox="0 0 24 24">
  <defs/>
  <path fill="#2D264B" d="M18,8.131 C17.195,8 16.134,8 14.5,8 L9.5,8 C7.866,8 6.805,8 6,8.131 C5.657,8.187 5.361,8.267 5.087,8.381 C3.861,8.888 2.888,9.861 2.381,11.087 C2.176,11.581 2.156,12.185 2.156,12.185 L2.615,12.259 L4.999,12.617 C9.969,13.362 15.023,13.342 19.986,12.559 L21.883,12.259 C21.883,12.259 21.798,11.519 21.619,11.087 C21.112,9.861 20.139,8.888 18.913,8.381 C18.639,8.267 18.343,8.187 18,8.131 Z"/>
  <path fill="#2D264B" d="M21.991,13.761 L20.22,14.04 C15.105,14.848 9.897,14.868 4.777,14.1 L2.381,13.741 L2.011,13.681 C2,14.198 2,14.796 2,15.5 C2,17.83 2,18.995 2.381,19.913 C2.888,21.139 3.861,22.112 5.087,22.619 C6.005,23 7.17,23 9.5,23 L14.5,23 C16.83,23 17.995,23 18.913,22.619 C20.139,22.112 21.112,21.139 21.619,19.913 C22,18.995 22,17.83 22,15.5 C22,14.832 22,14.259 21.991,13.761 Z"/>
  <path fill="#2D264B" d="M14,1 C15.886,1 16.828,1 17.414,1.586 C18,2.172 18,3.114 18,5 L18,7.373 C17.152,7.25 16.071,7.25 14.579,7.25 L9.421,7.25 C7.929,7.25 6.848,7.25 6,7.373 L6,5 C6,3.114 6,2.172 6.586,1.586 C7.172,1 8.114,1 10,1 Z M10,3.25 C9.586,3.25 9.25,3.586 9.25,4 L9.25,6 C9.25,6.414 9.586,6.75 10,6.75 C10.414,6.75 10.75,6.414 10.75,6 L10.75,4 C10.75,3.586 10.414,3.25 10,3.25 Z M14,3.25 C13.586,3.25 13.25,3.586 13.25,4 L13.25,6 C13.25,6.414 13.586,6.75 14,6.75 C14.414,6.75 14.75,6.414 14.75,6 L14.75,4 C14.75,3.586 14.414,3.25 14,3.25 Z"/>
</svg>

