<svg xmlns="http://www.w3.org/2000/svg" width="24" height="24" viewBox="0 0 24 24">
  <defs/>
  <path fill="#2D264B" d="M9.948,1.25 L14.052,1.25 C14.95,1.25 15.7,1.25 16.295,1.33 C16.922,1.414 17.489,1.6 17.944,2.055 C18.4,2.511 18.586,3.078 18.67,3.706 C18.75,4.3 18.75,5.048 18.75,5.945 L18.75,8.523 C18.616,8.48 18.48,8.442 18.342,8.409 C18.275,8.393 18.207,8.378 18.138,8.365 C17.522,8.25 16.769,8.25 15.596,8.25 L8.404,8.25 C7.231,8.25 6.477,8.25 5.862,8.365 C5.793,8.378 5.725,8.393 5.658,8.409 C5.52,8.442 5.384,8.48 5.25,8.523 L5.25,5.948 C5.25,5.049 5.25,4.3 5.33,3.706 C5.414,3.078 5.6,2.511 6.055,2.055 C6.511,1.6 7.078,1.414 7.706,1.33 C8.3,1.25 9.05,1.25 9.948,1.25 Z M10.75,5 C10.75,4.586 10.414,4.25 10,4.25 C9.586,4.25 9.25,4.586 9.25,5 L9.25,7 C9.25,7.414 9.586,7.75 10,7.75 C10.414,7.75 10.75,7.414 10.75,7 Z M14.75,5 C14.75,4.586 14.414,4.25 14,4.25 C13.586,4.25 13.25,4.586 13.25,5 L13.25,7 C13.25,7.414 13.586,7.75 14,7.75 C14.414,7.75 14.75,7.414 14.75,7 Z"/>
  <path fill="#2D264B" d="M15.5,9 C16.762,9 17.453,9 18,9.103 C18.057,9.113 18.113,9.125 18.167,9.138 C19.81,9.532 21.129,10.725 21.698,12.288 L19.986,12.559 C15.023,13.342 9.968,13.362 4.999,12.617 L2.613,12.259 L2.33,12.214 C2.913,10.687 4.216,9.526 5.833,9.138 C5.887,9.125 5.943,9.113 6,9.103 C6.547,9 7.238,9 8.5,9 L15.5,9 Z"/>
  <path fill="#2D264B" d="M2.026,13.685 C2,14.134 2,14.703 2,15.5 C2,16.895 2,17.592 2.138,18.167 C2.577,19.995 4.005,21.423 5.833,21.862 C6.408,22 7.105,22 8.5,22 L15.5,22 C16.895,22 17.592,22 18.167,21.862 C19.995,21.423 21.423,19.995 21.862,18.167 C22,17.592 22,16.895 22,15.5 C22,14.748 22,14.199 21.978,13.763 L20.22,14.04 C15.105,14.848 9.897,14.868 4.777,14.1 L2.385,13.741 L2.026,13.685 Z"/>
</svg>

