<svg xmlns="http://www.w3.org/2000/svg" width="24" height="24" viewBox="0 0 24 24">
  <defs/>
  <path fill="#2D264B" d="M10.75,4 C10.75,3.586 10.414,3.25 10,3.25 C9.586,3.25 9.25,3.586 9.25,4 L10.75,4 Z M9.25,6 C9.25,6.414 9.586,6.75 10,6.75 C10.414,6.75 10.75,6.414 10.75,6 L9.25,6 Z M14.75,4 C14.75,3.586 14.414,3.25 14,3.25 C13.586,3.25 13.25,3.586 13.25,4 L14.75,4 Z M13.25,6 C13.25,6.414 13.586,6.75 14,6.75 C14.414,6.75 14.75,6.414 14.75,6 L13.25,6 Z M2.5,13 L2.381,13.741 L2.389,13.742 L2.5,13 Z M10,1.75 L14,1.75 L14,0.25 L10,0.25 L10,1.75 Z M17.25,5 L17.25,8 L18.75,8 L18.75,5 L17.25,5 Z M6.75,8 L6.75,5 L5.25,5 L5.25,8 L6.75,8 Z M10,0.25 C9.078,0.25 8.312,0.248 7.706,0.33 C7.078,0.414 6.511,0.6 6.055,1.055 L7.116,2.116 C7.246,1.986 7.444,1.879 7.905,1.817 C8.388,1.752 9.036,1.75 10,1.75 L10,0.25 Z M6.75,5 C6.75,4.036 6.752,3.388 6.817,2.905 C6.879,2.444 6.986,2.246 7.116,2.116 L6.055,1.055 C5.6,1.511 5.414,2.078 5.33,2.706 C5.248,3.312 5.25,4.078 5.25,5 L6.75,5 Z M14,1.75 C14.964,1.75 15.612,1.752 16.095,1.817 C16.556,1.879 16.754,1.986 16.884,2.116 L17.945,1.055 C17.489,0.6 16.922,0.414 16.294,0.33 C15.688,0.248 14.922,0.25 14,0.25 L14,1.75 Z M18.75,5 C18.75,4.078 18.752,3.312 18.67,2.706 C18.586,2.078 18.4,1.511 17.945,1.055 L16.884,2.116 C17.014,2.246 17.121,2.444 17.183,2.905 C17.248,3.388 17.25,4.036 17.25,5 L18.75,5 Z M14.5,22.25 L9.5,22.25 L9.5,23.75 L14.5,23.75 L14.5,22.25 Z M9.5,8.75 L14.5,8.75 L14.5,7.25 L9.5,7.25 L9.5,8.75 Z M3.074,11.374 C3.505,10.332 4.332,9.505 5.374,9.074 L4.8,7.688 C3.391,8.271 2.271,9.391 1.688,10.8 L3.074,11.374 Z M9.5,22.25 C8.325,22.25 7.481,22.25 6.815,22.204 C6.156,22.159 5.726,22.073 5.374,21.927 L4.8,23.312 C5.366,23.547 5.978,23.651 6.713,23.701 C7.442,23.75 8.345,23.75 9.5,23.75 L9.5,22.25 Z M1.25,15.5 C1.25,16.655 1.25,17.558 1.299,18.287 C1.349,19.022 1.453,19.634 1.688,20.2 L3.074,19.626 C2.927,19.274 2.841,18.844 2.796,18.185 C2.75,17.519 2.75,16.675 2.75,15.5 L1.25,15.5 Z M5.374,21.927 C4.332,21.495 3.505,20.668 3.074,19.626 L1.688,20.2 C2.271,21.609 3.391,22.729 4.8,23.312 L5.374,21.927 Z M21.25,15.5 C21.25,16.675 21.25,17.519 21.204,18.185 C21.159,18.844 21.073,19.274 20.927,19.626 L22.312,20.2 C22.547,19.634 22.651,19.022 22.701,18.287 C22.75,17.558 22.75,16.655 22.75,15.5 L21.25,15.5 Z M14.5,23.75 C15.655,23.75 16.558,23.75 17.287,23.701 C18.022,23.651 18.634,23.547 19.2,23.312 L18.626,21.927 C18.274,22.073 17.844,22.159 17.185,22.204 C16.519,22.25 15.675,22.25 14.5,22.25 L14.5,23.75 Z M20.927,19.626 C20.495,20.668 19.668,21.495 18.626,21.927 L19.2,23.312 C20.609,22.729 21.729,21.609 22.312,20.2 L20.927,19.626 Z M22.312,10.8 C21.729,9.391 20.609,8.271 19.2,7.688 L18.626,9.074 C19.668,9.505 20.495,10.332 20.927,11.374 L22.312,10.8 Z M9.25,4 L9.25,6 L10.75,6 L10.75,4 L9.25,4 Z M13.25,4 L13.25,6 L14.75,6 L14.75,4 L13.25,4 Z M4.999,12.617 L2.611,12.258 L2.389,13.742 L4.777,14.1 L4.999,12.617 Z M19.986,12.559 C15.023,13.342 9.969,13.362 4.999,12.617 L4.777,14.1 C9.897,14.868 15.105,14.848 20.22,14.04 L19.986,12.559 Z M9.5,7.25 C7.895,7.25 6.759,7.248 5.879,7.391 L6.121,8.872 C6.851,8.752 7.837,8.75 9.5,8.75 L9.5,7.25 Z M5.879,7.391 C5.492,7.454 5.138,7.548 4.8,7.688 L5.374,9.074 C5.584,8.986 5.823,8.92 6.121,8.872 L5.879,7.391 Z M5.25,8 L5.25,8.131 L6.75,8.131 L6.75,8 L5.25,8 Z M14.5,8.75 C16.163,8.75 17.149,8.752 17.879,8.872 L18.121,7.391 C17.241,7.248 16.105,7.25 14.5,7.25 L14.5,8.75 Z M17.879,8.872 C18.177,8.92 18.416,8.986 18.626,9.074 L19.2,7.688 C18.862,7.548 18.508,7.454 18.121,7.391 L17.879,8.872 Z M17.25,8 L17.25,8.131 L18.75,8.131 L18.75,8 L17.25,8 Z M21.85,12.264 L19.986,12.559 L20.22,14.04 L22.084,13.746 L21.85,12.264 Z M22.75,15.5 C22.75,14.473 22.75,13.646 22.716,12.967 L21.218,13.043 C21.25,13.675 21.25,14.458 21.25,15.5 L22.75,15.5 Z M22.716,12.967 C22.672,12.115 22.573,11.428 22.312,10.8 L20.927,11.374 C21.089,11.767 21.177,12.253 21.218,13.043 L22.716,12.967 Z M2.75,15.5 C2.75,14.415 2.75,13.612 2.786,12.968 L1.289,12.884 C1.25,13.579 1.25,14.432 1.25,15.5 L2.75,15.5 Z M2.786,12.968 C2.828,12.222 2.916,11.754 3.074,11.374 L1.688,10.8 C1.436,11.408 1.334,12.071 1.289,12.884 L2.786,12.968 Z M2.619,12.259 L2.156,12.185 L1.919,13.666 L2.381,13.741 L2.619,12.259 Z"/>
</svg>

