<svg width="24" height="24" viewBox="0 0 24 24" fill="none" xmlns="http://www.w3.org/2000/svg">
<path d="M18 8.13133C17.195 8 16.134 8 14.5 8H9.5C7.86597 8 6.80499 8 6 8.13132C5.65728 8.18724 5.36096 8.26695 5.08658 8.3806C3.86144 8.88807 2.88807 9.86144 2.3806 11.0866C2.17587 11.5808 2.15624 12.1854 2.15624 12.1854L2.61499 12.2589L4.99921 12.6165C9.96855 13.3619 15.0227 13.3424 19.9861 12.5587L21.883 12.2592C21.883 12.2592 21.7984 11.5187 21.6194 11.0866C21.1119 9.86144 20.1386 8.88807 18.9134 8.3806C18.639 8.26695 18.3427 8.18724 18 8.13133Z" fill="#2D264B"/>
<path d="M21.991 13.7607L20.2201 14.0403C15.1055 14.8479 9.89739 14.868 4.7767 14.0999L2.3814 13.7406L2.01051 13.6811C2 14.1979 2 14.7957 2 15.5C2 17.8297 2 18.9946 2.3806 19.9134C2.88807 21.1386 3.86144 22.1119 5.08658 22.6194C6.00544 23 7.17029 23 9.49998 23H14.5C16.8297 23 17.9946 23 18.9134 22.6194C20.1386 22.1119 21.1119 21.1386 21.6194 19.9134C22 18.9946 22 17.8297 22 15.5C22 14.8316 22 14.2591 21.991 13.7607Z" fill="#2D264B"/>
<path fill-rule="evenodd" clip-rule="evenodd" d="M14 1H10C8.11438 1 7.17157 1 6.58579 1.58579C6 2.17157 6 3.11438 6 5V7.37255C6.84772 7.24993 7.92897 7.24996 9.42103 7.25L14.579 7.25C16.071 7.24996 17.1523 7.24993 18 7.37255V5C18 3.11438 18 2.17157 17.4142 1.58579C16.8284 1 15.8856 1 14 1ZM10 3.25C10.4142 3.25 10.75 3.58579 10.75 4V6C10.75 6.41421 10.4142 6.75 10 6.75C9.58579 6.75 9.25 6.41421 9.25 6V4C9.25 3.58579 9.58579 3.25 10 3.25ZM14 3.25C14.4142 3.25 14.75 3.58579 14.75 4V6C14.75 6.41421 14.4142 6.75 14 6.75C13.5858 6.75 13.25 6.41421 13.25 6V4C13.25 3.58579 13.5858 3.25 14 3.25Z" fill="#2D264B"/>
</svg>
