<svg width="24" height="24" viewBox="0 0 24 24" fill="none" xmlns="http://www.w3.org/2000/svg">
<path fill-rule="evenodd" clip-rule="evenodd" d="M9.94801 1.25C9.04954 1.24997 8.3003 1.24995 7.70553 1.32991C7.07773 1.41432 6.51093 1.59999 6.05546 2.05546C5.59999 2.51093 5.41432 3.07773 5.32992 3.70552C5.24995 4.30029 5.24997 5.04948 5.25 5.94792L5.25001 8.5227C5.38378 8.47999 5.51973 8.44199 5.65766 8.40887C5.72486 8.39274 5.79273 8.3783 5.86171 8.36536C6.4775 8.24986 7.23102 8.24991 8.40417 8.25L15.5958 8.25C16.7689 8.24991 17.5224 8.24986 18.1382 8.36536C18.2072 8.3783 18.2751 8.39274 18.3423 8.40887C18.4802 8.44199 18.6162 8.48001 18.75 8.52273L18.75 5.94801C18.75 5.04954 18.7501 4.3003 18.6701 3.70552C18.5857 3.07773 18.4 2.51093 17.9445 2.05546C17.4891 1.59999 16.9223 1.41432 16.2945 1.32991C15.6997 1.24995 14.9505 1.24997 14.052 1.25H9.94801ZM10.75 5C10.75 4.58579 10.4142 4.25 10 4.25C9.58579 4.25 9.25 4.58579 9.25 5V7C9.25 7.41422 9.58579 7.75 10 7.75C10.4142 7.75 10.75 7.41422 10.75 7V5ZM14.75 5C14.75 4.58579 14.4142 4.25 14 4.25C13.5858 4.25 13.25 4.58579 13.25 5V7C13.25 7.41422 13.5858 7.75 14 7.75C14.4142 7.75 14.75 7.41422 14.75 7V5Z" fill="#2D264B"/>
<path d="M15.5 9C16.7625 9 17.4535 9 18 9.10251C18.0572 9.11323 18.1127 9.12507 18.1672 9.13816C19.8097 9.53247 21.1286 10.7246 21.698 12.2884L19.9861 12.5587C15.0226 13.3424 9.96847 13.3619 4.99913 12.6165L2.61323 12.2586L2.32956 12.2145C2.91316 10.6871 4.21631 9.52623 5.83277 9.13816C5.88726 9.12507 5.94284 9.11323 6 9.10251C6.54651 9 7.23752 9 8.5 9H15.5Z" fill="#2D264B"/>
<path d="M2.02577 13.6853C2 14.1341 2 14.7033 2 15.5C2 16.8945 2 17.5918 2.13815 18.1672C2.57707 19.9955 4.00453 21.4229 5.83277 21.8619C6.40821 22 7.10547 22 8.5 22H15.5C16.8945 22 17.5918 22 18.1672 21.8619C19.9955 21.4229 21.4229 19.9955 21.8618 18.1672C22 17.5918 22 16.8945 22 15.5C22 14.7484 22 14.1993 21.9784 13.7627L20.22 14.0403C15.1054 14.8479 9.89731 14.868 4.77662 14.0999L2.3847 13.7411L2.02577 13.6853Z" fill="#2D264B"/>
</svg>
