<svg width="24" height="24" viewBox="0 0 24 24" fill="none" xmlns="http://www.w3.org/2000/svg">
<path fill-rule="evenodd" clip-rule="evenodd" d="M14 21H10C8.13872 21 7.20808 21 6.45492 20.7553C4.93273 20.2607 3.73931 19.0673 3.24472 17.5451C3 16.7919 3 13.8613 3 12V5.69388C3 4.77997 3 4.32301 3.14405 3.97048C3.28702 3.62059 3.52656 3.33827 3.82344 3.16977C4.12256 3 4.51027 3 5.28571 3C7.22431 3 8.19361 3 8.9414 3.42442C9.68361 3.84568 10.2825 4.55147 10.6399 5.42621L10.6493 5.44925C10.9885 6.27918 11.7036 6.99842 12.6002 7.00325C14.5442 7.01371 16.9702 7.05793 17.5451 7.24472C19.0673 7.73931 20.2607 8.93272 20.7553 10.4549C21 11.2081 21 12.1387 21 14C21 15.8613 21 16.7919 20.7553 17.5451C20.2607 19.0673 19.0673 20.2607 17.5451 20.7553C16.7919 21 15.8613 21 14 21ZM9 13.25C8.58579 13.25 8.25 13.5858 8.25 14C8.25 14.4142 8.58579 14.75 9 14.75H15C15.4142 14.75 15.75 14.4142 15.75 14C15.75 13.5858 15.4142 13.25 15 13.25H9Z" fill="#2D264B"/>
</svg>
