<svg xmlns="http://www.w3.org/2000/svg" width="24" height="24" viewBox="0 0 24 24">
  <defs/>
  <path fill="#2D264B" d="M14,21 L10,21 C8.139,21 7.208,21 6.455,20.755 C4.933,20.261 3.739,19.067 3.245,17.545 C3,16.792 3,13.861 3,12 L3,5.694 C3,4.78 3,4.323 3.144,3.97 C3.287,3.621 3.527,3.338 3.823,3.17 C4.123,3 4.51,3 5.286,3 C7.224,3 8.194,3 8.941,3.424 C9.684,3.846 10.283,4.551 10.64,5.426 L10.649,5.449 C10.988,6.279 11.704,6.998 12.6,7.003 C14.544,7.014 16.97,7.058 17.545,7.245 C19.067,7.739 20.261,8.933 20.755,10.455 C21,11.208 21,12.139 21,14 C21,15.861 21,16.792 20.755,17.545 C20.261,19.067 19.067,20.261 17.545,20.755 C16.792,21 15.861,21 14,21 Z M9,13.25 C8.586,13.25 8.25,13.586 8.25,14 C8.25,14.414 8.586,14.75 9,14.75 L15,14.75 C15.414,14.75 15.75,14.414 15.75,14 C15.75,13.586 15.414,13.25 15,13.25 Z"/>
</svg>

