<svg width="24" height="24" viewBox="0 0 24 24" fill="none" xmlns="http://www.w3.org/2000/svg">
<path fill-rule="evenodd" clip-rule="evenodd" d="M14 21H10C8.13872 21 7.20808 21 6.45492 20.7553C4.93273 20.2607 3.73931 19.0673 3.24472 17.5451C3 16.7919 3 13.8613 3 12V5.69388C3 4.77997 3 4.32301 3.14405 3.97048C3.28702 3.62059 3.52656 3.33827 3.82344 3.16977C4.12256 3 4.51027 3 5.28571 3C7.22431 3 8.19361 3 8.9414 3.42442C9.68361 3.84568 10.2825 4.55147 10.6399 5.42621L10.6493 5.44925C10.9885 6.27918 11.7036 6.99842 12.6002 7.00325C14.5442 7.01371 16.9702 7.05793 17.5451 7.24472C19.0673 7.73931 20.2607 8.93272 20.7553 10.4549C21 11.2081 21 12.1387 21 14C21 15.8613 21 16.7919 20.7553 17.5451C20.2607 19.0673 19.0673 20.2607 17.5451 20.7553C16.7919 21 15.8613 21 14 21ZM10.5303 11.4697C10.2374 11.1768 9.76256 11.1768 9.46967 11.4697C9.17678 11.7626 9.17678 12.2374 9.46967 12.5303L11.0607 14.1213L9.46967 15.7123C9.17678 16.0052 9.17678 16.4801 9.46967 16.773C9.76256 17.0659 10.2374 17.0659 10.5303 16.773L12.1213 15.182L13.7123 16.773C14.0052 17.0659 14.4801 17.0659 14.773 16.773C15.0659 16.4801 15.0659 16.0052 14.773 15.7123L13.182 14.1213L14.773 12.5303C15.0659 12.2374 15.0659 11.7626 14.773 11.4697C14.4801 11.1768 14.0052 11.1768 13.7123 11.4697L12.1213 13.0607L10.5303 11.4697Z" fill="#2D264B"/>
</svg>
