<svg xmlns="http://www.w3.org/2000/svg" width="24" height="24" viewBox="0 0 24 24">
  <defs/>
  <path fill="#2D264B" d="M3.955,6.061 C4.263,5.637 4.637,5.263 5.061,4.955 C5.084,4.938 5.107,4.922 5.131,4.906 C6.442,4 8.316,4 12,4 C15.684,4 17.558,4 18.869,4.906 C18.893,4.922 18.916,4.938 18.939,4.955 C19.363,5.263 19.737,5.637 20.045,6.061 C21,7.375 21,9.25 21,13 C21,16.75 21,18.625 20.045,19.939 C19.737,20.363 19.363,20.737 18.939,21.045 C17.625,22 15.75,22 12,22 C8.25,22 6.375,22 5.061,21.045 C4.637,20.737 4.263,20.363 3.955,19.939 C3,18.625 3,16.75 3,13 C3,9.25 3,7.375 3.955,6.061 Z M10.53,10.47 C10.237,10.177 9.763,10.177 9.47,10.47 C9.177,10.763 9.177,11.237 9.47,11.53 L11.061,13.121 L9.47,14.712 C9.177,15.005 9.177,15.48 9.47,15.773 C9.763,16.066 10.237,16.066 10.53,15.773 L12.121,14.182 L13.712,15.773 C14.005,16.066 14.48,16.066 14.773,15.773 C15.066,15.48 15.066,15.005 14.773,14.712 L13.182,13.121 L14.773,11.53 C15.066,11.237 15.066,10.763 14.773,10.47 C14.48,10.177 14.005,10.177 13.712,10.47 L12.121,12.061 Z"/>
  <path fill="#2D264B" d="M12,1 C13.861,1 14.792,1 15.545,1.245 C16.863,1.673 17.935,2.625 18.519,3.861 C17.899,3.595 17.202,3.45 16.402,3.367 C15.27,3.25 13.849,3.25 12.043,3.25 L11.957,3.25 C10.151,3.25 8.73,3.25 7.598,3.367 C6.798,3.45 6.101,3.595 5.48,3.861 C6.065,2.625 7.137,1.673 8.455,1.245 C9.208,1 10.139,1 12,1 Z"/>
</svg>

