<svg width="24" height="24" viewBox="0 0 24 24" fill="none" xmlns="http://www.w3.org/2000/svg">
<path d="M12 1C13.8613 1 14.7919 1 15.5451 1.24472C16.8631 1.67298 17.9347 2.6252 18.5195 3.86114C17.8993 3.59476 17.202 3.45008 16.4019 3.3672C15.2703 3.24999 13.8487 3.24999 12.0428 3.25H11.9572C10.1514 3.24999 8.72979 3.24999 7.59818 3.36719C6.79804 3.45006 6.10076 3.59474 5.4805 3.86114C6.0653 2.6252 7.13685 1.67298 8.45491 1.24472C9.20807 1 10.1387 1 12 1Z" fill="#2D264B"/>
<path fill-rule="evenodd" clip-rule="evenodd" d="M3.95491 6.06107C3 7.3754 3 9.25027 3 13C3 16.7497 3 18.6246 3.95491 19.9389C4.26331 20.3634 4.6366 20.7367 5.06107 21.0451C6.3754 22 8.25027 22 12 22C15.7497 22 17.6246 22 18.9389 21.0451C19.3634 20.7367 19.7367 20.3634 20.0451 19.9389C21 18.6246 21 16.7497 21 13C21 9.25027 21 7.3754 20.0451 6.06107C19.7367 5.6366 19.3634 5.26331 18.9389 4.95491C18.9159 4.93821 18.8928 4.92181 18.8694 4.90569C17.5584 4 15.6842 4 12 4C8.31596 4 6.44167 4 5.13068 4.9056C5.1073 4.92175 5.0841 4.93818 5.06107 4.95491C4.6366 5.26331 4.26331 5.6366 3.95491 6.06107ZM8 14.25C7.58579 14.25 7.25 14.5858 7.25 15C7.25 15.4142 7.58579 15.75 8 15.75H16C16.4142 15.75 16.75 15.4142 16.75 15C16.75 14.5858 16.4142 14.25 16 14.25H8Z" fill="#2D264B"/>
</svg>
