<svg xmlns="http://www.w3.org/2000/svg" width="24" height="24" viewBox="0 0 24 24">
  <defs/>
  <path fill="#2D264B" d="M9,13.25 C8.586,13.25 8.25,13.586 8.25,14 C8.25,14.414 8.586,14.75 9,14.75 L9,13.25 Z M15,14.75 C15.414,14.75 15.75,14.414 15.75,14 C15.75,13.586 15.414,13.25 15,13.25 L15,14.75 Z M11.25,17 C11.25,17.414 11.586,17.75 12,17.75 C12.414,17.75 12.75,17.414 12.75,17 L11.25,17 Z M12.75,11 C12.75,10.586 12.414,10.25 12,10.25 C11.586,10.25 11.25,10.586 11.25,11 L12.75,11 Z M9,14.75 L15,14.75 L15,13.25 L9,13.25 L9,14.75 Z M12.75,17 L12.75,11 L11.25,11 L11.25,17 L12.75,17 Z M14,20.25 L10,20.25 L10,21.75 L14,21.75 L14,20.25 Z M10,20.25 C8.08,20.25 7.298,20.241 6.687,20.042 L6.223,21.469 C7.118,21.759 8.197,21.75 10,21.75 L10,20.25 Z M2.25,12 C2.25,12.928 2.25,14.137 2.281,15.21 C2.296,15.745 2.32,16.256 2.356,16.685 C2.39,17.092 2.44,17.496 2.531,17.777 L3.958,17.313 C3.927,17.217 3.885,16.973 3.851,16.56 C3.818,16.17 3.795,15.69 3.78,15.166 C3.75,14.12 3.75,12.933 3.75,12 L2.25,12 Z M6.687,20.042 C5.393,19.622 4.378,18.607 3.958,17.313 L2.531,17.777 C3.1,19.527 4.473,20.9 6.223,21.469 L6.687,20.042 Z M20.25,14 C20.25,15.92 20.241,16.702 20.042,17.313 L21.469,17.777 C21.759,16.882 21.75,15.803 21.75,14 L20.25,14 Z M14,21.75 C15.803,21.75 16.882,21.759 17.777,21.469 L17.313,20.042 C16.702,20.241 15.92,20.25 14,20.25 L14,21.75 Z M20.042,17.313 C19.622,18.607 18.607,19.622 17.313,20.042 L17.777,21.469 C19.527,20.9 20.9,19.527 21.469,17.777 L20.042,17.313 Z M12.596,7.753 C13.566,7.758 14.649,7.772 15.557,7.807 C16.012,7.825 16.416,7.848 16.736,7.877 C17.081,7.908 17.261,7.941 17.313,7.958 L17.777,6.531 C17.542,6.455 17.203,6.413 16.871,6.383 C16.514,6.35 16.082,6.327 15.615,6.308 C14.681,6.272 13.578,6.258 12.604,6.253 L12.596,7.753 Z M21.75,14 C21.75,12.197 21.759,11.118 21.469,10.223 L20.042,10.687 C20.241,11.298 20.25,12.08 20.25,14 L21.75,14 Z M17.313,7.958 C18.607,8.378 19.622,9.393 20.042,10.687 L21.469,10.223 C20.9,8.473 19.527,7.1 17.777,6.531 L17.313,7.958 Z M3.75,12 L3.75,5.694 L2.25,5.694 L2.25,12 L3.75,12 Z M5.286,3.75 C6.269,3.75 6.956,3.751 7.492,3.8 C8.015,3.848 8.327,3.938 8.571,4.077 L9.312,2.772 C8.808,2.487 8.261,2.364 7.629,2.306 C7.008,2.249 6.241,2.25 5.286,2.25 L5.286,3.75 Z M8.571,4.077 C9.151,4.406 9.645,4.973 9.946,5.71 L11.334,5.143 C10.92,4.13 10.216,3.285 9.312,2.772 L8.571,4.077 Z M5.286,2.25 C4.912,2.25 4.581,2.249 4.307,2.274 C4.022,2.301 3.732,2.359 3.453,2.518 L4.194,3.822 C4.214,3.811 4.268,3.784 4.444,3.768 C4.634,3.751 4.884,3.75 5.286,3.75 L5.286,2.25 Z M3.75,5.694 C3.75,5.227 3.75,4.913 3.766,4.671 C3.782,4.434 3.81,4.323 3.838,4.254 L2.45,3.687 C2.334,3.97 2.29,4.264 2.27,4.572 C2.25,4.875 2.25,5.247 2.25,5.694 L3.75,5.694 Z M3.453,2.518 C2.994,2.778 2.649,3.199 2.45,3.687 L3.838,4.254 C3.925,4.042 4.059,3.899 4.194,3.822 L3.453,2.518 Z M11.344,5.165 L11.334,5.142 L9.946,5.71 L9.955,5.733 L11.344,5.165 Z M12.604,6.253 C12.134,6.251 11.623,5.85 11.344,5.165 L9.955,5.733 C10.354,6.709 11.273,7.746 12.596,7.753 L12.604,6.253 Z"/>
</svg>

