<svg xmlns="http://www.w3.org/2000/svg" width="24" height="24" viewBox="0 0 24 24">
  <defs/>
  <path fill="#2D264B" d="M12,1 C13.861,1 14.792,1 15.545,1.245 C16.863,1.673 17.935,2.625 18.52,3.861 C17.899,3.595 17.202,3.45 16.402,3.367 C15.27,3.25 13.849,3.25 12.043,3.25 L11.957,3.25 C10.151,3.25 8.73,3.25 7.598,3.367 C6.798,3.45 6.101,3.595 5.481,3.861 C6.065,2.625 7.137,1.673 8.455,1.245 C9.208,1 10.139,1 12,1 Z"/>
  <path fill="#2D264B" d="M3.955,6.061 C4.263,5.637 4.637,5.263 5.061,4.955 C5.084,4.938 5.107,4.922 5.131,4.906 C6.442,4 8.316,4 12,4 C15.684,4 17.558,4 18.869,4.906 C18.893,4.922 18.916,4.938 18.939,4.955 C19.363,5.263 19.737,5.637 20.045,6.061 C21,7.375 21,9.25 21,13 C21,16.75 21,18.625 20.045,19.939 C19.737,20.363 19.363,20.737 18.939,21.045 C17.625,22 15.75,22 12,22 C8.25,22 6.375,22 5.061,21.045 C4.637,20.737 4.263,20.363 3.955,19.939 C3,18.625 3,16.75 3,13 C3,9.25 3,7.375 3.955,6.061 Z M8,14.25 C7.586,14.25 7.25,14.586 7.25,15 C7.25,15.414 7.586,15.75 8,15.75 L16,15.75 C16.414,15.75 16.75,15.414 16.75,15 C16.75,14.586 16.414,14.25 16,14.25 Z"/>
</svg>

