<svg width="24" height="24" viewBox="0 0 24 24" fill="none" xmlns="http://www.w3.org/2000/svg">
<path fill-rule="evenodd" clip-rule="evenodd" d="M3.95491 6.06107C3 7.3754 3 9.25027 3 13C3 16.7497 3 18.6246 3.95491 19.9389C4.26331 20.3634 4.6366 20.7367 5.06107 21.0451C6.3754 22 8.25027 22 12 22C15.7497 22 17.6246 22 18.9389 21.0451C19.3634 20.7367 19.7367 20.3634 20.0451 19.9389C21 18.6246 21 16.7497 21 13C21 9.25027 21 7.3754 20.0451 6.06107C19.7367 5.6366 19.3634 5.26331 18.9389 4.95491C18.9159 4.93821 18.8928 4.92181 18.8694 4.90569C17.5584 4 15.6842 4 12 4C8.31596 4 6.44167 4 5.13068 4.9056C5.1073 4.92175 5.0841 4.93818 5.06107 4.95491C4.6366 5.26331 4.26331 5.6366 3.95491 6.06107ZM10.5303 10.4697C10.2374 10.1768 9.76256 10.1768 9.46967 10.4697C9.17678 10.7626 9.17678 11.2374 9.46967 11.5303L11.0607 13.1213L9.46967 14.7123C9.17678 15.0052 9.17678 15.4801 9.46967 15.773C9.76256 16.0659 10.2374 16.0659 10.5303 15.773L12.1213 14.182L13.7123 15.773C14.0052 16.0659 14.4801 16.0659 14.773 15.773C15.0659 15.4801 15.0659 15.0052 14.773 14.7123L13.182 13.1213L14.773 11.5303C15.0659 11.2374 15.0659 10.7626 14.773 10.4697C14.4801 10.1768 14.0052 10.1768 13.7123 10.4697L12.1213 12.0607L10.5303 10.4697Z" fill="#2D264B"/>
<path d="M12 1C13.8612 1 14.7919 1 15.545 1.24472C16.8631 1.67298 17.9346 2.6252 18.5194 3.86114C17.8992 3.59476 17.202 3.45008 16.4019 3.3672C15.2703 3.24999 13.8487 3.24999 12.0428 3.25H11.9571C10.1513 3.24999 8.72975 3.24999 7.59815 3.36719C6.798 3.45006 6.10072 3.59474 5.48047 3.86114C6.06527 2.6252 7.13682 1.67298 8.45487 1.24472C9.20803 1 10.1387 1 12 1Z" fill="#2D264B"/>
</svg>
