<svg xmlns="http://www.w3.org/2000/svg" width="24" height="24" viewBox="0 0 24 24">
  <defs/>
  <path fill="#2D264B" d="M10.53,10.47 C10.238,10.177 9.763,10.177 9.47,10.47 C9.177,10.763 9.177,11.237 9.47,11.53 L10.53,10.47 Z M13.712,15.773 C14.005,16.066 14.48,16.066 14.773,15.773 C15.066,15.48 15.066,15.005 14.773,14.712 L13.712,15.773 Z M9.47,14.712 C9.177,15.005 9.177,15.48 9.47,15.773 C9.763,16.066 10.238,16.066 10.53,15.773 L9.47,14.712 Z M14.773,11.53 C15.066,11.237 15.066,10.763 14.773,10.47 C14.48,10.177 14.005,10.177 13.712,10.47 L14.773,11.53 Z M9.47,11.53 L11.591,13.652 L12.652,12.591 L10.53,10.47 L9.47,11.53 Z M11.591,13.652 L13.712,15.773 L14.773,14.712 L12.652,12.591 L11.591,13.652 Z M10.53,15.773 L12.652,13.652 L11.591,12.591 L9.47,14.712 L10.53,15.773 Z M12.652,13.652 L14.773,11.53 L13.712,10.47 L11.591,12.591 L12.652,13.652 Z M12,21.25 C10.108,21.25 8.75,21.249 7.698,21.135 C6.66,21.023 6.01,20.807 5.502,20.438 L4.62,21.652 C5.427,22.238 6.371,22.5 7.536,22.626 C8.688,22.751 10.142,22.75 12,22.75 L12,21.25 Z M2.25,13 C2.25,14.858 2.249,16.312 2.374,17.463 C2.5,18.629 2.762,19.573 3.348,20.38 L4.562,19.498 C4.193,18.99 3.977,18.34 3.865,17.302 C3.751,16.25 3.75,14.892 3.75,13 L2.25,13 Z M5.502,20.438 C5.141,20.176 4.824,19.859 4.562,19.498 L3.348,20.38 C3.703,20.868 4.132,21.297 4.62,21.652 L5.502,20.438 Z M20.25,13 C20.25,14.892 20.249,16.25 20.135,17.302 C20.023,18.34 19.807,18.99 19.438,19.498 L20.652,20.38 C21.238,19.573 21.5,18.629 21.626,17.463 C21.751,16.312 21.75,14.858 21.75,13 L20.25,13 Z M12,22.75 C13.858,22.75 15.312,22.751 16.463,22.626 C17.629,22.5 18.573,22.238 19.38,21.652 L18.498,20.438 C17.99,20.807 17.34,21.023 16.302,21.135 C15.25,21.249 13.892,21.25 12,21.25 L12,22.75 Z M19.438,19.498 C19.176,19.859 18.859,20.176 18.498,20.438 L19.38,21.652 C19.868,21.297 20.297,20.868 20.652,20.38 L19.438,19.498 Z M21.75,13 C21.75,11.142 21.751,9.688 21.626,8.536 C21.5,7.371 21.238,6.427 20.652,5.62 L19.438,6.502 C19.807,7.01 20.023,7.66 20.135,8.698 C20.249,9.75 20.25,11.108 20.25,13 L21.75,13 Z M18.498,5.562 C18.859,5.824 19.176,6.141 19.438,6.502 L20.652,5.62 C20.297,5.132 19.868,4.703 19.38,4.348 L18.498,5.562 Z M3.75,13 C3.75,11.108 3.751,9.75 3.865,8.698 C3.977,7.66 4.193,7.01 4.562,6.502 L3.348,5.62 C2.762,6.427 2.5,7.371 2.374,8.536 C2.249,9.688 2.25,11.142 2.25,13 L3.75,13 Z M4.62,4.348 C4.132,4.703 3.703,5.132 3.348,5.62 L4.562,6.502 C4.824,6.141 5.141,5.824 5.502,5.562 L4.62,4.348 Z M12,1.75 C13.92,1.75 14.702,1.759 15.313,1.958 L15.777,0.531 C14.882,0.241 13.803,0.25 12,0.25 L12,1.75 Z M15.313,1.958 C16.607,2.378 17.622,3.393 18.042,4.687 L19.469,4.223 C18.9,2.473 17.527,1.1 15.777,0.531 L15.313,1.958 Z M12,0.25 C10.197,0.25 9.118,0.241 8.223,0.531 L8.687,1.958 C9.298,1.759 10.08,1.75 12,1.75 L12,0.25 Z M8.223,0.531 C6.473,1.1 5.1,2.473 4.531,4.223 L5.958,4.687 C6.378,3.393 7.393,2.378 8.687,1.958 L8.223,0.531 Z M5.867,5.046 C5.893,4.913 5.923,4.796 5.958,4.687 L4.531,4.223 C4.475,4.398 4.43,4.578 4.394,4.766 L5.867,5.046 Z M12,3.25 C10.174,3.25 8.739,3.249 7.598,3.367 C6.446,3.487 5.507,3.734 4.704,4.289 L5.557,5.523 C6.065,5.172 6.719,4.966 7.753,4.859 C8.798,4.751 10.142,4.75 12,4.75 L12,3.25 Z M4.704,4.289 C4.676,4.308 4.648,4.328 4.62,4.348 L5.502,5.562 C5.52,5.548 5.538,5.535 5.557,5.523 L4.704,4.289 Z M19.606,4.766 C19.571,4.578 19.526,4.398 19.469,4.223 L18.042,4.687 C18.078,4.796 18.108,4.914 18.133,5.046 L19.606,4.766 Z M12,4.75 C13.858,4.75 15.202,4.751 16.247,4.859 C17.281,4.966 17.935,5.172 18.443,5.523 L19.296,4.289 C18.493,3.734 17.554,3.487 16.402,3.367 C15.261,3.249 13.826,3.25 12,3.25 L12,4.75 Z M18.443,5.523 C18.462,5.535 18.48,5.548 18.498,5.562 L19.38,4.348 C19.352,4.328 19.324,4.308 19.296,4.289 L18.443,5.523 Z"/>
</svg>

