<svg width="24" height="24" viewBox="0 0 24 24" fill="none" xmlns="http://www.w3.org/2000/svg">
<path d="M17.971 1.75214C18.9784 1.74765 19.6705 1.7457 20.1977 1.80328C20.3691 1.82199 20.5123 1.8461 20.6339 1.87525L10.0054 12.5037C9.71253 12.7966 9.71253 13.2715 10.0054 13.5644C10.2983 13.8573 10.7732 13.8573 11.0661 13.5644L21.6946 2.93591C21.7237 3.05751 21.7478 3.20071 21.7665 3.37206C21.8241 3.89929 21.8221 4.59144 21.8177 5.59881L21.8066 8.08095C21.8047 8.49516 22.139 8.83244 22.5532 8.83429C22.9674 8.83613 23.3047 8.50185 23.3066 8.08764L23.3178 5.5608C23.3221 4.60908 23.3256 3.83125 23.2577 3.20921C23.187 2.56239 23.0314 1.98972 22.6501 1.49694C22.5675 1.39026 22.4785 1.28898 22.3834 1.19364C22.286 1.09587 22.1822 1.00437 22.0729 0.91971C21.5801 0.538348 21.0074 0.382778 20.3606 0.312141C19.7386 0.244212 18.9607 0.247697 18.009 0.25196L15.4822 0.263234C15.0679 0.265082 14.7337 0.602363 14.7355 1.01657C14.7374 1.43078 15.0746 1.76507 15.4888 1.76322L17.971 1.75214Z" fill="#2D264B"/>
<path d="M13.009 3.44206C12.4034 3.4348 11.7363 3.4348 11.0032 3.4348H10.9547C9.11821 3.43479 7.67861 3.43478 6.53648 3.55852C5.37094 3.6848 4.42656 3.94712 3.62024 4.53295C3.13209 4.88761 2.70281 5.31689 2.34815 5.80503C1.76232 6.61135 1.50001 7.55573 1.37373 8.72127C1.24999 9.86341 1.24999 11.303 1.25 13.1395V13.23C1.24999 15.0666 1.24999 16.5062 1.37373 17.6483C1.50001 18.8139 1.76232 19.7582 2.34815 20.5646C2.70281 21.0527 3.13209 21.482 3.62024 21.8366C4.42656 22.4225 5.37094 22.6848 6.53648 22.8111C7.67859 22.9348 9.11817 22.9348 10.9547 22.9348H11.0453C12.8818 22.9348 14.3214 22.9348 15.4635 22.8111C16.6291 22.6848 17.5734 22.4225 18.3798 21.8366C18.8679 21.482 19.2972 21.0527 19.6518 20.5646C20.2377 19.7582 20.5 18.8139 20.6263 17.6483C20.75 16.5062 20.75 15.0666 20.75 13.2301V13.1813C20.75 12.4484 20.75 11.7814 20.7427 11.1758C20.7378 10.7616 20.398 10.4299 19.9838 10.4348C19.5696 10.4398 19.2379 10.7796 19.2428 11.1938C19.25 11.7895 19.25 12.4481 19.25 13.1848C19.25 15.0764 19.249 16.4348 19.135 17.4867C19.0225 18.5247 18.8074 19.1749 18.4383 19.6829C18.1762 20.0437 17.8589 20.361 17.4981 20.6231C16.9901 20.9922 16.3399 21.2073 15.302 21.3198C14.25 21.4338 12.8916 21.4348 11 21.4348C9.10843 21.4348 7.74999 21.4338 6.69804 21.3198C5.66013 21.2073 5.00992 20.9922 4.50191 20.6231C4.14111 20.361 3.82382 20.0437 3.56168 19.6829C3.19259 19.1749 2.97745 18.5247 2.865 17.4867C2.75103 16.4348 2.75 15.0764 2.75 13.1848C2.75 11.2932 2.75103 9.93479 2.865 8.88284C2.97745 7.84493 3.19259 7.19471 3.56168 6.68671C3.82382 6.32591 4.14111 6.00861 4.50191 5.74647C5.00992 5.37739 5.66013 5.16225 6.69804 5.0498C7.74999 4.93582 9.10843 4.9348 11 4.9348C11.7367 4.9348 12.3952 4.93481 12.991 4.94195C13.4052 4.94691 13.745 4.61517 13.7499 4.20099C13.7549 3.78681 13.4232 3.44702 13.009 3.44206Z" fill="#2D264B"/>
</svg>
