<svg xmlns="http://www.w3.org/2000/svg" width="24" height="24" viewBox="0 0 24 24">
  <defs/>
  <path fill="#2D264B" d="M12.991,4.942 C13.405,4.947 13.745,4.615 13.75,4.201 C13.755,3.787 13.423,3.447 13.009,3.442 L12.991,4.942 Z M20.743,11.176 C20.738,10.762 20.398,10.43 19.984,10.435 C19.57,10.44 19.238,10.78 19.243,11.194 L20.743,11.176 Z M10.005,12.504 C9.713,12.796 9.713,13.271 10.005,13.564 C10.298,13.857 10.773,13.857 11.066,13.564 L10.005,12.504 Z M15.482,0.263 C15.068,0.265 14.734,0.602 14.736,1.016 C14.737,1.431 15.075,1.765 15.489,1.763 L15.482,0.263 Z M21.807,8.081 C21.805,8.495 22.139,8.832 22.553,8.834 C22.967,8.836 23.305,8.502 23.307,8.088 L21.807,8.081 Z M21.827,1.742 L21.367,1.15 L21.33,1.179 L21.297,1.212 L21.827,1.742 Z M11,21.435 C9.108,21.435 7.75,21.434 6.698,21.32 C5.66,21.207 5.01,20.992 4.502,20.623 L3.62,21.837 C4.427,22.422 5.371,22.685 6.536,22.811 C7.688,22.936 9.142,22.935 11,22.935 L11,21.435 Z M1.25,13.185 C1.25,15.043 1.249,16.497 1.374,17.648 C1.5,18.814 1.762,19.758 2.348,20.564 L3.562,19.683 C3.193,19.175 2.977,18.525 2.865,17.487 C2.751,16.435 2.75,15.076 2.75,13.185 L1.25,13.185 Z M4.502,20.623 C4.141,20.361 3.824,20.044 3.562,19.683 L2.348,20.564 C2.703,21.053 3.132,21.482 3.62,21.837 L4.502,20.623 Z M19.25,13.185 C19.25,15.076 19.249,16.435 19.135,17.487 C19.023,18.525 18.807,19.175 18.438,19.683 L19.652,20.564 C20.238,19.758 20.5,18.814 20.626,17.648 C20.751,16.497 20.75,15.043 20.75,13.185 L19.25,13.185 Z M11,22.935 C12.858,22.935 14.312,22.936 15.463,22.811 C16.629,22.685 17.573,22.422 18.38,21.837 L17.498,20.623 C16.99,20.992 16.34,21.207 15.302,21.32 C14.25,21.434 12.892,21.435 11,21.435 L11,22.935 Z M18.438,19.683 C18.176,20.044 17.859,20.361 17.498,20.623 L18.38,21.837 C18.868,21.482 19.297,21.053 19.652,20.564 L18.438,19.683 Z M11,3.435 C9.142,3.435 7.688,3.434 6.536,3.558 C5.371,3.685 4.427,3.947 3.62,4.533 L4.502,5.746 C5.01,5.377 5.66,5.162 6.698,5.05 C7.75,4.936 9.108,4.935 11,4.935 L11,3.435 Z M2.75,13.185 C2.75,11.293 2.751,9.935 2.865,8.883 C2.977,7.845 3.193,7.195 3.562,6.687 L2.348,5.805 C1.762,6.611 1.5,7.556 1.374,8.721 C1.249,9.873 1.25,11.327 1.25,13.185 L2.75,13.185 Z M3.62,4.533 C3.132,4.888 2.703,5.317 2.348,5.805 L3.562,6.687 C3.824,6.326 4.141,6.009 4.502,5.746 L3.62,4.533 Z M11,4.935 C11.737,4.935 12.395,4.935 12.991,4.942 L13.009,3.442 C12.402,3.435 11.734,3.435 11,3.435 L11,4.935 Z M20.75,13.185 C20.75,12.45 20.75,11.782 20.743,11.176 L19.243,11.194 C19.25,11.79 19.25,12.448 19.25,13.185 L20.75,13.185 Z M15.489,1.763 L17.971,1.752 L17.964,0.252 L15.482,0.263 L15.489,1.763 Z M21.818,5.599 L21.807,8.081 L23.307,8.088 L23.318,5.605 L21.818,5.599 Z M17.971,1.752 C18.978,1.748 19.671,1.746 20.198,1.803 C20.71,1.859 20.971,1.963 21.155,2.106 L22.073,0.92 C21.58,0.538 21.007,0.383 20.361,0.312 C19.729,0.243 18.936,0.248 17.964,0.252 L17.971,1.752 Z M23.318,5.605 C23.322,4.633 23.327,3.841 23.258,3.209 C23.187,2.562 23.031,1.99 22.65,1.497 L21.464,2.415 C21.606,2.599 21.711,2.86 21.767,3.372 C21.824,3.899 21.822,4.591 21.818,5.599 L23.318,5.605 Z M11.066,13.564 L22.358,2.273 L21.297,1.212 L10.005,12.504 L11.066,13.564 Z M21.155,2.106 C21.213,2.151 21.269,2.2 21.321,2.253 L22.383,1.194 C22.286,1.096 22.182,1.004 22.073,0.92 L21.155,2.106 Z M21.321,2.253 C21.372,2.304 21.42,2.358 21.464,2.415 L22.65,1.497 C22.567,1.39 22.479,1.289 22.383,1.194 L21.321,2.253 Z M22.287,2.335 L22.312,2.315 L21.392,1.131 L21.367,1.15 L22.287,2.335 Z"/>
</svg>

