<svg xmlns="http://www.w3.org/2000/svg" width="24" height="24" viewBox="0 0 24 24">
  <defs/>
  <path fill="#2D264B" d="M6.47,10.47 C6.177,10.763 6.177,11.237 6.47,11.53 C6.763,11.823 7.237,11.823 7.53,11.53 L6.47,10.47 Z M8.25,16 C8.25,16.414 8.586,16.75 9,16.75 C9.414,16.75 9.75,16.414 9.75,16 L8.25,16 Z M22.75,12 C22.75,11.586 22.414,11.25 22,11.25 C21.586,11.25 21.25,11.586 21.25,12 L22.75,12 Z M20,5.999 L19.4,6.45 L19.422,6.478 L19.445,6.504 L20,5.999 Z M21.487,0.997 C21.485,0.582 21.148,0.248 20.734,0.25 C20.32,0.252 19.985,0.589 19.987,1.003 L21.487,0.997 Z M15.084,5.907 C14.67,5.905 14.332,6.239 14.331,6.654 C14.329,7.068 14.663,7.405 15.077,7.407 L15.084,5.907 Z M8.25,10.414 L8.25,16 L9.75,16 L9.75,10.414 L8.25,10.414 Z M16.25,12 L16.25,14 L17.75,14 L17.75,12 L16.25,12 Z M13.75,14 L13.75,12 L12.25,12 L12.25,14 L13.75,14 Z M15,15.25 C14.31,15.25 13.75,14.69 13.75,14 L12.25,14 C12.25,15.519 13.481,16.75 15,16.75 L15,15.25 Z M16.25,14 C16.25,14.69 15.69,15.25 15,15.25 L15,16.75 C16.519,16.75 17.75,15.519 17.75,14 L16.25,14 Z M15,10.75 C15.69,10.75 16.25,11.31 16.25,12 L17.75,12 C17.75,10.481 16.519,9.25 15,9.25 L15,10.75 Z M15,9.25 C13.481,9.25 12.25,10.481 12.25,12 L13.75,12 C13.75,11.31 14.31,10.75 15,10.75 L15,9.25 Z M21.25,12 C21.25,17.109 17.109,21.25 12,21.25 L12,22.75 C17.937,22.75 22.75,17.937 22.75,12 L21.25,12 Z M12,21.25 C6.891,21.25 2.75,17.109 2.75,12 L1.25,12 C1.25,17.937 6.063,22.75 12,22.75 L12,21.25 Z M2.75,12 C2.75,6.891 6.891,2.75 12,2.75 L12,1.25 C6.063,1.25 1.25,6.063 1.25,12 L2.75,12 Z M12,2.75 C14.084,2.75 16.004,3.438 17.55,4.6 L18.451,3.4 C16.655,2.05 14.42,1.25 12,1.25 L12,2.75 Z M17.55,4.6 C18.251,5.126 18.874,5.749 19.4,6.45 L20.6,5.549 C19.989,4.735 19.265,4.011 18.451,3.4 L17.55,4.6 Z M19.987,1.003 L19.996,2.989 L21.496,2.982 L21.487,0.997 L19.987,1.003 Z M17.07,5.916 L15.084,5.907 L15.077,7.407 L17.063,7.416 L17.07,5.916 Z M19.996,2.989 C20,3.798 20.001,4.342 19.956,4.754 C19.913,5.15 19.835,5.327 19.744,5.444 L20.931,6.362 C21.26,5.937 21.389,5.447 21.447,4.916 C21.504,4.401 21.5,3.757 21.496,2.982 L19.996,2.989 Z M17.063,7.416 C17.837,7.419 18.481,7.423 18.997,7.367 C19.528,7.309 20.017,7.179 20.442,6.85 L19.524,5.664 C19.408,5.754 19.23,5.832 18.834,5.876 C18.423,5.921 17.879,5.919 17.07,5.916 L17.063,7.416 Z M19.744,5.444 C19.704,5.496 19.66,5.544 19.612,5.589 L20.638,6.684 C20.744,6.584 20.842,6.477 20.931,6.362 L19.744,5.444 Z M19.612,5.589 C19.584,5.615 19.555,5.64 19.524,5.664 L20.442,6.85 C20.51,6.798 20.575,6.742 20.638,6.684 L19.612,5.589 Z M19.445,6.504 L19.57,6.641 L20.68,5.632 L20.555,5.494 L19.445,6.504 Z M7.47,9.47 L6.47,10.47 L7.53,11.53 L8.53,10.53 L7.47,9.47 Z M9.75,10.414 C9.75,9.224 8.311,8.628 7.47,9.47 L8.53,10.53 C8.512,10.549 8.48,10.568 8.44,10.575 C8.404,10.581 8.374,10.575 8.351,10.566 C8.328,10.556 8.303,10.539 8.283,10.509 C8.259,10.477 8.25,10.44 8.25,10.414 L9.75,10.414 Z"/>
</svg>

