<svg xmlns="http://www.w3.org/2000/svg" width="24" height="24" viewBox="0 0 24 24">
  <defs/>
  <path fill="#2D264B" d="M8.293,7.252 C7.182,6.599 6.303,6.083 5.584,5.746 C4.862,5.407 4.189,5.192 3.512,5.264 C2.481,5.374 1.548,5.925 0.942,6.772 C0.547,7.325 0.395,8.019 0.322,8.822 C0.25,9.623 0.25,10.655 0.25,11.961 L0.25,12.039 C0.25,13.345 0.25,14.377 0.322,15.178 C0.395,15.981 0.547,16.674 0.942,17.228 C1.548,18.075 2.481,18.626 3.512,18.736 C4.189,18.808 4.862,18.593 5.584,18.254 C6.303,17.917 7.182,17.401 8.293,16.748 L8.361,16.708 C9.472,16.055 10.352,15.539 10.998,15.074 C11.101,15 11.201,14.925 11.297,14.85 C11.304,14.963 11.313,15.072 11.322,15.178 C11.395,15.981 11.547,16.674 11.943,17.228 C12.548,18.075 13.481,18.626 14.512,18.736 C15.189,18.808 15.862,18.593 16.584,18.254 C17.303,17.917 18.182,17.401 19.293,16.748 L19.361,16.708 C20.472,16.055 21.352,15.539 21.998,15.074 C22.648,14.607 23.163,14.124 23.437,13.499 C23.854,12.544 23.854,11.456 23.437,10.501 C23.163,9.876 22.648,9.393 21.998,8.926 C21.352,8.461 20.472,7.945 19.361,7.292 L19.293,7.252 C18.182,6.599 17.303,6.083 16.584,5.746 C15.862,5.407 15.189,5.192 14.512,5.264 C13.481,5.374 12.548,5.925 11.943,6.772 C11.547,7.325 11.395,8.019 11.322,8.822 C11.313,8.928 11.304,9.037 11.297,9.15 C11.201,9.075 11.101,9 10.998,8.926 C10.352,8.461 9.472,7.945 8.361,7.292 L8.293,7.252 Z"/>
</svg>

