<svg xmlns="http://www.w3.org/2000/svg" width="24" height="24" viewBox="0 0 24 24">
  <defs/>
  <path fill="#2D264B" d="M21.487,0.997 C21.485,0.582 21.148,0.248 20.734,0.25 C20.32,0.252 19.985,0.589 19.987,1.003 L19.996,2.989 C20,3.798 20.001,4.342 19.956,4.754 L19.954,4.769 C19.498,4.267 18.995,3.809 18.451,3.4 C16.655,2.05 14.42,1.25 12,1.25 C6.063,1.25 1.25,6.063 1.25,12 C1.25,17.937 6.063,22.75 12,22.75 C17.937,22.75 22.75,17.937 22.75,12 C22.75,11.586 22.414,11.25 22,11.25 C21.586,11.25 21.25,11.586 21.25,12 C21.25,17.109 17.109,21.25 12,21.25 C6.891,21.25 2.75,17.109 2.75,12 C2.75,6.891 6.891,2.75 12,2.75 C14.084,2.75 16.004,3.438 17.55,4.6 C18.049,4.975 18.509,5.399 18.923,5.865 C18.895,5.869 18.865,5.872 18.834,5.876 C18.423,5.921 17.879,5.919 17.07,5.916 L15.084,5.907 C14.67,5.905 14.332,6.239 14.331,6.654 C14.329,7.068 14.663,7.405 15.077,7.407 L17.106,7.416 C17.861,7.419 18.491,7.422 18.997,7.367 C19.528,7.309 20.017,7.179 20.442,6.85 C20.513,6.796 20.581,6.737 20.646,6.676 C20.749,6.579 20.844,6.474 20.931,6.362 C21.26,5.937 21.389,5.447 21.447,4.916 C21.503,4.41 21.5,3.781 21.496,3.026 L21.487,0.997 Z"/>
  <path fill="#2D264B" d="M11,8.25 C9.481,8.25 8.25,9.481 8.25,11 L8.25,12 C8.25,12.966 9.034,13.75 10,13.75 L14,13.75 C14.138,13.75 14.25,13.862 14.25,14 L14.25,15 C14.25,15.69 13.69,16.25 13,16.25 L9,16.25 C8.586,16.25 8.25,16.586 8.25,17 C8.25,17.414 8.586,17.75 9,17.75 L13,17.75 C14.519,17.75 15.75,16.519 15.75,15 L15.75,14 C15.75,13.034 14.966,12.25 14,12.25 L10,12.25 C9.862,12.25 9.75,12.138 9.75,12 L9.75,11 C9.75,10.31 10.31,9.75 11,9.75 L14.76,9.75 C15.174,9.75 15.51,9.414 15.51,9 C15.51,8.586 15.174,8.25 14.76,8.25 L11,8.25 Z"/>
</svg>

