<svg xmlns="http://www.w3.org/2000/svg" width="24" height="24" viewBox="0 0 24 24">
  <defs/>
  <path fill="#2D264B" d="M22.75,12 C22.75,11.586 22.414,11.25 22,11.25 C21.586,11.25 21.25,11.586 21.25,12 L22.75,12 Z M20,5.999 L19.4,6.45 L19.431,6.491 L19.468,6.528 L20,5.999 Z M21.487,0.997 C21.485,0.582 21.148,0.248 20.734,0.25 C20.32,0.252 19.985,0.589 19.987,1.003 L21.487,0.997 Z M15.084,5.907 C14.67,5.905 14.332,6.239 14.331,6.654 C14.329,7.068 14.663,7.405 15.077,7.407 L15.084,5.907 Z M14.76,9.75 C15.174,9.75 15.51,9.414 15.51,9 C15.51,8.586 15.174,8.25 14.76,8.25 L14.76,9.75 Z M9,16.25 C8.586,16.25 8.25,16.586 8.25,17 C8.25,17.414 8.586,17.75 9,17.75 L9,16.25 Z M21.25,12 C21.25,17.109 17.109,21.25 12,21.25 L12,22.75 C17.937,22.75 22.75,17.937 22.75,12 L21.25,12 Z M12,21.25 C6.891,21.25 2.75,17.109 2.75,12 L1.25,12 C1.25,17.937 6.063,22.75 12,22.75 L12,21.25 Z M2.75,12 C2.75,6.891 6.891,2.75 12,2.75 L12,1.25 C6.063,1.25 1.25,6.063 1.25,12 L2.75,12 Z M12,2.75 C14.084,2.75 16.004,3.438 17.55,4.6 L18.451,3.4 C16.655,2.05 14.42,1.25 12,1.25 L12,2.75 Z M17.55,4.6 C18.251,5.126 18.874,5.749 19.4,6.45 L20.6,5.549 C19.989,4.735 19.265,4.011 18.451,3.4 L17.55,4.6 Z M19.987,1.003 L19.996,2.989 L21.496,2.982 L21.487,0.997 L19.987,1.003 Z M17.07,5.916 L15.084,5.907 L15.077,7.407 L17.063,7.416 L17.07,5.916 Z M19.996,2.989 C20,3.798 20.001,4.342 19.956,4.754 C19.913,5.15 19.835,5.327 19.744,5.444 L20.931,6.362 C21.26,5.937 21.389,5.447 21.447,4.916 C21.504,4.401 21.5,3.757 21.496,2.982 L19.996,2.989 Z M17.063,7.416 C17.837,7.419 18.481,7.423 18.997,7.367 C19.528,7.309 20.017,7.179 20.442,6.85 L19.524,5.664 C19.408,5.754 19.23,5.832 18.834,5.876 C18.423,5.921 17.879,5.919 17.07,5.916 L17.063,7.416 Z M14.76,8.25 L11,8.25 L11,9.75 L14.76,9.75 L14.76,8.25 Z M8.25,11 L8.25,12 L9.75,12 L9.75,11 L8.25,11 Z M10,13.75 L14,13.75 L14,12.25 L10,12.25 L10,13.75 Z M14.25,14 L14.25,15 L15.75,15 L15.75,14 L14.25,14 Z M13,16.25 L9,16.25 L9,17.75 L13,17.75 L13,16.25 Z M14.25,15 C14.25,15.69 13.69,16.25 13,16.25 L13,17.75 C14.519,17.75 15.75,16.519 15.75,15 L14.25,15 Z M14,13.75 C14.138,13.75 14.25,13.862 14.25,14 L15.75,14 C15.75,13.034 14.966,12.25 14,12.25 L14,13.75 Z M8.25,12 C8.25,12.966 9.034,13.75 10,13.75 L10,12.25 C9.862,12.25 9.75,12.138 9.75,12 L8.25,12 Z M11,8.25 C9.481,8.25 8.25,9.481 8.25,11 L9.75,11 C9.75,10.31 10.31,9.75 11,9.75 L11,8.25 Z M19.744,5.444 C19.705,5.494 19.662,5.542 19.616,5.585 L20.646,6.676 C20.749,6.579 20.844,6.474 20.931,6.362 L19.744,5.444 Z M19.616,5.585 C19.587,5.613 19.556,5.639 19.524,5.664 L20.442,6.85 C20.513,6.796 20.581,6.737 20.646,6.676 L19.616,5.585 Z M19.468,6.528 L19.599,6.659 L20.663,5.602 L20.532,5.47 L19.468,6.528 Z"/>
</svg>

