<svg width="24" height="24" viewBox="0 0 24 24" fill="none" xmlns="http://www.w3.org/2000/svg">
<path d="M8.29282 7.25181C7.18207 6.59928 6.30261 6.08263 5.58419 5.74551C4.86233 5.40677 4.18921 5.19163 3.5124 5.26401C2.48074 5.37434 1.54757 5.92451 0.942477 6.77193C0.54725 7.32543 0.394596 8.01873 0.322136 8.82237C0.249988 9.62256 0.249993 10.6547 0.25 11.961V12.0389C0.249993 13.3453 0.249988 14.3774 0.322136 15.1776C0.394596 15.9812 0.54725 16.6745 0.942476 17.228C1.54757 18.0754 2.48074 18.6256 3.5124 18.7359C4.18921 18.8083 4.86233 18.5932 5.58419 18.2544C6.30261 17.9173 7.18206 17.4007 8.2928 16.7482L8.36147 16.7078C9.47242 16.0552 10.3518 15.5386 10.9978 15.0742C11.1012 14.9999 11.2011 14.9252 11.2972 14.8496C11.3044 14.963 11.3126 15.0723 11.3221 15.1776C11.3946 15.9812 11.5472 16.6745 11.9425 17.228C12.5476 18.0754 13.4807 18.6256 14.5124 18.7359C15.1892 18.8083 15.8623 18.5932 16.5842 18.2544C17.3026 17.9173 18.182 17.4007 19.2927 16.7482L19.3615 16.7078C20.4724 16.0552 21.3518 15.5386 21.9978 15.0742C22.6481 14.6067 23.1633 14.1237 23.4368 13.4986C23.8544 12.5444 23.8544 11.4556 23.4368 10.5013C23.1633 9.87628 22.6481 9.39323 21.9978 8.92576C21.3518 8.46137 20.4724 7.94476 19.3615 7.29214L19.2928 7.25181C18.1821 6.59928 17.3026 6.08263 16.5842 5.74551C15.8623 5.40677 15.1892 5.19163 14.5124 5.26401C13.4807 5.37434 12.5476 5.92451 11.9425 6.77193C11.5472 7.32543 11.3946 8.01873 11.3221 8.82237C11.3126 8.92765 11.3044 9.03695 11.2972 9.15036C11.2011 9.07476 11.1012 9.00006 10.9978 8.92576C10.3518 8.46138 9.47244 7.94477 8.3615 7.29215L8.29282 7.25181Z" fill="#2D264B"/>
</svg>
