<svg width="24" height="24" viewBox="0 0 24 24" fill="none" xmlns="http://www.w3.org/2000/svg">
<path d="M21.4873 0.996654C21.4854 0.582445 21.1482 0.24816 20.734 0.250008C20.3197 0.251856 19.9855 0.589137 19.9873 1.00335L19.9962 2.98906C19.9998 3.79848 20.0011 4.34217 19.9562 4.75351L19.9545 4.76877C19.498 4.26696 18.9947 3.80854 18.4515 3.40038C16.6546 2.05032 14.4197 1.25 12 1.25C6.06294 1.25 1.25 6.06294 1.25 12C1.25 17.9371 6.06294 22.75 12 22.75C17.9371 22.75 22.75 17.9371 22.75 12C22.75 11.5858 22.4142 11.25 22 11.25C21.5858 11.25 21.25 11.5858 21.25 12C21.25 17.1086 17.1086 21.25 12 21.25C6.89137 21.25 2.75 17.1086 2.75 12C2.75 6.89137 6.89137 2.75 12 2.75C14.0836 2.75 16.0044 3.43804 17.5505 4.59962C18.0494 4.97451 18.5093 5.39871 18.9228 5.86494C18.8945 5.86873 18.8649 5.87232 18.834 5.8757C18.4226 5.92062 17.8789 5.91933 17.0695 5.91572L15.0838 5.90686C14.6696 5.90501 14.3323 6.2393 14.3305 6.65351C14.3286 7.06772 14.6629 7.405 15.0771 7.40685L17.1061 7.4159C17.861 7.41929 18.4906 7.42211 18.9968 7.36684C19.5277 7.30886 20.0171 7.17926 20.4421 6.85029C20.5099 6.79784 20.5751 6.74227 20.6376 6.68379C20.7436 6.58449 20.8417 6.4768 20.9307 6.36169C21.2597 5.93661 21.3893 5.44728 21.4473 4.91635C21.5026 4.41017 21.4997 3.7806 21.4964 3.02573L21.4873 0.996654Z" fill="#2D264B"/>
<path d="M9.75 10.4142C9.75 9.22416 8.31117 8.62817 7.46967 9.46967L6.46967 10.4697C6.17678 10.7626 6.17678 11.2374 6.46967 11.5303C6.76256 11.8232 7.23744 11.8232 7.53033 11.5303L8.25 10.8107V16C8.25 16.4142 8.58579 16.75 9 16.75C9.41421 16.75 9.75 16.4142 9.75 16V10.4142Z" fill="#2D264B"/>
<path fill-rule="evenodd" clip-rule="evenodd" d="M15 9.25C13.4812 9.25 12.25 10.4812 12.25 12V14C12.25 15.5188 13.4812 16.75 15 16.75C16.5188 16.75 17.75 15.5188 17.75 14V12C17.75 10.4812 16.5188 9.25 15 9.25ZM13.75 12C13.75 11.3096 14.3096 10.75 15 10.75C15.6904 10.75 16.25 11.3096 16.25 12V14C16.25 14.6904 15.6904 15.25 15 15.25C14.3096 15.25 13.75 14.6904 13.75 14V12Z" fill="#2D264B"/>
</svg>
