<svg xmlns="http://www.w3.org/2000/svg" width="24" height="24" viewBox="0 0 24 24">
  <defs/>
  <path fill="#2D264B" d="M8.327,7.272 L8.328,7.272 Q11.957,9.404 12.437,10.501 Q13.093,12 12.437,13.499 Q11.957,14.596 8.329,16.727 L8.327,16.728 L8.327,16.728 Q4.694,18.862 3.512,18.736 Q1.896,18.563 0.942,17.228 Q0.25,16.258 0.25,12 Q0.25,7.742 0.942,6.772 Q1.896,5.437 3.512,5.264 Q4.694,5.138 8.327,7.272 Z M7.567,8.565 Q4.361,6.682 3.672,6.756 Q2.725,6.857 2.163,7.644 Q1.75,8.222 1.75,12 Q1.75,15.778 2.163,16.356 Q2.725,17.143 3.672,17.244 Q4.361,17.318 7.567,15.435 L7.567,15.435 L7.569,15.434 Q10.778,13.549 11.063,12.897 Q11.455,12 11.063,11.103 Q10.778,10.451 7.568,8.566 Z"/>
  <path fill="#2D264B" d="M19.327,7.272 L19.328,7.272 Q22.957,9.404 23.437,10.501 Q24.093,12 23.437,13.499 Q22.957,14.596 19.329,16.727 L19.327,16.728 L19.326,16.728 Q15.694,18.862 14.512,18.736 Q12.896,18.563 11.942,17.228 Q11.25,16.258 11.25,12 Q11.25,7.742 11.942,6.772 Q12.896,5.437 14.512,5.264 Q15.694,5.138 19.327,7.272 Z M18.568,8.565 L18.567,8.565 Q15.361,6.682 14.672,6.756 Q13.725,6.857 13.163,7.644 Q12.75,8.222 12.75,12 Q12.75,15.778 13.163,16.356 Q13.725,17.143 14.672,17.244 Q15.361,17.318 18.567,15.435 L18.567,15.435 L18.569,15.434 Q21.778,13.549 22.063,12.897 Q22.455,12 22.063,11.103 Q21.778,10.451 18.568,8.566 Z"/>
</svg>

