<svg width="24" height="24" viewBox="0 0 24 24" fill="none" xmlns="http://www.w3.org/2000/svg">
<path d="M4.5 6C3.11929 6 2 7.11929 2 8.5C2 9.18136 2.27258 9.79906 2.71464 10.25H21.2854C21.7274 9.79906 22 9.18136 22 8.5C22 7.11929 20.8807 6 19.5 6H12H4.5Z" fill="#2D264B"/>
<path d="M12 4C12 2.89543 12.8954 2 14 2C15.1046 2 16 2.89543 16 4C16 5.10457 15.1046 6 14 6H12V4Z" fill="#2D264B"/>
<path d="M12 4C12 2.89543 11.1046 2 10 2C8.89543 2 8 2.89543 8 4C8 5.10457 8.89543 6 10 6H12V4Z" fill="#2D264B"/>
<path d="M11.25 11.75H2.97791L2.981 11.8711C2.98965 12.2069 2.99999 12.608 2.99999 13.1429C2.99999 15.5835 2.99999 16.8038 3.38059 17.7664C3.88806 19.0499 4.86143 20.0696 6.08657 20.6013C7.00543 21 8.17028 21 10.5 21H11.25V11.75Z" fill="#2D264B"/>
<path d="M12.75 21H13.5C15.8297 21 16.9946 21 17.9134 20.6013C19.1385 20.0696 20.1119 19.0499 20.6194 17.7664C21 16.8038 21 15.5835 21 13.1429C21 12.5422 21 12.1102 20.9943 11.75H12.75V21Z" fill="#2D264B"/>
</svg>
