<svg width="24" height="24" viewBox="0 0 24 24" fill="none" xmlns="http://www.w3.org/2000/svg">
<path d="M14.8891 3.73223L12.7678 5.85355C12.4482 6.17306 12.1104 6.59311 12 7.00003C11.8896 6.59311 11.7086 6.17307 11.3891 5.85357L9.26777 3.73225C8.29146 2.75594 6.70854 2.75594 5.73223 3.73225C4.85159 4.61289 4.80081 6.02263 5.50888 7L12 7.00003L4.5 7.00001C3.11929 7.00001 2 8.1193 2 9.50001C2 10.1814 2.27258 10.7991 2.71464 11.25H11.9952L12 11.25L12.0048 11.25H21.2854C21.7274 10.7991 22 10.1814 22 9.50001C22 8.1193 20.8807 7.00001 19.5 7.00001L18.4246 7.00002L18.6835 7C19.3916 6.02263 19.3053 4.61288 18.4246 3.73223C17.4483 2.75592 15.8654 2.75592 14.8891 3.73223Z" fill="#2D264B"/>
<path d="M2.98105 12.8356L2.97795 12.7145H11.25V21.9645H10.5C8.17029 21.9645 7.00544 21.9645 6.08659 21.5657C4.86145 21.0341 3.88808 20.0144 3.38061 18.7309C3.00004 17.7684 3.00004 16.5476 3.00004 14.1073C3.00004 13.5725 2.9897 13.1714 2.98105 12.8356Z" fill="#2D264B"/>
<path d="M17.9134 21.5657C16.9946 21.9645 15.8297 21.9645 13.5 21.9645H12.75V12.7145H20.9943C21 13.0746 21 13.5066 21 14.1073C21 16.548 21 17.7683 20.6194 18.7309C20.1119 20.0144 19.1386 21.0341 17.9134 21.5657Z" fill="#2D264B"/>
</svg>
