<svg xmlns="http://www.w3.org/2000/svg" width="24" height="24" viewBox="0 0 24 24">
  <defs/>
  <path fill="#2D264B" d="M14.889,3.732 L12.768,5.854 C12.448,6.173 12.11,6.593 12,7 C11.89,6.593 11.709,6.173 11.389,5.854 L9.268,3.732 C8.291,2.756 6.709,2.756 5.732,3.732 C4.852,4.613 4.801,6.023 5.509,7 L12,7 L4.5,7 C3.119,7 2,8.119 2,9.5 C2,10.181 2.273,10.799 2.715,11.25 L11.995,11.25 L12,11.25 L12.005,11.25 L21.285,11.25 C21.727,10.799 22,10.181 22,9.5 C22,8.119 20.881,7 19.5,7 L18.425,7 L18.683,7 C19.392,6.023 19.305,4.613 18.425,3.732 C17.448,2.756 15.865,2.756 14.889,3.732 Z"/>
  <path fill="#2D264B" d="M2.981,12.836 L2.978,12.714 L11.25,12.714 L11.25,21.965 L10.5,21.965 C8.17,21.965 7.005,21.965 6.087,21.566 C4.861,21.034 3.888,20.014 3.381,18.731 C3,17.768 3,16.548 3,14.107 C3,13.572 2.99,13.171 2.981,12.836 Z"/>
  <path fill="#2D264B" d="M17.913,21.566 C16.995,21.965 15.83,21.965 13.5,21.965 L12.75,21.965 L12.75,12.714 L20.994,12.714 C21,13.075 21,13.507 21,14.107 C21,16.548 21,17.768 20.619,18.731 C20.112,20.014 19.139,21.034 17.913,21.566 Z"/>
</svg>

