<svg xmlns="http://www.w3.org/2000/svg" width="24" height="24" viewBox="0 0 24 24">
  <defs/>
  <path fill="#2D264B" d="M4.5,6 C3.119,6 2,7.119 2,8.5 C2,9.181 2.273,9.799 2.715,10.25 L21.285,10.25 C21.727,9.799 22,9.181 22,8.5 C22,7.119 20.881,6 19.5,6 L12,6 L4.5,6 Z"/>
  <path fill="#2D264B" d="M12,4 C12,2.895 12.895,2 14,2 C15.105,2 16,2.895 16,4 C16,5.105 15.105,6 14,6 L12,6 L12,4 Z"/>
  <path fill="#2D264B" d="M12,4 C12,2.895 11.105,2 10,2 C8.895,2 8,2.895 8,4 C8,5.105 8.895,6 10,6 L12,6 L12,4 Z"/>
  <path fill="#2D264B" d="M11.25,11.75 L2.978,11.75 L2.981,11.871 C2.99,12.207 3,12.608 3,13.143 C3,15.584 3,16.804 3.381,17.766 C3.888,19.05 4.861,20.07 6.087,20.601 C7.005,21 8.17,21 10.5,21 L11.25,21 L11.25,11.75 Z"/>
  <path fill="#2D264B" d="M12.75,21 L13.5,21 C15.83,21 16.995,21 17.913,20.601 C19.139,20.07 20.112,19.05 20.619,17.766 C21,16.804 21,15.584 21,13.143 C21,12.542 21,12.11 20.994,11.75 L12.75,11.75 L12.75,21 Z"/>
</svg>

