<svg xmlns="http://www.w3.org/2000/svg" width="24" height="24" viewBox="0 0 24 24">
  <defs/>
  <path fill="#2D264B" d="M10.5,20.25 C9.324,20.25 8.482,20.25 7.818,20.202 C7.161,20.155 6.735,20.065 6.385,19.913 L5.788,21.289 C6.357,21.536 6.973,21.645 7.711,21.698 C8.441,21.75 9.346,21.75 10.5,21.75 L10.5,20.25 Z M2.25,13.143 C2.25,14.353 2.25,15.297 2.299,16.058 C2.349,16.824 2.452,17.458 2.683,18.042 L4.078,17.491 C3.929,17.113 3.841,16.654 3.796,15.96 C3.75,15.26 3.75,14.373 3.75,13.143 L2.25,13.143 Z M6.385,19.913 C5.349,19.464 4.515,18.596 4.078,17.491 L2.683,18.042 C3.261,19.504 4.374,20.676 5.788,21.289 L6.385,19.913 Z M20.25,13.143 C20.25,14.373 20.25,15.26 20.204,15.96 C20.159,16.654 20.071,17.113 19.922,17.491 L21.317,18.042 C21.548,17.458 21.651,16.824 21.701,16.058 C21.75,15.297 21.75,14.353 21.75,13.143 L20.25,13.143 Z M13.5,21.75 C14.654,21.75 15.559,21.75 16.289,21.698 C17.027,21.645 17.643,21.536 18.212,21.289 L17.615,19.913 C17.265,20.065 16.839,20.155 16.182,20.202 C15.518,20.25 14.676,20.25 13.5,20.25 L13.5,21.75 Z M19.922,17.491 C19.485,18.596 18.651,19.464 17.615,19.913 L18.212,21.289 C19.626,20.676 20.739,19.504 21.317,18.042 L19.922,17.491 Z M3.75,13.143 C3.75,11.67 3.682,11.301 3.747,10.566 L2.253,10.434 C2.181,11.246 2.25,11.857 2.25,13.143 L3.75,13.143 Z M19.5,6.75 C20.466,6.75 21.25,7.534 21.25,8.5 L22.75,8.5 C22.75,6.705 21.295,5.25 19.5,5.25 L19.5,6.75 Z M4.5,5.25 C2.705,5.25 1.25,6.705 1.25,8.5 L2.75,8.5 C2.75,7.534 3.534,6.75 4.5,6.75 L4.5,5.25 Z M11.25,6 L11.25,20 L12.75,20 L12.75,6 L11.25,6 Z M14,5.25 L12,5.25 L12,6.75 L14,6.75 L14,5.25 Z M12.75,6 L12.75,4 L11.25,4 L11.25,6 L12.75,6 Z M15.25,4 C15.25,4.69 14.69,5.25 14,5.25 L14,6.75 C15.519,6.75 16.75,5.519 16.75,4 L15.25,4 Z M14,2.75 C14.69,2.75 15.25,3.31 15.25,4 L16.75,4 C16.75,2.481 15.519,1.25 14,1.25 L14,2.75 Z M14,1.25 C12.481,1.25 11.25,2.481 11.25,4 L12.75,4 C12.75,3.31 13.31,2.75 14,2.75 L14,1.25 Z M10,6.75 L12,6.75 L12,5.25 L10,5.25 L10,6.75 Z M7.25,4 C7.25,5.519 8.481,6.75 10,6.75 L10,5.25 C9.31,5.25 8.75,4.69 8.75,4 L7.25,4 Z M10,1.25 C8.481,1.25 7.25,2.481 7.25,4 L8.75,4 C8.75,3.31 9.31,2.75 10,2.75 L10,1.25 Z M10,2.75 C10.69,2.75 11.25,3.31 11.25,4 L12.75,4 C12.75,2.481 11.519,1.25 10,1.25 L10,2.75 Z M4.5,6.75 L12,6.75 L12,5.25 L4.5,5.25 L4.5,6.75 Z M12,6.75 L19.5,6.75 L19.5,5.25 L12,5.25 L12,6.75 Z M13.5,20.25 L12,20.25 L12,21.75 L13.5,21.75 L13.5,20.25 Z M12,20.25 L10.5,20.25 L10.5,21.75 L12,21.75 L12,20.25 Z M11.25,20 L11.25,21 L12.75,21 L12.75,20 L11.25,20 Z M19.5,10.25 L12,10.25 L12,11.75 L19.5,11.75 L19.5,10.25 Z M12,10.25 L4.5,10.25 L4.5,11.75 L12,11.75 L12,10.25 Z M4.5,10.25 C4.118,10.25 3.767,10.129 3.48,9.922 L2.605,11.14 C3.138,11.524 3.794,11.75 4.5,11.75 L4.5,10.25 Z M3.48,9.922 C3.036,9.603 2.75,9.085 2.75,8.5 L1.25,8.5 C1.25,9.588 1.786,10.552 2.605,11.14 L3.48,9.922 Z M21.25,8.5 C21.25,9.092 20.957,9.616 20.504,9.933 L21.366,11.161 C22.202,10.574 22.75,9.601 22.75,8.5 L21.25,8.5 Z M20.504,9.933 C20.22,10.133 19.875,10.25 19.5,10.25 L19.5,11.75 C20.193,11.75 20.838,11.532 21.366,11.161 L20.504,9.933 Z M21.75,13.143 C21.75,11.798 21.75,11.267 21.683,10.482 L20.188,10.612 C20.25,11.321 20.25,11.785 20.25,13.143 L21.75,13.143 Z"/>
</svg>

