<svg xmlns="http://www.w3.org/2000/svg" width="24" height="24" viewBox="0 0 24 24">
  <defs/>
  <path fill="#2D264B" d="M3,11.464 L3.747,11.531 L3.784,11.118 L3.453,10.867 L3,11.464 Z M18.683,6.964 L18.683,7.714 L19.066,7.714 L19.291,7.404 L18.683,6.964 Z M10.5,21.215 C9.324,21.215 8.482,21.214 7.818,21.166 C7.161,21.12 6.735,21.029 6.385,20.878 L5.788,22.254 C6.357,22.501 6.973,22.61 7.711,22.663 C8.441,22.715 9.346,22.715 10.5,22.715 L10.5,21.215 Z M2.25,14.107 C2.25,15.318 2.25,16.262 2.299,17.022 C2.349,17.789 2.452,18.422 2.683,19.007 L4.078,18.455 C3.929,18.077 3.841,17.619 3.796,16.925 C3.75,16.224 3.75,15.338 3.75,14.107 L2.25,14.107 Z M6.385,20.878 C5.349,20.428 4.515,19.561 4.078,18.455 L2.683,19.007 C3.261,20.468 4.374,21.64 5.788,22.254 L6.385,20.878 Z M20.25,14.107 C20.25,15.337 20.25,16.224 20.204,16.925 C20.159,17.619 20.071,18.077 19.922,18.455 L21.317,19.007 C21.548,18.422 21.651,17.789 21.701,17.022 C21.75,16.262 21.75,15.318 21.75,14.107 L20.25,14.107 Z M13.5,22.715 C14.654,22.715 15.559,22.715 16.289,22.663 C17.027,22.61 17.643,22.501 18.212,22.254 L17.615,20.878 C17.265,21.029 16.839,21.12 16.182,21.166 C15.518,21.214 14.676,21.215 13.5,21.215 L13.5,22.715 Z M19.922,18.455 C19.485,19.561 18.651,20.428 17.615,20.878 L18.212,22.254 C19.626,21.64 20.739,20.468 21.317,19.007 L19.922,18.455 Z M3.75,14.107 C3.75,12.634 3.682,12.266 3.747,11.531 L2.253,11.398 C2.181,12.21 2.25,12.821 2.25,14.107 L3.75,14.107 Z M19.5,7.714 C20.466,7.714 21.25,8.498 21.25,9.464 L22.75,9.464 C22.75,7.67 21.295,6.214 19.5,6.214 L19.5,7.714 Z M4.5,6.214 C2.705,6.214 1.25,7.67 1.25,9.464 L2.75,9.464 C2.75,8.498 3.534,7.714 4.5,7.714 L4.5,6.214 Z M13.298,6.384 L15.419,4.263 L14.359,3.202 L12.237,5.323 L13.298,6.384 Z M15.419,4.263 C16.103,3.579 17.211,3.579 17.894,4.263 L18.955,3.202 C17.686,1.933 15.628,1.933 14.359,3.202 L15.419,4.263 Z M12.237,5.323 C11.924,5.637 11.445,6.147 11.276,6.768 L12.724,7.161 C12.776,6.968 12.973,6.709 13.298,6.384 L12.237,5.323 Z M17.894,4.263 C18.51,4.879 18.571,5.841 18.076,6.524 L19.291,7.404 C20.212,6.133 20.1,4.347 18.955,3.202 L17.894,4.263 Z M11.919,5.323 L9.798,3.202 L8.737,4.263 L10.859,6.384 L11.919,5.323 Z M9.798,3.202 C8.529,1.933 6.471,1.933 5.202,3.202 L6.263,4.263 C6.946,3.579 8.054,3.579 8.737,4.263 L9.798,3.202 Z M10.859,6.384 C11.06,6.585 11.189,6.839 11.276,7.161 L12.724,6.768 C12.59,6.276 12.357,5.761 11.919,5.323 L10.859,6.384 Z M5.202,3.202 C4.057,4.347 3.945,6.133 4.866,7.404 L6.081,6.524 C5.585,5.841 5.647,4.879 6.263,4.263 L5.202,3.202 Z M11.25,6.964 L11.25,20.965 L12.75,20.965 L12.75,6.964 L11.25,6.964 Z M5.473,7.714 L12,7.714 L12,6.214 L5.473,6.214 L5.473,7.714 Z M4.5,11.214 C4.095,11.214 3.724,11.078 3.428,10.848 L2.507,12.032 C3.058,12.46 3.75,12.714 4.5,12.714 L4.5,11.214 Z M3.428,10.848 C3.014,10.526 2.75,10.026 2.75,9.464 L1.25,9.464 C1.25,10.509 1.744,11.439 2.507,12.032 L3.428,10.848 Z M3.453,10.867 L3.421,10.842 L2.514,12.037 L2.547,12.062 L3.453,10.867 Z M13.5,21.215 L12,21.215 L12,22.715 L13.5,22.715 L13.5,21.215 Z M12,21.215 L10.5,21.215 L10.5,22.715 L12,22.715 L12,21.215 Z M11.25,20.965 L11.25,21.965 L12.75,21.965 L12.75,20.965 L11.25,20.965 Z M19.5,11.214 L12,11.214 L12,12.714 L19.5,12.714 L19.5,11.214 Z M12,11.214 L4.5,11.214 L4.5,12.714 L12,12.714 L12,11.214 Z M21.25,9.464 C21.25,10.056 20.957,10.58 20.504,10.898 L21.366,12.125 C22.202,11.539 22.75,10.566 22.75,9.464 L21.25,9.464 Z M20.504,10.898 C20.22,11.097 19.875,11.214 19.5,11.214 L19.5,12.714 C20.193,12.714 20.838,12.496 21.366,12.125 L20.504,10.898 Z M21.75,14.107 C21.75,12.762 21.75,12.232 21.683,11.447 L20.188,11.576 C20.25,12.285 20.25,12.749 20.25,14.107 L21.75,14.107 Z M12,7.714 L18.425,7.714 L18.425,6.214 L12,6.214 L12,7.714 Z M18.425,7.714 L18.683,7.714 L18.683,6.214 L18.425,6.214 L18.425,7.714 Z M18.425,7.714 L19.5,7.714 L19.5,6.214 L18.425,6.214 L18.425,7.714 Z M5.473,6.214 L4.5,6.214 L4.5,7.714 L5.473,7.714 L5.473,6.214 Z M4.5,7.714 L8.25,7.714 L8.25,6.214 L4.5,6.214 L4.5,7.714 Z M8.25,7.714 L12,7.714 L12,6.214 L8.25,6.214 L8.25,7.714 Z M5.473,7.714 L8.25,7.714 L8.25,6.214 L5.473,6.214 L5.473,7.714 Z M12,7.714 L18.683,7.714 L18.683,6.214 L12,6.214 L12,7.714 Z"/>
</svg>

