<svg xmlns="http://www.w3.org/2000/svg" width="24" height="24" viewBox="0 0 24 24">
  <defs/>
  <path fill="#2D264B" d="M18,13.499 C19.105,13.499 20.022,14.405 19.779,15.482 C19.537,16.553 19.099,17.577 18.483,18.499 C17.494,19.979 16.089,21.133 14.444,21.814 C12.8,22.495 10.99,22.673 9.244,22.326 C7.498,21.979 5.895,21.121 4.636,19.863 C3.377,18.604 2.52,17 2.173,15.255 C1.826,13.509 2.004,11.699 2.685,10.055 C3.366,8.41 4.52,7.005 6,6.016 C6.922,5.399 7.945,4.962 9.016,4.72 C10.094,4.477 11,5.394 11,6.499 L11,8.499 C11,11.26 13.239,13.499 16,13.499 L18,13.499 Z"/>
  <path fill="#2D264B" d="M14,5.033 C14,3.081 15.641,1.437 17.444,2.184 C18.536,2.636 19.528,3.299 20.364,4.135 C21.2,4.971 21.863,5.963 22.315,7.055 C23.062,8.858 21.418,10.499 19.466,10.499 L18.5,10.499 C16.015,10.499 14,8.484 14,5.999 L14,5.033 Z"/>
</svg>

