<svg xmlns="http://www.w3.org/2000/svg" width="24" height="24" viewBox="0 0 24 24">
  <defs/>
  <path fill="#2D264B" d="M19.047,15.317 C18.825,16.299 18.424,17.237 17.86,18.082 L19.107,18.916 C19.774,17.916 20.248,16.808 20.51,15.648 L19.047,15.317 Z M17.86,18.082 C16.953,19.439 15.665,20.496 14.157,21.121 L14.731,22.507 C16.513,21.769 18.035,20.519 19.107,18.916 L17.86,18.082 Z M14.157,21.121 C12.65,21.745 10.991,21.909 9.391,21.59 L9.098,23.061 C10.989,23.438 12.95,23.245 14.731,22.507 L14.157,21.121 Z M9.391,21.59 C7.79,21.272 6.32,20.486 5.166,19.332 L4.106,20.393 C5.469,21.757 7.207,22.685 9.098,23.061 L9.391,21.59 Z M5.166,19.332 C4.013,18.179 3.227,16.709 2.909,15.108 L1.437,15.401 C1.814,17.292 2.742,19.029 4.106,20.393 L5.166,19.332 Z M2.909,15.108 C2.59,13.508 2.754,11.849 3.378,10.342 L1.992,9.768 C1.254,11.549 1.061,13.51 1.437,15.401 L2.909,15.108 Z M3.378,10.342 C4.002,8.834 5.06,7.546 6.417,6.639 L5.583,5.392 C3.98,6.463 2.73,7.986 1.992,9.768 L3.378,10.342 Z M6.417,6.639 C7.262,6.074 8.2,5.674 9.182,5.452 L8.851,3.989 C7.691,4.251 6.582,4.724 5.583,5.392 L6.417,6.639 Z M10.25,6.499 L10.25,8.499 L11.75,8.499 L11.75,6.499 L10.25,6.499 Z M16,14.249 L18,14.249 L18,12.749 L16,12.749 L16,14.249 Z M10.25,8.499 C10.25,11.674 12.824,14.249 16,14.249 L16,12.749 C13.653,12.749 11.75,10.846 11.75,8.499 L10.25,8.499 Z M9.182,5.452 C9.674,5.34 10.25,5.749 10.25,6.499 L11.75,6.499 C11.75,5.039 10.513,3.613 8.851,3.989 L9.182,5.452 Z M20.51,15.648 C20.886,13.986 19.459,12.749 18,12.749 L18,14.249 C18.75,14.249 19.158,14.825 19.047,15.317 L20.51,15.648 Z M17.157,2.877 C18.158,3.291 19.068,3.899 19.834,4.665 L20.894,3.605 C19.989,2.699 18.914,1.981 17.731,1.491 L17.157,2.877 Z M19.834,4.665 C20.6,5.431 21.207,6.341 21.622,7.342 L23.008,6.768 C22.518,5.585 21.8,4.51 20.894,3.605 L19.834,4.665 Z M19.466,9.749 L18.5,9.749 L18.5,11.249 L19.466,11.249 L19.466,9.749 Z M14.75,5.999 L14.75,5.033 L13.25,5.033 L13.25,5.999 L14.75,5.999 Z M21.622,7.342 C21.874,7.949 21.734,8.511 21.34,8.956 C20.93,9.421 20.24,9.749 19.466,9.749 L19.466,11.249 C20.643,11.249 21.752,10.756 22.464,9.95 C23.194,9.124 23.503,7.963 23.008,6.768 L21.622,7.342 Z M18.5,9.749 C16.429,9.749 14.75,8.07 14.75,5.999 L13.25,5.999 C13.25,8.898 15.601,11.249 18.5,11.249 L18.5,9.749 Z M17.731,1.491 C16.535,0.996 15.375,1.305 14.549,2.034 C13.743,2.747 13.25,3.855 13.25,5.033 L14.75,5.033 C14.75,4.259 15.078,3.569 15.543,3.158 C15.988,2.765 16.549,2.625 17.157,2.877 L17.731,1.491 Z"/>
</svg>

