<svg xmlns="http://www.w3.org/2000/svg" width="24" height="24" viewBox="0 0 24 24">
  <defs/>
  <path fill="#2D264B" d="M8.651,10.368 C7.786,9.508 7.25,8.316 7.25,7 C7.25,5.684 7.786,4.492 8.651,3.632 C8.153,3.387 7.592,3.25 7,3.25 C4.929,3.25 3.25,4.929 3.25,7 C3.25,9.071 4.929,10.75 7,10.75 C7.592,10.75 8.153,10.613 8.651,10.368 Z"/>
  <path fill="#2D264B" d="M8.25,7 C8.25,4.929 9.929,3.25 12,3.25 C14.071,3.25 15.75,4.929 15.75,7 C15.75,9.071 14.071,10.75 12,10.75 C9.929,10.75 8.25,9.071 8.25,7 Z"/>
  <path fill="#2D264B" d="M15.349,3.632 C16.215,4.492 16.75,5.684 16.75,7 C16.75,8.316 16.215,9.508 15.349,10.368 C15.847,10.613 16.408,10.75 17,10.75 C19.071,10.75 20.75,9.071 20.75,7 C20.75,4.929 19.071,3.25 17,3.25 C16.408,3.25 15.847,3.387 15.349,3.632 Z"/>
  <path fill="#2D264B" d="M5.25,16 C5.25,13.929 6.929,12.25 9,12.25 L15,12.25 C17.071,12.25 18.75,13.929 18.75,16 C18.75,18.071 17.071,19.75 15,19.75 L9,19.75 C6.929,19.75 5.25,18.071 5.25,16 Z"/>
  <path fill="#2D264B" d="M0.25,15 C0.25,12.929 1.929,11.25 4,11.25 L9,11.25 C6.377,11.25 4.25,13.377 4.25,16 C4.25,17.025 4.575,17.974 5.127,18.75 L4,18.75 C1.929,18.75 0.25,17.071 0.25,15 Z"/>
  <path fill="#2D264B" d="M19.75,16 C19.75,17.025 19.425,17.974 18.873,18.75 L20,18.75 C22.071,18.75 23.75,17.071 23.75,15 C23.75,12.929 22.071,11.25 20,11.25 L15,11.25 C17.623,11.25 19.75,13.377 19.75,16 Z"/>
</svg>

