<svg width="24" height="24" viewBox="0 0 24 24" fill="none" xmlns="http://www.w3.org/2000/svg">
<path d="M18.5 7.75C18.5 5.67893 16.8211 4 14.75 4C12.6789 4 11 5.67893 11 7.75C11 9.82107 12.6789 11.5 14.75 11.5C16.8211 11.5 18.5 9.82107 18.5 7.75Z" fill="#2D264B"/>
<path d="M11.4006 4.38188C10.5355 5.24219 10 6.43355 10 7.75C10 9.06645 10.5355 10.2578 11.4006 11.1181C10.9026 11.3627 10.3423 11.5 9.75 11.5C7.67893 11.5 6 9.82107 6 7.75C6 5.67893 7.67893 4 9.75 4C10.3423 4 10.9026 4.13733 11.4006 4.38188Z" fill="#2D264B"/>
<path d="M21.5 16.75C21.5 14.6789 19.8211 13 17.75 13H11.75C9.67893 13 8 14.6789 8 16.75C8 18.8211 9.67893 20.5 11.75 20.5H17.75C19.8211 20.5 21.5 18.8211 21.5 16.75Z" fill="#2D264B"/>
<path d="M7 16.75C7 17.7749 7.32458 18.7239 7.87655 19.5H6.75C4.67893 19.5 3 17.8211 3 15.75C3 13.6789 4.67893 12 6.75 12H11.75C9.12665 12 7 14.1266 7 16.75Z" fill="#2D264B"/>
</svg>
