<svg xmlns="http://www.w3.org/2000/svg" width="24" height="24" viewBox="0 0 24 24">
  <defs/>
  <path fill="#2D264B" d="M18.5,7.75 C18.5,5.679 16.821,4 14.75,4 C12.679,4 11,5.679 11,7.75 C11,9.821 12.679,11.5 14.75,11.5 C16.821,11.5 18.5,9.821 18.5,7.75 Z"/>
  <path fill="#2D264B" d="M11.401,4.382 C10.536,5.242 10,6.434 10,7.75 C10,9.066 10.536,10.258 11.401,11.118 C10.903,11.363 10.342,11.5 9.75,11.5 C7.679,11.5 6,9.821 6,7.75 C6,5.679 7.679,4 9.75,4 C10.342,4 10.903,4.137 11.401,4.382 Z"/>
  <path fill="#2D264B" d="M21.5,16.75 C21.5,14.679 19.821,13 17.75,13 L11.75,13 C9.679,13 8,14.679 8,16.75 C8,18.821 9.679,20.5 11.75,20.5 L17.75,20.5 C19.821,20.5 21.5,18.821 21.5,16.75 Z"/>
  <path fill="#2D264B" d="M7,16.75 C7,17.775 7.325,18.724 7.877,19.5 L6.75,19.5 C4.679,19.5 3,17.821 3,15.75 C3,13.679 4.679,12 6.75,12 L11.75,12 C9.127,12 7,14.127 7,16.75 Z"/>
</svg>

