<svg xmlns="http://www.w3.org/2000/svg" width="24" height="24" viewBox="0 0 24 24">
  <defs/>
  <path fill="#2D264B" d="M6,7.75 C6,5.679 7.679,4 9.75,4 C11.821,4 13.5,5.679 13.5,7.75 C13.5,9.821 11.821,11.5 9.75,11.5 C7.679,11.5 6,9.821 6,7.75 Z"/>
  <path fill="#2D264B" d="M13.099,4.382 C13.964,5.242 14.5,6.434 14.5,7.75 C14.5,9.066 13.964,10.258 13.099,11.118 C13.597,11.363 14.158,11.5 14.75,11.5 C16.821,11.5 18.5,9.821 18.5,7.75 C18.5,5.679 16.821,4 14.75,4 C14.158,4 13.597,4.137 13.099,4.382 Z"/>
  <path fill="#2D264B" d="M3,16.75 C3,14.679 4.679,13 6.75,13 L12.75,13 C14.821,13 16.5,14.679 16.5,16.75 C16.5,18.821 14.821,20.5 12.75,20.5 L6.75,20.5 C4.679,20.5 3,18.821 3,16.75 Z"/>
  <path fill="#2D264B" d="M17.5,16.75 C17.5,17.775 17.175,18.724 16.623,19.5 L17.75,19.5 C19.821,19.5 21.5,17.821 21.5,15.75 C21.5,13.679 19.821,12 17.75,12 L12.75,12 C15.373,12 17.5,14.127 17.5,16.75 Z"/>
</svg>

