<svg xmlns="http://www.w3.org/2000/svg" width="24" height="24" viewBox="0 0 24 24">
  <defs/>
  <path fill="#2D264B" d="M17,7.75 C17,8.993 15.993,10 14.75,10 L14.75,11.5 C16.821,11.5 18.5,9.821 18.5,7.75 L17,7.75 Z M14.75,10 C13.507,10 12.5,8.993 12.5,7.75 L11,7.75 C11,9.821 12.679,11.5 14.75,11.5 L14.75,10 Z M12.5,7.75 C12.5,6.507 13.507,5.5 14.75,5.5 L14.75,4 C12.679,4 11,5.679 11,7.75 L12.5,7.75 Z M14.75,5.5 C15.993,5.5 17,6.507 17,7.75 L18.5,7.75 C18.5,5.679 16.821,4 14.75,4 L14.75,5.5 Z M11.75,14.5 L17.75,14.5 L17.75,13 L11.75,13 L11.75,14.5 Z M17.75,19 L11.75,19 L11.75,20.5 L17.75,20.5 L17.75,19 Z M11.75,19 C10.507,19 9.5,17.993 9.5,16.75 L8,16.75 C8,18.821 9.679,20.5 11.75,20.5 L11.75,19 Z M20,16.75 C20,17.993 18.993,19 17.75,19 L17.75,20.5 C19.821,20.5 21.5,18.821 21.5,16.75 L20,16.75 Z M17.75,14.5 C18.993,14.5 20,15.507 20,16.75 L21.5,16.75 C21.5,14.679 19.821,13 17.75,13 L17.75,14.5 Z M11.75,13 C9.679,13 8,14.679 8,16.75 L9.5,16.75 C9.5,15.507 10.507,14.5 11.75,14.5 L11.75,13 Z"/>
  <path fill="#2D264B" d="M10.502,10.389 C10.344,10.135 10.049,10 9.75,10 C8.507,10 7.5,8.993 7.5,7.75 C7.5,6.507 8.507,5.5 9.75,5.5 C10.049,5.5 10.344,5.365 10.502,5.111 C10.509,5.1 10.516,5.089 10.523,5.078 C10.786,4.663 10.653,4.076 10.165,4.023 C10.029,4.008 9.89,4 9.75,4 C7.679,4 6,5.679 6,7.75 C6,9.821 7.679,11.5 9.75,11.5 C9.89,11.5 10.029,11.492 10.165,11.477 C10.653,11.424 10.786,10.837 10.523,10.422 C10.516,10.411 10.509,10.4 10.502,10.389 Z"/>
  <path fill="#2D264B" d="M7.458,18.317 C7.345,18.128 7.144,18 6.924,18 L6.75,18 C5.507,18 4.5,16.993 4.5,15.75 C4.5,14.507 5.507,13.5 6.75,13.5 L6.924,13.5 C7.144,13.5 7.345,13.373 7.458,13.183 C7.735,12.721 7.435,12 6.896,12 L6.75,12 C4.679,12 3,13.679 3,15.75 C3,17.821 4.679,19.5 6.75,19.5 L6.896,19.5 C7.435,19.5 7.735,18.779 7.458,18.317 Z"/>
</svg>

