<svg xmlns="http://www.w3.org/2000/svg" width="24" height="24" viewBox="0 0 24 24">
  <defs/>
  <path fill="#2D264B" d="M7,7.75 C7,8.993 8.007,10 9.25,10 L9.25,11.5 C7.179,11.5 5.5,9.821 5.5,7.75 L7,7.75 Z M9.25,10 C10.493,10 11.5,8.993 11.5,7.75 L13,7.75 C13,9.821 11.321,11.5 9.25,11.5 L9.25,10 Z M11.5,7.75 C11.5,6.507 10.493,5.5 9.25,5.5 L9.25,4 C11.321,4 13,5.679 13,7.75 L11.5,7.75 Z M9.25,5.5 C8.007,5.5 7,6.507 7,7.75 L5.5,7.75 C5.5,5.679 7.179,4 9.25,4 L9.25,5.5 Z M12.25,14.5 L6.25,14.5 L6.25,13 L12.25,13 L12.25,14.5 Z M6.25,19 L12.25,19 L12.25,20.5 L6.25,20.5 L6.25,19 Z M12.25,19 C13.493,19 14.5,17.993 14.5,16.75 L16,16.75 C16,18.821 14.321,20.5 12.25,20.5 L12.25,19 Z M4,16.75 C4,17.993 5.007,19 6.25,19 L6.25,20.5 C4.179,20.5 2.5,18.821 2.5,16.75 L4,16.75 Z M6.25,14.5 C5.007,14.5 4,15.507 4,16.75 L2.5,16.75 C2.5,14.679 4.179,13 6.25,13 L6.25,14.5 Z M12.25,13 C14.321,13 16,14.679 16,16.75 L14.5,16.75 C14.5,15.507 13.493,14.5 12.25,14.5 L12.25,13 Z"/>
  <path fill="#2D264B" d="M13.498,10.389 C13.656,10.135 13.951,10 14.25,10 C15.493,10 16.5,8.993 16.5,7.75 C16.5,6.507 15.493,5.5 14.25,5.5 C13.951,5.5 13.656,5.365 13.498,5.111 C13.491,5.1 13.484,5.089 13.477,5.078 C13.214,4.663 13.347,4.076 13.835,4.023 C13.971,4.008 14.11,4 14.25,4 C16.321,4 18,5.679 18,7.75 C18,9.821 16.321,11.5 14.25,11.5 C14.11,11.5 13.971,11.492 13.835,11.477 C13.347,11.424 13.214,10.837 13.477,10.422 C13.484,10.411 13.491,10.4 13.498,10.389 Z"/>
  <path fill="#2D264B" d="M16.542,18.317 C16.655,18.128 16.856,18 17.076,18 L17.25,18 C18.493,18 19.5,16.993 19.5,15.75 C19.5,14.507 18.493,13.5 17.25,13.5 L17.076,13.5 C16.856,13.5 16.655,13.373 16.542,13.183 C16.265,12.721 16.565,12 17.104,12 L17.25,12 C19.321,12 21,13.679 21,15.75 C21,17.821 19.321,19.5 17.25,19.5 L17.104,19.5 C16.565,19.5 16.265,18.779 16.542,18.317 Z"/>
</svg>

