<svg xmlns="http://www.w3.org/2000/svg" width="24" height="24" viewBox="0 0 24 24">
  <defs/>
  <path fill="#2D264B" d="M14.25,7.75 C14.25,8.993 13.243,10 12,10 L12,11.5 C14.071,11.5 15.75,9.821 15.75,7.75 L14.25,7.75 Z M12,10 C10.757,10 9.75,8.993 9.75,7.75 L8.25,7.75 C8.25,9.821 9.929,11.5 12,11.5 L12,10 Z M9.75,7.75 C9.75,6.507 10.757,5.5 12,5.5 L12,4 C9.929,4 8.25,5.679 8.25,7.75 L9.75,7.75 Z M12,5.5 C13.243,5.5 14.25,6.507 14.25,7.75 L15.75,7.75 C15.75,5.679 14.071,4 12,4 L12,5.5 Z M9,14.5 L15,14.5 L15,13 L9,13 L9,14.5 Z M15,19 L9,19 L9,20.5 L15,20.5 L15,19 Z M9,19 C7.757,19 6.75,17.993 6.75,16.75 L5.25,16.75 C5.25,18.821 6.929,20.5 9,20.5 L9,19 Z M17.25,16.75 C17.25,17.993 16.243,19 15,19 L15,20.5 C17.071,20.5 18.75,18.821 18.75,16.75 L17.25,16.75 Z M15,14.5 C16.243,14.5 17.25,15.507 17.25,16.75 L18.75,16.75 C18.75,14.679 17.071,13 15,13 L15,14.5 Z M9,13 C6.929,13 5.25,14.679 5.25,16.75 L6.75,16.75 C6.75,15.507 7.757,14.5 9,14.5 L9,13 Z"/>
  <path fill="#2D264B" d="M7.752,10.389 C7.594,10.135 7.298,10 7,10 C5.757,10 4.75,8.993 4.75,7.75 C4.75,6.507 5.757,5.5 7,5.5 C7.298,5.5 7.594,5.365 7.752,5.111 C7.759,5.1 7.766,5.089 7.773,5.078 C8.036,4.663 7.903,4.076 7.415,4.023 C7.279,4.008 7.14,4 7,4 C4.929,4 3.25,5.679 3.25,7.75 C3.25,9.821 4.929,11.5 7,11.5 C7.14,11.5 7.279,11.492 7.415,11.477 C7.903,11.424 8.036,10.837 7.773,10.422 C7.766,10.411 7.759,10.4 7.752,10.389 Z"/>
  <path fill="#2D264B" d="M4.708,18.317 C4.595,18.128 4.394,18 4.174,18 L4,18 C2.757,18 1.75,16.993 1.75,15.75 C1.75,14.507 2.757,13.5 4,13.5 L4.174,13.5 C4.394,13.5 4.595,13.373 4.708,13.183 C4.985,12.721 4.685,12 4.146,12 L4,12 C1.929,12 0.25,13.679 0.25,15.75 C0.25,17.821 1.929,19.5 4,19.5 L4.146,19.5 C4.685,19.5 4.985,18.779 4.708,18.317 Z"/>
  <path fill="#2D264B" d="M16.227,10.422 C15.964,10.837 16.097,11.424 16.585,11.477 C16.721,11.492 16.86,11.5 17,11.5 C19.071,11.5 20.75,9.821 20.75,7.75 C20.75,5.679 19.071,4 17,4 C16.86,4 16.721,4.008 16.585,4.023 C16.097,4.076 15.964,4.663 16.227,5.078 C16.234,5.089 16.241,5.1 16.248,5.111 C16.406,5.365 16.701,5.5 17,5.5 C18.243,5.5 19.25,6.507 19.25,7.75 C19.25,8.993 18.243,10 17,10 C16.701,10 16.406,10.135 16.248,10.389 C16.241,10.4 16.234,10.411 16.227,10.422 Z"/>
  <path fill="#2D264B" d="M19.292,18.317 C19.015,18.779 19.315,19.5 19.854,19.5 L20,19.5 C22.071,19.5 23.75,17.821 23.75,15.75 C23.75,13.679 22.071,12 20,12 L19.854,12 C19.315,12 19.015,12.721 19.292,13.183 C19.405,13.373 19.606,13.5 19.826,13.5 L20,13.5 C21.243,13.5 22.25,14.507 22.25,15.75 C22.25,16.993 21.243,18 20,18 L19.826,18 C19.606,18 19.405,18.128 19.292,18.317 Z"/>
</svg>

