<svg width="24" height="24" viewBox="0 0 24 24" fill="none" xmlns="http://www.w3.org/2000/svg">
<path fill-rule="evenodd" clip-rule="evenodd" d="M22 12C22 17.5228 17.5228 22 12 22C6.47715 22 2 17.5228 2 12C2 6.47715 6.47715 2 12 2C17.5228 2 22 6.47715 22 12ZM6.65476 13.3342C7.02248 13.1435 7.47515 13.287 7.66582 13.6548C7.93492 14.1738 8.49474 14.8336 9.27171 15.3619C10.0419 15.8856 10.9809 16.25 12 16.25C13.0191 16.25 13.9581 15.8856 14.7283 15.3619C15.5053 14.8336 16.0651 14.1738 16.3342 13.6548C16.5249 13.287 16.9775 13.1435 17.3452 13.3342C17.713 13.5249 17.8565 13.9775 17.6658 14.3452C17.2683 15.112 16.5281 15.9521 15.5717 16.6024C14.6085 17.2573 13.3809 17.75 12 17.75C10.6191 17.75 9.39148 17.2573 8.42829 16.6024C7.47192 15.9521 6.73174 15.112 6.33418 14.3452C6.14351 13.9775 6.28704 13.5249 6.65476 13.3342ZM9 9C9.55228 9 10 8.55228 10 8C10 7.44772 9.55228 7 9 7C8.44772 7 8 7.44772 8 8C8 8.55228 8.44772 9 9 9ZM15 9C15.5523 9 16 8.55228 16 8C16 7.44772 15.5523 7 15 7C14.4477 7 14 7.44772 14 8C14 8.55228 14.4477 9 15 9Z" fill="#2D264B"/>
</svg>
