<svg xmlns="http://www.w3.org/2000/svg" width="24" height="24" viewBox="0 0 24 24">
  <defs/>
  <path fill="#2D264B" d="M22,12 C22,17.523 17.523,22 12,22 C6.477,22 2,17.523 2,12 C2,6.477 6.477,2 12,2 C17.523,2 22,6.477 22,12 Z M6.655,13.334 C6.287,13.525 6.144,13.977 6.334,14.345 C6.732,15.112 7.472,15.952 8.428,16.602 C9.391,17.257 10.619,17.75 12,17.75 C13.381,17.75 14.608,17.257 15.572,16.602 C16.528,15.952 17.268,15.112 17.666,14.345 C17.857,13.977 17.713,13.525 17.345,13.334 C16.978,13.144 16.525,13.287 16.334,13.655 C16.065,14.174 15.505,14.834 14.728,15.362 C13.958,15.886 13.019,16.25 12,16.25 C10.981,16.25 10.042,15.886 9.272,15.362 C8.495,14.834 7.935,14.174 7.666,13.655 C7.475,13.287 7.022,13.144 6.655,13.334 Z M15,9 C15.552,9 16,8.552 16,8 C16,7.448 15.552,7 15,7 C14.448,7 14,7.448 14,8 C14,8.552 14.448,9 15,9 Z M9,9 C9.552,9 10,8.552 10,8 C10,7.448 9.552,7 9,7 C8.448,7 8,7.448 8,8 C8,8.552 8.448,9 9,9 Z"/>
</svg>

