<svg xmlns="http://www.w3.org/2000/svg" width="24" height="24" viewBox="0 0 24 24">
  <defs/>
  <path fill="#2D264B" d="M12,22 C6.477,22 2,17.523 2,12 C2,6.477 6.477,2 12,2 C17.523,2 22,6.477 22,12 C22,17.523 17.523,22 12,22 Z M12,19 C13.701,19 15.168,17.636 16.115,16.384 C16.568,15.786 16.105,15 15.355,15 L8.645,15 C7.895,15 7.432,15.786 7.885,16.384 C8.832,17.636 10.299,19 12,19 Z M8.9,7.255 C8.664,7.388 8.336,7.388 8.1,7.255 C7.681,7.019 7.006,6.796 6.422,7.325 C5.037,8.58 7.412,11 8.5,11 C9.588,11 11.963,8.58 10.578,7.325 C9.994,6.796 9.319,7.019 8.9,7.255 Z M17.578,7.325 C16.994,6.796 16.319,7.019 15.9,7.255 C15.664,7.388 15.336,7.388 15.1,7.255 C14.681,7.019 14.006,6.796 13.422,7.325 C12.037,8.58 14.413,11 15.5,11 C16.587,11 18.963,8.58 17.578,7.325 Z"/>
</svg>

