<svg width="24" height="24" viewBox="0 0 24 24" fill="none" xmlns="http://www.w3.org/2000/svg">
<path fill-rule="evenodd" clip-rule="evenodd" d="M12 22C17.5228 22 22 17.5228 22 12C22 6.47715 17.5228 2 12 2C6.47715 2 2 6.47715 2 12C2 17.5228 6.47715 22 12 22ZM8.90017 7.25465C9.31858 7.01872 9.99432 6.79563 10.5779 7.3246C11.9631 8.5803 9.58754 11 8.5 11C7.41247 11 5.03688 8.5803 6.42213 7.3246C7.00568 6.79563 7.68141 7.01873 8.09982 7.25465C8.33624 7.38796 8.66375 7.38796 8.90017 7.25465ZM17.5779 7.3246C16.9943 6.79563 16.3186 7.01872 15.9002 7.25465C15.6637 7.38796 15.3362 7.38796 15.0998 7.25465C14.6814 7.01873 14.0057 6.79563 13.4221 7.3246C12.0369 8.5803 14.4125 11 15.5 11C16.5875 11 18.9631 8.5803 17.5779 7.3246ZM12 19C10.2988 19 8.832 17.6362 7.88467 16.384C7.43226 15.7861 7.89514 15 8.64496 15H15.355C16.1049 15 16.5677 15.7861 16.1153 16.384C15.168 17.6362 13.7012 19 12 19Z" fill="#2D264B"/>
</svg>
