<svg xmlns="http://www.w3.org/2000/svg" width="24" height="24" viewBox="0 0 24 24">
  <defs/>
  <path fill="#2D264B" d="M10.75,13.25 L10.75,10.75 L13.25,10.75 L13.25,13.25 L10.75,13.25 Z"/>
  <path fill="#2D264B" d="M12.045,2.25 C13.882,2.25 15.321,2.25 16.463,2.374 C17.629,2.5 18.573,2.762 19.38,3.348 C19.868,3.703 20.297,4.132 20.652,4.62 C21.238,5.427 21.5,6.371 21.626,7.536 C21.75,8.679 21.75,10.118 21.75,11.955 L21.75,12.045 C21.75,13.882 21.75,15.321 21.626,16.463 C21.5,17.629 21.238,18.573 20.652,19.38 C20.297,19.868 19.868,20.297 19.38,20.652 C18.573,21.238 17.629,21.5 16.463,21.626 C15.321,21.75 13.882,21.75 12.045,21.75 L11.955,21.75 C10.118,21.75 8.679,21.75 7.536,21.626 C6.371,21.5 5.427,21.238 4.62,20.652 C4.132,20.297 3.703,19.868 3.348,19.38 C2.762,18.573 2.5,17.629 2.374,16.463 C2.25,15.321 2.25,13.882 2.25,12.045 L2.25,11.955 C2.25,10.118 2.25,8.679 2.374,7.536 C2.5,6.371 2.762,5.427 3.348,4.62 C3.703,4.132 4.132,3.703 4.62,3.348 C5.427,2.762 6.371,2.5 7.536,2.374 C8.679,2.25 10.118,2.25 11.955,2.25 Z M10.75,7 C10.75,6.586 10.414,6.25 10,6.25 C9.586,6.25 9.25,6.586 9.25,7 L9.25,9.25 L7,9.25 C6.586,9.25 6.25,9.586 6.25,10 C6.25,10.414 6.586,10.75 7,10.75 L9.25,10.75 L9.25,13.25 L7,13.25 C6.586,13.25 6.25,13.586 6.25,14 C6.25,14.414 6.586,14.75 7,14.75 L9.25,14.75 L9.25,17 C9.25,17.414 9.586,17.75 10,17.75 C10.414,17.75 10.75,17.414 10.75,17 L10.75,14.75 L13.25,14.75 L13.25,17 C13.25,17.414 13.586,17.75 14,17.75 C14.414,17.75 14.75,17.414 14.75,17 L14.75,14.75 L17,14.75 C17.414,14.75 17.75,14.414 17.75,14 C17.75,13.586 17.414,13.25 17,13.25 L14.75,13.25 L14.75,10.75 L17,10.75 C17.414,10.75 17.75,10.414 17.75,10 C17.75,9.586 17.414,9.25 17,9.25 L14.75,9.25 L14.75,7 C14.75,6.586 14.414,6.25 14,6.25 C13.586,6.25 13.25,6.586 13.25,7 L13.25,9.25 L10.75,9.25 Z"/>
</svg>

