<svg width="24" height="24" viewBox="0 0 24 24" fill="none" xmlns="http://www.w3.org/2000/svg">
<path d="M10.397 3.89454C11.457 3.70182 12.543 3.70182 13.603 3.89454C18.3658 4.76051 21.5798 9.25273 20.8617 14.0401L20.8535 14.0946C19.4028 14.1708 18.25 15.3711 18.25 16.8408V18.8408C18.25 20.3596 19.4812 21.5908 21 21.5908C22.5188 21.5908 23.75 20.3596 23.75 18.8408V16.8408C23.75 15.7999 23.1721 14.8952 22.3203 14.4281L22.3451 14.2626C23.1834 8.67386 19.4314 3.42967 13.8713 2.41873C12.6339 2.19376 11.3661 2.19376 10.1287 2.41873C4.56859 3.42967 0.816569 8.67386 1.65488 14.2626L1.67971 14.4281C0.827854 14.8952 0.25 15.7999 0.25 16.8408V18.8408C0.25 20.3596 1.48122 21.5908 3 21.5908C4.51878 21.5908 5.75 20.3596 5.75 18.8408V16.8408C5.75 15.3711 4.59716 14.1708 3.14647 14.0946L3.13829 14.0401C2.42018 9.25273 5.63419 4.76051 10.397 3.89454Z" fill="#2D264B"/>
<path d="M7.53033 13.3105C7.23744 13.0176 6.76256 13.0176 6.46967 13.3105C6.17678 13.6034 6.17678 14.0782 6.46967 14.3711L6.86967 14.7711C6.93136 14.8328 6.9566 14.8581 6.97686 14.8789C8.57962 16.5283 8.57962 19.1533 6.97686 20.8027C6.9566 20.8235 6.93136 20.8488 6.86967 20.9105L6.46967 21.3105C6.17678 21.6034 6.17678 22.0782 6.46967 22.3711C6.76256 22.664 7.23744 22.664 7.53033 22.3711L7.93574 21.9657C7.9904 21.9111 8.02394 21.8775 8.0526 21.848C10.221 19.6166 10.221 16.065 8.0526 13.8336C8.02388 13.804 7.99048 13.7706 7.93563 13.7158L7.53033 13.3105Z" fill="#2D264B"/>
<path d="M17.5303 14.3711C17.8232 14.0782 17.8232 13.6034 17.5303 13.3105C17.2374 13.0176 16.7626 13.0176 16.4697 13.3105L16.0644 13.7157C16.0095 13.7706 15.9761 13.804 15.9474 13.8336C13.779 16.065 13.779 19.6166 15.9474 21.848C15.9761 21.8776 16.0095 21.9109 16.0643 21.9658L16.4697 22.3711C16.7626 22.664 17.2374 22.664 17.5303 22.3711C17.8232 22.0782 17.8232 21.6034 17.5303 21.3105L17.1303 20.9105C17.0686 20.8488 17.0434 20.8235 17.0231 20.8027C15.4204 19.1533 15.4204 16.5283 17.0231 14.8789C17.0434 14.8581 17.0686 14.8328 17.1303 14.7711L17.5303 14.3711Z" fill="#2D264B"/>
</svg>
