<svg xmlns="http://www.w3.org/2000/svg" width="24" height="24" viewBox="0 0 24 24">
  <defs/>
  <path fill="#2D264B" d="M3.146,14.094 Q4.191,14.143 4.945,14.896 Q5.75,15.702 5.75,16.841 L5.75,18.841 Q5.75,21.591 3,21.591 Q1.861,21.591 1.055,20.785 Q0.25,19.98 0.25,18.841 L0.25,16.841 Q0.25,15.065 1.676,14.401 L1.655,14.263 Q1.026,10.071 3.492,6.624 Q5.959,3.177 10.129,2.419 Q12,2.078 13.871,2.419 Q18.041,3.177 20.508,6.624 Q22.974,10.071 22.345,14.263 L22.324,14.401 Q23.75,15.065 23.75,16.841 L23.75,18.841 Q23.75,19.98 22.945,20.785 Q22.139,21.591 21,21.591 Q18.25,21.591 18.25,18.841 L18.25,16.841 Q18.25,15.702 19.055,14.896 Q19.809,14.143 20.854,14.094 L20.862,14.04 Q21.4,10.45 19.288,7.497 Q17.175,4.544 13.603,3.895 Q12,3.603 10.397,3.895 Q6.825,4.544 4.712,7.497 Q2.6,10.45 3.138,14.04 L3.146,14.094 Z M16.47,22.371 L16.07,21.971 Q15.976,21.877 15.947,21.847 Q14.321,20.174 14.321,17.841 Q14.321,15.507 15.947,13.834 Q15.98,13.8 16.07,13.71 L16.47,13.31 Q16.689,13.091 17,13.091 Q17.311,13.091 17.53,13.31 Q17.75,13.53 17.75,13.841 Q17.75,14.151 17.53,14.371 L17.13,14.772 Q17.049,14.852 17.023,14.879 Q14.145,17.841 17.024,20.803 Q17.045,20.825 17.13,20.91 L17.53,21.31 Q17.75,21.53 17.75,21.841 Q17.75,22.151 17.53,22.371 Q17.311,22.591 17,22.591 Q16.689,22.591 16.47,22.371 Z M6.47,21.31 L6.878,20.902 Q6.957,20.823 6.977,20.803 Q9.855,17.841 6.977,14.879 Q6.953,14.854 6.87,14.771 L6.47,14.371 Q6.25,14.151 6.25,13.841 Q6.25,13.53 6.47,13.31 Q6.689,13.091 7,13.091 Q7.311,13.091 7.53,13.31 L7.93,13.71 Q8.021,13.801 8.053,13.834 Q9.679,15.507 9.679,17.841 Q9.679,20.174 8.053,21.848 Q8.025,21.876 7.939,21.962 L7.93,21.971 L7.53,22.371 Q7.311,22.591 7,22.591 Q6.689,22.591 6.47,22.371 Q6.25,22.151 6.25,21.841 Q6.25,21.53 6.47,21.31 Z M21.282,15.623 Q21.144,15.591 21,15.591 Q19.75,15.591 19.75,16.841 L19.75,18.841 Q19.75,19.359 20.116,19.725 Q20.482,20.091 21,20.091 Q22.25,20.091 22.25,18.841 L22.25,16.841 Q22.25,15.875 21.324,15.633 Q21.303,15.628 21.282,15.623 Z M2.676,15.633 Q1.75,15.875 1.75,16.841 L1.75,18.841 Q1.75,20.091 3,20.091 Q3.518,20.091 3.884,19.725 Q4.25,19.359 4.25,18.841 L4.25,16.841 Q4.25,15.591 3,15.591 Q2.856,15.591 2.718,15.623 Q2.697,15.628 2.676,15.633 Z"/>
</svg>

