<svg xmlns="http://www.w3.org/2000/svg" width="24" height="24" viewBox="0 0 24 24">
  <defs/>
  <path fill="#2D264B" d="M3.146,14.094 Q4.191,14.143 4.945,14.896 Q5.75,15.702 5.75,16.841 L5.75,18.841 Q5.75,21.591 3,21.591 Q1.861,21.591 1.055,20.785 Q0.25,19.98 0.25,18.841 L0.25,16.841 Q0.25,15.065 1.676,14.401 L1.655,14.263 Q1.026,10.071 3.492,6.624 Q5.959,3.177 10.129,2.419 Q12,2.078 13.871,2.419 Q18.041,3.177 20.508,6.624 Q22.974,10.071 22.345,14.263 L22.324,14.401 Q23.75,15.065 23.75,16.841 L23.75,18.841 Q23.75,19.98 22.945,20.785 Q22.139,21.591 21,21.591 Q18.25,21.591 18.25,18.841 L18.25,16.841 Q18.25,15.702 19.055,14.896 Q19.809,14.143 20.854,14.094 L20.862,14.04 Q21.4,10.45 19.288,7.497 Q17.175,4.544 13.603,3.895 Q12,3.603 10.397,3.895 Q6.825,4.544 4.712,7.497 Q2.6,10.45 3.138,14.04 L3.146,14.094 Z M2.693,15.629 Q1.75,15.867 1.75,16.841 L1.75,18.841 Q1.75,20.091 3,20.091 Q3.518,20.091 3.884,19.725 Q4.25,19.359 4.25,18.841 L4.25,16.841 Q4.25,15.591 3,15.591 Q2.843,15.591 2.693,15.629 Z M21.307,15.629 Q21.157,15.591 21,15.591 Q19.75,15.591 19.75,16.841 L19.75,18.841 Q19.75,19.359 20.116,19.725 Q20.482,20.091 21,20.091 Q22.25,20.091 22.25,18.841 L22.25,16.841 Q22.25,15.867 21.307,15.629 Z"/>
</svg>

