<svg xmlns="http://www.w3.org/2000/svg" width="24" height="24" viewBox="0 0 24 24">
  <defs/>
  <path fill="#2D264B" d="M10.397,3.895 C11.457,3.702 12.543,3.702 13.603,3.895 C18.366,4.761 21.58,9.253 20.862,14.04 L20.854,14.095 C19.403,14.171 18.25,15.371 18.25,16.841 L18.25,18.841 C18.25,20.36 19.481,21.591 21,21.591 C22.519,21.591 23.75,20.36 23.75,18.841 L23.75,16.841 C23.75,15.8 23.172,14.895 22.32,14.428 L22.345,14.263 C23.183,8.674 19.431,3.43 13.871,2.419 C12.634,2.194 11.366,2.194 10.129,2.419 C4.569,3.43 0.817,8.674 1.655,14.263 L1.68,14.428 C0.828,14.895 0.25,15.8 0.25,16.841 L0.25,18.841 C0.25,20.36 1.481,21.591 3,21.591 C4.519,21.591 5.75,20.36 5.75,18.841 L5.75,16.841 C5.75,15.371 4.597,14.171 3.146,14.095 L3.138,14.04 C2.42,9.253 5.634,4.761 10.397,3.895 Z"/>
</svg>

