<svg width="24" height="24" viewBox="0 0 24 24" fill="none" xmlns="http://www.w3.org/2000/svg">
<path d="M10.397 3.89454C11.457 3.70182 12.543 3.70182 13.603 3.89454C18.3658 4.76051 21.5798 9.25273 20.8617 14.0401L20.8535 14.0946C19.4028 14.1708 18.25 15.3711 18.25 16.8408V18.8408C18.25 20.3596 19.4812 21.5908 21 21.5908C22.5188 21.5908 23.75 20.3596 23.75 18.8408V16.8408C23.75 15.7999 23.1721 14.8952 22.3203 14.4281L22.3451 14.2626C23.1834 8.67386 19.4314 3.42967 13.8713 2.41873C12.6339 2.19376 11.3661 2.19376 10.1287 2.41873C4.56859 3.42967 0.816569 8.67386 1.65488 14.2626L1.67971 14.4281C0.827854 14.8952 0.25 15.7999 0.25 16.8408V18.8408C0.25 20.3596 1.48122 21.5908 3 21.5908C4.51878 21.5908 5.75 20.3596 5.75 18.8408V16.8408C5.75 15.3711 4.59716 14.1708 3.14647 14.0946L3.13829 14.0401C2.42018 9.25273 5.63419 4.76051 10.397 3.89454Z" fill="#2D264B"/>
</svg>
