<svg xmlns="http://www.w3.org/2000/svg" width="24" height="24" viewBox="0 0 24 24">
  <defs/>
  <path fill="#2D264B" d="M10.397,3.895 C11.457,3.702 12.543,3.702 13.603,3.895 C18.366,4.761 21.58,9.253 20.862,14.04 L20.854,14.095 C19.403,14.171 18.25,15.371 18.25,16.841 L18.25,18.841 C18.25,20.36 19.481,21.591 21,21.591 C22.519,21.591 23.75,20.36 23.75,18.841 L23.75,16.841 C23.75,15.8 23.172,14.895 22.32,14.428 L22.345,14.263 C23.183,8.674 19.431,3.43 13.871,2.419 C12.634,2.194 11.366,2.194 10.129,2.419 C4.569,3.43 0.817,8.674 1.655,14.263 L1.68,14.428 C0.828,14.895 0.25,15.8 0.25,16.841 L0.25,18.841 C0.25,20.36 1.481,21.591 3,21.591 C4.519,21.591 5.75,20.36 5.75,18.841 L5.75,16.841 C5.75,15.371 4.597,14.171 3.146,14.095 L3.138,14.04 C2.42,9.253 5.634,4.761 10.397,3.895 Z"/>
  <path fill="#2D264B" d="M7.53,13.31 C7.237,13.018 6.763,13.018 6.47,13.31 C6.177,13.603 6.177,14.078 6.47,14.371 L6.87,14.771 C6.931,14.833 6.957,14.858 6.977,14.879 C8.58,16.528 8.58,19.153 6.977,20.803 C6.957,20.823 6.931,20.849 6.87,20.91 L6.47,21.311 C6.177,21.603 6.177,22.078 6.47,22.371 C6.763,22.664 7.237,22.664 7.53,22.371 L7.936,21.966 C7.99,21.911 8.024,21.878 8.053,21.848 C10.221,19.617 10.221,16.065 8.053,13.834 C8.024,13.804 7.99,13.771 7.936,13.716 L7.53,13.31 Z"/>
  <path fill="#2D264B" d="M17.53,14.371 C17.823,14.078 17.823,13.603 17.53,13.31 C17.237,13.018 16.763,13.018 16.47,13.31 L16.064,13.716 C16.009,13.771 15.976,13.804 15.947,13.834 C13.779,16.065 13.779,19.617 15.947,21.848 C15.976,21.878 16.009,21.911 16.064,21.966 L16.47,22.371 C16.763,22.664 17.237,22.664 17.53,22.371 C17.823,22.078 17.823,21.603 17.53,21.311 L17.13,20.91 C17.069,20.849 17.043,20.823 17.023,20.803 C15.42,19.153 15.42,16.528 17.023,14.879 C17.043,14.858 17.069,14.833 17.13,14.771 L17.53,14.371 Z"/>
</svg>

