<svg xmlns="http://www.w3.org/2000/svg" width="24" height="24" viewBox="0 0 24 24">
  <defs/>
  <path fill="#2D264B" d="M10.801,3.513 Q12,4.273 13.199,3.513 Q17.658,0.684 20.847,3.936 Q25.058,8.23 20.494,15.258 Q16.277,21.75 12,21.75 Q7.723,21.75 3.506,15.258 Q-1.058,8.23 3.153,3.936 Q6.342,0.684 10.801,3.513 Z M9.998,4.779 Q6.563,2.601 4.224,4.986 Q0.855,8.422 4.764,14.441 Q8.537,20.25 12,20.25 Q15.463,20.25 19.236,14.441 Q23.145,8.422 19.776,4.986 Q17.437,2.601 14.002,4.779 Q12,6.049 9.998,4.779 Z M18.283,8.998 Q18.015,8.128 17.327,7.445 Q16.803,6.926 16.211,6.701 Q15.921,6.591 15.793,6.307 Q15.666,6.024 15.777,5.734 Q15.887,5.443 16.17,5.316 Q16.454,5.189 16.744,5.299 Q17.633,5.637 18.383,6.38 Q19.338,7.327 19.717,8.556 Q19.808,8.853 19.663,9.127 Q19.518,9.402 19.221,9.493 Q18.924,9.585 18.649,9.44 Q18.375,9.295 18.283,8.998 Z"/>
</svg>

