<svg width="24" height="24" viewBox="0 0 24 24" fill="none" xmlns="http://www.w3.org/2000/svg">
<path fill-rule="evenodd" clip-rule="evenodd" d="M13.6007 4.14593C15.2743 3.08425 17.9773 2.08032 20.3115 4.46071C25.8525 10.1114 16.3502 21 12 21C7.64988 21 -1.85249 10.1114 3.68853 4.46072C6.02272 2.08035 8.72564 3.08427 10.3993 4.14593C11.345 4.74582 12.655 4.74582 13.6007 4.14593ZM7.78882 6.70109C8.17602 6.55395 8.37063 6.12078 8.22349 5.73358C8.07635 5.34638 7.64318 5.15178 7.25598 5.29891C6.68523 5.51581 6.13343 5.86843 5.61721 6.38024C4.96287 7.02899 4.52693 7.76568 4.2833 8.55572C4.16124 8.95154 4.38317 9.37137 4.77899 9.49343C5.17481 9.61548 5.59464 9.39356 5.7167 8.99774C5.88666 8.44658 6.19156 7.92308 6.67331 7.44544C7.05159 7.07039 7.42812 6.83816 7.78882 6.70109Z" fill="#2D264B"/>
</svg>
