<svg xmlns="http://www.w3.org/2000/svg" width="24" height="24" viewBox="0 0 24 24">
  <defs/>
  <path fill="#2D264B" d="M10.399,4.146 C11.345,4.746 12.655,4.746 13.601,4.146 C15.274,3.084 17.977,2.08 20.312,4.461 C25.853,10.111 16.35,21 12,21 C7.65,21 -1.852,10.111 3.689,4.461 C6.023,2.08 8.726,3.084 10.399,4.146 Z M16.744,5.299 C16.357,5.152 15.924,5.346 15.776,5.734 C15.629,6.121 15.824,6.554 16.211,6.701 C16.572,6.838 16.948,7.07 17.327,7.445 C17.808,7.923 18.113,8.447 18.283,8.998 C18.405,9.394 18.825,9.615 19.221,9.493 C19.617,9.371 19.839,8.952 19.717,8.556 C19.473,7.766 19.037,7.029 18.383,6.38 C17.867,5.868 17.315,5.516 16.744,5.299 Z"/>
</svg>

