<svg xmlns="http://www.w3.org/2000/svg" width="24" height="24" viewBox="0 0 24 24">
  <defs/>
  <path fill="#2D264B" d="M20.847,3.936 Q25.058,8.23 20.494,15.258 Q16.277,21.75 12,21.75 Q7.723,21.75 3.506,15.258 Q-1.058,8.23 3.153,3.936 Q6.342,0.684 10.801,3.513 Q12,4.273 13.199,3.513 L13.199,3.513 Q17.658,0.684 20.847,3.936 Z M14.002,4.779 Q12,6.049 9.998,4.779 Q6.563,2.601 4.224,4.986 Q0.855,8.422 4.764,14.441 Q8.537,20.25 12,20.25 Q15.463,20.25 19.236,14.441 Q23.145,8.422 19.776,4.986 Q17.437,2.6 14.002,4.779 Z M4.283,8.556 Q4.662,7.327 5.617,6.38 Q6.367,5.637 7.256,5.299 Q7.546,5.189 7.83,5.316 Q8.113,5.443 8.223,5.734 Q8.334,6.024 8.207,6.307 Q8.079,6.591 7.789,6.701 Q7.197,6.926 6.673,7.445 Q5.985,8.128 5.717,8.998 Q5.625,9.295 5.351,9.44 Q5.076,9.585 4.779,9.493 Q4.482,9.402 4.337,9.127 Q4.192,8.853 4.283,8.556 Z"/>
</svg>

