<svg width="24" height="24" viewBox="0 0 24 24" fill="none" xmlns="http://www.w3.org/2000/svg">
<path fill-rule="evenodd" clip-rule="evenodd" d="M10.3993 4.14593C8.72567 3.08425 6.02273 2.08032 3.68853 4.46071C-1.85248 10.1114 7.64984 21 12 21C16.3501 21 25.8525 10.1114 20.3115 4.46072C17.9773 2.08035 15.2744 3.08427 13.6007 4.14593C12.655 4.74582 11.345 4.74582 10.3993 4.14593ZM16.744 5.29891C16.3568 5.15178 15.9236 5.34638 15.7765 5.73358C15.6293 6.12078 15.8239 6.55395 16.2111 6.70109C16.5718 6.83816 16.9484 7.07039 17.3266 7.44544C17.8084 7.92308 18.1133 8.44658 18.2832 8.99774C18.4053 9.39356 18.8251 9.61548 19.221 9.49343C19.6168 9.37137 19.8387 8.95154 19.7166 8.55572C19.473 7.76568 19.0371 7.02899 18.3827 6.38024C17.8665 5.86843 17.3147 5.51581 16.744 5.29891Z" fill="#2D264B"/>
</svg>
