<svg xmlns="http://www.w3.org/2000/svg" width="24" height="24" viewBox="0 0 24 24">
  <defs/>
  <path fill="#2D264B" d="M22.469,4.586 L2.469,20.586 C2.145,20.844 1.673,20.792 1.414,20.469 C1.156,20.145 1.208,19.673 1.532,19.414 L4.712,16.87 C3.868,15.979 3.156,15.071 2.611,14.312 L2.54,14.212 C2.017,13.486 1.587,12.888 1.587,12 C1.587,11.112 2.017,10.514 2.54,9.788 L2.611,9.688 C3.48,8.479 4.772,6.889 6.352,5.596 C7.923,4.309 9.859,3.25 12,3.25 C14.141,3.25 16.077,4.309 17.648,5.596 C17.838,5.751 18.025,5.912 18.206,6.075 L21.531,3.414 C21.855,3.156 22.327,3.208 22.586,3.532 C22.844,3.855 22.792,4.327 22.469,4.586 Z M8.662,13.71 L9.875,12.74 C9.794,12.508 9.75,12.259 9.75,12 C9.75,10.757 10.757,9.75 12,9.75 C12.436,9.75 12.843,9.874 13.188,10.089 L14.401,9.119 C13.75,8.576 12.913,8.25 12,8.25 C9.929,8.25 8.25,9.929 8.25,12 C8.25,12.616 8.399,13.197 8.662,13.71 Z"/>
  <path fill="#2D264B" d="M20.695,8.765 L15.667,12.787 C15.306,14.48 13.801,15.75 12,15.75 L11.964,15.75 L7.548,19.282 C8.867,20.14 10.375,20.75 12,20.75 C14.141,20.75 16.077,19.691 17.648,18.404 C19.228,17.111 20.52,15.521 21.389,14.312 L21.46,14.212 C21.983,13.486 22.413,12.888 22.413,12 C22.413,11.112 21.983,10.514 21.46,9.788 L21.389,9.688 C21.181,9.399 20.949,9.088 20.695,8.765 Z"/>
</svg>

