<svg xmlns="http://www.w3.org/2000/svg" width="24" height="24" viewBox="0 0 24 24">
  <defs/>
  <path fill="#2D264B" d="M12,14.25 C11.586,14.25 11.25,14.586 11.25,15 C11.25,15.414 11.586,15.75 12,15.75 L12,14.25 Z M15.75,12 C15.75,11.586 15.414,11.25 15,11.25 C14.586,11.25 14.25,11.586 14.25,12 L15.75,12 Z M5.788,16.893 L6.351,16.397 L6.332,16.376 L6.311,16.356 L5.788,16.893 Z M18.101,7 L17.582,7.542 L17.604,7.562 L17.627,7.581 L18.101,7 Z M20.395,8.391 C20.133,8.07 19.661,8.023 19.34,8.285 C19.019,8.547 18.972,9.019 19.234,9.34 L20.395,8.391 Z M7.938,17.732 C7.601,17.491 7.132,17.567 6.891,17.904 C6.649,18.24 6.726,18.709 7.062,18.951 L7.938,17.732 Z M1.531,19.414 C1.208,19.673 1.156,20.145 1.414,20.468 C1.673,20.792 2.145,20.844 2.469,20.586 L1.531,19.414 Z M22.468,4.586 C22.792,4.327 22.844,3.855 22.586,3.531 C22.327,3.208 21.855,3.156 21.532,3.414 L22.468,4.586 Z M12,8.25 C9.929,8.25 8.25,9.929 8.25,12 L9.75,12 C9.75,10.757 10.757,9.75 12,9.75 L12,8.25 Z M8.25,12 C8.25,12.881 8.555,13.693 9.064,14.333 L10.238,13.399 C9.932,13.015 9.75,12.53 9.75,12 L8.25,12 Z M14.927,9.656 C14.241,8.8 13.185,8.25 12,8.25 L12,9.75 C12.71,9.75 13.343,10.078 13.757,10.594 L14.927,9.656 Z M12,15.75 C14.071,15.75 15.75,14.071 15.75,12 L14.25,12 C14.25,13.243 13.243,14.25 12,14.25 L12,15.75 Z M12,3.25 C9.859,3.25 7.923,4.309 6.352,5.596 C4.772,6.889 3.48,8.479 2.611,9.688 L3.83,10.563 C4.659,9.408 5.863,7.934 7.302,6.756 C8.749,5.571 10.354,4.75 12,4.75 L12,3.25 Z M2.611,14.312 C3.273,15.234 4.177,16.371 5.265,17.43 L6.311,16.356 C5.306,15.376 4.458,14.312 3.83,13.437 L2.611,14.312 Z M18.62,6.458 C16.887,4.8 14.591,3.25 12,3.25 L12,4.75 C14.003,4.75 15.938,5.968 17.582,7.542 L18.62,6.458 Z M2.611,9.688 C2.057,10.46 1.587,11.071 1.587,12 L3.087,12 C3.087,11.642 3.206,11.432 3.83,10.563 L2.611,9.688 Z M3.83,13.437 C3.206,12.568 3.087,12.358 3.087,12 L1.587,12 C1.587,12.929 2.057,13.54 2.611,14.312 L3.83,13.437 Z M12,20.75 C14.141,20.75 16.077,19.691 17.648,18.404 C19.228,17.11 20.52,15.521 21.389,14.312 L20.17,13.437 C19.341,14.592 18.137,16.066 16.698,17.244 C15.251,18.428 13.646,19.25 12,19.25 L12,20.75 Z M21.389,9.688 C21.101,9.287 20.768,8.847 20.395,8.391 L19.234,9.34 C19.584,9.769 19.898,10.184 20.17,10.563 L21.389,9.688 Z M7.062,18.951 C8.487,19.974 10.168,20.75 12,20.75 L12,19.25 C10.595,19.25 9.218,18.652 7.938,17.732 L7.062,18.951 Z M21.389,14.312 C21.943,13.54 22.413,12.929 22.413,12 L20.913,12 C20.913,12.358 20.794,12.568 20.17,13.437 L21.389,14.312 Z M20.17,10.563 C20.794,11.432 20.913,11.642 20.913,12 L22.413,12 C22.413,11.071 21.943,10.46 21.389,9.688 L20.17,10.563 Z M18.643,7.646 L22.468,4.586 L21.532,3.414 L17.706,6.475 L18.643,7.646 Z M17.627,7.581 L17.7,7.641 L18.649,6.479 L18.576,6.419 L17.627,7.581 Z M2.469,20.586 L6.296,17.523 L5.359,16.352 L1.531,19.414 L2.469,20.586 Z M6.296,17.523 L18.643,7.646 L17.706,6.475 L5.359,16.352 L6.296,17.523 Z M5.225,17.388 L5.265,17.433 L6.391,16.442 L6.351,16.397 L5.225,17.388 Z"/>
</svg>

