<svg width="24" height="24" viewBox="0 0 24 24" fill="none" xmlns="http://www.w3.org/2000/svg">
<path fill-rule="evenodd" clip-rule="evenodd" d="M22.4685 4.58568C22.792 4.32692 22.8444 3.85495 22.5857 3.53151C22.3269 3.20806 21.855 3.15562 21.5315 3.41438L18.2062 6.07464C18.0246 5.91151 17.8385 5.75148 17.6483 5.59574C16.0768 4.30902 14.141 3.25003 12 3.25003C9.85908 3.25003 7.92328 4.30902 6.35176 5.59574C4.77166 6.88949 3.47965 8.47868 2.61144 9.68804L2.53984 9.78762C2.01718 10.5139 1.58694 11.1117 1.58694 12C1.58694 12.8884 2.01718 13.4862 2.53984 14.2124L2.61144 14.312C3.1561 15.0707 3.86754 15.9788 4.71227 16.8698L1.53151 19.4144C1.20806 19.6731 1.15562 20.1451 1.41438 20.4685C1.67313 20.792 2.1451 20.8444 2.46855 20.5857L22.4685 4.58568ZM8.66178 13.7102L9.87453 12.74C9.79386 12.5082 9.75003 12.2592 9.75003 12C9.75003 10.7574 10.7574 9.75003 12 9.75003C12.4362 9.75003 12.8434 9.87415 13.1882 10.089L14.4007 9.11904C13.7503 8.57647 12.9133 8.25003 12 8.25003C9.92896 8.25003 8.25003 9.92896 8.25003 12C8.25003 12.6161 8.39857 13.1974 8.66178 13.7102Z" fill="#2D264B"/>
<path d="M20.6952 8.76484L15.6673 12.7872C15.3056 14.4803 13.8011 15.75 12 15.75L11.9639 15.7499L7.54805 19.2825C8.86737 20.1396 10.3746 20.75 12 20.75C14.141 20.75 16.0768 19.691 17.6483 18.4043C19.2284 17.1106 20.5204 15.5214 21.3886 14.312L21.4602 14.2124C21.9829 13.4862 22.4131 12.8884 22.4131 12C22.4131 11.1117 21.9829 10.5139 21.4602 9.78762L21.3886 9.68804C21.1811 9.39894 20.9493 9.08813 20.6952 8.76484Z" fill="#2D264B"/>
</svg>
