<svg xmlns="http://www.w3.org/2000/svg" width="24" height="24" viewBox="0 0 24 24">
  <defs/>
  <path fill="#2D264B" d="M10,17.07 C9.586,17.07 9.25,17.405 9.25,17.82 C9.25,18.234 9.586,18.57 10,18.57 L10,17.07 Z M14,18.57 C14.414,18.57 14.75,18.234 14.75,17.82 C14.75,17.405 14.414,17.07 14,17.07 L14,18.57 Z M3.48,15.588 C2.966,14.005 2.599,12.874 2.407,11.956 C2.219,11.055 2.215,10.43 2.378,9.857 L0.935,9.446 C0.681,10.339 0.723,11.23 0.939,12.263 C1.152,13.279 1.549,14.499 2.054,16.051 L3.48,15.588 Z M5.853,4.359 C4.533,5.318 3.494,6.072 2.724,6.768 C1.942,7.477 1.384,8.174 1.065,9.045 L2.474,9.561 C2.679,9.001 3.049,8.498 3.732,7.88 C4.427,7.25 5.388,6.551 6.735,5.572 L5.853,4.359 Z M2.378,9.857 C2.406,9.757 2.438,9.658 2.474,9.561 L1.065,9.045 C1.017,9.177 0.974,9.311 0.935,9.446 L2.378,9.857 Z M12,21.778 C10.335,21.778 9.147,21.777 8.214,21.676 C7.299,21.577 6.703,21.388 6.209,21.055 L5.372,22.3 C6.143,22.818 7.004,23.054 8.053,23.167 C9.085,23.279 10.368,23.278 12,23.278 L12,21.778 Z M2.054,16.051 C2.558,17.603 2.954,18.824 3.379,19.771 C3.811,20.734 4.301,21.48 5.031,22.053 L5.957,20.872 C5.488,20.505 5.124,19.997 4.747,19.157 C4.363,18.301 3.995,17.171 3.48,15.588 L2.054,16.051 Z M6.209,21.055 C6.123,20.997 6.039,20.936 5.957,20.872 L5.031,22.053 C5.142,22.139 5.256,22.222 5.372,22.3 L6.209,21.055 Z M20.52,15.588 C20.005,17.171 19.637,18.301 19.253,19.157 C18.876,19.997 18.512,20.505 18.043,20.872 L18.969,22.053 C19.699,21.48 20.189,20.734 20.621,19.771 C21.046,18.824 21.442,17.603 21.946,16.051 L20.52,15.588 Z M12,23.278 C13.632,23.278 14.915,23.279 15.947,23.167 C16.997,23.054 17.857,22.818 18.628,22.3 L17.791,21.055 C17.297,21.388 16.701,21.577 15.786,21.676 C14.853,21.777 13.665,21.778 12,21.778 L12,23.278 Z M18.043,20.872 C17.961,20.936 17.877,20.997 17.791,21.055 L18.628,22.3 C18.744,22.222 18.858,22.139 18.969,22.053 L18.043,20.872 Z M17.265,5.572 C18.612,6.551 19.573,7.25 20.268,7.88 C20.951,8.498 21.321,9.001 21.526,9.561 L22.935,9.045 C22.616,8.174 22.058,7.477 21.276,6.768 C20.506,6.072 19.467,5.318 18.147,4.359 L17.265,5.572 Z M21.946,16.051 C22.451,14.499 22.848,13.279 23.061,12.263 C23.277,11.23 23.319,10.339 23.065,9.446 L21.622,9.857 C21.785,10.43 21.781,11.055 21.593,11.956 C21.401,12.874 21.034,14.005 20.52,15.588 L21.946,16.051 Z M21.526,9.561 C21.562,9.658 21.594,9.757 21.622,9.857 L23.065,9.446 C23.026,9.311 22.983,9.177 22.935,9.045 L21.526,9.561 Z M18.147,4.359 C16.827,3.4 15.789,2.644 14.889,2.128 C13.973,1.603 13.138,1.288 12.211,1.254 L12.156,2.753 C12.751,2.775 13.344,2.972 14.143,3.429 C14.957,3.896 15.919,4.594 17.265,5.572 L18.147,4.359 Z M6.735,5.572 C8.081,4.594 9.043,3.896 9.857,3.429 C10.656,2.972 11.249,2.775 11.844,2.753 L11.789,1.254 C10.862,1.288 10.027,1.603 9.111,2.128 C8.211,2.644 7.173,3.4 5.853,4.359 L6.735,5.572 Z M12.211,1.254 C12.07,1.249 11.93,1.249 11.789,1.254 L11.844,2.753 C11.948,2.749 12.052,2.749 12.156,2.753 L12.211,1.254 Z M10,18.57 L14,18.57 L14,17.07 L10,17.07 L10,18.57 Z"/>
</svg>

