<svg width="24" height="24" viewBox="0 0 24 24" fill="none" xmlns="http://www.w3.org/2000/svg">
<path d="M6.29367 4.96556C3.62685 6.90311 2.29344 7.87189 1.76974 9.30291C1.72773 9.41771 1.68994 9.534 1.65645 9.65157C1.23901 11.1171 1.74832 12.6846 2.76696 15.8197C3.78559 18.9547 4.2949 20.5222 5.49405 21.4625C5.59025 21.5379 5.68918 21.6098 5.79064 21.678C6.21729 21.9647 6.68756 22.1546 7.25 22.2805V17.8197C7.25 15.1963 9.37665 13.0697 12 13.0697C14.6234 13.0697 16.75 15.1963 16.75 17.8197V22.2805C17.3124 22.1546 17.7827 21.9647 18.2094 21.678C18.3108 21.6098 18.4098 21.5379 18.506 21.4625C19.7051 20.5222 20.2144 18.9547 21.2331 15.8197C22.2517 12.6846 22.761 11.1171 22.3436 9.65157C22.3101 9.534 22.2723 9.41771 22.2303 9.30291C21.7066 7.87189 20.3732 6.90312 17.7064 4.96557C15.0395 3.02801 13.7061 2.05923 12.1833 2.00336C12.0611 1.99888 11.9389 1.99888 11.8167 2.00336C10.2939 2.05923 8.96048 3.02801 6.29367 4.96556Z" fill="#2D264B"/>
<path fill-rule="evenodd" clip-rule="evenodd" d="M15.25 22.4732V17.8197C15.25 16.0247 13.7949 14.5697 12 14.5697C10.2051 14.5697 8.75 16.0247 8.75 17.8197V22.4732C9.62296 22.5279 10.6792 22.5279 12 22.5279C13.3208 22.5279 14.377 22.5279 15.25 22.4732ZM12.75 17.8197C12.75 17.4054 12.4142 17.0697 12 17.0697C11.5858 17.0697 11.25 17.4054 11.25 17.8197V19.8197C11.25 20.2339 11.5858 20.5697 12 20.5697C12.4142 20.5697 12.75 20.2339 12.75 19.8197V17.8197Z" fill="#2D264B"/>
</svg>
