<svg xmlns="http://www.w3.org/2000/svg" width="24" height="24" viewBox="0 0 24 24">
  <defs/>
  <path fill="#2D264B" d="M5.853,4.359 Q10.038,1.318 11.789,1.254 Q12,1.246 12.211,1.254 Q13.962,1.318 18.147,4.359 Q22.332,7.399 22.935,9.045 Q23.007,9.243 23.065,9.446 Q23.545,11.131 21.946,16.051 L21.946,16.051 L20.225,21.348 Q19.598,23.278 17.569,23.278 Q16.413,23.278 15.595,22.46 Q14.777,21.642 14.777,20.485 L14.777,17.736 Q14.777,16.57 13.61,16.57 L10.39,16.57 Q9.223,16.57 9.223,17.736 L9.223,20.485 Q9.223,21.642 8.405,22.46 Q7.587,23.278 6.431,23.278 Q4.402,23.278 3.775,21.348 L2.054,16.051 L2.054,16.051 Q0.455,11.131 0.935,9.446 Q0.993,9.243 1.065,9.045 Q1.668,7.399 5.853,4.359 Z M6.735,5.572 Q2.919,8.344 2.474,9.561 Q2.42,9.707 2.378,9.857 Q2.023,11.103 3.48,15.588 L3.48,15.588 L5.201,20.885 Q5.492,21.778 6.431,21.778 Q7.723,21.778 7.723,20.485 L7.723,17.736 Q7.723,16.632 8.504,15.851 Q9.285,15.07 10.39,15.07 L13.61,15.07 Q16.277,15.07 16.277,17.736 L16.277,20.485 Q16.277,21.778 17.569,21.778 Q18.509,21.778 18.799,20.885 L20.52,15.588 L20.52,15.588 Q21.977,11.103 21.622,9.857 Q21.58,9.707 21.526,9.561 Q21.081,8.344 17.266,5.572 Q13.45,2.8 12.156,2.753 Q12,2.747 11.844,2.753 Q10.55,2.8 6.735,5.572 Z"/>
</svg>

