<svg xmlns="http://www.w3.org/2000/svg" width="24" height="24" viewBox="0 0 24 24">
  <defs/>
  <path fill="#2D264B" d="M11.25,19.82 C11.25,20.234 11.586,20.57 12,20.57 C12.414,20.57 12.75,20.234 12.75,19.82 L11.25,19.82 Z M12.75,17.82 C12.75,17.405 12.414,17.07 12,17.07 C11.586,17.07 11.25,17.405 11.25,17.82 L12.75,17.82 Z M3.48,15.588 C2.966,14.005 2.599,12.874 2.407,11.956 C2.219,11.055 2.215,10.43 2.378,9.857 L0.935,9.446 C0.681,10.339 0.723,11.23 0.939,12.263 C1.152,13.279 1.549,14.499 2.054,16.051 L3.48,15.588 Z M5.853,4.359 C4.533,5.318 3.494,6.072 2.724,6.768 C1.942,7.477 1.384,8.174 1.065,9.045 L2.474,9.561 C2.679,9.001 3.049,8.498 3.732,7.88 C4.427,7.25 5.388,6.551 6.735,5.572 L5.853,4.359 Z M2.378,9.857 C2.406,9.757 2.438,9.658 2.474,9.561 L1.065,9.045 C1.017,9.177 0.974,9.311 0.935,9.446 L2.378,9.857 Z M2.054,16.051 C2.558,17.603 2.954,18.824 3.379,19.771 C3.811,20.734 4.301,21.48 5.031,22.053 L5.957,20.872 C5.488,20.505 5.124,19.997 4.747,19.157 C4.363,18.301 3.995,17.171 3.48,15.588 L2.054,16.051 Z M6.209,21.055 C6.123,20.997 6.039,20.936 5.957,20.872 L5.031,22.053 C5.142,22.139 5.256,22.222 5.372,22.3 L6.209,21.055 Z M20.52,15.588 C20.005,17.171 19.637,18.301 19.253,19.157 C18.876,19.997 18.512,20.505 18.043,20.872 L18.969,22.053 C19.699,21.48 20.189,20.734 20.621,19.771 C21.046,18.824 21.442,17.603 21.946,16.051 L20.52,15.588 Z M18.043,20.872 C17.961,20.936 17.877,20.997 17.791,21.055 L18.628,22.3 C18.744,22.222 18.858,22.139 18.969,22.053 L18.043,20.872 Z M17.265,5.572 C18.612,6.551 19.573,7.25 20.268,7.88 C20.951,8.498 21.321,9.001 21.526,9.561 L22.935,9.045 C22.616,8.174 22.058,7.477 21.276,6.768 C20.506,6.072 19.467,5.318 18.147,4.359 L17.265,5.572 Z M21.946,16.051 C22.451,14.499 22.848,13.279 23.061,12.263 C23.277,11.23 23.319,10.339 23.065,9.446 L21.622,9.857 C21.785,10.43 21.781,11.055 21.593,11.956 C21.401,12.874 21.034,14.005 20.52,15.588 L21.946,16.051 Z M21.526,9.561 C21.562,9.658 21.594,9.757 21.622,9.857 L23.065,9.446 C23.026,9.311 22.983,9.177 22.935,9.045 L21.526,9.561 Z M18.147,4.359 C16.827,3.4 15.789,2.644 14.889,2.128 C13.973,1.603 13.138,1.288 12.211,1.254 L12.156,2.753 C12.751,2.775 13.344,2.972 14.143,3.429 C14.957,3.896 15.919,4.594 17.265,5.572 L18.147,4.359 Z M6.735,5.572 C8.081,4.594 9.043,3.896 9.857,3.429 C10.656,2.972 11.249,2.775 11.844,2.753 L11.789,1.254 C10.862,1.288 10.027,1.603 9.111,2.128 C8.211,2.644 7.173,3.4 5.853,4.359 L6.735,5.572 Z M12.211,1.254 C12.07,1.249 11.93,1.249 11.789,1.254 L11.844,2.753 C11.948,2.749 12.052,2.749 12.156,2.753 L12.211,1.254 Z M15.25,17.82 L15.25,21.82 L16.75,21.82 L16.75,17.82 L15.25,17.82 Z M8.75,21.82 L8.75,17.82 L7.25,17.82 L7.25,21.82 L8.75,21.82 Z M12,14.57 C13.795,14.57 15.25,16.025 15.25,17.82 L16.75,17.82 C16.75,15.196 14.623,13.07 12,13.07 L12,14.57 Z M12,13.07 C9.377,13.07 7.25,15.196 7.25,17.82 L8.75,17.82 C8.75,16.025 10.205,14.57 12,14.57 L12,13.07 Z M12.75,19.82 L12.75,17.82 L11.25,17.82 L11.25,19.82 L12.75,19.82 Z M12,23.278 C13.705,23.278 15.031,23.279 16.09,23.151 L15.91,21.662 C14.962,21.777 13.742,21.778 12,21.778 L12,23.278 Z M16.09,23.151 C17.076,23.032 17.893,22.794 18.628,22.3 L17.791,21.055 C17.319,21.373 16.755,21.559 15.91,21.662 L16.09,23.151 Z M15.25,21.82 L15.25,22.406 L16.75,22.406 L16.75,21.82 L15.25,21.82 Z M12,21.778 C10.258,21.778 9.038,21.777 8.09,21.662 L7.91,23.151 C8.969,23.279 10.295,23.278 12,23.278 L12,21.778 Z M8.09,21.662 C7.245,21.559 6.681,21.373 6.209,21.055 L5.372,22.3 C6.107,22.794 6.924,23.032 7.91,23.151 L8.09,21.662 Z M7.25,21.82 L7.25,22.406 L8.75,22.406 L8.75,21.82 L7.25,21.82 Z"/>
</svg>

