<svg xmlns="http://www.w3.org/2000/svg" width="24" height="24" viewBox="0 0 24 24">
  <defs/>
  <path fill="#2D264B" d="M7.91,23.151 Q6.358,22.963 5.372,22.301 Q5.198,22.183 5.031,22.053 Q3.652,20.971 2.054,16.052 L2.054,16.051 L2.054,16.051 Q0.455,11.131 0.935,9.446 Q0.993,9.243 1.065,9.045 Q1.668,7.399 5.853,4.359 Q10.038,1.318 11.789,1.254 Q12,1.246 12.211,1.254 Q13.962,1.318 18.147,4.359 Q22.332,7.399 22.935,9.045 Q23.007,9.243 23.065,9.446 Q23.545,11.131 21.946,16.051 L21.946,16.051 L21.946,16.052 Q20.348,20.971 18.969,22.053 Q18.803,22.182 18.628,22.3 Q17.642,22.963 16.09,23.151 L16.09,23.151 Q15.042,23.278 12,23.278 Q8.958,23.278 7.91,23.151 Z M16.75,21.505 Q17.367,21.34 17.791,21.056 Q17.921,20.968 18.043,20.872 Q19.062,20.073 20.52,15.588 L20.52,15.588 L20.52,15.588 Q21.977,11.103 21.622,9.857 Q21.58,9.707 21.526,9.561 Q21.081,8.344 17.266,5.572 Q13.45,2.8 12.156,2.753 Q12,2.747 11.844,2.753 Q10.55,2.8 6.734,5.572 Q2.919,8.344 2.474,9.561 Q2.42,9.707 2.378,9.857 Q2.023,11.103 3.48,15.588 L3.48,15.588 L3.48,15.588 Q4.938,20.073 5.957,20.872 Q6.08,20.969 6.209,21.055 Q6.633,21.34 7.25,21.505 L7.25,18.82 Q7.25,16.852 8.641,15.461 Q10.032,14.07 12,14.07 Q13.968,14.07 15.359,15.461 Q16.75,16.852 16.75,18.82 L16.75,21.505 Z M15.25,21.716 L15.25,18.82 Q15.25,17.473 14.298,16.522 Q13.346,15.57 12,15.57 Q8.75,15.57 8.75,18.82 L8.75,21.716 Q9.842,21.778 12,21.778 Q14.158,21.778 15.25,21.716 Z"/>
</svg>

