<svg xmlns="http://www.w3.org/2000/svg" width="24" height="24" viewBox="0 0 24 24">
  <defs/>
  <path fill="#2D264B" d="M6.294,4.966 C3.627,6.903 2.293,7.872 1.77,9.303 C1.728,9.418 1.69,9.534 1.656,9.652 C1.239,11.117 1.748,12.685 2.767,15.82 C3.786,18.955 4.295,20.522 5.494,21.462 C5.59,21.538 5.689,21.61 5.791,21.678 C6.217,21.965 6.688,22.155 7.25,22.28 L7.25,18.82 C7.25,16.196 9.377,14.07 12,14.07 C14.623,14.07 16.75,16.196 16.75,18.82 L16.75,22.28 C17.312,22.155 17.783,21.965 18.209,21.678 C18.311,21.61 18.41,21.538 18.506,21.462 C19.705,20.522 20.214,18.955 21.233,15.82 C22.252,12.685 22.761,11.117 22.344,9.652 C22.31,9.534 22.272,9.418 22.23,9.303 C21.707,7.872 20.373,6.903 17.706,4.966 C15.04,3.028 13.706,2.059 12.183,2.003 C12.061,1.999 11.939,1.999 11.817,2.003 C10.294,2.059 8.96,3.028 6.294,4.966 Z"/>
  <path fill="#2D264B" d="M15.25,22.473 L15.25,18.82 C15.25,17.025 13.795,15.57 12,15.57 C10.205,15.57 8.75,17.025 8.75,18.82 L8.75,22.473 C9.623,22.528 10.679,22.528 12,22.528 C13.321,22.528 14.377,22.528 15.25,22.473 Z"/>
</svg>

