<svg xmlns="http://www.w3.org/2000/svg" width="24" height="24" viewBox="0 0 24 24">
  <defs/>
  <path fill="#2D264B" d="M6.294,4.966 C8.96,3.028 10.294,2.059 11.817,2.003 Q12,1.997 12.183,2.003 C13.706,2.059 15.04,3.028 17.706,4.966 C20.373,6.903 21.707,7.872 22.23,9.303 C22.272,9.418 22.31,9.534 22.344,9.652 C22.761,11.117 22.252,12.685 21.233,15.82 L21.233,15.82 C20.214,18.955 19.705,20.522 18.506,21.462 C18.41,21.538 18.311,21.61 18.209,21.678 C16.945,22.528 15.296,22.528 12,22.528 C8.704,22.528 7.055,22.528 5.791,21.678 C5.689,21.61 5.59,21.538 5.494,21.462 C4.295,20.522 3.786,18.955 2.767,15.82 L2.767,15.82 C1.748,12.685 1.239,11.117 1.656,9.652 C1.69,9.534 1.728,9.418 1.77,9.303 C2.293,7.872 3.627,6.903 6.294,4.966 Z M10,17.07 C9.586,17.07 9.25,17.405 9.25,17.82 C9.25,18.234 9.586,18.57 10,18.57 L14,18.57 C14.414,18.57 14.75,18.234 14.75,17.82 C14.75,17.405 14.414,17.07 14,17.07 Z"/>
</svg>

