<svg xmlns="http://www.w3.org/2000/svg" width="24" height="24" viewBox="0 0 24 24">
  <defs/>
  <path fill="#2D264B" d="M6.294,4.966 C3.627,6.903 2.293,7.872 1.77,9.303 C1.728,9.418 1.69,9.534 1.656,9.652 C1.239,11.117 1.748,12.685 2.767,15.82 C3.786,18.955 4.295,20.522 5.494,21.462 C5.59,21.538 5.689,21.61 5.791,21.678 C6.217,21.965 6.688,22.155 7.25,22.28 L7.25,17.82 C7.25,15.196 9.377,13.07 12,13.07 C14.623,13.07 16.75,15.196 16.75,17.82 L16.75,22.28 C17.312,22.155 17.783,21.965 18.209,21.678 C18.311,21.61 18.41,21.538 18.506,21.462 C19.705,20.522 20.214,18.955 21.233,15.82 C22.252,12.685 22.761,11.117 22.344,9.652 C22.31,9.534 22.272,9.418 22.23,9.303 C21.707,7.872 20.373,6.903 17.706,4.966 C15.04,3.028 13.706,2.059 12.183,2.003 C12.061,1.999 11.939,1.999 11.817,2.003 C10.294,2.059 8.96,3.028 6.294,4.966 Z"/>
  <path fill="#2D264B" d="M15.25,22.473 C14.377,22.528 13.321,22.528 12,22.528 C10.679,22.528 9.623,22.528 8.75,22.473 L8.75,17.82 C8.75,16.025 10.205,14.57 12,14.57 C13.795,14.57 15.25,16.025 15.25,17.82 Z M12.75,17.82 C12.75,17.405 12.414,17.07 12,17.07 C11.586,17.07 11.25,17.405 11.25,17.82 L11.25,19.82 C11.25,20.234 11.586,20.57 12,20.57 C12.414,20.57 12.75,20.234 12.75,19.82 Z"/>
</svg>

