<svg width="24" height="24" viewBox="0 0 24 24" fill="none" xmlns="http://www.w3.org/2000/svg">
<path fill-rule="evenodd" clip-rule="evenodd" d="M6.29367 4.96556C3.62685 6.90311 2.29344 7.87189 1.76974 9.30291C1.72773 9.41771 1.68994 9.534 1.65645 9.65157C1.23901 11.1171 1.74832 12.6846 2.76696 15.8197C3.78559 18.9547 4.2949 20.5222 5.49405 21.4625C5.59025 21.5379 5.68918 21.6098 5.79064 21.678C7.05546 22.5279 8.70364 22.5279 12 22.5279C15.2964 22.5279 16.9446 22.5279 18.2094 21.678C18.3108 21.6098 18.4098 21.5379 18.506 21.4625C19.7051 20.5222 20.2144 18.9547 21.2331 15.8197C22.2517 12.6846 22.761 11.1171 22.3436 9.65157C22.3101 9.534 22.2723 9.41771 22.2303 9.30291C21.7066 7.87189 20.3732 6.90312 17.7064 4.96557C15.0395 3.02801 13.7061 2.05923 12.1833 2.00336C12.0611 1.99888 11.9389 1.99888 11.8167 2.00336C10.2939 2.05923 8.96048 3.02801 6.29367 4.96556ZM10 17.0697C9.58579 17.0697 9.25 17.4054 9.25 17.8197C9.25 18.2339 9.58579 18.5697 10 18.5697H14C14.4142 18.5697 14.75 18.2339 14.75 17.8197C14.75 17.4054 14.4142 17.0697 14 17.0697H10Z" fill="#2D264B"/>
</svg>
