<svg xmlns="http://www.w3.org/2000/svg" width="24" height="24" viewBox="0 0 24 24">
  <defs/>
  <path fill="#2D264B" d="M21.735,14.51 Q21.661,17.99 20.652,19.38 Q20.117,20.117 19.38,20.652 Q17.868,21.75 12,21.75 Q6.132,21.75 4.62,20.652 Q3.935,20.154 3.424,19.481 Q3.383,19.436 3.351,19.384 Q3.35,19.382 3.348,19.38 Q2.25,17.868 2.25,12 Q2.25,6.132 3.348,4.62 Q3.883,3.883 4.62,3.348 Q6.132,2.25 12,2.25 Q17.868,2.25 19.38,3.348 Q20.117,3.883 20.652,4.62 Q21.75,6.132 21.75,12 Q21.75,13.764 21.735,14.497 Q21.735,14.503 21.735,14.51 Z M20.249,12.745 Q20.25,12.399 20.25,12 Q20.25,6.619 19.438,5.502 Q19.043,4.957 18.498,4.562 Q17.381,3.75 12,3.75 Q6.619,3.75 5.502,4.562 Q4.957,4.957 4.562,5.502 Q3.75,6.619 3.75,12 Q3.75,15.483 4.09,17.18 Q4.542,16.345 4.801,16.026 Q6.48,13.96 9.142,13.903 Q9.773,13.89 11.646,14.264 L11.647,14.265 L11.673,14.27 Q11.964,13.794 12.154,13.56 Q13.587,11.797 15.839,11.49 Q18.091,11.183 19.945,12.499 Q20.062,12.582 20.249,12.745 Z M20.226,14.788 Q19.336,13.906 19.076,13.722 Q15.829,11.416 13.318,14.507 Q13.117,14.753 12.688,15.501 Q12.668,15.542 12.644,15.58 L12.326,16.14 L10.021,20.218 Q10.926,20.25 12,20.25 Q17.381,20.25 18.498,19.438 Q19.043,19.043 19.438,18.498 Q20.133,17.542 20.226,14.788 Z M8.25,9 Q8.25,6.25 11,6.25 Q12.139,6.25 12.945,7.055 Q13.75,7.861 13.75,9 Q13.75,10.139 12.945,10.945 Q12.139,11.75 11,11.75 Q8.25,11.75 8.25,9 Z M10.883,15.644 Q9.573,15.394 9.174,15.403 Q7.207,15.445 5.966,16.972 Q5.671,17.334 4.89,18.896 L4.89,18.897 Q5.168,19.196 5.502,19.438 Q6.169,19.923 8.354,20.118 L10.883,15.644 Z M9.75,9 Q9.75,10.25 11,10.25 Q12.25,10.25 12.25,9 Q12.25,8.482 11.884,8.116 Q11.518,7.75 11,7.75 Q10.482,7.75 10.116,8.116 Q9.75,8.482 9.75,9 Z"/>
</svg>

