<svg width="24" height="24" viewBox="0 0 24 24" fill="none" xmlns="http://www.w3.org/2000/svg">
<path d="M8.25 9C8.25 7.48122 9.48122 6.25 11 6.25C12.5188 6.25 13.75 7.48122 13.75 9C13.75 10.5188 12.5188 11.75 11 11.75C9.48122 11.75 8.25 10.5188 8.25 9Z" fill="#2D264B"/>
<path fill-rule="evenodd" clip-rule="evenodd" d="M11.9548 2.25H12.0452C13.8818 2.24999 15.3214 2.24999 16.4635 2.37373C17.6291 2.50001 18.5734 2.76232 19.3798 3.34815C19.8679 3.70281 20.2972 4.13209 20.6518 4.62024C21.2377 5.42656 21.5 6.37094 21.6263 7.53648C21.75 8.67859 21.75 10.1182 21.75 11.9547V12.006C21.75 12.9403 21.75 13.7682 21.7348 14.5005C21.6903 16.6546 21.5217 18.1825 20.6518 19.3798C20.2972 19.8679 19.8679 20.2972 19.3798 20.6518C18.5734 21.2377 17.6291 21.5 16.4635 21.6263C15.3214 21.75 13.8818 21.75 12.0453 21.75H11.9547C10.1182 21.75 8.67859 21.75 7.53648 21.6263C6.37094 21.5 5.42656 21.2377 4.62024 20.6518C4.14981 20.3101 3.73405 19.899 3.38706 19.4327C3.37399 19.4151 3.36102 19.3975 3.34815 19.3798C2.76232 18.5734 2.50001 17.6291 2.37373 16.4635C2.24999 15.3214 2.24999 13.8818 2.25 12.0452V11.9548C2.24999 10.1182 2.24999 8.67861 2.37373 7.53648C2.50001 6.37094 2.76232 5.42656 3.34815 4.62024C3.70281 4.13209 4.13209 3.70281 4.62024 3.34815C5.42656 2.76232 6.37094 2.50001 7.53648 2.37373C8.67861 2.24999 10.1182 2.24999 11.9548 2.25ZM7.69804 3.865C6.66013 3.97745 6.00992 4.19259 5.50191 4.56168C5.14111 4.82382 4.82382 5.14111 4.56168 5.50191C4.19259 6.00992 3.97745 6.66013 3.865 7.69804C3.75103 8.74999 3.75 10.1084 3.75 12C3.75 13.8916 3.75103 15.25 3.865 16.302C3.90522 16.6732 3.95858 16.9948 4.02741 17.2781C4.30278 16.7487 4.53101 16.359 4.80143 16.0261C5.86636 14.7154 7.45369 13.939 9.14216 13.9032C9.77404 13.8897 10.4471 14.0244 11.5462 14.2444L11.6711 14.2694C11.8432 13.9843 11.9951 13.7558 12.1537 13.5606C14.0651 11.2087 17.4737 10.7441 19.9448 12.4986C20.0435 12.5687 20.1438 12.6476 20.2497 12.7373C20.25 12.5006 20.25 12.255 20.25 12C20.25 10.1084 20.249 8.74999 20.135 7.69804C20.0225 6.66013 19.8074 6.00992 19.4383 5.50191C19.1762 5.14111 18.8589 4.82382 18.4981 4.56168C17.9901 4.19259 17.3399 3.97745 16.302 3.865C15.25 3.75103 13.8916 3.75 12 3.75C10.1084 3.75 8.74999 3.75103 7.69804 3.865Z" fill="#2D264B"/>
</svg>
