<svg width="24" height="24" viewBox="0 0 24 24" fill="none" xmlns="http://www.w3.org/2000/svg">
<path fill-rule="evenodd" clip-rule="evenodd" d="M7.53648 2.37373C8.67861 2.24999 10.1182 2.24999 11.9548 2.25H12.0452C13.8818 2.24999 15.3214 2.24999 16.4635 2.37373C17.6291 2.50001 18.5734 2.76232 19.3798 3.34815C19.8679 3.70281 20.2972 4.13209 20.6518 4.62024C21.2377 5.42656 21.5 6.37094 21.6263 7.53648C21.75 8.67859 21.75 10.1182 21.75 11.9547V12.006C21.75 12.9403 21.75 13.7682 21.7348 14.5005C21.6903 16.6546 21.5217 18.1825 20.6518 19.3798C20.2972 19.8679 19.8679 20.2972 19.3798 20.6518C18.5734 21.2377 17.6291 21.5 16.4635 21.6263C15.3214 21.75 13.8818 21.75 12.0453 21.75H11.9547C10.1182 21.75 8.67859 21.75 7.53648 21.6263C6.37094 21.5 5.42656 21.2377 4.62024 20.6518C4.14981 20.3101 3.73405 19.899 3.38706 19.4327C3.37399 19.4151 3.36102 19.3975 3.34815 19.3798C2.76232 18.5734 2.50001 17.6291 2.37373 16.4635C2.24999 15.3214 2.24999 13.8818 2.25 12.0453V11.9548C2.24999 10.1182 2.24999 8.67861 2.37373 7.53648C2.50001 6.37094 2.76232 5.42656 3.34815 4.62024C3.70281 4.13209 4.13209 3.70281 4.62024 3.34815C5.42656 2.76232 6.37094 2.50001 7.53648 2.37373ZM20.2453 13.7517L20.1823 13.6908C19.9063 13.4257 19.7024 13.2463 19.5106 13.1101C17.3618 11.5845 14.3978 11.9885 12.7358 14.0336C12.535 14.2806 12.3341 14.6097 12.0182 15.1622L11.5 15C10.3045 14.7609 9.70672 14.6413 9.15808 14.653C7.68985 14.6842 6.30956 15.3593 5.38354 16.4991C5.07484 16.879 4.82456 17.354 4.38701 18.2263C4.44098 18.3218 4.49912 18.412 4.56168 18.4981L4.59044 18.5372C4.8469 18.8818 5.15421 19.1857 5.50191 19.4383C6.00992 19.8074 6.66013 20.0225 7.69804 20.135C8.74999 20.249 10.1084 20.25 12 20.25C13.8916 20.25 15.25 20.249 16.302 20.135C17.3399 20.0225 17.9901 19.8074 18.4981 19.4383C18.8589 19.1762 19.1762 18.8589 19.4383 18.4981C20 17.725 20.19 16.6526 20.2352 14.4695C20.2399 14.2406 20.2431 14.0016 20.2453 13.7517ZM11 11C9.89543 11 9 10.1046 9 9C9 7.89543 9.89543 7 11 7C12.1046 7 13 7.89543 13 9C13 10.1046 12.1046 11 11 11Z" fill="#2D264B"/>
</svg>
