<svg xmlns="http://www.w3.org/2000/svg" width="24" height="24" viewBox="0 0 24 24">
  <defs/>
  <path fill="#2D264B" d="M8.25,9 C8.25,7.481 9.481,6.25 11,6.25 C12.519,6.25 13.75,7.481 13.75,9 C13.75,10.519 12.519,11.75 11,11.75 C9.481,11.75 8.25,10.519 8.25,9 Z"/>
  <path fill="#2D264B" d="M11.955,2.25 L12.045,2.25 C13.882,2.25 15.321,2.25 16.463,2.374 C17.629,2.5 18.573,2.762 19.38,3.348 C19.868,3.703 20.297,4.132 20.652,4.62 C21.238,5.427 21.5,6.371 21.626,7.536 C21.75,8.679 21.75,10.118 21.75,11.955 L21.75,12.006 C21.75,12.94 21.75,13.768 21.735,14.5 C21.69,16.655 21.522,18.183 20.652,19.38 C20.297,19.868 19.868,20.297 19.38,20.652 C18.573,21.238 17.629,21.5 16.463,21.626 C15.321,21.75 13.882,21.75 12.045,21.75 L11.955,21.75 C10.118,21.75 8.679,21.75 7.536,21.626 C6.371,21.5 5.427,21.238 4.62,20.652 C4.15,20.31 3.734,19.899 3.387,19.433 C3.374,19.415 3.361,19.397 3.348,19.38 C2.762,18.573 2.5,17.629 2.374,16.463 C2.25,15.321 2.25,13.882 2.25,12.045 L2.25,11.955 C2.25,10.118 2.25,8.679 2.374,7.536 C2.5,6.371 2.762,5.427 3.348,4.62 C3.703,4.132 4.132,3.703 4.62,3.348 C5.427,2.762 6.371,2.5 7.536,2.374 C8.679,2.25 10.118,2.25 11.955,2.25 Z M7.698,3.865 C6.66,3.977 6.01,4.193 5.502,4.562 C5.141,4.824 4.824,5.141 4.562,5.502 C4.193,6.01 3.977,6.66 3.865,7.698 C3.751,8.75 3.75,10.108 3.75,12 C3.75,13.892 3.751,15.25 3.865,16.302 C3.905,16.673 3.959,16.995 4.027,17.278 C4.303,16.749 4.531,16.359 4.801,16.026 C5.866,14.715 7.454,13.939 9.142,13.903 C9.774,13.89 10.447,14.024 11.546,14.244 L11.671,14.269 C11.843,13.984 11.995,13.756 12.154,13.561 C14.065,11.209 17.474,10.744 19.945,12.499 C20.044,12.569 20.144,12.648 20.25,12.737 C20.25,12.501 20.25,12.255 20.25,12 C20.25,10.108 20.249,8.75 20.135,7.698 C20.022,6.66 19.807,6.01 19.438,5.502 C19.176,5.141 18.859,4.824 18.498,4.562 C17.99,4.193 17.34,3.977 16.302,3.865 C15.25,3.751 13.892,3.75 12,3.75 C10.108,3.75 8.75,3.751 7.698,3.865 Z"/>
</svg>

