<svg xmlns="http://www.w3.org/2000/svg" width="24" height="24" viewBox="0 0 24 24">
  <defs/>
  <path fill="#2D264B" d="M7.536,2.374 C8.679,2.25 10.118,2.25 11.955,2.25 L12.045,2.25 C13.882,2.25 15.321,2.25 16.463,2.374 C17.629,2.5 18.573,2.762 19.38,3.348 C19.868,3.703 20.297,4.132 20.652,4.62 C21.238,5.427 21.5,6.371 21.626,7.536 C21.75,8.679 21.75,10.118 21.75,11.955 L21.75,12.006 C21.75,12.94 21.75,13.768 21.735,14.5 C21.69,16.655 21.522,18.183 20.652,19.38 C20.297,19.868 19.868,20.297 19.38,20.652 C18.573,21.238 17.629,21.5 16.463,21.626 C15.321,21.75 13.882,21.75 12.045,21.75 L11.955,21.75 C10.118,21.75 8.679,21.75 7.536,21.626 C6.371,21.5 5.427,21.238 4.62,20.652 C4.15,20.31 3.734,19.899 3.387,19.433 C3.374,19.415 3.361,19.397 3.348,19.38 C2.762,18.573 2.5,17.629 2.374,16.463 C2.25,15.321 2.25,13.882 2.25,12.045 L2.25,11.955 C2.25,10.118 2.25,8.679 2.374,7.536 C2.5,6.371 2.762,5.427 3.348,4.62 C3.703,4.132 4.132,3.703 4.62,3.348 C5.427,2.762 6.371,2.5 7.536,2.374 Z M20.245,13.752 L20.182,13.691 C19.906,13.426 19.702,13.246 19.511,13.11 C17.362,11.585 14.398,11.988 12.736,14.034 C12.535,14.281 12.334,14.61 12.018,15.162 L11.5,15 L11.499,15 C10.304,14.761 9.707,14.641 9.158,14.653 C7.69,14.684 6.31,15.359 5.384,16.499 C5.075,16.879 4.825,17.354 4.387,18.226 C4.441,18.322 4.499,18.412 4.562,18.498 L4.59,18.537 C4.847,18.882 5.154,19.186 5.502,19.438 C6.01,19.807 6.66,20.022 7.698,20.135 C8.75,20.249 10.108,20.25 12,20.25 C13.892,20.25 15.25,20.249 16.302,20.135 C17.34,20.022 17.99,19.807 18.498,19.438 C18.859,19.176 19.176,18.859 19.438,18.498 C20,17.725 20.19,16.653 20.235,14.469 C20.24,14.241 20.243,14.002 20.245,13.752 Z M11,11 C12.105,11 13,10.105 13,9 C13,7.895 12.105,7 11,7 C9.895,7 9,7.895 9,9 C9,10.105 9.895,11 11,11 Z"/>
</svg>

