<svg xmlns="http://www.w3.org/2000/svg" width="24" height="24" viewBox="0 0 24 24">
  <defs/>
  <path fill="#2D264B" d="M3,12 C3,8.25 3,6.375 3.955,5.061 C4.263,4.637 4.637,4.263 5.061,3.955 C6.375,3 8.25,3 12,3 C15.75,3 17.625,3 18.939,3.955 C19.363,4.263 19.737,4.637 20.045,5.061 C21,6.375 21,8.25 21,12 C21,15.75 21,17.625 20.045,18.939 C19.737,19.363 19.363,19.737 18.939,20.045 C17.625,21 15.75,21 12,21 C8.25,21 6.375,21 5.061,20.045 C4.637,19.737 4.263,19.363 3.955,18.939 C3,17.625 3,15.75 3,12 Z M12,10.25 C11.586,10.25 11.25,10.586 11.25,11 L11.25,17 C11.25,17.414 11.586,17.75 12,17.75 C12.414,17.75 12.75,17.414 12.75,17 L12.75,11 C12.75,10.586 12.414,10.25 12,10.25 Z M12,9 C12.552,9 13,8.552 13,8 C13,7.448 12.552,7 12,7 C11.448,7 11,7.448 11,8 C11,8.552 11.448,9 12,9 Z"/>
</svg>

