<svg xmlns="http://www.w3.org/2000/svg" width="24" height="24" viewBox="0 0 24 24">
  <defs/>
  <path fill="#2D264B" d="M22,12 C22,17.523 17.523,22 12,22 C6.477,22 2,17.523 2,12 C2,6.477 6.477,2 12,2 C17.523,2 22,6.477 22,12 Z M12,10.25 C11.586,10.25 11.25,10.586 11.25,11 L11.25,17 C11.25,17.414 11.586,17.75 12,17.75 C12.414,17.75 12.75,17.414 12.75,17 L12.75,11 C12.75,10.586 12.414,10.25 12,10.25 Z M12,9 C12.552,9 13,8.552 13,8 C13,7.448 12.552,7 12,7 C11.448,7 11,7.448 11,8 C11,8.552 11.448,9 12,9 Z"/>
</svg>

