<svg xmlns="http://www.w3.org/2000/svg" width="24" height="24" viewBox="0 0 24 24">
  <defs/>
  <path fill="#2D264B" d="M12,9.75 C10.757,9.75 9.75,10.757 9.75,12 C9.75,13.243 10.757,14.25 12,14.25 C13.243,14.25 14.25,13.243 14.25,12 C14.25,10.757 13.243,9.75 12,9.75 Z"/>
  <path fill="#2D264B" d="M11.955,2.25 L12.045,2.25 C13.882,2.25 15.321,2.25 16.463,2.374 C17.629,2.5 18.573,2.762 19.38,3.348 C19.868,3.703 20.297,4.132 20.652,4.62 C21.238,5.427 21.5,6.371 21.626,7.536 C21.75,8.679 21.75,10.118 21.75,11.955 L21.75,12.045 C21.75,13.882 21.75,15.321 21.626,16.463 C21.5,17.629 21.238,18.573 20.652,19.38 C20.297,19.868 19.868,20.297 19.38,20.652 C18.573,21.238 17.629,21.5 16.463,21.626 C15.321,21.75 13.882,21.75 12.045,21.75 L11.955,21.75 C10.118,21.75 8.679,21.75 7.536,21.626 C6.371,21.5 5.427,21.238 4.62,20.652 C4.132,20.297 3.703,19.868 3.348,19.38 C2.762,18.573 2.5,17.629 2.374,16.463 C2.25,15.321 2.25,13.882 2.25,12.045 L2.25,11.955 C2.25,10.118 2.25,8.679 2.374,7.536 C2.5,6.371 2.762,5.427 3.348,4.62 C3.703,4.132 4.132,3.703 4.62,3.348 C5.427,2.762 6.371,2.5 7.536,2.374 C8.679,2.25 10.118,2.25 11.955,2.25 Z M8.25,12 C8.25,14.071 9.929,15.75 12,15.75 C14.071,15.75 15.75,14.071 15.75,12 C15.75,9.929 14.071,8.25 12,8.25 C9.929,8.25 8.25,9.929 8.25,12 Z M17,8 C17.552,8 18,7.552 18,7 C18,6.448 17.552,6 17,6 C16.448,6 16,6.448 16,7 C16,7.552 16.448,8 17,8 Z"/>
</svg>

