<svg width="24" height="24" viewBox="0 0 24 24" fill="none" xmlns="http://www.w3.org/2000/svg">
<path fill-rule="evenodd" clip-rule="evenodd" d="M11.9548 2.25H12.0452C13.8818 2.24999 15.3214 2.24999 16.4635 2.37373C17.6291 2.50001 18.5734 2.76232 19.3798 3.34815C19.8679 3.70281 20.2972 4.13209 20.6518 4.62024C21.2377 5.42656 21.5 6.37094 21.6263 7.53648C21.75 8.67859 21.75 10.1182 21.75 11.9547V12.0453C21.75 13.8818 21.75 15.3214 21.6263 16.4635C21.5 17.6291 21.2377 18.5734 20.6518 19.3798C20.2972 19.8679 19.8679 20.2972 19.3798 20.6518C18.5734 21.2377 17.6291 21.5 16.4635 21.6263C15.3214 21.75 13.8818 21.75 12.0453 21.75H11.9547C10.1182 21.75 8.67859 21.75 7.53648 21.6263C6.37094 21.5 5.42656 21.2377 4.62024 20.6518C4.13209 20.2972 3.70281 19.8679 3.34815 19.3798C2.76232 18.5734 2.50001 17.6291 2.37373 16.4635C2.24999 15.3214 2.24999 13.8818 2.25 12.0452V11.9548C2.24999 10.1182 2.24999 8.67861 2.37373 7.53648C2.50001 6.37094 2.76232 5.42656 3.34815 4.62024C3.70281 4.13209 4.13209 3.70281 4.62024 3.34815C5.42656 2.76232 6.37094 2.50001 7.53648 2.37373C8.67861 2.24999 10.1182 2.24999 11.9548 2.25ZM9 6.25H12.9845C12.9943 6.24981 13.0041 6.24981 13.0139 6.25H17C17.4142 6.25 17.75 6.58579 17.75 7C17.75 7.41421 17.4142 7.75 17 7.75H13.6149L11.9149 16.25H15C15.4142 16.25 15.75 16.5858 15.75 17C15.75 17.4142 15.4142 17.75 15 17.75H11.0155C11.0057 17.7502 10.9959 17.7502 10.9861 17.75H7C6.58579 17.75 6.25 17.4142 6.25 17C6.25 16.5858 6.58579 16.25 7 16.25H10.3851L12.0851 7.75H9C8.58579 7.75 8.25 7.41421 8.25 7C8.25 6.58579 8.58579 6.25 9 6.25Z" fill="#2D264B"/>
</svg>
