<svg xmlns="http://www.w3.org/2000/svg" width="24" height="24" viewBox="0 0 24 24">
  <defs/>
  <path fill="#2D264B" d="M8,14.25 C7.586,14.25 7.25,14.586 7.25,15 C7.25,15.414 7.586,15.75 8,15.75 L8,14.25 Z M16,15.75 C16.414,15.75 16.75,15.414 16.75,15 C16.75,14.586 16.414,14.25 16,14.25 L16,15.75 Z M16,8.25 C15.586,8.25 15.25,8.586 15.25,9 C15.25,9.414 15.586,9.75 16,9.75 L16,8.25 Z M20,9.75 C20.414,9.75 20.75,9.414 20.75,9 C20.75,8.586 20.414,8.25 20,8.25 L20,9.75 Z M9,4.75 L15,4.75 L15,3.25 L9,3.25 L9,4.75 Z M15,19.25 L9,19.25 L9,20.75 L15,20.75 L15,19.25 Z M9,19.25 C7.587,19.25 6.573,19.249 5.777,19.184 C4.99,19.12 4.482,18.996 4.071,18.787 L3.39,20.123 C4.048,20.459 4.775,20.608 5.655,20.679 C6.526,20.751 7.612,20.75 9,20.75 L9,19.25 Z M0.25,12 C0.25,13.388 0.249,14.474 0.321,15.345 C0.393,16.225 0.541,16.952 0.877,17.61 L2.213,16.93 C2.004,16.518 1.88,16.01 1.816,15.223 C1.751,14.427 1.75,13.412 1.75,12 L0.25,12 Z M4.071,18.787 C3.271,18.379 2.621,17.729 2.213,16.93 L0.877,17.61 C1.428,18.692 2.308,19.572 3.39,20.123 L4.071,18.787 Z M22.25,12 C22.25,13.412 22.249,14.427 22.184,15.223 C22.12,16.01 21.996,16.518 21.787,16.93 L23.123,17.61 C23.459,16.952 23.608,16.225 23.679,15.345 C23.751,14.474 23.75,13.388 23.75,12 L22.25,12 Z M15,20.75 C16.388,20.75 17.474,20.751 18.345,20.679 C19.225,20.608 19.952,20.459 20.61,20.123 L19.93,18.787 C19.518,18.996 19.01,19.12 18.223,19.184 C17.427,19.249 16.413,19.25 15,19.25 L15,20.75 Z M21.787,16.93 C21.379,17.729 20.729,18.379 19.93,18.787 L20.61,20.123 C21.692,19.572 22.572,18.692 23.123,17.61 L21.787,16.93 Z M15,4.75 C16.413,4.75 17.427,4.751 18.223,4.816 C19.01,4.88 19.518,5.004 19.93,5.213 L20.61,3.877 C19.952,3.541 19.225,3.393 18.345,3.321 C17.474,3.249 16.388,3.25 15,3.25 L15,4.75 Z M23.75,12 C23.75,10.612 23.751,9.526 23.679,8.655 C23.608,7.775 23.459,7.048 23.123,6.39 L21.787,7.071 C21.996,7.482 22.12,7.99 22.184,8.777 C22.249,9.573 22.25,10.588 22.25,12 L23.75,12 Z M19.93,5.213 C20.729,5.621 21.379,6.271 21.787,7.071 L23.123,6.39 C22.572,5.308 21.692,4.428 20.61,3.877 L19.93,5.213 Z M9,3.25 C7.612,3.25 6.526,3.249 5.655,3.321 C4.775,3.393 4.048,3.541 3.39,3.877 L4.071,5.213 C4.482,5.004 4.99,4.88 5.777,4.816 C6.573,4.751 7.587,4.75 9,4.75 L9,3.25 Z M1.75,12 C1.75,10.588 1.751,9.573 1.816,8.777 C1.88,7.99 2.004,7.482 2.213,7.071 L0.877,6.39 C0.541,7.048 0.393,7.775 0.321,8.655 C0.249,9.526 0.25,10.612 0.25,12 L1.75,12 Z M3.39,3.877 C2.308,4.428 1.428,5.308 0.877,6.39 L2.213,7.071 C2.621,6.271 3.271,5.621 4.071,5.213 L3.39,3.877 Z M8,15.75 L16,15.75 L16,14.25 L8,14.25 L8,15.75 Z M16,9.75 L20,9.75 L20,8.25 L16,8.25 L16,9.75 Z"/>
  <path fill="#2D264B" d="M6,15 C6,15.552 5.552,16 5,16 C4.448,16 4,15.552 4,15 C4,14.448 4.448,14 5,14 C5.552,14 6,14.448 6,15 Z"/>
  <path fill="#2D264B" d="M20,15 C20,15.552 19.552,16 19,16 C18.448,16 18,15.552 18,15 C18,14.448 18.448,14 19,14 C19.552,14 20,14.448 20,15 Z"/>
  <path fill="#2D264B" d="M10,9 C10,9.552 9.552,10 9,10 C8.448,10 8,9.552 8,9 C8,8.448 8.448,8 9,8 C9.552,8 10,8.448 10,9 Z"/>
  <path fill="#2D264B" d="M14,9 C14,9.552 13.552,10 13,10 C12.448,10 12,9.552 12,9 C12,8.448 12.448,8 13,8 C13.552,8 14,8.448 14,9 Z"/>
  <path fill="#2D264B" d="M6,9 C6,9.552 5.552,10 5,10 C4.448,10 4,9.552 4,9 C4,8.448 4.448,8 5,8 C5.552,8 6,8.448 6,9 Z"/>
</svg>

