<svg width="24" height="24" viewBox="0 0 24 24" fill="none" xmlns="http://www.w3.org/2000/svg">
<path fill-rule="evenodd" clip-rule="evenodd" d="M1 12C1 9.19974 1 7.79961 1.54497 6.73005C2.02433 5.78924 2.78924 5.02433 3.73005 4.54497C4.79961 4 6.19974 4 9 4H15C17.8003 4 19.2004 4 20.27 4.54497C21.2108 5.02433 21.9757 5.78924 22.455 6.73005C23 7.79961 23 9.19974 23 12C23 14.8003 23 16.2004 22.455 17.27C21.9757 18.2108 21.2108 18.9757 20.27 19.455C19.2004 20 17.8003 20 15 20H9C6.19974 20 4.79961 20 3.73005 19.455C2.78924 18.9757 2.02433 18.2108 1.54497 17.27C1 16.2004 1 14.8003 1 12ZM20 9.75L16 9.75C15.5858 9.75 15.25 9.41421 15.25 9C15.25 8.58579 15.5858 8.25 16 8.25L20 8.25C20.4142 8.25 20.75 8.58579 20.75 9C20.75 9.41421 20.4142 9.75 20 9.75ZM7.25 15C7.25 14.5858 7.58579 14.25 8 14.25H16C16.4142 14.25 16.75 14.5858 16.75 15C16.75 15.4142 16.4142 15.75 16 15.75H8C7.58579 15.75 7.25 15.4142 7.25 15ZM9 10C9.55228 10 10 9.55228 10 9C10 8.44772 9.55228 8 9 8C8.44772 8 8 8.44772 8 9C8 9.55228 8.44772 10 9 10ZM6 15C6 15.5523 5.55228 16 5 16C4.44772 16 4 15.5523 4 15C4 14.4477 4.44772 14 5 14C5.55228 14 6 14.4477 6 15ZM20 15C20 15.5523 19.5523 16 19 16C18.4477 16 18 15.5523 18 15C18 14.4477 18.4477 14 19 14C19.5523 14 20 14.4477 20 15ZM14 9C14 9.55228 13.5523 10 13 10C12.4477 10 12 9.55228 12 9C12 8.44772 12.4477 8 13 8C13.5523 8 14 8.44772 14 9ZM5 10C5.55228 10 6 9.55228 6 9C6 8.44772 5.55228 8 5 8C4.44772 8 4 8.44772 4 9C4 9.55228 4.44772 10 5 10Z" fill="#2D264B"/>
</svg>
