<svg xmlns="http://www.w3.org/2000/svg" width="24" height="24" viewBox="0 0 24 24">
  <defs/>
  <path fill="#2D264B" d="M1,12 C1,9.2 1,7.8 1.545,6.73 C2.024,5.789 2.789,5.024 3.73,4.545 C4.8,4 6.2,4 9,4 L15,4 C17.8,4 19.2,4 20.27,4.545 C21.211,5.024 21.976,5.789 22.455,6.73 C23,7.8 23,9.2 23,12 C23,14.8 23,16.2 22.455,17.27 C21.976,18.211 21.211,18.976 20.27,19.455 C19.2,20 17.8,20 15,20 L9,20 C6.2,20 4.8,20 3.73,19.455 C2.789,18.976 2.024,18.211 1.545,17.27 C1,16.2 1,14.8 1,12 Z M7.25,15 C7.25,15.414 7.586,15.75 8,15.75 L16,15.75 C16.414,15.75 16.75,15.414 16.75,15 C16.75,14.586 16.414,14.25 16,14.25 L8,14.25 C7.586,14.25 7.25,14.586 7.25,15 Z M20,9.75 C20.414,9.75 20.75,9.414 20.75,9 C20.75,8.586 20.414,8.25 20,8.25 L16,8.25 C15.586,8.25 15.25,8.586 15.25,9 C15.25,9.414 15.586,9.75 16,9.75 Z M20,15 C20,14.448 19.552,14 19,14 C18.448,14 18,14.448 18,15 C18,15.552 18.448,16 19,16 C19.552,16 20,15.552 20,15 Z M14,9 C14,8.448 13.552,8 13,8 C12.448,8 12,8.448 12,9 C12,9.552 12.448,10 13,10 C13.552,10 14,9.552 14,9 Z M6,15 C6,14.448 5.552,14 5,14 C4.448,14 4,14.448 4,15 C4,15.552 4.448,16 5,16 C5.552,16 6,15.552 6,15 Z M9,10 C9.552,10 10,9.552 10,9 C10,8.448 9.552,8 9,8 C8.448,8 8,8.448 8,9 C8,9.552 8.448,10 9,10 Z M5,10 C5.552,10 6,9.552 6,9 C6,8.448 5.552,8 5,8 C4.448,8 4,8.448 4,9 C4,9.552 4.448,10 5,10 Z"/>
</svg>

