<svg xmlns="http://www.w3.org/2000/svg" width="24" height="24" viewBox="0 0 24 24">
  <defs/>
  <path fill="#2D264B" d="M18.939,20.045 C17.625,21 15.75,21 12,21 C8.25,21 6.375,21 5.061,20.045 C4.637,19.737 4.263,19.363 3.955,18.939 C3,17.625 3,15.75 3,12 C3,8.25 3,6.375 3.955,5.061 C4.263,4.637 4.637,4.263 5.061,3.955 C6.375,3 8.25,3 12,3 C15.75,3 17.625,3 18.939,3.955 C19.363,4.263 19.737,4.637 20.045,5.061 C21,6.375 21,8.25 21,12 C21,15.75 21,17.625 20.045,18.939 C19.737,19.363 19.363,19.737 18.939,20.045 Z M13.472,6.467 L11.677,8.246 C11.001,8.916 10.449,9.464 10.057,9.951 C9.65,10.459 9.355,10.974 9.276,11.592 C9.241,11.863 9.241,12.137 9.276,12.408 C9.355,13.026 9.65,13.541 10.057,14.049 C10.449,14.536 11.001,15.084 11.677,15.754 L13.472,17.533 C13.766,17.824 14.241,17.822 14.533,17.528 C14.824,17.234 14.822,16.759 14.528,16.467 L12.765,14.72 C12.05,14.011 11.559,13.523 11.227,13.109 C10.904,12.708 10.793,12.45 10.764,12.219 C10.745,12.073 10.745,11.927 10.764,11.781 C10.793,11.55 10.904,11.292 11.227,10.891 C11.559,10.477 12.05,9.989 12.765,9.28 L14.528,7.533 C14.822,7.241 14.824,6.766 14.533,6.472 C14.241,6.178 13.766,6.176 13.472,6.467 Z"/>
</svg>

