<svg width="24" height="24" viewBox="0 0 24 24" fill="none" xmlns="http://www.w3.org/2000/svg">
<path fill-rule="evenodd" clip-rule="evenodd" d="M3.95491 5.06107C3 6.3754 3 8.25027 3 12C3 15.7497 3 17.6246 3.95491 18.9389C4.26331 19.3634 4.6366 19.7367 5.06107 20.0451C6.3754 21 8.25027 21 12 21C15.7497 21 17.6246 21 18.9389 20.0451C19.3634 19.7367 19.7367 19.3634 20.0451 18.9389C21 17.6246 21 15.7497 21 12C21 8.25027 21 6.3754 20.0451 5.06107C19.7367 4.6366 19.3634 4.26331 18.9389 3.95491C17.6246 3 15.7497 3 12 3C8.25027 3 6.3754 3 5.06107 3.95491C4.6366 4.26331 4.26331 4.6366 3.95491 5.06107ZM11.728 8.53269C12.0222 8.24111 12.0243 7.76624 11.7327 7.47204C11.4411 7.17784 10.9662 7.17573 10.672 7.46731L9.2309 8.89564C8.69472 9.42703 8.24754 9.87022 7.92869 10.2672C7.59427 10.6837 7.33989 11.1213 7.27193 11.6545C7.25731 11.7692 7.25 11.8846 7.25 12C7.25 12.1154 7.25731 12.2308 7.27193 12.3455C7.33989 12.8787 7.59426 13.3163 7.92869 13.7328C8.24754 14.1298 8.69472 14.573 9.2309 15.1044L10.672 16.5327C10.9662 16.8243 11.4411 16.8222 11.7327 16.528C12.0243 16.2338 12.0222 15.7589 11.728 15.4673L10.3176 14.0695C9.74268 13.4997 9.35733 13.1161 9.09823 12.7935C9.08635 12.7787 9.07487 12.7642 9.06379 12.75H16C16.4142 12.75 16.75 12.4142 16.75 12C16.75 11.5858 16.4142 11.25 16 11.25H9.06379C9.07487 11.2358 9.08635 11.2213 9.09823 11.2065C9.35733 10.8839 9.74268 10.5003 10.3176 9.93054L11.728 8.53269Z" fill="#2D264B"/>
</svg>
