<svg width="24" height="24" viewBox="0 0 24 24" fill="none" xmlns="http://www.w3.org/2000/svg">
<path fill-rule="evenodd" clip-rule="evenodd" d="M2 12C2 6.47715 6.47715 2 12 2C17.5228 2 22 6.47715 22 12C22 17.5228 17.5228 22 12 22C6.47715 22 2 17.5228 2 12ZM13.472 6.46731C13.7662 6.17573 14.2411 6.17784 14.5327 6.47204C14.8243 6.76624 14.8222 7.24111 14.528 7.53269L12.765 9.28C12.0495 9.98914 11.5587 10.4772 11.2266 10.8907C10.904 11.2924 10.7933 11.5504 10.7639 11.7815C10.7454 11.9266 10.7454 12.0734 10.7639 12.2185C10.7933 12.4496 10.904 12.7076 11.2266 13.1093C11.5587 13.5228 12.0495 14.0109 12.765 14.72L14.528 16.4673C14.8222 16.7589 14.8243 17.2338 14.5327 17.528C14.2411 17.8222 13.7662 17.8243 13.472 17.5327L11.6773 15.7539C11.0013 15.084 10.4489 14.5364 10.0571 14.0485C9.64963 13.5412 9.35469 13.0263 9.27591 12.4082C9.24136 12.1371 9.24136 11.8629 9.27591 11.5918C9.35469 10.9737 9.64963 10.4588 10.0571 9.95146C10.4489 9.46359 11.0013 8.91605 11.6773 8.24611L13.472 6.46731Z" fill="#2D264B"/>
</svg>
