<svg xmlns="http://www.w3.org/2000/svg" width="24" height="24" viewBox="0 0 24 24">
  <defs/>
  <path fill="#2D264B" d="M8.528,7.533 C8.822,7.241 8.824,6.766 8.533,6.472 C8.241,6.178 7.766,6.176 7.472,6.467 L5.677,8.246 C5.001,8.916 4.449,9.464 4.057,9.951 C3.65,10.459 3.355,10.974 3.276,11.592 C3.241,11.863 3.241,12.137 3.276,12.408 C3.355,13.026 3.65,13.541 4.057,14.049 C4.449,14.536 5.001,15.084 5.677,15.754 L7.472,17.533 C7.766,17.824 8.241,17.822 8.533,17.528 C8.824,17.234 8.822,16.759 8.528,16.467 L6.765,14.72 C6.05,14.011 5.559,13.523 5.227,13.109 C5.119,12.975 5.034,12.857 4.969,12.75 L20,12.75 C20.414,12.75 20.75,12.414 20.75,12 C20.75,11.586 20.414,11.25 20,11.25 L4.969,11.25 C5.034,11.143 5.119,11.025 5.227,10.891 C5.559,10.477 6.05,9.989 6.765,9.28 L8.528,7.533 Z"/>
</svg>

