<svg width="24" height="24" viewBox="0 0 24 24" fill="none" xmlns="http://www.w3.org/2000/svg">
<path fill-rule="evenodd" clip-rule="evenodd" d="M2 12C2 6.47715 6.47715 2 12 2C17.5228 2 22 6.47715 22 12C22 17.5228 17.5228 22 12 22C6.47715 22 2 17.5228 2 12ZM16 11.25C16.4142 11.25 16.75 11.5858 16.75 12C16.75 12.4142 16.4142 12.75 16 12.75L9.06379 12.75C9.07487 12.7642 9.08635 12.7787 9.09823 12.7935C9.35733 13.1161 9.74268 13.4997 10.3176 14.0695L11.728 15.4673C12.0222 15.7589 12.0243 16.2338 11.7327 16.528C11.4411 16.8222 10.9662 16.8243 10.672 16.5327L9.23089 15.1043C8.69472 14.573 8.24753 14.1298 7.92869 13.7328C7.59427 13.3163 7.33989 12.8787 7.27193 12.3455C7.25731 12.2308 7.25 12.1154 7.25 12C7.25 11.8846 7.25731 11.7692 7.27193 11.6545C7.33989 11.1213 7.59426 10.6837 7.92869 10.2672C8.24753 9.87022 8.69471 9.42704 9.23089 8.89566L10.672 7.46731C10.9662 7.17573 11.4411 7.17784 11.7327 7.47204C12.0243 7.76624 12.0222 8.24111 11.728 8.53269L10.3176 9.93054C9.74268 10.5003 9.35733 10.8839 9.09823 11.2065C9.08635 11.2213 9.07487 11.2358 9.06379 11.25L16 11.25Z" fill="#2D264B"/>
</svg>
