<svg xmlns="http://www.w3.org/2000/svg" width="24" height="24" viewBox="0 0 24 24">
  <defs/>
  <path fill="#2D264B" d="M2,12 C2,6.477 6.477,2 12,2 C17.523,2 22,6.477 22,12 C22,17.523 17.523,22 12,22 C6.477,22 2,17.523 2,12 Z M16,11.25 L9.064,11.25 C9.075,11.236 9.086,11.221 9.098,11.207 C9.357,10.884 9.743,10.5 10.318,9.931 L11.728,8.533 C12.022,8.241 12.024,7.766 11.733,7.472 C11.441,7.178 10.966,7.176 10.672,7.467 L9.231,8.896 C8.695,9.427 8.248,9.87 7.929,10.267 C7.594,10.684 7.34,11.121 7.272,11.655 C7.257,11.769 7.25,11.885 7.25,12 C7.25,12.115 7.257,12.231 7.272,12.345 C7.34,12.879 7.594,13.316 7.929,13.733 C8.248,14.13 8.695,14.573 9.231,15.104 L10.672,16.533 C10.966,16.824 11.441,16.822 11.733,16.528 C12.024,16.234 12.022,15.759 11.728,15.467 L10.318,14.069 C9.743,13.5 9.357,13.116 9.098,12.793 C9.086,12.779 9.075,12.764 9.064,12.75 L16,12.75 C16.414,12.75 16.75,12.414 16.75,12 C16.75,11.586 16.414,11.25 16,11.25 Z"/>
</svg>

