<svg width="24" height="24" viewBox="0 0 24 24" fill="none" xmlns="http://www.w3.org/2000/svg">
<path fill-rule="evenodd" clip-rule="evenodd" d="M18.9389 20.0451C17.6246 21 15.7497 21 12 21C8.25027 21 6.3754 21 5.06107 20.0451C4.6366 19.7367 4.26331 19.3634 3.95491 18.9389C3 17.6246 3 15.7497 3 12C3 8.25027 3 6.3754 3.95491 5.06108C4.26331 4.6366 4.6366 4.26331 5.06107 3.95491C6.3754 3 8.25027 3 12 3C15.7497 3 17.6246 3 18.9389 3.95491C19.3634 4.26331 19.7367 4.6366 20.0451 5.06107C21 6.3754 21 8.25027 21 12C21 15.7497 21 17.6246 20.0451 18.9389C19.7367 19.3634 19.3634 19.7367 18.9389 20.0451ZM13.472 6.46731C13.7662 6.17573 14.2411 6.17784 14.5327 6.47204C14.8243 6.76624 14.8222 7.24111 14.528 7.53269L12.765 9.28C12.0495 9.98914 11.5587 10.4772 11.2266 10.8907C10.904 11.2924 10.7933 11.5504 10.7639 11.7815C10.7454 11.9266 10.7454 12.0734 10.7639 12.2185C10.7933 12.4496 10.904 12.7076 11.2266 13.1093C11.5587 13.5228 12.0495 14.0109 12.765 14.72L14.528 16.4673C14.8222 16.7589 14.8243 17.2338 14.5327 17.528C14.2411 17.8222 13.7662 17.8243 13.472 17.5327L11.6773 15.7539C11.0013 15.084 10.4489 14.5364 10.0571 14.0485C9.64963 13.5412 9.35469 13.0263 9.27591 12.4082C9.24136 12.1371 9.24136 11.8629 9.27591 11.5918C9.35469 10.9737 9.64963 10.4588 10.0571 9.95146C10.4489 9.46359 11.0013 8.91605 11.6773 8.24611L13.472 6.46731Z" fill="#2D264B"/>
</svg>
