<svg xmlns="http://www.w3.org/2000/svg" width="24" height="24" viewBox="0 0 24 24">
  <defs/>
  <path fill="#2D264B" d="M20,12.75 C20.414,12.75 20.75,12.414 20.75,12 C20.75,11.586 20.414,11.25 20,11.25 L20,12.75 Z M4,11.25 C3.586,11.25 3.25,11.586 3.25,12 C3.25,12.414 3.586,12.75 4,12.75 L4,11.25 Z M7.472,17.533 C7.766,17.824 8.241,17.822 8.533,17.528 C8.824,17.234 8.822,16.759 8.528,16.467 L7.472,17.533 Z M8.528,7.533 C8.822,7.241 8.824,6.766 8.533,6.472 C8.241,6.178 7.766,6.176 7.472,6.467 L8.528,7.533 Z M20,11.25 L4,11.25 L4,12.75 L20,12.75 L20,11.25 Z M8.528,16.467 L6.765,14.72 L5.709,15.785 L7.472,17.533 L8.528,16.467 Z M6.765,9.28 L8.528,7.533 L7.472,6.467 L5.709,8.215 L6.765,9.28 Z M6.765,14.72 C6.05,14.011 5.559,13.523 5.227,13.109 C4.904,12.708 4.793,12.45 4.764,12.219 L3.276,12.408 C3.355,13.026 3.65,13.541 4.057,14.049 C4.455,14.544 5.019,15.101 5.709,15.785 L6.765,14.72 Z M5.709,8.215 C5.019,8.899 4.455,9.456 4.057,9.951 C3.65,10.459 3.355,10.974 3.276,11.592 L4.764,11.781 C4.793,11.55 4.904,11.292 5.227,10.891 C5.559,10.477 6.05,9.989 6.765,9.28 L5.709,8.215 Z M4.764,12.219 C4.745,12.073 4.745,11.927 4.764,11.781 L3.276,11.592 C3.241,11.863 3.241,12.137 3.276,12.408 L4.764,12.219 Z"/>
</svg>

