<svg xmlns="http://www.w3.org/2000/svg" width="24" height="24" viewBox="0 0 24 24">
  <defs/>
  <path fill="#2D264B" d="M16,12.75 C16.414,12.75 16.75,12.414 16.75,12 C16.75,11.586 16.414,11.25 16,11.25 L16,12.75 Z M10.672,16.533 C10.966,16.824 11.441,16.822 11.733,16.528 C12.024,16.234 12.022,15.759 11.728,15.467 L10.672,16.533 Z M11.728,8.533 C12.022,8.241 12.024,7.766 11.733,7.472 C11.441,7.178 10.966,7.176 10.672,7.467 L11.728,8.533 Z M21.25,12 C21.25,17.109 17.109,21.25 12,21.25 L12,22.75 C17.937,22.75 22.75,17.937 22.75,12 L21.25,12 Z M12,21.25 C6.891,21.25 2.75,17.109 2.75,12 L1.25,12 C1.25,17.937 6.063,22.75 12,22.75 L12,21.25 Z M2.75,12 C2.75,6.891 6.891,2.75 12,2.75 L12,1.25 C6.063,1.25 1.25,6.063 1.25,12 L2.75,12 Z M12,2.75 C17.109,2.75 21.25,6.891 21.25,12 L22.75,12 C22.75,6.063 17.937,1.25 12,1.25 L12,2.75 Z M16,11.25 L8.8,11.25 L8.8,12.75 L16,12.75 L16,11.25 Z M11.728,15.467 L10.318,14.069 L9.262,15.135 L10.672,16.533 L11.728,15.467 Z M10.318,9.931 L11.728,8.533 L10.672,7.467 L9.262,8.865 L10.318,9.931 Z M10.318,14.069 C9.743,13.5 9.357,13.116 9.098,12.793 C8.849,12.483 8.779,12.302 8.76,12.156 L7.272,12.345 C7.34,12.879 7.594,13.316 7.929,13.733 C8.254,14.137 8.712,14.59 9.262,15.135 L10.318,14.069 Z M9.262,8.865 C8.712,9.41 8.254,9.863 7.929,10.267 C7.594,10.684 7.34,11.121 7.272,11.655 L8.76,11.844 C8.779,11.698 8.849,11.517 9.098,11.207 C9.357,10.884 9.743,10.5 10.318,9.931 L9.262,8.865 Z M8.76,12.156 C8.753,12.104 8.75,12.052 8.75,12 L7.25,12 C7.25,12.115 7.257,12.231 7.272,12.345 L8.76,12.156 Z M8.75,12 C8.75,11.948 8.753,11.896 8.76,11.844 L7.272,11.655 C7.257,11.769 7.25,11.885 7.25,12 L8.75,12 Z M8.8,11.25 L8,11.25 L8,12.75 L8.8,12.75 L8.8,11.25 Z"/>
</svg>

