<svg xmlns="http://www.w3.org/2000/svg" width="24" height="24" viewBox="0 0 24 24">
  <defs/>
  <path fill="#2D264B" d="M2,12 C2,6.477 6.477,2 12,2 C17.523,2 22,6.477 22,12 C22,17.523 17.523,22 12,22 C6.477,22 2,17.523 2,12 Z M13.472,6.467 L11.677,8.246 C11.001,8.916 10.449,9.464 10.057,9.951 C9.65,10.459 9.355,10.974 9.276,11.592 C9.241,11.863 9.241,12.137 9.276,12.408 C9.355,13.026 9.65,13.541 10.057,14.049 C10.449,14.536 11.001,15.084 11.677,15.754 L13.472,17.533 C13.766,17.824 14.241,17.822 14.533,17.528 C14.824,17.234 14.822,16.759 14.528,16.467 L12.765,14.72 C12.05,14.011 11.559,13.523 11.227,13.109 C10.904,12.708 10.793,12.45 10.764,12.219 C10.745,12.073 10.745,11.927 10.764,11.781 C10.793,11.55 10.904,11.292 11.227,10.891 C11.559,10.477 12.05,9.989 12.765,9.28 L14.528,7.533 C14.822,7.241 14.824,6.766 14.533,6.472 C14.241,6.178 13.766,6.176 13.472,6.467 Z"/>
</svg>

