<svg xmlns="http://www.w3.org/2000/svg" width="24" height="24" viewBox="0 0 24 24">
  <defs/>
  <path fill="#2D264B" d="M13.472,17.533 L11.708,15.785 Q9.417,13.513 9.276,12.408 Q9.224,12 9.276,11.592 Q9.417,10.487 11.708,8.215 L11.709,8.215 L13.472,6.467 Q13.693,6.249 14.003,6.25 Q14.314,6.251 14.533,6.472 Q14.751,6.693 14.75,7.003 Q14.749,7.314 14.528,7.533 L12.765,9.28 L12.764,9.281 Q10.839,11.189 10.764,11.782 Q10.736,12 10.764,12.219 Q10.839,12.811 12.764,14.719 L12.765,14.72 L14.528,16.467 Q14.749,16.686 14.75,16.997 Q14.751,17.307 14.533,17.528 Q14.314,17.749 14.003,17.75 Q13.693,17.751 13.472,17.533 Z"/>
</svg>

