<svg xmlns="http://www.w3.org/2000/svg" width="24" height="24" viewBox="0 0 24 24">
  <defs/>
  <path fill="#2D264B" d="M22,12.75 C22.414,12.75 22.75,12.414 22.75,12 C22.75,11.586 22.414,11.25 22,11.25 L22,12.75 Z M11,11.25 C10.586,11.25 10.25,11.586 10.25,12 C10.25,12.414 10.586,12.75 11,12.75 L11,11.25 Z M22,11.25 L11,11.25 L11,12.75 L22,12.75 L22,11.25 Z M4.516,11.009 L8.238,8.145 L7.323,6.956 L3.601,9.821 L4.516,11.009 Z M10.25,9.135 L10.25,14.865 L11.75,14.865 L11.75,9.135 L10.25,9.135 Z M8.238,15.855 L4.516,12.99 L3.601,14.179 L7.323,17.044 L8.238,15.855 Z M10.25,14.865 C10.25,15.902 9.059,16.488 8.238,15.855 L7.323,17.044 C9.131,18.436 11.75,17.147 11.75,14.865 L10.25,14.865 Z M8.238,8.145 C9.059,7.512 10.25,8.098 10.25,9.135 L11.75,9.135 C11.75,6.853 9.131,5.564 7.323,6.956 L8.238,8.145 Z M3.601,9.821 C2.171,10.922 2.171,13.078 3.601,14.179 L4.516,12.99 C3.866,12.49 3.866,11.51 4.516,11.009 L3.601,9.821 Z"/>
</svg>

