<svg xmlns="http://www.w3.org/2000/svg" width="24" height="24" viewBox="0 0 24 24">
  <defs/>
  <path fill="#2D264B" d="M3.955,5.061 C4.263,4.637 4.637,4.263 5.061,3.955 C6.375,3 8.25,3 12,3 C15.75,3 17.625,3 18.939,3.955 C19.363,4.263 19.737,4.637 20.045,5.061 C21,6.375 21,8.25 21,12 C21,15.75 21,17.625 20.045,18.939 C19.737,19.363 19.363,19.737 18.939,20.045 C17.625,21 15.75,21 12,21 C8.25,21 6.375,21 5.061,20.045 C4.637,19.737 4.263,19.363 3.955,18.939 C3,17.625 3,15.75 3,12 C3,8.25 3,6.375 3.955,5.061 Z M11.728,8.533 C12.022,8.241 12.024,7.766 11.733,7.472 C11.441,7.178 10.966,7.176 10.672,7.467 L9.231,8.896 C8.695,9.427 8.248,9.87 7.929,10.267 C7.594,10.684 7.34,11.121 7.272,11.655 C7.257,11.769 7.25,11.885 7.25,12 C7.25,12.115 7.257,12.231 7.272,12.345 C7.34,12.879 7.594,13.316 7.929,13.733 C8.248,14.13 8.695,14.573 9.231,15.104 L10.672,16.533 C10.966,16.824 11.441,16.822 11.733,16.528 C12.024,16.234 12.022,15.759 11.728,15.467 L10.318,14.069 C9.743,13.5 9.357,13.116 9.098,12.793 C9.086,12.779 9.075,12.764 9.064,12.75 L16,12.75 C16.414,12.75 16.75,12.414 16.75,12 C16.75,11.586 16.414,11.25 16,11.25 L9.064,11.25 C9.075,11.236 9.086,11.221 9.098,11.207 C9.357,10.884 9.743,10.5 10.318,9.931 Z"/>
</svg>

