<svg width="24" height="24" viewBox="0 0 24 24" fill="none" xmlns="http://www.w3.org/2000/svg">
<path fill-rule="evenodd" clip-rule="evenodd" d="M21.455 4.73005C22 5.79961 22 7.19974 22 10V11.1842C22 12.8734 22 13.7179 21.798 14.4069C21.3188 16.041 20.041 17.3188 18.4069 17.798C17.7179 18 16.8734 18 15.1842 18H14.6354L14.5703 18.0001C13.5501 18.0066 12.5562 18.3251 11.7222 18.9128L11.6692 18.9506L9.05848 20.8154C8.1635 21.4546 6.98743 20.5314 7.3959 19.5103C7.68525 18.7869 7.15251 18 6.37341 18H5.77166C3.68863 18 2 16.3114 2 14.2283V10C2 7.19974 2 5.79961 2.54497 4.73005C3.02433 3.78924 3.78924 3.02433 4.73005 2.54497C5.79961 2 7.19974 2 10 2H14C16.8003 2 18.2004 2 19.27 2.54497C20.2108 3.02433 20.9757 3.78924 21.455 4.73005ZM12.8003 6.57296C13.6372 6.04213 14.9886 5.54016 16.1557 6.73036C18.9262 9.55568 14.1751 15 12 15C9.82494 15 5.07376 9.55568 7.84426 6.73036C9.01136 5.54017 10.3628 6.04213 11.1996 6.57297C11.6725 6.87291 12.3275 6.87291 12.8003 6.57296Z" fill="#2D264B"/>
</svg>
