<svg xmlns="http://www.w3.org/2000/svg" width="24" height="24" viewBox="0 0 24 24">
  <defs/>
  <path fill="#2D264B" d="M9.345,8.315 L11.575,4.69 C11.839,4.261 12.307,4 12.81,4 C13.699,4 14.378,4.792 14.243,5.67 L14,7.25 C13.737,8.959 15.059,10.5 16.788,10.5 L17.478,10.5 C20.015,10.5 21.665,13.17 20.53,15.439 L19.382,17.736 C18.535,19.43 16.804,20.5 14.91,20.5 L12,20.5 C10.652,20.5 9.46,19.833 8.735,18.812 C8.745,18.709 8.75,18.605 8.75,18.5 L8.75,10.5 C8.75,10.169 8.701,9.85 8.609,9.549 C8.786,9.223 9.022,8.84 9.345,8.315 Z"/>
  <path fill="#2D264B" d="M7.25,18.5 C7.25,19.466 6.466,20.25 5.5,20.25 C4.534,20.25 3.75,19.466 3.75,18.5 L3.75,10.5 C3.75,9.534 4.534,8.75 5.5,8.75 C6.466,8.75 7.25,9.534 7.25,10.5 L7.25,18.5 Z"/>
</svg>

