<svg xmlns="http://www.w3.org/2000/svg" width="24" height="24" viewBox="0 0 24 24">
  <defs/>
  <path fill="#2D264B" d="M21.455,4.73 C22,5.8 22,7.2 22,10 L22,11.184 C22,12.873 22,13.718 21.798,14.407 C21.319,16.041 20.041,17.319 18.407,17.798 C17.718,18 16.873,18 15.184,18 L14.635,18 L14.57,18 C13.55,18.007 12.556,18.325 11.722,18.913 L11.669,18.951 L9.058,20.815 C8.163,21.455 6.987,20.531 7.396,19.51 C7.685,18.787 7.153,18 6.373,18 L5.772,18 C3.689,18 2,16.311 2,14.228 L2,10 C2,7.2 2,5.8 2.545,4.73 C3.024,3.789 3.789,3.024 4.73,2.545 C5.8,2 7.2,2 10,2 L14,2 C16.8,2 18.2,2 19.27,2.545 C20.211,3.024 20.976,3.789 21.455,4.73 Z M12.8,6.573 C12.328,6.873 11.672,6.873 11.2,6.573 C10.363,6.042 9.011,5.54 7.844,6.73 C5.074,9.556 9.825,15 12,15 C14.175,15 18.926,9.556 16.156,6.73 C14.989,5.54 13.637,6.042 12.8,6.573 Z"/>
</svg>

