<svg width="24" height="24" viewBox="0 0 24 24" fill="none" xmlns="http://www.w3.org/2000/svg">
<path fill-rule="evenodd" clip-rule="evenodd" d="M3.61161 4.60375C3 5.72383 3 7.20982 3 10.1818V13.2949C3 13.3587 3 13.3906 3.00029 13.4176C3.02964 16.1368 5.22683 18.334 7.94604 18.3633C7.97302 18.3636 8.00491 18.3636 8.0687 18.3636L8.08008 18.3637C8.34808 18.3651 8.60427 18.4741 8.79119 18.6662L8.79909 18.6744L9.11805 19.0058C10.4721 20.4126 11.1491 21.1159 12 21.1159C12.8509 21.1159 13.5279 20.4126 14.8819 19.0058L15.2009 18.6744L15.2088 18.6662C15.3957 18.4741 15.6519 18.3651 15.9199 18.3637L15.9313 18.3636C15.9951 18.3636 16.027 18.3636 16.054 18.3633C18.7732 18.334 20.9704 16.1368 20.9997 13.4176C21 13.3906 21 13.3587 21 13.2949V10.1818C21 7.20982 21 5.72383 20.3884 4.60375C19.929 3.76248 19.2375 3.07098 18.3962 2.61161C17.2762 2 15.7902 2 12.8182 2H11.1818C8.20982 2 6.72383 2 5.60375 2.61161C4.76248 3.07098 4.07098 3.76248 3.61161 4.60375ZM12.8003 6.57296C13.6372 6.04213 14.9886 5.54016 16.1557 6.73036C18.9262 9.55568 14.1751 15 12 15C9.82494 15 5.07376 9.55568 7.84426 6.73036C9.01136 5.54017 10.3628 6.04213 11.1996 6.57297C11.6725 6.87291 12.3275 6.87291 12.8003 6.57296Z" fill="#2D264B"/>
</svg>
