<svg xmlns="http://www.w3.org/2000/svg" width="24" height="24" viewBox="0 0 24 24">
  <defs/>
  <path fill="#2D264B" d="M13,1.25 L11,1.25 L11,2.75 L13,2.75 L13,1.25 Z M2.25,10 L2.25,14.228 L3.75,14.228 L3.75,10 L2.25,10 Z M21.75,12.699 L21.75,10 L20.25,10 L20.25,12.699 L21.75,12.699 Z M6.772,18.75 L7.373,18.75 L7.373,17.25 L6.772,17.25 L6.772,18.75 Z M10.494,21.426 L13.105,19.561 L12.233,18.34 L9.623,20.205 L10.494,21.426 Z M13.105,19.561 C13.133,19.541 13.144,19.533 13.154,19.526 L12.29,18.3 C12.275,18.311 12.259,18.322 12.233,18.34 L13.105,19.561 Z M15.65,17.25 C15.609,17.25 15.585,17.25 15.566,17.25 L15.575,18.75 C15.588,18.75 15.606,18.75 15.65,18.75 L15.65,17.25 Z M13.154,19.526 C13.863,19.026 14.708,18.756 15.575,18.75 L15.566,17.25 C14.392,17.258 13.249,17.624 12.29,18.3 L13.154,19.526 Z M7.373,18.75 C7.622,18.75 7.792,19.001 7.7,19.232 L9.092,19.789 C9.579,18.573 8.683,17.25 7.373,17.25 L7.373,18.75 Z M7.7,19.232 C7.013,20.948 8.99,22.5 10.494,21.426 L9.623,20.205 C9.337,20.409 8.962,20.114 9.092,19.789 L7.7,19.232 Z M20.25,12.699 C20.25,12.987 20.25,13.105 20.245,13.201 L21.744,13.272 C21.75,13.132 21.75,12.97 21.75,12.699 L20.25,12.699 Z M15.65,18.75 C15.953,18.75 16.131,18.75 16.272,18.744 L16.201,17.245 C16.105,17.25 15.972,17.25 15.65,17.25 L15.65,18.75 Z M20.245,13.201 C20.142,15.39 18.39,17.142 16.201,17.245 L16.272,18.744 C19.234,18.603 21.603,16.234 21.744,13.272 L20.245,13.201 Z M2.25,14.228 C2.25,16.726 4.274,18.75 6.772,18.75 L6.772,17.25 C5.103,17.25 3.75,15.897 3.75,14.228 L2.25,14.228 Z M11,1.25 C9.612,1.25 8.526,1.249 7.655,1.321 C6.775,1.393 6.048,1.541 5.39,1.877 L6.071,3.213 C6.482,3.004 6.99,2.88 7.777,2.816 C8.573,2.751 9.587,2.75 11,2.75 L11,1.25 Z M3.75,10 C3.75,8.587 3.751,7.573 3.816,6.777 C3.88,5.99 4.004,5.482 4.213,5.071 L2.877,4.39 C2.541,5.048 2.393,5.775 2.321,6.655 C2.249,7.526 2.25,8.612 2.25,10 L3.75,10 Z M5.39,1.877 C4.308,2.428 3.428,3.308 2.877,4.39 L4.213,5.071 C4.621,4.271 5.271,3.621 6.071,3.213 L5.39,1.877 Z M13,2.75 C14.412,2.75 15.427,2.751 16.223,2.816 C17.01,2.88 17.518,3.004 17.93,3.213 L18.61,1.877 C17.952,1.541 17.225,1.393 16.345,1.321 C15.474,1.249 14.388,1.25 13,1.25 L13,2.75 Z M21.75,10 C21.75,8.612 21.751,7.526 21.679,6.655 C21.608,5.775 21.459,5.048 21.123,4.39 L19.787,5.071 C19.996,5.482 20.12,5.99 20.184,6.777 C20.249,7.573 20.25,8.587 20.25,10 L21.75,10 Z M17.93,3.213 C18.729,3.621 19.379,4.271 19.787,5.071 L21.123,4.39 C20.572,3.308 19.692,2.428 18.61,1.877 L17.93,3.213 Z M13.202,7.206 C13.569,6.973 13.994,6.785 14.409,6.754 C14.786,6.727 15.197,6.824 15.62,7.255 L16.691,6.205 C15.947,5.447 15.099,5.2 14.299,5.258 C13.537,5.314 12.868,5.642 12.399,5.94 L13.202,7.206 Z M15.62,7.255 C16.131,7.776 16.307,8.413 16.235,9.141 C16.16,9.891 15.819,10.722 15.303,11.516 C14.791,12.306 14.135,13.013 13.494,13.515 C12.82,14.042 12.284,14.25 12,14.25 L12,15.75 C12.803,15.75 13.677,15.277 14.419,14.696 C15.194,14.089 15.961,13.258 16.561,12.333 C17.159,11.413 17.622,10.353 17.727,9.288 C17.835,8.2 17.566,7.097 16.691,6.205 L15.62,7.255 Z M12,14.25 C11.716,14.25 11.18,14.042 10.506,13.515 C9.865,13.013 9.209,12.306 8.697,11.516 C8.181,10.722 7.84,9.891 7.765,9.141 C7.693,8.413 7.869,7.776 8.38,7.255 L7.309,6.205 C6.434,7.097 6.165,8.2 6.273,9.288 C6.378,10.353 6.841,11.413 7.439,12.333 C8.039,13.258 8.806,14.089 9.581,14.696 C10.323,15.277 11.197,15.75 12,15.75 L12,14.25 Z M8.38,7.255 C8.803,6.824 9.214,6.727 9.591,6.754 C10.006,6.785 10.431,6.973 10.798,7.206 L11.601,5.94 C11.132,5.642 10.463,5.314 9.701,5.258 C8.901,5.2 8.053,5.447 7.309,6.205 L8.38,7.255 Z M12.399,5.94 C12.171,6.084 11.829,6.084 11.601,5.94 L10.798,7.206 C11.516,7.662 12.484,7.662 13.202,7.206 L12.399,5.94 Z"/>
</svg>

