<svg xmlns="http://www.w3.org/2000/svg" width="24" height="24" viewBox="0 0 24 24">
  <defs/>
  <path fill="#2D264B" d="M3.612,4.604 C4.071,3.762 4.762,3.071 5.604,2.612 C6.724,2 8.21,2 11.182,2 L12.818,2 C15.79,2 17.276,2 18.396,2.612 C19.237,3.071 19.929,3.762 20.388,4.604 C21,5.724 21,7.21 21,10.182 L21,13.295 C21,13.359 21,13.391 21,13.418 C20.97,16.137 18.773,18.334 16.054,18.363 C16.027,18.364 15.995,18.364 15.931,18.364 L15.92,18.364 C15.652,18.365 15.396,18.474 15.209,18.666 L15.201,18.674 L14.882,19.006 C13.528,20.413 12.851,21.116 12,21.116 C11.149,21.116 10.472,20.413 9.118,19.006 L8.799,18.674 L8.791,18.666 C8.604,18.474 8.348,18.365 8.08,18.364 L8.069,18.364 C8.005,18.364 7.973,18.364 7.946,18.363 C5.227,18.334 3.03,16.137 3,13.418 C3,13.391 3,13.359 3,13.295 L3,10.182 C3,7.21 3,5.724 3.612,4.604 Z M12.8,6.573 C12.328,6.873 11.672,6.873 11.2,6.573 C10.363,6.042 9.011,5.54 7.844,6.73 C5.074,9.556 9.825,15 12,15 C14.175,15 18.926,9.556 16.156,6.73 C14.989,5.54 13.637,6.042 12.8,6.573 Z"/>
</svg>

