<svg xmlns="http://www.w3.org/2000/svg" width="24" height="24" viewBox="0 0 24 24">
  <defs/>
  <path fill="#2D264B" d="M2.25,10 Q2.25,8.654 3.202,7.702 Q4.154,6.75 5.5,6.75 Q8.75,6.75 8.75,10 L8.75,18 Q8.75,21.25 5.5,21.25 Q2.25,21.25 2.25,18 Z M3.75,10 L3.75,18 Q3.75,19.75 5.5,19.75 Q6.225,19.75 6.737,19.237 Q7.25,18.725 7.25,18 L7.25,10 Q7.25,8.25 5.5,8.25 Q3.75,8.25 3.75,10 Z"/>
  <path fill="#2D264B" d="M10.937,4.297 Q11.581,3.25 12.81,3.25 Q13.821,3.25 14.48,4.017 Q15.138,4.785 14.984,5.784 L14.741,7.364 Q14.597,8.305 15.216,9.027 Q15.836,9.75 16.788,9.75 L17.478,9.75 Q19.799,9.75 21.019,11.724 Q22.239,13.699 21.201,15.774 L20.053,18.072 Q18.463,21.25 14.91,21.25 L12,21.25 Q10.032,21.25 8.641,19.859 Q7.25,18.467 7.25,16.5 L7.25,13.066 Q7.25,11.268 7.394,10.636 Q7.46,10.347 7.555,10.066 Q7.764,9.453 8.706,7.922 L8.706,7.921 L10.937,4.297 Z M12.214,5.083 L9.984,8.708 L9.984,8.708 Q9.13,10.095 8.976,10.549 Q8.905,10.756 8.856,10.97 Q8.75,11.437 8.75,13.066 L8.75,16.5 Q8.75,19.75 12,19.75 L14.91,19.75 Q17.536,19.75 18.711,17.401 L19.86,15.104 Q20.524,13.776 19.743,12.513 Q18.963,11.25 17.478,11.25 L16.788,11.25 Q15.147,11.25 14.078,10.004 Q13.009,8.758 13.259,7.136 L13.502,5.556 Q13.551,5.238 13.341,4.994 Q13.132,4.75 12.81,4.75 Q12.419,4.75 12.214,5.083 Z"/>
</svg>

