<svg xmlns="http://www.w3.org/2000/svg" width="24" height="24" viewBox="0 0 24 24">
  <defs/>
  <path fill="#2D264B" d="M11.182,2.75 L12.818,2.75 L12.818,1.25 L11.182,1.25 L11.182,2.75 Z M20.25,10.182 L20.25,13.295 L21.75,13.295 L21.75,10.182 L20.25,10.182 Z M3.75,13.295 L3.75,10.182 L2.25,10.182 L2.25,13.295 L3.75,13.295 Z M14.661,18.154 L14.342,18.486 L15.422,19.526 L15.741,19.195 L14.661,18.154 Z M9.658,18.486 L9.339,18.154 L8.259,19.195 L8.578,19.526 L9.658,18.486 Z M9.339,18.154 C9.336,18.151 9.332,18.147 9.329,18.143 L8.254,19.189 C8.254,19.189 8.254,19.189 8.255,19.19 C8.255,19.191 8.257,19.192 8.259,19.195 L9.339,18.154 Z M8.069,19.114 C8.072,19.114 8.073,19.114 8.075,19.114 C8.076,19.114 8.076,19.114 8.076,19.114 L8.084,17.614 C8.079,17.614 8.074,17.614 8.069,17.614 L8.069,19.114 Z M9.329,18.143 C9.002,17.807 8.553,17.616 8.084,17.614 L8.076,19.114 C8.143,19.114 8.207,19.141 8.254,19.189 L9.329,18.143 Z M15.931,17.614 C15.926,17.614 15.921,17.614 15.916,17.614 L15.924,19.114 C15.924,19.114 15.924,19.114 15.925,19.114 C15.927,19.114 15.928,19.114 15.931,19.114 L15.931,17.614 Z M15.741,19.195 C15.743,19.192 15.745,19.191 15.745,19.19 C15.746,19.189 15.746,19.189 15.746,19.189 L14.671,18.143 C14.668,18.147 14.664,18.151 14.661,18.154 L15.741,19.195 Z M15.916,17.614 C15.447,17.616 14.998,17.807 14.671,18.143 L15.746,19.189 C15.793,19.141 15.857,19.114 15.924,19.114 L15.916,17.614 Z M14.342,18.486 C13.65,19.205 13.183,19.688 12.787,20 C12.409,20.299 12.188,20.366 12,20.366 L12,21.866 C12.662,21.866 13.206,21.581 13.717,21.177 C14.212,20.786 14.76,20.214 15.422,19.526 L14.342,18.486 Z M8.578,19.526 C9.24,20.214 9.788,20.786 10.283,21.177 C10.794,21.581 11.338,21.866 12,21.866 L12,20.366 C11.812,20.366 11.591,20.299 11.213,20 C10.817,19.688 10.35,19.205 9.658,18.486 L8.578,19.526 Z M2.25,13.295 C2.25,13.357 2.25,13.394 2.25,13.426 L3.75,13.409 C3.75,13.388 3.75,13.361 3.75,13.295 L2.25,13.295 Z M8.069,17.614 C8.003,17.614 7.976,17.614 7.954,17.613 L7.938,19.113 C7.97,19.114 8.007,19.114 8.069,19.114 L8.069,17.614 Z M2.25,13.426 C2.284,16.553 4.811,19.08 7.938,19.113 L7.954,17.613 C5.643,17.588 3.775,15.721 3.75,13.409 L2.25,13.426 Z M20.25,13.295 C20.25,13.361 20.25,13.388 20.25,13.409 L21.75,13.426 C21.75,13.394 21.75,13.357 21.75,13.295 L20.25,13.295 Z M15.931,19.114 C15.993,19.114 16.03,19.114 16.062,19.113 L16.046,17.613 C16.024,17.614 15.997,17.614 15.931,17.614 L15.931,19.114 Z M20.25,13.409 C20.225,15.721 18.357,17.588 16.046,17.613 L16.062,19.113 C19.189,19.08 21.716,16.553 21.75,13.426 L20.25,13.409 Z M12.818,2.75 C14.317,2.75 15.394,2.751 16.237,2.824 C17.071,2.896 17.606,3.034 18.037,3.27 L18.756,1.953 C18.067,1.577 17.299,1.41 16.366,1.329 C15.444,1.249 14.291,1.25 12.818,1.25 L12.818,2.75 Z M21.75,10.182 C21.75,8.709 21.751,7.556 21.671,6.634 C21.59,5.701 21.423,4.933 21.047,4.244 L19.73,4.963 C19.966,5.394 20.104,5.929 20.176,6.763 C20.249,7.606 20.25,8.683 20.25,10.182 L21.75,10.182 Z M18.037,3.27 C18.752,3.66 19.34,4.248 19.73,4.963 L21.047,4.244 C20.518,3.277 19.723,2.482 18.756,1.953 L18.037,3.27 Z M11.182,1.25 C9.709,1.25 8.556,1.249 7.634,1.329 C6.701,1.41 5.933,1.577 5.244,1.953 L5.963,3.27 C6.394,3.034 6.929,2.896 7.763,2.824 C8.606,2.751 9.683,2.75 11.182,2.75 L11.182,1.25 Z M3.75,10.182 C3.75,8.683 3.751,7.606 3.824,6.763 C3.896,5.929 4.034,5.394 4.27,4.963 L2.953,4.244 C2.577,4.933 2.41,5.701 2.329,6.634 C2.249,7.556 2.25,8.709 2.25,10.182 L3.75,10.182 Z M5.244,1.953 C4.277,2.482 3.482,3.277 2.953,4.244 L4.27,4.963 C4.66,4.248 5.248,3.66 5.963,3.27 L5.244,1.953 Z M13.202,7.206 C13.569,6.973 13.994,6.785 14.409,6.754 C14.786,6.727 15.197,6.824 15.62,7.255 L16.691,6.205 C15.947,5.447 15.099,5.2 14.299,5.258 C13.537,5.314 12.868,5.642 12.399,5.94 L13.202,7.206 Z M15.62,7.255 C16.131,7.776 16.307,8.413 16.235,9.141 C16.16,9.891 15.819,10.722 15.303,11.516 C14.791,12.306 14.135,13.013 13.494,13.515 C12.82,14.042 12.284,14.25 12,14.25 L12,15.75 C12.803,15.75 13.677,15.277 14.419,14.696 C15.194,14.089 15.961,13.258 16.561,12.333 C17.159,11.413 17.622,10.353 17.727,9.288 C17.835,8.2 17.566,7.097 16.691,6.205 L15.62,7.255 Z M12,14.25 C11.716,14.25 11.18,14.042 10.506,13.515 C9.865,13.013 9.209,12.306 8.697,11.516 C8.181,10.722 7.84,9.891 7.765,9.141 C7.693,8.413 7.869,7.776 8.38,7.255 L7.309,6.205 C6.434,7.097 6.165,8.2 6.273,9.288 C6.378,10.353 6.841,11.413 7.439,12.333 C8.039,13.258 8.806,14.089 9.581,14.696 C10.323,15.277 11.197,15.75 12,15.75 L12,14.25 Z M8.38,7.255 C8.803,6.824 9.214,6.727 9.591,6.754 C10.006,6.785 10.431,6.973 10.798,7.206 L11.601,5.94 C11.132,5.642 10.463,5.314 9.701,5.258 C8.901,5.2 8.053,5.447 7.309,6.205 L8.38,7.255 Z M12.399,5.94 C12.171,6.084 11.829,6.084 11.601,5.94 L10.798,7.206 C11.516,7.662 12.484,7.662 13.202,7.206 L12.399,5.94 Z"/>
</svg>

