<svg xmlns="http://www.w3.org/2000/svg" width="24" height="24" viewBox="0 0 24 24">
  <defs/>
  <path fill="#2D264B" d="M8,17.75 C8.414,17.75 8.75,17.414 8.75,17 C8.75,16.586 8.414,16.25 8,16.25 L8,17.75 Z M16,16.25 C15.586,16.25 15.25,16.586 15.25,17 C15.25,17.414 15.586,17.75 16,17.75 L16,16.25 Z M16,6.25 C15.586,6.25 15.25,6.586 15.25,7 C15.25,7.414 15.586,7.75 16,7.75 L16,6.25 Z M8,7.75 C8.414,7.75 8.75,7.414 8.75,7 C8.75,6.586 8.414,6.25 8,6.25 L8,7.75 Z M8,11.25 C7.586,11.25 7.25,11.586 7.25,12 C7.25,12.414 7.586,12.75 8,12.75 L8,11.25 Z M16,12.75 C16.414,12.75 16.75,12.414 16.75,12 C16.75,11.586 16.414,11.25 16,11.25 L16,12.75 Z M8,16.25 C5.653,16.25 3.75,14.347 3.75,12 L2.25,12 C2.25,15.176 4.824,17.75 8,17.75 L8,16.25 Z M20.25,12 C20.25,14.347 18.347,16.25 16,16.25 L16,17.75 C19.176,17.75 21.75,15.176 21.75,12 L20.25,12 Z M16,7.75 C18.347,7.75 20.25,9.653 20.25,12 L21.75,12 C21.75,8.824 19.176,6.25 16,6.25 L16,7.75 Z M8,6.25 C4.824,6.25 2.25,8.824 2.25,12 L3.75,12 C3.75,9.653 5.653,7.75 8,7.75 L8,6.25 Z M8,12.75 L16,12.75 L16,11.25 L8,11.25 L8,12.75 Z"/>
</svg>

