<svg xmlns="http://www.w3.org/2000/svg" width="24" height="24" viewBox="0 0 24 24">
  <defs/>
  <path fill="#2D264B" d="M20.75,9.609 Q20.75,13.304 15.371,20.163 Q13.338,22.756 12,22.756 Q10.662,22.756 8.629,20.163 Q3.25,13.304 3.25,9.609 Q3.25,5.748 5.794,3.011 Q8.359,0.25 12,0.25 Q15.641,0.25 18.206,3.011 Q20.75,5.748 20.75,9.609 Z M19.25,9.609 Q19.25,6.338 17.107,4.032 Q14.987,1.75 12,1.75 Q9.013,1.75 6.893,4.032 Q4.75,6.338 4.75,9.609 Q4.75,12.786 9.809,19.238 Q11.392,21.256 12,21.256 Q12.608,21.256 14.191,19.238 Q19.25,12.786 19.25,9.609 Z M15.584,8.471 L13.562,10.98 Q12.136,12.75 11.25,12.75 Q10.364,12.75 8.938,10.98 L8.938,10.979 L8.416,10.332 Q8.221,10.09 8.254,9.781 Q8.288,9.472 8.529,9.278 Q8.771,9.083 9.08,9.116 Q9.389,9.149 9.584,9.391 L10.105,10.038 L10.106,10.039 Q11.082,11.25 11.25,11.25 Q11.418,11.25 12.394,10.039 L12.394,10.038 L14.416,7.529 Q14.611,7.288 14.92,7.254 Q15.229,7.221 15.471,7.416 Q15.712,7.611 15.746,7.92 Q15.779,8.229 15.584,8.471 Z"/>
</svg>

