<svg xmlns="http://www.w3.org/2000/svg" width="24" height="24" viewBox="0 0 24 24">
  <defs/>
  <path fill="#2D264B" d="M10.53,7.47 C10.237,7.177 9.763,7.177 9.47,7.47 C9.177,7.763 9.177,8.237 9.47,8.53 L10.53,7.47 Z M13.712,12.773 C14.005,13.066 14.48,13.066 14.773,12.773 C15.066,12.48 15.066,12.005 14.773,11.712 L13.712,12.773 Z M9.47,11.712 C9.177,12.005 9.177,12.48 9.47,12.773 C9.763,13.066 10.237,13.066 10.53,12.773 L9.47,11.712 Z M14.773,8.53 C15.066,8.237 15.066,7.763 14.773,7.47 C14.48,7.177 14.005,7.177 13.712,7.47 L14.773,8.53 Z M19.25,9.609 C19.25,10.835 18.61,12.476 17.604,14.256 C16.614,16.006 15.334,17.779 14.191,19.238 L15.371,20.163 C16.537,18.676 17.867,16.837 18.909,14.995 C19.935,13.181 20.75,11.249 20.75,9.609 L19.25,9.609 Z M9.809,19.238 C8.666,17.779 7.386,16.006 6.396,14.256 C5.39,12.476 4.75,10.835 4.75,9.609 L3.25,9.609 C3.25,11.249 4.065,13.181 5.091,14.995 C6.133,16.837 7.463,18.676 8.629,20.163 L9.809,19.238 Z M4.75,9.609 C4.75,5.216 8.047,1.75 12,1.75 L12,0.25 C7.117,0.25 3.25,4.493 3.25,9.609 L4.75,9.609 Z M12,1.75 C15.953,1.75 19.25,5.216 19.25,9.609 L20.75,9.609 C20.75,4.493 16.883,0.25 12,0.25 L12,1.75 Z M14.191,19.238 C13.572,20.027 13.164,20.543 12.799,20.874 C12.466,21.176 12.244,21.256 12,21.256 L12,22.756 C12.729,22.756 13.295,22.45 13.808,21.984 C14.289,21.548 14.785,20.911 15.371,20.163 L14.191,19.238 Z M8.629,20.163 C9.215,20.911 9.711,21.548 10.192,21.984 C10.705,22.45 11.271,22.756 12,22.756 L12,21.256 C11.756,21.256 11.534,21.176 11.201,20.874 C10.836,20.543 10.428,20.027 9.809,19.238 L8.629,20.163 Z M9.47,8.53 L11.591,10.652 L12.652,9.591 L10.53,7.47 L9.47,8.53 Z M11.591,10.652 L13.712,12.773 L14.773,11.712 L12.652,9.591 L11.591,10.652 Z M10.53,12.773 L12.652,10.652 L11.591,9.591 L9.47,11.712 L10.53,12.773 Z M12.652,10.652 L14.773,8.53 L13.712,7.47 L11.591,9.591 L12.652,10.652 Z"/>
</svg>

