<svg xmlns="http://www.w3.org/2000/svg" width="24" height="24" viewBox="0 0 24 24">
  <defs/>
  <path fill="#2D264B" d="M14.781,19.701 C13.576,21.237 12.973,22.006 12,22.006 C11.027,22.006 10.424,21.237 9.219,19.701 C6.909,16.755 4,12.476 4,9.609 C4,4.854 7.582,1 12,1 C16.418,1 20,4.854 20,9.609 C20,12.476 17.09,16.755 14.781,19.701 Z M10.53,7.47 C10.237,7.177 9.763,7.177 9.47,7.47 C9.177,7.763 9.177,8.237 9.47,8.53 L11.061,10.121 L9.47,11.712 C9.177,12.005 9.177,12.48 9.47,12.773 C9.763,13.066 10.237,13.066 10.53,12.773 L12.121,11.182 L13.712,12.773 C14.005,13.066 14.48,13.066 14.773,12.773 C15.066,12.48 15.066,12.005 14.773,11.712 L13.182,10.121 L14.773,8.53 C15.066,8.237 15.066,7.763 14.773,7.47 C14.48,7.177 14.005,7.177 13.712,7.47 L12.121,9.061 Z"/>
</svg>

