<svg width="24" height="24" viewBox="0 0 24 24" fill="none" xmlns="http://www.w3.org/2000/svg">
<path fill-rule="evenodd" clip-rule="evenodd" d="M14.7808 19.7005C17.0905 16.7551 20 12.4759 20 9.6087C20 4.85424 16.4183 1 12 1C7.58172 1 4 4.85424 4 9.6087C4 12.4759 6.90945 16.7551 9.21921 19.7005C10.4242 21.2371 11.0268 22.0055 12 22.0055C12.9732 22.0055 13.5758 21.2371 14.7808 19.7005ZM10.5303 7.46967C10.2374 7.17678 9.76256 7.17678 9.46967 7.46967C9.17678 7.76256 9.17678 8.23744 9.46967 8.53033L11.0607 10.1213L9.46967 11.7123C9.17678 12.0052 9.17678 12.4801 9.46967 12.773C9.76256 13.0659 10.2374 13.0659 10.5303 12.773L12.1213 11.182L13.7123 12.773C14.0052 13.0659 14.4801 13.0659 14.773 12.773C15.0659 12.4801 15.0659 12.0052 14.773 11.7123L13.182 10.1213L14.773 8.53033C15.0659 8.23744 15.0659 7.76256 14.773 7.46967C14.4801 7.17678 14.0052 7.17678 13.7123 7.46967L12.1213 9.06066L10.5303 7.46967Z" fill="#2D264B"/>
</svg>
