<svg xmlns="http://www.w3.org/2000/svg" width="24" height="24" viewBox="0 0 24 24">
  <defs/>
  <path fill="#2D264B" d="M14.781,19.701 C13.576,21.237 12.973,22.006 12,22.006 C11.027,22.006 10.424,21.237 9.219,19.701 C6.909,16.755 4,12.476 4,9.609 C4,4.854 7.582,1 12,1 C16.418,1 20,4.854 20,9.609 C20,12.476 17.09,16.755 14.781,19.701 Z M15.584,8.471 C15.844,8.148 15.793,7.676 15.471,7.416 C15.148,7.156 14.676,7.207 14.416,7.529 L12.394,10.038 C11.979,10.553 11.717,10.875 11.5,11.079 C11.397,11.175 11.332,11.217 11.294,11.236 C11.266,11.25 11.256,11.25 11.251,11.25 L11.249,11.25 C11.244,11.25 11.234,11.25 11.206,11.236 C11.168,11.217 11.103,11.175 11,11.079 C10.783,10.875 10.521,10.553 10.106,10.038 L9.584,9.391 C9.324,9.068 8.852,9.018 8.529,9.278 C8.207,9.537 8.156,10.01 8.416,10.332 L8.97,11.02 C9.343,11.482 9.671,11.89 9.977,12.175 C10.305,12.482 10.712,12.75 11.25,12.75 C11.788,12.75 12.195,12.482 12.523,12.175 C12.829,11.89 13.157,11.482 13.53,11.02 Z"/>
</svg>

