<svg width="24" height="24" viewBox="0 0 24 24" fill="none" xmlns="http://www.w3.org/2000/svg">
<path fill-rule="evenodd" clip-rule="evenodd" d="M14.7808 19.7005C17.0905 16.7551 20 12.4759 20 9.6087C20 4.85424 16.4183 1 12 1C7.58172 1 4 4.85424 4 9.6087C4 12.4759 6.90945 16.7551 9.21921 19.7005C10.4242 21.2371 11.0268 22.0055 12 22.0055C12.9732 22.0055 13.5758 21.2371 14.7808 19.7005ZM9 9.25C8.58579 9.25 8.25 9.58579 8.25 10C8.25 10.4142 8.58579 10.75 9 10.75H15C15.4142 10.75 15.75 10.4142 15.75 10C15.75 9.58579 15.4142 9.25 15 9.25H9Z" fill="#2D264B"/>
</svg>
