<svg xmlns="http://www.w3.org/2000/svg" width="24" height="24" viewBox="0 0 24 24">
  <defs/>
  <path fill="#2D264B" d="M14.781,19.701 C13.576,21.237 12.973,22.006 12,22.006 C11.027,22.006 10.424,21.237 9.219,19.701 C6.909,16.755 4,12.476 4,9.609 C4,4.854 7.582,1 12,1 C16.418,1 20,4.854 20,9.609 C20,12.476 17.09,16.755 14.781,19.701 Z M12.75,7 C12.75,6.586 12.414,6.25 12,6.25 C11.586,6.25 11.25,6.586 11.25,7 L11.25,9.25 L9,9.25 C8.586,9.25 8.25,9.586 8.25,10 C8.25,10.414 8.586,10.75 9,10.75 L11.25,10.75 L11.25,13 C11.25,13.414 11.586,13.75 12,13.75 C12.414,13.75 12.75,13.414 12.75,13 L12.75,10.75 L15,10.75 C15.414,10.75 15.75,10.414 15.75,10 C15.75,9.586 15.414,9.25 15,9.25 L12.75,9.25 Z"/>
</svg>

