<svg xmlns="http://www.w3.org/2000/svg" width="24" height="24" viewBox="0 0 24 24">
  <defs/>
  <path fill="#2D264B" d="M19.25,9.609 C19.25,10.835 18.61,12.476 17.604,14.256 C16.614,16.006 15.334,17.779 14.191,19.238 L15.371,20.163 C16.537,18.676 17.867,16.837 18.909,14.995 C19.935,13.181 20.75,11.249 20.75,9.609 L19.25,9.609 Z M9.809,19.238 C8.666,17.779 7.386,16.006 6.396,14.256 C5.39,12.476 4.75,10.835 4.75,9.609 L3.25,9.609 C3.25,11.249 4.065,13.181 5.091,14.995 C6.133,16.837 7.463,18.676 8.629,20.163 L9.809,19.238 Z M4.75,9.609 C4.75,5.216 8.047,1.75 12,1.75 L12,0.25 C7.117,0.25 3.25,4.493 3.25,9.609 L4.75,9.609 Z M12,1.75 C15.953,1.75 19.25,5.216 19.25,9.609 L20.75,9.609 C20.75,4.493 16.883,0.25 12,0.25 L12,1.75 Z M14.191,19.238 C13.572,20.027 13.164,20.543 12.799,20.874 C12.466,21.176 12.244,21.256 12,21.256 L12,22.756 C12.729,22.756 13.295,22.45 13.808,21.984 C14.289,21.548 14.785,20.911 15.371,20.163 L14.191,19.238 Z M8.629,20.163 C9.215,20.911 9.711,21.548 10.192,21.984 C10.705,22.45 11.271,22.756 12,22.756 L12,21.256 C11.756,21.256 11.534,21.176 11.201,20.874 C10.836,20.543 10.428,20.027 9.809,19.238 L8.629,20.163 Z M8.25,10 C8.25,12.071 9.929,13.75 12,13.75 L12,12.25 C10.757,12.25 9.75,11.243 9.75,10 L8.25,10 Z M12,13.75 C14.071,13.75 15.75,12.071 15.75,10 L14.25,10 C14.25,11.243 13.243,12.25 12,12.25 L12,13.75 Z M15.75,10 C15.75,7.929 14.071,6.25 12,6.25 L12,7.75 C13.243,7.75 14.25,8.757 14.25,10 L15.75,10 Z M12,6.25 C9.929,6.25 8.25,7.929 8.25,10 L9.75,10 C9.75,8.757 10.757,7.75 12,7.75 L12,6.25 Z"/>
</svg>

