<svg width="24" height="24" viewBox="0 0 24 24" fill="none" xmlns="http://www.w3.org/2000/svg">
<path fill-rule="evenodd" clip-rule="evenodd" d="M14.7808 19.7005C17.0905 16.7551 20 12.4759 20 9.6087C20 4.85424 16.4183 1 12 1C7.58172 1 4 4.85424 4 9.6087C4 12.4759 6.90945 16.7551 9.21921 19.7005C10.4242 21.2371 11.0268 22.0055 12 22.0055C12.9732 22.0055 13.5758 21.2371 14.7808 19.7005ZM15.584 8.47057C15.8439 8.14804 15.7931 7.67589 15.4706 7.416C15.148 7.15611 14.6759 7.20689 14.416 7.52943L12.3945 10.0382C11.9794 10.5533 11.7175 10.8755 11.4995 11.0791C11.3971 11.1747 11.3317 11.2173 11.2941 11.2361C11.2661 11.2501 11.2561 11.25 11.2507 11.25H11.2493C11.2439 11.25 11.2339 11.2501 11.2059 11.2361C11.1683 11.2173 11.1029 11.1747 11.0005 11.0791C10.7825 10.8755 10.5206 10.5533 10.1055 10.0382L9.584 9.391C9.32411 9.06846 8.85196 9.01768 8.52943 9.27757C8.20689 9.53746 8.15611 10.0096 8.416 10.3321L8.97007 11.0198C9.34258 11.4822 9.67123 11.8901 9.97665 12.1753C10.3046 12.4816 10.7123 12.75 11.25 12.75C11.7877 12.75 12.1954 12.4816 12.5234 12.1753C12.8288 11.8901 13.1574 11.4822 13.5299 11.0198L15.584 8.47057Z" fill="#2D264B"/>
</svg>
