<svg width="24" height="24" viewBox="0 0 24 24" fill="none" xmlns="http://www.w3.org/2000/svg">
<path d="M10.75 15C10.75 14.3096 11.3096 13.75 12 13.75C12.6904 13.75 13.25 14.3096 13.25 15C13.25 15.6904 12.6904 16.25 12 16.25C11.3096 16.25 10.75 15.6904 10.75 15Z" fill="#2D264B"/>
<path fill-rule="evenodd" clip-rule="evenodd" d="M12 1.25C8.82436 1.25 6.25 3.82436 6.25 7V8.11372C6.25 8.18052 6.25873 8.24529 6.27512 8.30693C4.83903 8.83463 3.71966 9.99318 3.24472 11.4549C3 12.2081 3 13.1387 3 15C3 16.8613 3 17.7919 3.24472 18.5451C3.73931 20.0673 4.93273 21.2607 6.45492 21.7553C7.20808 22 8.13871 22 9.99998 22H14C15.8613 22 16.7919 22 17.5451 21.7553C19.0673 21.2607 20.2607 20.0673 20.7553 18.5451C21 17.7919 21 16.8613 21 15C21 13.1387 21 12.2081 20.7553 11.4549C20.2803 9.99318 19.161 8.83463 17.7249 8.30693C17.7413 8.24529 17.75 8.18052 17.75 8.11372V7C17.75 3.82436 15.1756 1.25 12 1.25ZM14 8C14.9653 8 15.6803 8 16.25 8.03413V7C16.25 4.65279 14.3472 2.75 12 2.75C9.65279 2.75 7.75 4.65279 7.75 7V8.03413C8.31973 8 9.03471 8 10 8H14ZM9.25 15C9.25 13.4812 10.4812 12.25 12 12.25C13.5188 12.25 14.75 13.4812 14.75 15C14.75 16.5188 13.5188 17.75 12 17.75C10.4812 17.75 9.25 16.5188 9.25 15Z" fill="#2D264B"/>
</svg>
