<svg xmlns="http://www.w3.org/2000/svg" width="24" height="24" viewBox="0 0 24 24">
  <defs/>
  <path fill="#2D264B" d="M12.75,13 C12.75,12.586 12.414,12.25 12,12.25 C11.586,12.25 11.25,12.586 11.25,13 L12.75,13 Z M11.25,17 C11.25,17.414 11.586,17.75 12,17.75 C12.414,17.75 12.75,17.414 12.75,17 L11.25,17 Z M10,8.75 L14,8.75 L14,7.25 L10,7.25 L10,8.75 Z M14,21.25 L10,21.25 L10,22.75 L14,22.75 L14,21.25 Z M10,21.25 C8.08,21.25 7.298,21.241 6.687,21.042 L6.223,22.469 C7.118,22.759 8.197,22.75 10,22.75 L10,21.25 Z M2.25,15 C2.25,16.803 2.241,17.882 2.531,18.777 L3.958,18.313 C3.759,17.702 3.75,16.92 3.75,15 L2.25,15 Z M6.687,21.042 C5.393,20.622 4.378,19.607 3.958,18.313 L2.531,18.777 C3.1,20.527 4.473,21.9 6.223,22.469 L6.687,21.042 Z M20.25,15 C20.25,16.92 20.241,17.702 20.042,18.313 L21.469,18.777 C21.759,17.882 21.75,16.803 21.75,15 L20.25,15 Z M14,22.75 C15.803,22.75 16.882,22.759 17.777,22.469 L17.313,21.042 C16.702,21.241 15.92,21.25 14,21.25 L14,22.75 Z M20.042,18.313 C19.622,19.607 18.607,20.622 17.313,21.042 L17.777,22.469 C19.527,21.9 20.9,20.527 21.469,18.777 L20.042,18.313 Z M21.75,15 C21.75,13.197 21.759,12.118 21.469,11.223 L20.042,11.687 C20.241,12.298 20.25,13.08 20.25,15 L21.75,15 Z M17.313,8.958 C18.607,9.378 19.622,10.393 20.042,11.687 L21.469,11.223 C20.9,9.473 19.527,8.1 17.777,7.531 L17.313,8.958 Z M3.75,15 C3.75,13.08 3.759,12.298 3.958,11.687 L2.531,11.223 C2.241,12.118 2.25,13.197 2.25,15 L3.75,15 Z M6.223,7.531 C4.473,8.1 3.1,9.473 2.531,11.223 L3.958,11.687 C4.378,10.393 5.393,9.378 6.687,8.958 L6.223,7.531 Z M16.25,7 L16.25,8 L17.75,8 L17.75,7 L16.25,7 Z M7.75,8 L7.75,7 L6.25,7 L6.25,8 L7.75,8 Z M12,2.75 C14.347,2.75 16.25,4.653 16.25,7 L17.75,7 C17.75,3.824 15.176,1.25 12,1.25 L12,2.75 Z M12,1.25 C8.824,1.25 6.25,3.824 6.25,7 L7.75,7 C7.75,4.653 9.653,2.75 12,2.75 L12,1.25 Z M11.25,13 L11.25,17 L12.75,17 L12.75,13 L11.25,13 Z M10,7.25 C8.589,7.25 7.628,7.247 6.875,7.374 L7.125,8.853 C7.722,8.753 8.528,8.75 10,8.75 L10,7.25 Z M6.875,7.374 C6.648,7.412 6.433,7.463 6.223,7.531 L6.687,8.958 C6.817,8.916 6.959,8.881 7.125,8.853 L6.875,7.374 Z M6.25,8 L6.25,8.114 L7.75,8.114 L7.75,8 L6.25,8 Z M14,8.75 C15.472,8.75 16.278,8.753 16.875,8.853 L17.125,7.374 C16.372,7.247 15.412,7.25 14,7.25 L14,8.75 Z M16.875,8.853 C17.041,8.881 17.183,8.916 17.313,8.958 L17.777,7.531 C17.567,7.463 17.352,7.412 17.125,7.374 L16.875,8.853 Z M16.25,8 L16.25,8.114 L17.75,8.114 L17.75,8 L16.25,8 Z"/>
</svg>

