<svg width="24" height="24" viewBox="0 0 24 24" fill="none" xmlns="http://www.w3.org/2000/svg">
<path fill-rule="evenodd" clip-rule="evenodd" d="M6.25 7C6.25 3.82436 8.82436 1.25 12 1.25C15.1756 1.25 17.75 3.82436 17.75 7V8.11372C17.75 8.18052 17.7413 8.24529 17.7249 8.30693C19.161 8.83463 20.2803 9.99318 20.7553 11.4549C21 12.2081 21 13.1387 21 15C21 16.8613 21 17.7919 20.7553 18.5451C20.2607 20.0673 19.0673 21.2607 17.5451 21.7553C16.7919 22 15.8613 22 14 22H9.99998C8.13871 22 7.20808 22 6.45492 21.7553C4.93273 21.2607 3.73931 20.0673 3.24472 18.5451C3 17.7919 3 16.8613 3 15C3 13.1387 3 12.2081 3.24472 11.4549C3.71966 9.99318 4.83903 8.83463 6.27512 8.30693C6.25873 8.24529 6.25 8.18052 6.25 8.11372V7ZM7.75 8.03413C8.31973 8 9.03471 8 10 8H14C14.9653 8 15.6803 8 16.25 8.03413V7C16.25 4.65279 14.3472 2.75 12 2.75C9.65279 2.75 7.75 4.65279 7.75 7V8.03413ZM12 12.25C12.4142 12.25 12.75 12.5858 12.75 13V17C12.75 17.4142 12.4142 17.75 12 17.75C11.5858 17.75 11.25 17.4142 11.25 17V13C11.25 12.5858 11.5858 12.25 12 12.25Z" fill="#2D264B"/>
</svg>
