<svg xmlns="http://www.w3.org/2000/svg" width="24" height="24" viewBox="0 0 24 24">
  <defs/>
  <path fill="#2D264B" d="M6.25,7 C6.25,3.824 8.824,1.25 12,1.25 C15.176,1.25 17.75,3.824 17.75,7 L17.75,8.114 C17.75,8.181 17.741,8.245 17.725,8.307 C19.161,8.835 20.28,9.993 20.755,11.455 C21,12.208 21,13.139 21,15 C21,16.861 21,17.792 20.755,18.545 C20.261,20.067 19.067,21.261 17.545,21.755 C16.792,22 15.861,22 14,22 L10,22 C8.139,22 7.208,22 6.455,21.755 C4.933,21.261 3.739,20.067 3.245,18.545 C3,17.792 3,16.861 3,15 C3,13.139 3,12.208 3.245,11.455 C3.72,9.993 4.839,8.835 6.275,8.307 C6.259,8.245 6.25,8.181 6.25,8.114 Z M7.75,8.034 C8.32,8 9.035,8 10,8 L14,8 C14.965,8 15.68,8 16.25,8.034 L16.25,7 C16.25,4.653 14.347,2.75 12,2.75 C9.653,2.75 7.75,4.653 7.75,7 Z M12,12.25 C11.586,12.25 11.25,12.586 11.25,13 L11.25,17 C11.25,17.414 11.586,17.75 12,17.75 C12.414,17.75 12.75,17.414 12.75,17 L12.75,13 C12.75,12.586 12.414,12.25 12,12.25 Z"/>
</svg>

