<svg width="24" height="24" viewBox="0 0 24 24" fill="none" xmlns="http://www.w3.org/2000/svg">
<path fill-rule="evenodd" clip-rule="evenodd" d="M13.466 7.41232C13.1414 7.15497 12.6697 7.20946 12.4123 7.53403C12.155 7.8586 12.2095 8.33034 12.534 8.58768L14.297 9.98553C15.001 10.5437 15.483 10.9273 15.8105 11.25H9V9C9 8.07099 9 7.60649 9.06156 7.21783C9.40042 5.07837 11.0784 3.40042 13.2178 3.06156C13.6065 3 14.071 3 15 3C15.929 3 16.3935 3 16.7822 3.06156C18.9216 3.40042 20.5996 5.07836 20.9384 7.21783C21 7.60649 21 8.07099 21 9V15C21 15.929 21 16.3935 20.9384 16.7822C20.5996 18.9216 18.9216 20.5996 16.7822 20.9384C16.3935 21 15.929 21 15 21C14.071 21 13.6065 21 13.2178 20.9384C11.0784 20.5996 9.40042 18.9216 9.06156 16.7822C9 16.3935 9 15.929 9 15V12.75H15.8105C15.483 13.0727 15.001 13.4563 14.297 14.0145L12.534 15.4123C12.2095 15.6697 12.155 16.1414 12.4123 16.466C12.6697 16.7905 13.1414 16.845 13.466 16.5877L15.2648 15.1614C15.9372 14.6282 16.4922 14.1883 16.8875 13.7945C17.2932 13.3904 17.6294 12.9418 17.7208 12.3687C17.7402 12.2466 17.75 12.1234 17.75 12C17.75 11.8766 17.7402 11.7534 17.7208 11.6313C17.6294 11.0582 17.2932 10.6096 16.8875 10.2055C16.4922 9.81172 15.9372 9.37175 15.2648 8.83857L13.466 7.41232ZM9 12.75L3 12.75C2.58579 12.75 2.25 12.4142 2.25 12C2.25 11.5858 2.58579 11.25 3 11.25L9 11.25V12.75Z" fill="#2D264B"/>
</svg>
