<svg xmlns="http://www.w3.org/2000/svg" width="24" height="24" viewBox="0 0 24 24">
  <defs/>
  <path fill="#2D264B" d="M9,12.75 L3,12.75 C2.586,12.75 2.25,12.414 2.25,12 C2.25,11.586 2.586,11.25 3,11.25 L9,11.25 L9,9 C9,8.071 9,7.606 9.062,7.218 C9.4,5.078 11.078,3.4 13.218,3.062 C13.606,3 14.071,3 15,3 C15.929,3 16.393,3 16.782,3.062 C18.922,3.4 20.6,5.078 20.938,7.218 C21,7.606 21,8.071 21,9 L21,15 C21,15.929 21,16.393 20.938,16.782 C20.6,18.922 18.922,20.6 16.782,20.938 C16.393,21 15.929,21 15,21 C14.071,21 13.606,21 13.218,20.938 C11.078,20.6 9.4,18.922 9.062,16.782 C9,16.393 9,15.929 9,15 Z M13.466,7.412 C13.141,7.155 12.67,7.209 12.412,7.534 C12.155,7.859 12.21,8.33 12.534,8.588 L14.297,9.986 C15.001,10.544 15.483,10.927 15.811,11.25 L9,11.25 L9,12.75 L15.811,12.75 C15.483,13.073 15.001,13.456 14.297,14.014 L12.534,15.412 C12.21,15.67 12.155,16.141 12.412,16.466 C12.67,16.791 13.141,16.845 13.466,16.588 L15.265,15.161 C15.937,14.628 16.492,14.188 16.888,13.795 C17.293,13.39 17.629,12.942 17.721,12.369 C17.74,12.247 17.75,12.123 17.75,12 C17.75,11.877 17.74,11.753 17.721,11.631 C17.629,11.058 17.293,10.61 16.888,10.205 C16.492,9.812 15.937,9.372 15.265,8.839 Z"/>
</svg>

