<svg xmlns="http://www.w3.org/2000/svg" width="24" height="24" viewBox="0 0 24 24">
  <defs/>
  <path fill="#2D264B" d="M10.55,3.4 C10.218,3.649 10.152,4.119 10.4,4.45 C10.649,4.781 11.119,4.848 11.45,4.599 L10.55,3.4 Z M11.45,19.401 C11.119,19.152 10.649,19.219 10.4,19.55 C10.152,19.881 10.218,20.351 10.55,20.6 L11.45,19.401 Z M3,11.25 C2.586,11.25 2.25,11.586 2.25,12 C2.25,12.414 2.586,12.75 3,12.75 L3,11.25 Z M12.534,15.412 C12.21,15.67 12.155,16.141 12.412,16.466 C12.67,16.791 13.141,16.845 13.466,16.588 L12.534,15.412 Z M13.466,7.412 C13.141,7.155 12.67,7.209 12.412,7.534 C12.155,7.859 12.21,8.33 12.534,8.588 L13.466,7.412 Z M14,3.75 L15,3.75 L15,2.25 L14,2.25 L14,3.75 Z M20.25,9 L20.25,15 L21.75,15 L21.75,9 L20.25,9 Z M15,20.25 L14,20.25 L14,21.75 L15,21.75 L15,20.25 Z M20.25,15 C20.25,15.958 20.248,16.349 20.198,16.665 L21.679,16.899 C21.752,16.438 21.75,15.9 21.75,15 L20.25,15 Z M15,21.75 C15.9,21.75 16.438,21.752 16.899,21.679 L16.665,20.198 C16.349,20.248 15.958,20.25 15,20.25 L15,21.75 Z M20.198,16.665 C19.91,18.483 18.483,19.91 16.665,20.198 L16.899,21.679 C19.36,21.29 21.29,19.36 21.679,16.899 L20.198,16.665 Z M15,3.75 C15.958,3.75 16.349,3.752 16.665,3.802 L16.899,2.321 C16.438,2.248 15.9,2.25 15,2.25 L15,3.75 Z M21.75,9 C21.75,8.1 21.752,7.562 21.679,7.101 L20.198,7.335 C20.248,7.651 20.25,8.042 20.25,9 L21.75,9 Z M16.665,3.802 C18.483,4.09 19.91,5.517 20.198,7.335 L21.679,7.101 C21.29,4.64 19.36,2.71 16.899,2.321 L16.665,3.802 Z M14,2.25 C12.706,2.25 11.511,2.678 10.55,3.4 L11.45,4.599 C12.161,4.066 13.042,3.75 14,3.75 L14,2.25 Z M14,20.25 C13.042,20.25 12.161,19.934 11.45,19.401 L10.55,20.6 C11.511,21.322 12.706,21.75 14,21.75 L14,20.25 Z M3,12.75 L16,12.75 L16,11.25 L3,11.25 L3,12.75 Z M13.466,16.588 L15.229,15.19 L14.297,14.014 L12.534,15.412 L13.466,16.588 Z M15.229,8.81 L13.466,7.412 L12.534,8.588 L14.297,9.986 L15.229,8.81 Z M15.229,15.19 C15.918,14.644 16.485,14.195 16.887,13.794 C17.293,13.39 17.629,12.942 17.721,12.369 L16.239,12.133 C16.223,12.239 16.153,12.409 15.829,12.732 C15.501,13.058 15.014,13.446 14.297,14.014 L15.229,15.19 Z M14.297,9.986 C15.014,10.554 15.501,10.942 15.829,11.268 C16.153,11.591 16.223,11.761 16.239,11.867 L17.721,11.631 C17.629,11.058 17.293,10.61 16.887,10.206 C16.485,9.805 15.918,9.356 15.229,8.81 L14.297,9.986 Z M17.721,12.369 C17.74,12.247 17.75,12.123 17.75,12 L16.25,12 C16.25,12.044 16.247,12.088 16.239,12.133 L17.721,12.369 Z M17.75,12 C17.75,11.877 17.74,11.753 17.721,11.631 L16.239,11.867 C16.247,11.912 16.25,11.956 16.25,12 L17.75,12 Z M16,12.75 L17,12.75 L17,11.25 L16,11.25 L16,12.75 Z"/>
</svg>

