<svg width="24" height="24" viewBox="0 0 24 24" fill="none" xmlns="http://www.w3.org/2000/svg">
<path fill-rule="evenodd" clip-rule="evenodd" d="M7 11.25C6.58579 11.25 6.25 11.5858 6.25 12C6.25 12.4142 6.58579 12.75 7 12.75L15 12.75L15 15C15 15.929 15 16.3935 14.9384 16.7822C14.5996 18.9216 12.9216 20.5996 10.7822 20.9384C10.3935 21 9.929 21 9 21C8.07099 21 7.60649 21 7.21783 20.9384C5.07836 20.5996 3.40041 18.9216 3.06156 16.7822C3 16.3935 3 15.929 3 15L3 9C3 8.07099 3 7.60649 3.06156 7.21783C3.40042 5.07836 5.07837 3.40042 7.21783 3.06156C7.60649 3 8.07099 3 9 3C9.92901 3 10.3935 3 10.7822 3.06156C12.9216 3.40042 14.5996 5.07836 14.9384 7.21783C15 7.60649 15 8.07099 15 9L15 11.25L7 11.25ZM15 11.25L19.8105 11.25C19.483 10.9273 19.001 10.5437 18.297 9.98553L16.534 8.58768C16.2095 8.33034 16.155 7.8586 16.4123 7.53403C16.6697 7.20946 17.1414 7.15497 17.466 7.41232L19.2648 8.83857C19.9372 9.37175 20.4922 9.81172 20.8875 10.2055C21.2932 10.6096 21.6294 11.0582 21.7208 11.6313C21.7402 11.7534 21.75 11.8766 21.75 12C21.75 12.1234 21.7402 12.2466 21.7208 12.3687C21.6294 12.9418 21.2932 13.3904 20.8875 13.7945C20.4922 14.1883 19.9373 14.6282 19.2648 15.1614L17.466 16.5877C17.1414 16.845 16.6697 16.7905 16.4123 16.466C16.155 16.1414 16.2095 15.6697 16.534 15.4123L18.297 14.0145C19.001 13.4563 19.483 13.0727 19.8105 12.75L15 12.75L15 11.25Z" fill="#2D264B"/>
</svg>
