<svg xmlns="http://www.w3.org/2000/svg" width="24" height="24" viewBox="0 0 24 24">
  <defs/>
  <path fill="#2D264B" d="M13.45,20.6 C13.782,20.351 13.848,19.881 13.6,19.55 C13.351,19.219 12.881,19.152 12.55,19.401 L13.45,20.6 Z M12.55,4.599 C12.881,4.848 13.351,4.781 13.6,4.45 C13.848,4.119 13.782,3.649 13.45,3.4 L12.55,4.599 Z M7,11.25 C6.586,11.25 6.25,11.586 6.25,12 C6.25,12.414 6.586,12.75 7,12.75 L7,11.25 Z M17.466,7.412 C17.141,7.155 16.67,7.209 16.412,7.534 C16.155,7.859 16.209,8.33 16.534,8.588 L17.466,7.412 Z M16.534,15.412 C16.209,15.67 16.155,16.141 16.412,16.466 C16.67,16.791 17.141,16.845 17.466,16.588 L16.534,15.412 Z M10,20.25 L9,20.25 L9,21.75 L10,21.75 L10,20.25 Z M3.75,15 L3.75,9 L2.25,9 L2.25,15 L3.75,15 Z M9,3.75 L10,3.75 L10,2.25 L9,2.25 L9,3.75 Z M3.75,9 C3.75,8.042 3.752,7.651 3.802,7.335 L2.321,7.101 C2.248,7.562 2.25,8.1 2.25,9 L3.75,9 Z M9,2.25 C8.1,2.25 7.562,2.248 7.101,2.321 L7.335,3.802 C7.651,3.752 8.042,3.75 9,3.75 L9,2.25 Z M3.802,7.335 C4.09,5.517 5.517,4.09 7.335,3.802 L7.101,2.321 C4.64,2.71 2.71,4.64 2.321,7.101 L3.802,7.335 Z M9,20.25 C8.042,20.25 7.651,20.248 7.335,20.198 L7.101,21.679 C7.562,21.752 8.1,21.75 9,21.75 L9,20.25 Z M2.25,15 C2.25,15.9 2.248,16.438 2.321,16.899 L3.802,16.665 C3.752,16.349 3.75,15.958 3.75,15 L2.25,15 Z M7.335,20.198 C5.517,19.91 4.09,18.483 3.802,16.665 L2.321,16.899 C2.71,19.36 4.64,21.29 7.101,21.679 L7.335,20.198 Z M10,21.75 C11.294,21.75 12.489,21.322 13.45,20.6 L12.55,19.401 C11.839,19.934 10.958,20.25 10,20.25 L10,21.75 Z M10,3.75 C10.958,3.75 11.839,4.066 12.55,4.599 L13.45,3.4 C12.489,2.678 11.294,2.25 10,2.25 L10,3.75 Z M7,12.75 L20,12.75 L20,11.25 L7,11.25 L7,12.75 Z M16.534,8.588 L18.297,9.986 L19.229,8.81 L17.466,7.412 L16.534,8.588 Z M18.297,14.014 L16.534,15.412 L17.466,16.588 L19.229,15.19 L18.297,14.014 Z M18.297,9.986 C19.014,10.554 19.501,10.942 19.829,11.268 C20.153,11.591 20.223,11.761 20.239,11.867 L21.721,11.631 C21.629,11.058 21.293,10.61 20.887,10.206 C20.485,9.805 19.918,9.356 19.229,8.81 L18.297,9.986 Z M19.229,15.19 C19.918,14.644 20.485,14.195 20.887,13.794 C21.293,13.39 21.629,12.942 21.721,12.369 L20.239,12.133 C20.223,12.239 20.153,12.409 19.829,12.732 C19.501,13.058 19.014,13.446 18.297,14.014 L19.229,15.19 Z M20.239,11.867 C20.247,11.912 20.25,11.956 20.25,12 L21.75,12 C21.75,11.877 21.74,11.753 21.721,11.631 L20.239,11.867 Z M20.25,12 C20.25,12.044 20.247,12.088 20.239,12.133 L21.721,12.369 C21.74,12.247 21.75,12.123 21.75,12 L20.25,12 Z M20,12.75 L21,12.75 L21,11.25 L20,11.25 L20,12.75 Z"/>
</svg>

