<svg xmlns="http://www.w3.org/2000/svg" width="24" height="24" viewBox="0 0 24 24">
  <defs/>
  <path fill="#2D264B" d="M15,11.25 L19.81,11.25 C19.483,10.927 19.001,10.544 18.297,9.986 L16.534,8.588 C16.209,8.33 16.155,7.859 16.412,7.534 C16.67,7.209 17.141,7.155 17.466,7.412 L19.265,8.839 C19.937,9.372 20.492,9.812 20.888,10.205 C21.293,10.61 21.629,11.058 21.721,11.631 C21.74,11.753 21.75,11.877 21.75,12 C21.75,12.123 21.74,12.247 21.721,12.369 C21.629,12.942 21.293,13.39 20.888,13.795 C20.492,14.188 19.937,14.628 19.265,15.161 L17.466,16.588 C17.141,16.845 16.67,16.791 16.412,16.466 C16.155,16.141 16.209,15.67 16.534,15.412 L18.297,14.014 C19.001,13.456 19.483,13.073 19.81,12.75 L15,12.75 L15,15 C15,15.929 15,16.393 14.938,16.782 C14.6,18.922 12.922,20.6 10.782,20.938 C10.394,21 9.929,21 9,21 C8.071,21 7.606,21 7.218,20.938 C5.078,20.6 3.4,18.922 3.062,16.782 C3,16.393 3,15.929 3,15 L3,9 C3,8.071 3,7.606 3.062,7.218 C3.4,5.078 5.078,3.4 7.218,3.062 C7.606,3 8.071,3 9,3 C9.929,3 10.394,3 10.782,3.062 C12.922,3.4 14.6,5.078 14.938,7.218 C15,7.606 15,8.071 15,9 Z M7,11.25 C6.586,11.25 6.25,11.586 6.25,12 C6.25,12.414 6.586,12.75 7,12.75 L15,12.75 L15,11.25 Z"/>
</svg>

