<svg xmlns="http://www.w3.org/2000/svg" width="24" height="24" viewBox="0 0 24 24">
  <defs/>
  <path fill="#2D264B" d="M8.25,3.299 C7.293,3.424 6.361,3.791 5.55,4.4 L3.35,6.05 C2.658,6.569 2.25,7.384 2.25,8.25 L2.25,16.879 C2.25,19.092 4.776,20.355 6.547,19.027 C7.062,18.641 7.646,18.391 8.25,18.279 L8.25,3.299 Z"/>
  <path fill="#2D264B" d="M9.75,18.279 C10.354,18.391 10.938,18.641 11.453,19.027 L11.55,19.1 C12.361,19.708 13.293,20.075 14.25,20.201 L14.25,5.221 C13.646,5.109 13.062,4.859 12.547,4.472 L12.45,4.4 C11.639,3.791 10.707,3.424 9.75,3.299 L9.75,18.279 Z"/>
  <path fill="#2D264B" d="M15.75,5.221 L15.75,20.201 C16.707,20.075 17.639,19.708 18.45,19.1 L20.65,17.45 C21.343,16.93 21.75,16.115 21.75,15.25 L21.75,6.621 C21.75,4.408 19.224,3.145 17.453,4.472 C16.938,4.859 16.354,5.109 15.75,5.221 Z"/>
</svg>

