<svg xmlns="http://www.w3.org/2000/svg" width="24" height="24" viewBox="0 0 24 24">
  <defs/>
  <path fill="#2D264B" d="M9,3.25 Q10.917,3.25 12.45,4.4 L12.547,4.473 Q13.637,5.29 15,5.29 Q16.363,5.29 17.453,4.473 Q18.781,3.477 20.266,4.219 Q21.75,4.961 21.75,6.621 L21.75,15.25 Q21.75,16.625 20.65,17.45 L18.45,19.1 Q16.917,20.25 15,20.25 Q13.083,20.25 11.55,19.1 L11.453,19.027 Q10.363,18.21 9,18.21 Q7.637,18.21 6.547,19.027 Q5.219,20.023 3.735,19.281 Q2.25,18.539 2.25,16.879 L2.25,8.25 Q2.25,6.875 3.35,6.05 L5.55,4.4 Q7.083,3.25 9,3.25 Z M9.75,4.813 L9.75,16.757 Q11.169,16.939 12.353,17.827 L12.45,17.9 Q13.275,18.519 14.25,18.687 L14.25,6.743 Q12.831,6.561 11.647,5.673 L11.55,5.6 Q10.725,4.981 9.75,4.813 Z M8.25,16.757 L8.25,4.813 Q7.275,4.981 6.45,5.6 L4.25,7.25 Q3.75,7.625 3.75,8.25 L3.75,16.879 Q3.75,17.612 4.405,17.939 Q5.061,18.267 5.647,17.827 Q6.831,16.939 8.25,16.757 Z M15.75,6.743 L15.75,18.687 Q16.725,18.519 17.55,17.9 L19.75,16.25 Q20.25,15.875 20.25,15.25 L20.25,6.621 Q20.25,5.888 19.595,5.561 Q18.939,5.233 18.353,5.673 Q17.169,6.561 15.75,6.743 Z"/>
</svg>

