<svg xmlns="http://www.w3.org/2000/svg" width="24" height="24" viewBox="0 0 24 24">
  <defs/>
  <path fill="#2D264B" d="M5,5.25 L19,5.25 Q19.311,5.25 19.53,5.47 Q19.75,5.689 19.75,6 Q19.75,6.311 19.53,6.53 Q19.311,6.75 19,6.75 L5,6.75 Q4.689,6.75 4.47,6.53 Q4.25,6.311 4.25,6 Q4.25,5.689 4.47,5.47 Q4.689,5.25 5,5.25 Z M5,17.25 L19,17.25 Q19.311,17.25 19.53,17.47 Q19.75,17.689 19.75,18 Q19.75,18.311 19.53,18.53 Q19.311,18.75 19,18.75 L5,18.75 Q4.689,18.75 4.47,18.53 Q4.25,18.311 4.25,18 Q4.25,17.689 4.47,17.47 Q4.689,17.25 5,17.25 Z M5,11.25 L11,11.25 Q11.311,11.25 11.53,11.47 Q11.75,11.689 11.75,12 Q11.75,12.311 11.53,12.53 Q11.311,12.75 11,12.75 L5,12.75 Q4.689,12.75 4.47,12.53 Q4.25,12.311 4.25,12 Q4.25,11.689 4.47,11.47 Q4.689,11.25 5,11.25 Z"/>
</svg>

