<svg width="24" height="24" viewBox="0 0 24 24" fill="none" xmlns="http://www.w3.org/2000/svg">
<path d="M7 5.25C6.58579 5.25 6.25 5.58579 6.25 6C6.25 6.41421 6.58579 6.75 7 6.75H21C21.4142 6.75 21.75 6.41421 21.75 6C21.75 5.58579 21.4142 5.25 21 5.25H7Z" fill="#2D264B"/>
<path d="M7 11.25C6.58579 11.25 6.25 11.5858 6.25 12C6.25 12.4142 6.58579 12.75 7 12.75H21C21.4142 12.75 21.75 12.4142 21.75 12C21.75 11.5858 21.4142 11.25 21 11.25H7Z" fill="#2D264B"/>
<path d="M7 17.25C6.58579 17.25 6.25 17.5858 6.25 18C6.25 18.4142 6.58579 18.75 7 18.75H21C21.4142 18.75 21.75 18.4142 21.75 18C21.75 17.5858 21.4142 17.25 21 17.25H7Z" fill="#2D264B"/>
<path d="M5 12C5 12.5523 4.55228 13 4 13C3.44772 13 3 12.5523 3 12C3 11.4477 3.44772 11 4 11C4.55228 11 5 11.4477 5 12Z" fill="#2D264B"/>
<path d="M5 6C5 6.55228 4.55228 7 4 7C3.44772 7 3 6.55228 3 6C3 5.44772 3.44772 5 4 5C4.55228 5 5 5.44772 5 6Z" fill="#2D264B"/>
<path d="M5 18C5 18.5523 4.55228 19 4 19C3.44772 19 3 18.5523 3 18C3 17.4477 3.44772 17 4 17C4.55228 17 5 17.4477 5 18Z" fill="#2D264B"/>
</svg>
