<svg xmlns="http://www.w3.org/2000/svg" width="24" height="24" viewBox="0 0 24 24">
  <defs/>
  <path fill="#2D264B" d="M7,5.25 C6.586,5.25 6.25,5.586 6.25,6 C6.25,6.414 6.586,6.75 7,6.75 L21,6.75 C21.414,6.75 21.75,6.414 21.75,6 C21.75,5.586 21.414,5.25 21,5.25 L7,5.25 Z"/>
  <path fill="#2D264B" d="M7,11.25 C6.586,11.25 6.25,11.586 6.25,12 C6.25,12.414 6.586,12.75 7,12.75 L21,12.75 C21.414,12.75 21.75,12.414 21.75,12 C21.75,11.586 21.414,11.25 21,11.25 L7,11.25 Z"/>
  <path fill="#2D264B" d="M7,17.25 C6.586,17.25 6.25,17.586 6.25,18 C6.25,18.414 6.586,18.75 7,18.75 L21,18.75 C21.414,18.75 21.75,18.414 21.75,18 C21.75,17.586 21.414,17.25 21,17.25 L7,17.25 Z"/>
  <path fill="#2D264B" d="M5,12 C5,12.552 4.552,13 4,13 C3.448,13 3,12.552 3,12 C3,11.448 3.448,11 4,11 C4.552,11 5,11.448 5,12 Z"/>
  <path fill="#2D264B" d="M5,6 C5,6.552 4.552,7 4,7 C3.448,7 3,6.552 3,6 C3,5.448 3.448,5 4,5 C4.552,5 5,5.448 5,6 Z"/>
  <path fill="#2D264B" d="M5,18 C5,18.552 4.552,19 4,19 C3.448,19 3,18.552 3,18 C3,17.448 3.448,17 4,17 C4.552,17 5,17.448 5,18 Z"/>
</svg>

