<svg xmlns="http://www.w3.org/2000/svg" width="24" height="24" viewBox="0 0 24 24">
  <defs/>
  <path fill="#2D264B" d="M5,5.25 C4.586,5.25 4.25,5.586 4.25,6 C4.25,6.414 4.586,6.75 5,6.75 L19,6.75 C19.414,6.75 19.75,6.414 19.75,6 C19.75,5.586 19.414,5.25 19,5.25 L5,5.25 Z"/>
  <path fill="#2D264B" d="M5,11.25 C4.586,11.25 4.25,11.586 4.25,12 C4.25,12.414 4.586,12.75 5,12.75 L11,12.75 C11.414,12.75 11.75,12.414 11.75,12 C11.75,11.586 11.414,11.25 11,11.25 L5,11.25 Z"/>
  <path fill="#2D264B" d="M5,17.25 C4.586,17.25 4.25,17.586 4.25,18 C4.25,18.414 4.586,18.75 5,18.75 L8,18.75 C8.414,18.75 8.75,18.414 8.75,18 C8.75,17.586 8.414,17.25 8,17.25 L5,17.25 Z"/>
</svg>

