<svg xmlns="http://www.w3.org/2000/svg" width="24" height="24" viewBox="0 0 24 24">
  <defs/>
  <path fill="#2D264B" d="M7,11.25 L21,11.25 Q21.311,11.25 21.53,11.47 Q21.75,11.689 21.75,12 Q21.75,12.311 21.53,12.53 Q21.311,12.75 21,12.75 L7,12.75 Q6.689,12.75 6.47,12.53 Q6.25,12.311 6.25,12 Q6.25,11.689 6.47,11.47 Q6.689,11.25 7,11.25 Z M7,5.25 L21,5.25 Q21.311,5.25 21.53,5.47 Q21.75,5.689 21.75,6 Q21.75,6.311 21.53,6.53 Q21.311,6.75 21,6.75 L7,6.75 Q6.689,6.75 6.47,6.53 Q6.25,6.311 6.25,6 Q6.25,5.689 6.47,5.47 Q6.689,5.25 7,5.25 Z M7,17.25 L21,17.25 Q21.311,17.25 21.53,17.47 Q21.75,17.689 21.75,18 Q21.75,18.311 21.53,18.53 Q21.311,18.75 21,18.75 L7,18.75 Q6.689,18.75 6.47,18.53 Q6.25,18.311 6.25,18 Q6.25,17.689 6.47,17.47 Q6.689,17.25 7,17.25 Z"/>
  <path fill="#2D264B" d="M5,12 C5,12.552 4.552,13 4,13 C3.448,13 3,12.552 3,12 C3,11.448 3.448,11 4,11 C4.552,11 5,11.448 5,12 Z"/>
  <path fill="#2D264B" d="M5,6 C5,6.552 4.552,7 4,7 C3.448,7 3,6.552 3,6 C3,5.448 3.448,5 4,5 C4.552,5 5,5.448 5,6 Z"/>
  <path fill="#2D264B" d="M5,18 C5,18.552 4.552,19 4,19 C3.448,19 3,18.552 3,18 C3,17.448 3.448,17 4,17 C4.552,17 5,17.448 5,18 Z"/>
</svg>

