<svg xmlns="http://www.w3.org/2000/svg" width="24" height="24" viewBox="0 0 24 24">
  <defs/>
  <path fill="#2D264B" d="M5,5.25 L19,5.25 Q19.311,5.25 19.53,5.47 Q19.75,5.689 19.75,6 Q19.75,6.311 19.53,6.53 Q19.311,6.75 19,6.75 L5,6.75 Q4.689,6.75 4.47,6.53 Q4.25,6.311 4.25,6 Q4.25,5.689 4.47,5.47 Q4.689,5.25 5,5.25 Z M8,11.25 L16,11.25 Q16.311,11.25 16.53,11.47 Q16.75,11.689 16.75,12 Q16.75,12.311 16.53,12.53 Q16.311,12.75 16,12.75 L8,12.75 Q7.689,12.75 7.47,12.53 Q7.25,12.311 7.25,12 Q7.25,11.689 7.47,11.47 Q7.689,11.25 8,11.25 Z M10,17.25 L14,17.25 Q14.311,17.25 14.53,17.47 Q14.75,17.689 14.75,18 Q14.75,18.311 14.53,18.53 Q14.311,18.75 14,18.75 L10,18.75 Q9.689,18.75 9.47,18.53 Q9.25,18.311 9.25,18 Q9.25,17.689 9.47,17.47 Q9.689,17.25 10,17.25 Z"/>
</svg>

