<svg xmlns="http://www.w3.org/2000/svg" width="24" height="24" viewBox="0 0 24 24">
  <defs/>
  <path fill="#2D264B" d="M5,14.25 L19,14.25 Q19.311,14.25 19.53,14.47 Q19.75,14.689 19.75,15 Q19.75,15.311 19.53,15.53 Q19.311,15.75 19,15.75 L5,15.75 Q4.689,15.75 4.47,15.53 Q4.25,15.311 4.25,15 Q4.25,14.689 4.47,14.47 Q4.689,14.25 5,14.25 Z M5,8.25 L19,8.25 Q19.311,8.25 19.53,8.47 Q19.75,8.689 19.75,9 Q19.75,9.311 19.53,9.53 Q19.311,9.75 19,9.75 L5,9.75 Q4.689,9.75 4.47,9.53 Q4.25,9.311 4.25,9 Q4.25,8.689 4.47,8.47 Q4.689,8.25 5,8.25 Z"/>
</svg>

