<svg width="24" height="24" viewBox="0 0 24 24" fill="none" xmlns="http://www.w3.org/2000/svg">
<path d="M9 5.25C8.58579 5.25 8.25 5.58579 8.25 6C8.25 6.41421 8.58579 6.75 9 6.75H15C15.4142 6.75 15.75 6.41421 15.75 6C15.75 5.58579 15.4142 5.25 15 5.25H9Z" fill="#2D264B"/>
<path d="M5 11.25C4.58579 11.25 4.25 11.5858 4.25 12C4.25 12.4142 4.58579 12.75 5 12.75H19C19.4142 12.75 19.75 12.4142 19.75 12C19.75 11.5858 19.4142 11.25 19 11.25H5Z" fill="#2D264B"/>
<path d="M9 17.25C8.58579 17.25 8.25 17.5858 8.25 18C8.25 18.4142 8.58579 18.75 9 18.75H15C15.4142 18.75 15.75 18.4142 15.75 18C15.75 17.5858 15.4142 17.25 15 17.25H9Z" fill="#2D264B"/>
</svg>
