<svg xmlns="http://www.w3.org/2000/svg" width="24" height="24" viewBox="0 0 24 24">
  <defs/>
  <path fill="#2D264B" d="M5,11.25 L19,11.25 Q19.311,11.25 19.53,11.47 Q19.75,11.689 19.75,12 Q19.75,12.311 19.53,12.53 Q19.311,12.75 19,12.75 L5,12.75 Q4.689,12.75 4.47,12.53 Q4.25,12.311 4.25,12 Q4.25,11.689 4.47,11.47 Q4.689,11.25 5,11.25 Z M9,5.25 L15,5.25 Q15.311,5.25 15.53,5.47 Q15.75,5.689 15.75,6 Q15.75,6.311 15.53,6.53 Q15.311,6.75 15,6.75 L9,6.75 Q8.689,6.75 8.47,6.53 Q8.25,6.311 8.25,6 Q8.25,5.689 8.47,5.47 Q8.689,5.25 9,5.25 Z M9,17.25 L15,17.25 Q15.311,17.25 15.53,17.47 Q15.75,17.689 15.75,18 Q15.75,18.311 15.53,18.53 Q15.311,18.75 15,18.75 L9,18.75 Q8.689,18.75 8.47,18.53 Q8.25,18.311 8.25,18 Q8.25,17.689 8.47,17.47 Q8.689,17.25 9,17.25 Z"/>
</svg>

