<svg xmlns="http://www.w3.org/2000/svg" width="24" height="24" viewBox="0 0 24 24">
  <defs/>
  <path fill="#2D264B" d="M6,12 C6,13.105 5.105,14 4,14 C2.895,14 2,13.105 2,12 C2,10.895 2.895,10 4,10 C5.105,10 6,10.895 6,12 Z"/>
  <path fill="#2D264B" d="M14,12 C14,13.105 13.105,14 12,14 C10.895,14 10,13.105 10,12 C10,10.895 10.895,10 12,10 C13.105,10 14,10.895 14,12 Z"/>
  <path fill="#2D264B" d="M22,12 C22,13.105 21.105,14 20,14 C18.895,14 18,13.105 18,12 C18,10.895 18.895,10 20,10 C21.105,10 22,10.895 22,12 Z"/>
  <path fill="#2D264B" d="M6,4 C6,5.105 5.105,6 4,6 C2.895,6 2,5.105 2,4 C2,2.895 2.895,2 4,2 C5.105,2 6,2.895 6,4 Z"/>
  <path fill="#2D264B" d="M14,4 C14,5.105 13.105,6 12,6 C10.895,6 10,5.105 10,4 C10,2.895 10.895,2 12,2 C13.105,2 14,2.895 14,4 Z"/>
  <path fill="#2D264B" d="M22,4 C22,5.105 21.105,6 20,6 C18.895,6 18,5.105 18,4 C18,2.895 18.895,2 20,2 C21.105,2 22,2.895 22,4 Z"/>
  <path fill="#2D264B" d="M6,20 C6,21.105 5.105,22 4,22 C2.895,22 2,21.105 2,20 C2,18.895 2.895,18 4,18 C5.105,18 6,18.895 6,20 Z"/>
  <path fill="#2D264B" d="M14,20 C14,21.105 13.105,22 12,22 C10.895,22 10,21.105 10,20 C10,18.895 10.895,18 12,18 C13.105,18 14,18.895 14,20 Z"/>
  <path fill="#2D264B" d="M22,20 C22,21.105 21.105,22 20,22 C18.895,22 18,21.105 18,20 C18,18.895 18.895,18 20,18 C21.105,18 22,18.895 22,20 Z"/>
</svg>

