<svg xmlns="http://www.w3.org/2000/svg" width="24" height="24" viewBox="0 0 24 24">
  <defs/>
  <path fill="#2D264B" d="M5,5.25 C4.586,5.25 4.25,5.586 4.25,6 C4.25,6.414 4.586,6.75 5,6.75 L19,6.75 C19.414,6.75 19.75,6.414 19.75,6 C19.75,5.586 19.414,5.25 19,5.25 L5,5.25 Z"/>
  <path fill="#2D264B" d="M8,11.25 C7.586,11.25 7.25,11.586 7.25,12 C7.25,12.414 7.586,12.75 8,12.75 L16,12.75 C16.414,12.75 16.75,12.414 16.75,12 C16.75,11.586 16.414,11.25 16,11.25 L8,11.25 Z"/>
  <path fill="#2D264B" d="M10,17.25 C9.586,17.25 9.25,17.586 9.25,18 C9.25,18.414 9.586,18.75 10,18.75 L14,18.75 C14.414,18.75 14.75,18.414 14.75,18 C14.75,17.586 14.414,17.25 14,17.25 L10,17.25 Z"/>
</svg>

