<svg xmlns="http://www.w3.org/2000/svg" width="24" height="24" viewBox="0 0 24 24">
  <defs/>
  <path fill="#2D264B" d="M9,5.25 C8.586,5.25 8.25,5.586 8.25,6 C8.25,6.414 8.586,6.75 9,6.75 L15,6.75 C15.414,6.75 15.75,6.414 15.75,6 C15.75,5.586 15.414,5.25 15,5.25 L9,5.25 Z"/>
  <path fill="#2D264B" d="M5,11.25 C4.586,11.25 4.25,11.586 4.25,12 C4.25,12.414 4.586,12.75 5,12.75 L19,12.75 C19.414,12.75 19.75,12.414 19.75,12 C19.75,11.586 19.414,11.25 19,11.25 L5,11.25 Z"/>
  <path fill="#2D264B" d="M9,17.25 C8.586,17.25 8.25,17.586 8.25,18 C8.25,18.414 8.586,18.75 9,18.75 L15,18.75 C15.414,18.75 15.75,18.414 15.75,18 C15.75,17.586 15.414,17.25 15,17.25 L9,17.25 Z"/>
</svg>

