<svg width="24" height="24" viewBox="0 0 24 24" fill="none" xmlns="http://www.w3.org/2000/svg">
<path fill-rule="evenodd" clip-rule="evenodd" d="M20.8931 7.32737C20.3768 7.74788 19.7178 8 19 8C17.3431 8 16 6.65685 16 5C16 4.28217 16.2521 3.62322 16.6726 3.10687C15.7812 3 14.6269 3 13 3H11C8.19974 3 6.79961 3 5.73005 3.54497C4.78924 4.02433 4.02433 4.78924 3.54497 5.73005C3 6.79961 3 8.19974 3 11V15.2283C3 17.3114 4.68863 19 6.77166 19H7.37341C8.15251 19 8.68525 19.7869 8.3959 20.5103C7.98743 21.5314 9.1635 22.4546 10.0585 21.8154L12.6692 19.9506L12.7222 19.9128C13.5562 19.3251 14.5501 19.0066 15.5703 19.0001L15.6504 19C15.9623 19 16.1183 19 16.2364 18.9944C18.812 18.8725 20.8725 16.812 20.9944 14.2364C21 14.1183 21 13.9785 21 13.6988V11C21 9.37311 21 8.21881 20.8931 7.32737ZM8 12C8.55228 12 9 11.5523 9 11C9 10.4477 8.55228 10 8 10C7.44772 10 7 10.4477 7 11C7 11.5523 7.44772 12 8 12ZM12 12C12.5523 12 13 11.5523 13 11C13 10.4477 12.5523 10 12 10C11.4477 10 11 10.4477 11 11C11 11.5523 11.4477 12 12 12ZM17 11C17 11.5523 16.5523 12 16 12C15.4477 12 15 11.5523 15 11C15 10.4477 15.4477 10 16 10C16.5523 10 17 10.4477 17 11Z" fill="#2D264B"/>
<path d="M21 5C21 6.10457 20.1046 7 19 7C17.8954 7 17 6.10457 17 5C17 3.89543 17.8954 3 19 3C20.1046 3 21 3.89543 21 5Z" fill="#2D264B"/>
</svg>
