<svg xmlns="http://www.w3.org/2000/svg" width="24" height="24" viewBox="0 0 24 24">
  <defs/>
  <path fill="#2D264B" d="M20.893,7.327 C21,8.219 21,9.373 21,11 L21,13.699 C21,13.979 21,14.118 20.994,14.236 C20.872,16.812 18.812,18.872 16.236,18.994 C16.118,19 15.962,19 15.65,19 L15.57,19 C14.55,19.007 13.556,19.325 12.722,19.913 L12.669,19.951 L10.059,21.815 C9.163,22.455 7.987,21.531 8.396,20.51 C8.685,19.787 8.153,19 7.373,19 L6.772,19 C4.689,19 3,17.311 3,15.228 L3,11 C3,8.2 3,6.8 3.545,5.73 C4.024,4.789 4.789,4.024 5.73,3.545 C6.8,3 8.2,3 11,3 L13,3 C14.627,3 15.781,3 16.673,3.107 C16.252,3.623 16,4.282 16,5 C16,6.657 17.343,8 19,8 C19.718,8 20.377,7.748 20.893,7.327 Z M12,12 C12.552,12 13,11.552 13,11 C13,10.448 12.552,10 12,10 C11.448,10 11,10.448 11,11 C11,11.552 11.448,12 12,12 Z M17,11 C17,10.448 16.552,10 16,10 C15.448,10 15,10.448 15,11 C15,11.552 15.448,12 16,12 C16.552,12 17,11.552 17,11 Z M8,12 C8.552,12 9,11.552 9,11 C9,10.448 8.552,10 8,10 C7.448,10 7,10.448 7,11 C7,11.552 7.448,12 8,12 Z"/>
  <path fill="#2D264B" d="M21,5 C21,6.105 20.105,7 19,7 C17.895,7 17,6.105 17,5 C17,3.895 17.895,3 19,3 C20.105,3 21,3.895 21,5 Z"/>
</svg>

