<svg xmlns="http://www.w3.org/2000/svg" width="24" height="24" viewBox="0 0 24 24">
  <defs/>
  <path fill="#2D264B" d="M21.157,15.46 C20.95,15.856 20.847,16.054 20.809,16.149 C20.648,16.554 20.624,16.76 20.69,17.19 C20.705,17.292 20.74,17.425 20.809,17.691 C21.016,18.491 21.12,18.891 21.109,19.183 C21.072,20.231 20.231,21.072 19.183,21.109 C18.891,21.12 18.491,21.016 17.691,20.809 C17.425,20.74 17.292,20.705 17.19,20.69 C16.759,20.624 16.547,20.649 16.143,20.812 C16.048,20.85 15.852,20.953 15.461,21.159 C11.656,23.166 7.204,21.346 4.929,19.071 C1.024,15.166 1.024,8.834 4.929,4.929 C8.834,1.024 15.166,1.024 19.071,4.929 C21.253,7.111 23.151,11.641 21.157,15.46 Z M15.858,12.858 C16.41,12.858 16.858,12.41 16.858,11.858 C16.858,11.306 16.41,10.858 15.858,10.858 C15.306,10.858 14.858,11.306 14.858,11.858 C14.858,12.41 15.306,12.858 15.858,12.858 Z M12.858,11.858 C12.858,11.306 12.41,10.858 11.858,10.858 C11.306,10.858 10.858,11.306 10.858,11.858 C10.858,12.41 11.306,12.858 11.858,12.858 C12.41,12.858 12.858,12.41 12.858,11.858 Z M8.858,11.858 C8.858,11.306 8.41,10.858 7.858,10.858 C7.306,10.858 6.858,11.306 6.858,11.858 C6.858,12.41 7.306,12.858 7.858,12.858 C8.41,12.858 8.858,12.41 8.858,11.858 Z"/>
</svg>

