<svg xmlns="http://www.w3.org/2000/svg" width="24" height="24" viewBox="0 0 24 24">
  <defs/>
  <path fill="#2D264B" d="M20.891,15.928 C20.756,16.145 20.689,16.254 20.656,16.336 C20.594,16.494 20.576,16.613 20.589,16.782 C20.596,16.87 20.622,16.97 20.674,17.17 C21,18.427 21.163,19.056 21.07,19.509 C20.91,20.296 20.296,20.91 19.509,21.07 C19.056,21.163 18.428,21 17.171,20.674 L17.17,20.674 C16.97,20.622 16.87,20.596 16.781,20.589 C16.613,20.576 16.492,20.594 16.335,20.657 C16.252,20.69 16.144,20.757 15.928,20.891 C12.027,23.316 7.297,21.44 4.929,19.071 C1.024,15.166 1.024,8.834 4.929,4.929 C8.834,1.024 15.166,1.024 19.071,4.929 C21.343,7.201 23.307,12.018 20.891,15.928 Z M7.858,15.108 C7.444,15.108 7.108,15.444 7.108,15.858 C7.108,16.272 7.444,16.608 7.858,16.608 L15.858,16.608 C16.272,16.608 16.608,16.272 16.608,15.858 C16.608,15.444 16.272,15.108 15.858,15.108 Z M7.858,7.108 C7.444,7.108 7.108,7.444 7.108,7.858 C7.108,8.272 7.444,8.608 7.858,8.608 L15.858,8.608 C16.272,8.608 16.608,8.272 16.608,7.858 C16.608,7.444 16.272,7.108 15.858,7.108 Z M7.858,11.108 C7.444,11.108 7.108,11.444 7.108,11.858 C7.108,12.272 7.444,12.608 7.858,12.608 L15.858,12.608 C16.272,12.608 16.608,12.272 16.608,11.858 C16.608,11.444 16.272,11.108 15.858,11.108 Z"/>
</svg>

