<svg width="24" height="24" viewBox="0 0 24 24" fill="none" xmlns="http://www.w3.org/2000/svg">
<path d="M5.1503 6.01391C5.70578 6 6.35041 6 7.11135 6H8.88913C11.3782 6 12.6228 6 13.5735 6.48693C14.4098 6.91524 15.0897 7.59868 15.5158 8.43929C16.0002 9.39494 16.0002 10.646 16.0002 13.148V15.5594C16.0002 15.8093 16.0002 15.9342 15.9953 16.0398C15.9281 17.465 15.2001 18.7137 14.1116 19.4837L15.942 20.7893C16.837 21.4277 18.0131 20.5058 17.6046 19.486C17.3152 18.7636 17.848 17.9779 18.6271 17.9779H19.2288C21.3119 17.9779 23.0005 16.2916 23.0005 14.2114V9.98893C23.0005 7.19254 23.0005 5.79435 22.4555 4.72627C21.9762 3.78676 21.2113 3.02292 20.2704 2.54421C19.2009 2 17.8008 2 15.0005 2H13.0005C10.2002 2 8.80009 2 7.73054 2.54421C6.78973 3.02292 6.02482 3.78676 5.54546 4.72627C5.35484 5.09986 5.23089 5.51384 5.1503 6.01391Z" fill="#2D264B"/>
<path fill-rule="evenodd" clip-rule="evenodd" d="M14.5761 9.15232C15 9.99554 15 11.0994 15 13.3071V15.4348C15 15.6552 15 15.7655 14.9956 15.8586C14.9008 17.8891 13.2982 19.5136 11.295 19.6097C11.2031 19.6141 11.0818 19.6141 10.8392 19.6141L10.7769 19.6142C9.98339 19.6193 9.21041 19.8704 8.56175 20.3337L8.5205 20.3635L6.48993 21.8337C5.79383 22.3377 4.87911 21.6098 5.19681 20.8048C5.42186 20.2345 5.00751 19.6141 4.40154 19.6141H3.93351C2.31338 19.6141 1 18.2828 1 16.6406V13.3071C1 11.0994 1 9.99554 1.42386 9.15232C1.7967 8.4106 2.39163 7.80757 3.12337 7.42964C3.95525 7 5.04424 7 7.22222 7H8.77778C10.9558 7 12.0448 7 12.8766 7.42964C13.6084 7.80757 14.2033 8.4106 14.5761 9.15232ZM5 13.25C4.58579 13.25 4.25 13.5858 4.25 14C4.25 14.4142 4.58579 14.75 5 14.75H11C11.4142 14.75 11.75 14.4142 11.75 14C11.75 13.5858 11.4142 13.25 11 13.25H5Z" fill="#2D264B"/>
</svg>
