<svg xmlns="http://www.w3.org/2000/svg" width="24" height="24" viewBox="0 0 24 24">
  <defs/>
  <path fill="#2D264B" d="M2.333,6.409 C2,7.649 2,9.36 2,12 C2,15.75 2,17.625 2.955,18.939 C3.263,19.363 3.637,19.737 4.061,20.045 C5.375,21 7.25,21 11,21 L13,21 C16.75,21 18.625,21 19.939,20.045 C20.363,19.737 20.737,19.363 21.045,18.939 C22,17.625 22,15.75 22,12 C22,9.351 22,7.638 21.663,6.397 L19.561,8.5 C17.928,10.132 16.649,11.411 15.517,12.275 C14.358,13.159 13.265,13.679 12,13.679 C10.734,13.679 9.642,13.159 8.483,12.275 C7.35,11.411 6.071,10.132 4.439,8.5 L2.484,6.545 L2.333,6.409 Z"/>
  <path fill="#2D264B" d="M3,5 L3.109,5.09 L3.516,5.455 L5.459,7.399 C7.141,9.08 8.35,10.287 9.393,11.083 C10.418,11.865 11.194,12.179 12,12.179 C12.806,12.179 13.582,11.865 14.607,11.083 C15.65,10.287 16.859,9.08 18.541,7.399 L20.849,5.091 L20.974,4.966 C20.666,4.541 20.363,4.263 19.939,3.955 C18.625,3 16.75,3 13,3 L11,3 C7.25,3 5.375,3 4.061,3.955 C3.637,4.263 3.308,4.576 3,5 Z"/>
</svg>

