<svg width="24" height="24" viewBox="0 0 24 24" fill="none" xmlns="http://www.w3.org/2000/svg">
<path fill-rule="evenodd" clip-rule="evenodd" d="M21.455 4.73005C22 5.79961 22 7.19974 22 10V11.1842C22 12.8734 22 13.7179 21.798 14.4069C21.3188 16.041 20.041 17.3188 18.4069 17.798C17.7179 18 16.8734 18 15.1842 18H14.6354L14.5703 18.0001C13.5501 18.0066 12.5562 18.3251 11.7222 18.9128L11.6692 18.9506L9.05848 20.8154C8.1635 21.4546 6.98743 20.5314 7.3959 19.5103C7.68525 18.7869 7.15251 18 6.37341 18H5.77166C3.68863 18 2 16.3114 2 14.2283V10C2 7.19974 2 5.79961 2.54497 4.73005C3.02433 3.78924 3.78924 3.02433 4.73005 2.54497C5.79961 2 7.19974 2 10 2H14C16.8003 2 18.2004 2 19.27 2.54497C20.2108 3.02433 20.9757 3.78924 21.455 4.73005ZM9.29426 9.7664C9.92735 9.13331 11.0054 9.38779 11.2885 10.2372C11.9242 12.1444 14.3448 12.7158 15.7664 11.2943L16.5303 10.5303C16.8232 10.2374 16.8232 9.76256 16.5303 9.46967C16.2374 9.17677 15.7626 9.17677 15.4697 9.46967L14.7057 10.2336C14.0726 10.8667 12.9946 10.6122 12.7115 9.76283C12.0758 7.85559 9.65517 7.28417 8.2336 8.70574L7.46967 9.46967C7.17678 9.76256 7.17678 10.2374 7.46967 10.5303C7.76256 10.8232 8.23744 10.8232 8.53033 10.5303L9.29426 9.7664Z" fill="#2D264B"/>
</svg>
