<svg xmlns="http://www.w3.org/2000/svg" width="24" height="24" viewBox="0 0 24 24">
  <defs/>
  <path fill="#2D264B" d="M5.15,6.014 C5.706,6 6.35,6 7.111,6 L8.889,6 C11.378,6 12.623,6 13.573,6.487 C14.41,6.915 15.09,7.599 15.516,8.439 C16,9.395 16,10.646 16,13.148 L16,15.559 C16,15.809 16,15.934 15.995,16.04 C15.928,17.465 15.2,18.714 14.112,19.484 L15.942,20.789 C16.837,21.428 18.013,20.506 17.605,19.486 C17.315,18.764 17.848,17.978 18.627,17.978 L19.229,17.978 C21.312,17.978 23,16.292 23,14.211 L23,9.989 C23,7.193 23,5.794 22.456,4.726 C21.976,3.787 21.211,3.023 20.27,2.544 C19.201,2 17.801,2 15.001,2 L13.001,2 C10.2,2 8.8,2 7.731,2.544 C6.79,3.023 6.025,3.787 5.545,4.726 C5.355,5.1 5.231,5.514 5.15,6.014 Z"/>
  <path fill="#2D264B" d="M14.576,9.152 C15,9.996 15,11.099 15,13.307 L15,15.435 C15,15.655 15,15.766 14.996,15.859 C14.901,17.889 13.298,19.514 11.295,19.61 C11.203,19.614 11.082,19.614 10.839,19.614 L10.777,19.614 C9.983,19.619 9.21,19.87 8.562,20.334 L8.521,20.364 L6.49,21.834 C5.794,22.338 4.879,21.61 5.197,20.805 C5.422,20.235 5.008,19.614 4.402,19.614 L3.934,19.614 C2.313,19.614 1,18.283 1,16.641 L1,13.307 C1,11.099 1,9.996 1.424,9.152 C1.797,8.411 2.392,7.808 3.123,7.43 C3.955,7 5.044,7 7.222,7 L8.778,7 C10.956,7 12.045,7 12.877,7.43 C13.608,7.808 14.203,8.411 14.576,9.152 Z M5,13.25 C4.586,13.25 4.25,13.586 4.25,14 C4.25,14.414 4.586,14.75 5,14.75 L11,14.75 C11.414,14.75 11.75,14.414 11.75,14 C11.75,13.586 11.414,13.25 11,13.25 Z"/>
</svg>

