<svg width="24" height="24" viewBox="0 0 24 24" fill="none" xmlns="http://www.w3.org/2000/svg">
<path d="M12.9941 4.75C13.4083 4.75 13.7441 4.41421 13.7441 4C13.7441 3.58579 13.4083 3.25 12.9941 3.25V4.75ZM5.47208 19.3573L5.83994 18.7037H5.83994L5.47208 19.3573ZM3.44601 10.8995L2.70314 10.7963L3.44601 10.8995ZM3.27127 16.8297L3.96925 16.5552H3.96925L3.27127 16.8297ZM21.6609 10.7963C21.604 10.386 21.2252 10.0996 20.8149 10.1566C20.4046 10.2136 20.1182 10.5924 20.1752 11.0026L21.6609 10.7963ZM21.0928 16.8297L21.7908 17.1041L21.0928 16.8297ZM18.892 19.3573L18.5241 18.7037L18.892 19.3573ZM6.6742 4.45483L6.36166 3.77306L6.6742 4.45483ZM4.19848 7L3.49878 6.72997H3.49878L4.19848 7ZM4.5425 6.31092L3.9102 5.90756L4.5425 6.31092ZM4.98963 7.7368L5.51996 7.20647L5.51053 7.19704L5.50078 7.18795L4.98963 7.7368ZM17.518 10.3827C17.8175 10.0965 17.8283 9.62178 17.5422 9.3223C17.256 9.02282 16.7813 9.01201 16.4818 9.29816L17.518 10.3827ZM11.3699 4.75H12.9941V3.25H11.3699V4.75ZM12.9941 19.25H11.3699V20.75H12.9941V19.25ZM11.3699 19.25C9.77146 19.25 8.62029 19.2494 7.72447 19.1724C6.83603 19.0961 6.27652 18.9494 5.83994 18.7037L5.10422 20.0109C5.8096 20.4079 6.61374 20.5825 7.5961 20.6669C8.57108 20.7506 9.79786 20.75 11.3699 20.75V19.25ZM2.70314 10.7963C2.48687 12.3534 2.31746 13.5685 2.26628 14.5457C2.21471 15.5303 2.27709 16.3508 2.57329 17.1041L3.96925 16.5552C3.78593 16.089 3.71759 15.5146 3.76422 14.6241C3.81125 13.7262 3.96897 12.5859 4.18887 11.0026L2.70314 10.7963ZM5.83994 18.7037C4.98778 18.2241 4.32708 17.4652 3.96925 16.5552L2.57329 17.1041C3.05742 18.3353 3.9513 19.362 5.10422 20.0109L5.83994 18.7037ZM20.1752 11.0026C20.3951 12.5859 20.5528 13.7262 20.5999 14.6241C20.6465 15.5146 20.5782 16.089 20.3948 16.5552L21.7908 17.1041C22.087 16.3508 22.1494 15.5303 22.0978 14.5457C22.0466 13.5685 21.8772 12.3534 21.6609 10.7963L20.1752 11.0026ZM12.9941 20.75C14.5662 20.75 15.793 20.7506 16.768 20.6669C17.7503 20.5825 18.5545 20.4079 19.2599 20.0109L18.5241 18.7037C18.0876 18.9494 17.5281 19.0961 16.6396 19.1724C15.7438 19.2494 14.5926 19.25 12.9941 19.25V20.75ZM20.3948 16.5552C20.037 17.4653 19.3763 18.2241 18.5241 18.7037L19.2599 20.0109C20.4128 19.362 21.3067 18.3353 21.7908 17.1041L20.3948 16.5552ZM11.3699 3.25C10.1469 3.25 9.18747 3.24949 8.41088 3.30905C7.62494 3.36933 6.97021 3.49408 6.36166 3.77306L6.98674 5.13661C7.37035 4.96075 7.82897 4.85809 8.52559 4.80466C9.23157 4.75051 10.124 4.75 11.3699 4.75V3.25ZM4.18887 11.0026C4.45663 9.07477 4.60777 8.02255 4.89818 7.27003L3.49878 6.72997C3.13029 7.6848 2.95949 8.9505 2.70314 10.7963L4.18887 11.0026ZM4.89818 7.27003C4.97981 7.05852 5.07041 6.87792 5.1748 6.71429L3.9102 5.90756C3.74636 6.1644 3.61228 6.43586 3.49878 6.72997L4.89818 7.27003ZM6.36166 3.77306C5.35622 4.23397 4.50505 4.97509 3.9102 5.90756L5.1748 6.71429C5.61447 6.02507 6.24359 5.47729 6.98674 5.13661L6.36166 3.77306ZM5.50078 7.18795L4.70962 6.45115L3.68734 7.54885L4.47849 8.28565L5.50078 7.18795ZM4.4593 8.26713C6.11098 9.9188 7.40196 11.212 8.54358 12.0831C9.70251 12.9673 10.7953 13.4868 12.0607 13.4868V11.9868C11.2551 11.9868 10.479 11.673 9.45345 10.8905C8.41064 10.0949 7.20162 8.88813 5.51996 7.20647L4.4593 8.26713ZM16.4818 9.29816C14.4407 11.2483 13.3005 11.9868 12.0607 11.9868V13.4868C13.9735 13.4868 15.5173 12.2943 17.518 10.3827L16.4818 9.29816ZM20.2499 5C20.2499 5.69036 19.6903 6.25 18.9999 6.25V7.75C20.5187 7.75 21.7499 6.51878 21.7499 5H20.2499ZM18.9999 6.25C18.3096 6.25 17.7499 5.69036 17.7499 5H16.2499C16.2499 6.51878 17.4811 7.75 18.9999 7.75V6.25ZM17.7499 5C17.7499 4.30964 18.3096 3.75 18.9999 3.75V2.25C17.4811 2.25 16.2499 3.48122 16.2499 5H17.7499ZM18.9999 3.75C19.6903 3.75 20.2499 4.30964 20.2499 5H21.7499C21.7499 3.48122 20.5187 2.25 18.9999 2.25V3.75Z" fill="#2D264B"/>
</svg>
