<svg xmlns="http://www.w3.org/2000/svg" width="24" height="24" viewBox="0 0 24 24">
  <defs/>
  <path fill="#2D264B" d="M20.763,6.484 Q21.197,7.454 21.661,10.796 L21.661,10.796 L21.661,10.797 Q22.342,15.702 21.791,17.104 Q21.042,19.008 19.26,20.011 Q17.947,20.75 12.994,20.75 L11.37,20.75 Q6.417,20.75 5.104,20.011 Q3.322,19.008 2.573,17.104 Q2.022,15.702 2.703,10.796 Q3.143,7.626 3.517,6.685 L3.517,6.685 Q3.684,6.262 3.91,5.908 Q4.821,4.479 6.362,3.773 Q7.503,3.25 11.37,3.25 L12.994,3.25 Q16.861,3.25 18.002,3.773 Q19.543,4.479 20.454,5.908 Q20.626,6.177 20.763,6.484 L20.078,6.79 Z M4.607,8.414 Q4.414,9.384 4.189,11.003 Q3.562,15.519 3.969,16.555 Q4.522,17.962 5.84,18.704 Q6.811,19.25 11.37,19.25 L12.994,19.25 Q17.553,19.25 18.524,18.704 Q19.842,17.962 20.395,16.555 Q20.802,15.519 20.175,11.003 L20.175,11.003 L20.175,11.002 Q19.93,9.234 19.712,8.217 L19.662,8.267 L19.661,8.268 Q14.442,13.487 12.061,13.487 Q9.713,13.487 4.607,8.414 Z M17.377,5.137 Q16.534,4.75 12.994,4.75 L11.37,4.75 Q7.83,4.75 6.987,5.137 Q5.848,5.658 5.175,6.714 Q5.146,6.759 5.119,6.806 L5.52,7.206 L5.52,7.207 Q10.3,11.987 12.061,11.987 Q13.821,11.987 18.601,7.207 L18.601,7.206 L19.152,6.656 Q18.484,5.644 17.377,5.137 Z"/>
</svg>

