<svg xmlns="http://www.w3.org/2000/svg" width="24" height="24" viewBox="0 0 24 24">
  <defs/>
  <path fill="#2D264B" d="M21.455,4.73 C22,5.8 22,7.2 22,10 L22,11.184 C22,12.873 22,13.718 21.798,14.407 C21.319,16.041 20.041,17.319 18.407,17.798 C17.718,18 16.873,18 15.184,18 L14.635,18 L14.57,18 C13.55,18.007 12.556,18.325 11.722,18.913 L11.669,18.951 L9.058,20.815 C8.163,21.455 6.987,20.531 7.396,19.51 C7.685,18.787 7.153,18 6.373,18 L5.772,18 C3.689,18 2,16.311 2,14.228 L2,10 C2,7.2 2,5.8 2.545,4.73 C3.024,3.789 3.789,3.024 4.73,2.545 C5.8,2 7.2,2 10,2 L14,2 C16.8,2 18.2,2 19.27,2.545 C20.211,3.024 20.976,3.789 21.455,4.73 Z M8,11.25 C7.586,11.25 7.25,11.586 7.25,12 C7.25,12.414 7.586,12.75 8,12.75 L16,12.75 C16.414,12.75 16.75,12.414 16.75,12 C16.75,11.586 16.414,11.25 16,11.25 Z M10,7.25 C9.586,7.25 9.25,7.586 9.25,8 C9.25,8.414 9.586,8.75 10,8.75 L14,8.75 C14.414,8.75 14.75,8.414 14.75,8 C14.75,7.586 14.414,7.25 14,7.25 Z"/>
</svg>

