<svg width="24" height="24" viewBox="0 0 24 24" fill="none" xmlns="http://www.w3.org/2000/svg">
<path fill-rule="evenodd" clip-rule="evenodd" d="M17.6858 21.2246C14.9521 22.9161 11.5839 21.5411 9.99561 19.9508C7.26513 17.2169 7.26513 12.7844 9.99561 10.0504C12.7261 7.31652 17.1531 7.31652 19.8836 10.0504C21.5395 11.7085 22.8514 15.0195 21.1562 17.7506C21.0624 17.9019 21.0154 17.9775 20.9925 18.0352C20.9487 18.1453 20.9359 18.2297 20.9449 18.3478C20.9496 18.4098 20.9678 18.4797 21.004 18.6197C21.2319 19.5002 21.3459 19.9405 21.2814 20.2577C21.1695 20.8082 20.7398 21.2384 20.19 21.3505C19.8732 21.415 19.4335 21.3009 18.5541 21.0727C18.4144 21.0364 18.3445 21.0183 18.2828 21.0135C18.1649 21.0044 18.0815 21.017 17.9715 21.0606C17.914 21.0834 17.8379 21.1305 17.6858 21.2246ZM12.0005 14.25C11.5863 14.25 11.2505 14.5858 11.2505 15C11.2505 15.4142 11.5863 15.75 12.0005 15.75L18.0005 15.75C18.4147 15.75 18.7505 15.4142 18.7505 15C18.7505 14.5858 18.4147 14.25 18.0005 14.25L12.0005 14.25Z" fill="#2D264B"/>
<path d="M18.5789 7.84948C15.5842 6.34256 11.8404 6.84052 9.34067 9.34336C6.90282 11.7843 6.36948 15.41 7.74065 18.3693C7.55027 18.277 7.36178 18.1736 7.17572 18.0585C6.99099 17.9441 6.89863 17.887 6.82879 17.8593C6.69526 17.8064 6.59399 17.791 6.4508 17.8021C6.37591 17.8079 6.29107 17.8299 6.1214 17.874C5.05352 18.1511 4.51952 18.2897 4.13486 18.2113C3.46722 18.0753 2.94545 17.5528 2.80957 16.8843C2.73129 16.4992 2.86968 15.9646 3.14647 14.8954C3.19046 14.7254 3.21246 14.6404 3.21823 14.5652C3.22921 14.4218 3.2136 14.3192 3.16046 14.1856C3.13258 14.1155 3.07559 14.0237 2.9616 13.8401C0.903193 10.5236 2.49621 6.50314 4.50699 4.48982C7.82258 1.17006 13.1982 1.17006 16.5138 4.48982C17.489 5.46626 18.1774 6.62113 18.5789 7.84948Z" fill="#2D264B"/>
</svg>
