<svg xmlns="http://www.w3.org/2000/svg" width="24" height="24" viewBox="0 0 24 24">
  <defs/>
  <path fill="#2D264B" d="M17.519,10.516 C17.818,10.229 17.828,9.754 17.541,9.455 C17.255,9.156 16.78,9.146 16.481,9.433 L17.519,10.516 Z M22.742,9.965 C22.737,9.551 22.397,9.219 21.983,9.224 C21.569,9.23 21.237,9.569 21.242,9.984 L22.742,9.965 Z M14.991,3.757 C15.405,3.762 15.745,3.43 15.75,3.016 C15.755,2.602 15.423,2.262 15.009,2.257 L14.991,3.757 Z M5.459,7.399 L3.53,5.47 L2.47,6.53 L4.399,8.459 L5.459,7.399 Z M4.399,8.459 C6.05,10.111 7.341,11.404 8.483,12.275 C9.642,13.159 10.735,13.679 12,13.679 L12,12.179 C11.194,12.179 10.418,11.865 9.393,11.083 C8.35,10.287 7.141,9.08 5.459,7.399 L4.399,8.459 Z M11,3.75 L13,3.75 L13,2.25 L11,2.25 L11,3.75 Z M13,20.25 L11,20.25 L11,21.75 L13,21.75 L13,20.25 Z M11,20.25 C9.108,20.25 7.75,20.249 6.698,20.135 C5.66,20.023 5.01,19.807 4.502,19.438 L3.62,20.652 C4.427,21.238 5.371,21.5 6.536,21.626 C7.688,21.751 9.142,21.75 11,21.75 L11,20.25 Z M1.25,12 C1.25,13.858 1.249,15.312 1.374,16.463 C1.5,17.629 1.762,18.573 2.348,19.38 L3.562,18.498 C3.193,17.99 2.977,17.34 2.865,16.302 C2.751,15.25 2.75,13.892 2.75,12 L1.25,12 Z M4.502,19.438 C4.141,19.176 3.824,18.859 3.562,18.498 L2.348,19.38 C2.703,19.868 3.132,20.297 3.62,20.652 L4.502,19.438 Z M21.25,12 C21.25,13.892 21.249,15.25 21.135,16.302 C21.023,17.34 20.807,17.99 20.438,18.498 L21.652,19.38 C22.238,18.573 22.5,17.629 22.626,16.463 C22.751,15.312 22.75,13.858 22.75,12 L21.25,12 Z M13,21.75 C14.858,21.75 16.312,21.751 17.463,21.626 C18.629,21.5 19.573,21.238 20.38,20.652 L19.498,19.438 C18.99,19.807 18.34,20.023 17.302,20.135 C16.25,20.249 14.892,20.25 13,20.25 L13,21.75 Z M20.438,18.498 C20.176,18.859 19.859,19.176 19.498,19.438 L20.38,20.652 C20.868,20.297 21.297,19.868 21.652,19.38 L20.438,18.498 Z M11,2.25 C9.142,2.25 7.688,2.249 6.536,2.374 C5.371,2.5 4.427,2.762 3.62,3.348 L4.502,4.562 C5.01,4.193 5.66,3.977 6.698,3.865 C7.75,3.751 9.108,3.75 11,3.75 L11,2.25 Z M3.62,3.348 C3.132,3.703 2.703,4.132 2.348,4.62 L3.562,5.502 C3.824,5.141 4.141,4.824 4.502,4.562 L3.62,3.348 Z M16.481,9.433 C14.403,11.425 13.253,12.179 12,12.179 L12,13.679 C13.931,13.679 15.487,12.463 17.519,10.516 L16.481,9.433 Z M22.75,12 C22.75,11.255 22.75,10.579 22.742,9.965 L21.242,9.984 C21.25,10.586 21.25,11.253 21.25,12 L22.75,12 Z M13,3.75 C13.737,3.75 14.395,3.75 14.991,3.757 L15.009,2.257 C14.402,2.25 13.734,2.25 13,2.25 L13,3.75 Z M21.25,5 C21.25,5.69 20.69,6.25 20,6.25 L20,7.75 C21.519,7.75 22.75,6.519 22.75,5 L21.25,5 Z M20,6.25 C19.31,6.25 18.75,5.69 18.75,5 L17.25,5 C17.25,6.519 18.481,7.75 20,7.75 L20,6.25 Z M18.75,5 C18.75,4.31 19.31,3.75 20,3.75 L20,2.25 C18.481,2.25 17.25,3.481 17.25,5 L18.75,5 Z M20,3.75 C20.69,3.75 21.25,4.31 21.25,5 L22.75,5 C22.75,3.481 21.519,2.25 20,2.25 L20,3.75 Z M2.75,12 C2.75,10.365 2.75,9.125 2.825,8.132 C2.9,7.141 3.046,6.467 3.297,5.947 L1.945,5.295 C1.575,6.064 1.41,6.955 1.33,8.019 C1.25,9.081 1.25,10.386 1.25,12 L2.75,12 Z M3.297,5.947 C3.373,5.787 3.461,5.64 3.562,5.502 L2.348,4.62 C2.194,4.833 2.06,5.057 1.945,5.295 L3.297,5.947 Z M3.53,5.47 L3.151,5.091 L2.091,6.151 L2.47,6.53 L3.53,5.47 Z"/>
</svg>

