<svg width="24" height="24" viewBox="0 0 24 24" fill="none" xmlns="http://www.w3.org/2000/svg">
<path d="M4.14176 6.06511C4.89085 6 5.83826 6 7.11111 6H8.88889C11.378 6 12.6226 6 13.5733 6.48693C14.4096 6.91524 15.0895 7.59868 15.5156 8.43929C16 9.39494 16 10.646 16 13.148V15.5594C16 15.8093 16 15.9342 15.995 16.0398C15.9173 17.6899 14.9536 19.1034 13.5704 19.8113L14.9415 20.7893C15.8365 21.4277 17.0126 20.5058 16.6041 19.486C16.3147 18.7636 16.8475 17.9779 17.6266 17.9779H18.2283C20.3114 17.9779 22 16.2916 22 14.2114V9.98893C22 7.19254 22 5.79435 21.455 4.72627C20.9757 3.78676 20.2108 3.02292 19.27 2.54421C18.2004 2 16.8003 2 14 2H12C9.19974 2 7.7996 2 6.73005 2.54421C5.78924 3.02292 5.02433 3.78676 4.54497 4.72627C4.34788 5.11254 4.22207 5.54198 4.14176 6.06511Z" fill="#2D264B"/>
<path fill-rule="evenodd" clip-rule="evenodd" d="M14.5761 9.15232C15 9.99554 15 11.0994 15 13.3071V15.4348C15 15.6552 15 15.7655 14.9956 15.8586C14.9008 17.8891 13.2982 19.5136 11.295 19.6097C11.2031 19.6141 11.0818 19.6141 10.8392 19.6141L10.7769 19.6142C9.98339 19.6193 9.21041 19.8704 8.56175 20.3337L8.5205 20.3635L6.48993 21.8337C5.79383 22.3377 4.87911 21.6098 5.19681 20.8048C5.42186 20.2345 5.00751 19.6141 4.40154 19.6141H3.93351C2.31338 19.6141 1 18.2828 1 16.6406V13.3071C1 11.0994 1 9.99554 1.42386 9.15232C1.7967 8.4106 2.39163 7.80757 3.12337 7.42964C3.95525 7 5.04424 7 7.22222 7H8.77778C10.9558 7 12.0448 7 12.8766 7.42964C13.6084 7.80757 14.2033 8.4106 14.5761 9.15232ZM5 15C5.55228 15 6 14.5523 6 14C6 13.4477 5.55228 13 5 13C4.44772 13 4 13.4477 4 14C4 14.5523 4.44772 15 5 15ZM9 14C9 14.5523 8.55228 15 8 15C7.44772 15 7 14.5523 7 14C7 13.4477 7.44772 13 8 13C8.55228 13 9 13.4477 9 14ZM11 15C11.5523 15 12 14.5523 12 14C12 13.4477 11.5523 13 11 13C10.4477 13 10 13.4477 10 14C10 14.5523 10.4477 15 11 15Z" fill="#2D264B"/>
</svg>
