<svg xmlns="http://www.w3.org/2000/svg" width="24" height="24" viewBox="0 0 24 24">
  <defs/>
  <path fill="#2D264B" d="M17.686,21.225 C14.952,22.916 11.584,21.541 9.996,19.951 C7.265,17.217 7.265,12.784 9.996,10.05 C12.726,7.317 17.153,7.317 19.884,10.05 C21.539,11.708 22.851,15.019 21.156,17.751 C21.062,17.902 21.015,17.978 20.993,18.035 C20.949,18.145 20.936,18.23 20.945,18.348 C20.95,18.41 20.968,18.48 21.004,18.62 L21.004,18.62 C21.232,19.5 21.346,19.941 21.281,20.258 C21.17,20.808 20.74,21.238 20.19,21.351 C19.873,21.415 19.434,21.301 18.554,21.073 L18.554,21.073 C18.414,21.036 18.344,21.018 18.283,21.014 C18.165,21.004 18.081,21.017 17.972,21.061 C17.914,21.083 17.838,21.131 17.686,21.225 Z M12,14.25 C11.586,14.25 11.25,14.586 11.25,15 C11.25,15.414 11.586,15.75 12,15.75 L18,15.75 C18.415,15.75 18.75,15.414 18.75,15 C18.75,14.586 18.415,14.25 18,14.25 Z"/>
  <path fill="#2D264B" d="M18.579,7.849 C15.584,6.343 11.84,6.841 9.341,9.343 C6.903,11.784 6.369,15.41 7.741,18.369 C7.55,18.277 7.362,18.174 7.176,18.058 C6.991,17.944 6.899,17.887 6.829,17.859 C6.695,17.806 6.594,17.791 6.451,17.802 C6.376,17.808 6.291,17.83 6.121,17.874 C5.054,18.151 4.52,18.29 4.135,18.211 C3.467,18.075 2.945,17.553 2.81,16.884 C2.731,16.499 2.87,15.965 3.146,14.895 C3.19,14.725 3.212,14.64 3.218,14.565 C3.229,14.422 3.214,14.319 3.16,14.186 C3.133,14.116 3.076,14.024 2.962,13.84 C0.903,10.524 2.496,6.503 4.507,4.49 C7.823,1.17 13.198,1.17 16.514,4.49 C17.489,5.466 18.177,6.621 18.579,7.849 Z"/>
</svg>

