<svg xmlns="http://www.w3.org/2000/svg" width="24" height="24" viewBox="0 0 24 24">
  <defs/>
  <path fill="#2D264B" d="M5.422,7.849 C8.417,6.343 12.16,6.841 14.66,9.343 C17.098,11.784 17.631,15.41 16.26,18.369 C16.451,18.277 16.639,18.174 16.825,18.058 C17.01,17.944 17.102,17.887 17.172,17.859 C17.305,17.806 17.407,17.791 17.55,17.802 C17.625,17.808 17.71,17.83 17.879,17.874 C18.947,18.151 19.481,18.29 19.866,18.211 C20.534,18.075 21.055,17.553 21.191,16.884 C21.269,16.499 21.131,15.965 20.854,14.895 C20.81,14.725 20.788,14.64 20.782,14.565 C20.771,14.422 20.787,14.319 20.84,14.186 C20.868,14.116 20.925,14.024 21.039,13.84 C23.098,10.524 21.505,6.503 19.494,4.49 C16.178,1.17 10.803,1.17 7.487,4.49 C6.512,5.466 5.823,6.621 5.422,7.849 Z"/>
  <path fill="#2D264B" d="M6.262,21.225 C6.11,21.131 6.034,21.083 5.977,21.061 C5.867,21.017 5.783,21.004 5.665,21.014 C5.604,21.018 5.534,21.036 5.394,21.073 L5.394,21.073 C4.515,21.301 4.075,21.415 3.758,21.351 C3.208,21.238 2.779,20.808 2.667,20.258 C2.602,19.941 2.716,19.5 2.944,18.62 C2.98,18.48 2.999,18.41 3.003,18.348 C3.012,18.23 3,18.145 2.956,18.035 C2.933,17.978 2.886,17.902 2.792,17.751 C1.097,15.019 2.409,11.708 4.065,10.05 C6.795,7.317 11.222,7.317 13.953,10.05 C16.683,12.784 16.683,17.217 13.953,19.951 C12.364,21.541 8.996,22.916 6.262,21.225 Z M8,15 C8,15.552 8.448,16 9,16 C9.553,16 10,15.552 10,15 C10,14.448 9.553,14 9,14 C8.448,14 8,14.448 8,15 Z M11,15 C11,15.552 11.448,16 12,16 C12.553,16 13,15.552 13,15 C13,14.448 12.553,14 12,14 C11.448,14 11,14.448 11,15 Z M6,16 C6.553,16 7,15.552 7,15 C7,14.448 6.553,14 6,14 C5.448,14 5,14.448 5,15 C5,15.552 5.448,16 6,16 Z"/>
</svg>

