<svg xmlns="http://www.w3.org/2000/svg" width="24" height="24" viewBox="0 0 24 24">
  <defs/>
  <path fill="#2D264B" d="M8.096,20.891 C7.878,20.756 7.769,20.689 7.687,20.656 C7.53,20.594 7.41,20.576 7.242,20.589 C7.154,20.596 7.054,20.622 6.854,20.674 L6.854,20.674 C5.596,21 4.967,21.163 4.514,21.07 C3.728,20.91 3.113,20.296 2.953,19.509 C2.861,19.056 3.024,18.427 3.35,17.17 C3.402,16.97 3.428,16.87 3.434,16.781 C3.447,16.613 3.429,16.492 3.366,16.335 C3.333,16.252 3.266,16.144 3.132,15.928 C0.708,12.027 2.584,7.297 4.952,4.929 C8.858,1.024 15.189,1.024 19.094,4.929 C23,8.834 23,15.166 19.094,19.071 C16.823,21.343 12.005,23.307 8.096,20.891 Z M9.053,11.858 C9.053,11.306 8.605,10.858 8.053,10.858 C7.5,10.858 7.053,11.306 7.053,11.858 C7.053,12.41 7.5,12.858 8.053,12.858 C8.605,12.858 9.053,12.41 9.053,11.858 Z M16.053,12.858 C16.605,12.858 17.053,12.41 17.053,11.858 C17.053,11.306 16.605,10.858 16.053,10.858 C15.5,10.858 15.053,11.306 15.053,11.858 C15.053,12.41 15.5,12.858 16.053,12.858 Z M13.053,11.858 C13.053,11.306 12.605,10.858 12.053,10.858 C11.5,10.858 11.053,11.306 11.053,11.858 C11.053,12.41 11.5,12.858 12.053,12.858 C12.605,12.858 13.053,12.41 13.053,11.858 Z"/>
</svg>

