<svg xmlns="http://www.w3.org/2000/svg" width="24" height="24" viewBox="0 0 24 24">
  <defs/>
  <path fill="#2D264B" d="M9,18.82 L8.825,19.549 L8.911,19.57 L9,19.57 L9,18.82 Z M18,15.75 C18.414,15.75 18.75,15.414 18.75,15 C18.75,14.586 18.414,14.25 18,14.25 L18,15.75 Z M12,14.25 C11.586,14.25 11.25,14.586 11.25,15 C11.25,15.414 11.586,15.75 12,15.75 L12,14.25 Z M5.037,5.02 C8.06,1.993 12.96,1.993 15.983,5.02 L17.044,3.96 C13.435,0.347 7.584,0.347 3.976,3.96 L5.037,5.02 Z M3.598,13.444 C2.695,11.989 2.581,10.368 2.938,8.848 C3.297,7.316 4.127,5.931 5.037,5.02 L3.976,3.96 C2.875,5.062 1.903,6.694 1.478,8.505 C1.05,10.327 1.169,12.374 2.324,14.236 L3.598,13.444 Z M7.57,17.421 C7.419,17.328 7.253,17.221 7.105,17.162 L6.552,18.556 C6.533,18.549 6.534,18.547 6.581,18.574 C6.625,18.6 6.685,18.637 6.781,18.696 L7.57,17.421 Z M6.309,18.6 C6.399,18.577 6.449,18.564 6.487,18.555 C6.522,18.547 6.522,18.549 6.508,18.55 L6.392,17.054 C6.235,17.067 6.071,17.112 5.932,17.148 L6.309,18.6 Z M7.105,17.162 C6.865,17.067 6.649,17.035 6.392,17.054 L6.508,18.55 C6.524,18.549 6.532,18.549 6.534,18.549 C6.536,18.549 6.534,18.549 6.531,18.548 C6.527,18.548 6.525,18.547 6.527,18.548 C6.53,18.548 6.537,18.551 6.552,18.556 L7.105,17.162 Z M3.872,15.083 C3.908,14.944 3.953,14.781 3.966,14.623 L2.47,14.508 C2.471,14.494 2.473,14.495 2.465,14.53 C2.456,14.567 2.443,14.618 2.42,14.707 L3.872,15.083 Z M2.324,14.236 C2.383,14.331 2.42,14.39 2.445,14.434 C2.472,14.48 2.47,14.482 2.463,14.463 L3.857,13.908 C3.798,13.76 3.691,13.594 3.598,13.444 L2.324,14.236 Z M3.966,14.623 C3.985,14.365 3.952,14.148 3.857,13.908 L2.463,14.463 C2.469,14.477 2.471,14.485 2.472,14.487 C2.472,14.489 2.472,14.488 2.471,14.485 C2.471,14.481 2.471,14.48 2.471,14.482 C2.471,14.484 2.471,14.492 2.47,14.508 L3.966,14.623 Z M2.42,14.707 C2.284,15.232 2.173,15.662 2.107,16.008 C2.043,16.35 2.005,16.696 2.074,17.034 L3.544,16.735 C3.534,16.688 3.527,16.573 3.581,16.285 C3.635,16 3.731,15.628 3.872,15.083 L2.42,14.707 Z M5.932,17.148 C5.388,17.289 5.017,17.385 4.732,17.439 C4.444,17.493 4.331,17.486 4.284,17.476 L3.985,18.946 C4.322,19.015 4.668,18.978 5.011,18.913 C5.356,18.848 5.786,18.736 6.309,18.6 L5.932,17.148 Z M2.074,17.034 C2.27,17.997 3.022,18.75 3.985,18.946 L4.284,17.476 C3.912,17.401 3.62,17.109 3.544,16.735 L2.074,17.034 Z M9.175,18.09 C8.628,17.959 8.089,17.742 7.57,17.421 L6.781,18.696 C7.44,19.104 8.128,19.382 8.825,19.549 L9.175,18.09 Z M21.846,18.146 C22.819,16.577 22.918,14.854 22.559,13.327 C22.203,11.81 21.39,10.445 20.466,9.52 L19.405,10.58 C20.138,11.314 20.808,12.433 21.099,13.669 C21.386,14.895 21.293,16.193 20.571,17.355 L21.846,18.146 Z M9.517,20.481 C10.409,21.374 11.771,22.184 13.289,22.548 C14.817,22.914 16.558,22.837 18.133,21.862 L17.343,20.587 C16.185,21.304 14.875,21.385 13.638,21.089 C12.391,20.79 11.275,20.118 10.579,19.421 L9.517,20.481 Z M18.133,21.862 C18.212,21.813 18.259,21.784 18.294,21.764 C18.331,21.742 18.325,21.748 18.3,21.758 L17.747,20.363 C17.611,20.417 17.461,20.514 17.343,20.587 L18.133,21.862 Z M18.795,20.347 C18.686,20.319 18.537,20.277 18.393,20.266 L18.277,21.761 C18.257,21.76 18.25,21.757 18.276,21.763 C18.304,21.769 18.344,21.779 18.418,21.799 L18.795,20.347 Z M18.3,21.758 C18.309,21.754 18.311,21.754 18.308,21.755 C18.305,21.756 18.298,21.758 18.289,21.759 C18.28,21.76 18.273,21.761 18.269,21.761 C18.266,21.761 18.268,21.761 18.277,21.761 L18.393,20.266 C18.161,20.248 17.963,20.278 17.747,20.363 L18.3,21.758 Z M21.782,18.432 C21.763,18.357 21.753,18.318 21.747,18.289 C21.741,18.263 21.743,18.27 21.745,18.291 L20.249,18.405 C20.26,18.55 20.302,18.698 20.33,18.808 L21.782,18.432 Z M20.571,17.355 C20.499,17.472 20.402,17.622 20.348,17.758 L21.742,18.312 C21.732,18.337 21.726,18.343 21.747,18.307 C21.768,18.272 21.797,18.225 21.846,18.146 L20.571,17.355 Z M21.745,18.291 C21.744,18.281 21.744,18.279 21.744,18.282 C21.744,18.286 21.744,18.293 21.743,18.301 C21.741,18.31 21.74,18.317 21.739,18.32 C21.738,18.323 21.738,18.321 21.742,18.312 L20.348,17.758 C20.262,17.974 20.232,18.173 20.249,18.405 L21.745,18.291 Z M20.33,18.808 C20.447,19.258 20.524,19.56 20.568,19.789 C20.611,20.021 20.602,20.095 20.599,20.108 L22.069,20.407 C22.13,20.103 22.096,19.798 22.042,19.511 C21.987,19.221 21.894,18.862 21.782,18.432 L20.33,18.808 Z M18.418,21.799 C18.847,21.91 19.206,22.004 19.496,22.058 C19.783,22.113 20.088,22.147 20.392,22.085 L20.093,20.616 C20.08,20.618 20.007,20.628 19.774,20.584 C19.546,20.541 19.245,20.463 18.795,20.347 L18.418,21.799 Z M20.599,20.108 C20.547,20.364 20.347,20.564 20.093,20.616 L20.392,22.085 C21.237,21.913 21.897,21.252 22.069,20.407 L20.599,20.108 Z M18,14.25 L12,14.25 L12,15.75 L18,15.75 L18,14.25 Z M9.517,9.52 C6.882,12.159 6.545,16.224 8.502,19.229 L9.759,18.41 C8.18,15.987 8.455,12.707 10.579,10.58 L9.517,9.52 Z M8.502,19.229 C8.791,19.673 9.129,20.093 9.517,20.481 L10.579,19.421 C10.264,19.106 9.991,18.767 9.759,18.41 L8.502,19.229 Z M9,19.57 L9.13,19.57 L9.13,18.07 L9,18.07 L9,19.57 Z M20.466,9.52 C20.109,9.163 19.725,8.847 19.32,8.573 L18.48,9.815 C18.805,10.036 19.116,10.291 19.405,10.58 L20.466,9.52 Z M19.32,8.573 C16.308,6.536 12.183,6.851 9.517,9.52 L10.579,10.58 C12.727,8.43 16.052,8.174 18.48,9.815 L19.32,8.573 Z M15.983,5.02 C17.191,6.23 17.916,7.738 18.159,9.308 L19.641,9.079 C19.351,7.206 18.485,5.403 17.044,3.96 L15.983,5.02 Z"/>
</svg>

