<svg width="24" height="24" viewBox="0 0 24 24" fill="none" xmlns="http://www.w3.org/2000/svg">
<path fill-rule="evenodd" clip-rule="evenodd" d="M3.1076 15.9277C0.691426 12.0179 2.65544 7.20059 4.9271 4.92893C8.83234 1.02369 15.164 1.02369 19.0692 4.92893C22.9745 8.83418 22.9745 15.1658 19.0692 19.0711C16.7008 21.4395 11.9713 23.3158 8.06997 20.8913C7.85393 20.7571 7.74588 20.6899 7.66343 20.6571C7.50628 20.5945 7.38561 20.5761 7.21694 20.589C7.12847 20.5958 7.02852 20.6217 6.82865 20.6735C5.57085 20.9995 4.94185 21.1626 4.48878 21.0704C3.7024 20.9103 3.08784 20.2958 2.9278 19.5094C2.83559 19.0563 2.9986 18.4274 3.3246 17.1696C3.37641 16.9697 3.40232 16.8698 3.40914 16.7816C3.42217 16.6129 3.40415 16.4936 3.34186 16.3364C3.30929 16.2541 3.24206 16.1453 3.1076 15.9277ZM16.1403 9.10788C16.5545 9.10788 16.8903 9.44367 16.8903 9.85788C16.8903 10.2721 16.5545 10.6079 16.1403 10.6079H8.14025C7.72604 10.6079 7.39025 10.2721 7.39025 9.85788C7.39025 9.44367 7.72604 9.10788 8.14025 9.10788H16.1403ZM16.1403 13.1079C16.5545 13.1079 16.8903 13.4437 16.8903 13.8579C16.8903 14.2721 16.5545 14.6079 16.1403 14.6079H8.14025C7.72604 14.6079 7.39025 14.2721 7.39025 13.8579C7.39025 13.4437 7.72604 13.1079 8.14025 13.1079H16.1403Z" fill="#2D264B"/>
</svg>
