<svg xmlns="http://www.w3.org/2000/svg" width="24" height="24" viewBox="0 0 24 24">
  <defs/>
  <path fill="#2D264B" d="M19.625,19.601 Q17.505,21.722 14.384,22.468 Q10.662,23.358 7.701,21.529 Q7.432,21.362 7.411,21.354 Q7.357,21.332 7.299,21.337 Q7.277,21.338 7.042,21.4 L7.042,21.4 Q4.987,21.932 4.364,21.805 Q2.581,21.442 2.218,19.659 Q2.091,19.036 2.624,16.981 Q2.685,16.746 2.687,16.724 Q2.691,16.666 2.669,16.612 Q2.661,16.591 2.495,16.324 Q0.651,13.357 1.515,9.682 Q2.245,6.576 4.422,4.399 Q7.571,1.25 12.023,1.25 Q16.476,1.25 19.625,4.399 Q22.773,7.547 22.773,12 Q22.773,16.453 19.625,19.601 Z M18.564,18.541 Q21.273,15.831 21.273,12 Q21.273,8.169 18.564,5.459 Q15.855,2.75 12.023,2.75 Q8.192,2.75 5.483,5.459 Q3.607,7.335 2.975,10.025 Q2.254,13.094 3.769,15.532 Q4.005,15.913 4.063,16.057 Q4.213,16.434 4.182,16.839 Q4.17,16.994 4.076,17.358 Q3.63,19.077 3.688,19.36 Q3.853,20.17 4.664,20.335 Q4.947,20.393 6.665,19.948 L6.666,19.948 Q7.029,19.853 7.184,19.841 Q7.587,19.81 7.963,19.959 Q8.107,20.016 8.49,20.253 Q10.92,21.754 14.035,21.009 Q16.743,20.361 18.564,18.541 Z"/>
  <path fill="#2D264B" d="M9.053,11.858 C9.053,12.41 8.605,12.858 8.053,12.858 C7.5,12.858 7.053,12.41 7.053,11.858 C7.053,11.306 7.5,10.858 8.053,10.858 C8.605,10.858 9.053,11.306 9.053,11.858 Z"/>
  <path fill="#2D264B" d="M13.053,11.858 C13.053,12.41 12.605,12.858 12.053,12.858 C11.5,12.858 11.053,12.41 11.053,11.858 C11.053,11.306 11.5,10.858 12.053,10.858 C12.605,10.858 13.053,11.306 13.053,11.858 Z"/>
  <path fill="#2D264B" d="M17.053,11.858 C17.053,12.41 16.605,12.858 16.053,12.858 C15.501,12.858 15.053,12.41 15.053,11.858 C15.053,11.306 15.501,10.858 16.053,10.858 C16.605,10.858 17.053,11.306 17.053,11.858 Z"/>
</svg>

