<svg width="24" height="24" viewBox="0 0 24 24" fill="none" xmlns="http://www.w3.org/2000/svg">
<path d="M21.9999 5C21.9999 6.10457 21.1045 7 19.9999 7C18.8953 7 17.9999 6.10457 17.9999 5C17.9999 3.89543 18.8953 3 19.9999 3C21.1045 3 21.9999 3.89543 21.9999 5Z" fill="#2D264B"/>
<path d="M17.067 3.08906C16.7083 3.63847 16.4998 4.29489 16.4998 5C16.4998 6.20645 17.1102 7.27032 18.039 7.89963C16.6132 9.32276 15.543 10.3684 14.6069 11.0827C13.5814 11.8651 12.8052 12.1789 11.9996 12.1789C11.194 12.1789 10.4179 11.8651 9.39237 11.0827C8.34956 10.287 7.14054 9.08027 5.45888 7.39861L3.51563 5.45535L3.1086 5.09007L2.99976 5C3.30815 4.57553 3.63636 4.26331 4.06083 3.95491C5.37516 3 7.25002 3 10.9998 3H12.9998C14.7002 3 16.0151 3 17.067 3.08906Z" fill="#2D264B"/>
<path d="M19.5846 8.47564L19.5604 8.49986C17.9282 10.1321 16.649 11.4113 15.5167 12.2752C14.3578 13.1594 13.2651 13.6789 11.9996 13.6789C10.7342 13.6789 9.64143 13.1594 8.4825 12.2752C7.35024 11.4113 6.07107 10.1321 4.4388 8.49984L2.48361 6.54466L2.33298 6.40947C1.99976 7.64946 1.99976 9.36008 1.99976 12C1.99976 15.7497 1.99976 17.6246 2.95467 18.9389C3.26307 19.3634 3.63636 19.7367 4.06083 20.0451C5.37516 21 7.25002 21 10.9998 21H12.9998C16.7495 21 18.6244 21 19.9387 20.0451C20.3632 19.7367 20.7364 19.3634 21.0448 18.9389C21.9998 17.6246 21.9998 15.7497 21.9998 12C21.9998 10.2996 21.9998 8.98474 21.9107 7.93286C21.4083 8.26082 20.8165 8.4632 20.1799 8.49545C20.1239 8.49828 20.0677 8.4998 20.0111 8.49998C20.0074 8.49999 20.0036 8.5 19.9999 8.5C20 8.5 19.9999 8.5 19.9999 8.5C19.8942 8.5 19.7894 8.49531 19.6861 8.48614C19.6521 8.48312 19.6183 8.47962 19.5846 8.47564Z" fill="#2D264B"/>
</svg>
