<svg xmlns="http://www.w3.org/2000/svg" width="24" height="24" viewBox="0 0 24 24">
  <defs/>
  <path fill="#2D264B" d="M20.455,4.73 C21,5.8 21,7.2 21,10 L21,12.699 C21,12.979 21,13.118 20.994,13.236 C20.872,15.812 18.812,17.872 16.236,17.994 C16.118,18 15.962,18 15.65,18 L15.57,18 C14.55,18.007 13.556,18.325 12.722,18.913 L12.669,18.951 L10.059,20.815 C9.163,21.455 7.987,20.531 8.396,19.51 C8.685,18.787 8.153,18 7.373,18 L6.772,18 C4.689,18 3,16.311 3,14.228 L3,10 C3,7.2 3,5.8 3.545,4.73 C4.024,3.789 4.789,3.024 5.73,2.545 C6.8,2 8.2,2 11,2 L13,2 C15.8,2 17.2,2 18.27,2.545 C19.211,3.024 19.976,3.789 20.455,4.73 Z M13,10 C13,9.448 12.552,9 12,9 C11.448,9 11,9.448 11,10 C11,10.552 11.448,11 12,11 C12.552,11 13,10.552 13,10 Z M16,11 C16.552,11 17,10.552 17,10 C17,9.448 16.552,9 16,9 C15.448,9 15,9.448 15,10 C15,10.552 15.448,11 16,11 Z M9,10 C9,9.448 8.552,9 8,9 C7.448,9 7,9.448 7,10 C7,10.552 7.448,11 8,11 C8.552,11 9,10.552 9,10 Z"/>
</svg>

