<svg xmlns="http://www.w3.org/2000/svg" width="24" height="24" viewBox="0 0 24 24">
  <defs/>
  <path fill="#2D264B" d="M8,11.25 C7.586,11.25 7.25,11.586 7.25,12 C7.25,12.414 7.586,12.75 8,12.75 L8,11.25 Z M16,12.75 C16.414,12.75 16.75,12.414 16.75,12 C16.75,11.586 16.414,11.25 16,11.25 L16,12.75 Z M10,7.25 C9.586,7.25 9.25,7.586 9.25,8 C9.25,8.414 9.586,8.75 10,8.75 L10,7.25 Z M14,8.75 C14.414,8.75 14.75,8.414 14.75,8 C14.75,7.586 14.414,7.25 14,7.25 L14,8.75 Z M14,1.25 L10,1.25 L10,2.75 L14,2.75 L14,1.25 Z M1.25,10 L1.25,14.228 L2.75,14.228 L2.75,10 L1.25,10 Z M22.75,11.184 L22.75,10 L21.25,10 L21.25,11.184 L22.75,11.184 Z M5.772,18.75 L6.373,18.75 L6.373,17.25 L5.772,17.25 L5.772,18.75 Z M9.494,21.426 L12.105,19.561 L11.233,18.34 L8.623,20.205 L9.494,21.426 Z M14.635,18.75 L15.184,18.75 L15.184,17.25 L14.635,17.25 L14.635,18.75 Z M12.105,19.561 C12.133,19.541 12.144,19.533 12.154,19.526 L11.29,18.3 C11.275,18.311 11.259,18.322 11.233,18.34 L12.105,19.561 Z M14.635,17.25 C14.604,17.25 14.585,17.25 14.566,17.25 L14.575,18.75 C14.588,18.75 14.602,18.75 14.635,18.75 L14.635,17.25 Z M12.154,19.526 C12.863,19.026 13.708,18.756 14.575,18.75 L14.566,17.25 C13.392,17.258 12.249,17.624 11.29,18.3 L12.154,19.526 Z M6.373,18.75 C6.622,18.75 6.792,19.001 6.7,19.232 L8.092,19.789 C8.579,18.573 7.683,17.25 6.373,17.25 L6.373,18.75 Z M6.7,19.232 C6.013,20.948 7.99,22.5 9.494,21.426 L8.623,20.205 C8.337,20.409 7.962,20.114 8.092,19.789 L6.7,19.232 Z M21.25,11.184 C21.25,12.926 21.242,13.636 21.078,14.196 L22.518,14.618 C22.758,13.8 22.75,12.821 22.75,11.184 L21.25,11.184 Z M15.184,18.75 C16.821,18.75 17.8,18.758 18.618,18.518 L18.196,17.078 C17.636,17.242 16.926,17.25 15.184,17.25 L15.184,18.75 Z M21.078,14.196 C20.671,15.585 19.585,16.671 18.196,17.078 L18.618,18.518 C20.497,17.967 21.967,16.497 22.518,14.618 L21.078,14.196 Z M1.25,14.228 C1.25,16.726 3.274,18.75 5.772,18.75 L5.772,17.25 C4.103,17.25 2.75,15.897 2.75,14.228 L1.25,14.228 Z M10,1.25 C8.612,1.25 7.526,1.249 6.655,1.321 C5.775,1.393 5.048,1.541 4.39,1.877 L5.071,3.213 C5.482,3.004 5.99,2.88 6.777,2.816 C7.573,2.751 8.587,2.75 10,2.75 L10,1.25 Z M2.75,10 C2.75,8.587 2.751,7.573 2.816,6.777 C2.88,5.99 3.004,5.482 3.213,5.071 L1.877,4.39 C1.541,5.048 1.393,5.775 1.321,6.655 C1.249,7.526 1.25,8.612 1.25,10 L2.75,10 Z M4.39,1.877 C3.308,2.428 2.428,3.308 1.877,4.39 L3.213,5.071 C3.621,4.271 4.271,3.621 5.071,3.213 L4.39,1.877 Z M14,2.75 C15.412,2.75 16.427,2.751 17.223,2.816 C18.01,2.88 18.518,3.004 18.93,3.213 L19.61,1.877 C18.952,1.541 18.225,1.393 17.345,1.321 C16.474,1.249 15.388,1.25 14,1.25 L14,2.75 Z M22.75,10 C22.75,8.612 22.751,7.526 22.679,6.655 C22.608,5.775 22.459,5.048 22.123,4.39 L20.787,5.071 C20.996,5.482 21.12,5.99 21.184,6.777 C21.249,7.573 21.25,8.587 21.25,10 L22.75,10 Z M18.93,3.213 C19.729,3.621 20.379,4.271 20.787,5.071 L22.123,4.39 C21.572,3.308 20.692,2.428 19.61,1.877 L18.93,3.213 Z M8,12.75 L16,12.75 L16,11.25 L8,11.25 L8,12.75 Z M10,8.75 L14,8.75 L14,7.25 L10,7.25 L10,8.75 Z"/>
</svg>

