<svg xmlns="http://www.w3.org/2000/svg" width="24" height="24" viewBox="0 0 24 24">
  <defs/>
  <path fill="#2D264B" d="M22.75,10 L22.75,11.184 Q22.75,13.826 22.518,14.618 Q21.633,17.633 18.618,18.518 Q17.826,18.75 15.184,18.75 L14.637,18.75 L14.575,18.75 Q13.243,18.759 12.158,19.523 L12.105,19.561 L9.494,21.426 Q8.366,22.232 7.275,21.375 Q6.185,20.519 6.7,19.232 Q6.769,19.059 6.664,18.904 Q6.56,18.75 6.373,18.75 L5.772,18.75 Q3.899,18.75 2.574,17.426 Q1.25,16.101 1.25,14.228 L1.25,10 Q1.25,5.62 1.877,4.39 Q2.725,2.725 4.39,1.877 Q5.62,1.25 10,1.25 L14,1.25 Q18.38,1.25 19.61,1.877 Q21.275,2.725 22.123,4.39 Q22.75,5.62 22.75,10 Z M21.25,10 Q21.25,5.98 20.787,5.071 Q20.16,3.84 18.93,3.213 Q18.02,2.75 14,2.75 L10,2.75 Q5.98,2.75 5.071,3.213 Q3.84,3.84 3.213,5.071 Q2.75,5.98 2.75,10 L2.75,14.228 Q2.75,17.25 5.772,17.25 L6.373,17.25 Q7.356,17.25 7.906,18.063 Q8.457,18.877 8.092,19.789 Q7.995,20.033 8.202,20.196 Q8.408,20.358 8.623,20.205 L11.233,18.34 L11.287,18.302 Q12.763,17.262 14.566,17.25 L14.634,17.25 L15.184,17.25 Q17.61,17.25 18.196,17.078 Q20.425,16.425 21.078,14.196 Q21.25,13.61 21.25,11.184 Z"/>
  <path fill="#2D264B" d="M9,10 C9,10.552 8.552,11 8,11 C7.448,11 7,10.552 7,10 C7,9.448 7.448,9 8,9 C8.552,9 9,9.448 9,10 Z"/>
  <path fill="#2D264B" d="M13,10 C13,10.552 12.552,11 12,11 C11.448,11 11,10.552 11,10 C11,9.448 11.448,9 12,9 C12.552,9 13,9.448 13,10 Z"/>
  <path fill="#2D264B" d="M17,10 C17,10.552 16.552,11 16,11 C15.448,11 15,10.552 15,10 C15,9.448 15.448,9 16,9 C16.552,9 17,9.448 17,10 Z"/>
</svg>

