<svg xmlns="http://www.w3.org/2000/svg" width="24" height="24" viewBox="0 0 24 24">
  <defs/>
  <path fill="#2D264B" d="M20.455,4.73 C21,5.8 21,7.2 21,10 L21,12.699 C21,12.979 21,13.118 20.994,13.236 C20.872,15.812 18.812,17.872 16.236,17.994 C16.118,18 15.962,18 15.65,18 L15.57,18 C14.55,18.007 13.556,18.325 12.722,18.913 L12.669,18.951 L10.059,20.815 C9.163,21.455 7.987,20.531 8.396,19.51 C8.685,18.787 8.153,18 7.373,18 L6.772,18 C4.689,18 3,16.311 3,14.228 L3,10 C3,7.2 3,5.8 3.545,4.73 C4.024,3.789 4.789,3.024 5.73,2.545 C6.8,2 8.2,2 11,2 L13,2 C15.8,2 17.2,2 18.27,2.545 C19.211,3.024 19.976,3.789 20.455,4.73 Z M8,11.25 C7.586,11.25 7.25,11.586 7.25,12 C7.25,12.414 7.586,12.75 8,12.75 L16,12.75 C16.414,12.75 16.75,12.414 16.75,12 C16.75,11.586 16.414,11.25 16,11.25 Z M12,8.75 L16,8.75 C16.414,8.75 16.75,8.414 16.75,8 C16.75,7.586 16.414,7.25 16,7.25 L12,7.25 C11.586,7.25 11.25,7.586 11.25,8 C11.25,8.414 11.586,8.75 12,8.75 Z"/>
</svg>

