<svg width="24" height="24" viewBox="0 0 24 24" fill="none" xmlns="http://www.w3.org/2000/svg">
<path fill-rule="evenodd" clip-rule="evenodd" d="M21.1571 15.4596C23.1508 11.6407 21.2528 7.1107 19.0711 4.92893C15.1658 1.02369 8.83418 1.02369 4.92893 4.92893C1.02369 8.83418 1.02369 15.1658 4.92893 19.0711C7.20352 21.3457 11.6559 23.1664 15.4609 21.1594C15.852 20.9531 16.0476 20.8499 16.1432 20.8115C16.547 20.6491 16.7593 20.6244 17.1896 20.6897C17.2915 20.7051 17.4248 20.7397 17.6913 20.8088C18.4911 21.0161 18.8911 21.1197 19.1825 21.1092C20.2306 21.0715 21.0715 20.2306 21.1092 19.1825C21.1197 18.8911 21.0161 18.4912 20.8088 17.6915C20.7397 17.4249 20.7052 17.2916 20.6897 17.1903C20.6242 16.7601 20.6478 16.5538 20.8087 16.1495C20.8466 16.0543 20.9501 15.856 21.1571 15.4596ZM8.85791 11.8579C8.85791 12.4102 8.41019 12.8579 7.85791 12.8579C7.30563 12.8579 6.85791 12.4102 6.85791 11.8579C6.85791 11.3056 7.30563 10.8579 7.85791 10.8579C8.41019 10.8579 8.85791 11.3056 8.85791 11.8579ZM12.8579 11.8579C12.8579 12.4102 12.4102 12.8579 11.8579 12.8579C11.3056 12.8579 10.8579 12.4102 10.8579 11.8579C10.8579 11.3056 11.3056 10.8579 11.8579 10.8579C12.4102 10.8579 12.8579 11.3056 12.8579 11.8579ZM15.8579 12.8579C16.4102 12.8579 16.8579 12.4102 16.8579 11.8579C16.8579 11.3056 16.4102 10.8579 15.8579 10.8579C15.3056 10.8579 14.8579 11.3056 14.8579 11.8579C14.8579 12.4102 15.3056 12.8579 15.8579 12.8579Z" fill="#2D264B"/>
</svg>
