<svg width="24" height="24" viewBox="0 0 24 24" fill="none" xmlns="http://www.w3.org/2000/svg">
<path fill-rule="evenodd" clip-rule="evenodd" d="M20.455 4.73005C21 5.79961 21 7.19974 21 10V12.6988C21 12.9785 21 13.1183 20.9944 13.2364C20.8725 15.812 18.812 17.8725 16.2364 17.9944C16.1183 18 15.9623 18 15.6504 18L15.5703 18.0001C14.5501 18.0066 13.5562 18.3251 12.7222 18.9128L12.6692 18.9506L10.0585 20.8154C9.1635 21.4546 7.98743 20.5314 8.3959 19.5103C8.68525 18.7869 8.15251 18 7.37341 18H6.77166C4.68863 18 3 16.3114 3 14.2283V10C3 7.19974 3 5.79961 3.54497 4.73005C4.02433 3.78924 4.78924 3.02433 5.73005 2.54497C6.79961 2 8.19974 2 11 2H13C15.8003 2 17.2004 2 18.27 2.54497C19.2108 3.02433 19.9757 3.78924 20.455 4.73005ZM9 10C9 10.5523 8.55228 11 8 11C7.44772 11 7 10.5523 7 10C7 9.44772 7.44772 9 8 9C8.55228 9 9 9.44772 9 10ZM13 10C13 10.5523 12.5523 11 12 11C11.4477 11 11 10.5523 11 10C11 9.44772 11.4477 9 12 9C12.5523 9 13 9.44772 13 10ZM16 11C16.5523 11 17 10.5523 17 10C17 9.44772 16.5523 9 16 9C15.4477 9 15 9.44772 15 10C15 10.5523 15.4477 11 16 11Z" fill="#2D264B"/>
</svg>
