<svg xmlns="http://www.w3.org/2000/svg" width="24" height="24" viewBox="0 0 24 24">
  <defs/>
  <path fill="#2D264B" d="M14,2 C15.627,2 16.781,2 17.673,2.107 C17.252,2.623 17,3.282 17,4 C17,5.657 18.343,7 20,7 C20.718,7 21.377,6.748 21.893,6.327 C22,7.219 22,8.373 22,10 L22,11.184 C22,12.873 22,13.718 21.798,14.407 C21.319,16.041 20.041,17.319 18.407,17.798 C17.718,18 16.873,18 15.184,18 L14.635,18 L14.57,18 C13.55,18.007 12.556,18.325 11.722,18.913 L11.669,18.951 L9.058,20.815 C8.163,21.455 6.987,20.531 7.396,19.51 C7.685,18.787 7.153,18 6.373,18 L5.772,18 C3.689,18 2,16.311 2,14.228 L2,10 C2,7.2 2,5.8 2.545,4.73 C3.024,3.789 3.789,3.024 4.73,2.545 C5.8,2 7.2,2 10,2 Z M13,10 C13,9.448 12.552,9 12,9 C11.448,9 11,9.448 11,10 C11,10.552 11.448,11 12,11 C12.552,11 13,10.552 13,10 Z M16,11 C16.552,11 17,10.552 17,10 C17,9.448 16.552,9 16,9 C15.448,9 15,9.448 15,10 C15,10.552 15.448,11 16,11 Z M9,10 C9,9.448 8.552,9 8,9 C7.448,9 7,9.448 7,10 C7,10.552 7.448,11 8,11 C8.552,11 9,10.552 9,10 Z"/>
  <path fill="#2D264B" d="M22,4 C22,5.105 21.105,6 20,6 C18.895,6 18,5.105 18,4 C18,2.895 18.895,2 20,2 C21.105,2 22,2.895 22,4 Z"/>
</svg>

