<svg xmlns="http://www.w3.org/2000/svg" width="24" height="24" viewBox="0 0 24 24">
  <defs/>
  <path fill="#2D264B" d="M19.601,4.399 Q21.619,6.416 22.405,9.389 Q23.336,12.907 21.822,15.807 Q21.529,16.367 21.506,16.427 Q21.38,16.742 21.431,17.077 Q21.441,17.141 21.535,17.503 Q21.873,18.809 21.859,19.21 Q21.767,21.767 19.209,21.859 Q18.809,21.873 17.503,21.535 Q17.141,21.441 17.077,21.431 Q16.74,21.38 16.423,21.507 Q16.363,21.532 15.811,21.823 Q12.909,23.354 9.432,22.447 Q6.471,21.674 4.399,19.601 Q1.25,16.453 1.25,12 Q1.25,7.547 4.399,4.399 Q7.547,1.25 12,1.25 Q16.453,1.25 19.601,4.399 Z M18.541,5.459 Q15.831,2.75 12,2.75 Q8.169,2.75 5.459,5.459 Q2.75,8.169 2.75,12 Q2.75,15.831 5.459,18.541 Q7.244,20.326 9.81,20.995 Q12.724,21.755 15.111,20.496 Q15.731,20.169 15.863,20.116 Q16.56,19.836 17.302,19.948 Q17.443,19.97 17.88,20.083 Q18.973,20.366 19.156,20.36 Q20.318,20.318 20.36,19.155 Q20.366,18.973 20.083,17.88 Q19.97,17.443 19.948,17.303 Q19.836,16.566 20.112,15.872 Q20.164,15.741 20.492,15.113 Q21.737,12.728 20.955,9.772 Q20.272,7.19 18.541,5.459 Z"/>
  <path fill="#2D264B" d="M8.858,11.858 C8.858,12.41 8.41,12.858 7.858,12.858 C7.306,12.858 6.858,12.41 6.858,11.858 C6.858,11.306 7.306,10.858 7.858,10.858 C8.41,10.858 8.858,11.306 8.858,11.858 Z"/>
  <path fill="#2D264B" d="M12.858,11.858 C12.858,12.41 12.41,12.858 11.858,12.858 C11.306,12.858 10.858,12.41 10.858,11.858 C10.858,11.306 11.306,10.858 11.858,10.858 C12.41,10.858 12.858,11.306 12.858,11.858 Z"/>
  <path fill="#2D264B" d="M16.858,11.858 C16.858,12.41 16.41,12.858 15.858,12.858 C15.306,12.858 14.858,12.41 14.858,11.858 C14.858,11.306 15.306,10.858 15.858,10.858 C16.41,10.858 16.858,11.306 16.858,11.858 Z"/>
</svg>

