<svg width="24" height="24" viewBox="0 0 24 24" fill="none" xmlns="http://www.w3.org/2000/svg">
<path fill-rule="evenodd" clip-rule="evenodd" d="M20.455 4.73005C21 5.79961 21 7.19974 21 10V12.6988C21 12.9785 21 13.1183 20.9944 13.2364C20.8725 15.812 18.812 17.8725 16.2364 17.9944C16.1183 18 15.9623 18 15.6504 18L15.5703 18.0001C14.5501 18.0066 13.5562 18.3251 12.7222 18.9128L12.6692 18.9506L10.0585 20.8154C9.1635 21.4546 7.98743 20.5314 8.3959 19.5103C8.68525 18.7869 8.15251 18 7.37341 18H6.77166C4.68863 18 3 16.3114 3 14.2283V10C3 7.19974 3 5.79961 3.54497 4.73005C4.02433 3.78924 4.78924 3.02433 5.73005 2.54497C6.79961 2 8.19974 2 11 2H13C15.8003 2 17.2004 2 18.27 2.54497C19.2108 3.02433 19.9757 3.78924 20.455 4.73005ZM9.29426 9.7664C9.92735 9.13331 11.0054 9.38779 11.2885 10.2372C11.9242 12.1444 14.3448 12.7158 15.7664 11.2943L16.5303 10.5303C16.8232 10.2374 16.8232 9.76256 16.5303 9.46967C16.2374 9.17677 15.7626 9.17677 15.4697 9.46967L14.7057 10.2336C14.0726 10.8667 12.9946 10.6122 12.7115 9.76283C12.0758 7.85559 9.65517 7.28417 8.2336 8.70574L7.46967 9.46967C7.17678 9.76256 7.17678 10.2374 7.46967 10.5303C7.76256 10.8232 8.23744 10.8232 8.53033 10.5303L9.29426 9.7664Z" fill="#2D264B"/>
</svg>
