<svg xmlns="http://www.w3.org/2000/svg" width="24" height="24" viewBox="0 0 24 24">
  <defs/>
  <path fill="#2D264B" d="M18.579,7.849 C15.584,6.343 11.84,6.841 9.341,9.343 C6.903,11.784 6.369,15.41 7.741,18.369 C7.55,18.277 7.362,18.174 7.176,18.058 C6.991,17.944 6.899,17.887 6.829,17.859 C6.695,17.806 6.594,17.791 6.451,17.802 C6.376,17.808 6.291,17.83 6.121,17.874 C5.054,18.151 4.52,18.29 4.135,18.211 C3.467,18.075 2.945,17.553 2.81,16.884 C2.731,16.499 2.87,15.965 3.146,14.895 C3.19,14.725 3.212,14.64 3.218,14.565 C3.229,14.422 3.214,14.319 3.16,14.186 C3.133,14.116 3.076,14.024 2.962,13.84 C0.903,10.524 2.496,6.503 4.507,4.49 C7.823,1.17 13.198,1.17 16.514,4.49 C17.489,5.466 18.177,6.621 18.579,7.849 Z"/>
  <path fill="#2D264B" d="M17.738,21.225 C15.005,22.916 11.636,21.541 10.048,19.951 C7.318,17.217 7.318,12.784 10.048,10.05 C12.779,7.317 17.206,7.317 19.936,10.05 C21.592,11.708 22.904,15.019 21.209,17.751 C21.115,17.902 21.068,17.978 21.045,18.035 C21.001,18.145 20.988,18.23 20.997,18.348 C21.002,18.41 21.02,18.48 21.056,18.62 L21.057,18.62 C21.284,19.5 21.398,19.941 21.334,20.258 C21.222,20.808 20.792,21.238 20.243,21.351 C19.926,21.415 19.486,21.301 18.607,21.073 C18.467,21.036 18.397,21.018 18.335,21.014 C18.217,21.004 18.134,21.017 18.024,21.061 C17.966,21.083 17.89,21.131 17.738,21.225 Z M13,15 C13,14.448 12.552,14 12,14 C11.448,14 11,14.448 11,15 C11,15.552 11.448,16 12,16 C12.552,16 13,15.552 13,15 Z M18,16 C18.552,16 19,15.552 19,15 C19,14.448 18.552,14 18,14 C17.448,14 17,14.448 17,15 C17,15.552 17.448,16 18,16 Z M16,15 C16,14.448 15.552,14 15,14 C14.448,14 14,14.448 14,15 C14,15.552 14.448,16 15,16 C15.552,16 16,15.552 16,15 Z"/>
</svg>

