<svg width="24" height="24" viewBox="0 0 24 24" fill="none" xmlns="http://www.w3.org/2000/svg">
<path fill-rule="evenodd" clip-rule="evenodd" d="M21.455 4.73005C22 5.79961 22 7.19974 22 10V11.1842C22 12.8734 22 13.7179 21.798 14.4069C21.3188 16.041 20.041 17.3188 18.4069 17.798C17.7179 18 16.8734 18 15.1842 18H14.6354L14.5703 18.0001C13.5501 18.0066 12.5562 18.3251 11.7222 18.9128L11.6692 18.9506L9.05848 20.8154C8.1635 21.4546 6.98743 20.5314 7.3959 19.5103C7.68525 18.7869 7.15251 18 6.37341 18H5.77166C3.68863 18 2 16.3114 2 14.2283V10C2 7.19974 2 5.79961 2.54497 4.73005C3.02433 3.78924 3.78924 3.02433 4.73005 2.54497C5.79961 2 7.19974 2 10 2H14C16.8003 2 18.2004 2 19.27 2.54497C20.2108 3.02433 20.9757 3.78924 21.455 4.73005ZM9 10C9 10.5523 8.55228 11 8 11C7.44772 11 7 10.5523 7 10C7 9.44772 7.44772 9 8 9C8.55228 9 9 9.44772 9 10ZM13 10C13 10.5523 12.5523 11 12 11C11.4477 11 11 10.5523 11 10C11 9.44772 11.4477 9 12 9C12.5523 9 13 9.44772 13 10ZM16 11C16.5523 11 17 10.5523 17 10C17 9.44772 16.5523 9 16 9C15.4477 9 15 9.44772 15 10C15 10.5523 15.4477 11 16 11Z" fill="#2D264B"/>
</svg>
