<svg xmlns="http://www.w3.org/2000/svg" width="24" height="24" viewBox="0 0 24 24">
  <defs/>
  <path fill="#2D264B" d="M7.858,13.108 C7.444,13.108 7.108,13.444 7.108,13.858 C7.108,14.272 7.444,14.608 7.858,14.608 L7.858,13.108 Z M15.858,14.608 C16.272,14.608 16.608,14.272 16.608,13.858 C16.608,13.444 16.272,13.108 15.858,13.108 L15.858,14.608 Z M11.858,9.108 C11.444,9.108 11.108,9.444 11.108,9.858 C11.108,10.272 11.444,10.608 11.858,10.608 L11.858,9.108 Z M15.858,10.608 C16.272,10.608 16.608,10.272 16.608,9.858 C16.608,9.444 16.272,9.108 15.858,9.108 L15.858,10.608 Z M5.459,18.541 C1.847,14.928 1.847,9.072 5.459,5.459 L4.399,4.399 C0.2,8.597 0.2,15.403 4.399,19.601 L5.459,18.541 Z M5.459,5.459 C9.072,1.847 14.928,1.847 18.541,5.459 L19.601,4.399 C15.403,0.2 8.597,0.2 4.399,4.399 L5.459,5.459 Z M15.532,20.254 C13.785,21.34 11.84,21.475 10.025,21.048 C8.199,20.619 6.548,19.63 5.459,18.541 L4.399,19.601 C5.678,20.881 7.576,22.014 9.682,22.509 C11.799,23.006 14.17,22.867 16.324,21.528 L15.532,20.254 Z M18.541,5.459 C19.579,6.497 20.569,8.146 21.009,9.989 C21.448,11.82 21.332,13.787 20.253,15.534 L21.529,16.322 C22.865,14.159 22.976,11.762 22.468,9.64 C21.963,7.528 20.835,5.632 19.601,4.399 L18.541,5.459 Z M20.253,15.534 C20.139,15.717 20.023,15.899 19.959,16.06 L21.354,16.613 C21.349,16.625 21.351,16.617 21.383,16.56 C21.415,16.506 21.459,16.434 21.529,16.322 L20.253,15.534 Z M21.4,16.981 C21.372,16.877 21.357,16.815 21.346,16.768 C21.336,16.724 21.336,16.716 21.337,16.724 L19.841,16.839 C19.855,17.01 19.904,17.189 19.948,17.358 L21.4,16.981 Z M19.959,16.06 C19.855,16.323 19.819,16.557 19.841,16.839 L21.337,16.724 C21.334,16.681 21.336,16.668 21.336,16.667 C21.336,16.666 21.338,16.652 21.354,16.613 L19.959,16.06 Z M17.358,19.948 C17.189,19.904 17.01,19.854 16.839,19.841 L16.724,21.337 C16.717,21.336 16.724,21.336 16.768,21.346 C16.815,21.357 16.877,21.372 16.981,21.4 L17.358,19.948 Z M16.324,21.528 C16.436,21.459 16.507,21.415 16.561,21.383 C16.616,21.351 16.625,21.349 16.612,21.354 L16.057,19.96 C15.896,20.024 15.714,20.141 15.532,20.254 L16.324,21.528 Z M16.839,19.841 C16.556,19.82 16.321,19.855 16.057,19.96 L16.612,21.354 C16.651,21.338 16.665,21.336 16.667,21.336 C16.668,21.336 16.682,21.334 16.724,21.337 L16.839,19.841 Z M16.981,21.4 C17.6,21.56 18.101,21.69 18.502,21.766 C18.901,21.841 19.287,21.881 19.659,21.805 L19.36,20.335 C19.279,20.352 19.124,20.357 18.78,20.292 C18.44,20.228 17.997,20.113 17.358,19.948 L16.981,21.4 Z M19.948,17.358 C20.113,17.997 20.228,18.44 20.292,18.78 C20.357,19.124 20.352,19.279 20.335,19.36 L21.805,19.659 C21.881,19.287 21.841,18.901 21.766,18.502 C21.69,18.101 21.56,17.6 21.4,16.981 L19.948,17.358 Z M19.659,21.805 C20.74,21.585 21.585,20.74 21.805,19.659 L20.335,19.36 C20.235,19.851 19.851,20.235 19.36,20.335 L19.659,21.805 Z M7.858,14.608 L15.858,14.608 L15.858,13.108 L7.858,13.108 L7.858,14.608 Z M11.858,10.608 L15.858,10.608 L15.858,9.108 L11.858,9.108 L11.858,10.608 Z"/>
</svg>

