<svg width="24" height="24" viewBox="0 0 24 24" fill="none" xmlns="http://www.w3.org/2000/svg">
<path fill-rule="evenodd" clip-rule="evenodd" d="M21.455 4.73005C22 5.79961 22 7.19974 22 10V11.1842C22 12.8734 22 13.7179 21.798 14.4069C21.3188 16.041 20.041 17.3188 18.4069 17.798C17.7179 18 16.8734 18 15.1842 18H14.6354L14.5703 18.0001C13.5501 18.0066 12.5562 18.3251 11.7222 18.9128L11.6692 18.9506L9.05848 20.8154C8.1635 21.4546 6.98743 20.5314 7.3959 19.5103C7.68525 18.7869 7.15251 18 6.37341 18H5.77166C3.68863 18 2 16.3114 2 14.2283V10C2 7.19974 2 5.79961 2.54497 4.73005C3.02433 3.78924 3.78924 3.02433 4.73005 2.54497C5.79961 2 7.19974 2 10 2H14C16.8003 2 18.2004 2 19.27 2.54497C20.2108 3.02433 20.9757 3.78924 21.455 4.73005ZM8 7.25C7.58579 7.25 7.25 7.58579 7.25 8C7.25 8.41421 7.58579 8.75 8 8.75H16C16.4142 8.75 16.75 8.41421 16.75 8C16.75 7.58579 16.4142 7.25 16 7.25H8ZM10 11.25C9.58579 11.25 9.25 11.5858 9.25 12C9.25 12.4142 9.58579 12.75 10 12.75H14C14.4142 12.75 14.75 12.4142 14.75 12C14.75 11.5858 14.4142 11.25 14 11.25H10Z" fill="#2D264B"/>
</svg>
