<svg xmlns="http://www.w3.org/2000/svg" width="24" height="24" viewBox="0 0 24 24">
  <defs/>
  <path fill="#2D264B" d="M21.75,10 L21.75,12.699 Q21.75,13.136 21.744,13.272 Q21.638,15.493 20.066,17.066 Q18.493,18.638 16.272,18.744 Q16.136,18.75 15.651,18.75 L15.575,18.75 Q14.243,18.759 13.158,19.523 L13.105,19.561 L10.494,21.426 Q9.366,22.232 8.275,21.375 Q7.185,20.519 7.7,19.232 Q7.769,19.059 7.664,18.904 Q7.56,18.75 7.373,18.75 L6.772,18.75 Q4.899,18.75 3.574,17.426 Q2.25,16.101 2.25,14.228 L2.25,10 Q2.25,5.62 2.877,4.39 Q3.725,2.725 5.39,1.877 Q6.62,1.25 11,1.25 L13,1.25 Q17.38,1.25 18.61,1.877 Q20.275,2.725 21.123,4.39 Q21.75,5.62 21.75,10 Z M20.25,10 Q20.25,5.98 19.787,5.071 Q19.16,3.84 17.93,3.213 Q17.02,2.75 13,2.75 L11,2.75 Q6.98,2.75 6.071,3.213 Q4.84,3.84 4.213,5.071 Q3.75,5.98 3.75,10 L3.75,14.228 Q3.75,17.25 6.772,17.25 L7.373,17.25 Q8.356,17.25 8.906,18.063 Q9.457,18.877 9.092,19.789 Q8.995,20.033 9.202,20.196 Q9.408,20.358 9.623,20.205 L12.233,18.34 L12.287,18.302 Q13.763,17.262 15.566,17.25 L15.649,17.25 Q16.101,17.25 16.201,17.245 Q20.062,17.062 20.245,13.201 Q20.25,13.101 20.25,12.699 Z"/>
  <path fill="#2D264B" d="M9,10 C9,10.552 8.552,11 8,11 C7.448,11 7,10.552 7,10 C7,9.448 7.448,9 8,9 C8.552,9 9,9.448 9,10 Z"/>
  <path fill="#2D264B" d="M13,10 C13,10.552 12.552,11 12,11 C11.448,11 11,10.552 11,10 C11,9.448 11.448,9 12,9 C12.552,9 13,9.448 13,10 Z"/>
  <path fill="#2D264B" d="M17,10 C17,10.552 16.552,11 16,11 C15.448,11 15,10.552 15,10 C15,9.448 15.448,9 16,9 C16.552,9 17,9.448 17,10 Z"/>
</svg>

