<svg xmlns="http://www.w3.org/2000/svg" width="24" height="24" viewBox="0 0 24 24">
  <defs/>
  <path fill="#2D264B" d="M15.5,6 C15.5,7.17 16.074,8.205 16.955,8.841 C16.071,9.704 15.335,10.381 14.668,10.89 C13.643,11.673 12.866,11.987 12.061,11.987 C11.255,11.987 10.479,11.673 9.454,10.89 C8.411,10.095 7.202,8.888 5.52,7.206 L4.575,6.261 C5.09,5.474 5.818,4.847 6.674,4.455 C7.666,4 8.901,4 11.37,4 L12.994,4 C14.332,4 15.307,4 16.078,4.072 C15.713,4.625 15.5,5.288 15.5,6 Z"/>
  <path fill="#2D264B" d="M20.655,9.085 C20.163,9.35 19.599,9.5 19,9.5 C18.818,9.5 18.64,9.486 18.466,9.459 C17.362,10.551 16.428,11.434 15.578,12.083 C14.419,12.967 13.326,13.487 12.061,13.487 C10.795,13.487 9.703,12.967 8.544,12.083 C7.411,11.219 6.132,9.94 4.5,8.308 L3.962,7.77 C3.774,8.536 3.637,9.524 3.446,10.899 C3.01,14.04 2.792,15.61 3.271,16.83 C3.692,17.9 4.47,18.793 5.472,19.357 C6.614,20 8.199,20 11.37,20 L12.994,20 C16.165,20 17.75,20 18.892,19.357 C19.895,18.793 20.672,17.9 21.093,16.83 C21.572,15.61 21.354,14.04 20.918,10.899 C20.821,10.202 20.738,9.604 20.655,9.085 Z"/>
  <path fill="#2D264B" d="M21,6 C21,7.105 20.105,8 19,8 C17.895,8 17,7.105 17,6 C17,4.895 17.895,4 19,4 C20.105,4 21,4.895 21,6 Z"/>
</svg>

