<svg xmlns="http://www.w3.org/2000/svg" width="24" height="24" viewBox="0 0 24 24">
  <defs/>
  <path fill="#2D264B" d="M7.47,9.47 C7.177,9.763 7.177,10.237 7.47,10.53 C7.763,10.823 8.237,10.823 8.53,10.53 L7.47,9.47 Z M16.53,10.53 C16.823,10.237 16.823,9.763 16.53,9.47 C16.237,9.177 15.763,9.177 15.47,9.47 L16.53,10.53 Z M13,1.25 L11,1.25 L11,2.75 L13,2.75 L13,1.25 Z M2.25,10 L2.25,14.228 L3.75,14.228 L3.75,10 L2.25,10 Z M21.75,12.699 L21.75,10 L20.25,10 L20.25,12.699 L21.75,12.699 Z M6.772,18.75 L7.373,18.75 L7.373,17.25 L6.772,17.25 L6.772,18.75 Z M10.494,21.426 L13.105,19.561 L12.233,18.34 L9.623,20.205 L10.494,21.426 Z M13.105,19.561 C13.133,19.541 13.144,19.533 13.154,19.526 L12.29,18.3 C12.275,18.311 12.259,18.322 12.233,18.34 L13.105,19.561 Z M15.65,17.25 C15.609,17.25 15.585,17.25 15.566,17.25 L15.575,18.75 C15.588,18.75 15.606,18.75 15.65,18.75 L15.65,17.25 Z M13.154,19.526 C13.863,19.026 14.708,18.756 15.575,18.75 L15.566,17.25 C14.392,17.258 13.249,17.624 12.29,18.3 L13.154,19.526 Z M7.373,18.75 C7.622,18.75 7.792,19.001 7.7,19.232 L9.092,19.789 C9.579,18.573 8.683,17.25 7.373,17.25 L7.373,18.75 Z M7.7,19.232 C7.013,20.948 8.99,22.5 10.494,21.426 L9.623,20.205 C9.337,20.409 8.962,20.114 9.092,19.789 L7.7,19.232 Z M20.25,12.699 C20.25,12.987 20.25,13.105 20.245,13.201 L21.744,13.272 C21.75,13.132 21.75,12.97 21.75,12.699 L20.25,12.699 Z M15.65,18.75 C15.953,18.75 16.131,18.75 16.272,18.744 L16.201,17.245 C16.105,17.25 15.972,17.25 15.65,17.25 L15.65,18.75 Z M20.245,13.201 C20.142,15.39 18.39,17.142 16.201,17.245 L16.272,18.744 C19.234,18.603 21.603,16.234 21.744,13.272 L20.245,13.201 Z M2.25,14.228 C2.25,16.726 4.274,18.75 6.772,18.75 L6.772,17.25 C5.103,17.25 3.75,15.897 3.75,14.228 L2.25,14.228 Z M11,1.25 C9.612,1.25 8.526,1.249 7.655,1.321 C6.775,1.393 6.048,1.541 5.39,1.877 L6.071,3.213 C6.482,3.004 6.99,2.88 7.777,2.816 C8.573,2.751 9.587,2.75 11,2.75 L11,1.25 Z M3.75,10 C3.75,8.587 3.751,7.573 3.816,6.777 C3.88,5.99 4.004,5.482 4.213,5.071 L2.877,4.39 C2.541,5.048 2.393,5.775 2.321,6.655 C2.249,7.526 2.25,8.612 2.25,10 L3.75,10 Z M5.39,1.877 C4.308,2.428 3.428,3.308 2.877,4.39 L4.213,5.071 C4.621,4.271 5.271,3.621 6.071,3.213 L5.39,1.877 Z M13,2.75 C14.412,2.75 15.427,2.751 16.223,2.816 C17.01,2.88 17.518,3.004 17.93,3.213 L18.61,1.877 C17.952,1.541 17.225,1.393 16.345,1.321 C15.474,1.249 14.388,1.25 13,1.25 L13,2.75 Z M21.75,10 C21.75,8.612 21.751,7.526 21.679,6.655 C21.608,5.775 21.459,5.048 21.123,4.39 L19.787,5.071 C19.996,5.482 20.12,5.99 20.184,6.777 C20.249,7.573 20.25,8.587 20.25,10 L21.75,10 Z M17.93,3.213 C18.729,3.621 19.379,4.271 19.787,5.071 L21.123,4.39 C20.572,3.308 19.692,2.428 18.61,1.877 L17.93,3.213 Z M8.53,10.53 L9.294,9.766 L8.234,8.706 L7.47,9.47 L8.53,10.53 Z M15.766,11.294 L16.53,10.53 L15.47,9.47 L14.706,10.234 L15.766,11.294 Z M11.289,10.237 C11.924,12.144 14.345,12.716 15.766,11.294 L14.706,10.234 C14.073,10.867 12.995,10.612 12.711,9.763 L11.289,10.237 Z M9.294,9.766 C9.927,9.133 11.005,9.388 11.289,10.237 L12.711,9.763 C12.076,7.856 9.655,7.284 8.234,8.706 L9.294,9.766 Z"/>
</svg>

