<svg xmlns="http://www.w3.org/2000/svg" width="24" height="24" viewBox="0 0 24 24">
  <defs/>
  <path fill="#2D264B" d="M20.455,4.73 C21,5.8 21,7.2 21,10 L21,12.699 C21,12.979 21,13.118 20.994,13.236 C20.872,15.812 18.812,17.872 16.236,17.994 C16.118,18 15.962,18 15.65,18 L15.57,18 C14.55,18.007 13.556,18.325 12.722,18.913 L12.669,18.951 L10.059,20.815 C9.163,21.455 7.987,20.531 8.396,19.51 C8.685,18.787 8.153,18 7.373,18 L6.772,18 C4.689,18 3,16.311 3,14.228 L3,10 C3,7.2 3,5.8 3.545,4.73 C4.024,3.789 4.789,3.024 5.73,2.545 C6.8,2 8.2,2 11,2 L13,2 C15.8,2 17.2,2 18.27,2.545 C19.211,3.024 19.976,3.789 20.455,4.73 Z M9.294,9.766 C9.927,9.133 11.005,9.388 11.288,10.237 C11.924,12.144 14.345,12.716 15.766,11.294 L16.53,10.53 C16.823,10.237 16.823,9.763 16.53,9.47 C16.237,9.177 15.763,9.177 15.47,9.47 L14.706,10.234 C14.073,10.867 12.995,10.612 12.712,9.763 C12.076,7.856 9.655,7.284 8.234,8.706 L7.47,9.47 C7.177,9.763 7.177,10.237 7.47,10.53 C7.763,10.823 8.237,10.823 8.53,10.53 Z"/>
</svg>

