<svg width="24" height="24" viewBox="0 0 24 24" fill="none" xmlns="http://www.w3.org/2000/svg">
<path fill-rule="evenodd" clip-rule="evenodd" d="M20.8906 15.9277C23.3067 12.0179 21.3427 7.20059 19.0711 4.92893C15.1658 1.02369 8.83418 1.02369 4.92893 4.92893C1.02369 8.83418 1.02369 15.1658 4.92893 19.0711C7.29732 21.4395 12.0269 23.3158 15.9282 20.8913C16.1442 20.7571 16.2523 20.6899 16.3347 20.6571C16.4919 20.5945 16.6126 20.5761 16.7812 20.589C16.8697 20.5958 16.9696 20.6217 17.1695 20.6735C18.4273 20.9995 19.0563 21.1626 19.5094 21.0704C20.2958 20.9103 20.9103 20.2958 21.0704 19.5094C21.1626 19.0563 20.9996 18.4274 20.6736 17.1696C20.6218 16.9697 20.5958 16.8698 20.589 16.7816C20.576 16.6129 20.594 16.4936 20.6563 16.3364C20.6889 16.2541 20.7561 16.1453 20.8906 15.9277ZM7.85791 7.10788C7.4437 7.10788 7.10791 7.44367 7.10791 7.85788C7.10791 8.27209 7.4437 8.60788 7.85791 8.60788H15.8579C16.2721 8.60788 16.6079 8.27209 16.6079 7.85788C16.6079 7.44367 16.2721 7.10788 15.8579 7.10788H7.85791ZM7.85791 11.1079C7.4437 11.1079 7.10791 11.4437 7.10791 11.8579C7.10791 12.2721 7.4437 12.6079 7.85791 12.6079H15.8579C16.2721 12.6079 16.6079 12.2721 16.6079 11.8579C16.6079 11.4437 16.2721 11.1079 15.8579 11.1079H7.85791ZM7.85791 15.1079C7.4437 15.1079 7.10791 15.4437 7.10791 15.8579C7.10791 16.2721 7.4437 16.6079 7.85791 16.6079H15.8579C16.2721 16.6079 16.6079 16.2721 16.6079 15.8579C16.6079 15.4437 16.2721 15.1079 15.8579 15.1079H7.85791Z" fill="#2D264B"/>
</svg>
