<svg xmlns="http://www.w3.org/2000/svg" width="24" height="24" viewBox="0 0 24 24">
  <defs/>
  <path fill="#2D264B" d="M8.75,10.75 C8.75,11.302 8.302,11.75 7.75,11.75 C7.198,11.75 6.75,11.302 6.75,10.75 C6.75,10.198 7.198,9.75 7.75,9.75 C8.302,9.75 8.75,10.198 8.75,10.75 Z"/>
  <path fill="#2D264B" d="M12.75,10.75 C12.75,11.302 12.302,11.75 11.75,11.75 C11.198,11.75 10.75,11.302 10.75,10.75 C10.75,10.198 11.198,9.75 11.75,9.75 C12.302,9.75 12.75,10.198 12.75,10.75 Z"/>
  <path fill="#2D264B" d="M16.75,10.75 C16.75,11.302 16.302,11.75 15.75,11.75 C15.198,11.75 14.75,11.302 14.75,10.75 C14.75,10.198 15.198,9.75 15.75,9.75 C16.302,9.75 16.75,10.198 16.75,10.75 Z"/>
  <path fill="#2D264B" d="M21.5,4.75 Q21.5,5.889 20.695,6.695 Q19.889,7.5 18.75,7.5 Q16,7.5 16,4.75 Q16,2 18.75,2 Q21.5,2 21.5,4.75 Z M20,4.75 Q20,4.232 19.634,3.866 Q19.268,3.5 18.75,3.5 Q17.5,3.5 17.5,4.75 Q17.5,6 18.75,6 Q20,6 20,4.75 Z"/>
  <path fill="#2D264B" d="M15.108,3.093 C15.318,2.632 15.045,2.015 14.539,2.007 C14.014,2 13.432,2 12.784,2 L10.716,2 C9.345,2 8.269,2 7.405,2.071 C6.525,2.143 5.798,2.291 5.14,2.627 C4.058,3.178 3.178,4.058 2.627,5.14 C2.291,5.798 2.143,6.525 2.071,7.405 C2,8.269 2,9.345 2,10.716 L2,14.978 C2,17.476 4.024,19.5 6.522,19.5 L7.123,19.5 C7.372,19.5 7.542,19.751 7.45,19.982 C6.763,21.698 8.74,23.25 10.244,22.176 L12.855,20.311 L12.904,20.276 C13.613,19.776 14.458,19.506 15.325,19.5 L15.4,19.5 L15.429,19.5 C15.714,19.5 15.886,19.5 16.022,19.494 C18.984,19.353 21.353,16.984 21.494,14.022 C21.5,13.886 21.5,13.73 21.5,13.473 L21.5,10.716 C21.5,10.068 21.5,9.486 21.492,8.961 C21.485,8.455 20.867,8.182 20.407,8.392 C20.165,8.502 19.989,8.738 19.993,9.005 C20,9.511 20,10.087 20,10.75 L20,13.449 C20,13.737 20,13.855 19.995,13.951 C19.892,16.14 18.14,17.892 15.951,17.995 C15.855,18 15.722,18 15.4,18 L15.316,18 C14.142,18.008 12.999,18.374 12.04,19.05 L11.983,19.09 L9.373,20.955 C9.087,21.159 8.712,20.864 8.842,20.539 C9.329,19.323 8.433,18 7.123,18 L6.522,18 C4.853,18 3.5,16.647 3.5,14.978 L3.5,10.75 C3.5,9.337 3.501,8.323 3.566,7.527 C3.63,6.74 3.754,6.232 3.963,5.821 C4.371,5.021 5.021,4.371 5.821,3.963 C6.232,3.754 6.74,3.63 7.527,3.566 C8.323,3.501 9.337,3.5 10.75,3.5 L12.75,3.5 C13.413,3.5 13.989,3.5 14.495,3.507 C14.762,3.511 14.998,3.335 15.108,3.093 Z"/>
</svg>

