<svg xmlns="http://www.w3.org/2000/svg" width="24" height="24" viewBox="0 0 24 24">
  <defs/>
  <path fill="#2D264B" d="M3.877,4.39 Q4.725,2.725 6.39,1.877 Q7.62,1.25 12,1.25 L14,1.25 Q18.38,1.25 19.61,1.877 Q21.275,2.725 22.123,4.39 Q22.75,5.62 22.75,10 L22.75,14.228 Q22.75,16.101 21.426,17.426 Q20.101,18.75 18.228,18.75 L17.627,18.75 Q17.44,18.75 17.336,18.904 Q17.231,19.059 17.3,19.232 Q17.815,20.519 16.725,21.375 Q15.634,22.232 14.506,21.426 L12.649,20.1 Q12.015,20.326 11.331,20.359 Q11.221,20.364 10.84,20.364 L10.782,20.364 Q9.801,20.37 9.001,20.942 L8.96,20.971 L6.93,22.441 Q5.946,23.153 4.996,22.397 Q4.057,21.65 4.499,20.529 Q4.524,20.467 4.487,20.412 Q4.455,20.364 4.402,20.364 L3.934,20.364 Q0.25,20.364 0.25,16.641 L0.25,13.307 Q0.25,9.818 0.754,8.815 Q1.437,7.457 2.779,6.763 Q3.036,6.631 3.333,6.536 Q3.466,5.196 3.877,4.39 Z M12.748,19.249 L12.429,18.57 Q14.156,17.757 14.246,15.823 Q14.25,15.748 14.25,15.435 L14.25,13.307 Q14.25,10.173 13.906,9.489 Q13.442,8.566 12.532,8.096 Q11.863,7.75 8.778,7.75 L7.222,7.75 Q4.842,7.75 4.174,7.871 Q3.757,7.946 3.468,8.096 Q2.558,8.566 2.094,9.489 Q1.75,10.173 1.75,13.307 L1.75,16.641 Q1.75,17.565 2.393,18.216 Q3.032,18.864 3.934,18.864 L4.402,18.864 Q5.257,18.864 5.734,19.579 Q6.207,20.287 5.894,21.08 Q5.86,21.167 5.93,21.223 Q5.989,21.27 6.05,21.226 L8.081,19.756 L8.123,19.726 Q9.316,18.874 10.772,18.864 L10.838,18.864 Q11.185,18.864 11.259,18.861 Q11.874,18.831 12.429,18.57 L12.748,19.249 Z M4.871,6.299 Q5.755,6.25 7.222,6.25 L8.778,6.25 Q12.227,6.25 13.221,6.763 Q14.563,7.457 15.246,8.816 Q15.75,9.818 15.75,13.307 L15.75,15.435 Q15.75,15.783 15.745,15.894 Q15.643,18.082 14.103,19.295 L15.377,20.205 Q15.592,20.358 15.798,20.196 Q16.005,20.033 15.908,19.789 Q15.543,18.877 16.094,18.063 Q16.644,17.25 17.627,17.25 L18.228,17.25 Q21.25,17.25 21.25,14.228 L21.25,10 Q21.25,5.98 20.787,5.071 Q20.16,3.84 18.93,3.213 Q18.02,2.75 14,2.75 L12,2.75 Q7.98,2.75 7.071,3.213 Q5.84,3.84 5.213,5.071 Q4.982,5.524 4.871,6.299 Z"/>
  <path fill="#2D264B" d="M6,14 C6,14.552 5.552,15 5,15 C4.448,15 4,14.552 4,14 C4,13.448 4.448,13 5,13 C5.552,13 6,13.448 6,14 Z"/>
  <path fill="#2D264B" d="M9,14 C9,14.552 8.552,15 8,15 C7.448,15 7,14.552 7,14 C7,13.448 7.448,13 8,13 C8.552,13 9,13.448 9,14 Z"/>
  <path fill="#2D264B" d="M12,14 C12,14.552 11.552,15 11,15 C10.448,15 10,14.552 10,14 C10,13.448 10.448,13 11,13 C11.552,13 12,13.448 12,14 Z"/>
</svg>

