<svg xmlns="http://www.w3.org/2000/svg" width="24" height="24" viewBox="0 0 24 24">
  <defs/>
  <path fill="#2D264B" d="M4.414,8.761 Q4.935,5.984 6.956,3.96 Q9.662,1.25 13.49,1.25 Q17.318,1.25 20.024,3.96 Q21.895,5.833 22.522,8.505 Q23.266,11.674 21.676,14.236 Q21.54,14.455 21.537,14.463 Q21.528,14.484 21.53,14.509 Q21.531,14.517 21.58,14.707 Q22.039,16.479 21.926,17.034 Q21.603,18.623 20.015,18.946 Q19.461,19.059 17.691,18.6 L17.69,18.6 Q17.501,18.551 17.492,18.55 Q17.469,18.548 17.448,18.556 Q17.44,18.56 17.219,18.696 Q16.319,19.253 15.301,19.518 Q14.933,20.03 14.483,20.481 Q12.955,22.01 10.711,22.548 Q8.018,23.193 5.867,21.862 L5.866,21.861 L5.711,21.764 L5.582,21.799 L5.582,21.799 Q4.095,22.185 3.608,22.085 Q2.215,21.801 1.931,20.407 Q1.832,19.92 2.218,18.432 L2.218,18.431 L2.252,18.302 L2.155,18.147 L2.154,18.146 Q0.816,15.99 1.441,13.327 Q1.966,11.09 3.534,9.52 Q3.947,9.106 4.414,8.761 Z M5.1,9.194 L5.52,9.815 Q5.023,10.151 4.595,10.58 Q1.282,13.897 3.429,17.355 L3.429,17.356 Q3.605,17.639 3.652,17.758 Q3.776,18.07 3.751,18.405 Q3.741,18.533 3.67,18.806 L3.67,18.808 Q3.371,19.961 3.401,20.108 Q3.487,20.53 3.907,20.616 Q4.054,20.645 5.205,20.347 L5.205,20.347 Q5.479,20.276 5.607,20.266 Q5.941,20.24 6.253,20.363 Q6.372,20.411 6.655,20.586 L6.657,20.587 Q10.118,22.729 13.421,19.421 Q13.876,18.965 14.227,18.433 Q17.02,14.184 13.421,10.58 Q9.78,6.935 5.52,9.815 L5.1,9.194 Z M16.364,17.461 Q16.397,17.441 16.43,17.421 Q16.763,17.215 16.895,17.162 Q17.239,17.026 17.608,17.054 Q17.749,17.065 18.068,17.148 L18.068,17.148 Q19.501,17.52 19.716,17.476 Q20.331,17.351 20.456,16.735 Q20.5,16.519 20.128,15.083 Q20.045,14.764 20.034,14.622 Q20.006,14.253 20.143,13.909 Q20.196,13.776 20.402,13.444 Q21.664,11.411 21.062,8.848 Q20.532,6.591 18.963,5.02 Q16.696,2.75 13.49,2.75 Q10.284,2.75 8.017,5.02 Q6.814,6.224 6.246,7.747 Q7.873,7.115 9.711,7.282 Q12.5,7.535 14.483,9.52 Q16.448,11.488 16.714,14.253 Q16.877,15.944 16.364,17.461 Z"/>
  <path fill="#2D264B" d="M11,15 C11,15.552 11.448,16 12,16 C12.552,16 13,15.552 13,15 C13,14.448 12.552,14 12,14 C11.448,14 11,14.448 11,15 Z"/>
  <path fill="#2D264B" d="M8,15 C8,15.552 8.448,16 9,16 C9.552,16 10,15.552 10,15 C10,14.448 9.552,14 9,14 C8.448,14 8,14.448 8,15 Z"/>
  <path fill="#2D264B" d="M5,15 C5,15.552 5.448,16 6,16 C6.552,16 7,15.552 7,15 C7,14.448 6.552,14 6,14 C5.448,14 5,14.448 5,15 Z"/>
</svg>

