<svg width="24" height="24" viewBox="0 0 24 24" fill="none" xmlns="http://www.w3.org/2000/svg">
<path d="M3.02332 5C3.02332 6.10457 3.91875 7 5.02332 7C6.12788 7 7.02332 6.10457 7.02332 5C7.02332 3.89543 6.12788 3 5.02332 3C3.91875 3 3.02332 3.89543 3.02332 5Z" fill="#2D264B"/>
<path fill-rule="evenodd" clip-rule="evenodd" d="M5.02332 8C4.31377 8 3.66176 7.75367 3.14813 7.34186C1.16014 11.1168 1.75373 15.8959 4.9289 19.0711C7.20055 21.3427 12.0179 23.3067 15.9277 20.8906C16.1453 20.7561 16.2541 20.6889 16.3363 20.6563C16.4936 20.594 16.6129 20.576 16.7815 20.589C16.8697 20.5958 16.9697 20.6217 17.1695 20.6735C18.4273 20.9996 19.0563 21.1626 19.5094 21.0704C20.2957 20.9103 20.9103 20.2958 21.0703 19.5094C21.1625 19.0563 20.9995 18.4274 20.6735 17.1696C20.6217 16.9697 20.5958 16.8697 20.589 16.7812C20.5761 16.6126 20.5945 16.4919 20.657 16.3347C20.6899 16.2523 20.757 16.1442 20.8913 15.9282C23.3158 12.0269 21.4394 7.29732 19.071 4.92893C15.9042 1.76206 11.1417 1.16329 7.37143 3.13264C7.77948 3.64505 8.02332 4.29405 8.02332 5C8.02332 6.65685 6.68017 8 5.02332 8ZM14.9706 11.8578C14.9706 12.4101 15.4183 12.8578 15.9706 12.8578C16.5229 12.8578 16.9706 12.4101 16.9706 11.8578C16.9706 11.3055 16.5229 10.8578 15.9706 10.8578C15.4183 10.8578 14.9706 11.3055 14.9706 11.8578ZM10.9706 11.8578C10.9706 12.4101 11.4183 12.8578 11.9706 12.8578C12.5229 12.8578 12.9706 12.4101 12.9706 11.8578C12.9706 11.3055 12.5229 10.8578 11.9706 10.8578C11.4183 10.8578 10.9706 11.3055 10.9706 11.8578ZM7.97058 12.8578C7.4183 12.8578 6.97058 12.4101 6.97058 11.8578C6.97058 11.3055 7.4183 10.8578 7.97058 10.8578C8.52287 10.8578 8.97058 11.3055 8.97058 11.8578C8.97058 12.4101 8.52287 12.8578 7.97058 12.8578Z" fill="#2D264B"/>
</svg>
