<svg xmlns="http://www.w3.org/2000/svg" width="24" height="24" viewBox="0 0 24 24">
  <defs/>
  <path fill="#2D264B" d="M3.108,15.928 C0.691,12.018 2.655,7.201 4.927,4.929 C8.832,1.024 15.164,1.024 19.069,4.929 C22.975,8.834 22.975,15.166 19.069,19.071 C16.701,21.44 11.971,23.316 8.07,20.891 C7.854,20.757 7.746,20.69 7.663,20.657 C7.506,20.594 7.386,20.576 7.217,20.589 C7.128,20.596 7.029,20.622 6.829,20.674 L6.827,20.674 C5.57,21 4.942,21.163 4.489,21.07 C3.702,20.91 3.088,20.296 2.928,19.509 C2.836,19.056 2.999,18.427 3.325,17.17 C3.376,16.97 3.402,16.87 3.409,16.782 C3.422,16.613 3.404,16.494 3.342,16.336 C3.309,16.254 3.242,16.145 3.108,15.928 Z M16.14,15.108 L8.14,15.108 C7.726,15.108 7.39,15.444 7.39,15.858 C7.39,16.272 7.726,16.608 8.14,16.608 L16.14,16.608 C16.555,16.608 16.89,16.272 16.89,15.858 C16.89,15.444 16.555,15.108 16.14,15.108 Z M16.14,7.108 L8.14,7.108 C7.726,7.108 7.39,7.444 7.39,7.858 C7.39,8.272 7.726,8.608 8.14,8.608 L16.14,8.608 C16.555,8.608 16.89,8.272 16.89,7.858 C16.89,7.444 16.555,7.108 16.14,7.108 Z M16.14,11.108 L8.14,11.108 C7.726,11.108 7.39,11.444 7.39,11.858 C7.39,12.272 7.726,12.608 8.14,12.608 L16.14,12.608 C16.555,12.608 16.89,12.272 16.89,11.858 C16.89,11.444 16.555,11.108 16.14,11.108 Z"/>
</svg>

