<svg xmlns="http://www.w3.org/2000/svg" width="24" height="24" viewBox="0 0 24 24">
  <defs/>
  <path fill="#2D264B" d="M12.994,4.75 C13.408,4.75 13.744,4.414 13.744,4 C13.744,3.586 13.408,3.25 12.994,3.25 L12.994,4.75 Z M21.661,10.796 C21.604,10.386 21.225,10.1 20.815,10.157 C20.405,10.214 20.118,10.592 20.175,11.003 L21.661,10.796 Z M4.99,7.737 L5.52,7.206 L5.511,7.197 L5.501,7.188 L4.99,7.737 Z M17.518,10.383 C17.817,10.097 17.828,9.622 17.542,9.322 C17.256,9.023 16.781,9.012 16.482,9.298 L17.518,10.383 Z M11.37,4.75 L12.994,4.75 L12.994,3.25 L11.37,3.25 L11.37,4.75 Z M12.994,19.25 L11.37,19.25 L11.37,20.75 L12.994,20.75 L12.994,19.25 Z M11.37,19.25 C9.771,19.25 8.62,19.249 7.724,19.172 C6.836,19.096 6.277,18.949 5.84,18.704 L5.104,20.011 C5.81,20.408 6.614,20.582 7.596,20.667 C8.571,20.751 9.798,20.75 11.37,20.75 L11.37,19.25 Z M2.703,10.796 C2.487,12.353 2.317,13.569 2.266,14.546 C2.215,15.53 2.277,16.351 2.573,17.104 L3.969,16.555 C3.786,16.089 3.718,15.515 3.764,14.624 C3.811,13.726 3.969,12.586 4.189,11.003 L2.703,10.796 Z M5.84,18.704 C4.988,18.224 4.327,17.465 3.969,16.555 L2.573,17.104 C3.057,18.335 3.951,19.362 5.104,20.011 L5.84,18.704 Z M20.175,11.003 C20.395,12.586 20.553,13.726 20.6,14.624 C20.646,15.515 20.578,16.089 20.395,16.555 L21.791,17.104 C22.087,16.351 22.149,15.53 22.098,14.546 C22.047,13.569 21.877,12.353 21.661,10.796 L20.175,11.003 Z M12.994,20.75 C14.566,20.75 15.793,20.751 16.768,20.667 C17.75,20.582 18.555,20.408 19.26,20.011 L18.524,18.704 C18.088,18.949 17.528,19.096 16.64,19.172 C15.744,19.249 14.593,19.25 12.994,19.25 L12.994,20.75 Z M20.395,16.555 C20.037,17.465 19.376,18.224 18.524,18.704 L19.26,20.011 C20.413,19.362 21.307,18.335 21.791,17.104 L20.395,16.555 Z M11.37,3.25 C10.147,3.25 9.187,3.249 8.411,3.309 C7.625,3.369 6.97,3.494 6.362,3.773 L6.987,5.137 C7.37,4.961 7.829,4.858 8.526,4.805 C9.232,4.751 10.124,4.75 11.37,4.75 L11.37,3.25 Z M4.189,11.003 C4.457,9.075 4.608,8.023 4.898,7.27 L3.499,6.73 C3.13,7.685 2.959,8.95 2.703,10.796 L4.189,11.003 Z M4.898,7.27 C4.98,7.059 5.07,6.878 5.175,6.714 L3.91,5.908 C3.746,6.164 3.612,6.436 3.499,6.73 L4.898,7.27 Z M6.362,3.773 C5.356,4.234 4.505,4.975 3.91,5.908 L5.175,6.714 C5.614,6.025 6.244,5.477 6.987,5.137 L6.362,3.773 Z M5.501,7.188 L4.71,6.451 L3.687,7.549 L4.478,8.286 L5.501,7.188 Z M4.459,8.267 C6.111,9.919 7.402,11.212 8.544,12.083 C9.703,12.967 10.795,13.487 12.061,13.487 L12.061,11.987 C11.255,11.987 10.479,11.673 9.453,10.89 C8.411,10.095 7.202,8.888 5.52,7.206 L4.459,8.267 Z M16.482,9.298 C14.441,11.248 13.3,11.987 12.061,11.987 L12.061,13.487 C13.973,13.487 15.517,12.294 17.518,10.383 L16.482,9.298 Z M20.25,5 C20.25,5.69 19.69,6.25 19,6.25 L19,7.75 C20.519,7.75 21.75,6.519 21.75,5 L20.25,5 Z M19,6.25 C18.31,6.25 17.75,5.69 17.75,5 L16.25,5 C16.25,6.519 17.481,7.75 19,7.75 L19,6.25 Z M17.75,5 C17.75,4.31 18.31,3.75 19,3.75 L19,2.25 C17.481,2.25 16.25,3.481 16.25,5 L17.75,5 Z M19,3.75 C19.69,3.75 20.25,4.31 20.25,5 L21.75,5 C21.75,3.481 20.519,2.25 19,2.25 L19,3.75 Z"/>
</svg>

