<svg xmlns="http://www.w3.org/2000/svg" width="24" height="24" viewBox="0 0 24 24">
  <defs/>
  <path fill="#2D264B" d="M5,13.25 C4.586,13.25 4.25,13.586 4.25,14 C4.25,14.414 4.586,14.75 5,14.75 L5,13.25 Z M11,14.75 C11.414,14.75 11.75,14.414 11.75,14 C11.75,13.586 11.414,13.25 11,13.25 L11,14.75 Z M12,2.75 L14,2.75 L14,1.25 L12,1.25 L12,2.75 Z M21.25,10 L21.25,14.228 L22.75,14.228 L22.75,10 L21.25,10 Z M18.228,17.25 L17.627,17.25 L17.627,18.75 L18.228,18.75 L18.228,17.25 Z M17.627,17.25 C16.317,17.25 15.421,18.573 15.908,19.789 L17.3,19.232 C17.208,19.001 17.378,18.75 17.627,18.75 L17.627,17.25 Z M15.908,19.789 C16.038,20.114 15.663,20.409 15.377,20.205 L14.506,21.426 C16.01,22.5 17.987,20.948 17.3,19.232 L15.908,19.789 Z M21.25,14.228 C21.25,15.897 19.897,17.25 18.228,17.25 L18.228,18.75 C20.726,18.75 22.75,16.726 22.75,14.228 L21.25,14.228 Z M14,2.75 C15.412,2.75 16.427,2.751 17.223,2.816 C18.01,2.88 18.518,3.004 18.93,3.213 L19.61,1.877 C18.952,1.541 18.225,1.393 17.345,1.321 C16.474,1.249 15.388,1.25 14,1.25 L14,2.75 Z M22.75,10 C22.75,8.612 22.751,7.526 22.679,6.655 C22.608,5.775 22.459,5.048 22.123,4.39 L20.787,5.071 C20.996,5.482 21.12,5.99 21.184,6.777 C21.249,7.573 21.25,8.587 21.25,10 L22.75,10 Z M18.93,3.213 C19.729,3.621 20.379,4.271 20.787,5.071 L22.123,4.39 C21.572,3.308 20.692,2.428 19.61,1.877 L18.93,3.213 Z M12,1.25 C10.612,1.25 9.526,1.249 8.655,1.321 C7.775,1.393 7.048,1.541 6.39,1.877 L7.071,3.213 C7.482,3.004 7.99,2.88 8.777,2.816 C9.573,2.751 10.588,2.75 12,2.75 L12,1.25 Z M6.39,1.877 C5.308,2.428 4.428,3.308 3.877,4.39 L5.213,5.071 C5.621,4.271 6.271,3.621 7.071,3.213 L6.39,1.877 Z M8.778,6.25 L7.222,6.25 L7.222,7.75 L8.778,7.75 L8.778,6.25 Z M0.25,13.307 L0.25,16.641 L1.75,16.641 L1.75,13.307 L0.25,13.307 Z M15.75,15.435 L15.75,13.307 L14.25,13.307 L14.25,15.435 L15.75,15.435 Z M3.934,20.364 L4.402,20.364 L4.402,18.864 L3.934,18.864 L3.934,20.364 Z M6.93,22.441 L8.96,20.971 L8.081,19.756 L6.05,21.226 L6.93,22.441 Z M8.96,20.971 C8.982,20.956 8.99,20.95 8.998,20.944 L8.126,19.723 C8.113,19.732 8.101,19.742 8.081,19.756 L8.96,20.971 Z M10.839,18.864 C10.807,18.864 10.788,18.864 10.772,18.864 L10.782,20.364 C10.791,20.364 10.805,20.364 10.839,20.364 L10.839,18.864 Z M8.998,20.944 C9.521,20.57 10.144,20.368 10.782,20.364 L10.772,18.864 C9.823,18.87 8.9,19.171 8.126,19.723 L8.998,20.944 Z M4.402,20.364 C4.435,20.364 4.464,20.378 4.487,20.412 C4.51,20.447 4.516,20.487 4.499,20.529 L5.894,21.08 C6.308,20.032 5.552,18.864 4.402,18.864 L4.402,20.364 Z M4.499,20.529 C3.922,21.992 5.591,23.41 6.93,22.441 L6.05,21.226 C6.015,21.252 5.997,21.25 5.991,21.25 C5.978,21.249 5.955,21.243 5.93,21.223 C5.905,21.203 5.891,21.18 5.885,21.161 C5.882,21.148 5.877,21.124 5.894,21.08 L4.499,20.529 Z M14.25,15.435 C14.25,15.664 14.25,15.752 14.246,15.824 L15.745,15.894 C15.75,15.778 15.75,15.647 15.75,15.435 L14.25,15.435 Z M10.839,20.364 C11.072,20.364 11.216,20.364 11.331,20.359 L11.259,18.861 C11.19,18.864 11.092,18.864 10.839,18.864 L10.839,20.364 Z M0.25,16.641 C0.25,18.687 1.89,20.364 3.934,20.364 L3.934,18.864 C2.737,18.864 1.75,17.878 1.75,16.641 L0.25,16.641 Z M1.75,13.307 C1.75,12.191 1.751,11.399 1.801,10.778 C1.85,10.166 1.944,9.788 2.094,9.489 L0.754,8.815 C0.48,9.36 0.362,9.955 0.305,10.658 C0.249,11.352 0.25,12.215 0.25,13.307 L1.75,13.307 Z M2.779,6.763 C1.906,7.214 1.197,7.933 0.754,8.815 L2.094,9.489 C2.396,8.888 2.878,8.401 3.468,8.096 L2.779,6.763 Z M8.778,7.75 C9.879,7.75 10.66,7.751 11.27,7.801 C11.871,7.851 12.241,7.945 12.533,8.096 L13.221,6.763 C12.681,6.484 12.09,6.364 11.394,6.306 C10.707,6.249 9.854,6.25 8.778,6.25 L8.778,7.75 Z M15.75,13.307 C15.75,12.215 15.751,11.352 15.695,10.658 C15.638,9.955 15.52,9.36 15.246,8.815 L13.906,9.489 C14.056,9.788 14.15,10.166 14.199,10.778 C14.249,11.399 14.25,12.191 14.25,13.307 L15.75,13.307 Z M12.533,8.096 C13.122,8.401 13.604,8.888 13.906,9.489 L15.246,8.815 C14.803,7.933 14.095,7.214 13.221,6.763 L12.533,8.096 Z M5,14.75 L11,14.75 L11,13.25 L5,13.25 L5,14.75 Z M7.222,6.25 C5.781,6.25 4.724,6.247 3.907,6.395 L4.174,7.871 C4.825,7.753 5.718,7.75 7.222,7.75 L7.222,6.25 Z M3.907,6.395 C3.499,6.469 3.129,6.583 2.779,6.763 L3.468,8.096 C3.657,7.998 3.879,7.924 4.174,7.871 L3.907,6.395 Z M4.789,7.173 C4.843,6.154 4.969,5.549 5.213,5.071 L3.877,4.39 C3.489,5.151 3.349,6.009 3.291,7.093 L4.789,7.173 Z M14.246,15.824 C14.189,17.047 13.459,18.085 12.429,18.57 L13.068,19.927 C14.592,19.209 15.661,17.682 15.745,15.894 L14.246,15.824 Z M12.429,18.57 C12.071,18.738 11.676,18.84 11.259,18.861 L11.331,20.359 C11.949,20.329 12.536,20.178 13.068,19.927 L12.429,18.57 Z M15.377,20.205 L13.184,18.638 L12.312,19.859 L14.506,21.426 L15.377,20.205 Z"/>
</svg>

