<svg xmlns="http://www.w3.org/2000/svg" width="24" height="24" viewBox="0 0 24 24">
  <defs/>
  <path fill="#2D264B" d="M4.142,6.065 C4.891,6 5.838,6 7.111,6 L8.889,6 C11.378,6 12.623,6 13.573,6.487 C14.41,6.915 15.089,7.599 15.516,8.439 C16,9.395 16,10.646 16,13.148 L16,15.559 C16,15.809 16,15.934 15.995,16.04 C15.917,17.69 14.954,19.103 13.57,19.811 L14.941,20.789 C15.836,21.428 17.013,20.506 16.604,19.486 C16.315,18.764 16.848,17.978 17.627,17.978 L18.228,17.978 C20.311,17.978 22,16.292 22,14.211 L22,9.989 C22,7.193 22,5.794 21.455,4.726 C20.976,3.787 20.211,3.023 19.27,2.544 C18.2,2 16.8,2 14,2 L12,2 C9.2,2 7.8,2 6.73,2.544 C5.789,3.023 5.024,3.787 4.545,4.726 C4.348,5.113 4.222,5.542 4.142,6.065 Z"/>
  <path fill="#2D264B" d="M14.576,9.152 C15,9.996 15,11.099 15,13.307 L15,15.435 C15,15.655 15,15.766 14.996,15.859 C14.901,17.889 13.298,19.514 11.295,19.61 C11.203,19.614 11.082,19.614 10.839,19.614 L10.777,19.614 C9.983,19.619 9.21,19.87 8.562,20.334 L8.521,20.364 L6.49,21.834 C5.794,22.338 4.879,21.61 5.197,20.805 C5.422,20.235 5.008,19.614 4.402,19.614 L3.934,19.614 C2.313,19.614 1,18.283 1,16.641 L1,13.307 C1,11.099 1,9.996 1.424,9.152 C1.797,8.411 2.392,7.808 3.123,7.43 C3.955,7 5.044,7 7.222,7 L8.778,7 C10.956,7 12.045,7 12.877,7.43 C13.608,7.808 14.203,8.411 14.576,9.152 Z M11,15 C11.552,15 12,14.552 12,14 C12,13.448 11.552,13 11,13 C10.448,13 10,13.448 10,14 C10,14.552 10.448,15 11,15 Z M9,14 C9,13.448 8.552,13 8,13 C7.448,13 7,13.448 7,14 C7,14.552 7.448,15 8,15 C8.552,15 9,14.552 9,14 Z M5,15 C5.552,15 6,14.552 6,14 C6,13.448 5.552,13 5,13 C4.448,13 4,13.448 4,14 C4,14.552 4.448,15 5,15 Z"/>
</svg>

