<svg width="24" height="24" viewBox="0 0 24 24" fill="none" xmlns="http://www.w3.org/2000/svg">
<path fill-rule="evenodd" clip-rule="evenodd" d="M6.26246 21.2246C8.99613 22.9161 12.3643 21.5411 13.9526 19.9508C16.6831 17.2169 16.6831 12.7844 13.9526 10.0504C11.2221 7.31652 6.79516 7.31652 4.06468 10.0504C2.40874 11.7085 1.09684 15.0195 2.79199 17.7506C2.88587 17.9019 2.93281 17.9775 2.95577 18.0352C2.99953 18.1453 3.01239 18.2297 3.00334 18.3478C2.99859 18.4098 2.98048 18.4797 2.94425 18.6197C2.71631 19.5002 2.60234 19.9405 2.66681 20.2577C2.7787 20.8082 3.2084 21.2384 3.75821 21.3505C4.075 21.415 4.51471 21.3009 5.39414 21.0727C5.53388 21.0364 5.60379 21.0183 5.66546 21.0135C5.78338 21.0044 5.86678 21.017 5.97675 21.0606C6.03426 21.0834 6.11033 21.1305 6.26246 21.2246ZM11.9478 14.25C12.362 14.25 12.6978 14.5858 12.6978 15C12.6978 15.4142 12.362 15.75 11.9478 15.75L5.94776 15.75C5.53355 15.75 5.19776 15.4142 5.19776 15C5.19776 14.5858 5.53355 14.25 5.94776 14.25L11.9478 14.25Z" fill="#2D264B"/>
<path d="M5.36934 7.84948C8.36408 6.34256 12.1079 6.84052 14.6076 9.34336C17.0454 11.7843 17.5788 15.41 16.2076 18.3693C16.398 18.277 16.5865 18.1736 16.7725 18.0585C16.9572 17.9441 17.0496 17.887 17.1195 17.8593C17.253 17.8064 17.3543 17.791 17.4974 17.8021C17.5723 17.8079 17.6572 17.8299 17.8268 17.874C18.8947 18.1511 19.4287 18.2897 19.8134 18.2113C20.481 18.0753 21.0028 17.5528 21.1387 16.8843C21.217 16.4992 21.0786 15.9646 20.8018 14.8954C20.7578 14.7254 20.7358 14.6404 20.73 14.5652C20.719 14.4218 20.7346 14.3192 20.7878 14.1856C20.8157 14.1155 20.8727 14.0237 20.9866 13.8401C23.045 10.5236 21.452 6.50314 19.4412 4.48982C16.1257 1.17006 10.75 1.17006 7.43445 4.48982C6.45924 5.46626 5.77087 6.62113 5.36934 7.84948Z" fill="#2D264B"/>
</svg>
