<svg xmlns="http://www.w3.org/2000/svg" width="24" height="24" viewBox="0 0 24 24">
  <defs/>
  <path fill="#2D264B" d="M6.781,18.696 Q6.56,18.56 6.552,18.556 Q6.531,18.548 6.508,18.55 Q6.499,18.551 6.309,18.6 L6.308,18.6 Q4.539,19.059 3.985,18.946 Q2.397,18.623 2.074,17.034 Q1.961,16.479 2.42,14.707 Q2.469,14.517 2.47,14.508 Q2.472,14.485 2.463,14.463 Q2.46,14.455 2.324,14.236 L2.324,14.236 Q0.734,11.674 1.478,8.505 Q2.105,5.833 3.976,3.96 Q6.682,1.25 10.51,1.25 Q14.338,1.25 17.044,3.96 Q19.065,5.984 19.587,8.761 Q20.053,9.106 20.466,9.52 Q22.034,11.09 22.559,13.327 Q23.184,15.99 21.846,18.146 L21.748,18.302 L21.782,18.431 L21.782,18.432 Q22.168,19.92 22.069,20.407 Q21.785,21.801 20.392,22.085 Q19.905,22.185 18.418,21.799 L18.418,21.799 L18.289,21.764 L18.136,21.86 L18.133,21.862 Q15.982,23.193 13.289,22.548 Q11.045,22.01 9.517,20.481 Q9.067,20.03 8.699,19.518 Q7.681,19.253 6.781,18.696 Z M9.773,18.433 Q10.124,18.965 10.579,19.421 Q13.882,22.729 17.343,20.587 L17.348,20.584 Q17.629,20.41 17.747,20.363 Q18.059,20.24 18.393,20.266 Q18.521,20.276 18.795,20.347 L18.795,20.347 Q19.946,20.645 20.093,20.616 Q20.513,20.53 20.599,20.108 Q20.629,19.961 20.33,18.808 L20.33,18.806 Q20.259,18.533 20.249,18.404 Q20.224,18.071 20.348,17.759 Q20.396,17.638 20.571,17.355 Q22.718,13.897 19.405,10.58 Q18.977,10.152 18.48,9.815 Q14.22,6.935 10.579,10.58 Q6.98,14.184 9.773,18.433 Z M17.754,7.747 Q17.186,6.224 15.983,5.02 Q13.716,2.75 10.51,2.75 Q7.304,2.75 5.037,5.02 Q3.468,6.591 2.938,8.848 Q2.336,11.411 3.598,13.444 L3.598,13.445 Q3.804,13.776 3.857,13.908 Q3.994,14.253 3.966,14.622 Q3.955,14.764 3.872,15.083 Q3.5,16.52 3.544,16.735 Q3.669,17.351 4.284,17.476 Q4.499,17.52 5.932,17.148 L5.932,17.148 Q6.251,17.065 6.392,17.054 Q6.761,17.026 7.105,17.162 Q7.237,17.215 7.57,17.421 Q7.603,17.441 7.636,17.461 Q7.123,15.944 7.286,14.253 Q7.552,11.488 9.517,9.52 Q11.5,7.535 14.289,7.282 Q16.127,7.115 17.754,7.747 Z"/>
  <path fill="#2D264B" d="M13,15 C13,15.552 12.552,16 12,16 C11.448,16 11,15.552 11,15 C11,14.448 11.448,14 12,14 C12.552,14 13,14.448 13,15 Z"/>
  <path fill="#2D264B" d="M16,15 C16,15.552 15.552,16 15,16 C14.448,16 14,15.552 14,15 C14,14.448 14.448,14 15,14 C15.552,14 16,14.448 16,15 Z"/>
  <path fill="#2D264B" d="M19,15 C19,15.552 18.552,16 18,16 C17.448,16 17,15.552 17,15 C17,14.448 17.448,14 18,14 C18.552,14 19,14.448 19,15 Z"/>
</svg>

