<svg width="24" height="24" viewBox="0 0 24 24" fill="none" xmlns="http://www.w3.org/2000/svg">
<path d="M15.5 6C15.5 7.1696 16.0737 8.20521 16.955 8.84077C16.071 9.70359 15.3355 10.3813 14.668 10.8905C13.6425 11.673 12.8664 11.9868 12.0608 11.9868C11.2552 11.9868 10.4791 11.673 9.45355 10.8905C8.41074 10.0949 7.20172 8.88812 5.52006 7.20646L4.5747 6.2611C5.09026 5.47367 5.81789 4.84739 6.6742 4.45483C7.66636 4 8.90089 4 11.3699 4H12.9941C14.332 4 15.3074 4 16.0782 4.07236C15.7128 4.62516 15.5 5.28773 15.5 6Z" fill="#2D264B"/>
<path d="M20.6554 9.08456C20.1625 9.34962 19.5988 9.5 19 9.5C18.8183 9.5 18.6399 9.48616 18.4657 9.45948C17.3619 10.5508 16.4285 11.4341 15.5779 12.0831C14.419 12.9673 13.3263 13.4868 12.0608 13.4868C10.7953 13.4868 9.70261 12.9673 8.54368 12.0831C7.41142 11.2192 6.13225 9.93999 4.49998 8.30771L3.96231 7.77004C3.77432 8.53557 3.63702 9.52416 3.44601 10.8995C3.00983 14.0399 2.79175 15.6101 3.27127 16.8297C3.69225 17.9003 4.46954 18.793 5.47208 19.3573C6.61405 20 8.19934 20 11.3699 20H12.9941C16.1647 20 17.75 20 18.892 19.3573C19.8945 18.793 20.6718 17.9003 21.0928 16.8297C21.5723 15.6101 21.3542 14.0399 20.9181 10.8995C20.8212 10.2022 20.7382 9.60435 20.6554 9.08456Z" fill="#2D264B"/>
<path d="M21 6C21 7.10457 20.1046 8 19 8C17.8954 8 17 7.10457 17 6C17 4.89543 17.8954 4 19 4C20.1046 4 21 4.89543 21 6Z" fill="#2D264B"/>
</svg>
