<svg width="24" height="24" viewBox="0 0 24 24" fill="none" xmlns="http://www.w3.org/2000/svg">
<path fill-rule="evenodd" clip-rule="evenodd" d="M8.09562 20.8906C12.0054 23.3067 16.8228 21.3427 19.0944 19.0711C22.9997 15.1658 22.9997 8.83418 19.0944 4.92893C15.1892 1.02369 8.85752 1.02369 4.95228 4.92893C2.58389 7.29732 0.707556 12.0269 3.13203 15.9282C3.26629 16.1442 3.33344 16.2523 3.36627 16.3347C3.42886 16.4919 3.44725 16.6126 3.43431 16.7812C3.42752 16.8697 3.40161 16.9697 3.34979 17.1696C3.02378 18.4274 2.86078 19.0563 2.95298 19.5094C3.11302 20.2958 3.72759 20.9103 4.51396 21.0704C4.96704 21.1626 5.59593 20.9996 6.85373 20.6736C7.05359 20.6218 7.15357 20.5958 7.24178 20.589C7.41043 20.576 7.52971 20.594 7.68699 20.6563C7.76925 20.6889 7.87804 20.7561 8.09562 20.8906ZM9.05273 11.8578C9.05273 12.4101 8.60502 12.8578 8.05273 12.8578C7.50045 12.8578 7.05273 12.4101 7.05273 11.8578C7.05273 11.3055 7.50045 10.8578 8.05273 10.8578C8.60502 10.8578 9.05273 11.3055 9.05273 11.8578ZM13.0527 11.8578C13.0527 12.4101 12.605 12.8578 12.0527 12.8578C11.5005 12.8578 11.0527 12.4101 11.0527 11.8578C11.0527 11.3055 11.5005 10.8578 12.0527 10.8578C12.605 10.8578 13.0527 11.3055 13.0527 11.8578ZM16.0527 12.8578C16.605 12.8578 17.0527 12.4101 17.0527 11.8578C17.0527 11.3055 16.605 10.8578 16.0527 10.8578C15.5005 10.8578 15.0527 11.3055 15.0527 11.8578C15.0527 12.4101 15.5005 12.8578 16.0527 12.8578Z" fill="#2D264B"/>
</svg>
