<svg xmlns="http://www.w3.org/2000/svg" width="24" height="24" viewBox="0 0 24 24">
  <defs/>
  <path fill="#2D264B" d="M1.93,5.328 Q2.108,4.951 2.348,4.62 Q2.883,3.883 3.62,3.348 Q5.132,2.25 11,2.25 L13,2.25 Q18.868,2.25 20.38,3.348 Q21.117,3.883 21.652,4.62 Q21.882,4.936 22.055,5.295 L21.379,5.621 L22.055,5.295 Q22.75,6.739 22.75,12 Q22.75,17.868 21.652,19.38 Q21.117,20.117 20.38,20.652 Q18.868,21.75 13,21.75 L11,21.75 Q5.132,21.75 3.62,20.652 Q2.883,20.117 2.348,19.38 Q1.25,17.868 1.25,12 Q1.25,6.768 1.93,5.328 Z M20.998,7.063 L19.601,8.459 L19.601,8.459 Q14.382,13.679 12,13.679 Q9.618,13.679 4.399,8.459 L3.001,7.062 Q2.75,8.651 2.75,12 Q2.75,17.381 3.562,18.498 Q3.957,19.043 4.502,19.438 Q5.619,20.25 11,20.25 L13,20.25 Q18.381,20.25 19.498,19.438 Q20.043,19.043 20.438,18.498 Q21.25,17.381 21.25,12 Q21.25,8.658 20.998,7.063 Z M3.562,5.501 L5.459,7.399 Q10.24,12.179 12,12.179 Q13.76,12.179 18.541,7.399 L18.541,7.399 L20.438,5.501 Q20.042,4.957 19.498,4.562 Q18.381,3.75 13,3.75 L11,3.75 Q5.619,3.75 4.502,4.562 Q3.958,4.957 3.562,5.501 Z"/>
</svg>

