<svg xmlns="http://www.w3.org/2000/svg" width="24" height="24" viewBox="0 0 24 24">
  <defs/>
  <path fill="#2D264B" d="M3.023,5 C3.023,6.105 3.919,7 5.023,7 C6.128,7 7.023,6.105 7.023,5 C7.023,3.895 6.128,3 5.023,3 C3.919,3 3.023,3.895 3.023,5 Z"/>
  <path fill="#2D264B" d="M5.023,8 C6.68,8 8.023,6.657 8.023,5 C8.023,4.294 7.779,3.645 7.371,3.133 C11.142,1.163 15.904,1.762 19.071,4.929 C21.439,7.297 23.316,12.027 20.891,15.928 C20.757,16.144 20.69,16.252 20.657,16.335 C20.594,16.492 20.576,16.613 20.589,16.781 C20.596,16.87 20.622,16.97 20.674,17.17 C21,18.427 21.163,19.056 21.07,19.509 C20.91,20.296 20.296,20.91 19.509,21.07 C19.056,21.163 18.427,21 17.17,20.674 C16.97,20.622 16.87,20.596 16.781,20.589 C16.613,20.576 16.494,20.594 16.336,20.656 C16.254,20.689 16.145,20.756 15.928,20.891 C12.018,23.307 7.201,21.343 4.929,19.071 C1.754,15.896 1.16,11.117 3.148,7.342 C3.662,7.754 4.314,8 5.023,8 Z M10.971,11.858 C10.971,12.41 11.418,12.858 11.971,12.858 C12.523,12.858 12.971,12.41 12.971,11.858 C12.971,11.306 12.523,10.858 11.971,10.858 C11.418,10.858 10.971,11.306 10.971,11.858 Z M14.971,11.858 C14.971,12.41 15.418,12.858 15.971,12.858 C16.523,12.858 16.971,12.41 16.971,11.858 C16.971,11.306 16.523,10.858 15.971,10.858 C15.418,10.858 14.971,11.306 14.971,11.858 Z M7.971,12.858 C8.523,12.858 8.971,12.41 8.971,11.858 C8.971,11.306 8.523,10.858 7.971,10.858 C7.418,10.858 6.971,11.306 6.971,11.858 C6.971,12.41 7.418,12.858 7.971,12.858 Z"/>
</svg>

