<svg xmlns="http://www.w3.org/2000/svg" width="24" height="24" viewBox="0 0 24 24">
  <defs/>
  <path fill="#2D264B" d="M8.053,15.108 C7.639,15.108 7.303,15.444 7.303,15.858 C7.303,16.272 7.639,16.608 8.053,16.608 L8.053,15.108 Z M16.053,16.608 C16.467,16.608 16.803,16.272 16.803,15.858 C16.803,15.444 16.467,15.108 16.053,15.108 L16.053,16.608 Z M8.053,11.108 C7.639,11.108 7.303,11.444 7.303,11.858 C7.303,12.272 7.639,12.608 8.053,12.608 L8.053,11.108 Z M16.053,12.608 C16.467,12.608 16.803,12.272 16.803,11.858 C16.803,11.444 16.467,11.108 16.053,11.108 L16.053,12.608 Z M8.053,7.108 C7.639,7.108 7.303,7.444 7.303,7.858 C7.303,8.272 7.639,8.608 8.053,8.608 L8.053,7.108 Z M16.053,8.608 C16.467,8.608 16.803,8.272 16.803,7.858 C16.803,7.444 16.467,7.108 16.053,7.108 L16.053,8.608 Z M5.483,5.459 C9.095,1.847 14.952,1.847 18.564,5.459 L19.625,4.399 C15.427,0.2 8.62,0.2 4.422,4.399 L5.483,5.459 Z M18.564,5.459 C22.176,9.072 22.176,14.928 18.564,18.541 L19.625,19.601 C23.823,15.403 23.823,8.597 19.625,4.399 L18.564,5.459 Z M3.769,15.532 C2.683,13.785 2.548,11.84 2.975,10.025 C3.404,8.199 4.394,6.548 5.483,5.459 L4.422,4.399 C3.142,5.678 2.01,7.576 1.515,9.682 C1.017,11.799 1.156,14.17 2.495,16.324 L3.769,15.532 Z M18.564,18.541 C17.526,19.579 15.877,20.569 14.035,21.009 C12.203,21.448 10.237,21.332 8.49,20.253 L7.701,21.529 C9.864,22.865 12.261,22.976 14.384,22.468 C16.496,21.963 18.391,20.835 19.625,19.601 L18.564,18.541 Z M8.49,20.253 C8.307,20.139 8.124,20.023 7.963,19.959 L7.411,21.354 C7.398,21.349 7.407,21.351 7.463,21.383 C7.517,21.415 7.589,21.459 7.701,21.529 L8.49,20.253 Z M7.042,21.4 C7.146,21.372 7.208,21.357 7.255,21.346 C7.299,21.336 7.307,21.336 7.3,21.337 L7.184,19.841 C7.013,19.855 6.835,19.904 6.666,19.948 L7.042,21.4 Z M7.963,19.959 C7.7,19.855 7.466,19.819 7.184,19.841 L7.3,21.337 C7.342,21.334 7.355,21.336 7.357,21.336 C7.358,21.336 7.371,21.338 7.411,21.354 L7.963,19.959 Z M4.076,17.358 C4.12,17.189 4.169,17.01 4.182,16.839 L2.687,16.724 C2.687,16.717 2.687,16.724 2.677,16.768 C2.667,16.815 2.651,16.877 2.624,16.981 L4.076,17.358 Z M2.495,16.324 C2.564,16.436 2.608,16.507 2.64,16.561 C2.673,16.616 2.674,16.625 2.67,16.612 L4.063,16.057 C3.999,15.896 3.882,15.714 3.769,15.532 L2.495,16.324 Z M4.182,16.839 C4.204,16.556 4.168,16.321 4.063,16.057 L2.67,16.612 C2.685,16.651 2.687,16.665 2.687,16.667 C2.687,16.668 2.69,16.682 2.687,16.724 L4.182,16.839 Z M2.624,16.981 C2.463,17.6 2.333,18.101 2.258,18.502 C2.182,18.901 2.142,19.287 2.218,19.659 L3.688,19.36 C3.671,19.279 3.667,19.124 3.732,18.78 C3.796,18.44 3.91,17.997 4.076,17.358 L2.624,16.981 Z M6.666,19.948 C6.026,20.113 5.583,20.228 5.243,20.292 C4.899,20.357 4.745,20.352 4.664,20.335 L4.364,21.805 C4.736,21.881 5.123,21.841 5.521,21.766 C5.923,21.69 6.423,21.56 7.042,21.4 L6.666,19.948 Z M2.218,19.659 C2.438,20.74 3.283,21.585 4.364,21.805 L4.664,20.335 C4.172,20.235 3.788,19.851 3.688,19.36 L2.218,19.659 Z M8.053,16.608 L16.053,16.608 L16.053,15.108 L8.053,15.108 L8.053,16.608 Z M8.053,12.608 L16.053,12.608 L16.053,11.108 L8.053,11.108 L8.053,12.608 Z M8.053,8.608 L16.053,8.608 L16.053,7.108 L8.053,7.108 L8.053,8.608 Z"/>
</svg>

