<svg width="24" height="24" viewBox="0 0 24 24" fill="none" xmlns="http://www.w3.org/2000/svg">
<path d="M5.42183 7.84948C8.41657 6.34256 12.1604 6.84052 14.6601 9.34336C17.0979 11.7843 17.6313 15.41 16.2601 18.3693C16.4505 18.277 16.6389 18.1736 16.825 18.0585C17.0097 17.9441 17.1021 17.887 17.1719 17.8593C17.3055 17.8064 17.4067 17.791 17.5499 17.8021C17.6248 17.8079 17.7097 17.8299 17.8793 17.874C18.9472 18.1511 19.4812 18.2897 19.8659 18.2113C20.5335 18.0753 21.0553 17.5528 21.1912 16.8843C21.2694 16.4992 21.1311 15.9646 20.8543 14.8954C20.8103 14.7254 20.7883 14.6404 20.7825 14.5652C20.7715 14.4218 20.7871 14.3192 20.8403 14.1856C20.8681 14.1155 20.9251 14.0237 21.0391 13.8401C23.0975 10.5236 21.5045 6.50314 19.4937 4.48982C16.1782 1.17006 10.8025 1.17006 7.48694 4.48982C6.51173 5.46626 5.82336 6.62113 5.42183 7.84948Z" fill="#2D264B"/>
<path fill-rule="evenodd" clip-rule="evenodd" d="M6.26243 21.2246C8.99611 22.9161 12.3643 21.5412 13.9526 19.9508C16.6831 17.2169 16.6831 12.7844 13.9526 10.0504C11.2221 7.31652 6.79514 7.31652 4.06466 10.0504C2.40872 11.7085 1.09682 15.0195 2.79197 17.7506C2.88585 17.9019 2.93279 17.9775 2.95575 18.0352C2.99951 18.1453 3.01237 18.2297 3.00332 18.3478C2.99857 18.4098 2.98046 18.4797 2.94423 18.6197C2.71629 19.5002 2.60231 19.9405 2.66678 20.2577C2.77868 20.8082 3.20837 21.2384 3.75819 21.3505C4.07498 21.415 4.51469 21.3009 5.39412 21.0727C5.53386 21.0364 5.60376 21.0183 5.66544 21.0135C5.78336 21.0044 5.86676 21.017 5.97672 21.0606C6.03424 21.0834 6.1103 21.1305 6.26243 21.2246ZM11.0005 15C11.0005 15.5523 11.4482 16 12.0005 16C12.5528 16 13.0005 15.5523 13.0005 15C13.0005 14.4477 12.5528 14 12.0005 14C11.4482 14 11.0005 14.4477 11.0005 15ZM8.00047 15C8.00047 15.5523 8.44819 16 9.00047 16C9.55276 16 10.0005 15.5523 10.0005 15C10.0005 14.4477 9.55276 14 9.00047 14C8.44819 14 8.00047 14.4477 8.00047 15ZM6.00047 16C5.44819 16 5.00047 15.5523 5.00047 15C5.00047 14.4477 5.44819 14 6.00047 14C6.55276 14 7.00047 14.4477 7.00047 15C7.00047 15.5523 6.55276 16 6.00047 16Z" fill="#2D264B"/>
</svg>
