<svg width="24" height="24" viewBox="0 0 24 24" fill="none" xmlns="http://www.w3.org/2000/svg">
<path d="M3.96231 7.77004C3.77432 8.53557 3.63702 9.52416 3.44601 10.8995C3.00983 14.0399 2.79175 15.6101 3.27127 16.8297C3.69225 17.9003 4.46954 18.793 5.47208 19.3573C6.61405 20 8.19934 20 11.3699 20H12.9941C16.1647 20 17.75 20 18.892 19.3573C19.8945 18.793 20.6718 17.9003 21.0928 16.8297C21.5723 15.6101 21.3542 14.0399 20.9181 10.8995C20.7106 9.40583 20.5665 8.36829 20.352 7.57727L19.6216 8.30771C17.9893 9.93999 16.7102 11.2192 15.5779 12.0831C14.419 12.9673 13.3263 13.4868 12.0608 13.4868C10.7953 13.4868 9.70261 12.9673 8.54368 12.0831C7.41142 11.2192 6.13225 9.93999 4.49998 8.30771L3.96231 7.77004Z" fill="#2D264B"/>
<path d="M4.5747 6.2611L5.52006 7.20646C7.20172 8.88812 8.41074 10.0949 9.45355 10.8905C10.4791 11.673 11.2552 11.9868 12.0608 11.9868C12.8664 11.9868 13.6425 11.673 14.668 10.8905C15.7109 10.0949 16.9199 8.88812 18.6015 7.20646L19.6912 6.11676C19.1833 5.39704 18.4932 4.82309 17.6899 4.45483C16.6977 4 15.4632 4 12.9941 4H11.3699C8.90089 4 7.66636 4 6.6742 4.45483C5.81789 4.84739 5.09026 5.47367 4.5747 6.2611Z" fill="#2D264B"/>
</svg>
