<svg xmlns="http://www.w3.org/2000/svg" width="24" height="24" viewBox="0 0 24 24">
  <defs/>
  <path fill="#2D264B" d="M3.962,7.77 C3.774,8.536 3.637,9.524 3.446,10.899 C3.01,14.04 2.792,15.61 3.271,16.83 C3.692,17.9 4.47,18.793 5.472,19.357 C6.614,20 8.199,20 11.37,20 L12.994,20 C16.165,20 17.75,20 18.892,19.357 C19.895,18.793 20.672,17.9 21.093,16.83 C21.572,15.61 21.354,14.04 20.918,10.899 C20.711,9.406 20.567,8.368 20.352,7.577 L19.622,8.308 C17.989,9.94 16.71,11.219 15.578,12.083 C14.419,12.967 13.326,13.487 12.061,13.487 C10.795,13.487 9.703,12.967 8.544,12.083 C7.411,11.219 6.132,9.94 4.5,8.308 L3.962,7.77 Z"/>
  <path fill="#2D264B" d="M4.575,6.261 L5.52,7.206 C7.202,8.888 8.411,10.095 9.454,10.89 C10.479,11.673 11.255,11.987 12.061,11.987 C12.866,11.987 13.643,11.673 14.668,10.89 C15.711,10.095 16.92,8.888 18.602,7.206 L19.691,6.117 C19.183,5.397 18.493,4.823 17.69,4.455 C16.698,4 15.463,4 12.994,4 L11.37,4 C8.901,4 7.666,4 6.674,4.455 C5.818,4.847 5.09,5.474 4.575,6.261 Z"/>
</svg>

