<svg xmlns="http://www.w3.org/2000/svg" width="24" height="24" viewBox="0 0 24 24">
  <defs/>
  <path fill="#2D264B" d="M22,5 C22,6.105 21.105,7 20,7 C18.895,7 18,6.105 18,5 C18,3.895 18.895,3 20,3 C21.105,3 22,3.895 22,5 Z"/>
  <path fill="#2D264B" d="M17.067,3.089 C16.708,3.638 16.5,4.295 16.5,5 C16.5,6.206 17.11,7.27 18.039,7.9 C16.613,9.323 15.543,10.368 14.607,11.083 C13.581,11.865 12.805,12.179 12,12.179 C11.194,12.179 10.418,11.865 9.392,11.083 C8.35,10.287 7.141,9.08 5.459,7.399 L3.516,5.455 L3.109,5.09 L3,5 C3.308,4.576 3.636,4.263 4.061,3.955 C5.375,3 7.25,3 11,3 L13,3 C14.7,3 16.015,3 17.067,3.089 Z"/>
  <path fill="#2D264B" d="M19.585,8.476 L19.56,8.5 C17.928,10.132 16.649,11.411 15.517,12.275 C14.358,13.159 13.265,13.679 12,13.679 C10.734,13.679 9.641,13.159 8.482,12.275 C7.35,11.411 6.071,10.132 4.439,8.5 L2.484,6.545 L2.333,6.409 C2,7.649 2,9.36 2,12 C2,15.75 2,17.625 2.955,18.939 C3.263,19.363 3.636,19.737 4.061,20.045 C5.375,21 7.25,21 11,21 L13,21 C16.75,21 18.624,21 19.939,20.045 C20.363,19.737 20.736,19.363 21.045,18.939 C22,17.625 22,15.75 22,12 C22,10.3 22,8.985 21.911,7.933 C21.408,8.261 20.817,8.463 20.18,8.495 C20.124,8.498 20.068,8.5 20.011,8.5 C20.007,8.5 20.004,8.5 20,8.5 C20,8.5 20,8.5 20,8.5 C19.894,8.5 19.789,8.495 19.686,8.486 C19.652,8.483 19.618,8.48 19.585,8.476 Z"/>
</svg>

