<svg width="24" height="24" viewBox="0 0 24 24" fill="none" xmlns="http://www.w3.org/2000/svg">
<path fill-rule="evenodd" clip-rule="evenodd" d="M20.8906 15.9277C23.3067 12.0179 21.3427 7.20059 19.0711 4.92893C15.1658 1.02369 8.83418 1.02369 4.92893 4.92893C1.02369 8.83418 1.02369 15.1658 4.92893 19.0711C7.29732 21.4395 12.0269 23.3158 15.9282 20.8913C16.1442 20.7571 16.2523 20.6899 16.3347 20.6571C16.4919 20.5945 16.6126 20.5761 16.7812 20.589C16.8697 20.5958 16.9696 20.6217 17.1695 20.6735C18.4273 20.9995 19.0563 21.1626 19.5094 21.0704C20.2958 20.9103 20.9103 20.2958 21.0704 19.5094C21.1626 19.0563 20.9996 18.4274 20.6736 17.1696C20.6218 16.9697 20.5958 16.8698 20.589 16.7816C20.576 16.6129 20.594 16.4936 20.6563 16.3364C20.6889 16.2541 20.7561 16.1453 20.8906 15.9277ZM11.8579 9.10788C11.4437 9.10788 11.1079 9.44367 11.1079 9.85788C11.1079 10.2721 11.4437 10.6079 11.8579 10.6079H15.8579C16.2721 10.6079 16.6079 10.2721 16.6079 9.85788C16.6079 9.44367 16.2721 9.10788 15.8579 9.10788L11.8579 9.10788ZM7.85791 13.1079C7.4437 13.1079 7.10791 13.4437 7.10791 13.8579C7.10791 14.2721 7.4437 14.6079 7.85791 14.6079H15.8579C16.2721 14.6079 16.6079 14.2721 16.6079 13.8579C16.6079 13.4437 16.2721 13.1079 15.8579 13.1079H7.85791Z" fill="#2D264B"/>
</svg>
