<svg xmlns="http://www.w3.org/2000/svg" width="24" height="24" viewBox="0 0 24 24">
  <defs/>
  <path fill="#2D264B" d="M20.75,10 C20.75,9.586 20.414,9.25 20,9.25 C19.586,9.25 19.25,9.586 19.25,10 L20.75,10 Z M4.75,10 C4.75,9.586 4.414,9.25 4,9.25 C3.586,9.25 3.25,9.586 3.25,10 L4.75,10 Z M9.818,21.272 C9.416,21.373 9.172,21.78 9.272,22.182 C9.373,22.584 9.78,22.828 10.182,22.728 L9.818,21.272 Z M13.818,22.728 C14.22,22.828 14.627,22.584 14.728,22.182 C14.828,21.78 14.584,21.373 14.182,21.272 L13.818,22.728 Z M15.25,6 L15.25,10 L16.75,10 L16.75,6 L15.25,6 Z M8.75,10 L8.75,6 L7.25,6 L7.25,10 L8.75,10 Z M12,13.25 C10.205,13.25 8.75,11.795 8.75,10 L7.25,10 C7.25,12.623 9.377,14.75 12,14.75 L12,13.25 Z M15.25,10 C15.25,11.795 13.795,13.25 12,13.25 L12,14.75 C14.623,14.75 16.75,12.623 16.75,10 L15.25,10 Z M12,2.75 C13.795,2.75 15.25,4.205 15.25,6 L16.75,6 C16.75,3.377 14.623,1.25 12,1.25 L12,2.75 Z M12,1.25 C9.377,1.25 7.25,3.377 7.25,6 L8.75,6 C8.75,4.205 10.205,2.75 12,2.75 L12,1.25 Z M19.25,10 C19.25,14.004 16.004,17.25 12,17.25 L12,18.75 C16.832,18.75 20.75,14.832 20.75,10 L19.25,10 Z M12,17.25 C7.996,17.25 4.75,14.004 4.75,10 L3.25,10 C3.25,14.832 7.168,18.75 12,18.75 L12,17.25 Z M11.25,18 L11.25,21 L12.75,21 L12.75,18 L11.25,18 Z M10.182,22.728 L10.969,22.531 L10.605,21.076 L9.818,21.272 L10.182,22.728 Z M13.031,22.531 L13.818,22.728 L14.182,21.272 L13.395,21.076 L13.031,22.531 Z M10.969,22.531 C11.308,22.446 11.654,22.404 12,22.404 L12,20.904 C11.532,20.904 11.063,20.961 10.605,21.076 L10.969,22.531 Z M12,22.404 C12.346,22.404 12.692,22.446 13.031,22.531 L13.395,21.076 C12.937,20.961 12.468,20.904 12,20.904 L12,22.404 Z M11.25,21 L11.25,21.654 L12.75,21.654 L12.75,21 L11.25,21 Z"/>
</svg>

