<svg xmlns="http://www.w3.org/2000/svg" width="24" height="24" viewBox="0 0 24 24">
  <defs/>
  <path fill="#2D264B" d="M20.75,10 C20.75,9.586 20.414,9.25 20,9.25 C19.586,9.25 19.25,9.586 19.25,10 L20.75,10 Z M4.75,10 C4.75,9.586 4.414,9.25 4,9.25 C3.586,9.25 3.25,9.586 3.25,10 L4.75,10 Z M12,21 L11.25,21 L11.25,21.013 L11.251,21.027 L12,21 Z M9.818,21.272 C9.416,21.373 9.172,21.78 9.272,22.182 C9.373,22.584 9.78,22.828 10.182,22.728 L9.818,21.272 Z M13.818,22.728 C14.22,22.828 14.627,22.584 14.728,22.182 C14.828,21.78 14.584,21.373 14.182,21.272 L13.818,22.728 Z M12.737,5.788 C12.344,5.657 11.919,5.87 11.789,6.263 C11.658,6.656 11.87,7.081 12.263,7.212 L12.737,5.788 Z M12.182,8.772 C11.78,8.672 11.373,8.916 11.272,9.318 C11.172,9.72 11.416,10.127 11.818,10.228 L12.182,8.772 Z M15.25,6 L15.25,10 L16.75,10 L16.75,6 L15.25,6 Z M8.75,10 L8.75,6 L7.25,6 L7.25,10 L8.75,10 Z M12,13.25 C10.205,13.25 8.75,11.795 8.75,10 L7.25,10 C7.25,12.623 9.377,14.75 12,14.75 L12,13.25 Z M15.25,10 C15.25,11.795 13.795,13.25 12,13.25 L12,14.75 C14.623,14.75 16.75,12.623 16.75,10 L15.25,10 Z M12,2.75 C13.795,2.75 15.25,4.205 15.25,6 L16.75,6 C16.75,3.377 14.623,1.25 12,1.25 L12,2.75 Z M12,1.25 C9.377,1.25 7.25,3.377 7.25,6 L8.75,6 C8.75,4.205 10.205,2.75 12,2.75 L12,1.25 Z M19.25,10 C19.25,14.004 16.004,17.25 12,17.25 L12,18.75 C16.832,18.75 20.75,14.832 20.75,10 L19.25,10 Z M12,17.25 C7.996,17.25 4.75,14.004 4.75,10 L3.25,10 C3.25,14.832 7.168,18.75 12,18.75 L12,17.25 Z M11.25,18 L11.25,21 L12.75,21 L12.75,18 L11.25,18 Z M10.182,22.728 L10.969,22.531 L10.605,21.076 L9.818,21.272 L10.182,22.728 Z M13.031,22.531 L13.818,22.728 L14.182,21.272 L13.395,21.076 L13.031,22.531 Z M12.263,7.212 L12.382,7.251 L12.856,5.828 L12.737,5.788 L12.263,7.212 Z M12.382,7.251 C13.419,7.597 14.534,7.64 15.594,7.374 L15.231,5.919 C14.447,6.115 13.623,6.084 12.856,5.828 L12.382,7.251 Z M11.818,10.228 L12.605,10.424 L12.969,8.969 L12.182,8.772 L11.818,10.228 Z M15.395,10.424 L16.182,10.228 L15.818,8.772 L15.031,8.969 L15.395,10.424 Z M12.605,10.424 C13.521,10.653 14.479,10.653 15.395,10.424 L15.031,8.969 C14.354,9.138 13.646,9.138 12.969,8.969 L12.605,10.424 Z M15.25,9.5 L15.25,10 L16.75,10 L16.75,9.5 L15.25,9.5 Z M15.25,7.106 L15.25,9.5 L16.75,9.5 L16.75,7.106 L15.25,7.106 Z M10.969,22.531 C11.314,22.445 11.667,22.402 12.02,22.404 L12.027,20.904 C11.55,20.902 11.072,20.959 10.605,21.076 L10.969,22.531 Z M12.02,22.404 C12.359,22.405 12.699,22.448 13.031,22.531 L13.395,21.076 C12.945,20.963 12.486,20.906 12.027,20.904 L12.02,22.404 Z M11.251,21.027 L11.274,21.681 L12.773,21.627 L12.749,20.973 L11.251,21.027 Z M15.594,7.374 C15.419,7.418 15.25,7.286 15.25,7.106 L16.75,7.106 C16.75,6.31 16.002,5.726 15.231,5.919 L15.594,7.374 Z"/>
</svg>

