<svg width="24" height="24" viewBox="0 0 24 24" fill="none" xmlns="http://www.w3.org/2000/svg">
<path d="M7.25 6C7.25 3.37665 9.37665 1.25 12 1.25C14.4306 1.25 16.4348 3.07561 16.7162 5.43042L15.7767 5.78275L15.2306 5.91926C14.4465 6.1153 13.6227 6.08366 12.8559 5.82806L12.7372 5.78849C12.3442 5.6575 11.9195 5.86987 11.7885 6.26283C11.6575 6.65578 11.8699 7.08052 12.2628 7.21151L12.3815 7.25108C13.419 7.5969 14.5335 7.6397 15.5944 7.37447L16.2233 7.21725L16.75 7.01975V8.5057L15.806 8.77543L15.0308 8.96922C14.354 9.13842 13.646 9.13842 12.9692 8.96922L12.1819 8.77239C11.7801 8.67193 11.3729 8.91625 11.2724 9.3181C11.1719 9.71994 11.4163 10.1271 11.8181 10.2276L12.6054 10.4244C13.5211 10.6533 14.479 10.6533 15.3946 10.4244L16.194 10.2246L16.7496 10.0659C16.7143 12.6589 14.6014 14.75 12 14.75C9.37665 14.75 7.25 12.6234 7.25 10V6Z" fill="#2D264B"/>
<path d="M4 9.25C4.41421 9.25 4.75 9.58579 4.75 10C4.75 14.0041 7.99594 17.25 12 17.25C16.0041 17.25 19.25 14.0041 19.25 10C19.25 9.58579 19.5858 9.25 20 9.25C20.4142 9.25 20.75 9.58579 20.75 10C20.75 14.5798 17.2314 18.3379 12.75 18.7183V20.953C12.9664 20.9815 13.1817 21.0223 13.3946 21.0756L14.1819 21.2724C14.5837 21.3729 14.8281 21.7801 14.7276 22.1819C14.6271 22.5837 14.2199 22.8281 13.8181 22.7276L13.0308 22.5308C12.6924 22.4462 12.3462 22.4039 12 22.4039C11.6538 22.4039 11.3076 22.4462 10.9692 22.5308L10.1819 22.7276C9.78006 22.8281 9.37285 22.5837 9.27239 22.1819C9.17193 21.7801 9.41625 21.3729 9.8181 21.2724L10.6054 21.0756C10.8183 21.0223 11.0336 20.9815 11.25 20.953V18.7183C6.7686 18.3379 3.25 14.5798 3.25 10C3.25 9.58579 3.58579 9.25 4 9.25Z" fill="#2D264B"/>
</svg>
