<svg xmlns="http://www.w3.org/2000/svg" width="24" height="24" viewBox="0 0 24 24">
  <defs/>
  <path fill="#2D264B" d="M19.72,0.72 C20.013,0.427 20.487,0.427 20.78,0.72 C21.073,1.013 21.073,1.487 20.78,1.78 L3.78,18.78 C3.487,19.073 3.013,19.073 2.72,18.78 C2.427,18.487 2.427,18.013 2.72,17.72 L5.082,15.358 C3.933,13.877 3.25,12.018 3.25,10 C3.25,9.586 3.586,9.25 4,9.25 C4.414,9.25 4.75,9.586 4.75,10 C4.75,11.604 5.271,13.086 6.153,14.287 L7.952,12.487 C7.507,11.764 7.25,10.912 7.25,10 L7.25,6 C7.25,3.377 9.377,1.25 12,1.25 C13.944,1.25 15.615,2.417 16.35,4.089 L19.72,0.72 Z"/>
  <path fill="#2D264B" d="M8.315,16.245 L7.226,17.334 C8.402,18.101 9.774,18.593 11.25,18.718 L11.25,20.953 C11.034,20.982 10.818,21.022 10.605,21.076 L9.818,21.272 C9.416,21.373 9.172,21.78 9.272,22.182 C9.373,22.584 9.78,22.828 10.182,22.728 L10.969,22.531 C11.308,22.446 11.654,22.404 12,22.404 C12.346,22.404 12.692,22.446 13.031,22.531 L13.818,22.728 C14.22,22.828 14.627,22.584 14.728,22.182 C14.828,21.78 14.584,21.373 14.182,21.272 L13.395,21.076 C13.182,21.022 12.966,20.982 12.75,20.953 L12.75,18.718 C17.231,18.338 20.75,14.58 20.75,10 C20.75,9.586 20.414,9.25 20,9.25 C19.586,9.25 19.25,9.586 19.25,10 C19.25,14.004 16.004,17.25 12,17.25 C10.655,17.25 9.395,16.884 8.315,16.245 Z"/>
  <path fill="#2D264B" d="M16.75,7.811 L10.174,14.386 C10.736,14.621 11.353,14.75 12,14.75 C14.623,14.75 16.75,12.623 16.75,10 L16.75,7.811 Z"/>
</svg>

