<svg xmlns="http://www.w3.org/2000/svg" width="24" height="24" viewBox="0 0 24 24">
  <defs/>
  <path fill="#2D264B" d="M7.25,6 C7.25,3.377 9.377,1.25 12,1.25 C14.431,1.25 16.435,3.076 16.716,5.43 L15.777,5.783 L15.231,5.919 C14.447,6.115 13.623,6.084 12.856,5.828 L12.737,5.788 C12.344,5.657 11.919,5.87 11.789,6.263 C11.658,6.656 11.87,7.081 12.263,7.212 L12.382,7.251 C13.419,7.597 14.534,7.64 15.594,7.374 L16.223,7.217 L16.75,7.02 L16.75,8.506 L15.806,8.775 L15.031,8.969 C14.354,9.138 13.646,9.138 12.969,8.969 L12.182,8.772 C11.78,8.672 11.373,8.916 11.272,9.318 C11.172,9.72 11.416,10.127 11.818,10.228 L12.605,10.424 C13.521,10.653 14.479,10.653 15.395,10.424 L16.194,10.225 L16.75,10.066 C16.714,12.659 14.601,14.75 12,14.75 C9.377,14.75 7.25,12.623 7.25,10 L7.25,6 Z"/>
  <path fill="#2D264B" d="M4,9.25 C4.414,9.25 4.75,9.586 4.75,10 C4.75,14.004 7.996,17.25 12,17.25 C16.004,17.25 19.25,14.004 19.25,10 C19.25,9.586 19.586,9.25 20,9.25 C20.414,9.25 20.75,9.586 20.75,10 C20.75,14.58 17.231,18.338 12.75,18.718 L12.75,20.953 C12.966,20.982 13.182,21.022 13.395,21.076 L14.182,21.272 C14.584,21.373 14.828,21.78 14.728,22.182 C14.627,22.584 14.22,22.828 13.818,22.728 L13.031,22.531 C12.692,22.446 12.346,22.404 12,22.404 C11.654,22.404 11.308,22.446 10.969,22.531 L10.182,22.728 C9.78,22.828 9.373,22.584 9.272,22.182 C9.172,21.78 9.416,21.373 9.818,21.272 L10.605,21.076 C10.818,21.022 11.034,20.982 11.25,20.953 L11.25,18.718 C6.769,18.338 3.25,14.58 3.25,10 C3.25,9.586 3.586,9.25 4,9.25 Z"/>
</svg>

