<svg width="24" height="24" viewBox="0 0 24 24" fill="none" xmlns="http://www.w3.org/2000/svg">
<path d="M19.7197 0.71967C20.0126 0.426777 20.4874 0.426777 20.7803 0.71967C21.0732 1.01256 21.0732 1.48744 20.7803 1.78033L3.78033 18.7803C3.48744 19.0732 3.01256 19.0732 2.71967 18.7803C2.42678 18.4874 2.42678 18.0126 2.71967 17.7197L5.0816 15.3577C3.93347 13.8773 3.25 12.0185 3.25 10C3.25 9.58579 3.58579 9.25 4 9.25C4.41421 9.25 4.75 9.58579 4.75 10C4.75 11.6039 5.27081 13.0861 6.15253 14.2868L7.95233 12.487C7.50692 11.7636 7.25 10.9118 7.25 10V6C7.25 3.37665 9.37665 1.25 12 1.25C13.9437 1.25 15.6146 2.4174 16.3501 4.08928L19.7197 0.71967Z" fill="#2D264B"/>
<path d="M8.31542 16.2452L7.22633 17.3343C8.4022 18.1012 9.77387 18.593 11.25 18.7183V20.953C11.0336 20.9815 10.8183 21.0223 10.6054 21.0756L9.8181 21.2724C9.41625 21.3729 9.17193 21.7801 9.27239 22.1819C9.37285 22.5837 9.78006 22.8281 10.1819 22.7276L10.9692 22.5308C11.3076 22.4462 11.6538 22.4039 12 22.4039C12.3462 22.4039 12.6924 22.4462 13.0308 22.5308L13.8181 22.7276C14.2199 22.8281 14.6271 22.5837 14.7276 22.1819C14.8281 21.7801 14.5837 21.3729 14.1819 21.2724L13.3946 21.0756C13.1817 21.0223 12.9664 20.9815 12.75 20.953V18.7183C17.2314 18.3379 20.75 14.5798 20.75 10C20.75 9.58579 20.4142 9.25 20 9.25C19.5858 9.25 19.25 9.58579 19.25 10C19.25 14.0041 16.0041 17.25 12 17.25C10.6548 17.25 9.39516 16.8836 8.31542 16.2452Z" fill="#2D264B"/>
<path d="M16.75 7.81066L10.1742 14.3864C10.7363 14.6207 11.3531 14.75 12 14.75C14.6234 14.75 16.75 12.6234 16.75 10V7.81066Z" fill="#2D264B"/>
</svg>
