<svg xmlns="http://www.w3.org/2000/svg" width="24" height="24" viewBox="0 0 24 24">
  <defs/>
  <path fill="#2D264B" d="M7.25,6 C7.25,3.377 9.377,1.25 12,1.25 C14.623,1.25 16.75,3.377 16.75,6 L16.75,10 C16.75,12.623 14.623,14.75 12,14.75 C9.377,14.75 7.25,12.623 7.25,10 Z M10.182,7.228 L10.969,7.031 C11.646,6.862 12.354,6.862 13.031,7.031 L13.818,7.228 C14.22,7.328 14.627,7.084 14.728,6.682 C14.828,6.28 14.584,5.873 14.182,5.772 L13.395,5.576 C12.479,5.347 11.521,5.347 10.605,5.576 L9.818,5.772 C9.416,5.873 9.172,6.28 9.272,6.682 C9.373,7.084 9.78,7.328 10.182,7.228 Z M10.737,10.712 L10.972,10.633 C11.639,10.411 12.361,10.411 13.028,10.633 L13.263,10.712 C13.656,10.842 14.08,10.63 14.212,10.237 C14.342,9.844 14.13,9.419 13.737,9.288 L13.502,9.21 C12.527,8.885 11.473,8.885 10.498,9.21 L10.263,9.288 C9.87,9.419 9.658,9.844 9.788,10.237 C9.919,10.63 10.344,10.842 10.737,10.712 Z"/>
  <path fill="#2D264B" d="M4,9.25 C4.414,9.25 4.75,9.586 4.75,10 C4.75,14.004 7.996,17.25 12,17.25 C16.004,17.25 19.25,14.004 19.25,10 C19.25,9.586 19.586,9.25 20,9.25 C20.414,9.25 20.75,9.586 20.75,10 C20.75,14.58 17.231,18.338 12.75,18.718 L12.75,20.953 C12.966,20.982 13.182,21.022 13.395,21.076 L14.182,21.272 C14.584,21.373 14.828,21.78 14.728,22.182 C14.627,22.584 14.22,22.828 13.818,22.728 L13.031,22.531 C12.692,22.446 12.346,22.404 12,22.404 C11.654,22.404 11.308,22.446 10.969,22.531 L10.182,22.728 C9.78,22.828 9.373,22.584 9.272,22.182 C9.172,21.78 9.416,21.373 9.818,21.272 L10.605,21.076 C10.818,21.022 11.034,20.982 11.25,20.953 L11.25,18.718 C6.769,18.338 3.25,14.58 3.25,10 C3.25,9.586 3.586,9.25 4,9.25 Z"/>
</svg>

