<svg xmlns="http://www.w3.org/2000/svg" width="24" height="24" viewBox="0 0 24 24">
  <defs/>
  <path fill="#2D264B" d="M2.72,17.72 L19.72,0.72 Q19.939,0.5 20.25,0.5 Q20.561,0.5 20.78,0.72 Q21,0.939 21,1.25 Q21,1.561 20.78,1.78 L3.78,18.78 Q3.561,19 3.25,19 Q2.939,19 2.72,18.78 Q2.5,18.561 2.5,18.25 Q2.5,17.939 2.72,17.72 Z"/>
  <path fill="#2D264B" d="M7.985,16.575 C7.63,16.931 7.705,17.527 8.163,17.733 C8.974,18.098 9.851,18.343 10.77,18.446 C10.91,18.461 11,18.609 11,18.75 L11,20.047 C11,20.422 10.72,20.735 10.355,20.826 L9.568,21.022 C9.166,21.123 8.922,21.53 9.022,21.932 C9.123,22.334 9.53,22.578 9.932,22.478 L10.719,22.281 C11.396,22.112 12.104,22.112 12.781,22.281 L13.568,22.478 C13.97,22.578 14.377,22.334 14.478,21.932 C14.578,21.53 14.334,21.123 13.932,21.022 L13.145,20.826 C12.78,20.735 12.5,20.422 12.5,20.047 L12.5,18.75 C12.5,18.609 12.59,18.461 12.73,18.446 C17.101,17.958 20.5,14.251 20.5,9.75 C20.5,9.336 20.164,9 19.75,9 C19.336,9 19,9.336 19,9.75 C19,13.754 15.754,17 11.75,17 C10.738,17 9.774,16.793 8.898,16.418 C8.588,16.285 8.224,16.337 7.985,16.575 Z"/>
  <path fill="#2D264B" d="M11.292,13.269 C10.834,13.727 11.035,14.491 11.683,14.499 C11.705,14.5 11.728,14.5 11.75,14.5 C14.373,14.5 16.5,12.373 16.5,9.75 C16.5,9.127 15.746,8.814 15.306,9.255 L15.134,9.427 C15.048,9.512 15,9.629 15,9.75 C15,11.545 13.545,13 11.75,13 C11.633,13 11.518,13.042 11.435,13.125 L11.292,13.269 Z"/>
  <path fill="#2D264B" d="M9.3,11.886 C9.602,12.232 9.665,12.775 9.34,13.1 C9.084,13.355 8.674,13.388 8.417,13.134 C7.542,12.273 7,11.075 7,9.75 L7,5.75 C7,3.127 9.127,1 11.75,1 C14.373,1 16.5,3.127 16.5,5.75 C16.5,5.871 16.452,5.987 16.366,6.073 L16.195,6.245 C15.754,6.686 15,6.373 15,5.75 C15,3.955 13.545,2.5 11.75,2.5 C9.955,2.5 8.5,3.955 8.5,5.75 L8.5,9.75 C8.5,10.567 8.802,11.314 9.3,11.886 Z"/>
  <path fill="#2D264B" d="M6.518,14.769 C6.821,15.085 6.848,15.592 6.538,15.901 C6.263,16.176 5.819,16.195 5.545,15.919 C3.972,14.337 3,12.157 3,9.75 C3,9.336 3.336,9 3.75,9 C4.164,9 4.5,9.336 4.5,9.75 C4.5,11.698 5.268,13.467 6.518,14.769 Z"/>
</svg>

