<svg width="24" height="24" viewBox="0 0 24 24" fill="none" xmlns="http://www.w3.org/2000/svg">
<path fill-rule="evenodd" clip-rule="evenodd" d="M7.25 6C7.25 3.37665 9.37665 1.25 12 1.25C14.6234 1.25 16.75 3.37665 16.75 6V10C16.75 12.6234 14.6234 14.75 12 14.75C9.37665 14.75 7.25 12.6234 7.25 10V6ZM10.1819 7.22761L10.9692 7.03078C11.646 6.86158 12.354 6.86158 13.0308 7.03078L13.8181 7.22761C14.2199 7.32807 14.6271 7.08375 14.7276 6.6819C14.8281 6.28006 14.5837 5.87286 14.1819 5.77239L13.3946 5.57556C12.479 5.34666 11.5211 5.34666 10.6054 5.57556L9.8181 5.77239C9.41625 5.87286 9.17193 6.28006 9.27239 6.6819C9.37285 7.08375 9.78006 7.32807 10.1819 7.22761ZM10.7372 10.7115L10.9723 10.6332C11.6394 10.4108 12.3606 10.4108 13.0277 10.6332L13.2628 10.7115C13.6558 10.8425 14.0805 10.6301 14.2115 10.2372C14.3425 9.84421 14.1301 9.41947 13.7372 9.28849L13.5021 9.21013C12.5271 8.88512 11.4729 8.88512 10.4979 9.21013L10.2628 9.28849C9.86987 9.41947 9.6575 9.84421 9.78849 10.2372C9.91947 10.6301 10.3442 10.8425 10.7372 10.7115Z" fill="#2D264B"/>
<path d="M4 9.25C4.41421 9.25 4.75 9.58579 4.75 10C4.75 14.0041 7.99594 17.25 12 17.25C16.0041 17.25 19.25 14.0041 19.25 10C19.25 9.58579 19.5858 9.25 20 9.25C20.4142 9.25 20.75 9.58579 20.75 10C20.75 14.5798 17.2314 18.3379 12.75 18.7183V20.953C12.9664 20.9815 13.1817 21.0223 13.3946 21.0756L14.1819 21.2724C14.5837 21.3729 14.8281 21.7801 14.7276 22.1819C14.6271 22.5837 14.2199 22.8281 13.8181 22.7276L13.0308 22.5308C12.6924 22.4462 12.3462 22.4039 12 22.4039C11.6538 22.4039 11.3076 22.4462 10.9692 22.5308L10.1819 22.7276C9.78006 22.8281 9.37285 22.5837 9.27239 22.1819C9.17193 21.7801 9.41625 21.3729 9.8181 21.2724L10.6054 21.0756C10.8183 21.0223 11.0336 20.9815 11.25 20.953V18.7183C6.7686 18.3379 3.25 14.5798 3.25 10C3.25 9.58579 3.58579 9.25 4 9.25Z" fill="#2D264B"/>
</svg>
