<svg xmlns="http://www.w3.org/2000/svg" width="24" height="24" viewBox="0 0 24 24">
  <defs/>
  <path fill="#2D264B" d="M12,1.25 C9.377,1.25 7.25,3.377 7.25,6 L7.25,10 C7.25,12.623 9.377,14.75 12,14.75 C14.623,14.75 16.75,12.623 16.75,10 L16.75,6 C16.75,3.377 14.623,1.25 12,1.25 Z"/>
  <path fill="#2D264B" d="M4.75,10 C4.75,9.586 4.414,9.25 4,9.25 C3.586,9.25 3.25,9.586 3.25,10 C3.25,14.58 6.769,18.338 11.25,18.718 L11.25,20.953 C11.034,20.982 10.818,21.022 10.605,21.076 L9.818,21.272 C9.416,21.373 9.172,21.78 9.272,22.182 C9.373,22.584 9.78,22.828 10.182,22.728 L10.969,22.531 C11.308,22.446 11.654,22.404 12,22.404 C12.346,22.404 12.692,22.446 13.031,22.531 L13.818,22.728 C14.22,22.828 14.627,22.584 14.728,22.182 C14.828,21.78 14.584,21.373 14.182,21.272 L13.395,21.076 C13.182,21.022 12.966,20.982 12.75,20.953 L12.75,18.718 C17.231,18.338 20.75,14.58 20.75,10 C20.75,9.586 20.414,9.25 20,9.25 C19.586,9.25 19.25,9.586 19.25,10 C19.25,14.004 16.004,17.25 12,17.25 C7.996,17.25 4.75,14.004 4.75,10 Z"/>
</svg>

