<svg xmlns="http://www.w3.org/2000/svg" width="24" height="24" viewBox="0 0 24 24">
  <defs/>
  <path fill="#2D264B" d="M12.919,12.014 Q14.859,15.374 19.39,17.157 Q21.146,17.848 21.276,18.56 Q21.448,19.503 19.377,20.699 Q15.52,22.925 11.219,21.773 Q6.918,20.62 4.692,16.764 Q2.465,12.908 3.618,8.607 Q4.77,4.305 8.627,2.079 Q10.698,0.883 11.428,1.503 Q11.98,1.972 11.7,3.839 Q10.979,8.653 12.919,12.014 Z M11.62,12.764 Q9.418,8.949 10.217,3.616 Q10.287,3.152 10.316,2.884 Q9.957,3.043 9.377,3.378 Q6.059,5.294 5.067,8.995 Q4.075,12.696 5.991,16.014 Q7.907,19.332 11.608,20.324 Q15.308,21.315 18.627,19.4 Q19.207,19.065 19.525,18.833 Q19.278,18.725 18.841,18.553 Q13.822,16.578 11.62,12.764 Z"/>
</svg>

