<svg width="24" height="24" viewBox="0 0 24 24" fill="none" xmlns="http://www.w3.org/2000/svg">
<path d="M12.919 12.0134C11.0509 8.77773 11.3962 5.88815 11.671 4.0347L11.6996 3.84335C11.7571 3.46024 11.8125 3.09144 11.8313 2.7912C11.8424 2.61306 11.8441 2.41736 11.8135 2.22926C11.7834 2.04435 11.7112 1.79715 11.5172 1.58811C11.0763 1.11318 10.4573 1.24503 10.1229 1.35182C9.7256 1.47873 9.22904 1.7308 8.62655 2.07865C3.48491 5.04718 1.72325 11.6218 4.69178 16.7634C7.66031 21.9051 14.2349 23.6667 19.3766 20.6982C19.979 20.3503 20.4456 20.0464 20.7542 19.7657C21.0139 19.5295 21.4376 19.0593 21.2467 18.4401C21.1627 18.1676 20.9847 17.9814 20.8396 17.8629C20.692 17.7424 20.5217 17.646 20.3618 17.5665C20.0925 17.4327 19.7454 17.2962 19.3849 17.1545L19.2048 17.0836C17.4622 16.3949 14.7871 15.2491 12.919 12.0134Z" fill="#2D264B"/>
</svg>
