<svg xmlns="http://www.w3.org/2000/svg" width="24" height="24" viewBox="0 0 24 24">
  <defs/>
  <path fill="#2D264B" d="M12.919,12.013 C11.051,8.778 11.396,5.888 11.671,4.035 L11.7,3.843 C11.757,3.46 11.812,3.091 11.831,2.791 C11.842,2.613 11.844,2.417 11.813,2.229 C11.783,2.044 11.711,1.797 11.517,1.588 C11.076,1.113 10.457,1.245 10.123,1.352 C9.726,1.479 9.229,1.731 8.627,2.079 C3.485,5.047 1.723,11.622 4.692,16.763 C7.66,21.905 14.235,23.667 19.377,20.698 C19.979,20.35 20.446,20.046 20.754,19.766 C21.014,19.529 21.438,19.059 21.247,18.44 C21.163,18.168 20.985,17.981 20.84,17.863 C20.692,17.742 20.522,17.646 20.362,17.567 C20.093,17.433 19.745,17.296 19.385,17.154 L19.205,17.084 C17.462,16.395 14.787,15.249 12.919,12.013 Z"/>
</svg>

