<svg xmlns="http://www.w3.org/2000/svg" width="24" height="24" viewBox="0 0 24 24">
  <defs/>
  <path fill="#2D264B" d="M3.955,5.061 C4.263,4.637 4.637,4.263 5.061,3.955 C6.375,3 8.25,3 12,3 C15.75,3 17.625,3 18.939,3.955 C19.363,4.263 19.737,4.637 20.045,5.061 C21,6.375 21,8.25 21,12 C21,15.75 21,17.625 20.045,18.939 C19.737,19.363 19.363,19.737 18.939,20.045 C17.625,21 15.75,21 12,21 C8.25,21 6.375,21 5.061,20.045 C4.637,19.737 4.263,19.363 3.955,18.939 C3,17.625 3,15.75 3,12 C3,8.25 3,6.375 3.955,5.061 Z M13,12 C13,11.448 12.552,11 12,11 C11.448,11 11,11.448 11,12 C11,12.552 11.448,13 12,13 C12.552,13 13,12.552 13,12 Z M16,13 C16.552,13 17,12.552 17,12 C17,11.448 16.552,11 16,11 C15.448,11 15,11.448 15,12 C15,12.552 15.448,13 16,13 Z M9,12 C9,11.448 8.552,11 8,11 C7.448,11 7,11.448 7,12 C7,12.552 7.448,13 8,13 C8.552,13 9,12.552 9,12 Z"/>
</svg>

