<svg width="24" height="24" viewBox="0 0 24 24" fill="none" xmlns="http://www.w3.org/2000/svg">
<path fill-rule="evenodd" clip-rule="evenodd" d="M3.95491 5.06107C3 6.3754 3 8.25027 3 12C3 15.7497 3 17.6246 3.95491 18.9389C4.26331 19.3634 4.6366 19.7367 5.06107 20.0451C6.3754 21 8.25027 21 12 21C15.7497 21 17.6246 21 18.9389 20.0451C19.3634 19.7367 19.7367 19.3634 20.0451 18.9389C21 17.6246 21 15.7497 21 12C21 8.25027 21 6.3754 20.0451 5.06107C19.7367 4.6366 19.3634 4.26331 18.9389 3.95491C17.6246 3 15.7497 3 12 3C8.25027 3 6.3754 3 5.06107 3.95491C4.6366 4.26331 4.26331 4.6366 3.95491 5.06107ZM9 12C9 12.5523 8.55228 13 8 13C7.44772 13 7 12.5523 7 12C7 11.4477 7.44772 11 8 11C8.55228 11 9 11.4477 9 12ZM13 12C13 12.5523 12.5523 13 12 13C11.4477 13 11 12.5523 11 12C11 11.4477 11.4477 11 12 11C12.5523 11 13 11.4477 13 12ZM16 13C16.5523 13 17 12.5523 17 12C17 11.4477 16.5523 11 16 11C15.4477 11 15 11.4477 15 12C15 12.5523 15.4477 13 16 13Z" fill="#2D264B"/>
</svg>
