<svg xmlns="http://www.w3.org/2000/svg" width="24" height="24" viewBox="0 0 24 24">
  <defs/>
  <path fill="#2D264B" d="M11.25,3.002 L11.25,8 C11.25,8.414 11.586,8.75 12,8.75 C12.414,8.75 12.75,8.414 12.75,8 L12.75,3.002 C13.213,3.006 13.516,3.019 13.782,3.062 C15.922,3.4 17.6,5.078 17.938,7.218 C18,7.607 18,8.071 18,9 L18,13.159 C17.011,11.421 15.142,10.25 13,10.25 L11,10.25 C8.858,10.25 6.989,11.421 6,13.159 L6,9 C6,8.071 6,7.607 6.062,7.218 C6.4,5.078 8.078,3.4 10.218,3.062 C10.484,3.019 10.787,3.006 11.25,3.002 Z M17.198,16.665 C16.91,18.483 15.483,19.91 13.665,20.198 C13.349,20.248 12.958,20.25 12,20.25 C11.042,20.25 10.651,20.248 10.335,20.198 C8.517,19.91 7.09,18.483 6.802,16.665 C6.77,16.463 6.758,16.23 6.753,15.838 C6.838,13.566 8.707,11.75 11,11.75 L13,11.75 C15.293,11.75 17.162,13.566 17.247,15.838 C17.242,16.23 17.23,16.463 17.198,16.665 Z"/>
</svg>

