<svg width="24" height="24" viewBox="0 0 24 24" fill="none" xmlns="http://www.w3.org/2000/svg">
<path fill-rule="evenodd" clip-rule="evenodd" d="M11.25 3.00195C10.7867 3.00612 10.4844 3.01938 10.2178 3.0616C8.07837 3.40046 6.40042 5.07841 6.06156 7.21787C6 7.60654 6 8.07104 6 9.00004V13.1586C6.98934 11.4214 8.85788 10.25 11 10.25H13C15.1421 10.25 17.0107 11.4214 18 13.1586V9.00005C18 8.07104 18 7.60654 17.9384 7.21787C17.5996 5.07841 15.9216 3.40046 13.7822 3.0616C13.5156 3.01938 13.2133 3.00612 12.75 3.00195L12.75 8.00005C12.75 8.41426 12.4142 8.75005 12 8.75005C11.5858 8.75005 11.25 8.41426 11.25 8.00005L11.25 3.00195ZM17.1977 16.6649C17.2296 16.463 17.2421 16.2301 17.247 15.838C17.1618 13.5659 15.293 11.75 13 11.75H11C8.70705 11.75 6.83821 13.5659 6.75303 15.838C6.75787 16.2301 6.77035 16.463 6.80233 16.6649C7.09035 18.4834 8.51661 19.9097 10.3352 20.1977C10.6508 20.2477 11.0423 20.25 12 20.25C12.9577 20.25 13.3492 20.2477 13.6648 20.1977C15.4834 19.9097 16.9096 18.4834 17.1977 16.6649Z" fill="#2D264B"/>
</svg>
