<svg xmlns="http://www.w3.org/2000/svg" width="24" height="24" viewBox="0 0 24 24">
  <defs/>
  <path fill="#2D264B" d="M11.25,9 C11.25,9.414 11.586,9.75 12,9.75 C12.414,9.75 12.75,9.414 12.75,9 L11.25,9 Z M17.25,9 L17.25,15 L18.75,15 L18.75,9 L17.25,9 Z M6.75,15 L6.75,9 L5.25,9 L5.25,15 L6.75,15 Z M6.75,9 C6.75,8.042 6.752,7.651 6.802,7.335 L5.321,7.101 C5.248,7.562 5.25,8.1 5.25,9 L6.75,9 Z M12,2.25 C11.1,2.25 10.562,2.248 10.101,2.321 L10.335,3.802 C10.651,3.752 11.042,3.75 12,3.75 L12,2.25 Z M6.802,7.335 C7.09,5.517 8.517,4.09 10.335,3.802 L10.101,2.321 C7.64,2.71 5.71,4.64 5.321,7.101 L6.802,7.335 Z M12,20.25 C11.042,20.25 10.651,20.248 10.335,20.198 L10.101,21.679 C10.562,21.752 11.1,21.75 12,21.75 L12,20.25 Z M5.25,15 C5.25,15.9 5.248,16.438 5.321,16.899 L6.802,16.665 C6.752,16.349 6.75,15.958 6.75,15 L5.25,15 Z M10.335,20.198 C8.517,19.91 7.09,18.483 6.802,16.665 L5.321,16.899 C5.71,19.36 7.64,21.29 10.101,21.679 L10.335,20.198 Z M17.25,15 C17.25,15.958 17.248,16.349 17.198,16.665 L18.679,16.899 C18.752,16.438 18.75,15.9 18.75,15 L17.25,15 Z M12,21.75 C12.9,21.75 13.438,21.752 13.899,21.679 L13.665,20.198 C13.349,20.248 12.958,20.25 12,20.25 L12,21.75 Z M17.198,16.665 C16.91,18.483 15.483,19.91 13.665,20.198 L13.899,21.679 C16.36,21.29 18.29,19.36 18.679,16.899 L17.198,16.665 Z M18.75,9 C18.75,8.1 18.752,7.562 18.679,7.101 L17.198,7.335 C17.248,7.651 17.25,8.042 17.25,9 L18.75,9 Z M12,3.75 C12.958,3.75 13.349,3.752 13.665,3.802 L13.899,2.321 C13.438,2.248 12.9,2.25 12,2.25 L12,3.75 Z M18.679,7.101 C18.29,4.64 16.36,2.71 13.899,2.321 L13.665,3.802 C15.483,4.09 16.91,5.517 17.198,7.335 L18.679,7.101 Z M13,20.25 L11,20.25 L11,21.75 L13,21.75 L13,20.25 Z M11,11.75 L13,11.75 L13,10.25 L11,10.25 L11,11.75 Z M6.75,16 C6.75,13.653 8.653,11.75 11,11.75 L11,10.25 C7.824,10.25 5.25,12.824 5.25,16 L6.75,16 Z M11,20.25 C8.653,20.25 6.75,18.347 6.75,16 L5.25,16 C5.25,19.176 7.824,21.75 11,21.75 L11,20.25 Z M17.25,16 C17.25,18.347 15.347,20.25 13,20.25 L13,21.75 C16.176,21.75 18.75,19.176 18.75,16 L17.25,16 Z M18.75,16 C18.75,12.824 16.176,10.25 13,10.25 L13,11.75 C15.347,11.75 17.25,13.653 17.25,16 L18.75,16 Z M12.75,9 L12.75,3 L11.25,3 L11.25,9 L12.75,9 Z"/>
</svg>

