<svg width="24" height="24" viewBox="0 0 24 24" fill="none" xmlns="http://www.w3.org/2000/svg">
<path d="M13.4207 2.28622C12.0871 2.06839 10.7928 2.8517 10.3673 4.13421C10.2814 4.39324 10.2532 4.67334 10.2413 4.9664C10.2295 5.25805 10.2326 5.62401 10.2365 6.07477L10.2371 6.14951C10.2386 6.33724 10.24 6.50031 10.25 6.65111L10.25 14.1478C9.62325 13.677 8.8442 13.3981 8 13.3981C5.92893 13.3981 4.25 15.077 4.25 17.1481C4.25 19.2191 5.92893 20.8981 8 20.8981C10.0711 20.8981 11.75 19.2191 11.75 17.1481L11.75 8.90197C11.8191 8.94013 11.8923 8.97946 11.9704 9.02138L15.3521 10.8398C15.7496 11.0535 16.0725 11.2271 16.3367 11.3528C16.6023 11.4791 16.864 11.5847 17.1343 11.6292C18.4585 11.8469 19.7464 11.0771 20.1817 9.80775C20.2706 9.54859 20.3015 9.26804 20.316 8.97431C20.3305 8.68217 20.3305 8.31564 20.3305 7.86435L20.3305 7.7883C20.3306 7.4716 20.3307 7.22378 20.2895 6.98758C20.1724 6.31704 19.8108 5.71376 19.2746 5.29443C19.0857 5.14671 18.8671 5.03 18.5878 4.88083L15.2006 3.0704C14.803 2.8579 14.4803 2.68537 14.2164 2.56056C13.9513 2.43515 13.69 2.33022 13.4207 2.28622Z" fill="#2D264B"/>
</svg>
