<svg xmlns="http://www.w3.org/2000/svg" width="24" height="24" viewBox="0 0 24 24">
  <defs/>
  <path fill="#2D264B" d="M2,2.25 C1.586,2.25 1.25,2.586 1.25,3 C1.25,3.414 1.586,3.75 2,3.75 L18,3.75 C18.414,3.75 18.75,3.414 18.75,3 C18.75,2.586 18.414,2.25 18,2.25 L2,2.25 Z"/>
  <path fill="#2D264B" d="M15.25,12.94 L21.25,11.215 L21.25,14.171 C20.806,13.922 20.292,13.781 19.75,13.781 C18.123,13.781 16.75,15.053 16.75,16.688 C16.75,18.322 18.123,19.594 19.75,19.594 C21.377,19.594 22.75,18.322 22.75,16.688 L22.75,8.062 C22.75,6.804 21.505,5.989 20.354,6.328 L16.92,7.341 L15.39,7.76 C14.438,8.02 13.75,8.867 13.75,9.866 L13.75,16.327 C13.306,16.079 12.792,15.938 12.25,15.938 C10.623,15.938 9.25,17.209 9.25,18.844 C9.25,20.479 10.623,21.75 12.25,21.75 C13.877,21.75 15.25,20.479 15.25,18.844 L15.25,12.94 Z"/>
  <path fill="#2D264B" d="M2,8.25 C1.586,8.25 1.25,8.586 1.25,9 C1.25,9.414 1.586,9.75 2,9.75 L10,9.75 C10.414,9.75 10.75,9.414 10.75,9 C10.75,8.586 10.414,8.25 10,8.25 L2,8.25 Z"/>
  <path fill="#2D264B" d="M2,14.25 C1.586,14.25 1.25,14.586 1.25,15 C1.25,15.414 1.586,15.75 2,15.75 L8,15.75 C8.414,15.75 8.75,15.414 8.75,15 C8.75,14.586 8.414,14.25 8,14.25 L2,14.25 Z"/>
  <path fill="#2D264B" d="M2,20.25 C1.586,20.25 1.25,20.586 1.25,21 C1.25,21.414 1.586,21.75 2,21.75 L6,21.75 C6.414,21.75 6.75,21.414 6.75,21 C6.75,20.586 6.414,20.25 6,20.25 L2,20.25 Z"/>
</svg>

