<svg width="24" height="24" viewBox="0 0 24 24" fill="none" xmlns="http://www.w3.org/2000/svg">
<path d="M19.25 7.48571L10.75 10.0357V18.4777C10.75 20.5488 9.07107 22.2277 7 22.2277C4.92893 22.2277 3.25 20.5488 3.25 18.4777C3.25 16.4066 4.92893 14.7277 7 14.7277C7.8442 14.7277 8.62325 15.0066 9.25 15.4774V5.98629C9.25 4.75847 10.0639 3.67941 11.2445 3.3421L13.2867 2.75863L17.8679 1.34903C19.3001 0.908358 20.75 1.97925 20.75 3.47769V15.4777C20.75 17.5488 19.0711 19.2277 17 19.2277C14.9289 19.2277 13.25 17.5488 13.25 15.4777C13.25 13.4066 14.9289 11.7277 17 11.7277C17.8442 11.7277 18.6233 12.0066 19.25 12.4774V7.48571Z" fill="#2D264B"/>
</svg>
