<svg width="24" height="24" viewBox="0 0 24 24" fill="none" xmlns="http://www.w3.org/2000/svg">
<path d="M2 2.25C1.58579 2.25 1.25 2.58579 1.25 3C1.25 3.41421 1.58579 3.75 2 3.75H18C18.4142 3.75 18.75 3.41421 18.75 3C18.75 2.58579 18.4142 2.25 18 2.25H2Z" fill="#2D264B"/>
<path d="M15.25 12.9397L21.25 11.2147V14.171C20.8057 13.9223 20.2919 13.7812 19.75 13.7812C18.1235 13.7812 16.75 15.0526 16.75 16.6875C16.75 18.3223 18.1235 19.5937 19.75 19.5937C21.3765 19.5937 22.75 18.3223 22.75 16.6875V8.06243C22.75 6.80406 21.5049 5.98898 20.3542 6.3283L16.9199 7.34098L15.3899 7.75993C14.4384 8.02044 13.75 8.867 13.75 9.8655V16.3273C13.3057 16.0786 12.7919 15.9375 12.25 15.9375C10.6235 15.9375 9.25 17.2089 9.25 18.8437C9.25 20.4786 10.6235 21.75 12.25 21.75C13.8765 21.75 15.25 20.4786 15.25 18.8437V12.9397Z" fill="#2D264B"/>
<path d="M2 8.25C1.58579 8.25 1.25 8.58579 1.25 9C1.25 9.41421 1.58579 9.75 2 9.75H10C10.4142 9.75 10.75 9.41421 10.75 9C10.75 8.58579 10.4142 8.25 10 8.25H2Z" fill="#2D264B"/>
<path d="M2 14.25C1.58579 14.25 1.25 14.5858 1.25 15C1.25 15.4142 1.58579 15.75 2 15.75H8C8.41421 15.75 8.75 15.4142 8.75 15C8.75 14.5858 8.41421 14.25 8 14.25H2Z" fill="#2D264B"/>
<path d="M2 20.25C1.58579 20.25 1.25 20.5858 1.25 21C1.25 21.4142 1.58579 21.75 2 21.75H6C6.41421 21.75 6.75 21.4142 6.75 21C6.75 20.5858 6.41421 20.25 6 20.25H2Z" fill="#2D264B"/>
</svg>
