<svg xmlns="http://www.w3.org/2000/svg" width="24" height="24" viewBox="0 0 24 24">
  <defs/>
  <path fill="#2D264B" d="M11.75,5.148 C11.75,4.734 11.414,4.398 11,4.398 C10.586,4.398 10.25,4.734 10.25,5.148 L11.75,5.148 Z M14.511,4.403 L17.831,6.177 L18.538,4.854 L15.218,3.08 L14.511,4.403 Z M16.045,9.509 L12.729,7.726 L12.019,9.047 L15.335,10.83 L16.045,9.509 Z M12.729,7.726 C12.384,7.541 12.292,7.488 12.22,7.432 L11.297,8.614 C11.493,8.768 11.722,8.888 12.019,9.047 L12.729,7.726 Z M10.237,6.095 C10.239,6.432 10.239,6.69 10.283,6.935 L11.76,6.669 C11.743,6.579 11.74,6.473 11.737,6.082 L10.237,6.095 Z M12.22,7.432 C11.978,7.243 11.814,6.971 11.76,6.669 L10.283,6.935 C10.403,7.6 10.764,8.198 11.297,8.614 L12.22,7.432 Z M18.831,7.844 C18.831,8.32 18.83,8.65 18.818,8.9 C18.805,9.154 18.782,9.265 18.763,9.321 L20.182,9.808 C20.271,9.549 20.302,9.268 20.316,8.974 C20.331,8.678 20.331,8.305 20.331,7.844 L18.831,7.844 Z M15.335,10.83 C15.74,11.048 16.069,11.225 16.337,11.353 C16.602,11.479 16.864,11.585 17.134,11.629 L17.378,10.149 C17.319,10.139 17.21,10.107 16.981,9.998 C16.754,9.89 16.464,9.735 16.045,9.509 L15.335,10.83 Z M18.763,9.321 C18.565,9.898 17.98,10.248 17.378,10.149 L17.134,11.629 C18.459,11.847 19.746,11.077 20.182,9.808 L18.763,9.321 Z M17.831,6.177 C18.183,6.365 18.277,6.419 18.351,6.476 L19.275,5.294 C19.075,5.138 18.842,5.016 18.538,4.854 L17.831,6.177 Z M20.331,7.844 C20.331,7.5 20.333,7.237 20.29,6.988 L18.812,7.246 C18.828,7.337 18.831,7.445 18.831,7.844 L20.331,7.844 Z M18.351,6.476 C18.594,6.667 18.759,6.941 18.812,7.246 L20.29,6.988 C20.172,6.317 19.811,5.714 19.275,5.294 L18.351,6.476 Z M15.218,3.08 C14.812,2.863 14.484,2.687 14.216,2.56 C13.951,2.435 13.69,2.33 13.421,2.286 L13.179,3.767 C13.237,3.776 13.346,3.808 13.575,3.916 C13.802,4.024 14.092,4.178 14.511,4.403 L15.218,3.08 Z M11.737,6.082 C11.732,5.606 11.73,5.277 11.74,5.027 C11.75,4.774 11.772,4.663 11.791,4.607 L10.367,4.134 C10.281,4.393 10.253,4.673 10.241,4.966 C10.229,5.262 10.233,5.635 10.237,6.095 L11.737,6.082 Z M13.421,2.286 C12.087,2.068 10.793,2.852 10.367,4.134 L11.791,4.607 C11.984,4.024 12.573,3.668 13.179,3.767 L13.421,2.286 Z M10.25,5.148 L10.25,17.148 L11.75,17.148 L11.75,5.148 L10.25,5.148 Z M4.25,17.148 C4.25,19.219 5.929,20.898 8,20.898 L8,19.398 C6.757,19.398 5.75,18.391 5.75,17.148 L4.25,17.148 Z M8,20.898 C10.071,20.898 11.75,19.219 11.75,17.148 L10.25,17.148 C10.25,18.391 9.243,19.398 8,19.398 L8,20.898 Z M11.75,17.148 C11.75,15.077 10.071,13.398 8,13.398 L8,14.898 C9.243,14.898 10.25,15.905 10.25,17.148 L11.75,17.148 Z M8,13.398 C5.929,13.398 4.25,15.077 4.25,17.148 L5.75,17.148 C5.75,15.905 6.757,14.898 8,14.898 L8,13.398 Z"/>
</svg>

