<svg xmlns="http://www.w3.org/2000/svg" width="24" height="24" viewBox="0 0 24 24">
  <defs/>
  <path fill="#2D264B" d="M19.25,7.486 L10.75,10.036 L10.75,18.478 C10.75,20.549 9.071,22.228 7,22.228 C4.929,22.228 3.25,20.549 3.25,18.478 C3.25,16.407 4.929,14.728 7,14.728 C7.844,14.728 8.623,15.007 9.25,15.477 L9.25,5.986 C9.25,4.758 10.064,3.679 11.245,3.342 L13.287,2.759 L17.868,1.349 C19.3,0.908 20.75,1.979 20.75,3.478 L20.75,15.478 C20.75,17.549 19.071,19.228 17,19.228 C14.929,19.228 13.25,17.549 13.25,15.478 C13.25,13.407 14.929,11.728 17,11.728 C17.844,11.728 18.623,12.007 19.25,12.477 L19.25,7.486 Z"/>
</svg>

