<svg xmlns="http://www.w3.org/2000/svg" width="24" height="24" viewBox="0 0 24 24">
  <defs/>
  <path fill="#2D264B" d="M13.421,2.286 C12.087,2.068 10.793,2.852 10.367,4.134 C10.281,4.393 10.253,4.673 10.241,4.966 C10.229,5.258 10.233,5.624 10.236,6.075 L10.237,6.15 C10.239,6.337 10.24,6.5 10.25,6.651 L10.25,14.148 C9.623,13.677 8.844,13.398 8,13.398 C5.929,13.398 4.25,15.077 4.25,17.148 C4.25,19.219 5.929,20.898 8,20.898 C10.071,20.898 11.75,19.219 11.75,17.148 L11.75,8.902 C11.819,8.94 11.892,8.979 11.97,9.021 L15.352,10.84 C15.75,11.053 16.073,11.227 16.337,11.353 C16.602,11.479 16.864,11.585 17.134,11.629 C18.459,11.847 19.746,11.077 20.182,9.808 C20.271,9.549 20.302,9.268 20.316,8.974 C20.331,8.682 20.331,8.316 20.331,7.864 L20.331,7.788 C20.331,7.472 20.331,7.224 20.29,6.988 C20.172,6.317 19.811,5.714 19.275,5.294 C19.086,5.147 18.867,5.03 18.588,4.881 L15.201,3.07 C14.803,2.858 14.48,2.685 14.216,2.561 C13.951,2.435 13.69,2.33 13.421,2.286 Z"/>
</svg>

