<svg width="24" height="24" viewBox="0 0 24 24" fill="none" xmlns="http://www.w3.org/2000/svg">
<path d="M19.75 6C19.75 5.58579 19.4142 5.25 19 5.25C18.5858 5.25 18.25 5.58579 18.25 6V18C18.25 18.4142 18.5858 18.75 19 18.75C19.4142 18.75 19.75 18.4142 19.75 18V6Z" fill="#2D264B"/>
<path d="M13.2928 7.25183C12.1821 6.59931 11.3026 6.08265 10.5842 5.74553C9.86233 5.4068 9.18921 5.19165 8.5124 5.26403C7.48075 5.37436 6.54757 5.92453 5.94248 6.77195C5.54725 7.32545 5.3946 8.01875 5.32214 8.82239C5.24999 9.62258 5.24999 10.6547 5.25 11.9611V12.0389C5.24999 13.3453 5.24999 14.3774 5.32214 15.1776C5.3946 15.9813 5.54725 16.6745 5.94248 17.228C6.54757 18.0755 7.48074 18.6256 8.5124 18.736C9.18921 18.8083 9.86233 18.5932 10.5842 18.2545C11.3026 17.9174 12.1821 17.4007 13.2928 16.7482L13.3615 16.7078C14.4724 16.0552 15.3518 15.5386 15.9978 15.0742C16.6481 14.6067 17.1633 14.1237 17.4368 13.4987C17.8544 12.5444 17.8544 11.4556 17.4368 10.5013C17.1633 9.8763 16.6481 9.39325 15.9978 8.92578C15.3518 8.4614 14.4724 7.94479 13.3615 7.29217L13.2928 7.25183Z" fill="#2D264B"/>
</svg>
