<svg xmlns="http://www.w3.org/2000/svg" width="24" height="24" viewBox="0 0 24 24">
  <defs/>
  <path fill="#2D264B" d="M19.75,6 C19.75,5.586 19.414,5.25 19,5.25 C18.586,5.25 18.25,5.586 18.25,6 L18.25,18 C18.25,18.414 18.586,18.75 19,18.75 C19.414,18.75 19.75,18.414 19.75,18 L19.75,6 Z"/>
  <path fill="#2D264B" d="M13.293,7.252 C12.182,6.599 11.303,6.083 10.584,5.746 C9.862,5.407 9.189,5.192 8.512,5.264 C7.481,5.374 6.548,5.925 5.942,6.772 C5.547,7.325 5.395,8.019 5.322,8.822 C5.25,9.623 5.25,10.655 5.25,11.961 L5.25,12.039 C5.25,13.345 5.25,14.377 5.322,15.178 C5.395,15.981 5.547,16.674 5.942,17.228 C6.548,18.076 7.481,18.626 8.512,18.736 C9.189,18.808 9.862,18.593 10.584,18.255 C11.303,17.917 12.182,17.401 13.293,16.748 L13.361,16.708 C14.472,16.055 15.352,15.539 15.998,15.074 C16.648,14.607 17.163,14.124 17.437,13.499 C17.854,12.544 17.854,11.456 17.437,10.501 C17.163,9.876 16.648,9.393 15.998,8.926 C15.352,8.461 14.472,7.945 13.361,7.292 L13.293,7.252 Z"/>
</svg>

