<svg xmlns="http://www.w3.org/2000/svg" width="24" height="24" viewBox="0 0 24 24">
  <defs/>
  <path fill="#2D264B" d="M19.75,6 C19.75,5.586 19.414,5.25 19,5.25 C18.586,5.25 18.25,5.586 18.25,6 L19.75,6 Z M18.25,18 C18.25,18.414 18.586,18.75 19,18.75 C19.414,18.75 19.75,18.414 19.75,18 L18.25,18 Z M6.75,12 C6.75,10.646 6.751,9.682 6.816,8.957 C6.882,8.228 7.006,7.864 7.163,7.644 L5.942,6.772 C5.547,7.325 5.395,8.019 5.322,8.822 C5.249,9.631 5.25,10.675 5.25,12 L6.75,12 Z M13.327,7.272 C12.2,6.61 11.31,6.086 10.584,5.746 C9.862,5.407 9.189,5.192 8.512,5.264 L8.672,6.756 C8.931,6.728 9.295,6.798 9.947,7.103 C10.595,7.408 11.415,7.888 12.568,8.565 L13.327,7.272 Z M7.163,7.644 C7.523,7.14 8.072,6.82 8.672,6.756 L8.512,5.264 C7.481,5.374 6.548,5.925 5.942,6.772 L7.163,7.644 Z M12.568,15.435 C11.415,16.112 10.595,16.593 9.947,16.896 C9.295,17.203 8.931,17.272 8.672,17.244 L8.512,18.736 C9.189,18.808 9.862,18.593 10.584,18.255 C11.31,17.914 12.2,17.39 13.327,16.728 L12.568,15.435 Z M5.25,12 C5.25,13.325 5.249,14.37 5.322,15.178 C5.395,15.981 5.547,16.674 5.942,17.228 L7.163,16.356 C7.006,16.136 6.882,15.772 6.816,15.043 C6.751,14.318 6.75,13.354 6.75,12 L5.25,12 Z M8.672,17.244 C8.072,17.18 7.523,16.86 7.163,16.356 L5.942,17.228 C6.548,18.076 7.481,18.626 8.512,18.736 L8.672,17.244 Z M13.327,16.728 C14.454,16.066 15.345,15.543 15.998,15.074 C16.648,14.607 17.163,14.124 17.437,13.499 L16.063,12.897 C15.954,13.147 15.708,13.435 15.122,13.856 C14.539,14.275 13.72,14.757 12.568,15.435 L13.327,16.728 Z M12.568,8.565 C13.72,9.243 14.539,9.725 15.122,10.144 C15.708,10.565 15.954,10.853 16.063,11.103 L17.437,10.501 C17.163,9.876 16.648,9.393 15.998,8.926 C15.345,8.457 14.454,7.934 13.327,7.272 L12.568,8.565 Z M17.437,13.499 C17.854,12.544 17.854,11.456 17.437,10.501 L16.063,11.103 C16.312,11.674 16.312,12.326 16.063,12.897 L17.437,13.499 Z M18.25,6 L18.25,18 L19.75,18 L19.75,6 L18.25,6 Z"/>
</svg>

