<svg width="24" height="24" viewBox="0 0 24 24" fill="none" xmlns="http://www.w3.org/2000/svg">
<path d="M5.49841 7.59536C5.07724 4.22603 7.70442 1.25 11.1 1.25H12.8029C14.4237 1.25 15.8697 1.92739 16.8933 3.00186C15.2859 3.05805 14 4.37886 14 6C14 7.65685 15.3431 9 17 9C17.4764 9 17.9269 8.88895 18.3269 8.69133C18.3738 9.49036 18.7258 10.2497 19.3229 10.8042L19.3668 10.845C20.9801 12.3432 21.2932 14.7799 20.1111 16.6373C19.2736 17.9532 17.822 18.75 16.2623 18.75H8.04147C6.23324 18.75 4.58394 17.7169 3.79477 16.09L3.69142 15.8769C2.84477 14.1315 3.24086 12.0375 4.66654 10.7219C5.35455 10.0871 5.69388 9.15916 5.57776 8.23021L5.49841 7.59536Z" fill="#2D264B"/>
<path d="M8.73339 20.4C9.06476 20.1515 9.53486 20.2186 9.78339 20.55L10.0834 20.95C11.1334 22.35 13.2334 22.35 14.2834 20.95L14.5834 20.55C14.8319 20.2186 15.302 20.1515 15.6334 20.4C15.9648 20.6485 16.0319 21.1186 15.7834 21.45L15.4834 21.85C13.8334 24.05 10.5334 24.05 8.88339 21.85L8.58339 21.45C8.33487 21.1186 8.40202 20.6485 8.73339 20.4Z" fill="#2D264B"/>
<path d="M19.1831 6C19.1831 7.10457 18.2877 8 17.1831 8C16.0785 8 15.1831 7.10457 15.1831 6C15.1831 4.89543 16.0785 4 17.1831 4C18.2877 4 19.1831 4.89543 19.1831 6Z" fill="#2D264B"/>
</svg>
