<svg xmlns="http://www.w3.org/2000/svg" width="24" height="24" viewBox="0 0 24 24">
  <defs/>
  <path fill="#2D264B" d="M5.498,7.595 C5.077,4.226 7.704,1.25 11.1,1.25 L12.803,1.25 C16.202,1.25 18.832,4.229 18.41,7.602 L18.346,8.119 C18.221,9.119 18.584,10.118 19.323,10.804 L19.367,10.845 C20.98,12.343 21.293,14.78 20.111,16.637 C19.338,17.851 18.043,18.624 16.622,18.736 L16.431,19.064 C15.418,20.8 13.84,21.75 12.183,21.75 C10.526,21.75 8.948,20.8 7.936,19.064 L7.747,18.741 C6.056,18.636 4.541,17.628 3.795,16.09 L3.691,15.877 C2.845,14.132 3.241,12.038 4.667,10.722 C5.355,10.087 5.694,9.159 5.578,8.23 Z M9.52,18.75 C10.28,19.788 11.262,20.25 12.183,20.25 C13.104,20.25 14.087,19.788 14.847,18.75 Z"/>
</svg>

