<svg xmlns="http://www.w3.org/2000/svg" width="24" height="24" viewBox="0 0 24 24">
  <defs/>
  <path fill="#2D264B" d="M5.498,7.595 C5.077,4.226 7.704,1.25 11.1,1.25 L12.803,1.25 C14.424,1.25 15.87,1.927 16.893,3.002 C15.286,3.058 14,4.379 14,6 C14,7.657 15.343,9 17,9 C17.476,9 17.927,8.889 18.327,8.691 C18.374,9.49 18.726,10.25 19.323,10.804 L19.367,10.845 C20.98,12.343 21.293,14.78 20.111,16.637 C19.274,17.953 17.822,18.75 16.262,18.75 L8.041,18.75 C6.233,18.75 4.584,17.717 3.795,16.09 L3.691,15.877 C2.845,14.132 3.241,12.037 4.667,10.722 C5.355,10.087 5.694,9.159 5.578,8.23 L5.498,7.595 Z"/>
  <path fill="#2D264B" d="M8.733,20.4 C9.065,20.151 9.535,20.219 9.783,20.55 L10.083,20.95 C11.133,22.35 13.233,22.35 14.283,20.95 L14.583,20.55 C14.832,20.219 15.302,20.151 15.633,20.4 C15.965,20.648 16.032,21.119 15.783,21.45 L15.483,21.85 C13.833,24.05 10.533,24.05 8.883,21.85 L8.583,21.45 C8.335,21.119 8.402,20.648 8.733,20.4 Z"/>
  <path fill="#2D264B" d="M19.183,6 C19.183,7.105 18.288,8 17.183,8 C16.078,8 15.183,7.105 15.183,6 C15.183,4.895 16.078,4 17.183,4 C18.288,4 19.183,4.895 19.183,6 Z"/>
</svg>

