<svg xmlns="http://www.w3.org/2000/svg" width="24" height="24" viewBox="0 0 24 24">
  <defs/>
  <path fill="#2D264B" d="M14.818,3.27 Q13.884,2.75 12.803,2.75 L11.1,2.75 Q9.23,2.75 7.992,4.152 Q6.755,5.554 6.987,7.409 L7.066,8.044 Q7.347,10.29 5.684,11.824 Q4.101,13.285 5.041,15.222 L5.144,15.435 Q6.025,17.25 8.041,17.25 L16.262,17.25 Q17.943,17.25 18.846,15.832 Q20.215,13.68 18.346,11.944 L18.303,11.904 Q17.564,11.218 17.177,10.288 Q17.022,9.916 16.934,9.524 Q16.866,9.221 17.033,8.959 Q17.199,8.696 17.502,8.628 Q17.805,8.56 18.067,8.726 Q18.33,8.892 18.398,9.195 Q18.457,9.46 18.562,9.712 Q18.824,10.341 19.322,10.804 L19.367,10.845 Q22.152,13.431 20.111,16.637 Q18.766,18.75 16.262,18.75 L8.041,18.75 Q5.085,18.75 3.795,16.09 L3.691,15.877 Q2.266,12.937 4.667,10.722 Q5.763,9.71 5.578,8.23 L5.498,7.595 Q5.182,5.068 6.868,3.159 Q8.553,1.25 11.1,1.25 L12.803,1.25 Q14.274,1.25 15.548,1.96 Q15.819,2.111 15.904,2.41 Q15.989,2.708 15.838,2.98 Q15.687,3.251 15.388,3.336 Q15.09,3.421 14.818,3.27 Z M9.783,20.55 L10.083,20.95 Q10.871,22 12.183,22 Q13.496,22 14.283,20.95 L14.583,20.55 Q14.77,20.301 15.077,20.258 Q15.385,20.214 15.633,20.4 Q15.882,20.586 15.926,20.894 Q15.97,21.201 15.783,21.45 L15.483,21.85 Q14.246,23.5 12.183,23.5 Q10.121,23.5 8.883,21.85 L8.583,21.45 Q8.397,21.201 8.441,20.894 Q8.485,20.586 8.733,20.4 Q8.982,20.214 9.289,20.258 Q9.597,20.301 9.783,20.55 Z"/>
  <path fill="#2D264B" d="M19.183,6 C19.183,7.105 18.288,8 17.183,8 C16.078,8 15.183,7.105 15.183,6 C15.183,4.895 16.078,4 17.183,4 C18.288,4 19.183,4.895 19.183,6 Z"/>
</svg>

