<svg xmlns="http://www.w3.org/2000/svg" width="24" height="24" viewBox="0 0 24 24">
  <defs/>
  <path fill="#2D264B" d="M15.665,3.895 Q14.465,2.75 12.803,2.75 L11.1,2.75 Q9.23,2.75 7.992,4.152 Q6.755,5.554 6.987,7.409 L7.066,8.044 Q7.347,10.29 5.684,11.824 Q4.101,13.285 5.041,15.222 L5.144,15.435 Q6.025,17.25 8.041,17.25 L8.125,17.25 Q8.176,17.246 8.227,17.25 L16.139,17.25 Q16.191,17.246 16.241,17.25 L16.262,17.25 Q17.943,17.25 18.846,15.832 Q20.215,13.68 18.346,11.944 L18.303,11.904 Q17.869,11.501 17.551,11.004 Q17.384,10.742 17.451,10.439 Q17.517,10.135 17.779,9.968 Q18.041,9.801 18.344,9.867 Q18.648,9.934 18.815,10.196 Q19.03,10.532 19.322,10.804 L19.367,10.845 Q22.152,13.431 20.111,16.637 Q18.864,18.596 16.62,18.739 L16.431,19.064 Q14.864,21.75 12.183,21.75 Q9.502,21.75 7.935,19.064 L7.748,18.743 Q5.02,18.616 3.795,16.09 L3.691,15.877 Q2.266,12.937 4.667,10.722 Q5.763,9.71 5.578,8.23 L5.498,7.595 Q5.182,5.068 6.868,3.159 Q8.553,1.25 11.1,1.25 L12.803,1.25 Q15.066,1.25 16.701,2.809 Q16.926,3.024 16.933,3.334 Q16.94,3.645 16.726,3.87 Q16.511,4.094 16.201,4.102 Q15.89,4.109 15.665,3.895 Z M9.516,18.75 Q10.584,20.25 12.183,20.25 Q13.782,20.25 14.851,18.75 L9.516,18.75 Z"/>
  <path fill="#2D264B" d="M19.183,7 C19.183,8.105 18.288,9 17.183,9 C16.078,9 15.183,8.105 15.183,7 C15.183,5.895 16.078,5 17.183,5 C18.288,5 19.183,5.895 19.183,7 Z"/>
</svg>

