<svg xmlns="http://www.w3.org/2000/svg" width="24" height="24" viewBox="0 0 24 24">
  <defs/>
  <path fill="#2D264B" d="M19.183,7 C19.183,8.105 18.288,9 17.183,9 C16.079,9 15.183,8.105 15.183,7 C15.183,5.895 16.079,5 17.183,5 C18.288,5 19.183,5.895 19.183,7 Z"/>
  <path fill="#2D264B" d="M11.1,1.25 L12.803,1.25 C14.916,1.25 16.732,2.401 17.702,4.083 C17.477,4.029 17.242,4 17,4 C15.343,4 14,5.343 14,7 C14,8.657 15.343,10 17,10 C17.552,10 18.07,9.851 18.514,9.59 C18.682,10.047 18.956,10.464 19.323,10.804 L19.367,10.845 C20.98,12.343 21.293,14.78 20.111,16.637 C19.338,17.851 18.043,18.624 16.622,18.736 L16.431,19.064 C15.418,20.8 13.84,21.75 12.183,21.75 C10.526,21.75 8.948,20.8 7.936,19.064 L7.747,18.741 C6.056,18.636 4.541,17.628 3.795,16.09 L3.691,15.877 C2.845,14.132 3.241,12.038 4.667,10.722 C5.355,10.087 5.694,9.159 5.578,8.23 L5.498,7.595 C5.077,4.226 7.704,1.25 11.1,1.25 Z M12.183,20.25 C13.104,20.25 14.087,19.788 14.847,18.75 L9.52,18.75 C10.28,19.788 11.262,20.25 12.183,20.25 Z"/>
</svg>

