<svg width="24" height="24" viewBox="0 0 24 24" fill="none" xmlns="http://www.w3.org/2000/svg">
<path d="M19.1832 7C19.1832 8.10457 18.2878 9 17.1832 9C16.0787 9 15.1832 8.10457 15.1832 7C15.1832 5.89543 16.0787 5 17.1832 5C18.2878 5 19.1832 5.89543 19.1832 7Z" fill="#2D264B"/>
<path fill-rule="evenodd" clip-rule="evenodd" d="M11.1 1.25C7.70442 1.25 5.07724 4.22603 5.49841 7.59536L5.57776 8.23021C5.69388 9.15916 5.35455 10.0871 4.66654 10.7219C3.24086 12.0375 2.84477 14.1315 3.69142 15.8769L3.79477 16.09C4.54092 17.6282 6.05598 18.6356 7.74728 18.7409L7.93556 19.0636C8.94835 20.7998 10.5264 21.75 12.1834 21.75C13.8404 21.75 15.4184 20.7998 16.4312 19.0636L16.6225 18.7358C18.0431 18.6235 19.3385 17.8513 20.1111 16.6373C21.2932 14.7799 20.9801 12.3432 19.3668 10.845L19.3229 10.8042C18.9565 10.4639 18.6824 10.0466 18.5145 9.59023C18.0699 9.85069 17.5524 10 17 10C15.3431 10 14 8.65685 14 7C14 5.34315 15.3431 4 17 4C17.2417 4 17.4768 4.02859 17.702 4.08258C16.7317 2.40121 14.9159 1.25 12.8029 1.25H11.1ZM12.1834 20.25C11.2623 20.25 10.2795 19.7877 9.52013 18.75H14.8467C14.0873 19.7877 13.1045 20.25 12.1834 20.25Z" fill="#2D264B"/>
</svg>
