<svg width="24" height="24" viewBox="0 0 24 24" fill="none" xmlns="http://www.w3.org/2000/svg">
<path fill-rule="evenodd" clip-rule="evenodd" d="M5.49841 7.59536C5.07724 4.22603 7.70442 1.25 11.1 1.25H12.8029C16.202 1.25 18.832 4.22918 18.4104 7.60208L18.3458 8.11901C18.2208 9.11912 18.5844 10.1183 19.3229 10.8042L19.3668 10.845C20.9801 12.3432 21.2932 14.7799 20.1111 16.6373C19.3385 17.8513 18.0431 18.6235 16.6225 18.7358L16.4312 19.0636C15.4184 20.7998 13.8404 21.75 12.1834 21.75C10.5264 21.75 8.94835 20.7998 7.93556 19.0636L7.74728 18.7409C6.05598 18.6356 4.54092 17.6282 3.79477 16.09L3.69142 15.8769C2.84477 14.1315 3.24086 12.0375 4.66654 10.7219C5.35455 10.0871 5.69388 9.15916 5.57776 8.23021L5.49841 7.59536ZM9.52013 18.75C10.2795 19.7877 11.2623 20.25 12.1834 20.25C13.1045 20.25 14.0873 19.7877 14.8467 18.75H9.52013Z" fill="#2D264B"/>
</svg>
