<svg xmlns="http://www.w3.org/2000/svg" width="24" height="24" viewBox="0 0 24 24">
  <defs/>
  <path fill="#2D264B" d="M11.1,1.25 C7.704,1.25 5.077,4.226 5.498,7.595 L5.578,8.23 C5.694,9.159 5.355,10.087 4.667,10.722 C3.241,12.037 2.845,14.132 3.691,15.877 L3.795,16.09 C4.584,17.717 6.233,18.75 8.041,18.75 L16.262,18.75 C17.822,18.75 19.274,17.953 20.111,16.637 C21.293,14.78 20.98,12.343 19.367,10.845 L19.323,10.804 C18.584,10.118 18.221,9.119 18.346,8.119 L18.41,7.602 C18.832,4.229 16.202,1.25 12.803,1.25 L11.1,1.25 Z"/>
  <path fill="#2D264B" d="M9.783,20.55 C9.535,20.219 9.065,20.151 8.733,20.4 C8.402,20.648 8.335,21.119 8.583,21.45 L8.883,21.85 C10.533,24.05 13.833,24.05 15.483,21.85 L15.783,21.45 C16.032,21.119 15.965,20.648 15.633,20.4 C15.302,20.151 14.832,20.219 14.583,20.55 L14.283,20.95 C13.233,22.35 11.133,22.35 10.083,20.95 L9.783,20.55 Z"/>
</svg>

