<svg xmlns="http://www.w3.org/2000/svg" width="24" height="24" viewBox="0 0 24 24">
  <defs/>
  <path fill="#2D264B" d="M12.045,2.25 C13.882,2.25 15.321,2.25 16.463,2.374 C17.629,2.5 18.573,2.762 19.38,3.348 C19.868,3.703 20.297,4.132 20.652,4.62 C21.238,5.427 21.5,6.371 21.626,7.536 C21.75,8.679 21.75,10.118 21.75,11.955 L21.75,12.045 C21.75,13.882 21.75,15.321 21.626,16.463 C21.5,17.629 21.238,18.573 20.652,19.38 C20.297,19.868 19.868,20.297 19.38,20.652 C18.573,21.238 17.629,21.5 16.463,21.626 C15.321,21.75 13.882,21.75 12.045,21.75 L11.955,21.75 C10.118,21.75 8.679,21.75 7.536,21.626 C6.371,21.5 5.427,21.238 4.62,20.652 C4.132,20.297 3.703,19.868 3.348,19.38 C2.762,18.573 2.5,17.629 2.374,16.463 C2.25,15.321 2.25,13.882 2.25,12.045 L2.25,11.955 C2.25,10.118 2.25,8.679 2.374,7.536 C2.5,6.371 2.762,5.427 3.348,4.62 C3.703,4.132 4.132,3.703 4.62,3.348 C5.427,2.762 6.371,2.5 7.536,2.374 C8.679,2.25 10.118,2.25 11.955,2.25 Z M12.75,7 C12.75,6.586 12.414,6.25 12,6.25 C11.586,6.25 11.25,6.586 11.25,7 L11.25,10.618 L8.78,8.149 C8.487,7.856 8.012,7.856 7.72,8.149 C7.427,8.441 7.427,8.916 7.72,9.209 L9.76,11.25 L7,11.25 C6.586,11.25 6.25,11.586 6.25,12 C6.25,12.414 6.586,12.75 7,12.75 L10.189,12.75 L7.72,15.22 C7.427,15.513 7.427,15.987 7.72,16.28 C8.013,16.573 8.487,16.573 8.78,16.28 L11.25,13.811 L11.25,17 C11.25,17.414 11.586,17.75 12,17.75 C12.414,17.75 12.75,17.414 12.75,17 L12.75,14.24 L14.791,16.28 C15.083,16.573 15.558,16.573 15.851,16.28 C16.144,15.987 16.144,15.513 15.851,15.22 L13.382,12.75 L17,12.75 C17.414,12.75 17.75,12.414 17.75,12 C17.75,11.586 17.414,11.25 17,11.25 L13.811,11.25 L15.851,9.209 C16.144,8.916 16.144,8.441 15.851,8.149 C15.559,7.856 15.084,7.856 14.791,8.149 L12.75,10.189 Z"/>
</svg>

