<svg width="24" height="24" viewBox="0 0 24 24" fill="none" xmlns="http://www.w3.org/2000/svg">
<path fill-rule="evenodd" clip-rule="evenodd" d="M12.0452 2.25C13.8818 2.24999 15.3214 2.24999 16.4635 2.37373C17.6291 2.50001 18.5734 2.76232 19.3798 3.34815C19.8679 3.70281 20.2972 4.13209 20.6518 4.62024C21.2377 5.42656 21.5 6.37094 21.6263 7.53648C21.75 8.67859 21.75 10.1182 21.75 11.9547V12.0453C21.75 13.8818 21.75 15.3214 21.6263 16.4635C21.5 17.6291 21.2377 18.5734 20.6518 19.3798C20.2972 19.8679 19.8679 20.2972 19.3798 20.6518C18.5734 21.2377 17.6291 21.5 16.4635 21.6263C15.3214 21.75 13.8818 21.75 12.0453 21.75H11.9547C10.1182 21.75 8.67859 21.75 7.53648 21.6263C6.37094 21.5 5.42656 21.2377 4.62024 20.6518C4.13209 20.2972 3.70281 19.8679 3.34815 19.3798C2.76232 18.5734 2.50001 17.6291 2.37373 16.4635C2.24999 15.3214 2.24999 13.8818 2.25 12.0452V11.9548C2.24999 10.1182 2.24999 8.67861 2.37373 7.53648C2.50001 6.37094 2.76232 5.42656 3.34815 4.62024C3.70281 4.13209 4.13209 3.70281 4.62024 3.34815C5.42656 2.76232 6.37094 2.50001 7.53648 2.37373C8.67861 2.24999 10.1182 2.24999 11.9548 2.25H12.0452ZM12.75 7C12.75 6.58579 12.4142 6.25 12 6.25C11.5858 6.25 11.25 6.58579 11.25 7V10.6184L8.78019 8.1486C8.48729 7.85571 8.01242 7.85571 7.71952 8.1486C7.42663 8.4415 7.42663 8.91637 7.71952 9.20926L9.76026 11.25H7C6.58579 11.25 6.25 11.5858 6.25 12C6.25 12.4142 6.58579 12.75 7 12.75H10.1893L7.71967 15.2197C7.42678 15.5126 7.42678 15.9874 7.71967 16.2803C8.01256 16.5732 8.48744 16.5732 8.78033 16.2803L11.25 13.8107V17C11.25 17.4142 11.5858 17.75 12 17.75C12.4142 17.75 12.75 17.4142 12.75 17V14.2397L14.7906 16.2803C15.0835 16.5732 15.5584 16.5732 15.8513 16.2803C16.1441 15.9874 16.1441 15.5126 15.8513 15.2197L13.3816 12.75H17C17.4142 12.75 17.75 12.4142 17.75 12C17.75 11.5858 17.4142 11.25 17 11.25H13.8107L15.8514 9.20926C16.1443 8.91637 16.1443 8.4415 15.8514 8.1486C15.5585 7.85571 15.0836 7.85571 14.7907 8.1486L12.75 10.1893V7Z" fill="#2D264B"/>
</svg>
