<svg xmlns="http://www.w3.org/2000/svg" width="24" height="24" viewBox="0 0 24 24">
  <defs/>
  <path fill="#2D264B" d="M7.72,15.22 C7.427,15.513 7.427,15.987 7.72,16.28 C8.013,16.573 8.487,16.573 8.78,16.28 L7.72,15.22 Z M15.851,9.209 C16.144,8.916 16.144,8.441 15.851,8.149 C15.559,7.856 15.084,7.856 14.791,8.149 L15.851,9.209 Z M14.791,16.28 C15.084,16.573 15.558,16.573 15.851,16.28 C16.144,15.987 16.144,15.513 15.851,15.22 L14.791,16.28 Z M8.78,8.149 C8.487,7.856 8.012,7.856 7.72,8.149 C7.427,8.441 7.427,8.916 7.72,9.209 L8.78,8.149 Z M17,12.75 C17.414,12.75 17.75,12.414 17.75,12 C17.75,11.586 17.414,11.25 17,11.25 L17,12.75 Z M7,11.25 C6.586,11.25 6.25,11.586 6.25,12 C6.25,12.414 6.586,12.75 7,12.75 L7,11.25 Z M11.25,17 C11.25,17.414 11.586,17.75 12,17.75 C12.414,17.75 12.75,17.414 12.75,17 L11.25,17 Z M12.75,7 C12.75,6.586 12.414,6.25 12,6.25 C11.586,6.25 11.25,6.586 11.25,7 L12.75,7 Z M12,20.25 C10.108,20.25 8.75,20.249 7.698,20.135 C6.66,20.023 6.01,19.807 5.502,19.438 L4.62,20.652 C5.427,21.238 6.371,21.5 7.536,21.626 C8.688,21.751 10.142,21.75 12,21.75 L12,20.25 Z M2.25,12 C2.25,13.858 2.249,15.312 2.374,16.463 C2.5,17.629 2.762,18.573 3.348,19.38 L4.562,18.498 C4.193,17.99 3.977,17.34 3.865,16.302 C3.751,15.25 3.75,13.892 3.75,12 L2.25,12 Z M5.502,19.438 C5.141,19.176 4.824,18.859 4.562,18.498 L3.348,19.38 C3.703,19.868 4.132,20.297 4.62,20.652 L5.502,19.438 Z M20.25,12 C20.25,13.892 20.249,15.25 20.135,16.302 C20.023,17.34 19.807,17.99 19.438,18.498 L20.652,19.38 C21.238,18.573 21.5,17.629 21.626,16.463 C21.751,15.312 21.75,13.858 21.75,12 L20.25,12 Z M12,21.75 C13.858,21.75 15.312,21.751 16.463,21.626 C17.629,21.5 18.573,21.238 19.38,20.652 L18.498,19.438 C17.99,19.807 17.34,20.023 16.302,20.135 C15.25,20.249 13.892,20.25 12,20.25 L12,21.75 Z M19.438,18.498 C19.176,18.859 18.859,19.176 18.498,19.438 L19.38,20.652 C19.868,20.297 20.297,19.868 20.652,19.38 L19.438,18.498 Z M12,3.75 C13.892,3.75 15.25,3.751 16.302,3.865 C17.34,3.977 17.99,4.193 18.498,4.562 L19.38,3.348 C18.573,2.762 17.629,2.5 16.463,2.374 C15.312,2.249 13.858,2.25 12,2.25 L12,3.75 Z M21.75,12 C21.75,10.142 21.751,8.688 21.626,7.536 C21.5,6.371 21.238,5.427 20.652,4.62 L19.438,5.502 C19.807,6.01 20.023,6.66 20.135,7.698 C20.249,8.75 20.25,10.108 20.25,12 L21.75,12 Z M18.498,4.562 C18.859,4.824 19.176,5.141 19.438,5.502 L20.652,4.62 C20.297,4.132 19.868,3.703 19.38,3.348 L18.498,4.562 Z M12,2.25 C10.142,2.25 8.688,2.249 7.536,2.374 C6.371,2.5 5.427,2.762 4.62,3.348 L5.502,4.562 C6.01,4.193 6.66,3.977 7.698,3.865 C8.75,3.751 10.108,3.75 12,3.75 L12,2.25 Z M3.75,12 C3.75,10.108 3.751,8.75 3.865,7.698 C3.977,6.66 4.193,6.01 4.562,5.502 L3.348,4.62 C2.762,5.427 2.5,6.371 2.374,7.536 C2.249,8.688 2.25,10.142 2.25,12 L3.75,12 Z M4.62,3.348 C4.132,3.703 3.703,4.132 3.348,4.62 L4.562,5.502 C4.824,5.141 5.141,4.824 5.502,4.562 L4.62,3.348 Z M8.78,16.28 L12.316,12.745 L11.255,11.684 L7.72,15.22 L8.78,16.28 Z M12.316,12.745 L12.53,12.53 L11.47,11.47 L11.255,11.684 L12.316,12.745 Z M12.53,12.53 L15.851,9.209 L14.791,8.149 L11.47,11.47 L12.53,12.53 Z M15.851,15.22 L12.53,11.899 L11.47,12.959 L14.791,16.28 L15.851,15.22 Z M12.53,11.899 L12.316,11.684 L11.255,12.745 L11.47,12.959 L12.53,11.899 Z M12.316,11.684 L12.101,11.47 L11.041,12.53 L11.255,12.745 L12.316,11.684 Z M12.101,11.47 L8.78,8.149 L7.72,9.209 L11.041,12.53 L12.101,11.47 Z M17,11.25 L12,11.25 L12,12.75 L17,12.75 L17,11.25 Z M12,11.25 L11.571,11.25 L11.571,12.75 L12,12.75 L12,11.25 Z M11.571,11.25 L7,11.25 L7,12.75 L11.571,12.75 L11.571,11.25 Z M12.75,17 L12.75,12.429 L11.25,12.429 L11.25,17 L12.75,17 Z M12.75,12.429 L12.75,12 L11.25,12 L11.25,12.429 L12.75,12.429 Z M12.75,12 L12.75,7 L11.25,7 L11.25,12 L12.75,12 Z"/>
</svg>

