<svg width="24" height="24" viewBox="0 0 24 24" fill="none" xmlns="http://www.w3.org/2000/svg">
<path d="M12.75 2C12.75 1.58579 12.4142 1.25 12 1.25C11.5858 1.25 11.25 1.58579 11.25 2V9C11.25 9.41421 11.5858 9.75 12 9.75C12.4142 9.75 12.75 9.41421 12.75 9V2Z" fill="#2D264B"/>
<path d="M6.45046 4.59966C6.78164 4.35087 6.84844 3.88072 6.59966 3.54954C6.35087 3.21836 5.88072 3.15156 5.54954 3.40034C2.94046 5.36028 1.25 8.48258 1.25 12C1.25 17.9371 6.06294 22.75 12 22.75C17.9371 22.75 22.75 17.9371 22.75 12C22.75 8.50873 21.0178 5.363 18.4555 3.40417C18.1264 3.1526 17.6557 3.21543 17.4042 3.5445C17.1526 3.87357 17.2154 4.34427 17.5445 4.59583C19.7627 6.29161 21.25 9.00913 21.25 12C21.25 17.1086 17.1086 21.25 12 21.25C6.89137 21.25 2.75 17.1086 2.75 12C2.75 8.97446 4.20215 6.28858 6.45046 4.59966Z" fill="#2D264B"/>
</svg>
