<svg xmlns="http://www.w3.org/2000/svg" width="24" height="24" viewBox="0 0 24 24">
  <defs/>
  <path fill="#2D264B" d="M12.75,2 C12.75,1.586 12.414,1.25 12,1.25 C11.586,1.25 11.25,1.586 11.25,2 L11.25,9 C11.25,9.414 11.586,9.75 12,9.75 C12.414,9.75 12.75,9.414 12.75,9 L12.75,2 Z"/>
  <path fill="#2D264B" d="M6.45,4.6 C6.782,4.351 6.848,3.881 6.6,3.55 C6.351,3.218 5.881,3.152 5.55,3.4 C2.94,5.36 1.25,8.483 1.25,12 C1.25,17.937 6.063,22.75 12,22.75 C17.937,22.75 22.75,17.937 22.75,12 C22.75,8.509 21.018,5.363 18.456,3.404 C18.126,3.153 17.656,3.215 17.404,3.545 C17.153,3.874 17.215,4.344 17.544,4.596 C19.763,6.292 21.25,9.009 21.25,12 C21.25,17.109 17.109,21.25 12,21.25 C6.891,21.25 2.75,17.109 2.75,12 C2.75,8.974 4.202,6.289 6.45,4.6 Z"/>
</svg>

