<svg xmlns="http://www.w3.org/2000/svg" width="24" height="24" viewBox="0 0 24 24">
  <defs/>
  <path fill="#2D264B" d="M18.455,3.404 Q22.75,6.687 22.75,12 Q22.75,16.453 19.601,19.601 Q16.453,22.75 12,22.75 Q7.547,22.75 4.399,19.601 Q1.25,16.453 1.25,12 Q1.25,6.63 5.55,3.4 Q5.798,3.214 6.105,3.257 Q6.413,3.301 6.6,3.55 Q6.786,3.798 6.743,4.105 Q6.699,4.413 6.45,4.6 Q2.75,7.379 2.75,12 Q2.75,15.831 5.459,18.541 Q8.169,21.25 12,21.25 Q15.831,21.25 18.541,18.541 Q21.25,15.831 21.25,12 Q21.25,7.429 17.545,4.596 Q17.298,4.407 17.257,4.099 Q17.215,3.791 17.404,3.545 Q17.593,3.298 17.901,3.257 Q18.209,3.215 18.455,3.404 Z M12.75,2 L12.75,9 Q12.75,9.311 12.53,9.53 Q12.311,9.75 12,9.75 Q11.689,9.75 11.47,9.53 Q11.25,9.311 11.25,9 L11.25,2 Q11.25,1.689 11.47,1.47 Q11.689,1.25 12,1.25 Q12.311,1.25 12.53,1.47 Q12.75,1.689 12.75,2 Z"/>
</svg>

