<svg width="24" height="24" viewBox="0 0 24 24" fill="none" xmlns="http://www.w3.org/2000/svg">
<path fill-rule="evenodd" clip-rule="evenodd" d="M11.8115 2H12.1963C16.7152 2 20.5876 5.23178 21.396 9.67788C21.6881 11.2846 20.2846 12.6881 18.6779 12.396L16.5 12C13.8399 11.5164 11.5164 13.8399 12 16.5L12.396 18.6779C12.6881 20.2846 11.2846 21.6881 9.67788 21.396C5.23178 20.5876 2 16.7152 2 12.1962V11.8115C2 6.39277 6.39277 2 11.8115 2ZM9 8C9.55228 8 10 7.55228 10 7C10 6.44772 9.55228 6 9 6C8.44772 6 8 6.44772 8 7C8 7.55228 8.44772 8 9 8ZM13 9C13.5523 9 14 8.55228 14 8C14 7.44772 13.5523 7 13 7C12.4477 7 12 7.44772 12 8C12 8.55228 12.4477 9 13 9ZM8 10C8 10.5523 7.55228 11 7 11C6.44772 11 6 10.5523 6 10C6 9.44772 6.44772 9 7 9C7.55228 9 8 9.44772 8 10ZM8 15C8.55228 15 9 14.5523 9 14C9 13.4477 8.55228 13 8 13C7.44772 13 7 13.4477 7 14C7 14.5523 7.44772 15 8 15Z" fill="#2D264B"/>
</svg>
