<svg xmlns="http://www.w3.org/2000/svg" width="24" height="24" viewBox="0 0 24 24">
  <defs/>
  <path fill="#2D264B" d="M12.196,1.25 Q15.857,1.25 18.668,3.596 Q21.479,5.942 22.134,9.544 Q22.423,11.135 21.279,12.279 Q20.135,13.423 18.544,13.134 L16.366,12.738 Q14.757,12.445 13.601,13.601 Q12.445,14.757 12.738,16.366 L13.134,18.544 Q13.423,20.135 12.279,21.279 Q11.135,22.423 9.544,22.134 Q5.942,21.479 3.596,18.668 Q1.25,15.857 1.25,12.196 L1.25,11.811 Q1.25,7.437 4.343,4.343 Q7.437,1.25 11.811,1.25 Z M12.196,2.75 L11.811,2.75 Q8.058,2.75 5.404,5.404 Q2.75,8.058 2.75,11.811 L2.75,12.196 Q2.75,15.314 4.747,17.707 Q6.745,20.1 9.812,20.658 Q10.63,20.807 11.219,20.219 Q11.807,19.63 11.658,18.812 L11.262,16.634 Q10.829,14.252 12.541,12.541 Q14.252,10.829 16.634,11.262 L18.812,11.658 Q19.63,11.807 20.219,11.219 Q20.807,10.63 20.658,9.812 Q20.1,6.745 17.707,4.747 Q15.314,2.75 12.196,2.75 Z"/>
  <path fill="#2D264B" d="M14,8 C14,8.552 13.552,9 13,9 C12.448,9 12,8.552 12,8 C12,7.448 12.448,7 13,7 C13.552,7 14,7.448 14,8 Z"/>
  <path fill="#2D264B" d="M10,7 C10,7.552 9.552,8 9,8 C8.448,8 8,7.552 8,7 C8,6.448 8.448,6 9,6 C9.552,6 10,6.448 10,7 Z"/>
  <path fill="#2D264B" d="M8,10 C8,10.552 7.552,11 7,11 C6.448,11 6,10.552 6,10 C6,9.448 6.448,9 7,9 C7.552,9 8,9.448 8,10 Z"/>
  <path fill="#2D264B" d="M9,14 C9,14.552 8.552,15 8,15 C7.448,15 7,14.552 7,14 C7,13.448 7.448,13 8,13 C8.552,13 9,13.448 9,14 Z"/>
</svg>

