<svg xmlns="http://www.w3.org/2000/svg" width="24" height="24" viewBox="0 0 24 24">
  <defs/>
  <path fill="#2D264B" d="M7.75,12 C7.75,11.31 8.31,10.75 9,10.75 C9.69,10.75 10.25,11.31 10.25,12 C10.25,12.69 9.69,13.25 9,13.25 C8.31,13.25 7.75,12.69 7.75,12 Z"/>
  <path fill="#2D264B" d="M12,22 C6.477,22 2,17.523 2,12 C2,6.477 6.477,2 12,2 C17.523,2 22,6.477 22,12 C22,17.523 17.523,22 12,22 Z M9,9.25 C7.481,9.25 6.25,10.481 6.25,12 C6.25,13.519 7.481,14.75 9,14.75 C10.259,14.75 11.32,13.904 11.646,12.75 L13.489,12.75 C13.544,13.021 13.508,13.306 13.382,13.559 L13.329,13.665 C13.144,14.035 13.294,14.486 13.665,14.671 C14.035,14.856 14.486,14.706 14.671,14.335 L14.724,14.23 C14.955,13.766 15.049,13.253 15.003,12.75 L16.489,12.75 C16.544,13.021 16.508,13.306 16.382,13.559 L16.329,13.665 C16.144,14.035 16.294,14.486 16.665,14.671 C17.035,14.856 17.486,14.706 17.671,14.335 L17.724,14.23 C18.111,13.456 18.111,12.544 17.724,11.77 C17.564,11.451 17.238,11.25 16.882,11.25 L14.015,11.25 C14.005,11.25 13.994,11.25 13.984,11.25 L11.646,11.25 C11.32,10.096 10.259,9.25 9,9.25 Z"/>
</svg>

