<svg xmlns="http://www.w3.org/2000/svg" width="24" height="24" viewBox="0 0 24 24">
  <defs/>
  <path fill="#2D264B" d="M7.75,12 C7.75,11.31 8.31,10.75 9,10.75 C9.69,10.75 10.25,11.31 10.25,12 C10.25,12.69 9.69,13.25 9,13.25 C8.31,13.25 7.75,12.69 7.75,12 Z"/>
  <path fill="#2D264B" d="M3.955,5.061 C4.263,4.637 4.637,4.263 5.061,3.955 C6.375,3 8.25,3 12,3 C15.75,3 17.625,3 18.939,3.955 C19.363,4.263 19.737,4.637 20.045,5.061 C21,6.375 21,8.25 21,12 C21,15.75 21,17.625 20.045,18.939 C19.737,19.363 19.363,19.737 18.939,20.045 C17.625,21 15.75,21 12,21 C8.25,21 6.375,21 5.061,20.045 C4.637,19.737 4.263,19.363 3.955,18.939 C3,17.625 3,15.75 3,12 C3,8.25 3,6.375 3.955,5.061 Z M9,9.25 C7.481,9.25 6.25,10.481 6.25,12 C6.25,13.519 7.481,14.75 9,14.75 C10.259,14.75 11.32,13.904 11.646,12.75 L13.489,12.75 C13.544,13.021 13.508,13.306 13.382,13.559 L13.329,13.665 C13.144,14.035 13.294,14.486 13.665,14.671 C14.035,14.856 14.486,14.706 14.671,14.335 L14.724,14.23 C14.955,13.766 15.049,13.253 15.003,12.75 L16.489,12.75 C16.544,13.021 16.508,13.306 16.382,13.559 L16.329,13.665 C16.144,14.035 16.294,14.486 16.665,14.671 C17.035,14.856 17.486,14.706 17.671,14.335 L17.724,14.23 C18.111,13.456 18.111,12.544 17.724,11.77 C17.564,11.451 17.238,11.25 16.882,11.25 L14.015,11.25 C14.005,11.25 13.994,11.25 13.984,11.25 L11.646,11.25 C11.32,10.096 10.259,9.25 9,9.25 Z"/>
</svg>

