<svg width="24" height="24" viewBox="0 0 24 24" fill="none" xmlns="http://www.w3.org/2000/svg">
<path d="M7.74991 10.9999C7.74991 10.8619 7.86184 10.7499 7.99991 10.7499H9.52287C9.6251 10.7499 9.71703 10.8122 9.75499 10.9071L10.155 11.9071C10.1669 11.9369 10.1729 11.9684 10.1729 11.9999C10.1729 12.0315 10.1669 12.063 10.155 12.0928L9.75499 13.0928C9.71703 13.1877 9.6251 13.2499 9.52288 13.2499H7.99991C7.86184 13.2499 7.74991 13.138 7.74991 12.9999V10.9999Z" fill="#2D264B"/>
<path fill-rule="evenodd" clip-rule="evenodd" d="M11.752 1.77959C10.5458 1.83947 9.44278 2.47629 7.23677 3.74993C5.03076 5.02358 3.92776 5.6604 3.2728 6.67504C3.1831 6.814 3.10036 6.95732 3.02486 7.10448C2.47363 8.17901 2.47363 9.45265 2.47363 11.9999C2.47363 14.5472 2.47363 15.8209 3.02486 16.8954C3.10036 17.0425 3.1831 17.1859 3.2728 17.3248C3.92776 18.3395 5.03076 18.9763 7.23677 20.2499C9.44277 21.5236 10.5458 22.1604 11.752 22.2203C11.9172 22.2285 12.0827 22.2285 12.2478 22.2203C13.454 22.1604 14.557 21.5236 16.763 20.2499C18.969 18.9763 20.0721 18.3395 20.727 17.3248C20.8167 17.1859 20.8995 17.0425 20.975 16.8954C21.5262 15.8209 21.5262 14.5472 21.5262 11.9999C21.5262 9.45265 21.5262 8.17901 20.975 7.10448C20.8995 6.95732 20.8167 6.814 20.727 6.67504C20.0721 5.6604 18.9691 5.02358 16.7631 3.74993C14.557 2.47629 13.454 1.83947 12.2478 1.77959C12.0827 1.77139 11.9172 1.77139 11.752 1.77959ZM7.99991 9.24994C7.03341 9.24994 6.24991 10.0334 6.24991 10.9999V12.9999C6.24991 13.9664 7.03341 14.7499 7.99991 14.7499H9.52288C10.2385 14.7499 10.8819 14.3143 11.1477 13.6499L11.5077 12.7499H13.4886C13.5439 13.021 13.5083 13.306 13.3819 13.559L13.3291 13.6645C13.1438 14.035 13.294 14.4855 13.6645 14.6708C14.035 14.856 14.4855 14.7058 14.6707 14.3353L14.7235 14.2298C14.9554 13.766 15.0484 13.2531 15.0025 12.7499H16.4886C16.5439 13.021 16.5083 13.306 16.3819 13.559L16.3291 13.6645C16.1438 14.035 16.294 14.4855 16.6645 14.6708C17.035 14.856 17.4855 14.7058 17.6707 14.3353L17.7235 14.2298C18.1106 13.4556 18.1106 12.5443 17.7235 11.7701C17.5641 11.4513 17.2383 11.2499 16.8819 11.2499H14.015C14.0046 11.2497 13.9941 11.2497 13.9837 11.2499H11.5077L11.1477 10.35C10.8819 9.6856 10.2385 9.24994 9.52287 9.24994H7.99991Z" fill="#2D264B"/>
</svg>
