<svg width="24" height="24" viewBox="0 0 24 24" fill="none" xmlns="http://www.w3.org/2000/svg">
<path d="M7.75 11C7.75 10.8619 7.86193 10.75 8 10.75H9.52297C9.62519 10.75 9.71712 10.8122 9.75509 10.9072L10.1551 11.9072C10.167 11.937 10.173 11.9684 10.173 12C10.173 12.0316 10.167 12.063 10.1551 12.0928L9.75509 13.0928C9.71712 13.1878 9.62519 13.25 9.52297 13.25H8C7.86193 13.25 7.75 13.1381 7.75 13V11Z" fill="#2D264B"/>
<path fill-rule="evenodd" clip-rule="evenodd" d="M12 22C17.5228 22 22 17.5228 22 12C22 6.47715 17.5228 2 12 2C6.47715 2 2 6.47715 2 12C2 17.5228 6.47715 22 12 22ZM8 9.25C7.0335 9.25 6.25 10.0335 6.25 11V13C6.25 13.9665 7.0335 14.75 8 14.75H9.52297C10.2386 14.75 10.882 14.3143 11.1478 13.6499L11.5078 12.75H13.4887C13.544 13.021 13.5084 13.3061 13.382 13.559L13.3292 13.6646C13.1439 14.0351 13.2941 14.4856 13.6646 14.6708C14.0351 14.8561 14.4856 14.7059 14.6708 14.3354L14.7236 14.2298C14.9555 13.7661 15.0485 13.2532 15.0026 12.75H16.4887C16.544 13.021 16.5084 13.3061 16.382 13.559L16.3292 13.6646C16.1439 14.0351 16.2941 14.4856 16.6646 14.6708C17.0351 14.8561 17.4856 14.7059 17.6708 14.3354L17.7236 14.2298C18.1107 13.4556 18.1107 12.5444 17.7236 11.7702C17.5642 11.4514 17.2384 11.25 16.882 11.25L14.0151 11.25C14.0047 11.2498 13.9942 11.2498 13.9837 11.25H11.5078L11.1478 10.3501C10.882 9.68566 10.2385 9.25 9.52297 9.25H8Z" fill="#2D264B"/>
</svg>
