<svg xmlns="http://www.w3.org/2000/svg" width="24" height="24" viewBox="0 0 24 24">
  <defs/>
  <path fill="#2D264B" d="M7.75,12 C7.75,11.31 8.31,10.75 9,10.75 C9.69,10.75 10.25,11.31 10.25,12 C10.25,12.69 9.69,13.25 9,13.25 C8.31,13.25 7.75,12.69 7.75,12 Z"/>
  <path fill="#2D264B" d="M11.752,1.78 C11.917,1.771 12.083,1.771 12.248,1.78 C13.454,1.839 14.557,2.476 16.763,3.75 C18.969,5.024 20.072,5.66 20.727,6.675 C20.817,6.814 20.899,6.957 20.975,7.104 C21.526,8.179 21.526,9.453 21.526,12 C21.526,14.547 21.526,15.821 20.975,16.895 C20.899,17.042 20.817,17.186 20.727,17.325 C20.072,18.34 18.969,18.976 16.763,20.25 C14.557,21.524 13.454,22.16 12.248,22.22 C12.083,22.229 11.917,22.229 11.752,22.22 C10.546,22.16 9.443,21.524 7.237,20.25 C5.031,18.976 3.928,18.34 3.273,17.325 C3.183,17.186 3.1,17.042 3.025,16.895 C2.474,15.821 2.474,14.547 2.474,12 C2.474,9.453 2.474,8.179 3.025,7.104 C3.1,6.957 3.183,6.814 3.273,6.675 C3.928,5.66 5.031,5.024 7.237,3.75 C9.443,2.476 10.546,1.839 11.752,1.78 Z M9,9.25 C7.481,9.25 6.25,10.481 6.25,12 C6.25,13.519 7.481,14.75 9,14.75 C10.259,14.75 11.32,13.904 11.646,12.75 L13.489,12.75 C13.544,13.021 13.508,13.306 13.382,13.559 L13.329,13.665 C13.144,14.035 13.294,14.486 13.665,14.671 C14.035,14.856 14.486,14.706 14.671,14.335 L14.724,14.23 C14.955,13.766 15.049,13.253 15.003,12.75 L16.489,12.75 C16.544,13.021 16.508,13.306 16.382,13.559 L16.329,13.665 C16.144,14.035 16.294,14.486 16.665,14.671 C17.035,14.856 17.486,14.706 17.671,14.335 L17.724,14.23 C18.111,13.456 18.111,12.544 17.724,11.77 C17.564,11.451 17.238,11.25 16.882,11.25 L14.015,11.25 C14.005,11.25 13.994,11.25 13.984,11.25 L11.646,11.25 C11.32,10.096 10.259,9.25 9,9.25 Z"/>
</svg>

