<svg xmlns="http://www.w3.org/2000/svg" width="24" height="24" viewBox="0 0 24 24">
  <defs/>
  <path fill="#2D264B" d="M7.75,11 C7.75,10.862 7.862,10.75 8,10.75 L9.523,10.75 C9.625,10.75 9.717,10.812 9.755,10.907 L10.155,11.907 C10.167,11.937 10.173,11.968 10.173,12 C10.173,12.032 10.167,12.063 10.155,12.093 L9.755,13.093 C9.717,13.188 9.625,13.25 9.523,13.25 L8,13.25 C7.862,13.25 7.75,13.138 7.75,13 L7.75,11 Z"/>
  <path fill="#2D264B" d="M12,22 C6.477,22 2,17.523 2,12 C2,6.477 6.477,2 12,2 C17.523,2 22,6.477 22,12 C22,17.523 17.523,22 12,22 Z M8,9.25 C7.034,9.25 6.25,10.033 6.25,11 L6.25,13 C6.25,13.967 7.034,14.75 8,14.75 L9.523,14.75 C10.239,14.75 10.882,14.314 11.148,13.65 L11.508,12.75 L13.489,12.75 C13.544,13.021 13.508,13.306 13.382,13.559 L13.329,13.665 C13.144,14.035 13.294,14.486 13.665,14.671 C14.035,14.856 14.486,14.706 14.671,14.335 L14.724,14.23 C14.955,13.766 15.049,13.253 15.003,12.75 L16.489,12.75 C16.544,13.021 16.508,13.306 16.382,13.559 L16.329,13.665 C16.144,14.035 16.294,14.486 16.665,14.671 C17.035,14.856 17.486,14.706 17.671,14.335 L17.724,14.23 C18.111,13.456 18.111,12.544 17.724,11.77 C17.564,11.451 17.238,11.25 16.882,11.25 L14.015,11.25 C14.005,11.25 13.994,11.25 13.984,11.25 L11.508,11.25 L11.148,10.35 C10.882,9.686 10.238,9.25 9.523,9.25 Z"/>
</svg>

