<svg width="24" height="24" viewBox="0 0 24 24" fill="none" xmlns="http://www.w3.org/2000/svg">
<path d="M7.75 12C7.75 11.3096 8.30964 10.75 9 10.75C9.69036 10.75 10.25 11.3096 10.25 12C10.25 12.6904 9.69036 13.25 9 13.25C8.30964 13.25 7.75 12.6904 7.75 12Z" fill="#2D264B"/>
<path fill-rule="evenodd" clip-rule="evenodd" d="M12 22C17.5228 22 22 17.5228 22 12C22 6.47715 17.5228 2 12 2C6.47715 2 2 6.47715 2 12C2 17.5228 6.47715 22 12 22ZM9 9.25C7.48122 9.25 6.25 10.4812 6.25 12C6.25 13.5188 7.48122 14.75 9 14.75C10.2588 14.75 11.32 13.9043 11.6465 12.75H13.4887C13.544 13.021 13.5084 13.3061 13.382 13.559L13.3292 13.6646C13.1439 14.0351 13.2941 14.4856 13.6646 14.6708C14.0351 14.8561 14.4856 14.7059 14.6708 14.3354L14.7236 14.2298C14.9555 13.7661 15.0485 13.2532 15.0026 12.75H16.4887C16.544 13.021 16.5084 13.3061 16.382 13.559L16.3292 13.6646C16.1439 14.0351 16.2941 14.4856 16.6646 14.6708C17.0351 14.8561 17.4856 14.7059 17.6708 14.3354L17.7236 14.2298C18.1107 13.4556 18.1107 12.5444 17.7236 11.7702C17.5642 11.4514 17.2384 11.25 16.882 11.25L14.0151 11.25C14.0047 11.2498 13.9942 11.2498 13.9837 11.25H11.6465C11.32 10.0957 10.2588 9.25 9 9.25Z" fill="#2D264B"/>
</svg>
