<svg xmlns="http://www.w3.org/2000/svg" width="24" height="24" viewBox="0 0 24 24">
  <defs/>
  <path fill="#2D264B" d="M1.724,12 Q1.724,7.998 2.358,6.762 Q2.488,6.508 2.643,6.268 Q3.396,5.101 6.862,3.1 L6.862,3.1 Q10.328,1.099 11.715,1.031 Q12,1.016 12.285,1.031 Q13.672,1.099 17.138,3.1 L17.138,3.1 L17.138,3.1 Q20.604,5.101 21.357,6.268 Q21.512,6.509 21.642,6.762 Q22.276,7.998 22.276,12 Q22.276,16.002 21.642,17.238 Q21.512,17.492 21.357,17.732 Q20.604,18.898 17.138,20.899 Q13.672,22.9 12.285,22.969 Q12,22.984 11.715,22.969 Q10.328,22.9 6.862,20.899 Q3.396,18.898 2.643,17.732 Q2.488,17.493 2.358,17.238 Q1.724,16.002 1.724,12 Z M3.224,12 Q3.224,15.64 3.692,16.553 Q3.789,16.741 3.903,16.918 Q4.46,17.781 7.612,19.6 Q10.764,21.42 11.789,21.471 Q12,21.482 12.211,21.471 Q13.236,21.42 16.388,19.6 Q19.54,17.781 20.097,16.918 Q20.211,16.741 20.308,16.553 Q20.776,15.64 20.776,12 Q20.776,8.36 20.308,7.447 Q20.212,7.259 20.097,7.082 Q19.54,6.219 16.388,4.399 L16.388,4.399 L16.388,4.399 Q13.236,2.58 12.211,2.529 Q12,2.518 11.789,2.529 Q10.764,2.58 7.612,4.399 L7.612,4.399 Q4.46,6.219 3.903,7.082 Q3.789,7.259 3.692,7.447 Q3.224,8.36 3.224,12 Z M16.329,13.664 L16.382,13.559 Q16.584,13.154 16.494,12.75 L15.018,12.75 Q15.093,13.49 14.723,14.23 L14.671,14.336 Q14.532,14.613 14.237,14.712 Q13.942,14.81 13.664,14.671 Q13.386,14.532 13.288,14.237 Q13.19,13.942 13.329,13.664 L13.382,13.559 Q13.584,13.154 13.494,12.75 L11.508,12.75 L11.148,13.65 Q10.708,14.75 9.523,14.75 L8,14.75 Q7.275,14.75 6.762,14.237 Q6.25,13.725 6.25,13 L6.25,11 Q6.25,9.25 8,9.25 L9.523,9.25 Q10.708,9.25 11.148,10.35 L11.508,11.25 L13.94,11.25 Q13.996,11.245 14.051,11.25 L16.882,11.25 Q17.463,11.25 17.724,11.77 Q18.338,13 17.723,14.23 L17.671,14.336 Q17.532,14.613 17.237,14.712 Q16.942,14.81 16.664,14.671 Q16.386,14.532 16.288,14.237 Q16.19,13.942 16.329,13.664 Z M10.173,12 Q10.173,11.952 10.155,11.907 L9.755,10.907 Q9.692,10.75 9.523,10.75 L8,10.75 Q7.896,10.75 7.823,10.823 Q7.75,10.896 7.75,11 L7.75,13 Q7.75,13.25 8,13.25 L9.523,13.25 Q9.692,13.25 9.755,13.093 L10.155,12.093 Q10.173,12.048 10.173,12 Z"/>
</svg>

