<svg width="24" height="24" viewBox="0 0 24 24" fill="none" xmlns="http://www.w3.org/2000/svg">
<path d="M7.75 12C7.75 11.3096 8.30964 10.75 9 10.75C9.69036 10.75 10.25 11.3096 10.25 12C10.25 12.6904 9.69036 13.25 9 13.25C8.30964 13.25 7.75 12.6904 7.75 12Z" fill="#2D264B"/>
<path fill-rule="evenodd" clip-rule="evenodd" d="M3.95491 5.06107C3 6.3754 3 8.25027 3 12C3 15.7497 3 17.6246 3.95491 18.9389C4.26331 19.3634 4.6366 19.7367 5.06107 20.0451C6.3754 21 8.25027 21 12 21C15.7497 21 17.6246 21 18.9389 20.0451C19.3634 19.7367 19.7367 19.3634 20.0451 18.9389C21 17.6246 21 15.7497 21 12C21 8.25027 21 6.3754 20.0451 5.06107C19.7367 4.6366 19.3634 4.26331 18.9389 3.95491C17.6246 3 15.7497 3 12 3C8.25027 3 6.3754 3 5.06107 3.95491C4.6366 4.26331 4.26331 4.6366 3.95491 5.06107ZM9 9.25C7.48122 9.25 6.25 10.4812 6.25 12C6.25 13.5188 7.48122 14.75 9 14.75C10.2588 14.75 11.32 13.9043 11.6465 12.75H13.4887C13.544 13.021 13.5084 13.3061 13.382 13.559L13.3292 13.6646C13.1439 14.0351 13.2941 14.4856 13.6646 14.6708C14.0351 14.8561 14.4856 14.7059 14.6708 14.3354L14.7236 14.2298C14.9555 13.7661 15.0485 13.2532 15.0026 12.75H16.4887C16.544 13.021 16.5084 13.3061 16.382 13.559L16.3292 13.6646C16.1439 14.0351 16.2941 14.4856 16.6646 14.6708C17.0351 14.8561 17.4856 14.7059 17.6708 14.3354L17.7236 14.2298C18.1107 13.4556 18.1107 12.5444 17.7236 11.7702C17.5642 11.4514 17.2384 11.25 16.882 11.25H14.0151C14.0047 11.2498 13.9942 11.2498 13.9838 11.25H11.6465C11.32 10.0957 10.2588 9.25 9 9.25Z" fill="#2D264B"/>
</svg>
