<svg width="24" height="24" viewBox="0 0 24 24" fill="none" xmlns="http://www.w3.org/2000/svg">
<path d="M7.75 11.9999C7.75 11.3096 8.30964 10.7499 9 10.7499C9.69036 10.7499 10.25 11.3096 10.25 11.9999C10.25 12.6903 9.69036 13.2499 9 13.2499C8.30964 13.2499 7.75 12.6903 7.75 11.9999Z" fill="#2D264B"/>
<path fill-rule="evenodd" clip-rule="evenodd" d="M11.752 1.77959C10.5458 1.83947 9.44278 2.47629 7.23677 3.74993C5.03076 5.02358 3.92776 5.6604 3.2728 6.67504C3.1831 6.814 3.10036 6.95732 3.02486 7.10448C2.47363 8.17901 2.47363 9.45265 2.47363 11.9999C2.47363 14.5472 2.47363 15.8209 3.02486 16.8954C3.10036 17.0425 3.1831 17.1859 3.2728 17.3248C3.92776 18.3395 5.03076 18.9763 7.23677 20.2499C9.44277 21.5236 10.5458 22.1604 11.752 22.2203C11.9172 22.2285 12.0827 22.2285 12.2478 22.2203C13.454 22.1604 14.557 21.5236 16.763 20.2499C18.969 18.9763 20.0721 18.3395 20.727 17.3248C20.8167 17.1859 20.8995 17.0425 20.975 16.8954C21.5262 15.8209 21.5262 14.5472 21.5262 11.9999C21.5262 9.45265 21.5262 8.17901 20.975 7.10448C20.8995 6.95732 20.8167 6.814 20.727 6.67504C20.0721 5.6604 18.9691 5.02358 16.7631 3.74993C14.557 2.47629 13.454 1.83947 12.2478 1.77959C12.0827 1.77139 11.9172 1.77139 11.752 1.77959ZM9 9.24994C7.48122 9.24994 6.25 10.4812 6.25 11.9999C6.25 13.5187 7.48122 14.7499 9 14.7499C10.2588 14.7499 11.32 13.9042 11.6465 12.7499H13.4887C13.544 13.021 13.5084 13.306 13.382 13.559L13.3292 13.6645C13.1439 14.035 13.2941 14.4855 13.6646 14.6708C14.0351 14.856 14.4856 14.7058 14.6708 14.3353L14.7236 14.2298C14.9555 13.766 15.0485 13.2531 15.0026 12.7499H16.4887C16.544 13.021 16.5084 13.306 16.382 13.559L16.3292 13.6645C16.1439 14.035 16.2941 14.4855 16.6646 14.6708C17.0351 14.856 17.4856 14.7058 17.6708 14.3353L17.7236 14.2298C18.1107 13.4556 18.1107 12.5443 17.7236 11.7701C17.5642 11.4513 17.2384 11.2499 16.882 11.2499H14.0151C14.0047 11.2497 13.9942 11.2497 13.9838 11.2499H11.6465C11.32 10.0957 10.2588 9.24994 9 9.24994Z" fill="#2D264B"/>
</svg>
