<svg xmlns="http://www.w3.org/2000/svg" width="24" height="24" viewBox="0 0 24 24">
  <defs/>
  <path fill="#2D264B" d="M16.329,13.665 C16.144,14.035 16.294,14.486 16.665,14.671 C17.035,14.856 17.486,14.706 17.671,14.335 L16.329,13.665 Z M13.329,13.665 C13.144,14.035 13.294,14.486 13.665,14.671 C14.035,14.856 14.486,14.706 14.671,14.335 L13.329,13.665 Z M14.671,11.665 C14.486,11.294 14.035,11.144 13.665,11.329 C13.294,11.514 13.144,11.965 13.329,12.335 L14.671,11.665 Z M12,20.25 C10.108,20.25 8.75,20.249 7.698,20.135 C6.66,20.023 6.01,19.807 5.502,19.438 L4.62,20.652 C5.427,21.238 6.371,21.5 7.536,21.626 C8.688,21.751 10.142,21.75 12,21.75 L12,20.25 Z M2.25,12 C2.25,13.858 2.249,15.312 2.374,16.463 C2.5,17.629 2.762,18.573 3.348,19.38 L4.562,18.498 C4.193,17.99 3.977,17.34 3.865,16.302 C3.751,15.25 3.75,13.892 3.75,12 L2.25,12 Z M5.502,19.438 C5.141,19.176 4.824,18.859 4.562,18.498 L3.348,19.38 C3.703,19.868 4.132,20.297 4.62,20.652 L5.502,19.438 Z M20.25,12 C20.25,13.892 20.249,15.25 20.135,16.302 C20.023,17.34 19.807,17.99 19.438,18.498 L20.652,19.38 C21.238,18.573 21.5,17.629 21.626,16.463 C21.751,15.312 21.75,13.858 21.75,12 L20.25,12 Z M12,21.75 C13.858,21.75 15.312,21.751 16.463,21.626 C17.629,21.5 18.573,21.238 19.38,20.652 L18.498,19.438 C17.99,19.807 17.34,20.023 16.302,20.135 C15.25,20.249 13.892,20.25 12,20.25 L12,21.75 Z M19.438,18.498 C19.176,18.859 18.859,19.176 18.498,19.438 L19.38,20.652 C19.868,20.297 20.297,19.868 20.652,19.38 L19.438,18.498 Z M12,3.75 C13.892,3.75 15.25,3.751 16.302,3.865 C17.34,3.977 17.99,4.193 18.498,4.562 L19.38,3.348 C18.573,2.762 17.629,2.5 16.463,2.374 C15.312,2.249 13.858,2.25 12,2.25 L12,3.75 Z M21.75,12 C21.75,10.142 21.751,8.688 21.626,7.536 C21.5,6.371 21.238,5.427 20.652,4.62 L19.438,5.502 C19.807,6.01 20.023,6.66 20.135,7.698 C20.249,8.75 20.25,10.108 20.25,12 L21.75,12 Z M18.498,4.562 C18.859,4.824 19.176,5.141 19.438,5.502 L20.652,4.62 C20.297,4.132 19.868,3.703 19.38,3.348 L18.498,4.562 Z M12,2.25 C10.142,2.25 8.688,2.249 7.536,2.374 C6.371,2.5 5.427,2.762 4.62,3.348 L5.502,4.562 C6.01,4.193 6.66,3.977 7.698,3.865 C8.75,3.751 10.108,3.75 12,3.75 L12,2.25 Z M3.75,12 C3.75,10.108 3.751,8.75 3.865,7.698 C3.977,6.66 4.193,6.01 4.562,5.502 L3.348,4.62 C2.762,5.427 2.5,6.371 2.374,7.536 C2.249,8.688 2.25,10.142 2.25,12 L3.75,12 Z M4.62,3.348 C4.132,3.703 3.703,4.132 3.348,4.62 L4.562,5.502 C4.824,5.141 5.141,4.824 5.502,4.562 L4.62,3.348 Z M10.25,12 C10.25,12.69 9.69,13.25 9,13.25 L9,14.75 C10.519,14.75 11.75,13.519 11.75,12 L10.25,12 Z M9,13.25 C8.31,13.25 7.75,12.69 7.75,12 L6.25,12 C6.25,13.519 7.481,14.75 9,14.75 L9,13.25 Z M7.75,12 C7.75,11.31 8.31,10.75 9,10.75 L9,9.25 C7.481,9.25 6.25,10.481 6.25,12 L7.75,12 Z M9,10.75 C9.69,10.75 10.25,11.31 10.25,12 L11.75,12 C11.75,10.481 10.519,9.25 9,9.25 L9,10.75 Z M11,12.75 L16.882,12.75 L16.882,11.25 L11,11.25 L11,12.75 Z M17.671,14.335 L17.724,14.23 L16.382,13.559 L16.329,13.665 L17.671,14.335 Z M17.724,14.23 C18.111,13.456 18.111,12.544 17.724,11.77 L16.382,12.441 C16.558,12.793 16.558,13.207 16.382,13.559 L17.724,14.23 Z M14.671,14.335 L14.724,14.23 L13.382,13.559 L13.329,13.665 L14.671,14.335 Z M14.724,11.77 L14.671,11.665 L13.329,12.335 L13.382,12.441 L14.724,11.77 Z M14.724,14.23 C15.111,13.456 15.111,12.544 14.724,11.77 L13.382,12.441 C13.558,12.793 13.558,13.207 13.382,13.559 L14.724,14.23 Z M16.882,12.75 C16.67,12.75 16.477,12.63 16.382,12.441 L17.724,11.77 C17.564,11.451 17.238,11.25 16.882,11.25 L16.882,12.75 Z"/>
</svg>

