<svg xmlns="http://www.w3.org/2000/svg" width="24" height="24" viewBox="0 0 24 24">
  <defs/>
  <path fill="#2D264B" d="M6.862,3.1 Q10.328,1.099 11.715,1.031 Q12,1.016 12.285,1.031 Q13.672,1.099 17.138,3.1 L17.138,3.1 L17.138,3.1 Q20.604,5.101 21.357,6.268 Q21.512,6.509 21.642,6.762 Q22.276,7.998 22.276,12 Q22.276,16.002 21.642,17.238 Q21.512,17.492 21.357,17.732 Q20.604,18.898 17.138,20.899 Q13.672,22.9 12.285,22.969 Q12,22.984 11.715,22.969 Q10.328,22.9 6.862,20.899 Q3.396,18.898 2.643,17.732 Q2.488,17.493 2.358,17.238 Q1.724,16.002 1.724,12 Q1.724,7.998 2.358,6.762 Q2.488,6.508 2.643,6.268 Q3.396,5.101 6.862,3.1 Z M7.612,4.399 Q4.46,6.219 3.903,7.082 Q3.789,7.259 3.692,7.447 Q3.224,8.36 3.224,12 Q3.224,15.64 3.692,16.553 Q3.789,16.741 3.903,16.918 Q4.46,17.781 7.612,19.6 Q10.764,21.42 11.789,21.471 Q12,21.482 12.211,21.471 Q13.236,21.42 16.388,19.6 Q19.54,17.781 20.097,16.918 Q20.211,16.741 20.308,16.553 Q20.776,15.64 20.776,12 Q20.776,8.36 20.308,7.447 Q20.212,7.259 20.097,7.082 Q19.54,6.219 16.388,4.399 L16.388,4.399 L16.388,4.399 Q13.236,2.58 12.211,2.529 Q12,2.518 11.789,2.529 Q10.764,2.58 7.612,4.399 Z"/>
  <path fill="#2D264B" d="M7.25,12 Q7.25,10.506 7.378,10.029 Q7.938,7.938 10.029,7.378 Q10.506,7.25 12,7.25 Q13.494,7.25 13.971,7.378 Q16.062,7.938 16.622,10.029 Q16.75,10.506 16.75,12 Q16.75,13.494 16.622,13.97 Q16.062,16.062 13.971,16.622 Q13.494,16.75 12,16.75 Q10.506,16.75 10.029,16.622 Q7.938,16.062 7.378,13.971 Q7.25,13.494 7.25,12 Z M8.75,12 Q8.75,13.296 8.827,13.582 Q9.163,14.837 10.418,15.173 Q10.704,15.25 12,15.25 Q13.296,15.25 13.582,15.173 Q14.837,14.837 15.173,13.582 Q15.25,13.296 15.25,12 Q15.25,10.704 15.173,10.418 Q14.837,9.163 13.582,8.827 Q13.296,8.75 12,8.75 Q10.704,8.75 10.418,8.827 Q9.163,9.163 8.827,10.418 Q8.75,10.704 8.75,12 Z"/>
</svg>

