<svg xmlns="http://www.w3.org/2000/svg" width="24" height="24" viewBox="0 0 24 24">
  <defs/>
  <path fill="#2D264B" d="M14.25,21 L14.25,3 Q14.25,2.689 14.47,2.47 Q14.689,2.25 15,2.25 Q15.311,2.25 15.53,2.47 Q15.75,2.689 15.75,3 L15.75,21 Q15.75,21.311 15.53,21.53 Q15.311,21.75 15,21.75 Q14.689,21.75 14.47,21.53 Q14.25,21.311 14.25,21 Z M8.25,21 L8.25,3 Q8.25,2.689 8.47,2.47 Q8.689,2.25 9,2.25 Q9.311,2.25 9.53,2.47 Q9.75,2.689 9.75,3 L9.75,21 Q9.75,21.311 9.53,21.53 Q9.311,21.75 9,21.75 Q8.689,21.75 8.47,21.53 Q8.25,21.311 8.25,21 Z"/>
</svg>

