<svg xmlns="http://www.w3.org/2000/svg" width="24" height="24" viewBox="0 0 24 24">
  <defs/>
  <path fill="#2D264B" d="M1.25,12 C1.25,6.063 6.063,1.25 12,1.25 C17.937,1.25 22.75,6.063 22.75,12 C22.75,17.937 17.937,22.75 12,22.75 C6.063,22.75 1.25,17.937 1.25,12 Z M10.75,8 C10.75,7.586 10.414,7.25 10,7.25 C9.586,7.25 9.25,7.586 9.25,8 L9.25,16 C9.25,16.414 9.586,16.75 10,16.75 C10.414,16.75 10.75,16.414 10.75,16 Z M14.75,8 C14.75,7.586 14.414,7.25 14,7.25 C13.586,7.25 13.25,7.586 13.25,8 L13.25,16 C13.25,16.414 13.586,16.75 14,16.75 C14.414,16.75 14.75,16.414 14.75,16 Z"/>
</svg>

