<svg xmlns="http://www.w3.org/2000/svg" width="24" height="24" viewBox="0 0 24 24">
  <defs/>
  <path fill="#2D264B" d="M10.418,8.827 C10.68,8.756 11.022,8.75 12,8.75 C12.978,8.75 13.32,8.756 13.582,8.827 C14.359,9.035 14.965,9.641 15.173,10.418 C15.243,10.68 15.25,11.022 15.25,12 C15.25,12.978 15.243,13.32 15.173,13.582 C14.965,14.359 14.359,14.965 13.582,15.173 C13.32,15.243 12.978,15.25 12,15.25 C11.022,15.25 10.68,15.243 10.418,15.173 C9.641,14.965 9.035,14.359 8.827,13.582 C8.756,13.32 8.75,12.978 8.75,12 C8.75,11.022 8.756,10.68 8.827,10.418 C9.035,9.641 9.641,9.035 10.418,8.827 Z"/>
  <path fill="#2D264B" d="M11.715,1.031 C11.905,1.021 12.095,1.021 12.285,1.031 C13.018,1.067 13.694,1.28 14.446,1.629 C15.179,1.969 16.03,2.461 17.108,3.083 L17.169,3.118 C18.246,3.74 19.097,4.232 19.758,4.696 C20.437,5.173 20.959,5.651 21.357,6.268 C21.46,6.428 21.556,6.593 21.642,6.762 C21.977,7.415 22.131,8.107 22.204,8.933 C22.276,9.738 22.276,10.721 22.276,11.965 L22.276,12.035 C22.276,13.279 22.276,14.262 22.204,15.067 C22.131,15.893 21.977,16.584 21.642,17.238 C21.556,17.407 21.46,17.572 21.357,17.732 C20.959,18.348 20.437,18.827 19.758,19.304 C19.097,19.768 18.246,20.26 17.169,20.882 L17.108,20.917 C16.03,21.539 15.179,22.031 14.446,22.371 C13.694,22.72 13.018,22.933 12.285,22.969 C12.095,22.979 11.905,22.979 11.715,22.969 C10.981,22.933 10.306,22.72 9.554,22.371 C8.821,22.031 7.969,21.539 6.892,20.917 L6.831,20.882 C5.754,20.26 4.903,19.768 4.242,19.304 C3.563,18.827 3.041,18.348 2.643,17.732 C2.54,17.572 2.444,17.407 2.358,17.238 C2.022,16.584 1.869,15.893 1.796,15.067 C1.724,14.262 1.724,13.279 1.724,12.036 L1.724,11.964 C1.724,10.721 1.724,9.738 1.796,8.933 C1.869,8.107 2.022,7.415 2.358,6.762 C2.444,6.593 2.54,6.428 2.643,6.268 C3.041,5.651 3.563,5.173 4.242,4.696 C4.903,4.232 5.754,3.74 6.831,3.118 L6.892,3.083 C7.969,2.461 8.821,1.969 9.554,1.629 C10.306,1.28 10.981,1.067 11.715,1.031 Z M11.884,7.25 C11.066,7.25 10.508,7.249 10.029,7.378 C8.735,7.724 7.724,8.735 7.378,10.029 C7.249,10.508 7.25,11.066 7.25,11.884 L7.25,12.116 C7.25,12.934 7.249,13.492 7.378,13.97 C7.724,15.265 8.735,16.275 10.029,16.622 C10.508,16.75 11.066,16.75 11.883,16.75 L12.117,16.75 C12.934,16.75 13.492,16.75 13.97,16.622 C15.265,16.275 16.275,15.265 16.622,13.97 C16.75,13.492 16.75,12.934 16.75,12.117 L16.75,11.883 C16.75,11.066 16.75,10.508 16.622,10.029 C16.275,8.735 15.265,7.724 13.97,7.378 C13.492,7.249 12.934,7.25 12.116,7.25 Z"/>
</svg>

