<svg width="24" height="24" viewBox="0 0 24 24" fill="none" xmlns="http://www.w3.org/2000/svg">
<path d="M9.14854 3.10849C10.6023 2.99693 11.1905 2.95791 11.7163 3.05617C12.5696 3.21561 13.3535 3.63249 13.9628 4.25076C14.3382 4.63176 14.6348 5.14124 15.3551 6.40891L16.4222 8.28675C17.0565 9.40299 17.31 9.85825 17.4419 10.2953C17.7975 11.4729 17.6253 12.7468 16.9699 13.7879C16.7267 14.1742 16.3615 14.5458 15.4537 15.4537C14.5458 16.3615 14.1742 16.7267 13.7879 16.9699C12.7468 17.6253 11.4729 17.7975 10.2953 17.4419C9.85825 17.31 9.40299 17.0565 8.28675 16.4222L6.40891 15.3551C5.14124 14.6348 4.63176 14.3382 4.25076 13.9628C3.6325 13.3535 3.21561 12.5696 3.05617 11.7163C2.95791 11.1905 2.99693 10.6023 3.10849 9.14854C3.25618 7.22381 3.32592 6.44384 3.5902 5.82606C3.70458 5.55869 3.84519 5.30578 4.00891 5.07047L9.37984 10.4414C9.41968 10.4812 9.46288 10.5157 9.50854 10.5447C9.29279 11.1486 9.4267 11.8494 9.91028 12.333C10.5791 13.0018 11.6634 13.0018 12.3322 12.333C13.0009 11.6642 13.0009 10.5799 12.3322 9.9111C11.8486 9.4275 11.1477 9.29359 10.5437 9.5094C10.5147 9.46376 10.4803 9.42056 10.4405 9.38074L5.06941 4.00965C5.30503 3.84561 5.55829 3.70475 5.82606 3.5902C6.44384 3.32592 7.22381 3.25618 9.14854 3.10849Z" fill="#2D264B"/>
<path d="M18.9694 12.8453C18.8252 13.4557 18.5807 14.0447 18.2393 14.587C17.895 15.134 17.3988 15.63 16.5887 16.44L16.44 16.5887C15.63 17.3988 15.134 17.895 14.587 18.2393C14.0442 18.581 13.4546 18.8257 12.8437 18.9697L14.078 20.2041C15.7694 21.8955 18.5117 21.8955 20.2031 20.2041C21.8944 18.5127 21.8944 15.7704 20.2031 14.079L18.9694 12.8453Z" fill="#2D264B"/>
</svg>
