<svg width="24" height="24" viewBox="0 0 24 24" fill="none" xmlns="http://www.w3.org/2000/svg">
<g clip-path="url(#clip0_115_7349)">
<path d="M12.3478 9.9259C13.0166 10.5947 13.0166 11.679 12.3478 12.3478C11.679 13.0166 10.5947 13.0166 9.9259 12.3478C9.25712 11.679 9.25712 10.5947 9.9259 9.9259C10.5947 9.25712 11.679 9.25712 12.3478 9.9259Z" fill="#2D264B"/>
<path d="M6.46386 16.4327L6.09332 17.0848H6.09332L6.46386 16.4327ZM4.14981 14.9225L3.62338 15.4567L4.14981 14.9225ZM2.78617 9.51664L3.53397 9.57403L2.78617 9.51664ZM2.74441 12.2796L3.48165 12.1418L2.74441 12.2796ZM14.6129 18.0301L14.2134 17.3954L14.6129 18.0301ZM8.3417 17.4998L8.71224 16.8477L8.3417 17.4998ZM10.504 18.5854L10.2872 19.3034L10.504 18.5854ZM17.4998 8.3417L18.1518 7.97116L17.4998 8.3417ZM18.5854 10.504L19.3034 10.2872L18.5854 10.504ZM18.0301 14.6129L17.3954 14.2134L18.0301 14.6129ZM9.51664 2.78617L9.57403 3.53397L9.51664 2.78617ZM12.2796 2.74441L12.1418 3.48165L12.2796 2.74441ZM16.4327 6.46386L15.7806 6.8344L16.4327 6.46386ZM14.9225 4.14981L15.4567 3.62338L14.9225 4.14981ZM5.95655 3.32613L6.25154 4.01568V4.01568L5.95655 3.32613ZM3.32613 5.95655L4.01568 6.25154H4.01568L3.32613 5.95655ZM12.9181 19.0432L13.4484 18.5129L13.4484 18.5129L12.9181 19.0432ZM5.00714 3.94641C4.71425 3.65351 4.23938 3.65351 3.94648 3.94641C3.65359 4.2393 3.65359 4.71417 3.94648 5.00707L5.00714 3.94641ZM9.39571 10.4563C9.68861 10.7492 10.1635 10.7492 10.4564 10.4563C10.7493 10.1634 10.7493 9.68853 10.4564 9.39563L9.39571 10.4563ZM18.7525 12.6275L18.0095 12.5258L18.7525 12.6275ZM12.6275 18.7526L12.5257 18.0095L12.6275 18.7526ZM15.7806 6.8344L16.8477 8.71224L18.1518 7.97116L17.0848 6.09332L15.7806 6.8344ZM8.71224 16.8477L6.8344 15.7806L6.09332 17.0848L7.97116 18.1518L8.71224 16.8477ZM6.8344 15.7806C5.56673 15.0603 5.05724 14.7637 4.67624 14.3883L3.62338 15.4567C4.17838 16.0036 4.89959 16.4064 6.09332 17.0848L6.8344 15.7806ZM2.03837 9.45926C1.93332 10.8282 1.86405 11.6514 2.00717 12.4173L3.48165 12.1418C3.38339 11.616 3.42242 11.0278 3.53397 9.57403L2.03837 9.45926ZM4.67624 14.3883C4.05798 13.779 3.6411 12.995 3.48165 12.1418L2.00717 12.4173C2.22289 13.5717 2.78691 14.6324 3.62338 15.4567L4.67624 14.3883ZM15.8792 15.8792C14.9713 16.787 14.5997 17.1522 14.2134 17.3954L15.0125 18.6648C15.576 18.3101 16.0854 17.7942 16.9398 16.9398L15.8792 15.8792ZM7.97116 18.1518C9.02165 18.7488 9.64975 19.1109 10.2872 19.3034L10.7207 17.8674C10.2837 17.7355 9.82847 17.482 8.71224 16.8477L7.97116 18.1518ZM16.8477 8.71224C17.482 9.82847 17.7355 10.2837 17.8674 10.7207L19.3034 10.2872C19.1109 9.64975 18.7488 9.02165 18.1518 7.97116L16.8477 8.71224ZM16.9398 16.9398C17.7942 16.0854 18.3101 15.576 18.6648 15.0125L17.3954 14.2134C17.1522 14.5997 16.787 14.9713 15.8792 15.8792L16.9398 16.9398ZM9.57403 3.53397C11.0278 3.42242 11.616 3.38339 12.1418 3.48165L12.4173 2.00717C11.6514 1.86405 10.8282 1.93332 9.45926 2.03837L9.57403 3.53397ZM17.0848 6.09332C16.4064 4.89959 16.0036 4.17838 15.4567 3.62338L14.3883 4.67624C14.7637 5.05724 15.0603 5.56673 15.7806 6.8344L17.0848 6.09332ZM12.1418 3.48165C12.995 3.6411 13.779 4.05798 14.3883 4.67624L15.4567 3.62338C14.6324 2.78691 13.5717 2.22289 12.4173 2.00717L12.1418 3.48165ZM9.45926 2.03837C7.65044 2.17717 6.56364 2.25067 5.66156 2.63658L6.25154 4.01568C6.86932 3.7514 7.64929 3.68166 9.57403 3.53397L9.45926 2.03837ZM3.53397 9.57403C3.68166 7.64929 3.7514 6.86932 4.01568 6.25154L2.63658 5.66156C2.25067 6.56364 2.17717 7.65044 2.03837 9.45926L3.53397 9.57403ZM5.66156 2.63658C4.30171 3.21832 3.21832 4.30171 2.63658 5.66156L4.01568 6.25154C4.44567 5.24643 5.24643 4.44567 6.25154 4.01568L5.66156 2.63658ZM14.6242 19.6886L13.4484 18.5129L12.3878 19.5735L13.5635 20.7493L14.6242 19.6886ZM18.5128 13.4485L19.6886 14.6243L20.7493 13.5636L19.5735 12.3878L18.5128 13.4485ZM19.6886 19.6886C18.2901 21.0871 16.0227 21.0871 14.6242 19.6886L13.5635 20.7493C15.5478 22.7336 18.765 22.7336 20.7493 20.7493L19.6886 19.6886ZM20.7493 20.7493C22.7335 18.765 22.7335 15.5479 20.7493 13.5636L19.6886 14.6243C21.0871 16.0227 21.0871 18.2901 19.6886 19.6886L20.7493 20.7493ZM3.94648 5.00707L9.39571 10.4563L10.4564 9.39563L5.00714 3.94641L3.94648 5.00707ZM17.8674 10.7207C18.0459 11.312 18.0914 11.9276 18.0095 12.5258L19.4956 12.7293C19.6064 11.9201 19.5449 11.0872 19.3034 10.2872L17.8674 10.7207ZM18.0095 12.5258C17.9282 13.119 17.7217 13.695 17.3954 14.2134L18.6648 15.0125C19.1063 14.3112 19.3857 13.5318 19.4956 12.7293L18.0095 12.5258ZM19.5735 12.3878L19.2829 12.0972L18.2222 13.1579L18.5128 13.4485L19.5735 12.3878ZM14.2134 17.3954C13.695 17.7217 13.119 17.9283 12.5257 18.0095L12.7292 19.4956C13.5317 19.3857 14.3112 19.1063 15.0125 18.6648L14.2134 17.3954ZM12.5257 18.0095C11.9275 18.0914 11.312 18.0459 10.7207 17.8674L10.2872 19.3034C11.0871 19.5449 11.92 19.6064 12.7292 19.4956L12.5257 18.0095ZM13.4484 18.5129L13.1578 18.2222L12.0971 19.2829L12.3878 19.5735L13.4484 18.5129Z" fill="#2D264B"/>
</g>
<defs>
<clipPath id="clip0_115_7349">
<rect width="24" height="24" fill="white"/>
</clipPath>
</defs>
</svg>
