<svg xmlns="http://www.w3.org/2000/svg" width="24" height="24" viewBox="0 0 24 24">
  <defs/>
  <path fill="#2D264B" d="M12.348,9.926 C13.017,10.595 13.017,11.679 12.348,12.348 C11.679,13.017 10.595,13.017 9.926,12.348 C9.257,11.679 9.257,10.595 9.926,9.926 C10.595,9.257 11.679,9.257 12.348,9.926 Z"/>
  <path fill="#2D264B" d="M2.038,9.459 C2.177,7.65 2.251,6.564 2.637,5.662 C3.218,4.302 4.302,3.218 5.662,2.637 C6.564,2.251 7.65,2.177 9.459,2.038 C9.499,2.035 9.538,2.032 9.576,2.029 C10.876,1.93 11.673,1.868 12.417,2.007 C13.572,2.223 14.632,2.787 15.457,3.623 C16.004,4.178 16.406,4.9 17.085,6.093 L18.152,7.971 C18.749,9.022 19.111,9.65 19.303,10.287 C19.507,10.962 19.583,11.661 19.535,12.349 L19.573,12.388 L20.749,13.564 C22.733,15.548 22.733,18.765 20.749,20.749 C18.765,22.734 15.548,22.734 13.564,20.749 L12.388,19.573 L12.349,19.535 C11.661,19.583 10.962,19.507 10.287,19.303 C9.65,19.111 9.022,18.749 7.971,18.152 L6.093,17.085 C4.9,16.406 4.178,16.004 3.623,15.457 C2.787,14.632 2.223,13.572 2.007,12.417 C1.868,11.673 1.93,10.876 2.029,9.576 C2.032,9.538 2.035,9.499 2.038,9.459 Z M9.396,10.456 L4.435,5.495 C4.271,5.731 4.13,5.984 4.016,6.252 C3.751,6.869 3.682,7.649 3.534,9.574 C3.422,11.028 3.383,11.616 3.482,12.142 C3.641,12.995 4.058,13.779 4.676,14.388 C5.057,14.764 5.567,15.06 6.834,15.781 L8.712,16.848 C9.828,17.482 10.284,17.736 10.721,17.867 C11.312,18.046 11.927,18.091 12.526,18.01 C13.119,17.928 13.695,17.722 14.213,17.395 C14.6,17.152 14.971,16.787 15.879,15.879 C16.787,14.971 17.152,14.6 17.395,14.213 C17.722,13.695 17.928,13.119 18.01,12.526 C18.091,11.928 18.046,11.312 17.867,10.721 C17.736,10.284 17.482,9.828 16.848,8.712 L15.781,6.834 C15.06,5.567 14.764,5.057 14.388,4.676 C13.779,4.058 12.995,3.641 12.142,3.482 C11.616,3.383 11.028,3.422 9.574,3.534 C7.649,3.682 6.869,3.751 6.252,4.016 C5.984,4.13 5.731,4.271 5.495,4.435 L10.456,9.396 C10.749,9.689 10.749,10.163 10.456,10.456 C10.163,10.749 9.689,10.749 9.396,10.456 Z M16.94,16.94 C16.085,17.794 15.576,18.31 15.012,18.665 C14.713,18.853 14.4,19.012 14.076,19.141 L14.624,19.689 C16.023,21.087 18.29,21.087 19.689,19.689 C21.087,18.29 21.087,16.023 19.689,14.624 L19.141,14.076 C19.012,14.4 18.853,14.713 18.665,15.012 C18.31,15.576 17.794,16.085 16.94,16.94 Z"/>
</svg>

