<svg xmlns="http://www.w3.org/2000/svg" width="24" height="24" viewBox="0 0 24 24">
  <defs/>
  <path fill="#2D264B" d="M9.149,3.108 C10.602,2.997 11.191,2.958 11.716,3.056 C12.57,3.216 13.354,3.632 13.963,4.251 C14.338,4.632 14.635,5.141 15.355,6.409 L16.422,8.287 C17.056,9.403 17.31,9.858 17.442,10.295 C17.797,11.473 17.625,12.747 16.97,13.788 C16.727,14.174 16.361,14.546 15.454,15.454 C14.546,16.361 14.174,16.727 13.788,16.97 C12.747,17.625 11.473,17.797 10.295,17.442 C9.858,17.31 9.403,17.056 8.287,16.422 L6.409,15.355 C5.141,14.635 4.632,14.338 4.251,13.963 C3.632,13.354 3.216,12.57 3.056,11.716 C2.958,11.191 2.997,10.602 3.108,9.149 C3.256,7.224 3.326,6.444 3.59,5.826 C3.705,5.559 3.845,5.306 4.009,5.07 L9.38,10.441 C9.42,10.481 9.463,10.516 9.509,10.545 C9.293,11.149 9.427,11.849 9.91,12.333 C10.579,13.002 11.663,13.002 12.332,12.333 C13.001,11.664 13.001,10.58 12.332,9.911 C11.849,9.428 11.148,9.294 10.544,9.509 C10.515,9.464 10.48,9.421 10.441,9.381 L5.069,4.01 C5.305,3.846 5.558,3.705 5.826,3.59 C6.444,3.326 7.224,3.256 9.149,3.108 Z"/>
  <path fill="#2D264B" d="M18.969,12.845 C18.825,13.456 18.581,14.045 18.239,14.587 C17.895,15.134 17.399,15.63 16.589,16.44 L16.44,16.589 C15.63,17.399 15.134,17.895 14.587,18.239 C14.044,18.581 13.455,18.826 12.844,18.97 L14.078,20.204 C15.769,21.895 18.512,21.895 20.203,20.204 C21.894,18.513 21.894,15.77 20.203,14.079 L18.969,12.845 Z"/>
</svg>

