<svg width="24" height="24" viewBox="0 0 24 24" fill="none" xmlns="http://www.w3.org/2000/svg">
<path d="M8.48072 3.4326C10.0685 0.682416 13.5852 -0.259863 16.3354 1.32796C19.0856 2.91577 20.0278 6.43242 18.44 9.1826L18.3319 9.3699C19.6142 11.5 19.8317 14.1862 18.7523 16.5684C18.5951 16.9155 18.3751 17.2964 17.9945 17.9556L17.9553 18.0235C17.9099 18.1023 17.8627 18.1841 17.8118 18.2553C17.3255 18.9339 16.4275 19.1745 15.667 18.8299C15.5873 18.7938 15.5056 18.7466 15.4269 18.701L9.23559 15.1265L5.61059 21.4051C5.40349 21.7639 4.94479 21.8868 4.58607 21.6797C4.22735 21.4726 4.10445 21.0139 4.31155 20.6551L7.93656 14.3765L1.74528 10.8019C1.66648 10.7565 1.58467 10.7094 1.51354 10.6584C0.834906 10.1721 0.594299 9.27414 0.93886 8.51368C0.974976 8.43397 1.02225 8.35223 1.06778 8.2735L1.10692 8.20574C1.48753 7.54645 1.7075 7.16544 1.92946 6.85569C3.45251 4.73028 5.88692 3.57559 8.37221 3.62054L8.48072 3.4326Z" fill="#2D264B"/>
</svg>
