<svg width="24" height="24" viewBox="0 0 24 24" fill="none" xmlns="http://www.w3.org/2000/svg">
<path d="M3.67963 10.8577L4.05463 10.2082H4.05463L3.67963 10.8577ZM3.4889 10.742L3.05204 11.3516H3.05204L3.4889 10.742ZM3.26785 9.32089L3.91737 9.69589L3.26785 9.32089ZM3.16051 9.51644L2.47737 9.20691L3.16051 9.51644ZM18.8563 18.3209L19.5058 18.6959L18.8563 18.3209ZM18.7406 18.5116L19.3503 18.9485L18.7406 18.5116ZM17.3195 18.7327L17.6945 18.0832L17.3195 18.7327ZM17.5151 18.84L17.2055 19.5232L17.5151 18.84ZM15.9739 7.56344L15.5989 8.21296L15.9739 7.56344ZM17.309 8.37319L17.7458 7.76356L17.309 8.37319ZM19.6077 16.9521L20.2908 17.2616L19.6077 16.9521ZM14.0253 6.43844L14.4003 5.78892L14.0253 6.43844ZM12.6565 5.68707L12.966 5.00393L12.6565 5.68707ZM4.0776 7.98578L4.68724 8.42263L4.0776 7.98578ZM17.4989 2.67071L17.1239 3.32023V3.32023L17.4989 2.67071ZM19.329 9.50083L19.9785 9.87583V9.87583L19.329 9.50083ZM10.6687 4.50083L11.3183 4.87583L11.3183 4.87583L10.6687 4.50083ZM19.0232 10.0305L19.6018 10.5077L19.6415 10.4596L19.6727 10.4055L19.0232 10.0305ZM10.4996 14.7952L10.8746 14.1457L10.8746 14.1457L10.4996 14.7952ZM5.85006 21.3484C5.64296 21.7071 5.76586 22.1658 6.12458 22.3729C6.4833 22.58 6.94199 22.4571 7.1491 22.0984L5.85006 21.3484ZM10.3314 5.08505L10.2712 5.83263L10.3314 5.08505ZM10.4686 14.7773L10.0936 15.4268L10.0936 15.4268L10.4686 14.7773ZM13.6503 7.08796L15.5989 8.21296L16.3489 6.91392L14.4003 5.78892L13.6503 7.08796ZM4.05463 10.2082C4.00217 10.1779 3.97095 10.1598 3.94761 10.1458C3.92547 10.1325 3.92226 10.1299 3.92576 10.1324L3.05204 11.3516C3.12947 11.4071 3.21955 11.4581 3.30463 11.5072L4.05463 10.2082ZM2.61833 8.94589C2.56921 9.03097 2.51668 9.12014 2.47737 9.20691L3.84366 9.82597C3.84189 9.82988 3.84334 9.82599 3.85587 9.8034C3.86907 9.7796 3.88708 9.74836 3.91737 9.69589L2.61833 8.94589ZM3.92576 10.1324C3.82881 10.0629 3.79444 9.93461 3.84366 9.82597L2.47737 9.20691C2.13281 9.96737 2.37341 10.8653 3.05204 11.3516L3.92576 10.1324ZM18.2068 17.9459C18.1765 17.9984 18.1584 18.0296 18.1444 18.0529C18.1311 18.0751 18.1285 18.0783 18.131 18.0748L19.3503 18.9485C19.4058 18.871 19.4567 18.781 19.5058 18.6959L18.2068 17.9459ZM16.9445 19.3822C17.0296 19.4313 17.1188 19.4838 17.2055 19.5232L17.8246 18.1569C17.8285 18.1586 17.8246 18.1572 17.802 18.1447C17.7782 18.1315 17.747 18.1134 17.6945 18.0832L16.9445 19.3822ZM18.131 18.0748C18.0615 18.1717 17.9332 18.2061 17.8246 18.1569L17.2055 19.5232C17.966 19.8677 18.864 19.6271 19.3503 18.9485L18.131 18.0748ZM15.5989 8.21296C16.318 8.62818 16.6301 8.80939 16.8721 8.98283L17.7458 7.76356C17.4288 7.53638 17.0371 7.3113 16.3489 6.91392L15.5989 8.21296ZM19.5058 18.6959C19.9032 18.0076 20.1299 17.6169 20.2908 17.2616L18.9245 16.6425C18.8016 16.9138 18.622 17.2267 18.2068 17.9459L19.5058 18.6959ZM14.4003 5.78892C13.712 5.39155 13.3213 5.16489 12.966 5.00393L12.3469 6.37022C12.6182 6.49311 12.9311 6.67274 13.6503 7.08796L14.4003 5.78892ZM3.91737 9.69589C4.33259 8.97671 4.5138 8.66466 4.68724 8.42263L3.46797 7.54892C3.24079 7.86594 3.01571 8.25762 2.61833 8.94589L3.91737 9.69589ZM17.1239 3.32023C19.1566 4.49383 19.8531 7.09309 18.6795 9.12583L19.9785 9.87583C21.5663 7.12565 20.624 3.60901 17.8739 2.02119L17.1239 3.32023ZM11.3183 4.87583C12.4919 2.84309 15.0911 2.14662 17.1239 3.32023L17.8739 2.02119C15.1237 0.433371 11.607 1.37565 10.0192 4.12583L11.3183 4.87583ZM18.6795 9.12583L18.3737 9.65551L19.6727 10.4055L19.9785 9.87583L18.6795 9.12583ZM9.85006 14.4202L5.85006 21.3484L7.1491 22.0984L11.1491 15.1702L9.85006 14.4202ZM10.981 5.46005L11.3183 4.87583L10.0192 4.12583L9.68192 4.71005L10.981 5.46005ZM12.966 5.00393C12.1336 4.62676 11.263 4.4077 10.3917 4.33748L10.2712 5.83263C10.9728 5.88918 11.6745 6.06553 12.3469 6.37022L12.966 5.00393ZM10.3917 4.33748C7.74303 4.124 5.08919 5.28651 3.46797 7.54892L4.68724 8.42263C5.99407 6.59895 8.13378 5.66036 10.2712 5.83263L10.3917 4.33748ZM16.8721 8.98283C17.4691 9.41064 17.9706 9.92697 18.3694 10.5027L19.6025 9.64864C19.1072 8.93362 18.4848 8.29312 17.7458 7.76356L16.8721 8.98283ZM18.3694 10.5027C19.5926 12.2687 19.852 14.5955 18.9245 16.6425L20.2908 17.2616C21.4415 14.7221 21.1183 11.8371 19.6025 9.64864L18.3694 10.5027ZM18.4446 9.5533L18.4073 9.59846L19.5645 10.5529L19.6018 10.5077L18.4446 9.5533ZM17.6945 18.0832L10.8746 14.1457L10.1246 15.4447L16.9445 19.3822L17.6945 18.0832ZM10.8746 14.1457L10.8436 14.1277L10.0936 15.4268L10.1246 15.4447L10.8746 14.1457ZM10.8436 14.1277L4.05463 10.2082L3.30463 11.5072L10.0936 15.4268L10.8436 14.1277Z" fill="#2D264B"/>
</svg>
