<svg xmlns="http://www.w3.org/2000/svg" width="24" height="24" viewBox="0 0 24 24">
  <defs/>
  <path fill="#2D264B" d="M19.023,10.03 L19.602,10.508 L19.642,10.46 L19.673,10.405 L19.023,10.03 Z M5.85,21.348 C5.643,21.707 5.766,22.166 6.125,22.373 C6.483,22.58 6.942,22.457 7.149,22.098 L5.85,21.348 Z M13.65,7.088 L15.599,8.213 L16.349,6.914 L14.4,5.789 L13.65,7.088 Z M4.055,10.208 C4.002,10.178 3.971,10.16 3.948,10.146 C3.925,10.133 3.922,10.13 3.926,10.132 L3.052,11.352 C3.129,11.407 3.22,11.458 3.305,11.507 L4.055,10.208 Z M2.618,8.946 C2.569,9.031 2.517,9.12 2.477,9.207 L3.844,9.826 C3.842,9.83 3.843,9.826 3.856,9.803 C3.869,9.78 3.887,9.748 3.917,9.696 L2.618,8.946 Z M3.926,10.132 C3.829,10.063 3.794,9.935 3.844,9.826 L2.477,9.207 C2.133,9.967 2.373,10.865 3.052,11.352 L3.926,10.132 Z M18.207,17.946 C18.177,17.998 18.158,18.03 18.144,18.053 C18.131,18.075 18.128,18.078 18.131,18.075 L19.35,18.948 C19.406,18.871 19.457,18.781 19.506,18.696 L18.207,17.946 Z M16.945,19.382 C17.03,19.431 17.119,19.484 17.206,19.523 L17.825,18.157 C17.828,18.159 17.825,18.157 17.802,18.145 C17.778,18.131 17.747,18.113 17.695,18.083 L16.945,19.382 Z M18.131,18.075 C18.061,18.172 17.933,18.206 17.825,18.157 L17.206,19.523 C17.966,19.868 18.864,19.627 19.35,18.948 L18.131,18.075 Z M15.599,8.213 C16.318,8.628 16.63,8.809 16.872,8.983 L17.746,7.764 C17.429,7.536 17.037,7.311 16.349,6.914 L15.599,8.213 Z M19.506,18.696 C19.903,18.008 20.13,17.617 20.291,17.262 L18.924,16.642 C18.802,16.914 18.622,17.227 18.207,17.946 L19.506,18.696 Z M14.4,5.789 C13.712,5.392 13.321,5.165 12.966,5.004 L12.347,6.37 C12.618,6.493 12.931,6.673 13.65,7.088 L14.4,5.789 Z M3.917,9.696 C4.333,8.977 4.514,8.665 4.687,8.423 L3.468,7.549 C3.241,7.866 3.016,8.258 2.618,8.946 L3.917,9.696 Z M17.124,3.32 C19.157,4.494 19.853,7.093 18.68,9.126 L19.979,9.876 C21.566,7.126 20.624,3.609 17.874,2.021 L17.124,3.32 Z M11.318,4.876 C12.492,2.843 15.091,2.147 17.124,3.32 L17.874,2.021 C15.124,0.433 11.607,1.376 10.019,4.126 L11.318,4.876 Z M18.68,9.126 L18.374,9.656 L19.673,10.405 L19.979,9.876 L18.68,9.126 Z M9.85,14.42 L5.85,21.348 L7.149,22.098 L11.149,15.17 L9.85,14.42 Z M10.981,5.46 L11.318,4.876 L10.019,4.126 L9.682,4.71 L10.981,5.46 Z M12.966,5.004 C12.134,4.627 11.263,4.408 10.392,4.337 L10.271,5.833 C10.973,5.889 11.675,6.066 12.347,6.37 L12.966,5.004 Z M10.392,4.337 C7.743,4.124 5.089,5.287 3.468,7.549 L4.687,8.423 C5.994,6.599 8.134,5.66 10.271,5.833 L10.392,4.337 Z M16.872,8.983 C17.469,9.411 17.971,9.927 18.369,10.503 L19.602,9.649 C19.107,8.934 18.485,8.293 17.746,7.764 L16.872,8.983 Z M18.369,10.503 C19.593,12.269 19.852,14.595 18.924,16.642 L20.291,17.262 C21.442,14.722 21.118,11.837 19.602,9.649 L18.369,10.503 Z M18.445,9.553 L18.407,9.598 L19.564,10.553 L19.602,10.508 L18.445,9.553 Z M17.695,18.083 L10.875,14.146 L10.125,15.445 L16.945,19.382 L17.695,18.083 Z M10.875,14.146 L10.844,14.128 L10.094,15.427 L10.125,15.445 L10.875,14.146 Z M10.844,14.128 L4.055,10.208 L3.305,11.507 L10.094,15.427 L10.844,14.128 Z"/>
</svg>

