<svg xmlns="http://www.w3.org/2000/svg" width="24" height="24" viewBox="0 0 24 24">
  <defs/>
  <path fill="#2D264B" d="M8.481,3.433 C10.069,0.682 13.585,-0.26 16.335,1.328 C19.086,2.916 20.028,6.432 18.44,9.183 L18.332,9.37 C19.614,11.5 19.832,14.186 18.752,16.568 C18.595,16.916 18.375,17.296 17.994,17.956 L17.955,18.023 C17.91,18.102 17.863,18.184 17.812,18.255 C17.326,18.934 16.427,19.174 15.667,18.83 C15.587,18.794 15.506,18.747 15.427,18.701 L9.236,15.127 L5.611,21.405 C5.403,21.764 4.945,21.887 4.586,21.68 C4.227,21.473 4.104,21.014 4.312,20.655 L7.937,14.377 L1.745,10.802 C1.666,10.757 1.585,10.709 1.514,10.658 C0.835,10.172 0.594,9.274 0.939,8.514 C0.975,8.434 1.022,8.352 1.068,8.274 L1.107,8.206 C1.488,7.546 1.708,7.165 1.929,6.856 C3.453,4.73 5.887,3.576 8.372,3.621 L8.481,3.433 Z"/>
</svg>

