<svg width="24" height="24" viewBox="0 0 24 24" fill="none" xmlns="http://www.w3.org/2000/svg">
<path d="M7.23677 3.74993C9.44278 2.47629 10.5458 1.83947 11.752 1.77959C11.9172 1.77139 12.0827 1.77139 12.2478 1.77959C13.454 1.83947 14.557 2.47629 16.7631 3.74993C18.9691 5.02358 20.0721 5.6604 20.727 6.67504C20.8167 6.814 20.8995 6.95732 20.975 7.10448C21.5262 8.17901 21.5262 9.45265 21.5262 11.9999C21.5262 14.5472 21.5262 15.8209 20.975 16.8954C20.8995 17.0425 20.8167 17.1859 20.727 17.3248C20.0721 18.3395 18.9691 18.9763 16.7631 20.2499C14.557 21.5236 13.454 22.1604 12.2478 22.2203C12.0827 22.2285 11.9172 22.2285 11.752 22.2203C10.5458 22.1604 9.44278 21.5236 7.23677 20.2499C5.03076 18.9763 3.92776 18.3395 3.2728 17.3248C3.1831 17.1859 3.10036 17.0425 3.02486 16.8954C2.47363 15.8209 2.47363 14.5472 2.47363 11.9999C2.47363 9.45265 2.47363 8.17901 3.02486 7.10448C3.10036 6.95732 3.1831 6.814 3.2728 6.67504C3.92776 5.6604 5.03076 5.02358 7.23677 3.74993Z" stroke="#2D264B" stroke-width="1.5"/>
<path d="M13.421 9.27909C14.8718 10.172 15.5972 10.6184 15.8407 11.2013C16.053 11.7097 16.053 12.2902 15.8407 12.7986C15.5972 13.3815 14.8718 13.8279 13.421 14.7208C11.9701 15.6137 11.2447 16.0601 10.6495 15.9934C10.1303 15.9352 9.65859 15.645 9.35172 15.1947C8.99991 14.6786 8.99991 13.7857 8.99991 11.9999C8.99991 10.2142 8.99991 9.32129 9.35172 8.80512C9.65859 8.3549 10.1303 8.06462 10.6495 8.00645C11.2447 7.93976 11.9701 8.38621 13.421 9.27909Z" stroke="#2D264B" stroke-width="1.5"/>
</svg>
