<svg xmlns="http://www.w3.org/2000/svg" width="24" height="24" viewBox="0 0 24 24">
  <defs/>
  <path fill="#2D264B" d="M15.073,5.207 C13.341,4.219 11.996,3.452 10.903,2.954 C9.806,2.455 8.854,2.173 7.929,2.269 C6.459,2.421 5.122,3.182 4.25,4.367 C3.7,5.116 3.47,6.076 3.36,7.265 C3.25,8.45 3.25,9.985 3.25,11.959 L3.25,12.041 C3.25,14.015 3.25,15.55 3.36,16.735 C3.47,17.924 3.7,18.884 4.25,19.633 C5.122,20.817 6.459,21.579 7.929,21.731 C8.854,21.827 9.806,21.545 10.903,21.046 C11.996,20.548 13.341,19.781 15.073,18.793 L15.143,18.753 C16.875,17.766 18.221,16.999 19.204,16.313 C20.189,15.625 20.916,14.95 21.297,14.105 C21.901,12.765 21.901,11.235 21.297,9.895 C20.916,9.05 20.189,8.375 19.204,7.687 C18.221,7.001 16.875,6.234 15.143,5.247 L15.073,5.207 Z"/>
</svg>

