<svg xmlns="http://www.w3.org/2000/svg" width="24" height="24" viewBox="0 0 24 24">
  <defs/>
  <path fill="#2D264B" d="M6.862,3.1 Q10.328,1.099 11.715,1.031 Q12,1.016 12.285,1.031 Q13.672,1.099 17.138,3.1 L17.138,3.1 L17.138,3.1 Q20.604,5.101 21.357,6.268 Q21.512,6.509 21.642,6.762 Q22.276,7.998 22.276,12 Q22.276,16.002 21.642,17.238 Q21.512,17.492 21.357,17.732 Q20.604,18.898 17.138,20.899 Q13.672,22.9 12.285,22.969 Q12,22.984 11.715,22.969 Q10.328,22.9 6.862,20.899 Q3.396,18.898 2.643,17.732 Q2.488,17.493 2.358,17.238 Q1.724,16.002 1.724,12 Q1.724,7.998 2.358,6.762 Q2.488,6.508 2.643,6.268 Q3.396,5.101 6.862,3.1 Z M7.612,4.399 Q4.46,6.219 3.903,7.082 Q3.789,7.259 3.692,7.447 Q3.224,8.36 3.224,12 Q3.224,15.64 3.692,16.553 Q3.789,16.741 3.903,16.918 Q4.46,17.781 7.612,19.6 Q10.764,21.42 11.789,21.471 Q12,21.482 12.211,21.471 Q13.236,21.42 16.388,19.6 Q19.54,17.781 20.097,16.918 Q20.211,16.741 20.308,16.553 Q20.776,15.64 20.776,12 Q20.776,8.36 20.308,7.447 Q20.212,7.259 20.097,7.082 Q19.54,6.219 16.388,4.399 L16.388,4.399 L16.388,4.399 Q13.236,2.58 12.211,2.529 Q12,2.518 11.789,2.529 Q10.764,2.58 7.612,4.399 Z"/>
  <path fill="#2D264B" d="M13.814,8.64 L13.815,8.641 Q16.196,10.106 16.533,10.912 Q16.987,12 16.533,13.088 Q16.196,13.894 13.815,15.359 L13.814,15.36 Q11.418,16.834 10.566,16.739 Q9.408,16.609 8.732,15.617 Q8.25,14.91 8.25,12 Q8.25,9.09 8.732,8.383 Q9.408,7.391 10.566,7.261 Q11.418,7.166 13.814,8.64 L13.814,8.64 Z M13.028,9.918 L13.028,9.918 Q11.072,8.714 10.733,8.752 Q10.26,8.805 9.971,9.228 Q9.75,9.553 9.75,12 Q9.75,14.447 9.971,14.772 Q10.26,15.195 10.733,15.248 Q11.072,15.286 13.028,14.082 L13.028,14.082 Q14.998,12.869 15.149,12.51 Q15.361,12 15.149,11.49 Q14.998,11.131 13.028,9.918 Z"/>
</svg>

