<svg width="24" height="24" viewBox="0 0 24 24" fill="none" xmlns="http://www.w3.org/2000/svg">
<path d="M10.7331 8.75186C10.8116 8.74306 10.9809 8.7581 11.3836 8.95606C11.7811 9.15147 12.2894 9.46335 13.028 9.91788C13.7662 10.3722 14.2742 10.6858 14.6325 10.9556C14.9909 11.2255 15.1044 11.3843 15.1487 11.4904C15.2838 11.8138 15.2838 12.1862 15.1487 12.5096C15.1044 12.6157 14.9909 12.7745 14.6325 13.0444C14.2742 13.3142 13.7662 13.6278 13.028 14.0821C12.2894 14.5366 11.7811 14.8485 11.3836 15.0439C10.9809 15.2419 10.8116 15.2569 10.7331 15.2481C10.4415 15.2155 10.1613 15.0508 9.97155 14.7724C9.90747 14.6784 9.83227 14.4862 9.79121 14.0092C9.75066 13.538 9.75 12.9068 9.75 12C9.75 11.0932 9.75066 10.462 9.79121 9.9908C9.83227 9.51375 9.90747 9.32161 9.97155 9.22759C10.1613 8.94918 10.4415 8.78452 10.7331 8.75186Z" fill="#2D264B"/>
<path fill-rule="evenodd" clip-rule="evenodd" d="M11.9548 2.25H12.0452C13.8818 2.24999 15.3214 2.24999 16.4635 2.37373C17.6291 2.50001 18.5734 2.76232 19.3798 3.34815C19.8679 3.70281 20.2972 4.13209 20.6518 4.62024C21.2377 5.42656 21.5 6.37094 21.6263 7.53648C21.75 8.67859 21.75 10.1182 21.75 11.9547V12.0453C21.75 13.8818 21.75 15.3214 21.6263 16.4635C21.5 17.6291 21.2377 18.5734 20.6518 19.3798C20.2972 19.8679 19.8679 20.2972 19.3798 20.6518C18.5734 21.2377 17.6291 21.5 16.4635 21.6263C15.3214 21.75 13.8818 21.75 12.0453 21.75H11.9547C10.1182 21.75 8.67859 21.75 7.53648 21.6263C6.37094 21.5 5.42656 21.2377 4.62024 20.6518C4.13209 20.2972 3.70281 19.8679 3.34815 19.3798C2.76232 18.5734 2.50001 17.6291 2.37373 16.4635C2.24999 15.3214 2.24999 13.8818 2.25 12.0452V11.9548C2.24999 10.1182 2.24999 8.67861 2.37373 7.53648C2.50001 6.37094 2.76232 5.42656 3.34815 4.62024C3.70281 4.13209 4.13209 3.70281 4.62024 3.34815C5.42656 2.76232 6.37094 2.50001 7.53648 2.37373C8.67861 2.24999 10.1182 2.24999 11.9548 2.25ZM13.7807 8.61986C13.0837 8.19089 12.5146 7.84061 12.0453 7.60993C11.5738 7.37812 11.0828 7.20329 10.566 7.26118C9.81915 7.34486 9.15604 7.76076 8.73207 8.38278C8.44434 8.80493 8.34363 9.31731 8.29674 9.86218C8.24998 10.4054 8.24999 11.1017 8.25 11.9641V12.0359C8.24999 12.8983 8.24998 13.5946 8.29674 14.1378C8.34363 14.6827 8.44434 15.1951 8.73207 15.6172C9.15604 16.2392 9.81915 16.6551 10.566 16.7388C11.0828 16.7967 11.5738 16.6219 12.0453 16.3901C12.5146 16.1594 13.0837 15.8091 13.7807 15.3802L13.8468 15.3395C14.5445 14.9101 15.1134 14.56 15.5349 14.2426C15.9627 13.9204 16.3337 13.5645 16.5328 13.0877C16.8224 12.3944 16.8224 11.6056 16.5328 10.9123C16.3337 10.4355 15.9627 10.0796 15.5349 9.7574C15.1134 9.44 14.5445 9.08987 13.8468 8.66049L13.7807 8.61986Z" fill="#2D264B"/>
</svg>
