<svg width="24" height="24" viewBox="0 0 24 24" fill="none" xmlns="http://www.w3.org/2000/svg">
<path d="M10.733 8.75179C10.8115 8.743 10.9808 8.75804 11.3835 8.956C11.781 9.15141 12.2893 9.46329 13.0279 9.91782C13.7661 10.3721 14.2741 10.6857 14.6324 10.9555C14.9908 11.2255 15.1043 11.3842 15.1486 11.4903C15.2837 11.8138 15.2837 12.1861 15.1486 12.5095C15.1043 12.6157 14.9908 12.7744 14.6324 13.0443C14.2741 13.3142 13.7661 13.6277 13.0279 14.0821C12.2893 14.5366 11.781 14.8485 11.3835 15.0439C10.9808 15.2418 10.8115 15.2569 10.733 15.2481C10.4415 15.2154 10.1613 15.0508 9.97149 14.7723C9.90741 14.6783 9.83221 14.4862 9.79115 14.0091C9.7506 13.538 9.74994 12.9067 9.74994 11.9999C9.74994 11.0932 9.7506 10.4619 9.79115 9.99074C9.83221 9.51369 9.90741 9.32155 9.97149 9.22753C10.1613 8.94912 10.4415 8.78446 10.733 8.75179Z" fill="#2D264B"/>
<path fill-rule="evenodd" clip-rule="evenodd" d="M11.7148 1.03051C11.9048 1.02108 12.0951 1.02108 12.285 1.03051C13.0184 1.06692 13.6936 1.28001 14.4462 1.62929C15.1789 1.96931 16.0304 2.46089 17.1075 3.0828L17.1685 3.11801C18.2457 3.73991 19.0972 4.2315 19.758 4.69604C20.4368 5.17323 20.9589 5.65139 21.3571 6.26829C21.4603 6.42809 21.5555 6.59292 21.6423 6.76215C21.9774 7.41546 22.1305 8.10672 22.2043 8.93318C22.2762 9.73774 22.2762 10.7209 22.2762 11.9647V12.0351C22.2762 13.2789 22.2762 14.2621 22.2043 15.0667C22.1305 15.8931 21.9774 16.5844 21.6423 17.2377C21.5555 17.407 21.4603 17.5718 21.3571 17.7316C20.9589 18.3485 20.4368 18.8266 19.758 19.3038C19.0972 19.7684 18.2457 20.2599 17.1686 20.8818L17.1076 20.9171C16.0304 21.539 15.179 22.0306 14.4462 22.3706C13.6936 22.7199 13.0184 22.9329 12.285 22.9694C12.0951 22.9788 11.9048 22.9788 11.7148 22.9694C10.9814 22.9329 10.3063 22.7199 9.5536 22.3706C8.82087 22.0306 7.96944 21.539 6.89226 20.9171L6.83121 20.8818C5.75413 20.26 4.90262 19.7683 4.24182 19.3038C3.56301 18.8266 3.04089 18.3485 2.64268 17.7316C2.53952 17.5718 2.44436 17.407 2.35755 17.2377C2.0224 16.5844 1.86936 15.8931 1.79551 15.0667C1.72362 14.2621 1.72363 13.279 1.72363 12.0352V11.9647C1.72363 10.7209 1.72362 9.73775 1.79551 8.93318C1.86936 8.10672 2.0224 7.41546 2.35755 6.76215C2.44437 6.59292 2.53952 6.4281 2.64268 6.26829C3.04089 5.65139 3.56301 5.17323 4.24182 4.69604C4.90266 4.2315 5.7541 3.73993 6.83127 3.11803L6.89228 3.0828C7.96945 2.46089 8.82088 1.96931 9.5536 1.62929C10.3063 1.28001 10.9814 1.06692 11.7148 1.03051ZM13.7807 8.61981C13.0837 8.19083 12.5145 7.84055 12.0453 7.60987C11.5737 7.37806 11.0827 7.20323 10.566 7.26112C9.81909 7.3448 9.15598 7.7607 8.73201 8.38272C8.44428 8.80487 8.34357 9.31725 8.29668 9.86212C8.24992 10.4054 8.24993 11.1016 8.24994 11.964V12.0359C8.24993 12.8983 8.24992 13.5945 8.29668 14.1378C8.34357 14.6826 8.44428 15.195 8.73201 15.6172C9.15598 16.2392 9.81908 16.6551 10.566 16.7388C11.0827 16.7967 11.5737 16.6218 12.0453 16.39C12.5145 16.1593 13.0837 15.8091 13.7807 15.3801L13.8467 15.3395C14.5444 14.9101 15.1133 14.5599 15.5348 14.2425C15.9627 13.9203 16.3336 13.5644 16.5327 13.0877C16.8223 12.3943 16.8223 11.6056 16.5327 10.9122C16.3336 10.4355 15.9627 10.0796 15.5348 9.75734C15.1134 9.43995 14.5444 9.08982 13.8467 8.66045L13.7807 8.61981Z" fill="#2D264B"/>
</svg>
