<svg xmlns="http://www.w3.org/2000/svg" width="24" height="24" viewBox="0 0 24 24">
  <defs/>
  <path fill="#2D264B" d="M15.108,5.227 Q20.605,8.361 21.297,9.895 Q22.246,12 21.297,14.105 Q20.605,15.639 15.108,18.773 Q9.614,21.906 7.929,21.731 Q5.618,21.491 4.25,19.633 Q3.25,18.273 3.25,12 Q3.25,5.727 4.25,4.367 Q5.618,2.509 7.929,2.269 Q9.614,2.094 15.108,5.227 Z M14.365,6.53 Q9.289,3.635 8.083,3.761 Q6.433,3.932 5.459,5.256 Q4.75,6.219 4.75,12 Q4.75,17.781 5.459,18.744 Q6.433,20.068 8.084,20.239 Q9.289,20.365 14.365,17.47 Q19.439,14.578 19.929,13.489 Q20.601,12 19.929,10.511 Q19.439,9.422 14.365,6.53 Z"/>
</svg>

