<svg xmlns="http://www.w3.org/2000/svg" width="24" height="24" viewBox="0 0 24 24">
  <defs/>
  <path fill="#2D264B" d="M10.733,8.752 C10.812,8.743 10.981,8.758 11.384,8.956 C11.781,9.151 12.289,9.463 13.028,9.918 C13.766,10.372 14.274,10.686 14.633,10.956 C14.991,11.226 15.104,11.384 15.149,11.49 C15.284,11.814 15.284,12.186 15.149,12.51 C15.104,12.616 14.991,12.774 14.633,13.044 C14.274,13.314 13.766,13.628 13.028,14.082 C12.289,14.537 11.781,14.848 11.384,15.044 C10.981,15.242 10.812,15.257 10.733,15.248 C10.441,15.216 10.161,15.051 9.972,14.772 C9.907,14.678 9.832,14.486 9.791,14.009 C9.751,13.538 9.75,12.907 9.75,12 C9.75,11.093 9.751,10.462 9.791,9.991 C9.832,9.514 9.907,9.322 9.972,9.228 C10.161,8.949 10.441,8.785 10.733,8.752 Z"/>
  <path fill="#2D264B" d="M1.25,12 C1.25,6.063 6.063,1.25 12,1.25 C17.937,1.25 22.75,6.063 22.75,12 C22.75,17.937 17.937,22.75 12,22.75 C6.063,22.75 1.25,17.937 1.25,12 Z M13.781,8.62 C13.084,8.191 12.515,7.841 12.045,7.61 C11.574,7.378 11.083,7.203 10.566,7.261 C9.819,7.345 9.156,7.761 8.732,8.383 C8.444,8.805 8.344,9.317 8.297,9.862 C8.25,10.405 8.25,11.102 8.25,11.964 L8.25,12.036 C8.25,12.898 8.25,13.595 8.297,14.138 C8.344,14.683 8.444,15.195 8.732,15.617 C9.156,16.239 9.819,16.655 10.566,16.739 C11.083,16.797 11.574,16.622 12.045,16.39 C12.515,16.159 13.084,15.809 13.781,15.38 L13.847,15.34 C14.545,14.91 15.113,14.56 15.535,14.243 C15.963,13.92 16.334,13.564 16.533,13.088 C16.822,12.394 16.822,11.606 16.533,10.912 C16.334,10.436 15.963,10.08 15.535,9.757 C15.113,9.44 14.545,9.09 13.847,8.66 Z"/>
</svg>

