<svg xmlns="http://www.w3.org/2000/svg" width="24" height="24" viewBox="0 0 24 24">
  <defs/>
  <path fill="#2D264B" d="M10.733,8.752 C10.812,8.743 10.981,8.758 11.383,8.956 C11.781,9.151 12.289,9.463 13.028,9.918 C13.766,10.372 14.274,10.686 14.632,10.956 C14.991,11.226 15.104,11.384 15.149,11.49 C15.284,11.814 15.284,12.186 15.149,12.509 C15.104,12.616 14.991,12.774 14.632,13.044 C14.274,13.314 13.766,13.628 13.028,14.082 C12.289,14.537 11.781,14.848 11.383,15.044 C10.981,15.242 10.812,15.257 10.733,15.248 C10.441,15.215 10.161,15.051 9.971,14.772 C9.907,14.678 9.832,14.486 9.791,14.009 C9.751,13.538 9.75,12.907 9.75,12 C9.75,11.093 9.751,10.462 9.791,9.991 C9.832,9.514 9.907,9.322 9.971,9.228 C10.161,8.949 10.441,8.784 10.733,8.752 Z"/>
  <path fill="#2D264B" d="M11.715,1.031 C11.905,1.021 12.095,1.021 12.285,1.031 C13.018,1.067 13.694,1.28 14.446,1.629 C15.179,1.969 16.03,2.461 17.108,3.083 L17.169,3.118 C18.246,3.74 19.097,4.232 19.758,4.696 C20.437,5.173 20.959,5.651 21.357,6.268 C21.46,6.428 21.556,6.593 21.642,6.762 C21.977,7.415 22.131,8.107 22.204,8.933 C22.276,9.738 22.276,10.721 22.276,11.965 L22.276,12.035 C22.276,13.279 22.276,14.262 22.204,15.067 C22.131,15.893 21.977,16.584 21.642,17.238 C21.556,17.407 21.46,17.572 21.357,17.732 C20.959,18.348 20.437,18.827 19.758,19.304 C19.097,19.768 18.246,20.26 17.169,20.882 L17.108,20.917 C16.03,21.539 15.179,22.031 14.446,22.371 C13.694,22.72 13.018,22.933 12.285,22.969 C12.095,22.979 11.905,22.979 11.715,22.969 C10.981,22.933 10.306,22.72 9.554,22.371 C8.821,22.031 7.969,21.539 6.892,20.917 L6.831,20.882 C5.754,20.26 4.903,19.768 4.242,19.304 C3.563,18.827 3.041,18.348 2.643,17.732 C2.54,17.572 2.444,17.407 2.358,17.238 C2.022,16.584 1.869,15.893 1.796,15.067 C1.724,14.262 1.724,13.279 1.724,12.036 L1.724,11.964 C1.724,10.721 1.724,9.738 1.796,8.933 C1.869,8.107 2.022,7.415 2.358,6.762 C2.444,6.593 2.54,6.428 2.643,6.268 C3.041,5.651 3.563,5.173 4.242,4.696 C4.903,4.232 5.754,3.74 6.831,3.118 L6.892,3.083 C7.969,2.461 8.821,1.969 9.554,1.629 C10.306,1.28 10.981,1.067 11.715,1.031 Z M13.781,8.62 C13.084,8.191 12.514,7.841 12.045,7.61 C11.574,7.378 11.083,7.203 10.566,7.261 C9.819,7.345 9.156,7.761 8.732,8.383 C8.444,8.805 8.344,9.317 8.297,9.862 C8.25,10.405 8.25,11.102 8.25,11.964 L8.25,12.036 C8.25,12.898 8.25,13.595 8.297,14.138 C8.344,14.683 8.444,15.195 8.732,15.617 C9.156,16.239 9.819,16.655 10.566,16.739 C11.083,16.797 11.574,16.622 12.045,16.39 C12.514,16.159 13.084,15.809 13.781,15.38 L13.847,15.34 C14.544,14.91 15.113,14.56 15.535,14.243 C15.963,13.92 16.334,13.564 16.533,13.088 C16.822,12.394 16.822,11.606 16.533,10.912 C16.334,10.436 15.963,10.08 15.535,9.757 C15.113,9.44 14.544,9.09 13.847,8.66 Z"/>
</svg>

