<svg xmlns="http://www.w3.org/2000/svg" width="24" height="24" viewBox="0 0 24 24">
  <defs/>
  <path fill="#2D264B" d="M10.733,8.752 C10.812,8.743 10.981,8.758 11.384,8.956 C11.781,9.151 12.289,9.463 13.028,9.918 C13.766,10.372 14.274,10.686 14.633,10.956 C14.991,11.226 15.104,11.384 15.149,11.49 C15.284,11.814 15.284,12.186 15.149,12.51 C15.104,12.616 14.991,12.774 14.633,13.044 C14.274,13.314 13.766,13.628 13.028,14.082 C12.289,14.537 11.781,14.848 11.384,15.044 C10.981,15.242 10.812,15.257 10.733,15.248 C10.441,15.216 10.161,15.051 9.972,14.772 C9.907,14.678 9.832,14.486 9.791,14.009 C9.751,13.538 9.75,12.907 9.75,12 C9.75,11.093 9.751,10.462 9.791,9.991 C9.832,9.514 9.907,9.322 9.972,9.228 C10.161,8.949 10.441,8.785 10.733,8.752 Z"/>
  <path fill="#2D264B" d="M11.955,2.25 L12.045,2.25 C13.882,2.25 15.321,2.25 16.463,2.374 C17.629,2.5 18.573,2.762 19.38,3.348 C19.868,3.703 20.297,4.132 20.652,4.62 C21.238,5.427 21.5,6.371 21.626,7.536 C21.75,8.679 21.75,10.118 21.75,11.955 L21.75,12.045 C21.75,13.882 21.75,15.321 21.626,16.463 C21.5,17.629 21.238,18.573 20.652,19.38 C20.297,19.868 19.868,20.297 19.38,20.652 C18.573,21.238 17.629,21.5 16.463,21.626 C15.321,21.75 13.882,21.75 12.045,21.75 L11.955,21.75 C10.118,21.75 8.679,21.75 7.536,21.626 C6.371,21.5 5.427,21.238 4.62,20.652 C4.132,20.297 3.703,19.868 3.348,19.38 C2.762,18.573 2.5,17.629 2.374,16.463 C2.25,15.321 2.25,13.882 2.25,12.045 L2.25,11.955 C2.25,10.118 2.25,8.679 2.374,7.536 C2.5,6.371 2.762,5.427 3.348,4.62 C3.703,4.132 4.132,3.703 4.62,3.348 C5.427,2.762 6.371,2.5 7.536,2.374 C8.679,2.25 10.118,2.25 11.955,2.25 Z M13.781,8.62 C13.084,8.191 12.515,7.841 12.045,7.61 C11.574,7.378 11.083,7.203 10.566,7.261 C9.819,7.345 9.156,7.761 8.732,8.383 C8.444,8.805 8.344,9.317 8.297,9.862 C8.25,10.405 8.25,11.102 8.25,11.964 L8.25,12.036 C8.25,12.898 8.25,13.595 8.297,14.138 C8.344,14.683 8.444,15.195 8.732,15.617 C9.156,16.239 9.819,16.655 10.566,16.739 C11.083,16.797 11.574,16.622 12.045,16.39 C12.515,16.159 13.084,15.809 13.781,15.38 L13.847,15.34 C14.545,14.91 15.113,14.56 15.535,14.243 C15.963,13.92 16.334,13.564 16.533,13.088 C16.822,12.394 16.822,11.606 16.533,10.912 C16.334,10.436 15.963,10.08 15.535,9.757 C15.113,9.44 14.545,9.09 13.847,8.66 Z"/>
</svg>

