<svg xmlns="http://www.w3.org/2000/svg" width="24" height="24" viewBox="0 0 24 24">
  <defs/>
  <path fill="#2D264B" d="M21.25,12 C21.25,17.109 17.109,21.25 12,21.25 L12,22.75 C17.937,22.75 22.75,17.937 22.75,12 L21.25,12 Z M12,21.25 C6.891,21.25 2.75,17.109 2.75,12 L1.25,12 C1.25,17.937 6.063,22.75 12,22.75 L12,21.25 Z M2.75,12 C2.75,6.891 6.891,2.75 12,2.75 L12,1.25 C6.063,1.25 1.25,6.063 1.25,12 L2.75,12 Z M12,2.75 C17.109,2.75 21.25,6.891 21.25,12 L22.75,12 C22.75,6.063 17.937,1.25 12,1.25 L12,2.75 Z M9.75,12 C9.75,11.093 9.751,10.462 9.791,9.991 C9.832,9.514 9.907,9.322 9.972,9.228 L8.732,8.383 C8.444,8.805 8.344,9.317 8.297,9.862 C8.249,10.413 8.25,11.121 8.25,12 L9.75,12 Z M13.814,8.64 C13.102,8.202 12.522,7.844 12.045,7.61 C11.574,7.378 11.083,7.203 10.566,7.261 L10.733,8.752 C10.812,8.743 10.981,8.758 11.384,8.956 C11.781,9.151 12.289,9.463 13.028,9.918 L13.814,8.64 Z M9.972,9.228 C10.161,8.949 10.441,8.785 10.733,8.752 L10.566,7.261 C9.819,7.345 9.156,7.761 8.732,8.383 L9.972,9.228 Z M13.028,14.082 C12.289,14.537 11.781,14.848 11.384,15.044 C10.981,15.242 10.812,15.257 10.733,15.248 L10.566,16.739 C11.083,16.797 11.574,16.622 12.045,16.39 C12.522,16.156 13.102,15.798 13.814,15.36 L13.028,14.082 Z M8.25,12 C8.25,12.879 8.249,13.587 8.297,14.138 C8.344,14.683 8.444,15.195 8.732,15.617 L9.972,14.772 C9.907,14.678 9.832,14.486 9.791,14.009 C9.751,13.538 9.75,12.907 9.75,12 L8.25,12 Z M10.733,15.248 C10.441,15.216 10.161,15.051 9.972,14.772 L8.732,15.617 C9.156,16.239 9.819,16.655 10.566,16.739 L10.733,15.248 Z M13.814,15.36 C14.527,14.921 15.107,14.565 15.535,14.243 C15.963,13.92 16.334,13.565 16.533,13.088 L15.149,12.51 C15.104,12.616 14.991,12.774 14.633,13.044 C14.274,13.314 13.766,13.628 13.028,14.082 L13.814,15.36 Z M13.028,9.918 C13.766,10.372 14.274,10.686 14.633,10.956 C14.991,11.226 15.104,11.384 15.149,11.49 L16.533,10.912 C16.334,10.435 15.963,10.08 15.535,9.757 C15.107,9.435 14.527,9.079 13.814,8.64 L13.028,9.918 Z M16.533,13.088 C16.822,12.394 16.822,11.606 16.533,10.912 L15.149,11.49 C15.284,11.814 15.284,12.186 15.149,12.51 L16.533,13.088 Z"/>
</svg>

