<svg xmlns="http://www.w3.org/2000/svg" width="24" height="24" viewBox="0 0 24 24">
  <defs/>
  <path fill="#2D264B" d="M22,12 C22,17.523 17.523,22 12,22 C6.477,22 2,17.523 2,12 C2,6.477 6.477,2 12,2 C17.523,2 22,6.477 22,12 Z M7.25,16 C7.25,16.414 7.586,16.75 8,16.75 L16,16.75 C16.414,16.75 16.75,16.414 16.75,16 C16.75,15.586 16.414,15.25 16,15.25 L8,15.25 C7.586,15.25 7.25,15.586 7.25,16 Z M15,10 C15.552,10 16,9.552 16,9 C16,8.448 15.552,8 15,8 C14.448,8 14,8.448 14,9 C14,9.552 14.448,10 15,10 Z M9,10 C9.552,10 10,9.552 10,9 C10,8.448 9.552,8 9,8 C8.448,8 8,8.448 8,9 C8,9.552 8.448,10 9,10 Z"/>
</svg>

