<svg xmlns="http://www.w3.org/2000/svg" width="24" height="24" viewBox="0 0 24 24">
  <defs/>
  <path fill="#2D264B" d="M5.75,6 C5.75,5.586 5.414,5.25 5,5.25 C4.586,5.25 4.25,5.586 4.25,6 L5.75,6 Z M4.25,18 C4.25,18.414 4.586,18.75 5,18.75 C5.414,18.75 5.75,18.414 5.75,18 L4.25,18 Z M17.25,12 C17.25,13.354 17.249,14.318 17.184,15.043 C17.118,15.772 16.994,16.136 16.837,16.356 L18.058,17.228 C18.453,16.674 18.605,15.981 18.678,15.178 C18.751,14.37 18.75,13.325 18.75,12 L17.25,12 Z M10.673,16.728 C11.8,17.39 12.69,17.914 13.416,18.255 C14.138,18.593 14.811,18.808 15.488,18.736 L15.328,17.244 C15.069,17.272 14.705,17.203 14.053,16.896 C13.405,16.593 12.585,16.112 11.432,15.435 L10.673,16.728 Z M16.837,16.356 C16.477,16.86 15.928,17.18 15.328,17.244 L15.488,18.736 C16.519,18.626 17.452,18.076 18.058,17.228 L16.837,16.356 Z M11.432,8.565 C12.585,7.888 13.405,7.408 14.053,7.103 C14.705,6.798 15.069,6.728 15.328,6.756 L15.488,5.264 C14.811,5.192 14.138,5.407 13.416,5.746 C12.69,6.086 11.8,6.61 10.673,7.272 L11.432,8.565 Z M18.75,12 C18.75,10.675 18.751,9.631 18.678,8.822 C18.605,8.019 18.453,7.325 18.058,6.772 L16.837,7.644 C16.994,7.864 17.118,8.228 17.184,8.957 C17.249,9.682 17.25,10.646 17.25,12 L18.75,12 Z M15.328,6.756 C15.928,6.82 16.477,7.14 16.837,7.644 L18.058,6.772 C17.452,5.925 16.519,5.374 15.488,5.264 L15.328,6.756 Z M10.673,7.272 C9.546,7.934 8.655,8.457 8.002,8.926 C7.352,9.393 6.837,9.876 6.563,10.501 L7.937,11.103 C8.046,10.853 8.292,10.565 8.878,10.144 C9.461,9.725 10.28,9.243 11.432,8.565 L10.673,7.272 Z M11.432,15.435 C10.28,14.757 9.461,14.275 8.878,13.856 C8.292,13.435 8.046,13.147 7.937,12.897 L6.563,13.499 C6.837,14.124 7.352,14.607 8.002,15.074 C8.655,15.543 9.546,16.066 10.673,16.728 L11.432,15.435 Z M6.563,10.501 C6.146,11.456 6.146,12.544 6.563,13.499 L7.937,12.897 C7.688,12.326 7.688,11.674 7.937,11.103 L6.563,10.501 Z M4.25,6 L4.25,18 L5.75,18 L5.75,6 L4.25,6 Z"/>
</svg>

