<svg xmlns="http://www.w3.org/2000/svg" width="24" height="24" viewBox="0 0 24 24">
  <defs/>
  <path fill="#2D264B" d="M5.75,6 C5.75,5.586 5.414,5.25 5,5.25 C4.586,5.25 4.25,5.586 4.25,6 L4.25,18 C4.25,18.414 4.586,18.75 5,18.75 C5.414,18.75 5.75,18.414 5.75,18 L5.75,6 Z"/>
  <path fill="#2D264B" d="M15.488,5.264 C14.811,5.192 14.138,5.407 13.416,5.746 C12.697,6.083 11.818,6.599 10.707,7.252 L10.639,7.292 C9.528,7.945 8.648,8.461 8.002,8.926 C7.352,9.393 6.837,9.876 6.563,10.501 C6.146,11.456 6.146,12.544 6.563,13.499 C6.837,14.124 7.352,14.607 8.002,15.074 C8.648,15.539 9.528,16.055 10.639,16.708 L10.707,16.748 C11.818,17.401 12.697,17.917 13.416,18.255 C14.138,18.593 14.811,18.808 15.488,18.736 C16.519,18.626 17.452,18.076 18.058,17.228 C18.453,16.674 18.605,15.981 18.678,15.178 C18.75,14.377 18.75,13.345 18.75,12.039 L18.75,11.961 C18.75,10.655 18.75,9.623 18.678,8.822 C18.605,8.019 18.453,7.325 18.058,6.772 C17.452,5.925 16.519,5.374 15.488,5.264 Z"/>
</svg>

