<svg width="24" height="24" viewBox="0 0 24 24" fill="none" xmlns="http://www.w3.org/2000/svg">
<path d="M5.25 5.75C5.25 3.12665 7.37665 1 10 1C12.6234 1 14.75 3.12665 14.75 5.75C14.75 8.37335 12.6234 10.5 10 10.5C7.37665 10.5 5.25 8.37335 5.25 5.75Z" fill="#2D264B"/>
<path d="M2.25 16.75C2.25 14.1266 4.37665 12 7 12H13C15.0372 12 16.7748 13.2825 17.4497 15.0841L17.1408 15.4291C16.4463 16.2048 16.0563 16.6335 15.75 16.8947C15.4437 16.6335 15.0537 16.2048 14.3592 15.4291L13.4901 14.4583C12.7533 13.6354 11.4889 13.5655 10.6659 14.3023C9.843 15.0391 9.77316 16.3035 10.5099 17.1264L11.4567 18.1839C12.0565 18.8542 12.6398 19.506 13.1941 19.9718C13.7137 20.4085 14.3721 20.8267 15.2059 20.9578C14.5467 21.3041 13.7963 21.5 13 21.5H7C4.37665 21.5 2.25 19.3734 2.25 16.75Z" fill="#2D264B"/>
<path d="M22.5588 13.5003C22.8351 13.1917 22.8089 12.7175 22.5003 12.4412C22.1917 12.1649 21.7175 12.1911 21.4412 12.4997L18.0721 16.2629C17.3894 17.0254 16.9296 17.5363 16.5365 17.8667C16.1621 18.1814 15.9421 18.25 15.75 18.25C15.5579 18.25 15.3379 18.1814 14.9635 17.8667C14.5704 17.5363 14.1106 17.0254 13.4279 16.2629L12.5588 15.2921C12.2825 14.9835 11.8083 14.9573 11.4997 15.2336C11.1911 15.5099 11.1649 15.984 11.4412 16.2926L12.3475 17.3049C12.9834 18.0152 13.5137 18.6076 13.9984 19.0149C14.511 19.4458 15.0639 19.75 15.75 19.75C16.4361 19.75 16.989 19.4458 17.5016 19.0149C17.9863 18.6076 18.5166 18.0152 19.1525 17.3049L22.5588 13.5003Z" fill="#2D264B"/>
</svg>
