<svg xmlns="http://www.w3.org/2000/svg" width="24" height="24" viewBox="0 0 24 24">
  <defs/>
  <path fill="#2D264B" d="M13,13.75 C13.414,13.75 13.75,13.414 13.75,13 C13.75,12.586 13.414,12.25 13,12.25 L13,13.75 Z M13,21.75 C13.414,21.75 13.75,21.414 13.75,21 C13.75,20.586 13.414,20.25 13,20.25 L13,21.75 Z M22.559,13.5 C22.835,13.192 22.809,12.717 22.5,12.441 C22.192,12.165 21.718,12.191 21.441,12.5 L22.559,13.5 Z M12.559,15.292 C12.283,14.983 11.808,14.957 11.5,15.234 C11.191,15.51 11.165,15.984 11.441,16.293 L12.559,15.292 Z M13.25,6 C13.25,7.795 11.795,9.25 10,9.25 L10,10.75 C12.623,10.75 14.75,8.623 14.75,6 L13.25,6 Z M10,9.25 C8.205,9.25 6.75,7.795 6.75,6 L5.25,6 C5.25,8.623 7.377,10.75 10,10.75 L10,9.25 Z M6.75,6 C6.75,4.205 8.205,2.75 10,2.75 L10,1.25 C7.377,1.25 5.25,3.377 5.25,6 L6.75,6 Z M10,2.75 C11.795,2.75 13.25,4.205 13.25,6 L14.75,6 C14.75,3.377 12.623,1.25 10,1.25 L10,2.75 Z M7,13.75 L13,13.75 L13,12.25 L7,12.25 L7,13.75 Z M13,20.25 L7,20.25 L7,21.75 L13,21.75 L13,20.25 Z M7,20.25 C5.205,20.25 3.75,18.795 3.75,17 L2.25,17 C2.25,19.623 4.377,21.75 7,21.75 L7,20.25 Z M7,12.25 C4.377,12.25 2.25,14.377 2.25,17 L3.75,17 C3.75,15.205 5.205,13.75 7,13.75 L7,12.25 Z M21.441,12.5 L18.072,16.263 L19.19,17.264 L22.559,13.5 L21.441,12.5 Z M13.428,16.263 L12.559,15.292 L11.441,16.293 L12.31,17.263 L13.428,16.263 Z M18.072,16.263 C17.389,17.025 16.93,17.536 16.537,17.867 C16.162,18.181 15.942,18.25 15.75,18.25 L15.75,19.75 C16.436,19.75 16.989,19.446 17.502,19.015 C17.996,18.6 18.537,17.992 19.19,17.264 L18.072,16.263 Z M12.31,17.263 C12.963,17.992 13.504,18.6 13.998,19.015 C14.511,19.446 15.064,19.75 15.75,19.75 L15.75,18.25 C15.558,18.25 15.338,18.181 14.963,17.867 C14.57,17.536 14.111,17.025 13.428,16.263 L12.31,17.263 Z"/>
</svg>

