<svg xmlns="http://www.w3.org/2000/svg" width="24" height="24" viewBox="0 0 24 24">
  <defs/>
  <path fill="#2D264B" d="M16,10.25 C15.586,10.25 15.25,10.586 15.25,11 C15.25,11.414 15.586,11.75 16,11.75 L16,10.25 Z M22,11.75 C22.414,11.75 22.75,11.414 22.75,11 C22.75,10.586 22.414,10.25 22,10.25 L22,11.75 Z M18.25,14 C18.25,14.414 18.586,14.75 19,14.75 C19.414,14.75 19.75,14.414 19.75,14 L18.25,14 Z M19.75,8 C19.75,7.586 19.414,7.25 19,7.25 C18.586,7.25 18.25,7.586 18.25,8 L19.75,8 Z M12.25,6 C12.25,7.795 10.795,9.25 9,9.25 L9,10.75 C11.623,10.75 13.75,8.623 13.75,6 L12.25,6 Z M9,9.25 C7.205,9.25 5.75,7.795 5.75,6 L4.25,6 C4.25,8.623 6.377,10.75 9,10.75 L9,9.25 Z M5.75,6 C5.75,4.205 7.205,2.75 9,2.75 L9,1.25 C6.377,1.25 4.25,3.377 4.25,6 L5.75,6 Z M9,2.75 C10.795,2.75 12.25,4.205 12.25,6 L13.75,6 C13.75,3.377 11.623,1.25 9,1.25 L9,2.75 Z M6,13.75 L12,13.75 L12,12.25 L6,12.25 L6,13.75 Z M12,20.25 L6,20.25 L6,21.75 L12,21.75 L12,20.25 Z M6,20.25 C4.205,20.25 2.75,18.795 2.75,17 L1.25,17 C1.25,19.623 3.377,21.75 6,21.75 L6,20.25 Z M15.25,17 C15.25,18.795 13.795,20.25 12,20.25 L12,21.75 C14.623,21.75 16.75,19.623 16.75,17 L15.25,17 Z M12,13.75 C13.795,13.75 15.25,15.205 15.25,17 L16.75,17 C16.75,14.377 14.623,12.25 12,12.25 L12,13.75 Z M6,12.25 C3.377,12.25 1.25,14.377 1.25,17 L2.75,17 C2.75,15.205 4.205,13.75 6,13.75 L6,12.25 Z M16,11.75 L22,11.75 L22,10.25 L16,10.25 L16,11.75 Z M19.75,14 L19.75,11 L18.25,11 L18.25,14 L19.75,14 Z M19.75,11 L19.75,8 L18.25,8 L18.25,11 L19.75,11 Z"/>
</svg>

