<svg xmlns="http://www.w3.org/2000/svg" width="24" height="24" viewBox="0 0 24 24">
  <defs/>
  <path fill="#2D264B" d="M5.003,19.832 L4.254,19.802 L4.253,19.817 L4.253,19.832 L5.003,19.832 Z M18.991,19.723 L19.74,19.697 L19.74,19.684 L19.739,19.671 L18.991,19.723 Z M15.25,9 C15.25,10.795 13.795,12.25 12,12.25 L12,13.75 C14.623,13.75 16.75,11.623 16.75,9 L15.25,9 Z M12,12.25 C10.205,12.25 8.75,10.795 8.75,9 L7.25,9 C7.25,11.623 9.377,13.75 12,13.75 L12,12.25 Z M8.75,9 C8.75,7.205 10.205,5.75 12,5.75 L12,4.25 C9.377,4.25 7.25,6.377 7.25,9 L8.75,9 Z M12,5.75 C13.795,5.75 15.25,7.205 15.25,9 L16.75,9 C16.75,6.377 14.623,4.25 12,4.25 L12,5.75 Z M12,20.25 C10.108,20.25 8.75,20.249 7.698,20.135 C6.66,20.023 6.01,19.807 5.502,19.438 L4.62,20.652 C5.427,21.238 6.371,21.5 7.536,21.626 C8.688,21.751 10.142,21.75 12,21.75 L12,20.25 Z M2.25,12 C2.25,13.858 2.249,15.312 2.374,16.463 C2.5,17.629 2.762,18.573 3.348,19.38 L4.562,18.498 C4.193,17.99 3.977,17.34 3.865,16.302 C3.751,15.25 3.75,13.892 3.75,12 L2.25,12 Z M20.25,12 C20.25,13.892 20.249,15.25 20.135,16.302 C20.023,17.34 19.807,17.99 19.438,18.498 L20.652,19.38 C21.238,18.573 21.5,17.629 21.626,16.463 C21.751,15.312 21.75,13.858 21.75,12 L20.25,12 Z M12,21.75 C13.858,21.75 15.312,21.751 16.463,21.626 C17.629,21.5 18.573,21.238 19.38,20.652 L18.498,19.438 C17.99,19.807 17.34,20.023 16.302,20.135 C15.25,20.249 13.892,20.25 12,20.25 L12,21.75 Z M12,3.75 C13.892,3.75 15.25,3.751 16.302,3.865 C17.34,3.977 17.99,4.193 18.498,4.562 L19.38,3.348 C18.573,2.762 17.629,2.5 16.463,2.374 C15.312,2.249 13.858,2.25 12,2.25 L12,3.75 Z M21.75,12 C21.75,10.142 21.751,8.688 21.626,7.536 C21.5,6.371 21.238,5.427 20.652,4.62 L19.438,5.502 C19.807,6.01 20.023,6.66 20.135,7.698 C20.249,8.75 20.25,10.108 20.25,12 L21.75,12 Z M18.498,4.562 C18.859,4.824 19.176,5.141 19.438,5.502 L20.652,4.62 C20.297,4.132 19.868,3.703 19.38,3.348 L18.498,4.562 Z M12,2.25 C10.142,2.25 8.688,2.249 7.536,2.374 C6.371,2.5 5.427,2.762 4.62,3.348 L5.502,4.562 C6.01,4.193 6.66,3.977 7.698,3.865 C8.75,3.751 10.108,3.75 12,3.75 L12,2.25 Z M3.75,12 C3.75,10.108 3.751,8.75 3.865,7.698 C3.977,6.66 4.193,6.01 4.562,5.502 L3.348,4.62 C2.762,5.427 2.5,6.371 2.374,7.536 C2.249,8.688 2.25,10.142 2.25,12 L3.75,12 Z M4.62,3.348 C4.132,3.703 3.703,4.132 3.348,4.62 L4.562,5.502 C4.824,5.141 5.141,4.824 5.502,4.562 L4.62,3.348 Z M9,16.75 L15,16.75 L15,15.25 L9,15.25 L9,16.75 Z M9,15.25 C6.443,15.25 4.358,17.27 4.254,19.802 L5.753,19.863 C5.824,18.132 7.251,16.75 9,16.75 L9,15.25 Z M5.502,19.438 C5.486,19.426 5.469,19.414 5.453,19.402 L4.554,20.603 C4.576,20.619 4.598,20.636 4.62,20.652 L5.502,19.438 Z M5.453,19.402 C5.112,19.147 4.812,18.843 4.562,18.498 L3.348,19.38 C3.687,19.846 4.093,20.258 4.554,20.603 L5.453,19.402 Z M4.253,19.832 L4.253,20.003 L5.753,20.003 L5.753,19.832 L4.253,19.832 Z M15,16.75 C16.719,16.75 18.127,18.085 18.242,19.774 L19.739,19.671 C19.57,17.201 17.513,15.25 15,15.25 L15,16.75 Z M19.438,18.498 C19.189,18.841 18.889,19.145 18.55,19.4 L19.45,20.6 C19.909,20.256 20.314,19.844 20.652,19.38 L19.438,18.498 Z M18.55,19.4 C18.533,19.413 18.515,19.426 18.498,19.438 L19.38,20.652 C19.403,20.635 19.427,20.617 19.45,20.6 L18.55,19.4 Z M18.241,19.748 L18.25,20.026 L19.75,19.974 L19.74,19.697 L18.241,19.748 Z"/>
</svg>

