<svg xmlns="http://www.w3.org/2000/svg" width="24" height="24" viewBox="0 0 24 24">
  <defs/>
  <path fill="#2D264B" d="M16,11.25 C15.586,11.25 15.25,11.586 15.25,12 C15.25,12.414 15.586,12.75 16,12.75 L16,11.25 Z M22,12.75 C22.414,12.75 22.75,12.414 22.75,12 C22.75,11.586 22.414,11.25 22,11.25 L22,12.75 Z M12.25,7 C12.25,8.795 10.795,10.25 9,10.25 L9,11.75 C11.623,11.75 13.75,9.623 13.75,7 L12.25,7 Z M9,10.25 C7.205,10.25 5.75,8.795 5.75,7 L4.25,7 C4.25,9.623 6.377,11.75 9,11.75 L9,10.25 Z M5.75,7 C5.75,5.205 7.205,3.75 9,3.75 L9,2.25 C6.377,2.25 4.25,4.377 4.25,7 L5.75,7 Z M9,3.75 C10.795,3.75 12.25,5.205 12.25,7 L13.75,7 C13.75,4.377 11.623,2.25 9,2.25 L9,3.75 Z M6,14.75 L12,14.75 L12,13.25 L6,13.25 L6,14.75 Z M12,21.25 L6,21.25 L6,22.75 L12,22.75 L12,21.25 Z M6,21.25 C4.205,21.25 2.75,19.795 2.75,18 L1.25,18 C1.25,20.623 3.377,22.75 6,22.75 L6,21.25 Z M15.25,18 C15.25,19.795 13.795,21.25 12,21.25 L12,22.75 C14.623,22.75 16.75,20.623 16.75,18 L15.25,18 Z M12,14.75 C13.795,14.75 15.25,16.205 15.25,18 L16.75,18 C16.75,15.377 14.623,13.25 12,13.25 L12,14.75 Z M6,13.25 C3.377,13.25 1.25,15.377 1.25,18 L2.75,18 C2.75,16.205 4.205,14.75 6,14.75 L6,13.25 Z M16,12.75 L22,12.75 L22,11.25 L16,11.25 L16,12.75 Z"/>
</svg>

