<svg width="24" height="24" viewBox="0 0 24 24" fill="none" xmlns="http://www.w3.org/2000/svg">
<path d="M9.75 2C7.12665 2 5 4.12665 5 6.75C5 9.37335 7.12665 11.5 9.75 11.5C12.3734 11.5 14.5 9.37335 14.5 6.75C14.5 4.12665 12.3734 2 9.75 2Z" fill="#2D264B"/>
<path d="M18.4017 9.34099C18.1088 9.0481 17.6339 9.0481 17.341 9.34099C17.0481 9.63388 17.0481 10.1088 17.341 10.4017L18.932 11.9926L17.341 13.5836C17.0481 13.8765 17.0481 14.3514 17.341 14.6443C17.6339 14.9372 18.1088 14.9372 18.4017 14.6443L19.9927 13.0533L21.5837 14.6443C21.8766 14.9372 22.3514 14.9372 22.6443 14.6443C22.9372 14.3514 22.9372 13.8765 22.6443 13.5836L21.0533 11.9926L22.6443 10.4017C22.9372 10.1088 22.9372 9.63388 22.6443 9.34099C22.3514 9.0481 21.8766 9.0481 21.5837 9.34099L19.9927 10.932L18.4017 9.34099Z" fill="#2D264B"/>
<path d="M6.75 13C4.12665 13 2 15.1266 2 17.75C2 20.3734 4.12665 22.5 6.75 22.5H12.75C15.3734 22.5 17.5 20.3734 17.5 17.75C17.5 15.1266 15.3734 13 12.75 13H6.75Z" fill="#2D264B"/>
</svg>
