<svg width="24" height="24" viewBox="0 0 24 24" fill="none" xmlns="http://www.w3.org/2000/svg">
<path d="M11.9999 13.7499C12.5259 13.7499 13.032 13.6644 13.5049 13.5066C15.3906 12.8771 16.7499 11.0973 16.7499 8.99993C16.7499 6.37658 14.6233 4.24993 11.9999 4.24993C11.9794 4.24993 11.959 4.25006 11.9385 4.25032C11.632 4.25421 11.3325 4.28712 11.0426 4.34644C8.87811 4.78934 7.24988 6.70449 7.24988 8.99994C7.24988 11.6233 9.37656 13.7499 11.9999 13.7499Z" fill="#2D264B"/>
<path fill-rule="evenodd" clip-rule="evenodd" d="M11.7148 1.03051C11.9048 1.02108 12.0951 1.02108 12.285 1.03051C13.0184 1.06692 13.6936 1.28001 14.4462 1.62929C15.1789 1.96931 16.0304 2.46089 17.1075 3.0828L17.1685 3.11801C18.2457 3.73991 19.0972 4.2315 19.758 4.69604C20.4368 5.17323 20.9589 5.65139 21.3571 6.26829C21.4603 6.42809 21.5555 6.59292 21.6423 6.76215C21.9774 7.41546 22.1305 8.10672 22.2043 8.93318C22.2762 9.73774 22.2762 10.7209 22.2762 11.9647V12.0351C22.2762 13.2789 22.2762 14.2621 22.2043 15.0667C22.1305 15.8931 21.9774 16.5844 21.6423 17.2377C21.5555 17.407 21.4603 17.5718 21.3571 17.7316C20.8719 18.4834 20.2005 19.0312 19.2873 19.6197C18.708 19.9931 18.0018 20.4008 17.153 20.8908L17.1076 20.9171C16.0304 21.539 15.179 22.0306 14.4462 22.3706C13.6936 22.7199 13.0184 22.9329 12.285 22.9694C12.0951 22.9788 11.9048 22.9788 11.7148 22.9694C10.9814 22.9329 10.3063 22.7199 9.5536 22.3706C8.82087 22.0306 7.96944 21.539 6.89226 20.9171L6.84745 20.8912C6.00655 20.4057 5.30574 20.0011 4.7297 19.6308C3.80768 19.038 3.13094 18.488 2.64268 17.7316C2.53952 17.5718 2.44436 17.407 2.35755 17.2377C2.0224 16.5844 1.86936 15.8931 1.79551 15.0667C1.72362 14.2621 1.72363 13.279 1.72363 12.0352V11.9647C1.72363 10.7209 1.72362 9.73775 1.79551 8.93318C1.86936 8.10672 2.0224 7.41546 2.35755 6.76215C2.44437 6.59292 2.53952 6.4281 2.64268 6.26829C3.04089 5.65139 3.56301 5.17323 4.24182 4.69604C4.90266 4.2315 5.7541 3.73993 6.83127 3.11803L6.89228 3.0828C7.96945 2.46089 8.82088 1.96931 9.5536 1.62929C10.3063 1.28001 10.9814 1.06692 11.7148 1.03051ZM12.2107 2.52867C12.0702 2.52169 11.9296 2.52169 11.7892 2.52867C11.3163 2.55214 10.8369 2.6874 10.185 2.98992C9.52009 3.29848 8.72616 3.75606 7.61177 4.39945C6.49738 5.04285 5.70414 5.50162 5.10446 5.92318C4.51653 6.33648 4.15967 6.68405 3.90293 7.08179C3.82668 7.1999 3.75635 7.32173 3.69218 7.44681C3.4761 7.86803 3.35352 8.35086 3.28956 9.06668C3.22432 9.7968 3.22363 10.7131 3.22363 11.9999C3.22363 13.2867 3.22432 14.2031 3.28956 14.9332C3.35352 15.649 3.4761 16.1318 3.69218 16.5531C3.75635 16.6781 3.82668 16.8 3.90293 16.9181C4.10774 17.2354 4.37531 17.5198 4.77295 17.8314C5.5607 16.2989 7.1571 15.2499 8.99991 15.2499H14.9999C16.8427 15.2499 18.4391 16.2989 19.2269 17.8314C19.6245 17.5197 19.8921 17.2353 20.0969 16.9181C20.1731 16.8 20.2435 16.6781 20.3076 16.5531C20.5237 16.1318 20.6463 15.649 20.7103 14.9332C20.7755 14.2031 20.7762 13.2867 20.7762 11.9999C20.7762 10.7131 20.7755 9.7968 20.7103 9.06668C20.6463 8.35086 20.5237 7.86803 20.3076 7.44681C20.2435 7.32173 20.1731 7.1999 20.0969 7.08179C19.8402 6.68405 19.4833 6.33648 18.8954 5.92318C18.2957 5.50162 17.5024 5.04285 16.3881 4.39945C15.2737 3.75606 14.4797 3.29848 13.8148 2.98992C13.1629 2.6874 12.6835 2.55214 12.2107 2.52867Z" fill="#2D264B"/>
</svg>
