<svg width="24" height="24" viewBox="0 0 24 24" fill="none" xmlns="http://www.w3.org/2000/svg">
<path d="M15 17.25C14.5858 17.25 14.25 17.5858 14.25 18C14.25 18.4142 14.5858 18.75 15 18.75H21C21.4142 18.75 21.75 18.4142 21.75 18C21.75 17.5858 21.4142 17.25 21 17.25H15Z" fill="#2D264B"/>
<path d="M6 6.75C6 4.12665 8.12665 2 10.75 2C13.3734 2 15.5 4.12665 15.5 6.75C15.5 9.37335 13.3734 11.5 10.75 11.5C8.12665 11.5 6 9.37335 6 6.75Z" fill="#2D264B"/>
<path d="M3 17.75C3 15.1266 5.12665 13 7.75 13H13.75C15.7554 13 17.4705 14.2427 18.1672 16H15C13.8954 16 13 16.8954 13 18C13 19.1046 13.8954 20 15 20H17.9343C17.1323 21.4884 15.5593 22.5 13.75 22.5H7.75C5.12665 22.5 3 20.3734 3 17.75Z" fill="#2D264B"/>
</svg>
