<svg xmlns="http://www.w3.org/2000/svg" width="24" height="24" viewBox="0 0 24 24">
  <defs/>
  <path fill="#2D264B" d="M15.25,6 C15.25,7.795 13.795,9.25 12,9.25 L12,10.75 C14.623,10.75 16.75,8.623 16.75,6 L15.25,6 Z M12,9.25 C10.205,9.25 8.75,7.795 8.75,6 L7.25,6 C7.25,8.623 9.377,10.75 12,10.75 L12,9.25 Z M8.75,6 C8.75,4.205 10.205,2.75 12,2.75 L12,1.25 C9.377,1.25 7.25,3.377 7.25,6 L8.75,6 Z M12,2.75 C13.795,2.75 15.25,4.205 15.25,6 L16.75,6 C16.75,3.377 14.623,1.25 12,1.25 L12,2.75 Z M9,13.75 L15,13.75 L15,12.25 L9,12.25 L9,13.75 Z M15,20.25 L9,20.25 L9,21.75 L15,21.75 L15,20.25 Z M9,20.25 C7.205,20.25 5.75,18.795 5.75,17 L4.25,17 C4.25,19.623 6.377,21.75 9,21.75 L9,20.25 Z M18.25,17 C18.25,18.795 16.795,20.25 15,20.25 L15,21.75 C17.623,21.75 19.75,19.623 19.75,17 L18.25,17 Z M15,13.75 C16.795,13.75 18.25,15.205 18.25,17 L19.75,17 C19.75,14.377 17.623,12.25 15,12.25 L15,13.75 Z M9,12.25 C6.377,12.25 4.25,14.377 4.25,17 L5.75,17 C5.75,15.205 7.205,13.75 9,13.75 L9,12.25 Z"/>
</svg>

