<svg xmlns="http://www.w3.org/2000/svg" width="24" height="24" viewBox="0 0 24 24">
  <defs/>
  <path fill="#2D264B" d="M11.715,1.031 C11.905,1.021 12.095,1.021 12.285,1.031 C13.018,1.067 13.694,1.28 14.446,1.629 C15.179,1.969 16.03,2.461 17.108,3.083 L17.169,3.118 C18.246,3.74 19.097,4.232 19.758,4.696 C20.437,5.173 20.959,5.651 21.357,6.268 C21.46,6.428 21.556,6.593 21.642,6.762 C21.977,7.415 22.131,8.107 22.204,8.933 C22.276,9.738 22.276,10.721 22.276,11.965 L22.276,12.035 C22.276,13.279 22.276,14.262 22.204,15.067 C22.131,15.893 21.977,16.584 21.642,17.238 C21.556,17.407 21.46,17.572 21.357,17.732 C20.872,18.483 20.201,19.031 19.287,19.62 C18.708,19.993 18.002,20.401 17.153,20.891 L17.108,20.917 C16.03,21.539 15.179,22.031 14.446,22.371 C13.694,22.72 13.018,22.933 12.285,22.969 C12.095,22.979 11.905,22.979 11.715,22.969 C10.981,22.933 10.306,22.72 9.554,22.371 C8.821,22.031 7.969,21.539 6.892,20.917 L6.847,20.891 C6.007,20.406 5.306,20.001 4.73,19.631 C3.808,19.038 3.131,18.488 2.643,17.732 C2.54,17.572 2.444,17.407 2.358,17.238 C2.022,16.584 1.869,15.893 1.796,15.067 C1.724,14.262 1.724,13.279 1.724,12.036 L1.724,11.964 C1.724,10.721 1.724,9.738 1.796,8.933 C1.869,8.107 2.022,7.415 2.358,6.762 C2.444,6.593 2.54,6.428 2.643,6.268 C3.041,5.651 3.563,5.173 4.242,4.696 C4.903,4.232 5.754,3.74 6.831,3.118 L6.892,3.083 C7.969,2.461 8.821,1.969 9.554,1.629 C10.306,1.28 10.981,1.067 11.715,1.031 Z M12,4.25 C9.377,4.25 7.25,6.377 7.25,9 C7.25,11.623 9.377,13.75 12,13.75 C14.623,13.75 16.75,11.623 16.75,9 C16.75,6.377 14.623,4.25 12,4.25 Z M18.608,18.272 C17.964,16.928 16.59,16 15,16 L9,16 C7.41,16 6.036,16.928 5.391,18.272 C5.44,18.304 5.49,18.336 5.541,18.369 C6.083,18.718 6.754,19.105 7.612,19.6 C8.726,20.244 9.52,20.701 10.185,21.01 C10.837,21.312 11.316,21.448 11.789,21.471 C11.93,21.478 12.07,21.478 12.211,21.471 C12.684,21.448 13.163,21.312 13.815,21.01 C14.48,20.701 15.274,20.244 16.388,19.6 C17.255,19.1 17.93,18.71 18.475,18.359 C18.52,18.329 18.565,18.3 18.608,18.272 Z"/>
</svg>

