<svg xmlns="http://www.w3.org/2000/svg" width="24" height="24" viewBox="0 0 24 24">
  <defs/>
  <path fill="#2D264B" d="M9,2 C6.377,2 4.25,4.127 4.25,6.75 C4.25,9.373 6.377,11.5 9,11.5 C11.623,11.5 13.75,9.373 13.75,6.75 C13.75,4.127 11.623,2 9,2 Z"/>
  <path fill="#2D264B" d="M16,11 C15.586,11 15.25,11.336 15.25,11.75 C15.25,12.164 15.586,12.5 16,12.5 L22,12.5 C22.414,12.5 22.75,12.164 22.75,11.75 C22.75,11.336 22.414,11 22,11 L16,11 Z"/>
  <path fill="#2D264B" d="M6,13 C3.377,13 1.25,15.127 1.25,17.75 C1.25,20.373 3.377,22.5 6,22.5 L12,22.5 C14.623,22.5 16.75,20.373 16.75,17.75 C16.75,15.127 14.623,13 12,13 L6,13 Z"/>
</svg>

