<svg xmlns="http://www.w3.org/2000/svg" width="24" height="24" viewBox="0 0 24 24">
  <defs/>
  <path fill="#2D264B" d="M6.25,6.75 C6.25,4.127 8.377,2 11,2 C13.623,2 15.75,4.127 15.75,6.75 C15.75,9.373 13.623,11.5 11,11.5 C8.377,11.5 6.25,9.373 6.25,6.75 Z"/>
  <path fill="#2D264B" d="M3.25,17.75 C3.25,15.127 5.377,13 8,13 L14,13 C15.169,13 16.239,13.422 17.066,14.122 C16.573,14.136 16.084,14.331 15.707,14.707 C14.926,15.488 14.926,16.755 15.707,17.535 L16.414,18.243 L15.707,18.95 C14.926,19.731 14.926,20.997 15.707,21.778 C15.809,21.88 15.919,21.968 16.035,22.043 C15.418,22.336 14.728,22.5 14,22.5 L8,22.5 C5.377,22.5 3.25,20.373 3.25,17.75 Z"/>
  <path fill="#2D264B" d="M21.894,16.652 C22.187,16.359 22.187,15.884 21.894,15.591 C21.601,15.298 21.127,15.298 20.834,15.591 L19.243,17.182 L17.652,15.591 C17.359,15.298 16.884,15.298 16.591,15.591 C16.298,15.884 16.298,16.359 16.591,16.652 L18.182,18.243 L16.591,19.834 C16.298,20.127 16.298,20.601 16.591,20.894 C16.884,21.187 17.359,21.187 17.652,20.894 L19.243,19.303 L20.834,20.894 C21.127,21.187 21.601,21.187 21.894,20.894 C22.187,20.601 22.187,20.127 21.894,19.834 L20.303,18.243 L21.894,16.652 Z"/>
</svg>

