<svg xmlns="http://www.w3.org/2000/svg" width="24" height="24" viewBox="0 0 24 24">
  <defs/>
  <path fill="#2D264B" d="M16.652,14.591 C16.359,14.298 15.884,14.298 15.591,14.591 C15.298,14.884 15.298,15.359 15.591,15.652 L16.652,14.591 Z M19.834,19.894 C20.127,20.187 20.601,20.187 20.894,19.894 C21.187,19.601 21.187,19.127 20.894,18.834 L19.834,19.894 Z M15.591,18.834 C15.298,19.127 15.298,19.601 15.591,19.894 C15.884,20.187 16.359,20.187 16.652,19.894 L15.591,18.834 Z M20.894,15.652 C21.187,15.359 21.187,14.884 20.894,14.591 C20.601,14.298 20.127,14.298 19.834,14.591 L20.894,15.652 Z M14,13.75 C14.414,13.75 14.75,13.414 14.75,13 C14.75,12.586 14.414,12.25 14,12.25 L14,13.75 Z M14,21.75 C14.414,21.75 14.75,21.414 14.75,21 C14.75,20.586 14.414,20.25 14,20.25 L14,21.75 Z M14.25,6 C14.25,7.795 12.795,9.25 11,9.25 L11,10.75 C13.623,10.75 15.75,8.623 15.75,6 L14.25,6 Z M11,9.25 C9.205,9.25 7.75,7.795 7.75,6 L6.25,6 C6.25,8.623 8.377,10.75 11,10.75 L11,9.25 Z M7.75,6 C7.75,4.205 9.205,2.75 11,2.75 L11,1.25 C8.377,1.25 6.25,3.377 6.25,6 L7.75,6 Z M11,2.75 C12.795,2.75 14.25,4.205 14.25,6 L15.75,6 C15.75,3.377 13.623,1.25 11,1.25 L11,2.75 Z M15.591,15.652 L19.834,19.894 L20.894,18.834 L16.652,14.591 L15.591,15.652 Z M16.652,19.894 L20.894,15.652 L19.834,14.591 L15.591,18.834 L16.652,19.894 Z M8,13.75 L14,13.75 L14,12.25 L8,12.25 L8,13.75 Z M14,20.25 L8,20.25 L8,21.75 L14,21.75 L14,20.25 Z M8,20.25 C6.205,20.25 4.75,18.795 4.75,17 L3.25,17 C3.25,19.623 5.377,21.75 8,21.75 L8,20.25 Z M8,12.25 C5.377,12.25 3.25,14.377 3.25,17 L4.75,17 C4.75,15.205 6.205,13.75 8,13.75 L8,12.25 Z"/>
</svg>

