<svg xmlns="http://www.w3.org/2000/svg" width="24" height="24" viewBox="0 0 24 24">
  <defs/>
  <path fill="#2D264B" d="M1.25,12 C1.25,6.063 6.063,1.25 12,1.25 C17.937,1.25 22.75,6.063 22.75,12 C22.75,15.049 21.48,17.802 19.442,19.757 C17.512,21.61 14.888,22.75 12,22.75 C9.112,22.75 6.488,21.61 4.558,19.757 C2.52,17.802 1.25,15.049 1.25,12 Z M12,4.25 C9.377,4.25 7.25,6.377 7.25,9 C7.25,11.623 9.377,13.75 12,13.75 C14.623,13.75 16.75,11.623 16.75,9 C16.75,6.377 14.623,4.25 12,4.25 Z M18.083,18.969 C17.652,17.679 16.434,16.75 15,16.75 L9,16.75 C7.566,16.75 6.348,17.679 5.917,18.969 C7.544,20.39 9.671,21.25 12,21.25 C14.329,21.25 16.456,20.39 18.083,18.969 Z"/>
</svg>

