<svg xmlns="http://www.w3.org/2000/svg" width="24" height="24" viewBox="0 0 24 24">
  <defs/>
  <path fill="#2D264B" d="M15,17.25 C14.586,17.25 14.25,17.586 14.25,18 C14.25,18.414 14.586,18.75 15,18.75 L21,18.75 C21.414,18.75 21.75,18.414 21.75,18 C21.75,17.586 21.414,17.25 21,17.25 L15,17.25 Z"/>
  <path fill="#2D264B" d="M6,6.75 C6,4.127 8.127,2 10.75,2 C13.373,2 15.5,4.127 15.5,6.75 C15.5,9.373 13.373,11.5 10.75,11.5 C8.127,11.5 6,9.373 6,6.75 Z"/>
  <path fill="#2D264B" d="M3,17.75 C3,15.127 5.127,13 7.75,13 L13.75,13 C15.755,13 17.471,14.243 18.167,16 L15,16 C13.895,16 13,16.895 13,18 C13,19.105 13.895,20 15,20 L17.934,20 C17.132,21.488 15.559,22.5 13.75,22.5 L7.75,22.5 C5.127,22.5 3,20.373 3,17.75 Z"/>
</svg>

