<svg width="24" height="24" viewBox="0 0 24 24" fill="none" xmlns="http://www.w3.org/2000/svg">
<path fill-rule="evenodd" clip-rule="evenodd" d="M11.7148 1.03051C11.9048 1.02108 12.0951 1.02108 12.285 1.03051C13.0184 1.06692 13.6936 1.28001 14.4462 1.62929C15.1789 1.96931 16.0304 2.46089 17.1075 3.0828L17.1685 3.11801C18.2457 3.73991 19.0972 4.2315 19.758 4.69604C20.4368 5.17323 20.9589 5.65139 21.3571 6.26829C21.4603 6.42809 21.5555 6.59292 21.6423 6.76215C21.9774 7.41546 22.1305 8.10672 22.2043 8.93318C22.2762 9.73774 22.2762 10.7209 22.2762 11.9647V12.0351C22.2762 13.2789 22.2762 14.2621 22.2043 15.0667C22.1305 15.8931 21.9774 16.5844 21.6423 17.2377C21.5555 17.407 21.4603 17.5718 21.3571 17.7316C20.8719 18.4834 20.2005 19.0312 19.2873 19.6197C18.708 19.9931 18.0018 20.4008 17.153 20.8908L17.1076 20.9171C16.0304 21.539 15.179 22.0306 14.4462 22.3706C13.6936 22.7199 13.0184 22.9329 12.285 22.9694C12.0951 22.9788 11.9048 22.9788 11.7148 22.9694C10.9814 22.9329 10.3063 22.7199 9.5536 22.3706C8.82087 22.0306 7.96944 21.539 6.89226 20.9171L6.84745 20.8912C6.00655 20.4057 5.30574 20.0011 4.7297 19.6308C3.80768 19.038 3.13094 18.488 2.64268 17.7316C2.53952 17.5718 2.44436 17.407 2.35755 17.2377C2.0224 16.5844 1.86936 15.8931 1.79551 15.0667C1.72362 14.2621 1.72363 13.279 1.72363 12.0352V11.9647C1.72363 10.7209 1.72362 9.73775 1.79551 8.93318C1.86936 8.10672 2.0224 7.41546 2.35755 6.76215C2.44437 6.59292 2.53952 6.4281 2.64268 6.26829C3.04089 5.65139 3.56301 5.17323 4.24182 4.69604C4.90266 4.2315 5.7541 3.73993 6.83127 3.11803L6.89228 3.0828C7.96945 2.46089 8.82088 1.96931 9.5536 1.62929C10.3063 1.28001 10.9814 1.06692 11.7148 1.03051ZM18.6083 18.2718C17.9636 16.9279 16.5901 15.9999 14.9999 15.9999H8.99991C7.40973 15.9999 6.03628 16.9279 5.39148 18.2718C5.4399 18.3037 5.48968 18.3361 5.54085 18.369C6.08339 18.7178 6.75368 19.105 7.61177 19.6004C8.72616 20.2438 9.52009 20.7014 10.185 21.01C10.8369 21.3125 11.3163 21.4477 11.7892 21.4712C11.9296 21.4782 12.0702 21.4782 12.2107 21.4712C12.6835 21.4477 13.1629 21.3125 13.8148 21.01C14.4797 20.7014 15.2737 20.2438 16.3881 19.6004C17.2547 19.1001 17.9296 18.7102 18.4747 18.3589C18.5204 18.3294 18.5649 18.3004 18.6083 18.2718ZM11.9999 4.24994C9.37653 4.24994 7.24988 6.37659 7.24988 8.99994C7.24988 11.6233 9.37653 13.7499 11.9999 13.7499C14.6232 13.7499 16.7499 11.6233 16.7499 8.99994C16.7499 6.37659 14.6232 4.24994 11.9999 4.24994Z" fill="#2D264B"/>
</svg>
