<svg width="24" height="24" viewBox="0 0 24 24" fill="none" xmlns="http://www.w3.org/2000/svg">
<path d="M6.25 6.75C6.25 4.12665 8.37665 2 11 2C13.6234 2 15.75 4.12665 15.75 6.75C15.75 9.37335 13.6234 11.5 11 11.5C8.37665 11.5 6.25 9.37335 6.25 6.75Z" fill="#2D264B"/>
<path d="M3.25 17.75C3.25 15.1266 5.37665 13 8 13H14C15.1687 13 16.2388 13.4221 17.0662 14.1221C16.5729 14.1356 16.0836 14.3306 15.7071 14.7071C14.9261 15.4882 14.9261 16.7545 15.7071 17.5355L16.4142 18.2426L15.7071 18.9497C14.9261 19.7308 14.9261 20.9971 15.7071 21.7782C15.8088 21.8798 15.9186 21.9682 16.0346 22.0434C15.4179 22.3362 14.7281 22.5 14 22.5H8C5.37665 22.5 3.25 20.3734 3.25 17.75Z" fill="#2D264B"/>
<path d="M21.8943 16.6517C22.1872 16.3588 22.1872 15.8839 21.8943 15.591C21.6014 15.2981 21.1265 15.2981 20.8336 15.591L19.2427 17.182L17.6517 15.591C17.3588 15.2981 16.8839 15.2981 16.591 15.591C16.2981 15.8839 16.2981 16.3588 16.591 16.6517L18.182 18.2426L16.591 19.8336C16.2981 20.1265 16.2981 20.6014 16.591 20.8943C16.8839 21.1872 17.3588 21.1872 17.6517 20.8943L19.2427 19.3033L20.8336 20.8943C21.1265 21.1872 21.6014 21.1872 21.8943 20.8943C22.1872 20.6014 22.1872 20.1265 21.8943 19.8336L20.3033 18.2426L21.8943 16.6517Z" fill="#2D264B"/>
</svg>
