<svg xmlns="http://www.w3.org/2000/svg" width="24" height="24" viewBox="0 0 24 24">
  <defs/>
  <path fill="#2D264B" d="M12,13.75 C12.526,13.75 13.032,13.664 13.505,13.507 C15.391,12.877 16.75,11.097 16.75,9 C16.75,6.377 14.623,4.25 12,4.25 C11.979,4.25 11.959,4.25 11.938,4.25 C11.632,4.254 11.332,4.287 11.043,4.346 C8.878,4.789 7.25,6.704 7.25,9 C7.25,11.623 9.377,13.75 12,13.75 Z"/>
  <path fill="#2D264B" d="M11.715,1.031 C11.905,1.021 12.095,1.021 12.285,1.031 C13.018,1.067 13.694,1.28 14.446,1.629 C15.179,1.969 16.03,2.461 17.108,3.083 L17.169,3.118 C18.246,3.74 19.097,4.232 19.758,4.696 C20.437,5.173 20.959,5.651 21.357,6.268 C21.46,6.428 21.556,6.593 21.642,6.762 C21.977,7.415 22.131,8.107 22.204,8.933 C22.276,9.738 22.276,10.721 22.276,11.965 L22.276,12.035 C22.276,13.279 22.276,14.262 22.204,15.067 C22.131,15.893 21.977,16.584 21.642,17.238 C21.556,17.407 21.46,17.572 21.357,17.732 C20.872,18.483 20.201,19.031 19.287,19.62 C18.708,19.993 18.002,20.401 17.153,20.891 L17.108,20.917 C16.03,21.539 15.179,22.031 14.446,22.371 C13.694,22.72 13.018,22.933 12.285,22.969 C12.095,22.979 11.905,22.979 11.715,22.969 C10.981,22.933 10.306,22.72 9.554,22.371 C8.821,22.031 7.969,21.539 6.892,20.917 L6.847,20.891 C6.007,20.406 5.306,20.001 4.73,19.631 C3.808,19.038 3.131,18.488 2.643,17.732 C2.54,17.572 2.444,17.407 2.358,17.238 C2.022,16.584 1.869,15.893 1.796,15.067 C1.724,14.262 1.724,13.279 1.724,12.036 L1.724,11.964 C1.724,10.721 1.724,9.738 1.796,8.933 C1.869,8.107 2.022,7.415 2.358,6.762 C2.444,6.593 2.54,6.428 2.643,6.268 C3.041,5.651 3.563,5.173 4.242,4.696 C4.903,4.232 5.754,3.74 6.831,3.118 L6.892,3.083 C7.969,2.461 8.821,1.969 9.554,1.629 C10.306,1.28 10.981,1.067 11.715,1.031 Z M12.211,2.529 C12.07,2.522 11.93,2.522 11.789,2.529 C11.316,2.552 10.837,2.687 10.185,2.99 C9.52,3.298 8.726,3.756 7.612,4.399 C6.497,5.043 5.704,5.502 5.104,5.923 C4.517,6.336 4.16,6.684 3.903,7.082 C3.827,7.2 3.756,7.322 3.692,7.447 C3.476,7.868 3.354,8.351 3.29,9.067 C3.224,9.797 3.224,10.713 3.224,12 C3.224,13.287 3.224,14.203 3.29,14.933 C3.354,15.649 3.476,16.132 3.692,16.553 C3.756,16.678 3.827,16.8 3.903,16.918 C4.108,17.235 4.375,17.52 4.773,17.831 C5.561,16.299 7.157,15.25 9,15.25 L15,15.25 C16.843,15.25 18.439,16.299 19.227,17.831 C19.625,17.52 19.892,17.235 20.097,16.918 C20.173,16.8 20.243,16.678 20.308,16.553 C20.524,16.132 20.646,15.649 20.71,14.933 C20.775,14.203 20.776,13.287 20.776,12 C20.776,10.713 20.775,9.797 20.71,9.067 C20.646,8.351 20.524,7.868 20.308,7.447 C20.243,7.322 20.173,7.2 20.097,7.082 C19.84,6.684 19.483,6.336 18.895,5.923 C18.296,5.502 17.502,5.043 16.388,4.399 C15.274,3.756 14.48,3.298 13.815,2.99 C13.163,2.687 12.684,2.552 12.211,2.529 Z"/>
</svg>

