<svg width="24" height="24" viewBox="0 0 24 24" fill="none" xmlns="http://www.w3.org/2000/svg">
<path d="M9 2C6.37665 2 4.25 4.12665 4.25 6.75C4.25 9.37335 6.37665 11.5 9 11.5C11.6234 11.5 13.75 9.37335 13.75 6.75C13.75 4.12665 11.6234 2 9 2Z" fill="#2D264B"/>
<path d="M16 11C15.5858 11 15.25 11.3358 15.25 11.75C15.25 12.1642 15.5858 12.5 16 12.5H22C22.4142 12.5 22.75 12.1642 22.75 11.75C22.75 11.3358 22.4142 11 22 11H16Z" fill="#2D264B"/>
<path d="M6 13C3.37665 13 1.25 15.1266 1.25 17.75C1.25 20.3734 3.37665 22.5 6 22.5H12C14.6234 22.5 16.75 20.3734 16.75 17.75C16.75 15.1266 14.6234 13 12 13H6Z" fill="#2D264B"/>
</svg>
