<svg xmlns="http://www.w3.org/2000/svg" width="24" height="24" viewBox="0 0 24 24">
  <defs/>
  <path fill="#2D264B" d="M17.652,8.591 C17.359,8.298 16.884,8.298 16.591,8.591 C16.298,8.884 16.298,9.359 16.591,9.652 L17.652,8.591 Z M20.834,13.894 C21.127,14.187 21.601,14.187 21.894,13.894 C22.187,13.601 22.187,13.127 21.894,12.834 L20.834,13.894 Z M16.591,12.834 C16.298,13.127 16.298,13.601 16.591,13.894 C16.884,14.187 17.359,14.187 17.652,13.894 L16.591,12.834 Z M21.894,9.652 C22.187,9.359 22.187,8.884 21.894,8.591 C21.601,8.298 21.127,8.298 20.834,8.591 L21.894,9.652 Z M12.25,6 C12.25,7.795 10.795,9.25 9,9.25 L9,10.75 C11.623,10.75 13.75,8.623 13.75,6 L12.25,6 Z M9,9.25 C7.205,9.25 5.75,7.795 5.75,6 L4.25,6 C4.25,8.623 6.377,10.75 9,10.75 L9,9.25 Z M5.75,6 C5.75,4.205 7.205,2.75 9,2.75 L9,1.25 C6.377,1.25 4.25,3.377 4.25,6 L5.75,6 Z M9,2.75 C10.795,2.75 12.25,4.205 12.25,6 L13.75,6 C13.75,3.377 11.623,1.25 9,1.25 L9,2.75 Z M6,13.75 L12,13.75 L12,12.25 L6,12.25 L6,13.75 Z M12,20.25 L6,20.25 L6,21.75 L12,21.75 L12,20.25 Z M6,20.25 C4.205,20.25 2.75,18.795 2.75,17 L1.25,17 C1.25,19.623 3.377,21.75 6,21.75 L6,20.25 Z M15.25,17 C15.25,18.795 13.795,20.25 12,20.25 L12,21.75 C14.623,21.75 16.75,19.623 16.75,17 L15.25,17 Z M12,13.75 C13.795,13.75 15.25,15.205 15.25,17 L16.75,17 C16.75,14.377 14.623,12.25 12,12.25 L12,13.75 Z M6,12.25 C3.377,12.25 1.25,14.377 1.25,17 L2.75,17 C2.75,15.205 4.205,13.75 6,13.75 L6,12.25 Z M16.591,9.652 L20.834,13.894 L21.894,12.834 L17.652,8.591 L16.591,9.652 Z M17.652,13.894 L21.894,9.652 L20.834,8.591 L16.591,12.834 L17.652,13.894 Z"/>
</svg>

