<svg width="24" height="24" viewBox="0 0 24 24" fill="none" xmlns="http://www.w3.org/2000/svg">
<path d="M7.25 9C7.25 6.37665 9.37665 4.25 12 4.25C14.6234 4.25 16.75 6.37665 16.75 9C16.75 11.6234 14.6234 13.75 12 13.75C9.37665 13.75 7.25 11.6234 7.25 9Z" fill="#2D264B"/>
<path fill-rule="evenodd" clip-rule="evenodd" d="M11.9548 2.25H12.0452C13.8818 2.24999 15.3214 2.24999 16.4635 2.37373C17.6291 2.50001 18.5734 2.76232 19.3798 3.34815C19.8679 3.70281 20.2972 4.13209 20.6518 4.62024C21.2377 5.42656 21.5 6.37094 21.6263 7.53648C21.75 8.67859 21.75 10.1182 21.75 11.9547V12.0453C21.75 13.8818 21.75 15.3214 21.6263 16.4635C21.5 17.6291 21.2377 18.5734 20.6518 19.3798C20.3143 19.8444 19.9092 20.2556 19.45 20.6C19.4267 20.6175 19.4033 20.6347 19.3798 20.6518C18.5734 21.2377 17.6291 21.5 16.4635 21.6263C15.3214 21.75 13.8818 21.75 12.0453 21.75H11.9547C10.1182 21.75 8.67859 21.75 7.53648 21.6263C6.37094 21.5 5.42656 21.2377 4.62024 20.6518C4.59801 20.6357 4.57592 20.6194 4.55396 20.603C4.09317 20.258 3.68667 19.8457 3.34815 19.3798C2.76232 18.5734 2.50001 17.6291 2.37373 16.4635C2.24999 15.3214 2.24999 13.8818 2.25 12.0452V11.9548C2.24999 10.1182 2.24999 8.67861 2.37373 7.53648C2.50001 6.37094 2.76232 5.42656 3.34815 4.62024C3.70281 4.13209 4.13209 3.70281 4.62024 3.34815C5.42656 2.76232 6.37094 2.50001 7.53648 2.37373C8.67861 2.24999 10.1182 2.24999 11.9548 2.25ZM7.69804 3.865C6.66013 3.97745 6.00992 4.19259 5.50191 4.56168C5.14111 4.82382 4.82382 5.14111 4.56168 5.50191C4.19259 6.00992 3.97745 6.66013 3.865 7.69804C3.75103 8.74999 3.75 10.1084 3.75 12C3.75 13.8916 3.75103 15.25 3.865 16.302C3.97263 17.2953 4.17432 17.9336 4.51502 18.4319C5.16282 16.5789 6.92609 15.25 9 15.25H15C17.074 15.25 18.8371 16.5789 19.485 18.4319C19.8257 17.9336 20.0274 17.2954 20.135 16.302C20.249 15.25 20.25 13.8916 20.25 12C20.25 10.1084 20.249 8.74999 20.135 7.69804C20.0225 6.66013 19.8074 6.00992 19.4383 5.50191C19.1762 5.14111 18.8589 4.82382 18.4981 4.56168C17.9901 4.19259 17.3399 3.97745 16.302 3.865C15.25 3.75103 13.8916 3.75 12 3.75C10.1084 3.75 8.74999 3.75103 7.69804 3.865Z" fill="#2D264B"/>
</svg>
