<svg width="24" height="24" viewBox="0 0 24 24" fill="none" xmlns="http://www.w3.org/2000/svg">
<path fill-rule="evenodd" clip-rule="evenodd" d="M1.25 12C1.25 6.06294 6.06294 1.25 12 1.25C17.9371 1.25 22.75 6.06294 22.75 12C22.75 15.0485 21.4801 17.8016 19.4425 19.7571C17.5117 21.61 14.8882 22.75 12 22.75C9.11182 22.75 6.48833 21.61 4.55751 19.7571C2.51989 17.8016 1.25 15.0485 1.25 12ZM18.0831 18.9685C17.6521 17.6792 16.4339 16.75 15 16.75H9C7.56613 16.75 6.34791 17.6792 5.91687 18.9685C7.54352 20.3898 9.67062 21.25 12 21.25C14.3294 21.25 16.4565 20.3898 18.0831 18.9685ZM12 4.25C9.37665 4.25 7.25 6.37665 7.25 9C7.25 11.6234 9.37665 13.75 12 13.75C14.6234 13.75 16.75 11.6234 16.75 9C16.75 6.37665 14.6234 4.25 12 4.25Z" fill="#2D264B"/>
</svg>
