<svg xmlns="http://www.w3.org/2000/svg" width="24" height="24" viewBox="0 0 24 24">
  <defs/>
  <path fill="#2D264B" d="M12.045,2.25 C13.882,2.25 15.321,2.25 16.463,2.374 C17.629,2.5 18.573,2.762 19.38,3.348 C19.868,3.703 20.297,4.132 20.652,4.62 C21.238,5.427 21.5,6.371 21.626,7.536 C21.75,8.679 21.75,10.118 21.75,11.955 L21.75,12.045 C21.75,13.882 21.75,15.321 21.626,16.463 C21.5,17.629 21.238,18.573 20.652,19.38 C20.314,19.844 19.909,20.256 19.45,20.6 C19.44,20.607 19.43,20.615 19.42,20.622 C19.41,20.63 19.399,20.638 19.389,20.645 L19.38,20.652 C18.573,21.238 17.629,21.5 16.463,21.626 C15.321,21.75 13.882,21.75 12.045,21.75 L11.955,21.75 C10.118,21.75 8.679,21.75 7.536,21.626 C6.371,21.5 5.427,21.238 4.62,20.652 C4.598,20.636 4.576,20.619 4.554,20.603 C4.093,20.258 3.687,19.846 3.348,19.38 C2.762,18.573 2.5,17.629 2.374,16.463 C2.25,15.321 2.25,13.882 2.25,12.045 L2.25,11.955 C2.25,10.118 2.25,8.679 2.374,7.536 C2.5,6.371 2.762,5.427 3.348,4.62 C3.703,4.132 4.132,3.703 4.62,3.348 C5.427,2.762 6.371,2.5 7.536,2.374 C8.679,2.25 10.118,2.25 11.955,2.25 Z M12,4.25 C9.377,4.25 7.25,6.377 7.25,9 C7.25,11.623 9.377,13.75 12,13.75 C14.623,13.75 16.75,11.623 16.75,9 C16.75,6.377 14.623,4.25 12,4.25 Z M18.9,19.107 C18.494,17.328 16.902,16 15,16 L9,16 C7.098,16 5.506,17.328 5.1,19.107 C5.212,19.212 5.33,19.31 5.453,19.402 C5.469,19.414 5.485,19.426 5.502,19.438 C6.01,19.807 6.66,20.022 7.698,20.135 C8.75,20.249 10.108,20.25 12,20.25 C13.892,20.25 15.25,20.249 16.302,20.135 C17.34,20.022 17.99,19.807 18.498,19.438 C18.515,19.426 18.533,19.413 18.55,19.4 C18.672,19.309 18.789,19.211 18.9,19.107 Z"/>
</svg>

