<svg xmlns="http://www.w3.org/2000/svg" width="24" height="24" viewBox="0 0 24 24">
  <defs/>
  <path fill="#2D264B" d="M9.75,2 C7.127,2 5,4.127 5,6.75 C5,9.373 7.127,11.5 9.75,11.5 C12.373,11.5 14.5,9.373 14.5,6.75 C14.5,4.127 12.373,2 9.75,2 Z"/>
  <path fill="#2D264B" d="M18.402,9.341 C18.109,9.048 17.634,9.048 17.341,9.341 C17.048,9.634 17.048,10.109 17.341,10.402 L18.932,11.993 L17.341,13.584 C17.048,13.877 17.048,14.351 17.341,14.644 C17.634,14.937 18.109,14.937 18.402,14.644 L19.993,13.053 L21.584,14.644 C21.877,14.937 22.351,14.937 22.644,14.644 C22.937,14.351 22.937,13.877 22.644,13.584 L21.053,11.993 L22.644,10.402 C22.937,10.109 22.937,9.634 22.644,9.341 C22.351,9.048 21.877,9.048 21.584,9.341 L19.993,10.932 L18.402,9.341 Z"/>
  <path fill="#2D264B" d="M6.75,13 C4.127,13 2,15.127 2,17.75 C2,20.373 4.127,22.5 6.75,22.5 L12.75,22.5 C15.373,22.5 17.5,20.373 17.5,17.75 C17.5,15.127 15.373,13 12.75,13 L6.75,13 Z"/>
</svg>

