<svg xmlns="http://www.w3.org/2000/svg" width="24" height="24" viewBox="0 0 24 24">
  <defs/>
  <path fill="#2D264B" d="M5.25,5.75 C5.25,3.127 7.377,1 10,1 C12.623,1 14.75,3.127 14.75,5.75 C14.75,8.373 12.623,10.5 10,10.5 C7.377,10.5 5.25,8.373 5.25,5.75 Z"/>
  <path fill="#2D264B" d="M2.25,16.75 C2.25,14.127 4.377,12 7,12 L13,12 C15.037,12 16.775,13.283 17.45,15.084 L17.141,15.429 C16.446,16.205 16.056,16.634 15.75,16.895 C15.444,16.634 15.054,16.205 14.359,15.429 L13.49,14.458 C12.753,13.635 11.489,13.566 10.666,14.302 C9.843,15.039 9.773,16.303 10.51,17.126 L11.457,18.184 C12.056,18.854 12.64,19.506 13.194,19.972 C13.714,20.409 14.372,20.827 15.206,20.958 C14.547,21.304 13.796,21.5 13,21.5 L7,21.5 C4.377,21.5 2.25,19.373 2.25,16.75 Z"/>
  <path fill="#2D264B" d="M22.559,13.5 C22.835,13.192 22.809,12.717 22.5,12.441 C22.192,12.165 21.718,12.191 21.441,12.5 L18.072,16.263 C17.389,17.025 16.93,17.536 16.537,17.867 C16.162,18.181 15.942,18.25 15.75,18.25 C15.558,18.25 15.338,18.181 14.963,17.867 C14.57,17.536 14.111,17.025 13.428,16.263 L12.559,15.292 C12.283,14.983 11.808,14.957 11.5,15.234 C11.191,15.51 11.165,15.984 11.441,16.293 L12.348,17.305 C12.983,18.015 13.514,18.608 13.998,19.015 C14.511,19.446 15.064,19.75 15.75,19.75 C16.436,19.75 16.989,19.446 17.502,19.015 C17.986,18.608 18.517,18.015 19.152,17.305 L22.559,13.5 Z"/>
</svg>

