<svg xmlns="http://www.w3.org/2000/svg" width="24" height="24" viewBox="0 0 24 24">
  <defs/>
  <path fill="#2D264B" d="M7.25,9 C7.25,6.377 9.377,4.25 12,4.25 C14.623,4.25 16.75,6.377 16.75,9 C16.75,11.623 14.623,13.75 12,13.75 C9.377,13.75 7.25,11.623 7.25,9 Z"/>
  <path fill="#2D264B" d="M11.955,2.25 L12.045,2.25 C13.882,2.25 15.321,2.25 16.463,2.374 C17.629,2.5 18.573,2.762 19.38,3.348 C19.868,3.703 20.297,4.132 20.652,4.62 C21.238,5.427 21.5,6.371 21.626,7.536 C21.75,8.679 21.75,10.118 21.75,11.955 L21.75,12.045 C21.75,13.882 21.75,15.321 21.626,16.463 C21.5,17.629 21.238,18.573 20.652,19.38 C20.314,19.844 19.909,20.256 19.45,20.6 C19.427,20.618 19.403,20.635 19.38,20.652 C18.573,21.238 17.629,21.5 16.463,21.626 C15.321,21.75 13.882,21.75 12.045,21.75 L11.955,21.75 C10.118,21.75 8.679,21.75 7.536,21.626 C6.371,21.5 5.427,21.238 4.62,20.652 C4.598,20.636 4.576,20.619 4.554,20.603 C4.093,20.258 3.687,19.846 3.348,19.38 C2.762,18.573 2.5,17.629 2.374,16.463 C2.25,15.321 2.25,13.882 2.25,12.045 L2.25,11.955 C2.25,10.118 2.25,8.679 2.374,7.536 C2.5,6.371 2.762,5.427 3.348,4.62 C3.703,4.132 4.132,3.703 4.62,3.348 C5.427,2.762 6.371,2.5 7.536,2.374 C8.679,2.25 10.118,2.25 11.955,2.25 Z M7.698,3.865 C6.66,3.977 6.01,4.193 5.502,4.562 C5.141,4.824 4.824,5.141 4.562,5.502 C4.193,6.01 3.977,6.66 3.865,7.698 C3.751,8.75 3.75,10.108 3.75,12 C3.75,13.892 3.751,15.25 3.865,16.302 C3.973,17.295 4.174,17.934 4.515,18.432 C5.163,16.579 6.926,15.25 9,15.25 L15,15.25 C17.074,15.25 18.837,16.579 19.485,18.432 C19.826,17.934 20.027,17.295 20.135,16.302 C20.249,15.25 20.25,13.892 20.25,12 C20.25,10.108 20.249,8.75 20.135,7.698 C20.022,6.66 19.807,6.01 19.438,5.502 C19.176,5.141 18.859,4.824 18.498,4.562 C17.99,4.193 17.34,3.977 16.302,3.865 C15.25,3.751 13.892,3.75 12,3.75 C10.108,3.75 8.75,3.751 7.698,3.865 Z"/>
</svg>

