<svg xmlns="http://www.w3.org/2000/svg" width="24" height="24" viewBox="0 0 24 24">
  <defs/>
  <path fill="#2D264B" d="M14,13.75 C14.414,13.75 14.75,13.414 14.75,13 C14.75,12.586 14.414,12.25 14,12.25 L14,13.75 Z M14,21.75 C14.414,21.75 14.75,21.414 14.75,21 C14.75,20.586 14.414,20.25 14,20.25 L14,21.75 Z M15,16.25 C14.586,16.25 14.25,16.586 14.25,17 C14.25,17.414 14.586,17.75 15,17.75 L15,16.25 Z M21,17.75 C21.414,17.75 21.75,17.414 21.75,17 C21.75,16.586 21.414,16.25 21,16.25 L21,17.75 Z M17.25,20 C17.25,20.414 17.586,20.75 18,20.75 C18.414,20.75 18.75,20.414 18.75,20 L17.25,20 Z M18.75,14 C18.75,13.586 18.414,13.25 18,13.25 C17.586,13.25 17.25,13.586 17.25,14 L18.75,14 Z M14.25,6 C14.25,7.795 12.795,9.25 11,9.25 L11,10.75 C13.623,10.75 15.75,8.623 15.75,6 L14.25,6 Z M11,9.25 C9.205,9.25 7.75,7.795 7.75,6 L6.25,6 C6.25,8.623 8.377,10.75 11,10.75 L11,9.25 Z M7.75,6 C7.75,4.205 9.205,2.75 11,2.75 L11,1.25 C8.377,1.25 6.25,3.377 6.25,6 L7.75,6 Z M11,2.75 C12.795,2.75 14.25,4.205 14.25,6 L15.75,6 C15.75,3.377 13.623,1.25 11,1.25 L11,2.75 Z M8,13.75 L14,13.75 L14,12.25 L8,12.25 L8,13.75 Z M14,20.25 L8,20.25 L8,21.75 L14,21.75 L14,20.25 Z M8,20.25 C6.205,20.25 4.75,18.795 4.75,17 L3.25,17 C3.25,19.623 5.377,21.75 8,21.75 L8,20.25 Z M8,12.25 C5.377,12.25 3.25,14.377 3.25,17 L4.75,17 C4.75,15.205 6.205,13.75 8,13.75 L8,12.25 Z M15,17.75 L21,17.75 L21,16.25 L15,16.25 L15,17.75 Z M18.75,20 L18.75,14 L17.25,14 L17.25,20 L18.75,20 Z"/>
</svg>

