<svg xmlns="http://www.w3.org/2000/svg" width="24" height="24" viewBox="0 0 24 24">
  <defs/>
  <path fill="#2D264B" d="M15.25,9 C15.25,10.795 13.795,12.25 12,12.25 L12,13.75 C14.623,13.75 16.75,11.623 16.75,9 L15.25,9 Z M12,12.25 C10.205,12.25 8.75,10.795 8.75,9 L7.25,9 C7.25,11.623 9.377,13.75 12,13.75 L12,12.25 Z M8.75,9 C8.75,7.205 10.205,5.75 12,5.75 L12,4.25 C9.377,4.25 7.25,6.377 7.25,9 L8.75,9 Z M12,5.75 C13.795,5.75 15.25,7.205 15.25,9 L16.75,9 C16.75,6.377 14.623,4.25 12,4.25 L12,5.75 Z M9,16.75 L15,16.75 L15,15.25 L9,15.25 L9,16.75 Z M2.75,12 C2.75,6.891 6.891,2.75 12,2.75 L12,1.25 C6.063,1.25 1.25,6.063 1.25,12 L2.75,12 Z M12,2.75 C17.109,2.75 21.25,6.891 21.25,12 L22.75,12 C22.75,6.063 17.937,1.25 12,1.25 L12,2.75 Z M21.25,12 C21.25,14.623 20.159,16.991 18.404,18.675 L19.442,19.757 C21.48,17.802 22.75,15.049 22.75,12 L21.25,12 Z M18.404,18.675 C16.741,20.27 14.486,21.25 12,21.25 L12,22.75 C14.888,22.75 17.512,21.61 19.442,19.757 L18.404,18.675 Z M15,16.75 C16.576,16.75 17.892,17.873 18.188,19.362 L19.659,19.07 C19.226,16.892 17.305,15.25 15,15.25 L15,16.75 Z M12,21.25 C9.514,21.25 7.259,20.27 5.596,18.675 L4.558,19.757 C6.488,21.61 9.112,22.75 12,22.75 L12,21.25 Z M5.596,18.675 C3.841,16.991 2.75,14.623 2.75,12 L1.25,12 C1.25,15.049 2.52,17.802 4.558,19.757 L5.596,18.675 Z M9,15.25 C6.694,15.25 4.774,16.892 4.341,19.07 L5.812,19.362 C6.108,17.873 7.424,16.75 9,16.75 L9,15.25 Z"/>
  <path fill="#2D264B" d="M15,16 L9,16 C7.059,16 5.441,17.382 5.077,19.216 C6.874,20.94 9.313,22 12,22 C14.687,22 17.127,20.94 18.923,19.216 C18.559,17.382 16.941,16 15,16 Z"/>
  <path fill="#2D264B" d="M18.923,19.216 L19.443,19.757 L19.739,19.473 L19.659,19.07 L18.923,19.216 Z M5.077,19.216 L4.341,19.07 L4.261,19.473 L4.558,19.757 L5.077,19.216 Z M9,16.75 L15,16.75 L15,15.25 L9,15.25 L9,16.75 Z M18.404,18.675 C16.741,20.27 14.486,21.25 12,21.25 L12,22.75 C14.888,22.75 17.512,21.61 19.443,19.757 L18.404,18.675 Z M15,16.75 C16.576,16.75 17.892,17.873 18.188,19.362 L19.659,19.07 C19.226,16.892 17.306,15.25 15,15.25 L15,16.75 Z M12,21.25 C9.514,21.25 7.259,20.27 5.596,18.675 L4.558,19.757 C6.488,21.61 9.112,22.75 12,22.75 L12,21.25 Z M9,15.25 C6.695,15.25 4.774,16.892 4.341,19.07 L5.813,19.362 C6.109,17.873 7.424,16.75 9,16.75 L9,15.25 Z"/>
  <path fill="#2D264B" d="M16,9 C16,11.209 14.209,13 12,13 C9.791,13 8,11.209 8,9 C8,6.791 9.791,5 12,5 C14.209,5 16,6.791 16,9 Z"/>
  <path fill="#2D264B" d="M15.25,9 C15.25,10.795 13.795,12.25 12,12.25 L12,13.75 C14.623,13.75 16.75,11.623 16.75,9 L15.25,9 Z M12,12.25 C10.205,12.25 8.75,10.795 8.75,9 L7.25,9 C7.25,11.623 9.377,13.75 12,13.75 L12,12.25 Z M8.75,9 C8.75,7.205 10.205,5.75 12,5.75 L12,4.25 C9.377,4.25 7.25,6.377 7.25,9 L8.75,9 Z M12,5.75 C13.795,5.75 15.25,7.205 15.25,9 L16.75,9 C16.75,6.377 14.623,4.25 12,4.25 L12,5.75 Z"/>
</svg>

