<svg xmlns="http://www.w3.org/2000/svg" width="24" height="24" viewBox="0 0 24 24">
  <defs/>
  <path fill="#2D264B" d="M18.75,15 C18.75,14.586 18.414,14.25 18,14.25 C17.586,14.25 17.25,14.586 17.25,15 L17.25,17.25 L15,17.25 C14.586,17.25 14.25,17.586 14.25,18 C14.25,18.414 14.586,18.75 15,18.75 L17.25,18.75 L17.25,21 C17.25,21.414 17.586,21.75 18,21.75 C18.414,21.75 18.75,21.414 18.75,21 L18.75,18.75 L21,18.75 C21.414,18.75 21.75,18.414 21.75,18 C21.75,17.586 21.414,17.25 21,17.25 L18.75,17.25 L18.75,15 Z"/>
  <path fill="#2D264B" d="M6,6.75 C6,4.127 8.127,2 10.75,2 C13.373,2 15.5,4.127 15.5,6.75 C15.5,9.373 13.373,11.5 10.75,11.5 C8.127,11.5 6,9.373 6,6.75 Z"/>
  <path fill="#2D264B" d="M3,17.75 C3,15.127 5.127,13 7.75,13 L13.75,13 C14.73,13 15.64,13.297 16.396,13.805 C16.147,14.138 16,14.552 16,15 L16,16 L15,16 C13.895,16 13,16.895 13,18 C13,19.105 13.895,20 15,20 L16,20 L16,21 C16,21.297 16.065,21.578 16.181,21.832 C15.47,22.256 14.638,22.5 13.75,22.5 L7.75,22.5 C5.127,22.5 3,20.373 3,17.75 Z"/>
</svg>

