<svg width="24" height="24" viewBox="0 0 24 24" fill="none" xmlns="http://www.w3.org/2000/svg">
<path fill-rule="evenodd" clip-rule="evenodd" d="M6.4897 4.25C3.13591 4.25 0.559666 7.22043 1.03396 10.5405L1.26486 12.1568L2.72114 17.2537C3.1433 18.7313 4.4938 19.75 6.03049 19.75C7.20161 19.75 8.29236 19.1545 8.92565 18.1694L9.30002 17.587C10.5635 15.6216 13.4366 15.6216 14.7001 17.587L14.9291 17.9433C15.653 19.0693 16.8998 19.75 18.2385 19.75C20.1963 19.75 21.8562 18.3104 22.1331 16.3722L22.9662 10.5405C23.4405 7.22043 20.8642 4.25 17.5105 4.25C16.7393 4.25 15.9768 4.41182 15.2722 4.725L14.7412 4.96099C13.7159 5.41669 13.3008 5.597 12.8826 5.68577C12.3007 5.80929 11.6994 5.80929 11.1175 5.68577C10.6994 5.597 10.2843 5.41669 9.25896 4.96099L8.72798 4.725C8.02333 4.41182 7.26081 4.25 6.4897 4.25ZM7.00006 8.25C7.41427 8.25 7.75006 8.58579 7.75006 9V10.25H9.00006C9.41427 10.25 9.75006 10.5858 9.75006 11C9.75006 11.4142 9.41427 11.75 9.00006 11.75H7.75006V13C7.75006 13.4142 7.41427 13.75 7.00006 13.75C6.58585 13.75 6.25006 13.4142 6.25006 13V11.75H5.00006C4.58585 11.75 4.25006 11.4142 4.25006 11C4.25006 10.5858 4.58585 10.25 5.00006 10.25H6.25006V9C6.25006 8.58579 6.58585 8.25 7.00006 8.25ZM17.0001 10C17.5524 10 18.0001 9.55228 18.0001 9C18.0001 8.44772 17.5524 8 17.0001 8C16.4478 8 16.0001 8.44772 16.0001 9C16.0001 9.55228 16.4478 10 17.0001 10ZM15.0001 12C15.5524 12 16.0001 11.5523 16.0001 11C16.0001 10.4477 15.5524 10 15.0001 10C14.4478 10 14.0001 10.4477 14.0001 11C14.0001 11.5523 14.4478 12 15.0001 12ZM20.0001 11C20.0001 11.5523 19.5524 12 19.0001 12C18.4478 12 18.0001 11.5523 18.0001 11C18.0001 10.4477 18.4478 10 19.0001 10C19.5524 10 20.0001 10.4477 20.0001 11ZM17.0001 14C17.5524 14 18.0001 13.5523 18.0001 13C18.0001 12.4477 17.5524 12 17.0001 12C16.4478 12 16.0001 12.4477 16.0001 13C16.0001 13.5523 16.4478 14 17.0001 14Z" fill="#2D264B"/>
</svg>
