<svg width="24" height="24" viewBox="0 0 24 24" fill="none" xmlns="http://www.w3.org/2000/svg">
<path fill-rule="evenodd" clip-rule="evenodd" d="M16.7042 3.25839C16.8468 2.8695 16.6472 2.43864 16.2583 2.29605C15.8694 2.15345 15.4385 2.35312 15.2959 2.74201L15.0537 3.40263C14.9071 3.80253 14.5264 4.06839 14.1005 4.06839C12.9101 4.06839 11.8828 4.9028 11.6387 6.06785L11.2926 7.71933C11.2341 7.70944 11.1757 7.69833 11.1175 7.68598C10.6994 7.59721 10.2843 7.41689 9.25896 6.96119L8.72798 6.7252C8.02333 6.41202 7.2608 6.2502 6.4897 6.2502C3.13591 6.2502 0.559666 9.22063 1.03396 12.5407L1.26486 14.157L2.72114 19.254C3.1433 20.7315 4.49381 21.7502 6.03049 21.7502C7.20161 21.7502 8.29236 21.1547 8.92565 20.1696L9.30002 19.5872C10.5635 17.6218 13.4366 17.6218 14.7001 19.5872L14.9291 19.9435C15.653 21.0695 16.8998 21.7502 18.2385 21.7502C20.1963 21.7502 21.8562 20.3106 22.1331 18.3724L22.9662 12.5407C23.4405 9.22063 20.8642 6.2502 17.5105 6.2502C16.7393 6.2502 15.9768 6.41202 15.2722 6.7252L14.7412 6.96119C13.7159 7.41689 13.3008 7.59721 12.8826 7.68598C12.8651 7.6897 12.8475 7.69331 12.8299 7.69681L13.1068 6.37546C13.2053 5.90519 13.62 5.56839 14.1005 5.56839C15.1557 5.56839 16.0987 4.90973 16.462 3.91901L16.7042 3.25839ZM18.0001 11.0002C18.0001 11.5525 17.5524 12.0002 17.0001 12.0002C16.4478 12.0002 16.0001 11.5525 16.0001 11.0002C16.0001 10.4479 16.4478 10.0002 17.0001 10.0002C17.5524 10.0002 18.0001 10.4479 18.0001 11.0002ZM16.0001 13.0002C16.0001 13.5525 15.5524 14.0002 15.0001 14.0002C14.4478 14.0002 14.0001 13.5525 14.0001 13.0002C14.0001 12.4479 14.4478 12.0002 15.0001 12.0002C15.5524 12.0002 16.0001 12.4479 16.0001 13.0002ZM19.0001 14.0002C19.5524 14.0002 20.0001 13.5525 20.0001 13.0002C20.0001 12.4479 19.5524 12.0002 19.0001 12.0002C18.4478 12.0002 18.0001 12.4479 18.0001 13.0002C18.0001 13.5525 18.4478 14.0002 19.0001 14.0002ZM18.0001 15.0002C18.0001 15.5525 17.5524 16.0002 17.0001 16.0002C16.4478 16.0002 16.0001 15.5525 16.0001 15.0002C16.0001 14.4479 16.4478 14.0002 17.0001 14.0002C17.5524 14.0002 18.0001 14.4479 18.0001 15.0002ZM7.75006 11.0002C7.75006 10.586 7.41427 10.2502 7.00006 10.2502C6.58585 10.2502 6.25006 10.586 6.25006 11.0002V12.2502H5.00006C4.58585 12.2502 4.25006 12.586 4.25006 13.0002C4.25006 13.4144 4.58585 13.7502 5.00006 13.7502H6.25006V15.0002C6.25006 15.4144 6.58585 15.7502 7.00006 15.7502C7.41427 15.7502 7.75006 15.4144 7.75006 15.0002V13.7502H9.00006C9.41427 13.7502 9.75006 13.4144 9.75006 13.0002C9.75006 12.586 9.41427 12.2502 9.00006 12.2502H7.75006V11.0002Z" fill="#2D264B"/>
</svg>
