<svg xmlns="http://www.w3.org/2000/svg" width="24" height="24" viewBox="0 0 24 24">
  <defs/>
  <path fill="#2D264B" d="M18,11 C18,11.552 17.552,12 17,12 C16.448,12 16,11.552 16,11 C16,10.448 16.448,10 17,10 C17.552,10 18,10.448 18,11 Z"/>
  <path fill="#2D264B" d="M16,13 C16,13.552 15.552,14 15,14 C14.448,14 14,13.552 14,13 C14,12.448 14.448,12 15,12 C15.552,12 16,12.448 16,13 Z"/>
  <path fill="#2D264B" d="M20,13 C20,13.552 19.552,14 19,14 C18.448,14 18,13.552 18,13 C18,12.448 18.448,12 19,12 C19.552,12 20,12.448 20,13 Z"/>
  <path fill="#2D264B" d="M18,15 C18,15.552 17.552,16 17,16 C16.448,16 16,15.552 16,15 C16,14.448 16.448,14 17,14 C17.552,14 18,14.448 18,15 Z"/>
  <path fill="#2D264B" d="M2,14 L1.257,14.106 L1.265,14.157 L1.279,14.206 L2,14 Z M5,12.25 C4.586,12.25 4.25,12.586 4.25,13 C4.25,13.414 4.586,13.75 5,13.75 L5,12.25 Z M9,13.75 C9.414,13.75 9.75,13.414 9.75,13 C9.75,12.586 9.414,12.25 9,12.25 L9,13.75 Z M6.25,15 C6.25,15.414 6.586,15.75 7,15.75 C7.414,15.75 7.75,15.414 7.75,15 L6.25,15 Z M7.75,11 C7.75,10.586 7.414,10.25 7,10.25 C6.586,10.25 6.25,10.586 6.25,11 L7.75,11 Z M12,8 L11.266,7.846 L11.264,7.858 L11.261,7.869 L12,8 Z M16.704,3.258 C16.847,2.869 16.647,2.438 16.258,2.296 C15.869,2.153 15.438,2.353 15.296,2.742 L16.704,3.258 Z M4.163,18.842 L2.721,13.794 L1.279,14.206 L2.721,19.254 L4.163,18.842 Z M2.742,13.894 L2.519,12.328 L1.034,12.54 L1.257,14.106 L2.742,13.894 Z M8.038,18.776 L7.664,19.358 L8.926,20.169 L9.3,19.587 L8.038,18.776 Z M16.191,19.132 L15.962,18.776 L14.7,19.587 L14.929,19.943 L16.191,19.132 Z M8.119,8.096 L8.65,8.332 L9.259,6.961 L8.728,6.725 L8.119,8.096 Z M15.35,8.332 L15.881,8.096 L15.272,6.725 L14.741,6.961 L15.35,8.332 Z M6.49,7.75 C7.051,7.75 7.606,7.868 8.119,8.096 L8.728,6.725 C8.023,6.412 7.261,6.25 6.49,6.25 L6.49,7.75 Z M8.65,8.332 C9.617,8.762 10.198,9.024 10.806,9.153 L11.117,7.686 C10.699,7.597 10.284,7.417 9.259,6.961 L8.65,8.332 Z M14.741,6.961 C13.716,7.417 13.301,7.597 12.883,7.686 L13.194,9.153 C13.802,9.024 14.383,8.762 15.35,8.332 L14.741,6.961 Z M18.238,20.25 C17.41,20.25 16.639,19.829 16.191,19.132 L14.929,19.943 C15.653,21.069 16.9,21.75 18.238,21.75 L18.238,20.25 Z M7.664,19.358 C7.306,19.914 6.691,20.25 6.03,20.25 L6.03,21.75 C7.201,21.75 8.292,21.154 8.926,20.169 L7.664,19.358 Z M2.721,19.254 C3.143,20.731 4.494,21.75 6.03,21.75 L6.03,20.25 C5.163,20.25 4.401,19.675 4.163,18.842 L2.721,19.254 Z M20.648,18.16 C20.477,19.359 19.45,20.25 18.238,20.25 L18.238,21.75 C20.196,21.75 21.856,20.31 22.133,18.372 L20.648,18.16 Z M22.966,12.54 C23.44,9.22 20.864,6.25 17.51,6.25 L17.51,7.75 C19.951,7.75 21.826,9.912 21.481,12.328 L22.966,12.54 Z M9.3,19.587 C10.563,17.622 13.437,17.622 14.7,19.587 L15.962,18.776 C14.108,15.892 9.892,15.892 8.038,18.776 L9.3,19.587 Z M15.881,8.096 C16.394,7.868 16.949,7.75 17.51,7.75 L17.51,6.25 C16.739,6.25 15.977,6.412 15.272,6.725 L15.881,8.096 Z M2.519,12.328 C2.174,9.912 4.049,7.75 6.49,7.75 L6.49,6.25 C3.136,6.25 0.56,9.22 1.034,12.54 L2.519,12.328 Z M7.75,15 L7.75,11 L6.25,11 L6.25,15 L7.75,15 Z M12.734,8.154 L13.107,6.375 L11.639,6.068 L11.266,7.846 L12.734,8.154 Z M16.462,3.919 L16.704,3.258 L15.296,2.742 L15.054,3.402 L16.462,3.919 Z M14.1,5.568 C15.156,5.568 16.099,4.91 16.462,3.919 L15.054,3.402 C14.907,3.802 14.526,4.068 14.1,4.068 L14.1,5.568 Z M13.107,6.375 C13.205,5.905 13.62,5.568 14.1,5.568 L14.1,4.068 C12.91,4.068 11.883,4.903 11.639,6.068 L13.107,6.375 Z M21.481,12.328 L20.648,18.16 L22.133,18.372 L22.966,12.54 L21.481,12.328 Z M5,13.75 L7,13.75 L7,12.25 L5,12.25 L5,13.75 Z M7,13.75 L9,13.75 L9,12.25 L7,12.25 L7,13.75 Z M10.806,9.153 C11.164,9.229 11.528,9.271 11.892,9.277 L11.92,7.778 C11.651,7.773 11.382,7.742 11.117,7.686 L10.806,9.153 Z M11.892,9.277 C12.328,9.286 12.765,9.244 13.194,9.153 L12.883,7.686 C12.565,7.753 12.243,7.784 11.92,7.778 L11.892,9.277 Z M11.261,7.869 L11.168,8.396 L12.645,8.659 L12.738,8.131 L11.261,7.869 Z"/>
</svg>

