<svg xmlns="http://www.w3.org/2000/svg" width="24" height="24" viewBox="0 0 24 24">
  <defs/>
  <path fill="#2D264B" d="M16.704,3.258 L16.462,3.919 C16.099,4.91 15.156,5.568 14.101,5.568 C13.62,5.568 13.205,5.905 13.107,6.375 L12.83,7.697 C12.847,7.693 12.865,7.69 12.883,7.686 C13.301,7.597 13.716,7.417 14.741,6.961 L15.272,6.725 C15.977,6.412 16.739,6.25 17.51,6.25 C20.864,6.25 23.441,9.221 22.966,12.541 L22.133,18.372 C21.856,20.311 20.196,21.75 18.239,21.75 C16.9,21.75 15.653,21.069 14.929,19.944 L14.7,19.587 C13.437,17.622 10.564,17.622 9.3,19.587 L8.926,20.17 C8.292,21.155 7.202,21.75 6.03,21.75 C4.494,21.75 3.143,20.732 2.721,19.254 L1.265,14.157 L1.034,12.541 C0.56,9.221 3.136,6.25 6.49,6.25 C7.261,6.25 8.023,6.412 8.728,6.725 L9.259,6.961 C10.284,7.417 10.699,7.597 11.118,7.686 C11.176,7.698 11.234,7.709 11.293,7.719 L11.639,6.068 C11.883,4.903 12.91,4.068 14.101,4.068 C14.526,4.068 14.907,3.803 15.054,3.403 L15.296,2.742 C15.439,2.353 15.869,2.153 16.258,2.296 C16.647,2.439 16.847,2.869 16.704,3.258 Z M7.75,11 C7.75,10.586 7.414,10.25 7,10.25 C6.586,10.25 6.25,10.586 6.25,11 L6.25,12.25 L5,12.25 C4.586,12.25 4.25,12.586 4.25,13 C4.25,13.414 4.586,13.75 5,13.75 L6.25,13.75 L6.25,15 C6.25,15.414 6.586,15.75 7,15.75 C7.414,15.75 7.75,15.414 7.75,15 L7.75,13.75 L9,13.75 C9.414,13.75 9.75,13.414 9.75,13 C9.75,12.586 9.414,12.25 9,12.25 L7.75,12.25 Z M19,14 C19.552,14 20,13.552 20,13 C20,12.448 19.552,12 19,12 C18.448,12 18,12.448 18,13 C18,13.552 18.448,14 19,14 Z M18,11 C18,10.448 17.552,10 17,10 C16.448,10 16,10.448 16,11 C16,11.552 16.448,12 17,12 C17.552,12 18,11.552 18,11 Z M18,15 C18,14.448 17.552,14 17,14 C16.448,14 16,14.448 16,15 C16,15.552 16.448,16 17,16 C17.552,16 18,15.552 18,15 Z M16,13 C16,12.448 15.552,12 15,12 C14.448,12 14,12.448 14,13 C14,13.552 14.448,14 15,14 C15.552,14 16,13.552 16,13 Z"/>
</svg>

