<svg xmlns="http://www.w3.org/2000/svg" width="24" height="24" viewBox="0 0 24 24">
  <defs/>
  <path fill="#2D264B" d="M6.49,4.25 C7.261,4.25 8.023,4.412 8.728,4.725 L9.259,4.961 C10.284,5.417 10.699,5.597 11.118,5.686 C11.699,5.809 12.301,5.809 12.883,5.686 C13.301,5.597 13.716,5.417 14.741,4.961 L15.272,4.725 C15.977,4.412 16.739,4.25 17.51,4.25 C20.864,4.25 23.441,7.22 22.966,10.54 L22.133,16.372 C21.856,18.31 20.196,19.75 18.239,19.75 C16.9,19.75 15.653,19.069 14.929,17.943 L14.7,17.587 C13.437,15.622 10.564,15.622 9.3,17.587 L8.926,18.169 C8.292,19.154 7.202,19.75 6.03,19.75 C4.494,19.75 3.143,18.731 2.721,17.254 L1.265,12.157 L1.034,10.54 C0.56,7.22 3.136,4.25 6.49,4.25 Z M7,8.25 C6.586,8.25 6.25,8.586 6.25,9 L6.25,10.25 L5,10.25 C4.586,10.25 4.25,10.586 4.25,11 C4.25,11.414 4.586,11.75 5,11.75 L6.25,11.75 L6.25,13 C6.25,13.414 6.586,13.75 7,13.75 C7.414,13.75 7.75,13.414 7.75,13 L7.75,11.75 L9,11.75 C9.414,11.75 9.75,11.414 9.75,11 C9.75,10.586 9.414,10.25 9,10.25 L7.75,10.25 L7.75,9 C7.75,8.586 7.414,8.25 7,8.25 Z M17,14 C17.552,14 18,13.552 18,13 C18,12.448 17.552,12 17,12 C16.448,12 16,12.448 16,13 C16,13.552 16.448,14 17,14 Z M20,11 C20,10.448 19.552,10 19,10 C18.448,10 18,10.448 18,11 C18,11.552 18.448,12 19,12 C19.552,12 20,11.552 20,11 Z M15,12 C15.552,12 16,11.552 16,11 C16,10.448 15.552,10 15,10 C14.448,10 14,10.448 14,11 C14,11.552 14.448,12 15,12 Z M17,10 C17.552,10 18,9.552 18,9 C18,8.448 17.552,8 17,8 C16.448,8 16,8.448 16,9 C16,9.552 16.448,10 17,10 Z"/>
</svg>

