<svg xmlns="http://www.w3.org/2000/svg" width="24" height="24" viewBox="0 0 24 24">
  <defs/>
  <path fill="#2D264B" d="M2,12 L1.257,12.106 L1.265,12.157 L1.279,12.206 L2,12 Z M5,10.25 C4.586,10.25 4.25,10.586 4.25,11 C4.25,11.414 4.586,11.75 5,11.75 L5,10.25 Z M9,11.75 C9.414,11.75 9.75,11.414 9.75,11 C9.75,10.586 9.414,10.25 9,10.25 L9,11.75 Z M6.25,13 C6.25,13.414 6.586,13.75 7,13.75 C7.414,13.75 7.75,13.414 7.75,13 L6.25,13 Z M7.75,9 C7.75,8.586 7.414,8.25 7,8.25 C6.586,8.25 6.25,8.586 6.25,9 L7.75,9 Z M4.163,16.842 L2.721,11.794 L1.279,12.206 L2.721,17.254 L4.163,16.842 Z M2.742,11.894 L2.519,10.328 L1.034,10.54 L1.257,12.106 L2.742,11.894 Z M8.038,16.776 L7.664,17.358 L8.926,18.169 L9.3,17.587 L8.038,16.776 Z M16.191,17.132 L15.962,16.776 L14.7,17.587 L14.929,17.943 L16.191,17.132 Z M8.119,6.096 L8.65,6.332 L9.259,4.961 L8.728,4.725 L8.119,6.096 Z M15.35,6.332 L15.881,6.096 L15.272,4.725 L14.741,4.961 L15.35,6.332 Z M6.49,5.75 C7.051,5.75 7.606,5.868 8.119,6.096 L8.728,4.725 C8.023,4.412 7.261,4.25 6.49,4.25 L6.49,5.75 Z M8.65,6.332 C9.617,6.762 10.198,7.024 10.806,7.153 L11.117,5.686 C10.699,5.597 10.284,5.417 9.259,4.961 L8.65,6.332 Z M14.741,4.961 C13.716,5.417 13.301,5.597 12.883,5.686 L13.194,7.153 C13.802,7.024 14.383,6.762 15.35,6.332 L14.741,4.961 Z M10.806,7.153 C11.593,7.32 12.407,7.32 13.194,7.153 L12.883,5.686 C12.301,5.809 11.699,5.809 11.117,5.686 L10.806,7.153 Z M18.238,18.25 C17.41,18.25 16.639,17.829 16.191,17.132 L14.929,17.943 C15.653,19.069 16.9,19.75 18.238,19.75 L18.238,18.25 Z M7.664,17.358 C7.306,17.914 6.691,18.25 6.03,18.25 L6.03,19.75 C7.201,19.75 8.292,19.154 8.926,18.169 L7.664,17.358 Z M2.721,17.254 C3.143,18.731 4.494,19.75 6.03,19.75 L6.03,18.25 C5.163,18.25 4.401,17.675 4.163,16.842 L2.721,17.254 Z M20.648,16.16 C20.477,17.359 19.45,18.25 18.238,18.25 L18.238,19.75 C20.196,19.75 21.856,18.31 22.133,16.372 L20.648,16.16 Z M22.966,10.54 C23.44,7.22 20.864,4.25 17.51,4.25 L17.51,5.75 C19.951,5.75 21.826,7.912 21.481,10.328 L22.966,10.54 Z M9.3,17.587 C10.563,15.622 13.437,15.622 14.7,17.587 L15.962,16.776 C14.108,13.892 9.892,13.892 8.038,16.776 L9.3,17.587 Z M15.881,6.096 C16.394,5.868 16.949,5.75 17.51,5.75 L17.51,4.25 C16.739,4.25 15.977,4.412 15.272,4.725 L15.881,6.096 Z M2.519,10.328 C2.174,7.912 4.049,5.75 6.49,5.75 L6.49,4.25 C3.136,4.25 0.56,7.22 1.034,10.54 L2.519,10.328 Z M7.75,13 L7.75,9 L6.25,9 L6.25,13 L7.75,13 Z M21.481,10.328 L20.648,16.16 L22.133,16.372 L22.966,10.54 L21.481,10.328 Z M5,11.75 L7,11.75 L7,10.25 L5,10.25 L5,11.75 Z M7,11.75 L9,11.75 L9,10.25 L7,10.25 L7,11.75 Z"/>
  <path fill="#2D264B" d="M18,9 C18,9.552 17.552,10 17,10 C16.448,10 16,9.552 16,9 C16,8.448 16.448,8 17,8 C17.552,8 18,8.448 18,9 Z"/>
  <path fill="#2D264B" d="M16,11 C16,11.552 15.552,12 15,12 C14.448,12 14,11.552 14,11 C14,10.448 14.448,10 15,10 C15.552,10 16,10.448 16,11 Z"/>
  <path fill="#2D264B" d="M20,11 C20,11.552 19.552,12 19,12 C18.448,12 18,11.552 18,11 C18,10.448 18.448,10 19,10 C19.552,10 20,10.448 20,11 Z"/>
  <path fill="#2D264B" d="M18,13 C18,13.552 17.552,14 17,14 C16.448,14 16,13.552 16,13 C16,12.448 16.448,12 17,12 C17.552,12 18,12.448 18,13 Z"/>
</svg>

