<svg width="24" height="24" viewBox="0 0 24 24" fill="none" xmlns="http://www.w3.org/2000/svg">
<path d="M16.75 2C16.75 1.58579 16.4142 1.25 16 1.25C15.5858 1.25 15.25 1.58579 15.25 2V3.28791C14.3413 3.25 13.2786 3.25 12.0313 3.25L11.9547 3.25C10.1182 3.24999 8.67861 3.24999 7.53648 3.37373C6.37094 3.50001 5.42656 3.76232 4.62024 4.34815C4.13209 4.70281 3.70281 5.13209 3.34815 5.62023C2.81167 6.35864 2.54592 7.21396 2.40814 8.25H21.5919C21.4541 7.21396 21.1883 6.35864 20.6518 5.62023C20.2972 5.13209 19.8679 4.70281 19.3798 4.34815C18.6414 3.81167 17.786 3.54592 16.75 3.40814V2Z" fill="#2D264B"/>
<path d="M8.5 13.75C7.5335 13.75 6.75 14.5335 6.75 15.5C6.75 16.4665 7.5335 17.25 8.5 17.25C9.4665 17.25 10.25 16.4665 10.25 15.5C10.25 14.5335 9.4665 13.75 8.5 13.75Z" fill="#2D264B"/>
<path fill-rule="evenodd" clip-rule="evenodd" d="M21.7121 9.75H2.28791C2.25 10.6587 2.25 11.7214 2.25 12.9687V13.0452C2.24999 14.8818 2.24999 16.3214 2.37373 17.4635C2.50001 18.6291 2.76232 19.5734 3.34815 20.3798C3.70281 20.8679 4.13209 21.2972 4.62024 21.6518C5.42656 22.2377 6.37094 22.5 7.53648 22.6263C8.67859 22.75 10.1182 22.75 11.9547 22.75H12.0453C13.8818 22.75 15.3214 22.75 16.4635 22.6263C17.6291 22.5 18.5734 22.2377 19.3798 21.6518C19.8679 21.2972 20.2972 20.8679 20.6518 20.3798C21.2377 19.5734 21.5 18.6291 21.6263 17.4635C21.75 16.3214 21.75 14.8818 21.75 13.0453V12.9687C21.75 11.7214 21.75 10.6587 21.7121 9.75ZM5.25 15.5C5.25 13.7051 6.70507 12.25 8.5 12.25C10.2949 12.25 11.75 13.7051 11.75 15.5C11.75 17.2949 10.2949 18.75 8.5 18.75C6.70507 18.75 5.25 17.2949 5.25 15.5ZM13.25 14C13.25 13.5858 13.5858 13.25 14 13.25H18C18.4142 13.25 18.75 13.5858 18.75 14C18.75 14.4142 18.4142 14.75 18 14.75H14C13.5858 14.75 13.25 14.4142 13.25 14ZM13.25 17C13.25 16.5858 13.5858 16.25 14 16.25H18C18.4142 16.25 18.75 16.5858 18.75 17C18.75 17.4142 18.4142 17.75 18 17.75H14C13.5858 17.75 13.25 17.4142 13.25 17Z" fill="#2D264B"/>
</svg>
