<svg xmlns="http://www.w3.org/2000/svg" width="24" height="24" viewBox="0 0 24 24">
  <defs/>
  <path fill="#2D264B" d="M16.75,2 C16.75,1.586 16.414,1.25 16,1.25 C15.586,1.25 15.25,1.586 15.25,2 L16.75,2 Z M14,13.25 C13.586,13.25 13.25,13.586 13.25,14 C13.25,14.414 13.586,14.75 14,14.75 L14,13.25 Z M18,14.75 C18.414,14.75 18.75,14.414 18.75,14 C18.75,13.586 18.414,13.25 18,13.25 L18,14.75 Z M14,16.25 C13.586,16.25 13.25,16.586 13.25,17 C13.25,17.414 13.586,17.75 14,17.75 L14,16.25 Z M18,17.75 C18.414,17.75 18.75,17.414 18.75,17 C18.75,16.586 18.414,16.25 18,16.25 L18,17.75 Z M12,21.25 C10.108,21.25 8.75,21.249 7.698,21.135 C6.66,21.023 6.01,20.807 5.502,20.438 L4.62,21.652 C5.427,22.238 6.371,22.5 7.536,22.626 C8.688,22.751 10.142,22.75 12,22.75 L12,21.25 Z M2.25,13 C2.25,14.858 2.249,16.312 2.374,17.463 C2.5,18.629 2.762,19.573 3.348,20.38 L4.562,19.498 C4.193,18.99 3.977,18.34 3.865,17.302 C3.751,16.25 3.75,14.892 3.75,13 L2.25,13 Z M5.502,20.438 C5.141,20.176 4.824,19.859 4.562,19.498 L3.348,20.38 C3.703,20.868 4.132,21.297 4.62,21.652 L5.502,20.438 Z M20.25,13 C20.25,14.892 20.249,16.25 20.135,17.302 C20.023,18.34 19.807,18.99 19.438,19.498 L20.652,20.38 C21.238,19.573 21.5,18.629 21.626,17.463 C21.751,16.312 21.75,14.858 21.75,13 L20.25,13 Z M12,22.75 C13.858,22.75 15.312,22.751 16.463,22.626 C17.629,22.5 18.573,22.238 19.38,21.652 L18.498,20.438 C17.99,20.807 17.34,21.023 16.302,21.135 C15.25,21.249 13.892,21.25 12,21.25 L12,22.75 Z M19.438,19.498 C19.176,19.859 18.859,20.176 18.498,20.438 L19.38,21.652 C19.868,21.297 20.297,20.868 20.652,20.38 L19.438,19.498 Z M18.498,5.562 C18.859,5.824 19.176,6.141 19.438,6.502 L20.652,5.62 C20.297,5.132 19.868,4.703 19.38,4.348 L18.498,5.562 Z M12,3.25 C10.142,3.25 8.688,3.249 7.536,3.374 C6.371,3.5 5.427,3.762 4.62,4.348 L5.502,5.562 C6.01,5.193 6.66,4.977 7.698,4.865 C8.75,4.751 10.108,4.75 12,4.75 L12,3.25 Z M4.62,4.348 C4.132,4.703 3.703,5.132 3.348,5.62 L4.562,6.502 C4.824,6.141 5.141,5.824 5.502,5.562 L4.62,4.348 Z M16.75,4 L16.75,2 L15.25,2 L15.25,4 L16.75,4 Z M14,14.75 L18,14.75 L18,13.25 L14,13.25 L14,14.75 Z M14,17.75 L18,17.75 L18,16.25 L14,16.25 L14,17.75 Z M10.25,15.5 C10.25,16.466 9.466,17.25 8.5,17.25 L8.5,18.75 C10.295,18.75 11.75,17.295 11.75,15.5 L10.25,15.5 Z M8.5,17.25 C7.534,17.25 6.75,16.466 6.75,15.5 L5.25,15.5 C5.25,17.295 6.705,18.75 8.5,18.75 L8.5,17.25 Z M6.75,15.5 C6.75,14.534 7.534,13.75 8.5,13.75 L8.5,12.25 C6.705,12.25 5.25,13.705 5.25,15.5 L6.75,15.5 Z M8.5,13.75 C9.466,13.75 10.25,14.534 10.25,15.5 L11.75,15.5 C11.75,13.705 10.295,12.25 8.5,12.25 L8.5,13.75 Z M3.75,13 C3.75,11.324 3.751,10.064 3.831,9.06 L2.336,8.94 C2.249,10.017 2.25,11.347 2.25,13 L3.75,13 Z M3.831,9.06 C3.932,7.808 4.151,7.067 4.562,6.502 L3.348,5.62 C2.697,6.517 2.445,7.585 2.336,8.94 L3.831,9.06 Z M12,4.75 C13.676,4.75 14.936,4.751 15.94,4.831 L16.06,3.336 C14.983,3.249 13.653,3.25 12,3.25 L12,4.75 Z M15.94,4.831 C17.192,4.932 17.933,5.151 18.498,5.562 L19.38,4.348 C18.483,3.697 17.415,3.445 16.06,3.336 L15.94,4.831 Z M15.25,4 L15.25,4.084 L16.75,4.084 L16.75,4 L15.25,4 Z M20.916,8.25 L3.084,8.25 L3.084,9.75 L20.916,9.75 L20.916,8.25 Z M21.75,13 C21.75,11.347 21.751,10.017 21.664,8.94 L20.169,9.06 C20.249,10.064 20.25,11.324 20.25,13 L21.75,13 Z M21.664,8.94 C21.555,7.585 21.303,6.517 20.652,5.62 L19.438,6.502 C19.849,7.067 20.068,7.808 20.169,9.06 L21.664,8.94 Z"/>
</svg>

