<svg xmlns="http://www.w3.org/2000/svg" width="24" height="24" viewBox="0 0 24 24">
  <defs/>
  <path fill="#2D264B" d="M16.75,2 C16.75,1.586 16.414,1.25 16,1.25 C15.586,1.25 15.25,1.586 15.25,2 L15.25,3.288 C14.341,3.25 13.279,3.25 12.031,3.25 L11.955,3.25 C10.118,3.25 8.679,3.25 7.536,3.374 C6.371,3.5 5.427,3.762 4.62,4.348 C4.132,4.703 3.703,5.132 3.348,5.62 C2.812,6.359 2.546,7.214 2.408,8.25 L21.592,8.25 C21.454,7.214 21.188,6.359 20.652,5.62 C20.297,5.132 19.868,4.703 19.38,4.348 C18.641,3.812 17.786,3.546 16.75,3.408 L16.75,2 Z"/>
  <path fill="#2D264B" d="M8.5,13.75 C7.534,13.75 6.75,14.534 6.75,15.5 C6.75,16.466 7.534,17.25 8.5,17.25 C9.466,17.25 10.25,16.466 10.25,15.5 C10.25,14.534 9.466,13.75 8.5,13.75 Z"/>
  <path fill="#2D264B" d="M21.712,9.75 C21.75,10.659 21.75,11.721 21.75,12.969 L21.75,13.045 C21.75,14.882 21.75,16.321 21.626,17.463 C21.5,18.629 21.238,19.573 20.652,20.38 C20.297,20.868 19.868,21.297 19.38,21.652 C18.573,22.238 17.629,22.5 16.463,22.626 C15.321,22.75 13.882,22.75 12.045,22.75 L11.955,22.75 C10.118,22.75 8.679,22.75 7.536,22.626 C6.371,22.5 5.427,22.238 4.62,21.652 C4.132,21.297 3.703,20.868 3.348,20.38 C2.762,19.573 2.5,18.629 2.374,17.463 C2.25,16.321 2.25,14.882 2.25,13.045 L2.25,12.969 C2.25,11.721 2.25,10.659 2.288,9.75 Z M5.25,15.5 C5.25,17.295 6.705,18.75 8.5,18.75 C10.295,18.75 11.75,17.295 11.75,15.5 C11.75,13.705 10.295,12.25 8.5,12.25 C6.705,12.25 5.25,13.705 5.25,15.5 Z M13.25,14 C13.25,14.414 13.586,14.75 14,14.75 L18,14.75 C18.414,14.75 18.75,14.414 18.75,14 C18.75,13.586 18.414,13.25 18,13.25 L14,13.25 C13.586,13.25 13.25,13.586 13.25,14 Z M13.25,17 C13.25,17.414 13.586,17.75 14,17.75 L18,17.75 C18.414,17.75 18.75,17.414 18.75,17 C18.75,16.586 18.414,16.25 18,16.25 L14,16.25 C13.586,16.25 13.25,16.586 13.25,17 Z"/>
</svg>

