<svg xmlns="http://www.w3.org/2000/svg" width="24" height="24" viewBox="0 0 24 24">
  <defs/>
  <path fill="#2D264B" d="M16.942,4.467 C16.648,4.176 16.173,4.178 15.881,4.472 C15.59,4.766 15.592,5.241 15.886,5.533 L17.297,6.931 C17.871,7.5 18.257,7.884 18.516,8.206 C18.519,8.21 18.522,8.214 18.525,8.218 C18.533,8.229 18.542,8.239 18.55,8.25 L10,8.25 C6.824,8.25 4.25,10.824 4.25,14 C4.25,17.176 6.824,19.75 10,19.75 L18,19.75 C18.414,19.75 18.75,19.414 18.75,19 C18.75,18.586 18.414,18.25 18,18.25 L10,18.25 C7.653,18.25 5.75,16.347 5.75,14 C5.75,11.653 7.653,9.75 10,9.75 L18.55,9.75 C18.539,9.764 18.528,9.779 18.516,9.794 C18.257,10.116 17.871,10.5 17.297,11.069 L15.886,12.467 C15.592,12.759 15.59,13.234 15.881,13.528 C16.173,13.822 16.648,13.824 16.942,13.533 L18.383,12.104 C18.919,11.573 19.366,11.13 19.685,10.733 C20.02,10.316 20.274,9.879 20.342,9.345 C20.357,9.231 20.364,9.115 20.364,9 C20.364,8.885 20.357,8.769 20.342,8.655 C20.274,8.121 20.02,7.684 19.685,7.267 C19.366,6.87 18.919,6.427 18.383,5.896 L16.942,4.467 Z"/>
</svg>

