<svg xmlns="http://www.w3.org/2000/svg" width="24" height="24" viewBox="0 0 24 24">
  <defs/>
  <path fill="#2D264B" d="M15.886,12.467 C15.592,12.759 15.59,13.234 15.881,13.528 C16.173,13.822 16.648,13.824 16.942,13.533 L15.886,12.467 Z M16.942,4.467 C16.648,4.176 16.173,4.178 15.881,4.472 C15.59,4.766 15.592,5.241 15.886,5.533 L16.942,4.467 Z M18,19.75 C18.414,19.75 18.75,19.414 18.75,19 C18.75,18.586 18.414,18.25 18,18.25 L18,19.75 Z M16.942,13.533 L18.352,12.135 L17.297,11.069 L15.886,12.467 L16.942,13.533 Z M18.352,5.865 L16.942,4.467 L15.886,5.533 L17.297,6.931 L18.352,5.865 Z M18.352,12.135 C18.902,11.59 19.36,11.137 19.685,10.733 C20.02,10.316 20.274,9.879 20.342,9.345 L18.854,9.156 C18.835,9.302 18.765,9.483 18.516,9.794 C18.257,10.116 17.871,10.5 17.297,11.069 L18.352,12.135 Z M17.297,6.931 C17.871,7.5 18.257,7.884 18.516,8.206 C18.765,8.517 18.835,8.698 18.854,8.844 L20.342,8.655 C20.274,8.121 20.02,7.684 19.685,7.267 C19.36,6.863 18.902,6.41 18.352,5.865 L17.297,6.931 Z M19,8.25 L10,8.25 L10,9.75 L19,9.75 L19,8.25 Z M10,19.75 L18,19.75 L18,18.25 L10,18.25 L10,19.75 Z M4.25,14 C4.25,17.176 6.824,19.75 10,19.75 L10,18.25 C7.653,18.25 5.75,16.347 5.75,14 L4.25,14 Z M10,8.25 C6.824,8.25 4.25,10.824 4.25,14 L5.75,14 C5.75,11.653 7.653,9.75 10,9.75 L10,8.25 Z M20.342,9.345 C20.357,9.231 20.364,9.115 20.364,9 L18.864,9 C18.864,9.052 18.861,9.104 18.854,9.156 L20.342,9.345 Z M20.364,9 C20.364,8.885 20.357,8.769 20.342,8.655 L18.854,8.844 C18.861,8.896 18.864,8.948 18.864,9 L20.364,9 Z M19,9.75 L19.614,9.75 L19.614,8.25 L19,8.25 L19,9.75 Z"/>
</svg>

