<svg width="24" height="24" viewBox="0 0 24 24" fill="none" xmlns="http://www.w3.org/2000/svg">
<path d="M16.942 4.46731C16.6478 4.17573 16.173 4.17784 15.8814 4.47204C15.5898 4.76624 15.5919 5.24111 15.8861 5.53269L17.2965 6.93054C17.8714 7.50033 18.2567 7.88386 18.5158 8.20649C18.5188 8.21019 18.5217 8.21387 18.5247 8.21753C18.5334 8.22852 18.542 8.23934 18.5503 8.25H10C6.82436 8.25 4.25 10.8244 4.25 14C4.25 17.1756 6.82436 19.75 10 19.75H18C18.4142 19.75 18.75 19.4142 18.75 19C18.75 18.5858 18.4142 18.25 18 18.25H10C7.65279 18.25 5.75 16.3472 5.75 14C5.75 11.6528 7.65279 9.75 10 9.75H18.5503C18.5392 9.76422 18.5277 9.77872 18.5158 9.79351C18.2567 10.1161 17.8714 10.4997 17.2965 11.0695L15.8861 12.4673C15.5919 12.7589 15.5898 13.2338 15.8814 13.528C16.173 13.8222 16.6478 13.8243 16.942 13.5327L18.3831 12.1044C18.9193 11.573 19.3665 11.1298 19.6854 10.7328C20.0198 10.3163 20.2742 9.87869 20.3421 9.3455C20.3567 9.23079 20.3641 9.1154 20.3641 9C20.3641 8.88461 20.3568 8.76921 20.3421 8.65451C20.2742 8.12131 20.0198 7.68366 19.6854 7.26724C19.3665 6.87022 18.9193 6.42704 18.3832 5.89566L16.942 4.46731Z" fill="#2D264B"/>
</svg>
