<svg xmlns="http://www.w3.org/2000/svg" width="24" height="24" viewBox="0 0 24 24">
  <defs/>
  <path fill="#2D264B" d="M2.75,12 C2.75,11.586 2.414,11.25 2,11.25 C1.586,11.25 1.25,11.586 1.25,12 L2.75,12 Z M21.25,12 C21.25,12.414 21.586,12.75 22,12.75 C22.414,12.75 22.75,12.414 22.75,12 L21.25,12 Z M4.4,5.5 L4.94,6.02 L4.956,6.005 L4.97,5.988 L4.4,5.5 Z M19.6,18.5 L20.169,18.988 L20.179,18.977 L20.187,18.966 L19.6,18.5 Z M4.013,1.003 C4.015,0.589 3.68,0.252 3.266,0.25 C2.852,0.248 2.515,0.582 2.513,0.997 L4.013,1.003 Z M8.923,7.407 C9.337,7.405 9.671,7.068 9.67,6.654 C9.668,6.239 9.33,5.905 8.916,5.907 L8.923,7.407 Z M19.907,22.916 C19.905,23.331 20.239,23.668 20.654,23.67 C21.068,23.671 21.405,23.337 21.407,22.923 L19.907,22.916 Z M14.997,16.513 C14.582,16.515 14.248,16.852 14.25,17.266 C14.252,17.68 14.589,18.015 15.003,18.013 L14.997,16.513 Z M12,21.25 C6.891,21.25 2.75,17.109 2.75,12 L1.25,12 C1.25,17.937 6.063,22.75 12,22.75 L12,21.25 Z M12,2.75 C17.109,2.75 21.25,6.891 21.25,12 L22.75,12 C22.75,6.063 17.937,1.25 12,1.25 L12,2.75 Z M4.97,5.988 C6.668,4.005 9.187,2.75 12,2.75 L12,1.25 C8.73,1.25 5.801,2.711 3.831,5.012 L4.97,5.988 Z M19.03,18.012 C17.332,19.995 14.813,21.25 12,21.25 L12,22.75 C15.27,22.75 18.199,21.289 20.169,18.988 L19.03,18.012 Z M2.513,0.997 L2.504,2.982 L4.004,2.989 L4.013,1.003 L2.513,0.997 Z M6.937,7.416 L8.923,7.407 L8.916,5.907 L6.93,5.916 L6.937,7.416 Z M2.504,2.982 C2.5,3.757 2.496,4.401 2.553,4.916 C2.611,5.447 2.74,5.937 3.069,6.362 L4.256,5.444 C4.165,5.327 4.087,5.15 4.044,4.754 C3.999,4.342 4,3.798 4.004,2.989 L2.504,2.982 Z M6.93,5.916 C6.121,5.919 5.577,5.921 5.166,5.876 C4.77,5.832 4.592,5.754 4.476,5.664 L3.558,6.85 C3.983,7.179 4.472,7.309 5.003,7.367 C5.519,7.423 6.163,7.419 6.937,7.416 L6.93,5.916 Z M21.407,22.923 L21.416,20.937 L19.916,20.93 L19.907,22.916 L21.407,22.923 Z M16.982,16.504 L14.997,16.513 L15.003,18.013 L16.989,18.004 L16.982,16.504 Z M21.416,20.937 C21.419,20.163 21.423,19.519 21.367,19.003 C21.309,18.472 21.179,17.983 20.85,17.558 L19.664,18.476 C19.754,18.593 19.832,18.77 19.876,19.166 C19.921,19.577 19.919,20.121 19.916,20.93 L21.416,20.937 Z M16.989,18.004 C17.799,18 18.342,17.999 18.753,18.044 C19.15,18.087 19.327,18.165 19.444,18.256 L20.362,17.069 C19.937,16.74 19.447,16.611 18.916,16.553 C18.401,16.496 17.756,16.5 16.982,16.504 L16.989,18.004 Z M3.069,6.362 C3.14,6.454 3.217,6.541 3.3,6.623 L4.359,5.562 C4.322,5.525 4.288,5.485 4.256,5.444 L3.069,6.362 Z M3.3,6.623 C3.381,6.704 3.467,6.78 3.558,6.85 L4.476,5.664 C4.435,5.632 4.396,5.598 4.359,5.562 L3.3,6.623 Z M3.86,4.98 L3.29,5.572 L4.37,6.613 L4.94,6.02 L3.86,4.98 Z M20.85,17.558 C20.788,17.478 20.723,17.402 20.652,17.329 L19.575,18.373 C19.606,18.406 19.636,18.44 19.664,18.476 L20.85,17.558 Z M20.652,17.329 C20.562,17.236 20.465,17.149 20.362,17.069 L19.444,18.256 C19.49,18.291 19.534,18.331 19.575,18.373 L20.652,17.329 Z M20.187,18.966 L20.701,18.317 L19.526,17.386 L19.012,18.034 L20.187,18.966 Z"/>
</svg>

