<svg width="24" height="24" viewBox="0 0 24 24" fill="none" xmlns="http://www.w3.org/2000/svg">
<path fill-rule="evenodd" clip-rule="evenodd" d="M4.01269 1.00335C4.01454 0.589137 3.68025 0.251856 3.26604 0.250008C2.85183 0.24816 2.51455 0.582445 2.5127 0.996654L2.50365 3.02568C2.50026 3.78057 2.49743 4.41015 2.55271 4.91635C2.61069 5.44728 2.74029 5.93661 3.06926 6.36169C3.14048 6.45372 3.21743 6.54101 3.29962 6.62306C3.38076 6.70408 3.467 6.77998 3.55786 6.85029C3.98294 7.17926 4.47227 7.30886 5.0032 7.36684C5.50939 7.42211 6.13897 7.41929 6.89383 7.4159L8.9229 7.40685C9.3371 7.405 9.67139 7.06772 9.66954 6.65351C9.66769 6.2393 9.33041 5.90501 8.9162 5.90686L6.93049 5.91572C6.12107 5.91933 5.57738 5.92062 5.16604 5.8757C5.13511 5.87232 5.10551 5.86873 5.07717 5.86494C6.77277 3.9531 9.2455 2.75 12 2.75C17.1086 2.75 21.25 6.89137 21.25 12C21.25 12.4142 21.5858 12.75 22 12.75C22.4142 12.75 22.75 12.4142 22.75 12C22.75 6.06294 17.9371 1.25 12 1.25C8.84724 1.25 6.01093 2.60807 4.04555 4.76878L4.04385 4.75351C3.99893 4.34217 4.00022 3.79848 4.00383 2.98906L4.01269 1.00335Z" fill="#2D264B"/>
<path d="M2.75 12C2.75 11.5858 2.41421 11.25 2 11.25C1.58579 11.25 1.25 11.5858 1.25 12C1.25 17.9371 6.06294 22.75 12 22.75C15.1177 22.75 17.926 21.4219 19.8886 19.303C19.9203 19.6969 19.919 20.2078 19.9157 20.9305L19.9069 22.9162C19.905 23.3305 20.2393 23.6677 20.6535 23.6696C21.0677 23.6714 21.405 23.3371 21.4069 22.9229L21.4159 20.8939C21.4193 20.139 21.4221 19.5094 21.3668 19.0032C21.3089 18.4723 21.1793 17.983 20.8503 17.5579C20.7885 17.4781 20.7225 17.4019 20.6524 17.3295C20.5619 17.2361 20.4648 17.1491 20.3617 17.0693C19.9366 16.7403 19.4473 16.6107 18.9164 16.5528C18.4102 16.4975 17.7806 16.5003 17.0257 16.5037L14.9967 16.5127C14.5824 16.5146 14.2482 16.8519 14.25 17.2661C14.2519 17.6803 14.5891 18.0146 15.0034 18.0127L16.9891 18.0039C17.7985 18.0003 18.3422 17.999 18.7535 18.0439C18.8365 18.053 18.91 18.0636 18.9752 18.0755C17.2784 20.0219 14.783 21.25 12 21.25C6.89137 21.25 2.75 17.1086 2.75 12Z" fill="#2D264B"/>
</svg>
