<svg xmlns="http://www.w3.org/2000/svg" width="24" height="24" viewBox="0 0 24 24">
  <defs/>
  <path fill="#2D264B" d="M1.25,12 C1.25,12.414 1.586,12.75 2,12.75 C2.414,12.75 2.75,12.414 2.75,12 L1.25,12 Z M22.75,12 C22.75,11.586 22.414,11.25 22,11.25 C21.586,11.25 21.25,11.586 21.25,12 L22.75,12 Z M4.97,18.012 C4.701,17.698 4.227,17.661 3.913,17.93 C3.598,18.2 3.561,18.673 3.831,18.988 L4.97,18.012 Z M19.03,5.988 C19.299,6.302 19.773,6.339 20.087,6.07 C20.402,5.8 20.439,5.327 20.169,5.012 L19.03,5.988 Z M21.406,0.997 C21.404,0.582 21.067,0.248 20.653,0.25 C20.238,0.252 19.904,0.589 19.906,1.003 L21.406,0.997 Z M15.002,5.907 C14.588,5.905 14.251,6.239 14.249,6.654 C14.247,7.068 14.582,7.405 14.996,7.407 L15.002,5.907 Z M2.512,22.923 C2.514,23.337 2.851,23.671 3.265,23.67 C3.679,23.668 4.014,23.331 4.012,22.916 L2.512,22.923 Z M8.915,18.013 C9.33,18.015 9.667,17.68 9.669,17.266 C9.671,16.852 9.336,16.515 8.922,16.513 L8.915,18.013 Z M12,1.25 C6.063,1.25 1.25,6.063 1.25,12 L2.75,12 C2.75,6.891 6.891,2.75 12,2.75 L12,1.25 Z M12,22.75 C17.937,22.75 22.75,17.937 22.75,12 L21.25,12 C21.25,17.109 17.109,21.25 12,21.25 L12,22.75 Z M3.831,18.988 C5.801,21.289 8.73,22.75 12,22.75 L12,21.25 C9.187,21.25 6.668,19.995 4.97,18.012 L3.831,18.988 Z M20.169,5.012 C18.199,2.711 15.27,1.25 12,1.25 L12,2.75 C14.813,2.75 17.332,4.005 19.03,5.988 L20.169,5.012 Z M19.906,1.003 L19.915,2.989 L21.415,2.982 L21.406,0.997 L19.906,1.003 Z M16.988,5.916 L15.002,5.907 L14.996,7.407 L16.982,7.416 L16.988,5.916 Z M19.915,2.989 C19.919,3.798 19.92,4.342 19.875,4.754 C19.832,5.15 19.753,5.327 19.663,5.444 L20.849,6.362 C21.178,5.937 21.308,5.447 21.366,4.916 C21.422,4.401 21.418,3.757 21.415,2.982 L19.915,2.989 Z M16.982,7.416 C17.756,7.419 18.4,7.423 18.916,7.367 C19.446,7.309 19.936,7.179 20.361,6.85 L19.443,5.664 C19.326,5.754 19.149,5.832 18.753,5.876 C18.341,5.921 17.798,5.919 16.988,5.916 L16.982,7.416 Z M19.663,5.444 C19.599,5.526 19.525,5.6 19.443,5.664 L20.361,6.85 C20.544,6.709 20.708,6.545 20.849,6.362 L19.663,5.444 Z M4.012,22.916 L4.003,20.93 L2.503,20.937 L2.512,22.923 L4.012,22.916 Z M6.93,18.004 L8.915,18.013 L8.922,16.513 L6.936,16.504 L6.93,18.004 Z M4.003,20.93 C3.999,20.121 3.998,19.577 4.043,19.166 C4.086,18.77 4.164,18.593 4.255,18.476 L3.068,17.558 C2.739,17.983 2.61,18.472 2.552,19.003 C2.496,19.519 2.5,20.163 2.503,20.937 L4.003,20.93 Z M6.936,16.504 C6.162,16.5 5.518,16.496 5.002,16.553 C4.471,16.611 3.982,16.74 3.557,17.069 L4.475,18.256 C4.592,18.165 4.769,18.087 5.165,18.044 C5.577,17.999 6.12,18 6.93,18.004 L6.936,16.504 Z M4.255,18.476 C4.319,18.393 4.393,18.319 4.475,18.256 L3.557,17.069 C3.374,17.211 3.21,17.375 3.068,17.558 L4.255,18.476 Z"/>
</svg>

