<svg width="24" height="24" viewBox="0 0 24 24" fill="none" xmlns="http://www.w3.org/2000/svg">
<path d="M21.406 0.996654C21.4042 0.582445 21.0669 0.24816 20.6527 0.250008C20.2385 0.251856 19.9042 0.589137 19.906 1.00335L19.9149 2.98906C19.9183 3.75704 19.9196 4.28579 19.8814 4.68926C17.9191 2.57481 15.1139 1.25 12 1.25C6.06294 1.25 1.25 6.06294 1.25 12C1.25 12.4142 1.58579 12.75 2 12.75C2.41421 12.75 2.75 12.4142 2.75 12C2.75 6.89137 6.89137 2.75 12 2.75C14.7495 2.75 17.2182 3.9487 18.9135 5.85445C18.8643 5.86224 18.8108 5.86935 18.7527 5.8757C18.3413 5.92062 17.7976 5.91933 16.9882 5.91572L15.0025 5.90686C14.5883 5.90501 14.251 6.2393 14.2492 6.65351C14.2473 7.06772 14.5816 7.405 14.9958 7.40685L17.0248 7.4159C17.7797 7.41929 18.4093 7.42211 18.9155 7.36684C19.4464 7.30886 19.9358 7.17926 20.3608 6.85029C20.5437 6.70875 20.7079 6.54459 20.8494 6.36169C21.1784 5.93661 21.308 5.44728 21.366 4.91635C21.4213 4.41017 21.4184 3.7806 21.4151 3.02573L21.406 0.996654Z" fill="#2D264B"/>
<path d="M22.75 12C22.75 11.5858 22.4142 11.25 22 11.25C21.5858 11.25 21.25 11.5858 21.25 12C21.25 17.1086 17.1086 21.25 12 21.25C9.21132 21.25 6.71144 20.0169 5.0144 18.0636C5.06084 18.0564 5.11096 18.0498 5.16519 18.0439C5.57653 17.999 6.12022 18.0003 6.92964 18.0039L8.91535 18.0127C9.32956 18.0146 9.66684 17.6803 9.66869 17.2661C9.67054 16.8519 9.33625 16.5146 8.92204 16.5127L6.89302 16.5037C6.13816 16.5003 5.50853 16.4975 5.00235 16.5528C4.47142 16.6107 3.98209 16.7403 3.55701 17.0693C3.37411 17.2108 3.20995 17.375 3.06841 17.5579C2.73944 17.983 2.60984 18.4723 2.55186 19.0032C2.49658 19.5094 2.49941 20.139 2.5028 20.8939L2.51185 22.9229C2.5137 23.3371 2.85098 23.6714 3.26519 23.6696C3.6794 23.6677 4.01368 23.3305 4.01184 22.9162L4.00298 20.9305C3.99953 20.1573 3.9982 19.6266 4.03724 19.2221C6.00294 21.3881 8.8428 22.75 12 22.75C17.9371 22.75 22.75 17.9371 22.75 12Z" fill="#2D264B"/>
</svg>
