<svg xmlns="http://www.w3.org/2000/svg" width="24" height="24" viewBox="0 0 24 24">
  <defs/>
  <path fill="#2D264B" d="M21.406,0.997 C21.404,0.582 21.067,0.248 20.653,0.25 C20.238,0.252 19.904,0.589 19.906,1.003 L19.915,2.989 C19.918,3.757 19.92,4.286 19.881,4.689 C17.919,2.575 15.114,1.25 12,1.25 C6.063,1.25 1.25,6.063 1.25,12 C1.25,12.414 1.586,12.75 2,12.75 C2.414,12.75 2.75,12.414 2.75,12 C2.75,6.891 6.891,2.75 12,2.75 C14.749,2.75 17.218,3.949 18.913,5.854 C18.864,5.862 18.811,5.869 18.753,5.876 C18.341,5.921 17.798,5.919 16.988,5.916 L15.002,5.907 C14.588,5.905 14.251,6.239 14.249,6.654 C14.247,7.068 14.582,7.405 14.996,7.407 L17.025,7.416 C17.78,7.419 18.409,7.422 18.916,7.367 C19.446,7.309 19.936,7.179 20.361,6.85 C20.544,6.709 20.708,6.545 20.849,6.362 C21.178,5.937 21.308,5.447 21.366,4.916 C21.421,4.41 21.418,3.781 21.415,3.026 L21.406,0.997 Z"/>
  <path fill="#2D264B" d="M22.75,12 C22.75,11.586 22.414,11.25 22,11.25 C21.586,11.25 21.25,11.586 21.25,12 C21.25,17.109 17.109,21.25 12,21.25 C9.211,21.25 6.711,20.017 5.014,18.064 C5.061,18.056 5.111,18.05 5.165,18.044 C5.577,17.999 6.12,18 6.93,18.004 L8.915,18.013 C9.33,18.015 9.667,17.68 9.669,17.266 C9.671,16.852 9.336,16.515 8.922,16.513 L6.893,16.504 C6.138,16.5 5.509,16.497 5.002,16.553 C4.471,16.611 3.982,16.74 3.557,17.069 C3.374,17.211 3.21,17.375 3.068,17.558 C2.739,17.983 2.61,18.472 2.552,19.003 C2.497,19.509 2.499,20.139 2.503,20.894 L2.512,22.923 C2.514,23.337 2.851,23.671 3.265,23.67 C3.679,23.668 4.014,23.331 4.012,22.916 L4.003,20.93 C4,20.157 3.998,19.627 4.037,19.222 C6.003,21.388 8.843,22.75 12,22.75 C17.937,22.75 22.75,17.937 22.75,12 Z"/>
</svg>

