<svg xmlns="http://www.w3.org/2000/svg" width="24" height="24" viewBox="0 0 24 24">
  <defs/>
  <path fill="#2D264B" d="M4.013,1.003 L4.004,2.989 C4,3.798 3.999,4.342 4.044,4.754 L4.046,4.769 C6.011,2.608 8.847,1.25 12,1.25 C17.937,1.25 22.75,6.063 22.75,12 C22.75,12.414 22.414,12.75 22,12.75 C21.586,12.75 21.25,12.414 21.25,12 C21.25,6.891 17.109,2.75 12,2.75 C9.245,2.75 6.773,3.953 5.077,5.865 C5.106,5.869 5.135,5.872 5.166,5.876 C5.577,5.921 6.121,5.919 6.93,5.916 L8.916,5.907 C9.33,5.905 9.668,6.239 9.67,6.654 C9.671,7.068 9.337,7.405 8.923,7.407 L6.894,7.416 C6.139,7.419 5.509,7.422 5.003,7.367 C4.472,7.309 3.983,7.179 3.558,6.85 C3.467,6.78 3.381,6.704 3.3,6.623 C3.217,6.541 3.14,6.454 3.069,6.362 C2.74,5.937 2.611,5.447 2.553,4.916 C2.497,4.41 2.5,3.781 2.504,3.026 L2.504,3.026 L2.513,0.997 C2.515,0.582 2.852,0.248 3.266,0.25 C3.68,0.252 4.015,0.589 4.013,1.003 Z"/>
  <path fill="#2D264B" d="M2.75,12 C2.75,11.586 2.414,11.25 2,11.25 C1.586,11.25 1.25,11.586 1.25,12 C1.25,17.937 6.063,22.75 12,22.75 C15.118,22.75 17.926,21.422 19.889,19.303 C19.92,19.697 19.919,20.208 19.916,20.93 L19.907,22.916 C19.905,23.331 20.239,23.668 20.654,23.67 C21.068,23.671 21.405,23.337 21.407,22.923 L21.416,20.894 C21.419,20.139 21.422,19.509 21.367,19.003 C21.309,18.472 21.179,17.983 20.85,17.558 C20.788,17.478 20.723,17.402 20.652,17.329 C20.562,17.236 20.465,17.149 20.362,17.069 C19.937,16.74 19.447,16.611 18.916,16.553 C18.41,16.497 17.781,16.5 17.026,16.504 L14.997,16.513 C14.582,16.515 14.248,16.852 14.25,17.266 C14.252,17.68 14.589,18.015 15.003,18.013 L16.989,18.004 C17.799,18 18.342,17.999 18.753,18.044 C18.837,18.053 18.91,18.064 18.975,18.076 C17.278,20.022 14.783,21.25 12,21.25 C6.891,21.25 2.75,17.109 2.75,12 Z"/>
</svg>

