<svg width="24" height="24" viewBox="0 0 24 24" fill="none" xmlns="http://www.w3.org/2000/svg">
<path d="M13.7213 2.52827C13.461 2.26792 13.0389 2.26792 12.7785 2.52827C12.5182 2.78862 12.5182 3.21073 12.7785 3.47108L13.6405 4.33301L11.8521 4.333C10.1322 4.33278 9.10354 4.33265 8.24885 4.61035C6.5237 5.17089 5.17116 6.52343 4.61062 8.24858C4.33292 9.10327 4.33305 10.1319 4.33326 11.8519V12.1475C4.33305 13.8675 4.33292 14.8961 4.61062 15.7508C4.7244 16.1009 5.1005 16.2926 5.45067 16.1788C5.80084 16.065 5.99248 15.6889 5.8787 15.3387C5.67483 14.7113 5.66661 13.9128 5.66661 11.9997C5.66661 10.0865 5.67483 9.28803 5.8787 8.6606C6.30734 7.34137 7.34164 6.30707 8.66087 5.87843C9.2883 5.67457 10.0868 5.66634 11.9999 5.66634H13.4086L12.5732 6.36253C12.2903 6.59824 12.2521 7.01861 12.4878 7.30146C12.7235 7.58432 13.1439 7.62253 13.4267 7.38682L14.8355 6.21284C15.2015 5.90786 15.4022 5.48019 15.4314 5.04436C15.4623 4.58465 15.3028 4.10976 14.947 3.75397L13.7213 2.52827Z" fill="#2D264B"/>
<path d="M20.3917 7.80141C20.2822 7.44988 19.9085 7.25367 19.557 7.36317C19.2054 7.47267 19.0092 7.8464 19.1187 8.19793C19.3257 8.8623 19.3333 9.70611 19.3333 11.6977C19.3333 13.6893 19.3257 14.5331 19.1187 15.1975C18.685 16.59 17.6431 17.6683 16.331 18.113C15.7081 18.3241 14.915 18.333 12.9999 18.333H11.6094L12.4713 17.4711C12.7317 17.2107 12.7317 16.7886 12.4713 16.5283C12.211 16.2679 11.7889 16.2679 11.5285 16.5283L10.3028 17.754C9.94705 18.1098 9.78756 18.5847 9.81845 19.0444C9.84772 19.4802 10.0484 19.9079 10.4144 20.2128L11.8232 21.3868C12.106 21.6225 12.5264 21.5843 12.7621 21.3015C12.9978 21.0186 12.9596 20.5982 12.6767 20.3625L11.8413 19.6663L13.1517 19.6664C14.8677 19.6666 15.9006 19.6667 16.759 19.3758C18.4914 18.7886 19.8363 17.3771 20.3917 15.594C20.6669 14.7105 20.6668 13.6459 20.6666 11.8429V11.5525C20.6668 9.74947 20.6669 8.68491 20.3917 7.80141Z" fill="#2D264B"/>
</svg>
