<svg xmlns="http://www.w3.org/2000/svg" width="24" height="24" viewBox="0 0 24 24">
  <defs/>
  <path fill="#2D264B" d="M4.611,15.751 C4.724,16.101 5.101,16.293 5.451,16.179 C5.801,16.065 5.993,15.689 5.879,15.339 L4.611,15.751 Z M12.471,17.471 C12.732,17.211 12.732,16.789 12.471,16.529 C12.211,16.268 11.789,16.268 11.529,16.529 L12.471,17.471 Z M11.823,21.387 C12.106,21.623 12.526,21.585 12.762,21.302 C12.998,21.019 12.96,20.599 12.677,20.363 L11.823,21.387 Z M13.721,2.529 C13.461,2.268 13.039,2.268 12.779,2.529 C12.518,2.789 12.518,3.211 12.779,3.471 L13.721,2.529 Z M12.573,6.363 C12.29,6.599 12.252,7.019 12.488,7.302 C12.724,7.585 13.144,7.623 13.427,7.387 L12.573,6.363 Z M20.392,7.802 C20.282,7.45 19.909,7.254 19.557,7.363 C19.206,7.473 19.009,7.847 19.119,8.198 L20.392,7.802 Z M12,5.667 L14,5.667 L14,4.333 L12,4.333 L12,5.667 Z M4.333,12 C4.333,13.809 4.325,14.872 4.611,15.751 L5.879,15.339 C5.675,14.712 5.667,13.913 5.667,12 L4.333,12 Z M12,4.333 C10.191,4.333 9.128,4.325 8.249,4.611 L8.661,5.879 C9.288,5.675 10.087,5.667 12,5.667 L12,4.333 Z M5.667,12 C5.667,10.087 5.675,9.288 5.879,8.661 L4.611,8.249 C4.325,9.128 4.333,10.191 4.333,12 L5.667,12 Z M8.249,4.611 C6.524,5.171 5.171,6.524 4.611,8.249 L5.879,8.661 C6.307,7.342 7.342,6.307 8.661,5.879 L8.249,4.611 Z M11.529,16.529 L10.303,17.754 L11.246,18.697 L12.471,17.471 L11.529,16.529 Z M10.414,20.213 L11.823,21.387 L12.677,20.363 L11.268,19.189 L10.414,20.213 Z M12.779,3.471 L14.004,4.697 L14.947,3.754 L13.721,2.529 L12.779,3.471 Z M13.982,5.189 L12.573,6.363 L13.427,7.387 L14.836,6.213 L13.982,5.189 Z M13,18.333 L11,18.333 L11,19.667 L13,19.667 L13,18.333 Z M20.667,11.698 C20.667,9.806 20.674,8.709 20.392,7.802 L19.119,8.198 C19.326,8.863 19.333,9.706 19.333,11.698 L20.667,11.698 Z M13,19.667 C14.807,19.667 15.876,19.675 16.759,19.376 L16.331,18.113 C15.708,18.325 14.915,18.333 13,18.333 L13,19.667 Z M19.333,11.698 C19.333,13.69 19.326,14.533 19.119,15.198 L20.392,15.594 C20.674,14.687 20.667,13.59 20.667,11.698 L19.333,11.698 Z M16.759,19.376 C18.491,18.789 19.836,17.378 20.392,15.594 L19.119,15.198 C18.685,16.59 17.643,17.669 16.331,18.113 L16.759,19.376 Z M10.303,17.754 C9.947,18.11 9.788,18.585 9.819,19.045 L11.149,18.955 C11.143,18.861 11.175,18.768 11.246,18.697 L10.303,17.754 Z M9.819,19.045 C9.848,19.48 10.049,19.908 10.414,20.213 L11.268,19.189 C11.194,19.128 11.155,19.044 11.149,18.955 L9.819,19.045 Z M11,18.333 L10.484,18.333 L10.484,19.667 L11,19.667 L11,18.333 Z M14.004,4.697 C14.076,4.768 14.107,4.861 14.101,4.955 L15.431,5.045 C15.462,4.585 15.303,4.11 14.947,3.754 L14.004,4.697 Z M14.101,4.955 C14.095,5.044 14.056,5.128 13.982,5.189 L14.836,6.213 C15.201,5.908 15.402,5.481 15.431,5.045 L14.101,4.955 Z M14,5.667 L14.766,5.667 L14.766,4.333 L14,4.333 L14,5.667 Z"/>
</svg>

