<svg xmlns="http://www.w3.org/2000/svg" width="24" height="24" viewBox="0 0 24 24">
  <defs/>
  <path fill="#2D264B" d="M3.531,15.777 C3.659,16.171 4.083,16.386 4.476,16.258 C4.87,16.13 5.086,15.707 4.958,15.313 L3.531,15.777 Z M20.469,8.223 C20.341,7.829 19.918,7.614 19.523,7.742 C19.13,7.87 18.914,8.293 19.042,8.687 L20.469,8.223 Z M15.78,2.47 C15.487,2.177 15.013,2.177 14.72,2.47 C14.427,2.763 14.427,3.237 14.72,3.53 L15.78,2.47 Z M14.52,6.299 C14.202,6.564 14.159,7.037 14.424,7.355 C14.689,7.673 15.162,7.716 15.48,7.451 L14.52,6.299 Z M9.53,17.53 C9.823,17.237 9.823,16.763 9.53,16.47 C9.237,16.177 8.763,16.177 8.47,16.47 L9.53,17.53 Z M8.77,21.451 C9.088,21.716 9.561,21.673 9.826,21.355 C10.091,21.037 10.048,20.564 9.73,20.299 L8.77,21.451 Z M13,18.25 L11,18.25 L11,19.75 L13,19.75 L13,18.25 Z M3.25,12 C3.25,13.803 3.241,14.882 3.531,15.777 L4.958,15.313 C4.759,14.702 4.75,13.92 4.75,12 L3.25,12 Z M19.25,12 C19.25,13.92 19.241,14.702 19.042,15.313 L20.469,15.777 C20.759,14.882 20.75,13.803 20.75,12 L19.25,12 Z M13,19.75 C14.803,19.75 15.882,19.759 16.777,19.469 L16.313,18.042 C15.702,18.241 14.92,18.25 13,18.25 L13,19.75 Z M19.042,15.313 C18.622,16.607 17.607,17.622 16.313,18.042 L16.777,19.469 C18.527,18.9 19.9,17.527 20.469,15.777 L19.042,15.313 Z M20.75,12 C20.75,10.197 20.759,9.118 20.469,8.223 L19.042,8.687 C19.241,9.298 19.25,10.08 19.25,12 L20.75,12 Z M11,4.25 C9.197,4.25 8.118,4.241 7.223,4.531 L7.687,5.958 C8.298,5.759 9.08,5.75 11,5.75 L11,4.25 Z M4.75,12 C4.75,10.08 4.759,9.298 4.958,8.687 L3.531,8.223 C3.241,9.118 3.25,10.197 3.25,12 L4.75,12 Z M7.223,4.531 C5.473,5.1 4.1,6.473 3.531,8.223 L4.958,8.687 C5.378,7.393 6.393,6.378 7.687,5.958 L7.223,4.531 Z M14.72,3.53 L15.945,4.756 L17.006,3.695 L15.78,2.47 L14.72,3.53 Z M15.929,5.125 L14.52,6.299 L15.48,7.451 L16.889,6.277 L15.929,5.125 Z M8.47,16.47 L7.244,17.695 L8.305,18.756 L9.53,17.53 L8.47,16.47 Z M7.361,20.277 L8.77,21.451 L9.73,20.299 L8.321,19.125 L7.361,20.277 Z M11,5.75 L16.5,5.75 L16.5,4.25 L11,4.25 L11,5.75 Z M15.945,4.756 C15.999,4.809 16.023,4.879 16.018,4.95 L17.515,5.05 C17.547,4.568 17.38,4.069 17.006,3.695 L15.945,4.756 Z M16.018,4.95 C16.014,5.017 15.984,5.079 15.929,5.125 L16.889,6.277 C17.273,5.957 17.484,5.508 17.515,5.05 L16.018,4.95 Z M16.5,5.75 L16.766,5.75 L16.766,4.25 L16.5,4.25 L16.5,5.75 Z M7.244,17.695 C6.976,17.964 6.813,18.298 6.755,18.645 L8.235,18.891 C8.243,18.842 8.265,18.796 8.305,18.756 L7.244,17.695 Z M6.755,18.645 C6.658,19.232 6.862,19.862 7.361,20.277 L8.321,19.125 C8.251,19.066 8.22,18.978 8.235,18.891 L6.755,18.645 Z M11,18.25 C9.115,18.25 8.328,18.241 7.718,18.052 L7.272,19.484 C8.155,19.759 9.228,19.75 11,19.75 L11,18.25 Z"/>
</svg>

