<svg xmlns="http://www.w3.org/2000/svg" width="24" height="24" viewBox="0 0 24 24">
  <defs/>
  <path fill="#2D264B" d="M15.78,2.47 C15.488,2.177 15.013,2.177 14.72,2.47 C14.427,2.763 14.427,3.237 14.72,3.53 L15.439,4.25 L10.838,4.25 C9.132,4.25 8.091,4.25 7.223,4.531 C5.473,5.1 4.1,6.473 3.531,8.223 C3.25,9.091 3.25,10.132 3.25,11.838 L3.25,12.162 C3.25,13.868 3.25,14.909 3.531,15.777 C3.659,16.171 4.083,16.386 4.477,16.258 C4.87,16.13 5.086,15.707 4.958,15.313 C4.759,14.702 4.75,13.92 4.75,12 C4.75,10.08 4.759,9.298 4.958,8.687 C5.378,7.393 6.393,6.378 7.687,5.958 C8.298,5.759 9.08,5.75 11,5.75 L15.178,5.75 L14.52,6.299 C14.202,6.564 14.159,7.037 14.424,7.355 C14.689,7.673 15.162,7.716 15.48,7.451 L16.889,6.277 C17.273,5.957 17.484,5.508 17.515,5.05 C17.547,4.568 17.38,4.069 17.006,3.695 L15.78,2.47 Z"/>
  <path fill="#2D264B" d="M20.469,8.223 C20.341,7.829 19.918,7.614 19.524,7.742 C19.13,7.87 18.914,8.293 19.042,8.687 C19.241,9.298 19.25,10.08 19.25,12 C19.25,13.92 19.241,14.702 19.042,15.313 C18.622,16.607 17.607,17.622 16.313,18.042 C15.702,18.241 14.92,18.25 13,18.25 L11,18.25 C10.033,18.25 9.354,18.248 8.841,18.22 L9.53,17.53 C9.823,17.237 9.823,16.763 9.53,16.47 C9.237,16.177 8.763,16.177 8.47,16.47 L7.244,17.695 C6.976,17.964 6.813,18.298 6.755,18.645 C6.658,19.232 6.862,19.861 7.361,20.277 L8.77,21.451 C9.088,21.716 9.561,21.673 9.826,21.355 C10.091,21.037 10.048,20.564 9.73,20.299 L9.049,19.731 C9.558,19.75 10.146,19.75 10.844,19.75 L13.162,19.75 C14.868,19.75 15.909,19.75 16.777,19.469 C18.527,18.9 19.9,17.527 20.469,15.777 C20.75,14.909 20.75,13.868 20.75,12.162 L20.75,11.838 C20.75,10.132 20.75,9.091 20.469,8.223 Z"/>
  <path fill="#2D264B" d="M12.75,9.414 C12.75,8.224 11.311,7.628 10.47,8.47 L9.47,9.47 C9.177,9.763 9.177,10.237 9.47,10.53 C9.763,10.823 10.238,10.823 10.53,10.53 L11.25,9.811 L11.25,15 C11.25,15.414 11.586,15.75 12,15.75 C12.414,15.75 12.75,15.414 12.75,15 L12.75,9.414 Z"/>
</svg>

