<svg xmlns="http://www.w3.org/2000/svg" width="24" height="24" viewBox="0 0 24 24">
  <defs/>
  <path fill="#2D264B" d="M13.414,2.532 C13.673,2.208 14.145,2.156 14.469,2.414 L15.719,3.414 C16.687,4.189 16.139,5.75 14.899,5.75 L11,5.75 C9.08,5.75 8.298,5.759 7.687,5.958 C6.393,6.378 5.378,7.393 4.958,8.687 C4.759,9.298 4.75,10.08 4.75,12 C4.75,13.92 4.759,14.702 4.958,15.313 C5.086,15.707 4.87,16.13 4.477,16.258 C4.083,16.386 3.659,16.171 3.531,15.777 C3.25,14.909 3.25,13.868 3.25,12.162 L3.25,12.162 L3.25,12 L3.25,11.838 L3.25,11.838 C3.25,10.132 3.25,9.091 3.531,8.223 C4.1,6.473 5.473,5.1 7.223,4.531 C8.091,4.25 9.132,4.25 10.838,4.25 C10.892,4.25 10.945,4.25 11,4.25 L14.362,4.25 L13.531,3.586 C13.208,3.327 13.156,2.855 13.414,2.532 Z"/>
  <path fill="#2D264B" d="M19.524,7.742 C19.918,7.614 20.341,7.829 20.469,8.223 C20.75,9.091 20.75,10.132 20.75,11.838 C20.75,11.892 20.75,11.945 20.75,12 C20.75,12.055 20.75,12.109 20.75,12.162 C20.75,13.868 20.75,14.909 20.469,15.777 C19.9,17.527 18.527,18.9 16.777,19.469 C15.909,19.75 14.868,19.75 13.162,19.75 C13.109,19.75 13.055,19.75 13,19.75 L10.988,19.75 C10.511,19.75 10.088,19.75 9.712,19.746 L10.496,20.438 C10.807,20.712 10.836,21.186 10.562,21.496 C10.289,21.807 9.815,21.837 9.504,21.562 L8.231,20.44 C7.712,19.983 7.857,19.322 7.997,19.018 C8.141,18.705 8.523,18.212 9.156,18.234 C9.642,18.25 10.234,18.25 11,18.25 L13,18.25 C14.92,18.25 15.702,18.241 16.313,18.042 C17.607,17.622 18.622,16.607 19.042,15.313 C19.241,14.702 19.25,13.92 19.25,12 C19.25,10.08 19.241,9.298 19.042,8.687 C18.914,8.293 19.13,7.87 19.524,7.742 Z"/>
  <path fill="#2D264B" d="M10.47,8.47 C11.311,7.628 12.75,8.224 12.75,9.414 L12.75,15 C12.75,15.414 12.414,15.75 12,15.75 C11.586,15.75 11.25,15.414 11.25,15 L11.25,9.811 L10.53,10.53 C10.238,10.823 9.763,10.823 9.47,10.53 C9.177,10.238 9.177,9.763 9.47,9.47 L10.47,8.47 Z"/>
</svg>

