<svg xmlns="http://www.w3.org/2000/svg" width="24" height="24" viewBox="0 0 24 24">
  <defs/>
  <path fill="#2D264B" d="M11.25,15 C11.25,15.414 11.586,15.75 12,15.75 C12.414,15.75 12.75,15.414 12.75,15 L11.25,15 Z M9.47,9.47 C9.177,9.763 9.177,10.237 9.47,10.53 C9.763,10.823 10.237,10.823 10.53,10.53 L9.47,9.47 Z M3.531,15.777 C3.659,16.171 4.083,16.386 4.476,16.258 C4.87,16.13 5.086,15.707 4.958,15.313 L3.531,15.777 Z M20.469,8.223 C20.341,7.829 19.918,7.614 19.523,7.742 C19.13,7.87 18.914,8.293 19.042,8.687 L20.469,8.223 Z M14.469,2.414 C14.145,2.156 13.673,2.208 13.414,2.531 C13.156,2.855 13.208,3.327 13.531,3.586 L14.469,2.414 Z M9.504,21.562 C9.815,21.837 10.289,21.807 10.562,21.496 C10.836,21.185 10.807,20.712 10.496,20.438 L9.504,21.562 Z M11.25,9.414 L11.25,15 L12.75,15 L12.75,9.414 L11.25,9.414 Z M10.47,8.47 L9.47,9.47 L10.53,10.53 L11.53,9.53 L10.47,8.47 Z M12.75,9.414 C12.75,8.224 11.311,7.628 10.47,8.47 L11.53,9.53 C11.512,9.549 11.479,9.568 11.44,9.575 C11.405,9.581 11.374,9.575 11.351,9.566 C11.329,9.556 11.303,9.539 11.283,9.509 C11.259,9.477 11.25,9.44 11.25,9.414 L12.75,9.414 Z M13,18.25 L11,18.25 L11,19.75 L13,19.75 L13,18.25 Z M11,18.25 C10.234,18.25 9.642,18.25 9.156,18.234 L9.105,19.733 C9.622,19.75 10.243,19.75 11,19.75 L11,18.25 Z M3.25,12 C3.25,13.803 3.241,14.882 3.531,15.777 L4.958,15.313 C4.759,14.702 4.75,13.92 4.75,12 L3.25,12 Z M19.25,12 C19.25,13.92 19.241,14.702 19.042,15.313 L20.469,15.777 C20.759,14.882 20.75,13.803 20.75,12 L19.25,12 Z M13,19.75 C14.803,19.75 15.882,19.759 16.777,19.469 L16.313,18.042 C15.702,18.241 14.92,18.25 13,18.25 L13,19.75 Z M19.042,15.313 C18.622,16.607 17.607,17.622 16.313,18.042 L16.777,19.469 C18.527,18.9 19.9,17.527 20.469,15.777 L19.042,15.313 Z M20.75,12 C20.75,10.197 20.759,9.118 20.469,8.223 L19.042,8.687 C19.241,9.298 19.25,10.08 19.25,12 L20.75,12 Z M11,4.25 C9.197,4.25 8.118,4.241 7.223,4.531 L7.687,5.958 C8.298,5.759 9.08,5.75 11,5.75 L11,4.25 Z M4.75,12 C4.75,10.08 4.759,9.298 4.958,8.687 L3.531,8.223 C3.241,9.118 3.25,10.197 3.25,12 L4.75,12 Z M7.223,4.531 C5.473,5.1 4.1,6.473 3.531,8.223 L4.958,8.687 C5.378,7.393 6.393,6.378 7.687,5.958 L7.223,4.531 Z M11,5.75 L14.899,5.75 L14.899,4.25 L11,4.25 L11,5.75 Z M15.719,3.414 L14.469,2.414 L13.531,3.586 L14.781,4.586 L15.719,3.414 Z M14.899,5.75 C16.139,5.75 16.687,4.189 15.719,3.414 L14.781,4.586 C14.757,4.566 14.73,4.529 14.718,4.482 C14.707,4.44 14.712,4.404 14.721,4.376 C14.731,4.348 14.751,4.317 14.785,4.291 C14.824,4.262 14.868,4.25 14.899,4.25 L14.899,5.75 Z M10.496,20.438 L9.224,19.315 L8.231,20.44 L9.504,21.562 L10.496,20.438 Z M9.156,18.234 C8.523,18.212 8.141,18.705 7.997,19.018 C7.857,19.322 7.712,19.983 8.231,20.44 L9.224,19.315 C9.336,19.414 9.362,19.533 9.365,19.588 C9.368,19.636 9.356,19.652 9.36,19.644 C9.364,19.637 9.363,19.645 9.34,19.664 C9.317,19.683 9.236,19.737 9.105,19.733 L9.156,18.234 Z"/>
</svg>

