<svg width="24" height="24" viewBox="0 0 24 24" fill="none" xmlns="http://www.w3.org/2000/svg">
<path d="M15.7804 2.46967C15.4875 2.17678 15.0126 2.17678 14.7197 2.46967C14.4268 2.76256 14.4268 3.23744 14.7197 3.53033L15.4394 4.25L10.8382 4.24998C9.13192 4.24971 8.0907 4.24955 7.22319 4.53142C5.47267 5.1002 4.10024 6.47263 3.53146 8.22315C3.24958 9.09067 3.24975 10.1319 3.25002 11.8382V12.1618C3.24975 13.8681 3.24958 14.9093 3.53146 15.7768C3.65946 16.1708 4.08257 16.3864 4.47651 16.2584C4.87045 16.1304 5.08604 15.7073 4.95804 15.3133C4.75929 14.7016 4.75003 13.9197 4.75003 12C4.75003 10.0803 4.75929 9.29839 4.95804 8.68668C5.37844 7.39282 6.39285 6.37841 7.68671 5.95801C8.29842 5.75925 9.08038 5.75 11 5.75H15.1785L14.5199 6.29883C14.2017 6.56401 14.1587 7.03693 14.4239 7.35514C14.689 7.67335 15.162 7.71634 15.4802 7.45117L16.8889 6.27719C17.2732 5.95697 17.4839 5.5078 17.5147 5.05027C17.5471 4.5677 17.3796 4.06894 17.0061 3.69537L15.7804 2.46967Z" fill="#2D264B"/>
<path d="M20.4686 8.22315C20.3406 7.82921 19.9175 7.61362 19.5236 7.74162C19.1296 7.86962 18.914 8.29274 19.042 8.68668C19.2408 9.29839 19.25 10.0803 19.25 12C19.25 13.9197 19.2408 14.7016 19.042 15.3133C18.6216 16.6072 17.6072 17.6216 16.3134 18.042C15.7016 18.2407 14.9197 18.25 13 18.25H11C10.0328 18.25 9.35444 18.2478 8.84077 18.2199L9.53036 17.5303C9.82326 17.2374 9.82326 16.7626 9.53036 16.4697C9.23747 16.1768 8.7626 16.1768 8.4697 16.4697L7.24401 17.6954C6.97575 17.9636 6.81262 18.2982 6.75507 18.6453C6.65777 19.2321 6.86236 19.8616 7.36112 20.2772L8.76989 21.4512C9.0881 21.7163 9.56103 21.6733 9.8262 21.3551C10.0914 21.0369 10.0484 20.564 9.73017 20.2988L9.0489 19.7311C9.55819 19.7502 10.1455 19.7501 10.8443 19.75H13.1619C14.8681 19.7503 15.9094 19.7504 16.7769 19.4686C18.5274 18.8998 19.8998 17.5274 20.4686 15.7768C20.7505 14.9093 20.7503 13.8681 20.75 12.1618V11.8382C20.7503 10.1319 20.7505 9.09067 20.4686 8.22315Z" fill="#2D264B"/>
</svg>
