<svg width="24" height="24" viewBox="0 0 24 24" fill="none" xmlns="http://www.w3.org/2000/svg">
<path fill-rule="evenodd" clip-rule="evenodd" d="M13.4144 2.53151C13.6731 2.20806 14.1451 2.15562 14.4686 2.41438L15.7186 3.41438C16.6866 4.18884 16.139 5.75003 14.8993 5.75003H11C9.08038 5.75003 8.29842 5.75928 7.68671 5.95804C6.39285 6.37844 5.37844 7.39284 4.95804 8.68671C4.75929 9.29842 4.75003 10.0804 4.75003 12C4.75003 13.9197 4.75929 14.7016 4.95804 15.3133C5.08604 15.7073 4.87045 16.1304 4.47651 16.2584C4.08257 16.3864 3.65946 16.1708 3.53146 15.7769C3.24958 14.9094 3.24975 13.8681 3.25002 12.1619C3.25002 12.1086 3.25003 12.0546 3.25003 12C3.25003 11.9454 3.25002 11.8915 3.25002 11.8382C3.24975 10.1319 3.24958 9.0907 3.53146 8.22318C4.10024 6.47266 5.47267 5.10023 7.22319 4.53145C8.0907 4.24958 9.13192 4.24974 10.8382 4.25001C10.8915 4.25002 10.9454 4.25003 11 4.25003H14.3619L13.5315 3.58568C13.2081 3.32692 13.1556 2.85495 13.4144 2.53151Z" fill="#2D264B"/>
<path d="M19.5236 7.74165C19.9175 7.61365 20.3406 7.82924 20.4686 8.22318C20.7505 9.0907 20.7503 10.1319 20.75 11.8382C20.75 11.8915 20.75 11.9454 20.75 12C20.75 12.0546 20.75 12.1086 20.75 12.1619C20.7503 13.8681 20.7505 14.9094 20.4686 15.7769C19.8998 17.5274 18.5274 18.8998 16.7769 19.4686C15.9094 19.7505 14.8681 19.7503 13.1619 19.75C13.1086 19.75 13.0546 19.75 13 19.75H10.9879C10.5107 19.75 10.0882 19.75 9.71163 19.7456L10.4961 20.4375C10.8068 20.7115 10.8365 21.1855 10.5625 21.4961C10.2885 21.8068 9.81459 21.8365 9.50393 21.5625L8.23139 20.4402C7.71249 19.9825 7.85745 19.3224 7.99706 19.0182C8.14078 18.705 8.52267 18.2125 9.15565 18.2337C9.64198 18.2499 10.2336 18.25 11 18.25H13C14.9197 18.25 15.7016 18.2408 16.3134 18.042C17.6072 17.6216 18.6216 16.6072 19.042 15.3133C19.2408 14.7016 19.25 13.9197 19.25 12C19.25 10.0804 19.2408 9.29842 19.042 8.68671C18.914 8.29277 19.1296 7.86965 19.5236 7.74165Z" fill="#2D264B"/>
<path d="M10.4697 8.4697C11.3112 7.6282 12.75 8.22418 12.75 9.41424V15C12.75 15.4142 12.4142 15.75 12 15.75C11.5858 15.75 11.25 15.4142 11.25 15V9.81069L10.5304 10.5304C10.2375 10.8232 9.7626 10.8232 9.4697 10.5304C9.17681 10.2375 9.17681 9.76259 9.4697 9.4697L10.4697 8.4697Z" fill="#2D264B"/>
</svg>
