<svg width="24" height="24" viewBox="0 0 24 24" fill="none" xmlns="http://www.w3.org/2000/svg">
<path d="M11.265 2.32974C10.9639 2.04533 10.4892 2.0589 10.2048 2.36003C9.92036 2.66117 9.93393 3.13585 10.2351 3.42026L11.031 4.17202C11.0403 4.1808 11.0445 4.18808 11.0445 4.18808C11.0455 4.18992 11.0463 4.19287 11.0463 4.19287C11.0471 4.1969 11.0476 4.20748 11.042 4.22153C11.0364 4.23558 11.0288 4.24293 11.0255 4.24532C11.0255 4.24532 11.0229 4.24695 11.0209 4.24759C11.0209 4.24759 11.0128 4.25 11 4.25L10.8382 4.24999C9.13192 4.24972 8.0907 4.24955 7.22319 4.53143C5.47267 5.1002 4.10024 6.47264 3.53146 8.22315C3.24958 9.09067 3.24975 10.1319 3.25002 11.8382V12.1618C3.24975 13.8681 3.24958 14.9093 3.53146 15.7768C3.65946 16.1708 4.08257 16.3864 4.47651 16.2584C4.87045 16.1304 5.08604 15.7073 4.95804 15.3133C4.75929 14.7016 4.75003 13.9197 4.75003 12C4.75003 10.0803 4.75929 9.29839 4.95804 8.68668C5.37844 7.39282 6.39285 6.37841 7.68671 5.95801C8.29842 5.75925 9.08038 5.75 11 5.75C12.398 5.75 13.0773 4.04138 12.061 3.0815L11.265 2.32974Z" fill="#2D264B"/>
<path d="M19.4686 7.76824C19.3406 7.3743 18.9175 7.15872 18.5236 7.28671C18.1296 7.41471 17.914 7.83783 18.042 8.23177C18.2408 8.84348 18.25 9.62544 18.25 11.5451C18.25 13.4647 18.2408 14.2467 18.042 14.8584C17.6216 16.1523 16.6072 17.1667 15.3134 17.5871C14.7016 17.7858 13.9197 17.7951 12 17.7951C10.6021 17.7951 9.92275 19.5037 10.9391 20.4636L11.7351 21.2154C12.0362 21.4998 12.5109 21.4862 12.7953 21.1851C13.0797 20.8839 13.0661 20.4092 12.765 20.1248L11.969 19.3731C11.9597 19.3643 11.9555 19.357 11.9555 19.357C11.9545 19.3552 11.9538 19.3522 11.9538 19.3522C11.953 19.3482 11.9525 19.3376 11.9581 19.3236C11.9637 19.3095 11.9713 19.3022 11.9746 19.2998L11.9769 19.2984L11.9792 19.2975C11.9792 19.2975 11.9872 19.2951 12 19.2951L12.1619 19.2951C13.8681 19.2954 14.9094 19.2955 15.7769 19.0137C17.5274 18.4449 18.8998 17.0725 19.4686 15.3219C19.7505 14.4544 19.7503 13.4132 19.75 11.707V11.3832C19.7503 9.67698 19.7505 8.63576 19.4686 7.76824Z" fill="#2D264B"/>
<path d="M12.75 9.41422C12.75 8.22416 11.3112 7.62817 10.4697 8.46967L9.4697 9.46967C9.17681 9.76257 9.17681 10.2374 9.4697 10.5303C9.7626 10.8232 10.2375 10.8232 10.5304 10.5303L11.25 9.81066V15C11.25 15.4142 11.5858 15.75 12 15.75C12.4142 15.75 12.75 15.4142 12.75 15V9.41422Z" fill="#2D264B"/>
</svg>
