<svg xmlns="http://www.w3.org/2000/svg" width="24" height="24" viewBox="0 0 24 24">
  <defs/>
  <path fill="#2D264B" d="M13.721,2.528 C13.461,2.268 13.039,2.268 12.778,2.528 C12.518,2.789 12.518,3.211 12.778,3.471 L13.64,4.333 L11.852,4.333 C10.132,4.333 9.104,4.333 8.249,4.61 C6.524,5.171 5.171,6.523 4.611,8.249 C4.333,9.103 4.333,10.132 4.333,11.852 L4.333,12.148 C4.333,13.867 4.333,14.896 4.611,15.751 C4.724,16.101 5.101,16.293 5.451,16.179 C5.801,16.065 5.992,15.689 5.879,15.339 C5.675,14.711 5.667,13.913 5.667,12 C5.667,10.086 5.675,9.288 5.879,8.661 C6.307,7.341 7.342,6.307 8.661,5.878 C9.288,5.675 10.087,5.666 12,5.666 L13.409,5.666 L12.573,6.363 C12.29,6.598 12.252,7.019 12.488,7.301 C12.723,7.584 13.144,7.623 13.427,7.387 L14.835,6.213 C15.201,5.908 15.402,5.48 15.431,5.044 C15.462,4.585 15.303,4.11 14.947,3.754 L13.721,2.528 Z"/>
  <path fill="#2D264B" d="M20.392,7.801 C20.282,7.45 19.909,7.254 19.557,7.363 C19.205,7.473 19.009,7.846 19.119,8.198 C19.326,8.862 19.333,9.706 19.333,11.698 C19.333,13.689 19.326,14.533 19.119,15.197 C18.685,16.59 17.643,17.668 16.331,18.113 C15.708,18.324 14.915,18.333 13,18.333 L11.609,18.333 L12.471,17.471 C12.732,17.211 12.732,16.789 12.471,16.528 C12.211,16.268 11.789,16.268 11.528,16.528 L10.303,17.754 C9.947,18.11 9.788,18.585 9.818,19.044 C9.848,19.48 10.048,19.908 10.414,20.213 L11.823,21.387 C12.106,21.622 12.526,21.584 12.762,21.302 C12.998,21.019 12.96,20.598 12.677,20.363 L11.841,19.666 L13.152,19.666 C14.868,19.667 15.901,19.667 16.759,19.376 C18.491,18.789 19.836,17.377 20.392,15.594 C20.667,14.71 20.667,13.646 20.667,11.843 L20.667,11.553 C20.667,9.749 20.667,8.685 20.392,7.801 Z"/>
</svg>

