<svg xmlns="http://www.w3.org/2000/svg" width="24" height="24" viewBox="0 0 24 24">
  <defs/>
  <path fill="#2D264B" d="M11.265,2.33 C10.964,2.045 10.489,2.059 10.205,2.36 C9.92,2.661 9.934,3.136 10.235,3.42 L11.031,4.172 C11.04,4.181 11.044,4.188 11.044,4.188 C11.046,4.19 11.046,4.193 11.046,4.193 C11.047,4.197 11.048,4.207 11.042,4.222 C11.036,4.236 11.029,4.243 11.025,4.245 C11.025,4.245 11.023,4.247 11.021,4.248 C11.021,4.248 11.013,4.25 11,4.25 L10.838,4.25 C9.132,4.25 8.091,4.25 7.223,4.531 C5.473,5.1 4.1,6.473 3.531,8.223 C3.25,9.091 3.25,10.132 3.25,11.838 L3.25,12.162 C3.25,13.868 3.25,14.909 3.531,15.777 C3.659,16.171 4.083,16.386 4.477,16.258 C4.87,16.13 5.086,15.707 4.958,15.313 C4.759,14.702 4.75,13.92 4.75,12 C4.75,10.08 4.759,9.298 4.958,8.687 C5.378,7.393 6.393,6.378 7.687,5.958 C8.298,5.759 9.08,5.75 11,5.75 C12.398,5.75 13.077,4.041 12.061,3.082 L11.265,2.33 Z"/>
  <path fill="#2D264B" d="M19.469,7.768 C19.341,7.374 18.918,7.159 18.524,7.287 C18.13,7.415 17.914,7.838 18.042,8.232 C18.241,8.843 18.25,9.625 18.25,11.545 C18.25,13.465 18.241,14.247 18.042,14.858 C17.622,16.152 16.607,17.167 15.313,17.587 C14.702,17.786 13.92,17.795 12,17.795 C10.602,17.795 9.923,19.504 10.939,20.464 L11.735,21.215 C12.036,21.5 12.511,21.486 12.795,21.185 C13.08,20.884 13.066,20.409 12.765,20.125 L11.969,19.373 C11.96,19.364 11.956,19.357 11.956,19.357 C11.954,19.355 11.954,19.352 11.954,19.352 C11.953,19.348 11.953,19.338 11.958,19.324 C11.964,19.309 11.971,19.302 11.975,19.3 L11.977,19.298 L11.979,19.297 C11.979,19.297 11.987,19.295 12,19.295 L12.162,19.295 C13.868,19.295 14.909,19.296 15.777,19.014 C17.527,18.445 18.9,17.073 19.469,15.322 C19.75,14.454 19.75,13.413 19.75,11.707 L19.75,11.383 C19.75,9.677 19.75,8.636 19.469,7.768 Z"/>
  <path fill="#2D264B" d="M12.75,9.414 C12.75,8.224 11.311,7.628 10.47,8.47 L9.47,9.47 C9.177,9.763 9.177,10.237 9.47,10.53 C9.763,10.823 10.238,10.823 10.53,10.53 L11.25,9.811 L11.25,15 C11.25,15.414 11.586,15.75 12,15.75 C12.414,15.75 12.75,15.414 12.75,15 L12.75,9.414 Z"/>
</svg>

