<svg xmlns="http://www.w3.org/2000/svg" width="24" height="24" viewBox="0 0 24 24">
  <defs/>
  <path fill="#2D264B" d="M4.25,21 C4.25,21.414 4.586,21.75 5,21.75 C5.414,21.75 5.75,21.414 5.75,21 L4.25,21 Z M5.75,21 L5.75,5 L4.25,5 L4.25,21 L5.75,21 Z M7,3.75 L17.198,3.75 L17.198,2.25 L7,2.25 L7,3.75 Z M17.198,13.25 L5,13.25 L5,14.75 L17.198,14.75 L17.198,13.25 Z M17.794,5.669 L17.513,5.862 L18.363,7.098 L18.644,6.905 L17.794,5.669 Z M17.513,11.138 L17.794,11.331 L18.644,10.095 L18.363,9.902 L17.513,11.138 Z M17.794,11.331 C18.079,11.527 18.25,11.851 18.25,12.198 L19.75,12.198 C19.75,11.358 19.336,10.571 18.644,10.095 L17.794,11.331 Z M18.25,4.802 C18.25,5.149 18.079,5.473 17.794,5.669 L18.644,6.905 C19.336,6.429 19.75,5.642 19.75,4.802 L18.25,4.802 Z M17.513,5.862 C15.663,7.134 15.663,9.866 17.513,11.138 L18.363,9.902 C17.38,9.226 17.38,7.774 18.363,7.098 L17.513,5.862 Z M17.198,14.75 C18.607,14.75 19.75,13.607 19.75,12.198 L18.25,12.198 C18.25,12.779 17.779,13.25 17.198,13.25 L17.198,14.75 Z M17.198,3.75 C17.779,3.75 18.25,4.221 18.25,4.802 L19.75,4.802 C19.75,3.393 18.607,2.25 17.198,2.25 L17.198,3.75 Z M5.75,5 C5.75,4.507 5.752,4.213 5.78,4.003 C5.793,3.906 5.808,3.858 5.817,3.836 C5.819,3.831 5.821,3.828 5.822,3.826 C5.823,3.824 5.823,3.823 5.823,3.823 C5.824,3.823 5.823,3.823 5.823,3.823 C5.823,3.824 5.823,3.824 5.823,3.823 L4.763,2.763 C4.454,3.072 4.341,3.447 4.293,3.803 C4.248,4.137 4.25,4.55 4.25,5 L5.75,5 Z M7,2.25 C6.55,2.25 6.137,2.248 5.803,2.293 C5.447,2.341 5.072,2.454 4.763,2.763 L5.823,3.823 C5.824,3.823 5.824,3.823 5.823,3.823 C5.823,3.823 5.823,3.824 5.823,3.823 C5.823,3.823 5.824,3.823 5.826,3.822 C5.828,3.821 5.831,3.819 5.836,3.817 C5.858,3.808 5.906,3.793 6.003,3.78 C6.213,3.752 6.507,3.75 7,3.75 L7,2.25 Z"/>
</svg>

