<svg xmlns="http://www.w3.org/2000/svg" width="24" height="24" viewBox="0 0 24 24">
  <defs/>
  <path fill="#2D264B" d="M6.955,2.25 C6.522,2.25 6.126,2.25 5.803,2.293 C5.447,2.341 5.072,2.454 4.763,2.763 C4.454,3.072 4.341,3.447 4.293,3.803 C4.25,4.126 4.25,4.522 4.25,4.955 L4.25,21 C4.25,21.414 4.586,21.75 5,21.75 C5.414,21.75 5.75,21.414 5.75,21 L5.75,14.75 L17.198,14.75 C18.607,14.75 19.75,13.607 19.75,12.198 C19.75,11.358 19.336,10.571 18.644,10.095 L18.363,9.902 C17.38,9.226 17.38,7.774 18.363,7.098 L18.644,6.905 C19.336,6.429 19.75,5.642 19.75,4.802 C19.75,3.393 18.607,2.25 17.198,2.25 L6.955,2.25 Z"/>
</svg>

