<svg xmlns="http://www.w3.org/2000/svg" width="24" height="24" viewBox="0 0 24 24">
  <defs/>
  <path fill="#2D264B" d="M10.528,6.467 C10.234,6.176 9.759,6.178 9.467,6.472 C9.176,6.766 9.178,7.241 9.472,7.533 L11.235,9.28 C11.95,9.989 12.441,10.477 12.773,10.891 C13.096,11.292 13.207,11.55 13.236,11.781 C13.255,11.927 13.255,12.073 13.236,12.219 C13.207,12.45 13.096,12.708 12.773,13.109 C12.441,13.523 11.95,14.011 11.235,14.72 L9.472,16.467 C9.178,16.759 9.176,17.234 9.467,17.528 C9.759,17.822 10.234,17.824 10.528,17.533 L12.323,15.754 C12.999,15.084 13.551,14.536 13.943,14.049 C14.35,13.541 14.645,13.026 14.724,12.408 C14.759,12.137 14.759,11.863 14.724,11.592 C14.645,10.974 14.35,10.459 13.943,9.951 C13.551,9.464 12.999,8.916 12.323,8.246 L10.528,6.467 Z"/>
</svg>

