<svg xmlns="http://www.w3.org/2000/svg" width="24" height="24" viewBox="0 0 24 24">
  <defs/>
  <path fill="#2D264B" d="M3,11.25 C2.586,11.25 2.25,11.586 2.25,12 C2.25,12.414 2.586,12.75 3,12.75 L3,11.25 Z M14,12.75 C14.414,12.75 14.75,12.414 14.75,12 C14.75,11.586 14.414,11.25 14,11.25 L14,12.75 Z M3,12.75 L14,12.75 L14,11.25 L3,11.25 L3,12.75 Z M20.484,12.991 L16.762,15.855 L17.677,17.044 L21.399,14.179 L20.484,12.991 Z M14.75,14.865 L14.75,9.136 L13.25,9.136 L13.25,14.865 L14.75,14.865 Z M16.762,8.145 L20.484,11.01 L21.399,9.821 L17.677,6.956 L16.762,8.145 Z M14.75,9.136 C14.75,8.098 15.941,7.512 16.762,8.145 L17.677,6.956 C15.869,5.564 13.25,6.853 13.25,9.136 L14.75,9.136 Z M16.762,15.855 C15.941,16.488 14.75,15.902 14.75,14.865 L13.25,14.865 C13.25,17.147 15.869,18.436 17.677,17.044 L16.762,15.855 Z M21.399,14.179 C22.829,13.078 22.829,10.922 21.399,9.821 L20.484,11.01 C21.134,11.51 21.134,12.49 20.484,12.991 L21.399,14.179 Z"/>
</svg>

