<svg xmlns="http://www.w3.org/2000/svg" width="24" height="24" viewBox="0 0 24 24">
  <defs/>
  <path fill="#2D264B" d="M22,12 C22,17.523 17.523,22 12,22 C6.477,22 2,17.523 2,12 C2,6.477 6.477,2 12,2 C17.523,2 22,6.477 22,12 Z M8,11.25 C7.586,11.25 7.25,11.586 7.25,12 C7.25,12.414 7.586,12.75 8,12.75 L14.936,12.75 C14.925,12.764 14.914,12.779 14.902,12.793 C14.643,13.116 14.257,13.5 13.682,14.069 L12.272,15.467 C11.978,15.759 11.976,16.234 12.267,16.528 C12.559,16.822 13.034,16.824 13.328,16.533 L14.769,15.104 C15.305,14.573 15.752,14.13 16.071,13.733 C16.406,13.316 16.66,12.879 16.728,12.345 C16.743,12.231 16.75,12.115 16.75,12 C16.75,11.885 16.743,11.769 16.728,11.655 C16.66,11.121 16.406,10.684 16.071,10.267 C15.752,9.87 15.305,9.427 14.769,8.896 L13.328,7.467 C13.034,7.176 12.559,7.178 12.267,7.472 C11.976,7.766 11.978,8.241 12.272,8.533 L13.682,9.931 C14.257,10.5 14.643,10.884 14.902,11.207 C14.914,11.221 14.925,11.236 14.936,11.25 Z"/>
</svg>

