<svg width="24" height="24" viewBox="0 0 24 24" fill="none" xmlns="http://www.w3.org/2000/svg">
<path fill-rule="evenodd" clip-rule="evenodd" d="M22 12C22 6.47715 17.5228 2 12 2C6.47715 2 2 6.47715 2 12C2 17.5228 6.47715 22 12 22C17.5228 22 22 17.5228 22 12ZM8 11.25C7.58579 11.25 7.25 11.5858 7.25 12C7.25 12.4142 7.58579 12.75 8 12.75L14.9362 12.75C14.9251 12.7642 14.9137 12.7787 14.9018 12.7935C14.6427 13.1161 14.2573 13.4997 13.6824 14.0695L12.272 15.4673C11.9778 15.7589 11.9757 16.2338 12.2673 16.528C12.5589 16.8222 13.0338 16.8243 13.328 16.5327L14.7691 15.1043C15.3053 14.573 15.7525 14.1298 16.0713 13.7328C16.4057 13.3163 16.6601 12.8787 16.7281 12.3455C16.7427 12.2308 16.75 12.1154 16.75 12C16.75 11.8846 16.7427 11.7692 16.7281 11.6545C16.6601 11.1213 16.4057 10.6837 16.0713 10.2672C15.7525 9.87022 15.3053 9.42704 14.7691 8.89566L13.328 7.46731C13.0338 7.17573 12.5589 7.17784 12.2673 7.47204C11.9757 7.76624 11.9778 8.24111 12.272 8.53269L13.6824 9.93054C14.2573 10.5003 14.6427 10.8839 14.9018 11.2065C14.9137 11.2213 14.9251 11.2358 14.9362 11.25L8 11.25Z" fill="#2D264B"/>
</svg>
