<svg width="24" height="24" viewBox="0 0 24 24" fill="none" xmlns="http://www.w3.org/2000/svg">
<path fill-rule="evenodd" clip-rule="evenodd" d="M20.0451 5.06107C21 6.3754 21 8.25027 21 12C21 15.7497 21 17.6246 20.0451 18.9389C19.7367 19.3634 19.3634 19.7367 18.9389 20.0451C17.6246 21 15.7497 21 12 21C8.25027 21 6.3754 21 5.06107 20.0451C4.6366 19.7367 4.26331 19.3634 3.95491 18.9389C3 17.6246 3 15.7497 3 12C3 8.25027 3 6.3754 3.95491 5.06107C4.26331 4.6366 4.6366 4.26331 5.06107 3.95491C6.3754 3 8.25027 3 12 3C15.7497 3 17.6246 3 18.9389 3.95491C19.3634 4.26331 19.7367 4.6366 20.0451 5.06107ZM12.272 8.53269C11.9778 8.24111 11.9757 7.76624 12.2673 7.47204C12.5589 7.17784 13.0338 7.17573 13.328 7.46731L14.7691 8.89564C15.3053 9.42703 15.7525 9.87022 16.0713 10.2672C16.4057 10.6837 16.6601 11.1213 16.7281 11.6545C16.7427 11.7692 16.75 11.8846 16.75 12C16.75 12.1154 16.7427 12.2308 16.7281 12.3455C16.6601 12.8787 16.4057 13.3163 16.0713 13.7328C15.7525 14.1298 15.3053 14.573 14.7691 15.1044L13.328 16.5327C13.0338 16.8243 12.5589 16.8222 12.2673 16.528C11.9757 16.2338 11.9778 15.7589 12.272 15.4673L13.6824 14.0695C14.2573 13.4997 14.6427 13.1161 14.9018 12.7935C14.9137 12.7787 14.9251 12.7642 14.9362 12.75H8C7.58579 12.75 7.25 12.4142 7.25 12C7.25 11.5858 7.58579 11.25 8 11.25H14.9362C14.9251 11.2358 14.9137 11.2213 14.9018 11.2065C14.6427 10.8839 14.2573 10.5003 13.6824 9.93054L12.272 8.53269Z" fill="#2D264B"/>
</svg>
