<svg xmlns="http://www.w3.org/2000/svg" width="24" height="24" viewBox="0 0 24 24">
  <defs/>
  <path fill="#2D264B" d="M8,11.25 C7.586,11.25 7.25,11.586 7.25,12 C7.25,12.414 7.586,12.75 8,12.75 L8,11.25 Z M13.328,7.467 C13.034,7.176 12.559,7.178 12.267,7.472 C11.976,7.766 11.978,8.241 12.272,8.533 L13.328,7.467 Z M12.272,15.467 C11.978,15.759 11.976,16.234 12.267,16.528 C12.559,16.822 13.034,16.824 13.328,16.533 L12.272,15.467 Z M21.25,12 C21.25,17.109 17.109,21.25 12,21.25 L12,22.75 C17.937,22.75 22.75,17.937 22.75,12 L21.25,12 Z M12,21.25 C6.891,21.25 2.75,17.109 2.75,12 L1.25,12 C1.25,17.937 6.063,22.75 12,22.75 L12,21.25 Z M2.75,12 C2.75,6.891 6.891,2.75 12,2.75 L12,1.25 C6.063,1.25 1.25,6.063 1.25,12 L2.75,12 Z M12,2.75 C17.109,2.75 21.25,6.891 21.25,12 L22.75,12 C22.75,6.063 17.937,1.25 12,1.25 L12,2.75 Z M8,12.75 L15.2,12.75 L15.2,11.25 L8,11.25 L8,12.75 Z M12.272,8.533 L13.682,9.931 L14.738,8.865 L13.328,7.467 L12.272,8.533 Z M13.682,14.069 L12.272,15.467 L13.328,16.533 L14.738,15.135 L13.682,14.069 Z M13.682,9.931 C14.257,10.5 14.643,10.884 14.902,11.207 C15.151,11.517 15.222,11.698 15.24,11.844 L16.728,11.655 C16.66,11.121 16.406,10.684 16.071,10.267 C15.746,9.863 15.288,9.41 14.738,8.865 L13.682,9.931 Z M14.738,15.135 C15.288,14.59 15.746,14.137 16.071,13.733 C16.406,13.316 16.66,12.879 16.728,12.345 L15.24,12.156 C15.222,12.302 15.151,12.483 14.902,12.793 C14.643,13.116 14.257,13.5 13.682,14.069 L14.738,15.135 Z M15.24,11.844 C15.247,11.896 15.25,11.948 15.25,12 L16.75,12 C16.75,11.885 16.743,11.769 16.728,11.655 L15.24,11.844 Z M15.25,12 C15.25,12.052 15.247,12.104 15.24,12.156 L16.728,12.345 C16.743,12.231 16.75,12.115 16.75,12 L15.25,12 Z M15.2,12.75 L16,12.75 L16,11.25 L15.2,11.25 L15.2,12.75 Z"/>
</svg>

