<svg xmlns="http://www.w3.org/2000/svg" width="24" height="24" viewBox="0 0 24 24">
  <defs/>
  <path fill="#2D264B" d="M4,11.25 C3.586,11.25 3.25,11.586 3.25,12 C3.25,12.414 3.586,12.75 4,12.75 L4,11.25 Z M20,12.75 C20.414,12.75 20.75,12.414 20.75,12 C20.75,11.586 20.414,11.25 20,11.25 L20,12.75 Z M16.528,6.467 C16.234,6.176 15.759,6.178 15.467,6.472 C15.176,6.766 15.178,7.241 15.472,7.533 L16.528,6.467 Z M15.472,16.467 C15.178,16.759 15.176,17.234 15.467,17.528 C15.759,17.822 16.234,17.824 16.528,17.533 L15.472,16.467 Z M4,12.75 L20,12.75 L20,11.25 L4,11.25 L4,12.75 Z M15.472,7.533 L17.235,9.28 L18.291,8.215 L16.528,6.467 L15.472,7.533 Z M17.235,14.72 L15.472,16.467 L16.528,17.533 L18.291,15.785 L17.235,14.72 Z M17.235,9.28 C17.951,9.989 18.441,10.477 18.773,10.891 C19.096,11.292 19.207,11.55 19.236,11.781 L20.724,11.592 C20.645,10.974 20.35,10.459 19.943,9.951 C19.545,9.456 18.981,8.899 18.291,8.215 L17.235,9.28 Z M18.291,15.785 C18.981,15.101 19.545,14.544 19.943,14.049 C20.35,13.541 20.645,13.026 20.724,12.408 L19.236,12.219 C19.207,12.45 19.096,12.708 18.773,13.109 C18.441,13.523 17.951,14.011 17.235,14.72 L18.291,15.785 Z M19.236,11.781 C19.255,11.927 19.255,12.073 19.236,12.219 L20.724,12.408 C20.759,12.137 20.759,11.863 20.724,11.592 L19.236,11.781 Z"/>
</svg>

