<svg xmlns="http://www.w3.org/2000/svg" width="24" height="24" viewBox="0 0 24 24">
  <defs/>
  <path fill="#2D264B" d="M16.528,6.467 C16.234,6.176 15.759,6.178 15.467,6.472 C15.176,6.766 15.178,7.241 15.472,7.533 L17.235,9.28 C17.951,9.989 18.441,10.477 18.773,10.891 C18.881,11.025 18.965,11.143 19.031,11.25 L4,11.25 C3.586,11.25 3.25,11.586 3.25,12 C3.25,12.414 3.586,12.75 4,12.75 L19.031,12.75 C18.965,12.857 18.881,12.975 18.773,13.109 C18.441,13.523 17.951,14.011 17.235,14.72 L15.472,16.467 C15.178,16.759 15.176,17.234 15.467,17.528 C15.759,17.822 16.234,17.824 16.528,17.533 L18.323,15.754 C18.999,15.084 19.551,14.536 19.943,14.049 C20.35,13.541 20.645,13.026 20.724,12.408 C20.741,12.273 20.75,12.136 20.75,12 C20.75,11.864 20.741,11.727 20.724,11.592 C20.645,10.974 20.35,10.459 19.943,9.951 C19.551,9.464 18.999,8.916 18.323,8.246 L16.528,6.467 Z"/>
</svg>

