<svg width="24" height="24" viewBox="0 0 24 24" fill="none" xmlns="http://www.w3.org/2000/svg">
<path d="M3 11.2502C2.58579 11.2502 2.25 11.5859 2.25 12.0002C2.25 12.4144 2.58579 12.7502 3 12.7502L3 11.2502ZM14 12.7502C14.4142 12.7502 14.75 12.4144 14.75 12.0002C14.75 11.5859 14.4142 11.2502 14 11.2502V12.7502ZM14 9.13552H13.25H14ZM17.22 7.55071L17.6775 6.9564V6.9564L17.22 7.55071ZM17.22 16.4496L17.6775 17.0439L17.22 16.4496ZM14 14.8648H14.75H14ZM20.9413 13.585L20.4838 12.9907L20.9413 13.585ZM20.9413 10.4154L20.4838 11.0097L20.9413 10.4154ZM3 12.7502L14 12.7502V11.2502L3 11.2502L3 12.7502ZM20.4838 12.9907L16.7625 15.8553L17.6775 17.0439L21.3988 14.1793L20.4838 12.9907ZM14.75 14.8648V9.13552H13.25V14.8648H14.75ZM16.7625 8.14501L20.4838 11.0097L21.3988 9.82105L17.6775 6.9564L16.7625 8.14501ZM14.75 9.13552C14.75 8.09822 15.9405 7.51227 16.7625 8.14501L17.6775 6.9564C15.8692 5.56436 13.25 6.85346 13.25 9.13552H14.75ZM16.7625 15.8553C15.9405 16.4881 14.75 15.9021 14.75 14.8648H13.25C13.25 17.1469 15.8692 18.436 17.6775 17.0439L16.7625 15.8553ZM21.3988 14.1793C22.8288 13.0784 22.8288 10.9219 21.3988 9.82105L20.4838 11.0097C21.1338 11.51 21.1338 12.4903 20.4838 12.9907L21.3988 14.1793Z" fill="#2D264B"/>
</svg>
