<svg xmlns="http://www.w3.org/2000/svg" width="24" height="24" viewBox="0 0 24 24">
  <defs/>
  <path fill="#2D264B" d="M5.061,20.045 C4.637,19.737 4.263,19.363 3.955,18.939 C3,17.625 3,15.75 3,12 C3,8.25 3,6.375 3.955,5.061 C4.263,4.637 4.637,4.263 5.061,3.955 C6.375,3 8.25,3 12,3 C15.75,3 17.625,3 18.939,3.955 C19.363,4.263 19.737,4.637 20.045,5.061 C21,6.375 21,8.25 21,12 C21,15.75 21,17.625 20.045,18.939 C19.737,19.363 19.363,19.737 18.939,20.045 C17.625,21 15.75,21 12,21 C8.25,21 6.375,21 5.061,20.045 Z M10.528,6.467 C10.234,6.176 9.759,6.178 9.467,6.472 C9.176,6.766 9.178,7.241 9.472,7.533 L11.235,9.28 C11.95,9.989 12.441,10.477 12.773,10.891 C13.096,11.292 13.207,11.55 13.236,11.781 C13.255,11.927 13.255,12.073 13.236,12.219 C13.207,12.45 13.096,12.708 12.773,13.109 C12.441,13.523 11.95,14.011 11.235,14.72 L9.472,16.467 C9.178,16.759 9.176,17.234 9.467,17.528 C9.759,17.822 10.234,17.824 10.528,17.533 L12.323,15.754 C12.999,15.084 13.551,14.536 13.943,14.049 C14.35,13.541 14.645,13.026 14.724,12.408 C14.759,12.137 14.759,11.863 14.724,11.592 C14.645,10.974 14.35,10.459 13.943,9.951 C13.551,9.464 12.999,8.916 12.323,8.246 Z"/>
</svg>

