<svg width="24" height="24" viewBox="0 0 24 24" fill="none" xmlns="http://www.w3.org/2000/svg">
<path fill-rule="evenodd" clip-rule="evenodd" d="M5.06107 20.0451C6.3754 21 8.25027 21 12 21C15.7497 21 17.6246 21 18.9389 20.0451C19.3634 19.7367 19.7367 19.3634 20.0451 18.9389C21 17.6246 21 15.7497 21 12C21 8.25027 21 6.3754 20.0451 5.06108C19.7367 4.6366 19.3634 4.26331 18.9389 3.95491C17.6246 3 15.7497 3 12 3C8.25027 3 6.3754 3 5.06107 3.95491C4.6366 4.26331 4.26331 4.6366 3.95492 5.06107C3 6.3754 3 8.25027 3 12C3 15.7497 3 17.6246 3.95492 18.9389C4.26331 19.3634 4.6366 19.7367 5.06107 20.0451ZM10.528 6.46731C10.2338 6.17573 9.75889 6.17784 9.46731 6.47204C9.17573 6.76624 9.17784 7.24111 9.47204 7.53269L11.235 9.28C11.9505 9.98914 12.4413 10.4772 12.7734 10.8907C13.096 11.2924 13.2067 11.5504 13.2361 11.7815C13.2546 11.9266 13.2546 12.0734 13.2361 12.2185C13.2067 12.4496 13.096 12.7076 12.7734 13.1093C12.4413 13.5228 11.9505 14.0109 11.235 14.72L9.47204 16.4673C9.17785 16.7589 9.17573 17.2338 9.46731 17.528C9.75889 17.8222 10.2338 17.8243 10.528 17.5327L12.3227 15.7539C12.9987 15.084 13.5511 14.5364 13.9429 14.0485C14.3504 13.5412 14.6453 13.0263 14.7241 12.4082C14.7586 12.1371 14.7586 11.8629 14.7241 11.5918C14.6453 10.9737 14.3504 10.4588 13.9429 9.95146C13.5511 9.46359 12.9987 8.91605 12.3227 8.24611L10.528 6.46731Z" fill="#2D264B"/>
</svg>
