<svg xmlns="http://www.w3.org/2000/svg" width="24" height="24" viewBox="0 0 24 24">
  <defs/>
  <path fill="#2D264B" d="M10.528,6.467 L12.292,8.215 Q14.583,10.487 14.724,11.592 Q14.776,12 14.724,12.408 Q14.583,13.513 12.292,15.785 L12.291,15.785 L10.528,17.533 Q10.307,17.751 9.997,17.75 Q9.686,17.749 9.467,17.528 Q9.249,17.307 9.25,16.997 Q9.251,16.686 9.472,16.467 L11.235,14.72 L11.236,14.719 Q13.161,12.811 13.236,12.219 Q13.264,12 13.236,11.781 Q13.161,11.189 11.236,9.281 L11.235,9.28 L9.472,7.533 Q9.251,7.314 9.25,7.003 Q9.249,6.693 9.467,6.472 Q9.686,6.251 9.997,6.25 Q10.307,6.249 10.528,6.467 Z"/>
</svg>

