<svg xmlns="http://www.w3.org/2000/svg" width="24" height="24" viewBox="0 0 24 24">
  <defs/>
  <path fill="#2D264B" d="M2.75,12 C2.75,11.586 2.414,11.25 2,11.25 C1.586,11.25 1.25,11.586 1.25,12 L2.75,12 Z M4,5.999 L4.555,6.504 L4.578,6.478 L4.6,6.45 L4,5.999 Z M4.013,1.003 C4.015,0.589 3.68,0.252 3.266,0.25 C2.852,0.248 2.515,0.582 2.513,0.997 L4.013,1.003 Z M8.923,7.407 C9.337,7.405 9.671,7.068 9.67,6.654 C9.668,6.239 9.33,5.905 8.916,5.907 L8.923,7.407 Z M1.25,12 C1.25,17.937 6.063,22.75 12,22.75 L12,21.25 C6.891,21.25 2.75,17.109 2.75,12 L1.25,12 Z M12,22.75 C17.937,22.75 22.75,17.937 22.75,12 L21.25,12 C21.25,17.109 17.109,21.25 12,21.25 L12,22.75 Z M22.75,12 C22.75,6.063 17.937,1.25 12,1.25 L12,2.75 C17.109,2.75 21.25,6.891 21.25,12 L22.75,12 Z M12,1.25 C9.58,1.25 7.345,2.05 5.549,3.4 L6.45,4.6 C7.996,3.438 9.916,2.75 12,2.75 L12,1.25 Z M5.549,3.4 C4.735,4.011 4.011,4.735 3.4,5.549 L4.6,6.45 C5.126,5.749 5.749,5.126 6.45,4.6 L5.549,3.4 Z M2.513,0.997 L2.504,2.982 L4.004,2.989 L4.013,1.003 L2.513,0.997 Z M6.937,7.416 L8.923,7.407 L8.916,5.907 L6.93,5.916 L6.937,7.416 Z M2.504,2.982 C2.5,3.757 2.496,4.401 2.553,4.916 C2.611,5.447 2.74,5.937 3.069,6.362 L4.256,5.444 C4.165,5.327 4.087,5.15 4.044,4.754 C3.999,4.342 4,3.798 4.004,2.989 L2.504,2.982 Z M6.93,5.916 C6.121,5.919 5.577,5.921 5.166,5.876 C4.77,5.832 4.592,5.754 4.476,5.664 L3.558,6.85 C3.983,7.179 4.472,7.309 5.003,7.367 C5.519,7.423 6.163,7.419 6.937,7.416 L6.93,5.916 Z M3.069,6.362 C3.158,6.477 3.256,6.584 3.362,6.684 L4.388,5.589 C4.34,5.544 4.296,5.496 4.256,5.444 L3.069,6.362 Z M3.362,6.684 C3.425,6.742 3.49,6.798 3.558,6.85 L4.476,5.664 C4.445,5.64 4.416,5.615 4.388,5.589 L3.362,6.684 Z M3.445,5.494 L3.32,5.632 L4.43,6.641 L4.555,6.504 L3.445,5.494 Z"/>
</svg>

