<svg xmlns="http://www.w3.org/2000/svg" width="24" height="24" viewBox="0 0 24 24">
  <defs/>
  <path fill="#2D264B" d="M4.013,1.003 C4.015,0.589 3.68,0.252 3.266,0.25 C2.852,0.248 2.515,0.582 2.513,0.997 L2.504,3.026 C2.5,3.781 2.497,4.41 2.553,4.916 C2.611,5.447 2.74,5.937 3.069,6.362 C3.158,6.477 3.256,6.584 3.362,6.684 C3.425,6.742 3.49,6.798 3.558,6.85 C3.983,7.179 4.472,7.309 5.003,7.367 C5.509,7.422 6.139,7.419 6.894,7.416 L6.894,7.416 L8.923,7.407 C9.337,7.405 9.671,7.068 9.67,6.654 C9.668,6.239 9.33,5.905 8.916,5.907 L6.93,5.916 C6.121,5.919 5.577,5.921 5.166,5.876 C5.135,5.872 5.106,5.869 5.077,5.865 C5.491,5.399 5.951,4.975 6.45,4.6 C7.996,3.438 9.916,2.75 12,2.75 C17.109,2.75 21.25,6.891 21.25,12 C21.25,17.109 17.109,21.25 12,21.25 C6.891,21.25 2.75,17.109 2.75,12 C2.75,11.586 2.414,11.25 2,11.25 C1.586,11.25 1.25,11.586 1.25,12 C1.25,17.937 6.063,22.75 12,22.75 C17.937,22.75 22.75,17.937 22.75,12 C22.75,6.063 17.937,1.25 12,1.25 C9.58,1.25 7.345,2.05 5.549,3.4 C5.005,3.809 4.502,4.267 4.046,4.769 L4.044,4.754 C3.999,4.342 4,3.798 4.004,2.989 L4.013,1.003 Z"/>
</svg>

