<svg xmlns="http://www.w3.org/2000/svg" width="24" height="24" viewBox="0 0 24 24">
  <defs/>
  <path fill="#2D264B" d="M22.75,12 C22.75,11.586 22.414,11.25 22,11.25 C21.586,11.25 21.25,11.586 21.25,12 L22.75,12 Z M20,5.999 L19.4,6.45 L19.431,6.49 L19.467,6.527 L20,5.999 Z M21.407,0.997 C21.405,0.582 21.068,0.248 20.654,0.25 C20.239,0.252 19.905,0.589 19.907,1.003 L21.407,0.997 Z M15.003,5.907 C14.589,5.905 14.252,6.239 14.25,6.654 C14.248,7.068 14.582,7.405 14.997,7.407 L15.003,5.907 Z M21.25,12 C21.25,17.109 17.109,21.25 12,21.25 L12,22.75 C17.937,22.75 22.75,17.937 22.75,12 L21.25,12 Z M12,21.25 C6.891,21.25 2.75,17.109 2.75,12 L1.25,12 C1.25,17.937 6.063,22.75 12,22.75 L12,21.25 Z M2.75,12 C2.75,6.891 6.891,2.75 12,2.75 L12,1.25 C6.063,1.25 1.25,6.063 1.25,12 L2.75,12 Z M12,2.75 C14.084,2.75 16.004,3.438 17.55,4.6 L18.451,3.4 C16.655,2.05 14.42,1.25 12,1.25 L12,2.75 Z M17.55,4.6 C18.251,5.126 18.874,5.749 19.4,6.45 L20.6,5.549 C19.989,4.735 19.265,4.011 18.451,3.4 L17.55,4.6 Z M19.907,1.003 L19.916,2.989 L21.416,2.982 L21.407,0.997 L19.907,1.003 Z M16.989,5.916 L15.003,5.907 L14.997,7.407 L16.982,7.416 L16.989,5.916 Z M19.916,2.989 C19.919,3.798 19.921,4.342 19.876,4.754 C19.832,5.15 19.754,5.327 19.664,5.444 L20.85,6.362 C21.179,5.937 21.309,5.447 21.367,4.916 C21.423,4.401 21.419,3.757 21.416,2.982 L19.916,2.989 Z M16.982,7.416 C17.756,7.419 18.401,7.423 18.916,7.367 C19.447,7.309 19.937,7.179 20.362,6.85 L19.444,5.664 C19.327,5.754 19.15,5.832 18.753,5.876 C18.342,5.921 17.799,5.919 16.989,5.916 L16.982,7.416 Z M19.664,5.444 C19.632,5.485 19.598,5.524 19.561,5.561 L20.622,6.622 C20.703,6.54 20.779,6.453 20.85,6.362 L19.664,5.444 Z M19.561,5.561 C19.524,5.598 19.485,5.632 19.444,5.664 L20.362,6.85 C20.453,6.78 20.54,6.703 20.622,6.622 L19.561,5.561 Z M19.467,6.527 L19.558,6.619 L20.624,5.564 L20.533,5.472 L19.467,6.527 Z"/>
</svg>

