<svg xmlns="http://www.w3.org/2000/svg" width="24" height="24" viewBox="0 0 24 24">
  <defs/>
  <path fill="#2D264B" d="M21.407,0.997 C21.405,0.582 21.068,0.248 20.654,0.25 C20.239,0.252 19.905,0.589 19.907,1.003 L19.916,2.989 C19.919,3.758 19.921,4.287 19.882,4.69 C19.445,4.219 18.966,3.787 18.451,3.4 C16.655,2.05 14.42,1.25 12,1.25 C6.063,1.25 1.25,6.063 1.25,12 C1.25,17.937 6.063,22.75 12,22.75 C17.937,22.75 22.75,17.937 22.75,12 C22.75,11.586 22.414,11.25 22,11.25 C21.586,11.25 21.25,11.586 21.25,12 C21.25,17.109 17.109,21.25 12,21.25 C6.891,21.25 2.75,17.109 2.75,12 C2.75,6.891 6.891,2.75 12,2.75 C14.084,2.75 16.004,3.438 17.55,4.6 C18.046,4.972 18.503,5.392 18.914,5.855 C18.865,5.862 18.811,5.869 18.753,5.876 C18.342,5.921 17.799,5.919 16.989,5.916 L15.003,5.907 C14.589,5.905 14.252,6.239 14.25,6.654 C14.248,7.068 14.582,7.405 14.997,7.407 L17.026,7.416 C17.781,7.419 18.41,7.422 18.916,7.367 C19.447,7.309 19.937,7.179 20.362,6.85 C20.453,6.78 20.54,6.703 20.622,6.622 C20.703,6.54 20.779,6.453 20.85,6.362 C21.179,5.937 21.309,5.447 21.367,4.916 C21.422,4.41 21.419,3.781 21.416,3.026 L21.407,0.997 Z"/>
</svg>

