<svg width="24" height="24" viewBox="0 0 24 24" fill="none" xmlns="http://www.w3.org/2000/svg">
<path d="M4.01269 1.00335C4.01454 0.589137 3.68025 0.251856 3.26604 0.250008C2.85183 0.24816 2.51455 0.582445 2.5127 0.996654L2.50365 3.02568C2.50026 3.78054 2.49744 4.41017 2.55271 4.91635C2.61069 5.44728 2.74029 5.93661 3.06926 6.36169C3.15834 6.4768 3.25638 6.58449 3.36242 6.68379C3.42487 6.74227 3.49008 6.79784 3.55786 6.85029C3.98294 7.17926 4.47227 7.30886 5.0032 7.36684C5.50939 7.42211 6.13896 7.41929 6.89383 7.4159H6.89384L8.9229 7.40685C9.3371 7.405 9.67139 7.06772 9.66954 6.65351C9.66769 6.2393 9.33041 5.90501 8.9162 5.90686L6.93049 5.91572C6.12107 5.91933 5.57738 5.92062 5.16604 5.8757C5.13511 5.87232 5.10551 5.86873 5.07717 5.86494C5.49067 5.39871 5.95055 4.97451 6.44953 4.59962C7.99559 3.43804 9.91636 2.75 12 2.75C17.1086 2.75 21.25 6.89137 21.25 12C21.25 17.1086 17.1086 21.25 12 21.25C6.89137 21.25 2.75 17.1086 2.75 12C2.75 11.5858 2.41421 11.25 2 11.25C1.58579 11.25 1.25 11.5858 1.25 12C1.25 17.9371 6.06294 22.75 12 22.75C17.9371 22.75 22.75 17.9371 22.75 12C22.75 6.06294 17.9371 1.25 12 1.25C9.58034 1.25 7.34544 2.05032 5.54852 3.40038C5.00526 3.80854 4.50198 4.26696 4.04555 4.76877L4.04385 4.75351C3.99893 4.34217 4.00022 3.79848 4.00383 2.98906L4.01269 1.00335Z" fill="#2D264B"/>
</svg>
