<svg width="24" height="24" viewBox="0 0 24 24" fill="none" xmlns="http://www.w3.org/2000/svg">
<path fill-rule="evenodd" clip-rule="evenodd" d="M22 12C22 17.5228 17.5228 22 12 22C6.47715 22 2 17.5228 2 12C2 6.47715 6.47715 2 12 2C17.5228 2 22 6.47715 22 12ZM9.27171 15.6381C8.49474 16.1664 7.93492 16.8262 7.66582 17.3452C7.47515 17.713 7.02248 17.8565 6.65476 17.6658C6.28704 17.4751 6.14351 17.0225 6.33418 16.6548C6.73174 15.888 7.47192 15.0479 8.42829 14.3976C9.39148 13.7427 10.6191 13.25 12 13.25C13.3809 13.25 14.6085 13.7427 15.5717 14.3976C16.5281 15.0479 17.2683 15.888 17.6658 16.6548C17.8565 17.0225 17.713 17.4751 17.3452 17.6658C16.9775 17.8565 16.5249 17.713 16.3342 17.3452C16.0651 16.8262 15.5053 16.1664 14.7283 15.6381C13.9581 15.1144 13.0191 14.75 12 14.75C10.9809 14.75 10.0419 15.1144 9.27171 15.6381ZM9 9C9.55228 9 10 8.55228 10 8C10 7.44772 9.55228 7 9 7C8.44772 7 8 7.44772 8 8C8 8.55228 8.44772 9 9 9ZM15 9C15.5523 9 16 8.55228 16 8C16 7.44772 15.5523 7 15 7C14.4477 7 14 7.44772 14 8C14 8.55228 14.4477 9 15 9Z" fill="#2D264B"/>
</svg>
