<svg xmlns="http://www.w3.org/2000/svg" width="24" height="24" viewBox="0 0 24 24">
  <defs/>
  <path fill="#2D264B" d="M22,12 C22,17.523 17.523,22 12,22 C6.477,22 2,17.523 2,12 C2,6.477 6.477,2 12,2 C17.523,2 22,6.477 22,12 Z M9.272,15.638 C10.042,15.114 10.981,14.75 12,14.75 C13.019,14.75 13.958,15.114 14.728,15.638 C15.505,16.166 16.065,16.826 16.334,17.345 C16.525,17.713 16.978,17.857 17.345,17.666 C17.713,17.475 17.857,17.022 17.666,16.655 C17.268,15.888 16.528,15.048 15.572,14.398 C14.608,13.743 13.381,13.25 12,13.25 C10.619,13.25 9.391,13.743 8.428,14.398 C7.472,15.048 6.732,15.888 6.334,16.655 C6.144,17.022 6.287,17.475 6.655,17.666 C7.022,17.857 7.475,17.713 7.666,17.345 C7.935,16.826 8.495,16.166 9.272,15.638 Z M15,9 C15.552,9 16,8.552 16,8 C16,7.448 15.552,7 15,7 C14.448,7 14,7.448 14,8 C14,8.552 14.448,9 15,9 Z M9,9 C9.552,9 10,8.552 10,8 C10,7.448 9.552,7 9,7 C8.448,7 8,7.448 8,8 C8,8.552 8.448,9 9,9 Z"/>
</svg>

