<svg xmlns="http://www.w3.org/2000/svg" width="24" height="24" viewBox="0 0 24 24">
  <defs/>
  <path fill="#2D264B" d="M3.75,15 C3.75,14.586 3.414,14.25 3,14.25 C2.586,14.25 2.25,14.586 2.25,15 L3.75,15 Z M9,21.75 C9.414,21.75 9.75,21.414 9.75,21 C9.75,20.586 9.414,20.25 9,20.25 L9,21.75 Z M9,3.75 C9.414,3.75 9.75,3.414 9.75,3 C9.75,2.586 9.414,2.25 9,2.25 L9,3.75 Z M2.25,9 C2.25,9.414 2.586,9.75 3,9.75 C3.414,9.75 3.75,9.414 3.75,9 L2.25,9 Z M20.25,9 C20.25,9.414 20.586,9.75 21,9.75 C21.414,9.75 21.75,9.414 21.75,9 L20.25,9 Z M15,2.25 C14.586,2.25 14.25,2.586 14.25,3 C14.25,3.414 14.586,3.75 15,3.75 L15,2.25 Z M15,20.25 C14.586,20.25 14.25,20.586 14.25,21 C14.25,21.414 14.586,21.75 15,21.75 L15,20.25 Z M21.75,15 C21.75,14.586 21.414,14.25 21,14.25 C20.586,14.25 20.25,14.586 20.25,15 L21.75,15 Z M18.2,12.723 C18.599,12.612 18.833,12.199 18.723,11.8 C18.612,11.401 18.199,11.167 17.8,11.277 L18.2,12.723 Z M6.2,11.277 C5.801,11.167 5.388,11.401 5.277,11.8 C5.167,12.199 5.401,12.612 5.8,12.723 L6.2,11.277 Z M3.75,16 L3.75,15 L2.25,15 L2.25,16 L3.75,16 Z M9,20.25 L8,20.25 L8,21.75 L9,21.75 L9,20.25 Z M2.25,16 C2.25,19.176 4.824,21.75 8,21.75 L8,20.25 C5.653,20.25 3.75,18.347 3.75,16 L2.25,16 Z M8,3.75 L9,3.75 L9,2.25 L8,2.25 L8,3.75 Z M3.75,9 L3.75,8 L2.25,8 L2.25,9 L3.75,9 Z M8,2.25 C4.824,2.25 2.25,4.824 2.25,8 L3.75,8 C3.75,5.653 5.653,3.75 8,3.75 L8,2.25 Z M20.25,8 L20.25,9 L21.75,9 L21.75,8 L20.25,8 Z M15,3.75 L16,3.75 L16,2.25 L15,2.25 L15,3.75 Z M21.75,8 C21.75,4.824 19.176,2.25 16,2.25 L16,3.75 C18.347,3.75 20.25,5.653 20.25,8 L21.75,8 Z M16,20.25 L15,20.25 L15,21.75 L16,21.75 L16,20.25 Z M20.25,15 L20.25,16 L21.75,16 L21.75,15 L20.25,15 Z M16,21.75 C19.176,21.75 21.75,19.176 21.75,16 L20.25,16 C20.25,18.347 18.347,20.25 16,20.25 L16,21.75 Z M18,12 C17.8,11.277 17.8,11.277 17.8,11.277 C17.8,11.277 17.8,11.277 17.8,11.277 C17.8,11.277 17.8,11.277 17.8,11.277 C17.799,11.277 17.799,11.277 17.798,11.278 C17.797,11.278 17.794,11.279 17.791,11.28 C17.785,11.281 17.776,11.284 17.763,11.287 C17.737,11.294 17.699,11.305 17.648,11.318 C17.548,11.344 17.401,11.383 17.217,11.429 C16.848,11.521 16.332,11.643 15.743,11.766 C14.551,12.014 13.114,12.25 12,12.25 L12,13.75 C13.276,13.75 14.838,13.486 16.049,13.234 C16.661,13.107 17.197,12.979 17.58,12.884 C17.772,12.836 17.925,12.796 18.032,12.768 C18.085,12.754 18.127,12.743 18.155,12.735 C18.169,12.731 18.18,12.728 18.188,12.726 C18.192,12.725 18.195,12.724 18.197,12.724 C18.198,12.723 18.198,12.723 18.199,12.723 C18.199,12.723 18.2,12.723 18.2,12.723 C18.2,12.723 18.2,12.723 18.2,12.723 C18.2,12.723 18.2,12.723 18,12 Z M12,12.25 C10.886,12.25 9.449,12.014 8.257,11.766 C7.668,11.643 7.152,11.521 6.783,11.429 C6.599,11.383 6.452,11.344 6.352,11.318 C6.301,11.305 6.263,11.294 6.237,11.287 C6.224,11.284 6.215,11.281 6.209,11.28 C6.206,11.279 6.203,11.278 6.202,11.278 C6.201,11.277 6.201,11.277 6.2,11.277 C6.2,11.277 6.2,11.277 6.2,11.277 C6.2,11.277 6.2,11.277 6.2,11.277 C6.2,11.277 6.2,11.277 6,12 C5.8,12.723 5.8,12.723 5.8,12.723 C5.8,12.723 5.8,12.723 5.8,12.723 C5.8,12.723 5.801,12.723 5.801,12.723 C5.802,12.723 5.802,12.723 5.803,12.724 C5.805,12.724 5.808,12.725 5.812,12.726 C5.82,12.728 5.831,12.731 5.845,12.735 C5.873,12.743 5.915,12.754 5.968,12.768 C6.074,12.796 6.228,12.836 6.42,12.884 C6.803,12.979 7.339,13.107 7.951,13.234 C9.162,13.486 10.724,13.75 12,13.75 L12,12.25 Z"/>
</svg>

