<svg width="24" height="24" viewBox="0 0 24 24" fill="none" xmlns="http://www.w3.org/2000/svg">
<path d="M15 2.25C14.5858 2.25 14.25 2.58579 14.25 3C14.25 3.41421 14.5858 3.75 15 3.75H16C18.3472 3.75 20.25 5.65279 20.25 8V9C20.25 9.41421 20.5858 9.75 21 9.75C21.4142 9.75 21.75 9.41421 21.75 9V8C21.75 4.82436 19.1756 2.25 16 2.25H15Z" fill="#2D264B"/>
<path d="M8 2.25C4.82436 2.25 2.25 4.82436 2.25 8V9C2.25 9.41421 2.58579 9.75 3 9.75C3.41421 9.75 3.75 9.41421 3.75 9V8C3.75 5.65279 5.65279 3.75 8 3.75H9C9.41421 3.75 9.75 3.41421 9.75 3C9.75 2.58579 9.41421 2.25 9 2.25H8Z" fill="#2D264B"/>
<path d="M3.75 15C3.75 14.5858 3.41421 14.25 3 14.25C2.58579 14.25 2.25 14.5858 2.25 15V16C2.25 19.1756 4.82436 21.75 8 21.75H9C9.41422 21.75 9.75 21.4142 9.75 21C9.75 20.5858 9.41422 20.25 9 20.25H8C5.65279 20.25 3.75 18.3472 3.75 16V15Z" fill="#2D264B"/>
<path d="M21.75 15C21.75 14.5858 21.4142 14.25 21 14.25C20.5858 14.25 20.25 14.5858 20.25 15V16C20.25 18.3472 18.3472 20.25 16 20.25H15C14.5858 20.25 14.25 20.5858 14.25 21C14.25 21.4142 14.5858 21.75 15 21.75H16C19.1756 21.75 21.75 19.1756 21.75 16V15Z" fill="#2D264B"/>
<path d="M6 8C6 7.05719 6 6.58579 6.29289 6.29289C6.58579 6 7.05719 6 8 6C8.94281 6 9.41421 6 9.70711 6.29289C10 6.58579 10 7.05719 10 8C10 8.94281 10 9.41421 9.70711 9.70711C9.41421 10 8.94281 10 8 10C7.05719 10 6.58579 10 6.29289 9.70711C6 9.41421 6 8.94281 6 8Z" fill="#2D264B"/>
<path d="M6 16C6 15.0572 6 14.5858 6.29289 14.2929C6.58579 14 7.05719 14 8 14C8.94281 14 9.41421 14 9.70711 14.2929C10 14.5858 10 15.0572 10 16C10 16.9428 10 17.4142 9.70711 17.7071C9.41421 18 8.94281 18 8 18C7.05719 18 6.58579 18 6.29289 17.7071C6 17.4142 6 16.9428 6 16Z" fill="#2D264B"/>
<path d="M14 16C14 15.0572 14 14.5858 14.2929 14.2929C14.5858 14 15.0572 14 16 14C16.9428 14 17.4142 14 17.7071 14.2929C18 14.5858 18 15.0572 18 16C18 16.9428 18 17.4142 17.7071 17.7071C17.4142 18 16.9428 18 16 18C15.0572 18 14.5858 18 14.2929 17.7071C14 17.4142 14 16.9428 14 16Z" fill="#2D264B"/>
</svg>
