<svg width="24" height="24" viewBox="0 0 24 24" fill="none" xmlns="http://www.w3.org/2000/svg">
<path d="M14.25 3C14.25 2.58579 14.5858 2.25 15 2.25H16C19.1756 2.25 21.75 4.82436 21.75 8V9C21.75 9.41421 21.4142 9.75 21 9.75C20.5858 9.75 20.25 9.41421 20.25 9V8C20.25 5.65279 18.3472 3.75 16 3.75H15C14.5858 3.75 14.25 3.41421 14.25 3Z" fill="#2D264B"/>
<path d="M2.25 8C2.25 4.82436 4.82436 2.25 8 2.25H9C9.41421 2.25 9.75 2.58579 9.75 3C9.75 3.41421 9.41421 3.75 9 3.75H8C5.65279 3.75 3.75 5.65279 3.75 8V9C3.75 9.41421 3.41421 9.75 3 9.75C2.58579 9.75 2.25 9.41421 2.25 9V8Z" fill="#2D264B"/>
<path d="M0.25 12C0.25 11.5858 0.585786 11.25 1 11.25H23C23.4142 11.25 23.75 11.5858 23.75 12C23.75 12.4142 23.4142 12.75 23 12.75H1C0.585786 12.75 0.25 12.4142 0.25 12Z" fill="#2D264B"/>
<path d="M3 14.25C3.41421 14.25 3.75 14.5858 3.75 15V16C3.75 18.3472 5.65279 20.25 8 20.25H9C9.41421 20.25 9.75 20.5858 9.75 21C9.75 21.4142 9.41421 21.75 9 21.75H8C4.82436 21.75 2.25 19.1756 2.25 16V15C2.25 14.5858 2.58579 14.25 3 14.25Z" fill="#2D264B"/>
<path d="M21 14.25C21.4142 14.25 21.75 14.5858 21.75 15V16C21.75 19.1756 19.1756 21.75 16 21.75H15C14.5858 21.75 14.25 21.4142 14.25 21C14.25 20.5858 14.5858 20.25 15 20.25H16C18.3472 20.25 20.25 18.3472 20.25 16V15C20.25 14.5858 20.5858 14.25 21 14.25Z" fill="#2D264B"/>
<path d="M7 14.8333C7 17.1345 8.86548 19 11.1667 19H12.8333C15.1345 19 17 17.1345 17 14.8333C17 14.3731 16.6269 14 16.1667 14H7.83333C7.3731 14 7 14.3731 7 14.8333Z" fill="#2D264B"/>
<path d="M11.1667 5C8.86548 5 7 6.86548 7 9.16667C7 9.6269 7.3731 10 7.83333 10H16.1667C16.6269 10 17 9.6269 17 9.16667C17 6.86548 15.1345 5 12.8333 5H11.1667Z" fill="#2D264B"/>
</svg>
