<svg width="24" height="24" viewBox="0 0 24 24" fill="none" xmlns="http://www.w3.org/2000/svg">
<path d="M2.4893 13.9998C2.52475 15.303 2.64138 16.1474 3.02505 16.8953C3.10055 17.0425 3.18329 17.1858 3.27299 17.3248C3.92795 18.3394 5.03095 18.9762 7.23696 20.2499C8.4091 20.9266 9.26992 21.4236 10.0002 21.7497M21.5109 13.9998C21.4755 15.303 21.3588 16.1474 20.9752 16.8953C20.8997 17.0425 20.8169 17.1858 20.7272 17.3248C20.0723 18.3394 18.9693 18.9762 16.7632 20.2499C15.5911 20.9266 14.7303 21.4236 14 21.7497M21.5109 9.9999C21.4755 8.69671 21.3588 7.85233 20.9752 7.10441C20.8997 6.95725 20.8169 6.81392 20.7272 6.67497C20.0723 5.66032 18.9693 5.0235 16.7632 3.74986C15.5911 3.0731 14.7303 2.57614 14 2.25M2.4893 9.9999C2.52475 8.69671 2.64137 7.85233 3.02505 7.10441C3.10055 6.95725 3.18329 6.81392 3.27299 6.67497C3.92795 5.66032 5.03095 5.0235 7.23696 3.74986C8.40914 3.0731 9.2699 2.57614 10.0002 2.25M23 13.9999H1" stroke="#2D264B" stroke-width="1.5" stroke-linecap="round"/>
</svg>
