<svg xmlns="http://www.w3.org/2000/svg" width="24" height="24" viewBox="0 0 24 24">
  <defs/>
  <path fill="#2D264B" d="M15,2.25 C14.586,2.25 14.25,2.586 14.25,3 C14.25,3.414 14.586,3.75 15,3.75 L16,3.75 C18.347,3.75 20.25,5.653 20.25,8 L20.25,9 C20.25,9.414 20.586,9.75 21,9.75 C21.414,9.75 21.75,9.414 21.75,9 L21.75,8 C21.75,4.824 19.176,2.25 16,2.25 L15,2.25 Z"/>
  <path fill="#2D264B" d="M8,2.25 C4.824,2.25 2.25,4.824 2.25,8 L2.25,9 C2.25,9.414 2.586,9.75 3,9.75 C3.414,9.75 3.75,9.414 3.75,9 L3.75,8 C3.75,5.653 5.653,3.75 8,3.75 L9,3.75 C9.414,3.75 9.75,3.414 9.75,3 C9.75,2.586 9.414,2.25 9,2.25 L8,2.25 Z"/>
  <path fill="#2D264B" d="M3.75,15 C3.75,14.586 3.414,14.25 3,14.25 C2.586,14.25 2.25,14.586 2.25,15 L2.25,16 C2.25,19.176 4.824,21.75 8,21.75 L9,21.75 C9.414,21.75 9.75,21.414 9.75,21 C9.75,20.586 9.414,20.25 9,20.25 L8,20.25 C5.653,20.25 3.75,18.347 3.75,16 L3.75,15 Z"/>
  <path fill="#2D264B" d="M21.75,15 C21.75,14.586 21.414,14.25 21,14.25 C20.586,14.25 20.25,14.586 20.25,15 L20.25,16 C20.25,18.347 18.347,20.25 16,20.25 L15,20.25 C14.586,20.25 14.25,20.586 14.25,21 C14.25,21.414 14.586,21.75 15,21.75 L16,21.75 C19.176,21.75 21.75,19.176 21.75,16 L21.75,15 Z"/>
  <path fill="#2D264B" d="M6,8 C6,7.057 6,6.586 6.293,6.293 C6.586,6 7.057,6 8,6 C8.943,6 9.414,6 9.707,6.293 C10,6.586 10,7.057 10,8 C10,8.943 10,9.414 9.707,9.707 C9.414,10 8.943,10 8,10 C7.057,10 6.586,10 6.293,9.707 C6,9.414 6,8.943 6,8 Z"/>
  <path fill="#2D264B" d="M6,16 C6,15.057 6,14.586 6.293,14.293 C6.586,14 7.057,14 8,14 C8.943,14 9.414,14 9.707,14.293 C10,14.586 10,15.057 10,16 C10,16.943 10,17.414 9.707,17.707 C9.414,18 8.943,18 8,18 C7.057,18 6.586,18 6.293,17.707 C6,17.414 6,16.943 6,16 Z"/>
  <path fill="#2D264B" d="M14,16 C14,15.057 14,14.586 14.293,14.293 C14.586,14 15.057,14 16,14 C16.943,14 17.414,14 17.707,14.293 C18,14.586 18,15.057 18,16 C18,16.943 18,17.414 17.707,17.707 C17.414,18 16.943,18 16,18 C15.057,18 14.586,18 14.293,17.707 C14,17.414 14,16.943 14,16 Z"/>
</svg>

