<svg xmlns="http://www.w3.org/2000/svg" width="24" height="24" viewBox="0 0 24 24">
  <defs/>
  <path fill="#2D264B" d="M3.75,15 C3.75,14.586 3.414,14.25 3,14.25 C2.586,14.25 2.25,14.586 2.25,15 L3.75,15 Z M9,21.75 C9.414,21.75 9.75,21.414 9.75,21 C9.75,20.586 9.414,20.25 9,20.25 L9,21.75 Z M9,3.75 C9.414,3.75 9.75,3.414 9.75,3 C9.75,2.586 9.414,2.25 9,2.25 L9,3.75 Z M2.25,9 C2.25,9.414 2.586,9.75 3,9.75 C3.414,9.75 3.75,9.414 3.75,9 L2.25,9 Z M20.25,9 C20.25,9.414 20.586,9.75 21,9.75 C21.414,9.75 21.75,9.414 21.75,9 L20.25,9 Z M15,2.25 C14.586,2.25 14.25,2.586 14.25,3 C14.25,3.414 14.586,3.75 15,3.75 L15,2.25 Z M15,20.25 C14.586,20.25 14.25,20.586 14.25,21 C14.25,21.414 14.586,21.75 15,21.75 L15,20.25 Z M21.75,15 C21.75,14.586 21.414,14.25 21,14.25 C20.586,14.25 20.25,14.586 20.25,15 L21.75,15 Z M12,13.25 C11.31,13.25 10.75,12.69 10.75,12 L9.25,12 C9.25,13.519 10.481,14.75 12,14.75 L12,13.25 Z M13.25,12 C13.25,12.69 12.69,13.25 12,13.25 L12,14.75 C13.519,14.75 14.75,13.519 14.75,12 L13.25,12 Z M12,10.75 C12.69,10.75 13.25,11.31 13.25,12 L14.75,12 C14.75,10.481 13.519,9.25 12,9.25 L12,10.75 Z M12,9.25 C10.481,9.25 9.25,10.481 9.25,12 L10.75,12 C10.75,11.31 11.31,10.75 12,10.75 L12,9.25 Z M3.75,16 L3.75,15 L2.25,15 L2.25,16 L3.75,16 Z M9,20.25 L8,20.25 L8,21.75 L9,21.75 L9,20.25 Z M2.25,16 C2.25,19.176 4.824,21.75 8,21.75 L8,20.25 C5.653,20.25 3.75,18.347 3.75,16 L2.25,16 Z M8,3.75 L9,3.75 L9,2.25 L8,2.25 L8,3.75 Z M3.75,9 L3.75,8 L2.25,8 L2.25,9 L3.75,9 Z M8,2.25 C4.824,2.25 2.25,4.824 2.25,8 L3.75,8 C3.75,5.653 5.653,3.75 8,3.75 L8,2.25 Z M20.25,8 L20.25,9 L21.75,9 L21.75,8 L20.25,8 Z M15,3.75 L16,3.75 L16,2.25 L15,2.25 L15,3.75 Z M21.75,8 C21.75,4.824 19.176,2.25 16,2.25 L16,3.75 C18.347,3.75 20.25,5.653 20.25,8 L21.75,8 Z M16,20.25 L15,20.25 L15,21.75 L16,21.75 L16,20.25 Z M20.25,15 L20.25,16 L21.75,16 L21.75,15 L20.25,15 Z M16,21.75 C19.176,21.75 21.75,19.176 21.75,16 L20.25,16 C20.25,18.347 18.347,20.25 16,20.25 L16,21.75 Z"/>
</svg>

