<svg width="24" height="24" viewBox="0 0 24 24" fill="none" xmlns="http://www.w3.org/2000/svg">
<path d="M9 21.75C9.41421 21.75 9.75 21.4142 9.75 21C9.75 20.5858 9.41421 20.25 9 20.25H8C5.65279 20.25 3.75 18.3472 3.75 16V15C3.75 14.5858 3.41421 14.25 3 14.25C2.58579 14.25 2.25 14.5858 2.25 15V16C2.25 19.1756 4.82436 21.75 8 21.75H9Z" fill="#2D264B"/>
<path d="M16 21.75C19.1756 21.75 21.75 19.1756 21.75 16V15C21.75 14.5858 21.4142 14.25 21 14.25C20.5858 14.25 20.25 14.5858 20.25 15V16C20.25 18.3472 18.3472 20.25 16 20.25H15C14.5858 20.25 14.25 20.5858 14.25 21C14.25 21.4142 14.5858 21.75 15 21.75H16Z" fill="#2D264B"/>
<path d="M20.25 9C20.25 9.41421 20.5858 9.75 21 9.75C21.4142 9.75 21.75 9.41421 21.75 9V8C21.75 4.82436 19.1756 2.25 16 2.25H15C14.5858 2.25 14.25 2.58579 14.25 3C14.25 3.41421 14.5858 3.75 15 3.75H16C18.3472 3.75 20.25 5.65279 20.25 8V9Z" fill="#2D264B"/>
<path d="M2.25 9C2.25 9.41421 2.58579 9.75 3 9.75C3.41421 9.75 3.75 9.41421 3.75 9V8C3.75 5.65279 5.65279 3.75 8 3.75H9C9.41421 3.75 9.75 3.41421 9.75 3C9.75 2.58579 9.41421 2.25 9 2.25H8C4.82436 2.25 2.25 4.82436 2.25 8V9Z" fill="#2D264B"/>
<path d="M17.7999 13.7228C18.199 13.8333 18.6122 13.5994 18.7228 13.2002C18.8334 12.801 18.5994 12.3878 18.2002 12.2772L18.195 12.2758L18.1818 12.2722L18.1327 12.2588C18.09 12.2473 18.0278 12.2307 17.9484 12.21C17.7897 12.1686 17.562 12.1105 17.283 12.0432C16.726 11.9088 15.9611 11.7368 15.1331 11.5875C14.1192 11.4048 12.9783 11.25 12 11.25C11.0217 11.25 9.88085 11.4048 8.86694 11.5875C8.03893 11.7368 7.274 11.9088 6.71698 12.0432C6.43805 12.1105 6.21026 12.1686 6.05155 12.21C5.97218 12.2307 5.91003 12.2473 5.86734 12.2588L5.81816 12.2722L5.80502 12.2758L5.80036 12.2771C5.40117 12.3876 5.16665 12.801 5.27721 13.2002C5.38777 13.5994 5.80097 13.8333 6.20014 13.7228L6.203 13.722L6.21365 13.7191L6.25766 13.7072C6.29682 13.6966 6.3552 13.681 6.43059 13.6613C6.58141 13.6219 6.80005 13.5662 7.06874 13.5014C7.60695 13.3715 8.34203 13.2063 9.13306 13.0637C10.1168 12.8864 11.1549 12.75 12 12.75C12.8451 12.75 13.8832 12.8864 14.8669 13.0637C15.658 13.2063 16.393 13.3715 16.9313 13.5014C17.2 13.5662 17.4186 13.6219 17.5694 13.6613C17.6448 13.681 17.7032 13.6966 17.7423 13.7072L17.7863 13.7191L17.797 13.722L17.7999 13.7228Z" fill="#2D264B"/>
</svg>
