<svg width="24" height="24" viewBox="0 0 24 24" fill="none" xmlns="http://www.w3.org/2000/svg">
<path d="M15 2.25C14.5858 2.25 14.25 2.58579 14.25 3C14.25 3.41421 14.5858 3.75 15 3.75H16C18.3472 3.75 20.25 5.65279 20.25 8V9C20.25 9.41421 20.5858 9.75 21 9.75C21.4142 9.75 21.75 9.41421 21.75 9V8C21.75 4.82436 19.1756 2.25 16 2.25H15Z" fill="#2D264B"/>
<path d="M8 2.25C4.82436 2.25 2.25 4.82436 2.25 8V9C2.25 9.41421 2.58579 9.75 3 9.75C3.41421 9.75 3.75 9.41421 3.75 9V8C3.75 5.65279 5.65279 3.75 8 3.75H9C9.41421 3.75 9.75 3.41421 9.75 3C9.75 2.58579 9.41421 2.25 9 2.25H8Z" fill="#2D264B"/>
<path d="M3.75 15C3.75 14.5858 3.41421 14.25 3 14.25C2.58579 14.25 2.25 14.5858 2.25 15V16C2.25 19.1756 4.82436 21.75 8 21.75H9C9.41421 21.75 9.75 21.4142 9.75 21C9.75 20.5858 9.41421 20.25 9 20.25H8C5.65279 20.25 3.75 18.3472 3.75 16V15Z" fill="#2D264B"/>
<path d="M21.75 15C21.75 14.5858 21.4142 14.25 21 14.25C20.5858 14.25 20.25 14.5858 20.25 15V16C20.25 18.3472 18.3472 20.25 16 20.25H15C14.5858 20.25 14.25 20.5858 14.25 21C14.25 21.4142 14.5858 21.75 15 21.75H16C19.1756 21.75 21.75 19.1756 21.75 16V15Z" fill="#2D264B"/>
<path d="M6.20013 11.2772C5.80097 11.1667 5.38777 11.4006 5.27721 11.7998C5.16665 12.199 5.40062 12.6122 5.79981 12.7228L5.80502 12.7242L5.81816 12.7278L5.86734 12.7412C5.91003 12.7527 5.97218 12.7693 6.05155 12.79C6.21025 12.8314 6.43805 12.8895 6.71698 12.9568C7.274 13.0912 8.03892 13.2632 8.86694 13.4125C9.88084 13.5952 11.0217 13.75 12 13.75C12.9783 13.75 14.1192 13.5952 15.1331 13.4125C15.9611 13.2632 16.726 13.0912 17.283 12.9568C17.562 12.8895 17.7897 12.8314 17.9484 12.79C18.0278 12.7693 18.09 12.7527 18.1327 12.7412L18.1818 12.7278L18.195 12.7242L18.1996 12.7229C18.5988 12.6124 18.8334 12.199 18.7228 11.7998C18.6122 11.4006 18.199 11.1667 17.7999 11.2772L17.797 11.278L17.7863 11.2809L17.7423 11.2928C17.7032 11.3034 17.6448 11.319 17.5694 11.3387C17.4186 11.3781 17.2 11.4338 16.9313 11.4986C16.393 11.6285 15.658 11.7937 14.8669 11.9363C13.8832 12.1136 12.8451 12.25 12 12.25C11.1549 12.25 10.1168 12.1136 9.13306 11.9363C8.34203 11.7937 7.60695 11.6285 7.06874 11.4986C6.80005 11.4338 6.58141 11.3781 6.43059 11.3387C6.3552 11.319 6.29682 11.3034 6.25766 11.2928L6.21365 11.2809L6.203 11.278L6.20013 11.2772Z" fill="#2D264B"/>
</svg>
