<svg xmlns="http://www.w3.org/2000/svg" width="24" height="24" viewBox="0 0 24 24">
  <defs/>
  <path fill="#2D264B" d="M14.25,3 C14.25,2.586 14.586,2.25 15,2.25 L16,2.25 C19.176,2.25 21.75,4.824 21.75,8 L21.75,9 C21.75,9.414 21.414,9.75 21,9.75 C20.586,9.75 20.25,9.414 20.25,9 L20.25,8 C20.25,5.653 18.347,3.75 16,3.75 L15,3.75 C14.586,3.75 14.25,3.414 14.25,3 Z"/>
  <path fill="#2D264B" d="M2.25,8 C2.25,4.824 4.824,2.25 8,2.25 L9,2.25 C9.414,2.25 9.75,2.586 9.75,3 C9.75,3.414 9.414,3.75 9,3.75 L8,3.75 C5.653,3.75 3.75,5.653 3.75,8 L3.75,9 C3.75,9.414 3.414,9.75 3,9.75 C2.586,9.75 2.25,9.414 2.25,9 L2.25,8 Z"/>
  <path fill="#2D264B" d="M0.25,14 C0.25,13.586 0.586,13.25 1,13.25 L23,13.25 C23.414,13.25 23.75,13.586 23.75,14 C23.75,14.414 23.414,14.75 23,14.75 L21.707,14.75 C21.735,14.828 21.75,14.912 21.75,15 L21.75,16 C21.75,19.176 19.176,21.75 16,21.75 L15,21.75 C14.586,21.75 14.25,21.414 14.25,21 C14.25,20.586 14.586,20.25 15,20.25 L16,20.25 C18.347,20.25 20.25,18.347 20.25,16 L20.25,15 C20.25,14.912 20.265,14.828 20.293,14.75 L16.899,14.75 C16.481,16.61 14.82,18 12.833,18 L11.167,18 C9.18,18 7.519,16.61 7.101,14.75 L3.707,14.75 C3.735,14.828 3.75,14.912 3.75,15 L3.75,16 C3.75,18.347 5.653,20.25 8,20.25 L9,20.25 C9.414,20.25 9.75,20.586 9.75,21 C9.75,21.414 9.414,21.75 9,21.75 L8,21.75 C4.824,21.75 2.25,19.176 2.25,16 L2.25,15 C2.25,14.912 2.265,14.828 2.293,14.75 L1,14.75 C0.586,14.75 0.25,14.414 0.25,14 Z"/>
  <path fill="#2D264B" d="M11.167,6 C8.865,6 7,7.865 7,10.167 C7,10.627 7.373,11 7.833,11 L16.167,11 C16.627,11 17,10.627 17,10.167 C17,7.865 15.134,6 12.833,6 L11.167,6 Z"/>
</svg>

