<svg xmlns="http://www.w3.org/2000/svg" width="24" height="24" viewBox="0 0 24 24">
  <defs/>
  <path fill="#2D264B" d="M10.306,2.935 C10.684,2.766 10.854,2.323 10.685,1.944 C10.516,1.566 10.073,1.396 9.694,1.565 C8.928,1.907 8.039,2.421 6.898,3.079 L6.831,3.118 C5.754,3.74 4.903,4.232 4.242,4.696 C3.563,5.173 3.041,5.652 2.643,6.268 C2.54,6.428 2.445,6.593 2.358,6.762 C1.893,7.669 1.776,8.658 1.74,9.98 C1.728,10.394 2.055,10.739 2.469,10.75 C2.883,10.761 3.228,10.434 3.239,10.021 C3.274,8.736 3.39,8.036 3.692,7.447 C3.757,7.322 3.827,7.2 3.903,7.082 C4.16,6.684 4.517,6.337 5.105,5.923 C5.704,5.502 6.498,5.043 7.612,4.4 C8.798,3.715 9.62,3.242 10.306,2.935 Z"/>
  <path fill="#2D264B" d="M14.306,1.565 C13.928,1.396 13.484,1.566 13.315,1.944 C13.146,2.323 13.316,2.766 13.694,2.935 C14.381,3.242 15.203,3.715 16.388,4.4 C17.503,5.043 18.296,5.502 18.896,5.923 C19.483,6.337 19.84,6.684 20.097,7.082 C20.173,7.2 20.244,7.322 20.308,7.447 C20.61,8.036 20.726,8.736 20.761,10.021 C20.772,10.434 21.117,10.761 21.531,10.75 C21.945,10.739 22.272,10.394 22.261,9.98 C22.225,8.658 22.108,7.669 21.642,6.762 C21.556,6.593 21.46,6.428 21.357,6.268 C20.959,5.652 20.437,5.173 19.758,4.696 C19.097,4.232 18.246,3.74 17.169,3.118 L17.102,3.079 C15.961,2.421 15.072,1.907 14.306,1.565 Z"/>
  <path fill="#2D264B" d="M2.358,17.238 C1.982,16.506 1.834,15.721 1.771,14.75 L1,14.75 C0.586,14.75 0.25,14.414 0.25,14 C0.25,13.586 0.586,13.25 1,13.25 L23,13.25 C23.414,13.25 23.75,13.586 23.75,14 C23.75,14.414 23.414,14.75 23,14.75 L22.229,14.75 C22.166,15.721 22.018,16.506 21.642,17.238 C21.556,17.407 21.46,17.572 21.357,17.732 C20.959,18.349 20.437,18.827 19.758,19.304 C19.097,19.768 18.246,20.26 17.169,20.882 L17.102,20.921 C15.961,21.579 15.072,22.093 14.306,22.435 C13.928,22.604 13.484,22.434 13.315,22.056 C13.146,21.677 13.316,21.234 13.694,21.065 C14.381,20.759 15.203,20.285 16.388,19.601 C17.503,18.957 18.296,18.498 18.896,18.077 C19.483,17.663 19.84,17.316 20.097,16.918 C20.173,16.8 20.244,16.678 20.308,16.553 C20.543,16.094 20.666,15.568 20.725,14.75 L3.275,14.75 C3.334,15.568 3.457,16.094 3.692,16.553 C3.757,16.678 3.827,16.8 3.903,16.918 C4.16,17.316 4.517,17.663 5.105,18.077 C5.704,18.498 6.498,18.957 7.612,19.601 C8.798,20.285 9.62,20.759 10.306,21.065 C10.684,21.234 10.854,21.677 10.685,22.056 C10.516,22.434 10.073,22.604 9.694,22.435 C8.928,22.093 8.039,21.579 6.899,20.921 L6.831,20.882 C5.754,20.26 4.903,19.768 4.242,19.304 C3.563,18.827 3.041,18.349 2.643,17.732 C2.54,17.572 2.445,17.407 2.358,17.238 Z"/>
</svg>

