<svg width="24" height="24" viewBox="0 0 24 24" fill="none" xmlns="http://www.w3.org/2000/svg">
<path d="M9.75 21C9.75 21.4142 9.41421 21.75 9 21.75H8C4.82436 21.75 2.25 19.1756 2.25 16V15C2.25 14.5858 2.58579 14.25 3 14.25C3.41421 14.25 3.75 14.5858 3.75 15V16C3.75 18.3472 5.65279 20.25 8 20.25H9C9.41421 20.25 9.75 20.5858 9.75 21Z" fill="#2D264B"/>
<path d="M21.75 16C21.75 19.1756 19.1756 21.75 16 21.75H15C14.5858 21.75 14.25 21.4142 14.25 21C14.25 20.5858 14.5858 20.25 15 20.25H16C18.3472 20.25 20.25 18.3472 20.25 16V15C20.25 14.5858 20.5858 14.25 21 14.25C21.4142 14.25 21.75 14.5858 21.75 15V16Z" fill="#2D264B"/>
<path d="M18.75 16C18.75 17.5188 17.5188 18.75 16 18.75C14.4812 18.75 13.25 17.5188 13.25 16C13.25 14.4812 14.4812 13.25 16 13.25C17.5188 13.25 18.75 14.4812 18.75 16Z" fill="#2D264B"/>
<path d="M9.75 16C9.75 16.9665 8.9665 17.75 8 17.75C7.0335 17.75 6.25 16.9665 6.25 16C6.25 15.0335 7.0335 14.25 8 14.25C8.9665 14.25 9.75 15.0335 9.75 16Z" fill="#2D264B"/>
<path d="M10.75 8C10.75 9.51878 9.51878 10.75 8 10.75C6.48122 10.75 5.25 9.51878 5.25 8C5.25 6.48122 6.48122 5.25 8 5.25C9.51878 5.25 10.75 6.48122 10.75 8Z" fill="#2D264B"/>
<path d="M21 9.75C20.5858 9.75 20.25 9.41421 20.25 9V8C20.25 5.65279 18.3472 3.75 16 3.75H15C14.5858 3.75 14.25 3.41421 14.25 3C14.25 2.58579 14.5858 2.25 15 2.25H16C19.1756 2.25 21.75 4.82436 21.75 8V9C21.75 9.41421 21.4142 9.75 21 9.75Z" fill="#2D264B"/>
<path d="M3 9.75C2.58579 9.75 2.25 9.41421 2.25 9V8C2.25 4.82436 4.82436 2.25 8 2.25H9C9.41421 2.25 9.75 2.58579 9.75 3C9.75 3.41421 9.41421 3.75 9 3.75H8C5.65279 3.75 3.75 5.65279 3.75 8V9C3.75 9.41421 3.41421 9.75 3 9.75Z" fill="#2D264B"/>
</svg>
