<svg width="24" height="24" viewBox="0 0 24 24" fill="none" xmlns="http://www.w3.org/2000/svg">
<path d="M10.306 2.935C10.6842 2.76609 10.8539 2.32257 10.685 1.94435C10.5161 1.56614 10.0726 1.39647 9.69436 1.56537C8.92841 1.90744 8.03947 2.42068 6.89846 3.07945L6.83147 3.11813C5.75429 3.74003 4.90285 4.23161 4.24201 4.69615C3.5632 5.17334 3.04108 5.6515 2.64287 6.26841C2.53972 6.42821 2.44456 6.59303 2.35774 6.76226C1.89269 7.6688 1.77554 8.65783 1.73958 9.9797C1.72832 10.3938 2.05485 10.7386 2.46891 10.7498C2.88297 10.7611 3.22776 10.4345 3.23903 10.0205C3.27397 8.73596 3.39006 8.03622 3.69237 7.44692C3.75654 7.32184 3.82687 7.20001 3.90312 7.0819C4.15986 6.68416 4.51672 6.33659 5.10465 5.92329C5.70433 5.50173 6.49757 5.04296 7.61196 4.39956C8.79775 3.71495 9.61954 3.24158 10.306 2.935Z" fill="#2D264B"/>
<path d="M14.3058 1.56537C13.9276 1.39647 13.4841 1.56614 13.3152 1.94435C13.1463 2.32257 13.316 2.76609 13.6942 2.935C14.3807 3.24158 15.2025 3.71495 16.3882 4.39956C17.5026 5.04296 18.2959 5.50173 18.8956 5.92329C19.4835 6.33659 19.8403 6.68416 20.0971 7.0819C20.1733 7.20002 20.2437 7.32184 20.3078 7.44692C20.6101 8.03622 20.7262 8.73596 20.7612 10.0205C20.7724 10.4345 21.1172 10.7611 21.5313 10.7498C21.9454 10.7386 22.2719 10.3938 22.2606 9.9797C22.2247 8.65783 22.1075 7.6688 21.6425 6.76226C21.5556 6.59302 21.4605 6.42821 21.3573 6.26841C20.9591 5.6515 20.437 5.17334 19.7582 4.69615C19.0974 4.23161 18.2459 3.74005 17.1688 3.11816L17.1017 3.07945C15.9608 2.42069 15.0718 1.90743 14.3058 1.56537Z" fill="#2D264B"/>
<path d="M2.35774 17.2378C1.9824 16.5062 1.83368 15.7208 1.77137 14.75H1C0.585786 14.75 0.25 14.4143 0.25 14C0.25 13.5858 0.585786 13.25 1 13.25H23C23.4142 13.25 23.75 13.5858 23.75 14C23.75 14.4143 23.4142 14.75 23 14.75H22.2288C22.1665 15.7208 22.0178 16.5062 21.6425 17.2378C21.5557 17.4071 21.4605 17.5719 21.3573 17.7317C20.9591 18.3486 20.437 18.8268 19.7582 19.3039C19.0974 19.7685 18.2459 20.26 17.1688 20.8819L17.1018 20.9206C15.9608 21.5794 15.0718 22.0927 14.3058 22.4347C13.9276 22.6036 13.4841 22.4339 13.3152 22.0557C13.1463 21.6775 13.316 21.234 13.6942 21.0651C14.3807 20.7585 15.2025 20.2851 16.3882 19.6005C17.5026 18.9571 18.2959 18.4984 18.8956 18.0768C19.4835 17.6635 19.8403 17.3159 20.0971 16.9182C20.1733 16.8001 20.2437 16.6783 20.3078 16.5532C20.5434 16.094 20.6659 15.5677 20.725 14.75H3.27517C3.33431 15.5677 3.45681 16.094 3.69237 16.5532C3.75654 16.6783 3.82687 16.8001 3.90312 16.9182C4.15986 17.3159 4.51672 17.6635 5.10465 18.0768C5.70433 18.4984 6.49757 18.9571 7.61196 19.6005C8.79771 20.2851 9.61955 20.7585 10.306 21.0651C10.6842 21.234 10.8539 21.6775 10.685 22.0557C10.5161 22.4339 10.0726 22.6036 9.69436 22.4347C8.92844 22.0927 8.03946 21.5794 6.89852 20.9207L6.83141 20.8819C5.75426 20.26 4.90284 19.7685 4.24201 19.3039C3.5632 18.8268 3.04108 18.3486 2.64287 17.7317C2.53971 17.5719 2.44455 17.4071 2.35774 17.2378Z" fill="#2D264B"/>
</svg>
