<svg xmlns="http://www.w3.org/2000/svg" width="24" height="24" viewBox="0 0 24 24">
  <defs/>
  <path fill="#2D264B" d="M9.75,21 C9.75,21.414 9.414,21.75 9,21.75 L8,21.75 C4.824,21.75 2.25,19.176 2.25,16 L2.25,15 C2.25,14.586 2.586,14.25 3,14.25 C3.414,14.25 3.75,14.586 3.75,15 L3.75,16 C3.75,18.347 5.653,20.25 8,20.25 L9,20.25 C9.414,20.25 9.75,20.586 9.75,21 Z"/>
  <path fill="#2D264B" d="M21.75,16 C21.75,19.176 19.176,21.75 16,21.75 L15,21.75 C14.586,21.75 14.25,21.414 14.25,21 C14.25,20.586 14.586,20.25 15,20.25 L16,20.25 C18.347,20.25 20.25,18.347 20.25,16 L20.25,15 C20.25,14.586 20.586,14.25 21,14.25 C21.414,14.25 21.75,14.586 21.75,15 L21.75,16 Z"/>
  <path fill="#2D264B" d="M18.75,16 C18.75,17.519 17.519,18.75 16,18.75 C14.481,18.75 13.25,17.519 13.25,16 C13.25,14.481 14.481,13.25 16,13.25 C17.519,13.25 18.75,14.481 18.75,16 Z"/>
  <path fill="#2D264B" d="M9.75,16 C9.75,16.966 8.966,17.75 8,17.75 C7.034,17.75 6.25,16.966 6.25,16 C6.25,15.034 7.034,14.25 8,14.25 C8.966,14.25 9.75,15.034 9.75,16 Z"/>
  <path fill="#2D264B" d="M10.75,8 C10.75,9.519 9.519,10.75 8,10.75 C6.481,10.75 5.25,9.519 5.25,8 C5.25,6.481 6.481,5.25 8,5.25 C9.519,5.25 10.75,6.481 10.75,8 Z"/>
  <path fill="#2D264B" d="M21,9.75 C20.586,9.75 20.25,9.414 20.25,9 L20.25,8 C20.25,5.653 18.347,3.75 16,3.75 L15,3.75 C14.586,3.75 14.25,3.414 14.25,3 C14.25,2.586 14.586,2.25 15,2.25 L16,2.25 C19.176,2.25 21.75,4.824 21.75,8 L21.75,9 C21.75,9.414 21.414,9.75 21,9.75 Z"/>
  <path fill="#2D264B" d="M3,9.75 C2.586,9.75 2.25,9.414 2.25,9 L2.25,8 C2.25,4.824 4.824,2.25 8,2.25 L9,2.25 C9.414,2.25 9.75,2.586 9.75,3 C9.75,3.414 9.414,3.75 9,3.75 L8,3.75 C5.653,3.75 3.75,5.653 3.75,8 L3.75,9 C3.75,9.414 3.414,9.75 3,9.75 Z"/>
</svg>

