<svg xmlns="http://www.w3.org/2000/svg" width="24" height="24" viewBox="0 0 24 24">
  <defs/>
  <path fill="#2D264B" d="M3.75,15 C3.75,14.586 3.414,14.25 3,14.25 C2.586,14.25 2.25,14.586 2.25,15 L3.75,15 Z M9,21.75 C9.414,21.75 9.75,21.414 9.75,21 C9.75,20.586 9.414,20.25 9,20.25 L9,21.75 Z M9,3.75 C9.414,3.75 9.75,3.414 9.75,3 C9.75,2.586 9.414,2.25 9,2.25 L9,3.75 Z M2.25,9 C2.25,9.414 2.586,9.75 3,9.75 C3.414,9.75 3.75,9.414 3.75,9 L2.25,9 Z M20.25,9 C20.25,9.414 20.586,9.75 21,9.75 C21.414,9.75 21.75,9.414 21.75,9 L20.25,9 Z M15,2.25 C14.586,2.25 14.25,2.586 14.25,3 C14.25,3.414 14.586,3.75 15,3.75 L15,2.25 Z M15,20.25 C14.586,20.25 14.25,20.586 14.25,21 C14.25,21.414 14.586,21.75 15,21.75 L15,20.25 Z M21.75,15 C21.75,14.586 21.414,14.25 21,14.25 C20.586,14.25 20.25,14.586 20.25,15 L21.75,15 Z M17.8,13.723 C18.199,13.833 18.612,13.599 18.723,13.2 C18.833,12.801 18.599,12.388 18.2,12.277 L17.8,13.723 Z M5.8,12.277 C5.401,12.388 5.167,12.801 5.277,13.2 C5.388,13.599 5.801,13.833 6.2,13.723 L5.8,12.277 Z M3.75,16 L3.75,15 L2.25,15 L2.25,16 L3.75,16 Z M9,20.25 L8,20.25 L8,21.75 L9,21.75 L9,20.25 Z M2.25,16 C2.25,19.176 4.824,21.75 8,21.75 L8,20.25 C5.653,20.25 3.75,18.347 3.75,16 L2.25,16 Z M8,3.75 L9,3.75 L9,2.25 L8,2.25 L8,3.75 Z M3.75,9 L3.75,8 L2.25,8 L2.25,9 L3.75,9 Z M8,2.25 C4.824,2.25 2.25,4.824 2.25,8 L3.75,8 C3.75,5.653 5.653,3.75 8,3.75 L8,2.25 Z M20.25,8 L20.25,9 L21.75,9 L21.75,8 L20.25,8 Z M15,3.75 L16,3.75 L16,2.25 L15,2.25 L15,3.75 Z M21.75,8 C21.75,4.824 19.176,2.25 16,2.25 L16,3.75 C18.347,3.75 20.25,5.653 20.25,8 L21.75,8 Z M16,20.25 L15,20.25 L15,21.75 L16,21.75 L16,20.25 Z M20.25,15 L20.25,16 L21.75,16 L21.75,15 L20.25,15 Z M16,21.75 C19.176,21.75 21.75,19.176 21.75,16 L20.25,16 C20.25,18.347 18.347,20.25 16,20.25 L16,21.75 Z M18,13 C18.2,12.277 18.2,12.277 18.2,12.277 C18.2,12.277 18.2,12.277 18.2,12.277 C18.2,12.277 18.199,12.277 18.199,12.277 C18.198,12.277 18.198,12.277 18.197,12.276 C18.195,12.276 18.192,12.275 18.188,12.274 C18.18,12.272 18.169,12.269 18.155,12.265 C18.127,12.257 18.085,12.246 18.032,12.232 C17.925,12.204 17.772,12.164 17.58,12.116 C17.197,12.021 16.661,11.893 16.049,11.766 C14.838,11.514 13.276,11.25 12,11.25 L12,12.75 C13.114,12.75 14.551,12.986 15.743,13.234 C16.332,13.357 16.848,13.479 17.217,13.572 C17.401,13.617 17.548,13.656 17.648,13.682 C17.699,13.695 17.737,13.706 17.763,13.713 C17.776,13.716 17.785,13.719 17.791,13.72 C17.794,13.721 17.797,13.722 17.798,13.722 C17.799,13.723 17.799,13.723 17.8,13.723 C17.8,13.723 17.8,13.723 17.8,13.723 C17.8,13.723 17.8,13.723 17.8,13.723 C17.8,13.723 17.8,13.723 18,13 Z M12,11.25 C10.724,11.25 9.162,11.514 7.951,11.766 C7.339,11.893 6.803,12.021 6.42,12.116 C6.228,12.164 6.074,12.204 5.968,12.232 C5.915,12.246 5.873,12.257 5.845,12.265 C5.831,12.269 5.82,12.272 5.812,12.274 C5.808,12.275 5.805,12.276 5.803,12.276 C5.802,12.277 5.802,12.277 5.801,12.277 C5.801,12.277 5.8,12.277 5.8,12.277 C5.8,12.277 5.8,12.277 5.8,12.277 C5.8,12.277 5.8,12.277 6,13 C6.2,13.723 6.2,13.723 6.2,13.723 C6.2,13.723 6.2,13.723 6.2,13.723 C6.2,13.723 6.2,13.723 6.2,13.723 C6.201,13.723 6.201,13.723 6.202,13.722 C6.203,13.722 6.206,13.721 6.209,13.72 C6.215,13.719 6.224,13.716 6.237,13.713 C6.263,13.706 6.301,13.695 6.352,13.682 C6.452,13.656 6.599,13.617 6.783,13.571 C7.152,13.479 7.668,13.357 8.257,13.234 C9.449,12.986 10.886,12.75 12,12.75 L12,11.25 Z"/>
</svg>

