<svg xmlns="http://www.w3.org/2000/svg" width="24" height="24" viewBox="0 0 24 24">
  <defs/>
  <path fill="#2D264B" d="M9,21.75 C9.414,21.75 9.75,21.414 9.75,21 C9.75,20.586 9.414,20.25 9,20.25 L8,20.25 C5.653,20.25 3.75,18.347 3.75,16 L3.75,15 C3.75,14.586 3.414,14.25 3,14.25 C2.586,14.25 2.25,14.586 2.25,15 L2.25,16 C2.25,19.176 4.824,21.75 8,21.75 L9,21.75 Z"/>
  <path fill="#2D264B" d="M16,21.75 C19.176,21.75 21.75,19.176 21.75,16 L21.75,15 C21.75,14.586 21.414,14.25 21,14.25 C20.586,14.25 20.25,14.586 20.25,15 L20.25,16 C20.25,18.347 18.347,20.25 16,20.25 L15,20.25 C14.586,20.25 14.25,20.586 14.25,21 C14.25,21.414 14.586,21.75 15,21.75 L16,21.75 Z"/>
  <path fill="#2D264B" d="M20.25,9 C20.25,9.414 20.586,9.75 21,9.75 C21.414,9.75 21.75,9.414 21.75,9 L21.75,8 C21.75,4.824 19.176,2.25 16,2.25 L15,2.25 C14.586,2.25 14.25,2.586 14.25,3 C14.25,3.414 14.586,3.75 15,3.75 L16,3.75 C18.347,3.75 20.25,5.653 20.25,8 L20.25,9 Z"/>
  <path fill="#2D264B" d="M2.25,9 C2.25,9.414 2.586,9.75 3,9.75 C3.414,9.75 3.75,9.414 3.75,9 L3.75,8 C3.75,5.653 5.653,3.75 8,3.75 L9,3.75 C9.414,3.75 9.75,3.414 9.75,3 C9.75,2.586 9.414,2.25 9,2.25 L8,2.25 C4.824,2.25 2.25,4.824 2.25,8 L2.25,9 Z"/>
  <path fill="#2D264B" d="M17.8,13.723 C18.199,13.833 18.612,13.599 18.723,13.2 C18.833,12.801 18.599,12.388 18.2,12.277 L18.195,12.276 L18.182,12.272 L18.133,12.259 C18.09,12.247 18.028,12.231 17.948,12.21 C17.79,12.169 17.562,12.111 17.283,12.043 C16.726,11.909 15.961,11.737 15.133,11.588 C14.119,11.405 12.978,11.25 12,11.25 C11.022,11.25 9.881,11.405 8.867,11.588 C8.039,11.737 7.274,11.909 6.717,12.043 C6.438,12.111 6.21,12.169 6.052,12.21 C5.972,12.231 5.91,12.247 5.867,12.259 L5.818,12.272 L5.805,12.276 L5.8,12.277 C5.401,12.388 5.167,12.801 5.277,13.2 C5.388,13.599 5.801,13.833 6.2,13.723 L6.203,13.722 L6.214,13.719 L6.258,13.707 C6.297,13.697 6.355,13.681 6.431,13.661 C6.581,13.622 6.8,13.566 7.069,13.501 C7.607,13.371 8.342,13.206 9.133,13.064 C10.117,12.886 11.155,12.75 12,12.75 C12.845,12.75 13.883,12.886 14.867,13.064 C15.658,13.206 16.393,13.371 16.931,13.501 C17.2,13.566 17.419,13.622 17.569,13.661 C17.645,13.681 17.703,13.697 17.742,13.707 L17.786,13.719 L17.797,13.722 L17.8,13.723 Z"/>
</svg>

