<svg width="24" height="24" viewBox="0 0 24 24" fill="none" xmlns="http://www.w3.org/2000/svg">
<path d="M14.25 3C14.25 2.58579 14.5858 2.25 15 2.25H16C19.1756 2.25 21.75 4.82436 21.75 8V9C21.75 9.41421 21.4142 9.75 21 9.75C20.5858 9.75 20.25 9.41421 20.25 9V8C20.25 5.65279 18.3472 3.75 16 3.75H15C14.5858 3.75 14.25 3.41421 14.25 3Z" fill="#2D264B"/>
<path d="M2.25 8C2.25 4.82436 4.82436 2.25 8 2.25H9C9.41421 2.25 9.75 2.58579 9.75 3C9.75 3.41421 9.41421 3.75 9 3.75H8C5.65279 3.75 3.75 5.65279 3.75 8V9C3.75 9.41421 3.41421 9.75 3 9.75C2.58579 9.75 2.25 9.41421 2.25 9V8Z" fill="#2D264B"/>
<path d="M0.25 14C0.25 13.5858 0.585786 13.25 1 13.25H23C23.4142 13.25 23.75 13.5858 23.75 14C23.75 14.4142 23.4142 14.75 23 14.75H21.7073C21.735 14.8282 21.75 14.9123 21.75 15V16C21.75 19.1756 19.1756 21.75 16 21.75H15C14.5858 21.75 14.25 21.4142 14.25 21C14.25 20.5858 14.5858 20.25 15 20.25H16C18.3472 20.25 20.25 18.3472 20.25 16V15C20.25 14.9123 20.265 14.8282 20.2927 14.75H16.8988C16.4812 16.6102 14.8196 18 12.8333 18H11.1667C9.18042 18 7.51878 16.6102 7.10116 14.75H3.70732C3.73496 14.8282 3.75 14.9123 3.75 15V16C3.75 18.3472 5.65279 20.25 8 20.25H9C9.41421 20.25 9.75 20.5858 9.75 21C9.75 21.4142 9.41421 21.75 9 21.75H8C4.82436 21.75 2.25 19.1756 2.25 16V15C2.25 14.9123 2.26504 14.8282 2.29268 14.75H1C0.585786 14.75 0.25 14.4142 0.25 14Z" fill="#2D264B"/>
<path d="M11.1667 6C8.86548 6 7 7.86548 7 10.1667C7 10.6269 7.3731 11 7.83333 11H16.1667C16.6269 11 17 10.6269 17 10.1667C17 7.86548 15.1345 6 12.8333 6H11.1667Z" fill="#2D264B"/>
</svg>
