<svg xmlns="http://www.w3.org/2000/svg" width="24" height="24" viewBox="0 0 24 24">
  <defs/>
  <path fill="#2D264B" d="M3.75,15 C3.75,14.586 3.414,14.25 3,14.25 C2.586,14.25 2.25,14.586 2.25,15 L3.75,15 Z M9,21.75 C9.414,21.75 9.75,21.414 9.75,21 C9.75,20.586 9.414,20.25 9,20.25 L9,21.75 Z M9,3.75 C9.414,3.75 9.75,3.414 9.75,3 C9.75,2.586 9.414,2.25 9,2.25 L9,3.75 Z M2.25,9 C2.25,9.414 2.586,9.75 3,9.75 C3.414,9.75 3.75,9.414 3.75,9 L2.25,9 Z M20.25,9 C20.25,9.414 20.586,9.75 21,9.75 C21.414,9.75 21.75,9.414 21.75,9 L20.25,9 Z M15,2.25 C14.586,2.25 14.25,2.586 14.25,3 C14.25,3.414 14.586,3.75 15,3.75 L15,2.25 Z M15,20.25 C14.586,20.25 14.25,20.586 14.25,21 C14.25,21.414 14.586,21.75 15,21.75 L15,20.25 Z M21.75,15 C21.75,14.586 21.414,14.25 21,14.25 C20.586,14.25 20.25,14.586 20.25,15 L21.75,15 Z M3.75,16 L3.75,15 L2.25,15 L2.25,16 L3.75,16 Z M9,20.25 L8,20.25 L8,21.75 L9,21.75 L9,20.25 Z M2.25,16 C2.25,19.176 4.824,21.75 8,21.75 L8,20.25 C5.653,20.25 3.75,18.347 3.75,16 L2.25,16 Z M8,3.75 L9,3.75 L9,2.25 L8,2.25 L8,3.75 Z M3.75,9 L3.75,8 L2.25,8 L2.25,9 L3.75,9 Z M8,2.25 C4.824,2.25 2.25,4.824 2.25,8 L3.75,8 C3.75,5.653 5.653,3.75 8,3.75 L8,2.25 Z M20.25,8 L20.25,9 L21.75,9 L21.75,8 L20.25,8 Z M15,3.75 L16,3.75 L16,2.25 L15,2.25 L15,3.75 Z M21.75,8 C21.75,4.824 19.176,2.25 16,2.25 L16,3.75 C18.347,3.75 20.25,5.653 20.25,8 L21.75,8 Z M16,20.25 L15,20.25 L15,21.75 L16,21.75 L16,20.25 Z M20.25,15 L20.25,16 L21.75,16 L21.75,15 L20.25,15 Z M16,21.75 C19.176,21.75 21.75,19.176 21.75,16 L20.25,16 C20.25,18.347 18.347,20.25 16,20.25 L16,21.75 Z M8,9.25 C7.507,9.25 7.213,9.248 7.003,9.22 C6.906,9.207 6.858,9.192 6.836,9.183 C6.831,9.181 6.828,9.179 6.826,9.178 C6.824,9.177 6.823,9.177 6.823,9.177 C6.823,9.176 6.823,9.177 6.823,9.177 C6.824,9.177 6.824,9.177 6.823,9.177 L5.763,10.237 C6.072,10.546 6.447,10.659 6.803,10.707 C7.137,10.752 7.55,10.75 8,10.75 L8,9.25 Z M5.25,8 C5.25,8.45 5.248,8.863 5.293,9.197 C5.341,9.553 5.454,9.928 5.763,10.237 L6.823,9.177 C6.823,9.176 6.823,9.176 6.823,9.177 C6.823,9.177 6.824,9.177 6.823,9.177 C6.823,9.177 6.823,9.176 6.822,9.174 C6.821,9.172 6.819,9.169 6.817,9.164 C6.808,9.142 6.793,9.094 6.78,8.997 C6.752,8.787 6.75,8.493 6.75,8 L5.25,8 Z M9.25,8 C9.25,8.493 9.248,8.787 9.22,8.997 C9.207,9.094 9.192,9.142 9.183,9.164 C9.181,9.169 9.179,9.172 9.178,9.174 C9.177,9.176 9.177,9.177 9.177,9.177 C9.176,9.177 9.177,9.177 9.177,9.177 C9.177,9.176 9.177,9.176 9.177,9.177 L10.237,10.237 C10.546,9.928 10.659,9.553 10.707,9.197 C10.752,8.863 10.75,8.45 10.75,8 L9.25,8 Z M8,10.75 C8.45,10.75 8.863,10.752 9.197,10.707 C9.553,10.659 9.928,10.546 10.237,10.237 L9.177,9.177 C9.176,9.177 9.176,9.177 9.177,9.177 C9.177,9.177 9.177,9.176 9.177,9.177 C9.177,9.177 9.176,9.177 9.174,9.178 C9.172,9.179 9.169,9.181 9.164,9.183 C9.142,9.192 9.094,9.207 8.997,9.22 C8.787,9.248 8.493,9.25 8,9.25 L8,10.75 Z M8,6.75 C8.493,6.75 8.787,6.752 8.997,6.78 C9.094,6.793 9.142,6.808 9.164,6.817 C9.169,6.819 9.172,6.821 9.174,6.822 C9.176,6.823 9.177,6.823 9.177,6.823 C9.177,6.824 9.177,6.823 9.177,6.823 C9.176,6.823 9.176,6.823 9.177,6.823 L10.237,5.763 C9.928,5.454 9.553,5.341 9.197,5.293 C8.863,5.248 8.45,5.25 8,5.25 L8,6.75 Z M10.75,8 C10.75,7.55 10.752,7.137 10.707,6.803 C10.659,6.447 10.546,6.072 10.237,5.763 L9.177,6.823 C9.177,6.824 9.177,6.824 9.177,6.823 C9.177,6.823 9.176,6.823 9.177,6.823 C9.177,6.823 9.177,6.824 9.178,6.826 C9.179,6.828 9.181,6.831 9.183,6.836 C9.192,6.858 9.207,6.906 9.22,7.003 C9.248,7.213 9.25,7.507 9.25,8 L10.75,8 Z M8,5.25 C7.55,5.25 7.137,5.248 6.803,5.293 C6.447,5.341 6.072,5.454 5.763,5.763 L6.823,6.823 C6.824,6.823 6.824,6.823 6.823,6.823 C6.823,6.823 6.823,6.824 6.823,6.823 C6.823,6.823 6.824,6.823 6.826,6.822 C6.828,6.821 6.831,6.819 6.836,6.817 C6.858,6.808 6.906,6.793 7.003,6.78 C7.213,6.752 7.507,6.75 8,6.75 L8,5.25 Z M6.75,8 C6.75,7.507 6.752,7.213 6.78,7.003 C6.793,6.906 6.808,6.858 6.817,6.836 C6.819,6.831 6.821,6.828 6.822,6.826 C6.823,6.824 6.823,6.823 6.823,6.823 C6.824,6.823 6.823,6.823 6.823,6.823 C6.823,6.824 6.823,6.824 6.823,6.823 L5.763,5.763 C5.454,6.072 5.341,6.447 5.293,6.803 C5.248,7.137 5.25,7.55 5.25,8 L6.75,8 Z M8,17.25 C7.507,17.25 7.213,17.248 7.003,17.22 C6.906,17.207 6.858,17.192 6.836,17.183 C6.831,17.181 6.828,17.179 6.826,17.178 C6.824,17.177 6.823,17.177 6.823,17.177 C6.823,17.177 6.823,17.177 6.823,17.177 C6.824,17.177 6.824,17.177 6.823,17.177 L5.763,18.237 C6.072,18.547 6.447,18.659 6.803,18.707 C7.137,18.752 7.55,18.75 8,18.75 L8,17.25 Z M5.25,16 C5.25,16.45 5.248,16.863 5.293,17.197 C5.341,17.553 5.454,17.928 5.763,18.237 L6.823,17.177 C6.823,17.176 6.823,17.176 6.823,17.177 C6.823,17.177 6.824,17.177 6.823,17.177 C6.823,17.177 6.823,17.176 6.822,17.174 C6.821,17.172 6.819,17.169 6.817,17.164 C6.808,17.142 6.793,17.094 6.78,16.997 C6.752,16.787 6.75,16.493 6.75,16 L5.25,16 Z M9.25,16 C9.25,16.493 9.248,16.787 9.22,16.997 C9.207,17.094 9.192,17.142 9.183,17.164 C9.181,17.169 9.179,17.172 9.178,17.174 C9.177,17.176 9.177,17.177 9.177,17.177 C9.176,17.177 9.177,17.177 9.177,17.177 C9.177,17.176 9.177,17.176 9.177,17.177 L10.237,18.237 C10.546,17.928 10.659,17.553 10.707,17.197 C10.752,16.863 10.75,16.45 10.75,16 L9.25,16 Z M8,18.75 C8.45,18.75 8.863,18.752 9.197,18.707 C9.553,18.659 9.928,18.547 10.237,18.237 L9.177,17.177 C9.176,17.177 9.176,17.177 9.177,17.177 C9.177,17.177 9.177,17.177 9.177,17.177 C9.177,17.177 9.176,17.177 9.174,17.178 C9.172,17.179 9.169,17.181 9.164,17.183 C9.142,17.192 9.094,17.207 8.997,17.22 C8.787,17.248 8.493,17.25 8,17.25 L8,18.75 Z M8,14.75 C8.493,14.75 8.787,14.752 8.997,14.78 C9.094,14.793 9.142,14.808 9.164,14.817 C9.169,14.819 9.172,14.821 9.174,14.822 C9.176,14.823 9.177,14.823 9.177,14.823 C9.177,14.823 9.177,14.823 9.177,14.823 C9.176,14.823 9.176,14.823 9.177,14.823 L10.237,13.763 C9.928,13.454 9.553,13.341 9.197,13.293 C8.863,13.248 8.45,13.25 8,13.25 L8,14.75 Z M10.75,16 C10.75,15.55 10.752,15.137 10.707,14.803 C10.659,14.447 10.546,14.072 10.237,13.763 L9.177,14.823 C9.177,14.824 9.177,14.824 9.177,14.823 C9.177,14.823 9.176,14.823 9.177,14.823 C9.177,14.823 9.177,14.824 9.178,14.826 C9.179,14.828 9.181,14.831 9.183,14.836 C9.192,14.858 9.207,14.906 9.22,15.003 C9.248,15.213 9.25,15.507 9.25,16 L10.75,16 Z M8,13.25 C7.55,13.25 7.137,13.248 6.803,13.293 C6.447,13.341 6.072,13.454 5.763,13.763 L6.823,14.823 C6.824,14.823 6.824,14.823 6.823,14.823 C6.823,14.823 6.823,14.823 6.823,14.823 C6.823,14.823 6.824,14.823 6.826,14.822 C6.828,14.821 6.831,14.819 6.836,14.817 C6.858,14.808 6.906,14.793 7.003,14.78 C7.213,14.752 7.507,14.75 8,14.75 L8,13.25 Z M6.75,16 C6.75,15.507 6.752,15.213 6.78,15.003 C6.793,14.906 6.808,14.858 6.817,14.836 C6.819,14.831 6.821,14.828 6.822,14.826 C6.823,14.824 6.823,14.823 6.823,14.823 C6.824,14.823 6.823,14.823 6.823,14.823 C6.823,14.824 6.823,14.824 6.823,14.823 L5.763,13.763 C5.454,14.072 5.341,14.447 5.293,14.803 C5.248,15.137 5.25,15.55 5.25,16 L6.75,16 Z M16,17.25 C15.507,17.25 15.213,17.248 15.003,17.22 C14.906,17.207 14.858,17.192 14.836,17.183 C14.831,17.181 14.828,17.179 14.826,17.178 C14.824,17.177 14.823,17.177 14.823,17.177 C14.823,17.177 14.823,17.177 14.823,17.177 C14.824,17.177 14.824,17.177 14.823,17.177 L13.763,18.237 C14.072,18.547 14.447,18.659 14.803,18.707 C15.137,18.752 15.55,18.75 16,18.75 L16,17.25 Z M13.25,16 C13.25,16.45 13.248,16.863 13.293,17.197 C13.341,17.553 13.454,17.928 13.763,18.237 L14.823,17.177 C14.823,17.176 14.823,17.176 14.823,17.177 C14.823,17.177 14.823,17.177 14.823,17.177 C14.823,17.177 14.823,17.176 14.822,17.174 C14.821,17.172 14.819,17.169 14.817,17.164 C14.808,17.142 14.793,17.094 14.78,16.997 C14.752,16.787 14.75,16.493 14.75,16 L13.25,16 Z M17.25,16 C17.25,16.493 17.248,16.787 17.22,16.997 C17.207,17.094 17.192,17.142 17.183,17.164 C17.181,17.169 17.179,17.172 17.178,17.174 C17.177,17.176 17.177,17.177 17.177,17.177 C17.177,17.177 17.177,17.177 17.177,17.177 C17.177,17.176 17.177,17.176 17.177,17.177 L18.237,18.237 C18.547,17.928 18.659,17.553 18.707,17.197 C18.752,16.863 18.75,16.45 18.75,16 L17.25,16 Z M16,18.75 C16.45,18.75 16.863,18.752 17.197,18.707 C17.553,18.659 17.928,18.547 18.237,18.237 L17.177,17.177 C17.176,17.177 17.176,17.177 17.177,17.177 C17.177,17.177 17.177,17.177 17.177,17.177 C17.177,17.177 17.176,17.177 17.174,17.178 C17.172,17.179 17.169,17.181 17.164,17.183 C17.142,17.192 17.094,17.207 16.997,17.22 C16.787,17.248 16.493,17.25 16,17.25 L16,18.75 Z M16,14.75 C16.493,14.75 16.787,14.752 16.997,14.78 C17.094,14.793 17.142,14.808 17.164,14.817 C17.169,14.819 17.172,14.821 17.174,14.822 C17.176,14.823 17.177,14.823 17.177,14.823 C17.177,14.823 17.177,14.823 17.177,14.823 C17.176,14.823 17.176,14.823 17.177,14.823 L18.237,13.763 C17.928,13.454 17.553,13.341 17.197,13.293 C16.863,13.248 16.45,13.25 16,13.25 L16,14.75 Z M18.75,16 C18.75,15.55 18.752,15.137 18.707,14.803 C18.659,14.447 18.547,14.072 18.237,13.763 L17.177,14.823 C17.177,14.824 17.177,14.824 17.177,14.823 C17.177,14.823 17.177,14.823 17.177,14.823 C17.177,14.823 17.177,14.824 17.178,14.826 C17.179,14.828 17.181,14.831 17.183,14.836 C17.192,14.858 17.207,14.906 17.22,15.003 C17.248,15.213 17.25,15.507 17.25,16 L18.75,16 Z M16,13.25 C15.55,13.25 15.137,13.248 14.803,13.293 C14.447,13.341 14.072,13.454 13.763,13.763 L14.823,14.823 C14.824,14.823 14.824,14.823 14.823,14.823 C14.823,14.823 14.823,14.823 14.823,14.823 C14.823,14.823 14.824,14.823 14.826,14.822 C14.828,14.821 14.831,14.819 14.836,14.817 C14.858,14.808 14.906,14.793 15.003,14.78 C15.213,14.752 15.507,14.75 16,14.75 L16,13.25 Z M14.75,16 C14.75,15.507 14.752,15.213 14.78,15.003 C14.793,14.906 14.808,14.858 14.817,14.836 C14.819,14.831 14.821,14.828 14.822,14.826 C14.823,14.824 14.823,14.823 14.823,14.823 C14.823,14.823 14.823,14.823 14.823,14.823 C14.823,14.824 14.823,14.824 14.823,14.823 L13.763,13.763 C13.454,14.072 13.341,14.447 13.293,14.803 C13.248,15.137 13.25,15.55 13.25,16 L14.75,16 Z"/>
</svg>

