<svg width="24" height="24" viewBox="0 0 24 24" fill="none" xmlns="http://www.w3.org/2000/svg">
<path d="M8 2.25C4.82436 2.25 2.25 4.82436 2.25 8V9C2.25 9.41421 2.58579 9.75 3 9.75C3.41421 9.75 3.75 9.41421 3.75 9V8C3.75 5.65279 5.65279 3.75 8 3.75H9C9.41421 3.75 9.75 3.41421 9.75 3C9.75 2.58579 9.41421 2.25 9 2.25H8Z" fill="#2D264B"/>
<path d="M15 2.25C14.5858 2.25 14.25 2.58579 14.25 3C14.25 3.41421 14.5858 3.75 15 3.75H16C18.3472 3.75 20.25 5.65279 20.25 8V9C20.25 9.41421 20.5858 9.75 21 9.75C21.4142 9.75 21.75 9.41421 21.75 9V8C21.75 4.82436 19.1756 2.25 16 2.25H15Z" fill="#2D264B"/>
<path d="M6 11.25C5.58579 11.25 5.25 11.5858 5.25 12C5.25 12.4142 5.58579 12.75 6 12.75H18C18.4142 12.75 18.75 12.4142 18.75 12C18.75 11.5858 18.4142 11.25 18 11.25H6Z" fill="#2D264B"/>
<path d="M3.75 15C3.75 14.5858 3.41421 14.25 3 14.25C2.58579 14.25 2.25 14.5858 2.25 15V16C2.25 19.1756 4.82436 21.75 8 21.75H9C9.41421 21.75 9.75 21.4142 9.75 21C9.75 20.5858 9.41421 20.25 9 20.25H8C5.65279 20.25 3.75 18.3472 3.75 16V15Z" fill="#2D264B"/>
<path d="M21.75 15C21.75 14.5858 21.4142 14.25 21 14.25C20.5858 14.25 20.25 14.5858 20.25 15V16C20.25 18.3472 18.3472 20.25 16 20.25H15C14.5858 20.25 14.25 20.5858 14.25 21C14.25 21.4142 14.5858 21.75 15 21.75H16C19.1756 21.75 21.75 19.1756 21.75 16V15Z" fill="#2D264B"/>
</svg>
