<svg xmlns="http://www.w3.org/2000/svg" width="24" height="24" viewBox="0 0 24 24">
  <defs/>
  <path fill="#2D264B" d="M23,14.75 L22.224,14.75 Q22.102,16.341 21.643,17.238 Q21.513,17.491 21.357,17.731 Q20.604,18.898 17.138,20.899 L17.138,20.899 L17.137,20.9 Q15.071,22.093 14.306,22.435 Q14.022,22.561 13.732,22.45 Q13.442,22.339 13.315,22.055 Q13.189,21.772 13.3,21.482 Q13.411,21.192 13.694,21.065 Q14.389,20.755 16.387,19.601 L16.388,19.6 L16.388,19.6 Q19.54,17.78 20.097,16.918 Q20.212,16.74 20.308,16.553 Q20.619,15.946 20.72,14.75 L3.28,14.75 Q3.381,15.946 3.692,16.553 Q3.789,16.741 3.903,16.918 Q4.46,17.78 7.611,19.6 L7.612,19.6 L7.613,19.601 Q9.611,20.755 10.306,21.065 Q10.59,21.192 10.701,21.482 Q10.812,21.772 10.685,22.056 Q10.558,22.339 10.268,22.45 Q9.978,22.561 9.694,22.435 Q8.929,22.093 6.863,20.9 L6.862,20.899 L6.861,20.899 Q3.396,18.898 2.643,17.731 Q2.488,17.491 2.358,17.238 Q1.898,16.341 1.777,14.75 L1,14.75 Q0.689,14.75 0.47,14.53 Q0.25,14.311 0.25,14 Q0.25,13.689 0.47,13.47 Q0.689,13.25 1,13.25 L2.477,13.25 Q2.492,13.25 2.508,13.25 L21.492,13.25 Q21.508,13.25 21.524,13.25 L23,13.25 Q23.311,13.25 23.53,13.47 Q23.75,13.689 23.75,14 Q23.75,14.311 23.53,14.53 Q23.311,14.75 23,14.75 Z M20.761,10.02 Q20.713,8.236 20.308,7.447 Q20.212,7.259 20.097,7.082 Q19.54,6.219 16.388,4.399 Q14.389,3.245 13.694,2.935 Q13.411,2.808 13.3,2.518 Q13.189,2.228 13.315,1.944 Q13.442,1.661 13.732,1.55 Q14.022,1.439 14.306,1.565 Q15.072,1.907 17.138,3.1 Q20.604,5.101 21.357,6.268 Q21.512,6.508 21.643,6.762 Q22.203,7.855 22.261,9.98 Q22.269,10.29 22.055,10.516 Q21.842,10.741 21.531,10.75 Q21.221,10.758 20.995,10.544 Q20.77,10.331 20.761,10.02 Z M1.74,9.98 Q1.797,7.854 2.358,6.762 Q2.488,6.508 2.643,6.268 Q3.396,5.101 6.862,3.1 Q8.929,1.907 9.694,1.565 Q9.978,1.439 10.268,1.55 Q10.558,1.661 10.685,1.944 Q10.812,2.228 10.701,2.518 Q10.59,2.808 10.306,2.935 Q9.611,3.245 7.612,4.399 Q4.46,6.219 3.903,7.082 Q3.789,7.259 3.692,7.447 Q3.288,8.236 3.239,10.02 Q3.231,10.331 3.005,10.544 Q2.779,10.758 2.469,10.75 Q2.158,10.741 1.945,10.516 Q1.731,10.29 1.74,9.98 Z"/>
</svg>

