<svg width="24" height="24" viewBox="0 0 24 24" fill="none" xmlns="http://www.w3.org/2000/svg">
<path d="M15 2.25C14.5858 2.25 14.25 2.58579 14.25 3C14.25 3.41421 14.5858 3.75 15 3.75H16C18.3472 3.75 20.25 5.65279 20.25 8V9C20.25 9.41421 20.5858 9.75 21 9.75C21.4142 9.75 21.75 9.41421 21.75 9V8C21.75 4.82436 19.1756 2.25 16 2.25H15Z" fill="#2D264B"/>
<path d="M8 2.25C4.82436 2.25 2.25 4.82436 2.25 8V9C2.25 9.41421 2.58579 9.75 3 9.75C3.41421 9.75 3.75 9.41421 3.75 9V8C3.75 5.65279 5.65279 3.75 8 3.75H9C9.41421 3.75 9.75 3.41421 9.75 3C9.75 2.58579 9.41421 2.25 9 2.25H8Z" fill="#2D264B"/>
<path d="M1 13.25C0.585786 13.25 0.25 13.5858 0.25 14C0.25 14.4142 0.585786 14.75 1 14.75H2.29268C2.26504 14.8282 2.25 14.9123 2.25 15V16C2.25 19.1756 4.82436 21.75 8 21.75H9C9.41421 21.75 9.75 21.4142 9.75 21C9.75 20.5858 9.41421 20.25 9 20.25H8C5.65279 20.25 3.75 18.3472 3.75 16V15C3.75 14.9123 3.73496 14.8282 3.70732 14.75H20.2927C20.265 14.8282 20.25 14.9123 20.25 15V16C20.25 18.3472 18.3472 20.25 16 20.25H15C14.5858 20.25 14.25 20.5858 14.25 21C14.25 21.4142 14.5858 21.75 15 21.75H16C19.1756 21.75 21.75 19.1756 21.75 16V15C21.75 14.9123 21.735 14.8282 21.7073 14.75H23C23.4142 14.75 23.75 14.4142 23.75 14C23.75 13.5858 23.4142 13.25 23 13.25H1Z" fill="#2D264B"/>
</svg>
