<svg xmlns="http://www.w3.org/2000/svg" width="24" height="24" viewBox="0 0 24 24">
  <defs/>
  <path fill="#2D264B" d="M14.25,3 C14.25,2.586 14.586,2.25 15,2.25 L16,2.25 C19.176,2.25 21.75,4.824 21.75,8 L21.75,9 C21.75,9.414 21.414,9.75 21,9.75 C20.586,9.75 20.25,9.414 20.25,9 L20.25,8 C20.25,5.653 18.347,3.75 16,3.75 L15,3.75 C14.586,3.75 14.25,3.414 14.25,3 Z"/>
  <path fill="#2D264B" d="M2.25,8 C2.25,4.824 4.824,2.25 8,2.25 L9,2.25 C9.414,2.25 9.75,2.586 9.75,3 C9.75,3.414 9.414,3.75 9,3.75 L8,3.75 C5.653,3.75 3.75,5.653 3.75,8 L3.75,9 C3.75,9.414 3.414,9.75 3,9.75 C2.586,9.75 2.25,9.414 2.25,9 L2.25,8 Z"/>
  <path fill="#2D264B" d="M0.25,12 C0.25,11.586 0.586,11.25 1,11.25 L23,11.25 C23.414,11.25 23.75,11.586 23.75,12 C23.75,12.414 23.414,12.75 23,12.75 L1,12.75 C0.586,12.75 0.25,12.414 0.25,12 Z"/>
  <path fill="#2D264B" d="M3,14.25 C3.414,14.25 3.75,14.586 3.75,15 L3.75,16 C3.75,18.347 5.653,20.25 8,20.25 L9,20.25 C9.414,20.25 9.75,20.586 9.75,21 C9.75,21.414 9.414,21.75 9,21.75 L8,21.75 C4.824,21.75 2.25,19.176 2.25,16 L2.25,15 C2.25,14.586 2.586,14.25 3,14.25 Z"/>
  <path fill="#2D264B" d="M21,14.25 C21.414,14.25 21.75,14.586 21.75,15 L21.75,16 C21.75,19.176 19.176,21.75 16,21.75 L15,21.75 C14.586,21.75 14.25,21.414 14.25,21 C14.25,20.586 14.586,20.25 15,20.25 L16,20.25 C18.347,20.25 20.25,18.347 20.25,16 L20.25,15 C20.25,14.586 20.586,14.25 21,14.25 Z"/>
  <path fill="#2D264B" d="M7,14.833 C7,17.134 8.865,19 11.167,19 L12.833,19 C15.134,19 17,17.134 17,14.833 C17,14.373 16.627,14 16.167,14 L7.833,14 C7.373,14 7,14.373 7,14.833 Z"/>
  <path fill="#2D264B" d="M11.167,5 C8.865,5 7,6.865 7,9.167 C7,9.627 7.373,10 7.833,10 L16.167,10 C16.627,10 17,9.627 17,9.167 C17,6.865 15.134,5 12.833,5 L11.167,5 Z"/>
</svg>

