<svg xmlns="http://www.w3.org/2000/svg" width="24" height="24" viewBox="0 0 24 24">
  <defs/>
  <path fill="#2D264B" d="M15,2.25 C14.586,2.25 14.25,2.586 14.25,3 C14.25,3.414 14.586,3.75 15,3.75 L16,3.75 C18.347,3.75 20.25,5.653 20.25,8 L20.25,9 C20.25,9.414 20.586,9.75 21,9.75 C21.414,9.75 21.75,9.414 21.75,9 L21.75,8 C21.75,4.824 19.176,2.25 16,2.25 L15,2.25 Z"/>
  <path fill="#2D264B" d="M8,2.25 C4.824,2.25 2.25,4.824 2.25,8 L2.25,9 C2.25,9.414 2.586,9.75 3,9.75 C3.414,9.75 3.75,9.414 3.75,9 L3.75,8 C3.75,5.653 5.653,3.75 8,3.75 L9,3.75 C9.414,3.75 9.75,3.414 9.75,3 C9.75,2.586 9.414,2.25 9,2.25 L8,2.25 Z"/>
  <path fill="#2D264B" d="M3.75,15 C3.75,14.586 3.414,14.25 3,14.25 C2.586,14.25 2.25,14.586 2.25,15 L2.25,16 C2.25,19.176 4.824,21.75 8,21.75 L9,21.75 C9.414,21.75 9.75,21.414 9.75,21 C9.75,20.586 9.414,20.25 9,20.25 L8,20.25 C5.653,20.25 3.75,18.347 3.75,16 L3.75,15 Z"/>
  <path fill="#2D264B" d="M21.75,15 C21.75,14.586 21.414,14.25 21,14.25 C20.586,14.25 20.25,14.586 20.25,15 L20.25,16 C20.25,18.347 18.347,20.25 16,20.25 L15,20.25 C14.586,20.25 14.25,20.586 14.25,21 C14.25,21.414 14.586,21.75 15,21.75 L16,21.75 C19.176,21.75 21.75,19.176 21.75,16 L21.75,15 Z"/>
  <path fill="#2D264B" d="M6.2,11.277 C5.801,11.167 5.388,11.401 5.277,11.8 C5.167,12.199 5.401,12.612 5.8,12.723 L5.805,12.724 L5.818,12.728 L5.867,12.741 C5.91,12.753 5.972,12.769 6.052,12.79 C6.21,12.831 6.438,12.889 6.717,12.957 C7.274,13.091 8.039,13.263 8.867,13.412 C9.881,13.595 11.022,13.75 12,13.75 C12.978,13.75 14.119,13.595 15.133,13.412 C15.961,13.263 16.726,13.091 17.283,12.957 C17.562,12.889 17.79,12.831 17.948,12.79 C18.028,12.769 18.09,12.753 18.133,12.741 L18.182,12.728 L18.195,12.724 L18.2,12.723 C18.599,12.612 18.833,12.199 18.723,11.8 C18.612,11.401 18.199,11.167 17.8,11.277 L17.797,11.278 L17.786,11.281 L17.742,11.293 C17.703,11.303 17.645,11.319 17.569,11.339 C17.419,11.378 17.2,11.434 16.931,11.499 C16.393,11.629 15.658,11.794 14.867,11.936 C13.883,12.114 12.845,12.25 12,12.25 C11.155,12.25 10.117,12.114 9.133,11.936 C8.342,11.794 7.607,11.629 7.069,11.499 C6.8,11.434 6.581,11.378 6.431,11.339 C6.355,11.319 6.297,11.303 6.258,11.293 L6.214,11.281 L6.203,11.278 L6.2,11.277 Z"/>
</svg>

