<svg width="24" height="24" viewBox="0 0 24 24" fill="none" xmlns="http://www.w3.org/2000/svg">
<path fill-rule="evenodd" clip-rule="evenodd" d="M2 10C2 5.02944 6.02944 1 11 1C15.9706 1 20 5.02944 20 10C20 14.9706 15.9706 19 11 19C6.02944 19 2 14.9706 2 10ZM9.95856 3.9442C10.0234 4.35331 9.74423 4.73749 9.33512 4.80229C7.51658 5.09032 6.09032 6.51658 5.80229 8.33512C5.73749 8.74423 5.35331 9.02336 4.9442 8.95856C4.53508 8.89376 4.25596 8.50958 4.32076 8.10047C4.71044 5.64008 6.64008 3.71044 9.10047 3.32076C9.50958 3.25596 9.89376 3.53508 9.95856 3.9442Z" fill="#2D264B"/>
<path d="M18.4697 17.4697C18.7626 17.1768 19.2374 17.1768 19.5303 17.4697L23.5302 21.4696C23.8231 21.7625 23.8231 22.2374 23.5302 22.5303C23.2373 22.8232 22.7625 22.8232 22.4696 22.5303L18.4697 18.5303C18.1768 18.2374 18.1768 17.7626 18.4697 17.4697Z" fill="#2D264B"/>
</svg>
