<svg xmlns="http://www.w3.org/2000/svg" width="24" height="24" viewBox="0 0 24 24">
  <defs/>
  <path fill="#2D264B" d="M19.53,17.47 C19.238,17.177 18.763,17.177 18.47,17.47 C18.177,17.763 18.177,18.238 18.47,18.53 L19.53,17.47 Z M22.47,22.53 C22.762,22.823 23.237,22.823 23.53,22.53 C23.823,22.238 23.823,21.763 23.53,21.47 L22.47,22.53 Z M18.47,18.53 L22.47,22.53 L23.53,21.47 L19.53,17.47 L18.47,18.53 Z M11,18.25 C6.444,18.25 2.75,14.556 2.75,10 L1.25,10 C1.25,15.385 5.615,19.75 11,19.75 L11,18.25 Z M19.25,10 C19.25,14.556 15.556,18.25 11,18.25 L11,19.75 C16.385,19.75 20.75,15.385 20.75,10 L19.25,10 Z M11,1.75 C15.556,1.75 19.25,5.444 19.25,10 L20.75,10 C20.75,4.615 16.385,0.25 11,0.25 L11,1.75 Z M11,0.25 C5.615,0.25 1.25,4.615 1.25,10 L2.75,10 C2.75,5.444 6.444,1.75 11,1.75 L11,0.25 Z"/>
</svg>

