<svg xmlns="http://www.w3.org/2000/svg" width="24" height="24" viewBox="0 0 24 24">
  <defs/>
  <path fill="#2D264B" d="M2,10 C2,5.029 6.029,1 11,1 C15.971,1 20,5.029 20,10 C20,14.971 15.971,19 11,19 C6.029,19 2,14.971 2,10 Z M9.959,3.944 C9.894,3.535 9.51,3.256 9.1,3.321 C6.64,3.71 4.71,5.64 4.321,8.1 C4.256,8.51 4.535,8.894 4.944,8.959 C5.353,9.023 5.737,8.744 5.802,8.335 C6.09,6.517 7.517,5.09 9.335,4.802 C9.744,4.737 10.023,4.353 9.959,3.944 Z"/>
  <path fill="#2D264B" d="M18.47,17.47 C18.763,17.177 19.237,17.177 19.53,17.47 L23.53,21.47 C23.823,21.762 23.823,22.237 23.53,22.53 C23.237,22.823 22.762,22.823 22.47,22.53 L18.47,18.53 C18.177,18.237 18.177,17.763 18.47,17.47 Z"/>
</svg>

