<svg xmlns="http://www.w3.org/2000/svg" width="24" height="24" viewBox="0 0 24 24">
  <defs/>
  <path fill="#2D264B" d="M19.53,17.47 C19.238,17.177 18.763,17.177 18.47,17.47 C18.177,17.763 18.177,18.238 18.47,18.53 L19.53,17.47 Z M22.47,22.53 C22.762,22.823 23.237,22.823 23.53,22.53 C23.823,22.238 23.823,21.763 23.53,21.47 L22.47,22.53 Z M9.335,4.802 C9.744,4.738 10.023,4.353 9.959,3.944 C9.894,3.535 9.51,3.256 9.1,3.321 L9.335,4.802 Z M4.321,8.101 C4.256,8.51 4.535,8.894 4.944,8.959 C5.353,9.023 5.737,8.744 5.802,8.335 L4.321,8.101 Z M18.47,18.53 L22.47,22.53 L23.53,21.47 L19.53,17.47 L18.47,18.53 Z M11,18.25 C6.444,18.25 2.75,14.556 2.75,10 L1.25,10 C1.25,15.385 5.615,19.75 11,19.75 L11,18.25 Z M19.25,10 C19.25,14.556 15.556,18.25 11,18.25 L11,19.75 C16.385,19.75 20.75,15.385 20.75,10 L19.25,10 Z M11,1.75 C15.556,1.75 19.25,5.444 19.25,10 L20.75,10 C20.75,4.615 16.385,0.25 11,0.25 L11,1.75 Z M11,0.25 C5.615,0.25 1.25,4.615 1.25,10 L2.75,10 C2.75,5.444 6.444,1.75 11,1.75 L11,0.25 Z M9.1,3.321 C6.64,3.71 4.71,5.64 4.321,8.101 L5.802,8.335 C6.09,6.517 7.517,5.09 9.335,4.802 L9.1,3.321 Z"/>
</svg>

