<svg xmlns="http://www.w3.org/2000/svg" width="24" height="24" viewBox="0 0 24 24">
  <defs/>
  <path fill="#2D264B" d="M10.75,10 C10.75,9.31 11.31,8.75 12,8.75 C12.69,8.75 13.25,9.31 13.25,10 C13.25,10.69 12.69,11.25 12,11.25 C11.31,11.25 10.75,10.69 10.75,10 Z"/>
  <path fill="#2D264B" d="M6.771,4.042 C6.771,2.5 8.021,1.25 9.563,1.25 L14.729,1.25 C16.11,1.25 17.229,2.369 17.229,3.75 C17.229,4.302 17.677,4.75 18.229,4.75 L18.818,4.75 C20.403,4.75 21.797,5.98 21.733,7.666 C21.65,9.827 21.23,13.293 19.547,16.361 C19.09,17.192 18.481,18.009 17.822,18.77 L17.773,18.828 C16.825,19.923 16.035,20.836 15.185,21.458 C14.272,22.127 13.296,22.461 12,22.461 C10.704,22.461 9.729,22.127 8.815,21.458 C7.965,20.836 7.175,19.923 6.228,18.828 L6.178,18.77 C5.519,18.009 4.91,17.192 4.454,16.361 C2.824,13.392 2.378,10.257 2.276,8.246 C2.191,6.553 3.595,5.333 5.171,5.333 L5.48,5.333 C6.193,5.333 6.771,4.755 6.771,4.042 Z M12,7.25 C10.481,7.25 9.25,8.481 9.25,10 C9.25,11.259 10.096,12.32 11.25,12.646 L11.25,16 C11.25,16.414 11.586,16.75 12,16.75 C12.414,16.75 12.75,16.414 12.75,16 L12.75,12.646 C13.904,12.32 14.75,11.259 14.75,10 C14.75,8.481 13.519,7.25 12,7.25 Z"/>
</svg>

