<svg xmlns="http://www.w3.org/2000/svg" width="24" height="24" viewBox="0 0 24 24">
  <defs/>
  <path fill="#2D264B" d="M22.469,7.364 C23.08,4.177 20.282,1.38 17.096,1.991 L7.947,3.745 C5.958,4.127 4.367,5.632 3.862,7.588 C2.853,11.494 6.475,15.063 10.364,13.92 C10.472,13.888 10.571,13.988 10.54,14.095 C9.396,17.985 12.966,21.607 16.871,20.598 C18.827,20.092 20.333,18.502 20.714,16.513 L22.469,7.364 Z"/>
  <path fill="#2D264B" d="M4.945,16.333 C5.237,16.04 5.237,15.565 4.945,15.273 C4.652,14.98 4.177,14.98 3.884,15.273 L2.47,16.687 C2.177,16.98 2.177,17.454 2.47,17.747 C2.763,18.04 3.237,18.04 3.53,17.747 L4.945,16.333 Z"/>
  <path fill="#2D264B" d="M8.48,15.98 C8.773,16.273 8.773,16.747 8.48,17.04 L7.066,18.454 C6.773,18.747 6.298,18.747 6.005,18.454 C5.712,18.162 5.712,17.687 6.005,17.394 L7.419,15.98 C7.712,15.687 8.187,15.687 8.48,15.98 Z"/>
  <path fill="#2D264B" d="M9.187,20.576 C9.48,20.283 9.48,19.808 9.187,19.515 C8.894,19.222 8.419,19.222 8.127,19.515 L6.712,20.929 C6.419,21.222 6.419,21.697 6.712,21.99 C7.005,22.283 7.48,22.283 7.773,21.99 L9.187,20.576 Z"/>
</svg>

