<svg width="24" height="24" viewBox="0 0 24 24" fill="none" xmlns="http://www.w3.org/2000/svg">
<path d="M15.7993 2.26404C13.9781 -0.421354 10.0217 -0.421346 8.20057 2.26406L2.97194 9.97413C1.83533 11.6502 1.77516 13.8394 2.80106 15.5799C4.84931 19.055 9.93446 19.0178 11.8757 15.4591C11.9294 15.3608 12.0705 15.3608 12.1241 15.4591C14.0654 19.0178 19.1505 19.055 21.1988 15.5799C22.2247 13.8394 22.1645 11.6502 21.0279 9.97412L15.7993 2.26404Z" fill="#2D264B"/>
<path d="M12.7499 18.9979C12.7499 18.5837 12.4142 18.2479 11.9999 18.2479C11.5857 18.2479 11.2499 18.5837 11.2499 18.9979V20.9979C11.2499 21.4121 11.5857 21.7479 11.9999 21.7479C12.4142 21.7479 12.7499 21.4121 12.7499 20.9979V18.9979Z" fill="#2D264B"/>
<path d="M8.99994 20.2479C9.41415 20.2479 9.74994 20.5837 9.74994 20.9979L9.74994 22.9979C9.74994 23.4121 9.41415 23.7479 8.99994 23.7479C8.58573 23.7479 8.24994 23.4121 8.24994 22.9979L8.24994 20.9979C8.24994 20.5837 8.58573 20.2479 8.99994 20.2479Z" fill="#2D264B"/>
<path d="M15.7499 20.9979C15.7499 20.5837 15.4142 20.2479 14.9999 20.2479C14.5857 20.2479 14.2499 20.5837 14.2499 20.9979V22.9979C14.2499 23.4121 14.5857 23.7479 14.9999 23.7479C15.4142 23.7479 15.7499 23.4121 15.7499 22.9979V20.9979Z" fill="#2D264B"/>
</svg>
