<svg xmlns="http://www.w3.org/2000/svg" width="24" height="24" viewBox="0 0 24 24">
  <defs/>
  <path fill="#2D264B" d="M6.005,17.394 C5.712,17.687 5.712,18.162 6.005,18.455 C6.298,18.748 6.773,18.748 7.066,18.455 L6.005,17.394 Z M8.48,17.041 C8.773,16.748 8.773,16.273 8.48,15.98 C8.187,15.687 7.712,15.687 7.419,15.98 L8.48,17.041 Z M6.712,20.93 C6.419,21.223 6.419,21.698 6.712,21.991 C7.005,22.284 7.48,22.284 7.773,21.991 L6.712,20.93 Z M9.187,20.576 C9.48,20.284 9.48,19.809 9.187,19.516 C8.894,19.223 8.419,19.223 8.127,19.516 L9.187,20.576 Z M2.47,16.687 C2.177,16.98 2.177,17.455 2.47,17.748 C2.763,18.041 3.237,18.041 3.53,17.748 L2.47,16.687 Z M4.945,16.334 C5.237,16.041 5.237,15.566 4.945,15.273 C4.652,14.98 4.177,14.98 3.884,15.273 L4.945,16.334 Z M20.996,7.082 L19.241,16.231 L20.714,16.514 L22.469,7.364 L20.996,7.082 Z M8.229,5.219 L17.378,3.464 L17.096,1.991 L7.947,3.746 L8.229,5.219 Z M5.314,7.964 C5.676,6.565 6.814,5.49 8.229,5.219 L7.947,3.746 C5.958,4.127 4.367,5.633 3.862,7.589 L5.314,7.964 Z M9.941,12.481 C7.189,13.291 4.592,10.761 5.314,7.964 L3.862,7.589 C2.853,11.495 6.475,15.064 10.364,13.92 L9.941,12.481 Z M11.979,14.519 C12.345,13.273 11.187,12.115 9.941,12.481 L10.364,13.92 C10.472,13.889 10.571,13.989 10.54,14.096 L11.979,14.519 Z M16.496,19.146 C13.699,19.869 11.169,17.272 11.979,14.519 L10.54,14.096 C9.396,17.985 12.966,21.607 16.871,20.598 L16.496,19.146 Z M19.241,16.231 C18.97,17.646 17.895,18.784 16.496,19.146 L16.871,20.598 C18.827,20.093 20.333,18.502 20.714,16.514 L19.241,16.231 Z M22.469,7.364 C23.08,4.178 20.282,1.38 17.096,1.991 L17.378,3.464 C19.524,3.053 21.407,4.937 20.996,7.082 L22.469,7.364 Z M7.066,18.455 L8.48,17.041 L7.419,15.98 L6.005,17.394 L7.066,18.455 Z M7.773,21.991 L9.187,20.576 L8.127,19.516 L6.712,20.93 L7.773,21.991 Z M3.53,17.748 L4.945,16.334 L3.884,15.273 L2.47,16.687 L3.53,17.748 Z"/>
</svg>

