<svg xmlns="http://www.w3.org/2000/svg" width="24" height="24" viewBox="0 0 24 24">
  <defs/>
  <path fill="#2D264B" d="M15.799,2.264 C13.978,-0.421 10.022,-0.421 8.201,2.264 L2.972,9.974 C1.835,11.65 1.775,13.839 2.801,15.58 C4.849,19.055 9.934,19.018 11.876,15.459 C11.929,15.361 12.07,15.361 12.124,15.459 C14.065,19.018 19.151,19.055 21.199,15.58 C22.225,13.839 22.165,11.65 21.028,9.974 L15.799,2.264 Z"/>
  <path fill="#2D264B" d="M12.75,18.998 C12.75,18.584 12.414,18.248 12,18.248 C11.586,18.248 11.25,18.584 11.25,18.998 L11.25,20.998 C11.25,21.412 11.586,21.748 12,21.748 C12.414,21.748 12.75,21.412 12.75,20.998 L12.75,18.998 Z"/>
  <path fill="#2D264B" d="M9,20.248 C9.414,20.248 9.75,20.584 9.75,20.998 L9.75,22.998 C9.75,23.412 9.414,23.748 9,23.748 C8.586,23.748 8.25,23.412 8.25,22.998 L8.25,20.998 C8.25,20.584 8.586,20.248 9,20.248 Z"/>
  <path fill="#2D264B" d="M15.75,20.998 C15.75,20.584 15.414,20.248 15,20.248 C14.586,20.248 14.25,20.584 14.25,20.998 L14.25,22.998 C14.25,23.412 14.586,23.748 15,23.748 C15.414,23.748 15.75,23.412 15.75,22.998 L15.75,20.998 Z"/>
</svg>

