<svg xmlns="http://www.w3.org/2000/svg" width="24" height="24" viewBox="0 0 24 24">
  <defs/>
  <path fill="#2D264B" d="M8.201,5.264 Q9.566,3.25 12,3.25 Q14.433,3.25 15.799,5.264 L21.028,12.974 Q22.887,15.716 21.199,18.58 Q19.659,21.193 16.621,21.157 Q13.577,21.122 12.124,18.459 Q12.084,18.385 12,18.385 Q11.916,18.385 11.876,18.459 Q10.423,21.122 7.379,21.157 Q4.341,21.193 2.801,18.58 Q1.113,15.716 2.972,12.974 Z M9.442,6.106 L4.213,13.816 Q2.887,15.772 4.093,17.818 Q5.192,19.683 7.361,19.657 Q9.527,19.632 10.559,17.741 Q11.026,16.885 12,16.885 Q12.974,16.885 13.441,17.741 Q14.473,19.632 16.639,19.657 Q18.808,19.683 19.907,17.818 Q21.113,15.772 19.786,13.816 L14.558,6.106 Q13.638,4.75 12,4.75 Q10.362,4.75 9.442,6.106 Z"/>
</svg>

