<svg xmlns="http://www.w3.org/2000/svg" width="24" height="24" viewBox="0 0 24 24">
  <defs/>
  <path fill="#2D264B" d="M2.334,7.707 Q1.876,5.317 3.597,3.597 Q5.317,1.876 7.707,2.334 L16.856,4.089 Q20.109,4.713 20.941,7.932 Q21.7,10.868 19.527,12.991 Q17.348,15.119 14.439,14.263 Q14.358,14.239 14.299,14.299 Q14.239,14.358 14.263,14.439 Q15.119,17.348 12.991,19.527 Q10.868,21.699 7.932,20.941 Q4.713,20.109 4.089,16.856 Z M3.807,7.425 L5.562,16.574 Q6.007,18.895 8.307,19.489 Q10.402,20.03 11.918,18.478 Q13.432,16.929 12.824,14.862 Q12.549,13.927 13.238,13.238 Q13.927,12.549 14.862,12.824 Q16.929,13.432 18.478,11.918 Q20.03,10.402 19.489,8.307 Q18.895,6.007 16.574,5.562 L7.425,3.807 Q5.816,3.499 4.657,4.657 Q3.499,5.816 3.807,7.425 Z"/>
</svg>

