<svg xmlns="http://www.w3.org/2000/svg" width="24" height="24" viewBox="0 0 24 24">
  <defs/>
  <path fill="#2D264B" d="M11.25,20.998 C11.25,21.412 11.586,21.748 12,21.748 C12.414,21.748 12.75,21.412 12.75,20.998 L11.25,20.998 Z M12.75,18.998 C12.75,18.584 12.414,18.248 12,18.248 C11.586,18.248 11.25,18.584 11.25,18.998 L12.75,18.998 Z M14.25,22.998 C14.25,23.412 14.586,23.748 15,23.748 C15.414,23.748 15.75,23.412 15.75,22.998 L14.25,22.998 Z M15.75,20.998 C15.75,20.584 15.414,20.248 15,20.248 C14.586,20.248 14.25,20.584 14.25,20.998 L15.75,20.998 Z M8.25,22.998 C8.25,23.412 8.586,23.748 9,23.748 C9.414,23.748 9.75,23.412 9.75,22.998 L8.25,22.998 Z M9.75,20.998 C9.75,20.584 9.414,20.248 9,20.248 C8.586,20.248 8.25,20.584 8.25,20.998 L9.75,20.998 Z M14.558,3.106 L19.787,10.816 L21.028,9.974 L15.799,2.264 L14.558,3.106 Z M4.213,10.816 L9.442,3.106 L8.201,2.264 L2.972,9.974 L4.213,10.816 Z M4.093,14.818 C3.359,13.573 3.405,12.008 4.213,10.816 L2.972,9.974 C1.835,11.65 1.775,13.839 2.801,15.58 L4.093,14.818 Z M10.559,14.741 C9.185,17.259 5.56,17.307 4.093,14.818 L2.801,15.58 C4.849,19.055 9.934,19.018 11.876,15.459 L10.559,14.741 Z M13.441,14.741 C12.819,13.6 11.181,13.6 10.559,14.741 L11.876,15.459 C11.929,15.361 12.07,15.361 12.124,15.459 L13.441,14.741 Z M19.907,14.818 C18.44,17.307 14.815,17.259 13.441,14.741 L12.124,15.459 C14.065,19.018 19.151,19.055 21.199,15.58 L19.907,14.818 Z M19.787,10.816 C20.595,12.008 20.64,13.573 19.907,14.818 L21.199,15.58 C22.225,13.839 22.165,11.65 21.028,9.974 L19.787,10.816 Z M15.799,2.264 C13.978,-0.421 10.022,-0.421 8.201,2.264 L9.442,3.106 C10.668,1.298 13.332,1.298 14.558,3.106 L15.799,2.264 Z M12.75,20.998 L12.75,18.998 L11.25,18.998 L11.25,20.998 L12.75,20.998 Z M15.75,22.998 L15.75,20.998 L14.25,20.998 L14.25,22.998 L15.75,22.998 Z M9.75,22.998 L9.75,20.998 L8.25,20.998 L8.25,22.998 L9.75,22.998 Z"/>
</svg>

