<svg xmlns="http://www.w3.org/2000/svg" width="24" height="24" viewBox="0 0 24 24">
  <defs/>
  <path fill="#2D264B" d="M5.75,6.114 C7.608,6.58 9.502,5.487 10.028,3.644 L8.585,3.232 C8.281,4.297 7.188,4.928 6.114,4.659 L5.75,6.114 Z M3.777,9.53 C2.342,8.048 3.748,5.612 5.75,6.114 L6.114,4.659 C2.649,3.79 0.215,8.007 2.7,10.573 L3.777,9.53 Z M3.777,14.47 C5.11,13.093 5.11,10.907 3.777,9.53 L2.7,10.573 C3.469,11.369 3.469,12.631 2.7,13.427 L3.777,14.47 Z M5.75,17.886 C3.748,18.388 2.342,15.953 3.777,14.47 L2.7,13.427 C0.215,15.993 2.649,20.21 6.114,19.341 L5.75,17.886 Z M10.028,20.356 C9.502,18.513 7.608,17.42 5.75,17.886 L6.114,19.341 C7.188,19.072 8.281,19.703 8.585,20.768 L10.028,20.356 Z M13.972,20.356 C13.406,22.34 10.594,22.34 10.028,20.356 L8.585,20.768 C9.566,24.203 14.434,24.203 15.415,20.768 L13.972,20.356 Z M18.25,17.886 C16.392,17.42 14.498,18.513 13.972,20.356 L15.415,20.768 C15.718,19.703 16.812,19.072 17.886,19.341 L18.25,17.886 Z M20.223,14.47 C21.658,15.953 20.252,18.388 18.25,17.886 L17.886,19.341 C21.351,20.21 23.785,15.993 21.3,13.427 L20.223,14.47 Z M20.223,9.53 C18.89,10.907 18.89,13.093 20.223,14.47 L21.3,13.427 C20.53,12.631 20.53,11.369 21.3,10.573 L20.223,9.53 Z M18.25,6.114 C20.252,5.612 21.658,8.048 20.223,9.53 L21.3,10.573 C23.785,8.007 21.351,3.79 17.886,4.659 L18.25,6.114 Z M13.972,3.644 C14.498,5.487 16.392,6.58 18.25,6.114 L17.886,4.659 C16.812,4.928 15.718,4.297 15.415,3.232 L13.972,3.644 Z M15.415,3.232 C14.434,-0.203 9.566,-0.203 8.585,3.232 L10.028,3.644 C10.594,1.66 13.406,1.66 13.972,3.644 L15.415,3.232 Z M8.25,12 C8.25,14.071 9.929,15.75 12,15.75 L12,14.25 C10.757,14.25 9.75,13.243 9.75,12 L8.25,12 Z M12,15.75 C14.071,15.75 15.75,14.071 15.75,12 L14.25,12 C14.25,13.243 13.243,14.25 12,14.25 L12,15.75 Z M15.75,12 C15.75,9.929 14.071,8.25 12,8.25 L12,9.75 C13.243,9.75 14.25,10.757 14.25,12 L15.75,12 Z M12,8.25 C9.929,8.25 8.25,9.929 8.25,12 L9.75,12 C9.75,10.757 10.757,9.75 12,9.75 L12,8.25 Z"/>
</svg>

