<svg xmlns="http://www.w3.org/2000/svg" width="24" height="24" viewBox="0 0 24 24">
  <defs/>
  <path fill="#2D264B" d="M9.75,11.999 C9.75,10.757 10.757,9.75 12,9.75 C13.243,9.75 14.25,10.757 14.25,11.999 C14.25,13.242 13.243,14.249 12,14.249 C10.757,14.249 9.75,13.242 9.75,11.999 Z"/>
  <path fill="#2D264B" d="M8.585,3.232 C9.566,-0.204 14.434,-0.204 15.415,3.232 C15.718,4.296 16.812,4.928 17.886,4.658 C21.351,3.79 23.785,8.006 21.3,10.573 C20.531,11.368 20.531,12.631 21.3,13.426 C23.785,15.993 21.351,20.209 17.886,19.341 C16.812,19.072 15.718,19.703 15.415,20.767 C14.434,24.203 9.566,24.203 8.585,20.767 C8.281,19.703 7.188,19.072 6.114,19.341 C2.649,20.209 0.215,15.993 2.7,13.426 C3.469,12.631 3.469,11.368 2.7,10.573 C0.215,8.006 2.649,3.79 6.114,4.658 C7.188,4.928 8.281,4.296 8.585,3.232 Z M12,8.25 C9.929,8.25 8.25,9.928 8.25,12 C8.25,14.071 9.929,15.75 12,15.75 C14.071,15.75 15.75,14.071 15.75,12 C15.75,9.928 14.071,8.25 12,8.25 Z"/>
</svg>

