<svg xmlns="http://www.w3.org/2000/svg" width="24" height="24" viewBox="0 0 24 24">
  <defs/>
  <path fill="#2D264B" d="M19.547,16.361 Q18.921,17.5 17.822,18.77 Q14.628,22.461 12,22.461 Q9.372,22.461 6.178,18.77 Q5.079,17.5 4.454,16.361 Q2.507,12.813 2.276,8.246 Q2.214,7.013 3.1,6.155 Q3.949,5.333 5.171,5.333 L5.48,5.333 Q6.125,5.333 6.448,5.01 Q6.771,4.688 6.771,4.042 Q6.771,1.25 9.563,1.25 L14.729,1.25 Q15.765,1.25 16.497,1.982 Q17.229,2.714 17.229,3.75 Q17.229,4.75 18.229,4.75 L18.818,4.75 Q20.041,4.75 20.894,5.576 Q21.78,6.433 21.732,7.666 Q21.539,12.731 19.547,16.361 Z M18.232,15.639 Q20.053,12.32 20.234,7.608 Q20.255,7.045 19.851,6.653 Q19.434,6.25 18.818,6.25 L18.229,6.25 Q15.729,6.25 15.729,3.75 Q15.729,3.336 15.436,3.043 Q15.143,2.75 14.729,2.75 L9.563,2.75 Q8.271,2.75 8.271,4.042 Q8.271,5.438 7.573,6.135 Q6.875,6.833 5.48,6.833 L5.171,6.833 Q4.556,6.833 4.144,7.232 Q3.746,7.617 3.774,8.171 Q3.988,12.393 5.769,15.639 Q6.317,16.639 7.312,17.789 Q10.058,20.961 12,20.961 Q13.943,20.961 16.688,17.789 Q17.683,16.639 18.232,15.639 Z M15.584,10.471 L13.562,12.98 Q12.136,14.75 11.25,14.75 Q10.364,14.75 8.938,12.979 L8.416,12.332 Q8.221,12.09 8.254,11.781 Q8.288,11.473 8.53,11.278 Q8.771,11.083 9.08,11.116 Q9.389,11.149 9.584,11.391 L10.106,12.038 Q11.082,13.25 11.25,13.25 Q11.418,13.25 12.394,12.039 L12.395,12.038 L14.416,9.529 Q14.611,9.288 14.92,9.254 Q15.229,9.221 15.471,9.416 Q15.713,9.611 15.746,9.92 Q15.779,10.229 15.584,10.471 Z"/>
</svg>

