<svg width="24" height="24" viewBox="0 0 24 24" fill="none" xmlns="http://www.w3.org/2000/svg">
<path fill-rule="evenodd" clip-rule="evenodd" d="M6.77141 4.04167C6.77141 2.49987 8.02129 1.25 9.56308 1.25H14.7291C16.1098 1.25 17.2291 2.36929 17.2291 3.75C17.2291 4.30228 17.6768 4.75 18.2291 4.75H18.8184C20.4033 4.75 21.7972 5.97999 21.7326 7.66561C21.6498 9.82667 21.2301 13.2931 19.5468 16.3608C19.0905 17.1923 18.4811 18.0092 17.8223 18.7703L17.7727 18.8276C16.825 19.9226 16.0349 20.8356 15.1854 21.4579C14.2717 22.1273 13.2965 22.4607 12.0003 22.4607C10.704 22.4607 9.72878 22.1273 8.81509 21.4579C7.96562 20.8356 7.17546 19.9226 6.22779 18.8276L6.1782 18.7703C5.51943 18.0092 4.91004 17.1923 4.45375 16.3608C2.82459 13.3918 2.37794 10.2575 2.27642 8.24648C2.19091 6.55273 3.59483 5.33333 5.17088 5.33333H5.47975C6.19312 5.33333 6.77141 4.75503 6.77141 4.04167ZM14.8946 10.6516C15.1874 10.3588 15.1874 9.88388 14.8946 9.59099C14.6017 9.2981 14.1268 9.2981 13.8339 9.59099L12.2429 11.182L10.6519 9.59099C10.359 9.2981 9.88415 9.2981 9.59125 9.59099C9.29836 9.88388 9.29836 10.3588 9.59125 10.6517L11.1822 12.2426L9.59125 13.8336C9.29836 14.1265 9.29836 14.6014 9.59125 14.8943C9.88415 15.1872 10.359 15.1872 10.6519 14.8943L12.2429 13.3033L13.8339 14.8943C14.1268 15.1872 14.6017 15.1872 14.8946 14.8943C15.1874 14.6014 15.1874 14.1265 14.8946 13.8336L13.3036 12.2426L14.8946 10.6516Z" fill="#2D264B"/>
</svg>
