<svg xmlns="http://www.w3.org/2000/svg" width="24" height="24" viewBox="0 0 24 24">
  <defs/>
  <path fill="#2D264B" d="M14.729,1.25 Q17.229,1.25 17.229,3.75 Q17.229,4.75 18.229,4.75 L18.818,4.75 Q20.041,4.75 20.894,5.576 Q21.78,6.433 21.732,7.666 Q21.539,12.731 19.547,16.361 Q18.921,17.5 17.822,18.77 Q14.628,22.461 12,22.461 Q9.372,22.461 6.178,18.77 Q5.079,17.5 4.454,16.361 Q2.507,12.813 2.276,8.246 Q2.214,7.013 3.1,6.155 Q3.949,5.333 5.171,5.333 L5.48,5.333 Q6.015,5.333 6.393,4.955 Q6.771,4.577 6.771,4.042 Q6.771,2.885 7.589,2.068 Q8.407,1.25 9.563,1.25 Z M14.729,2.75 L9.563,2.75 Q8.271,2.75 8.271,4.042 Q8.271,6.833 5.48,6.833 L5.171,6.833 Q4.556,6.833 4.144,7.232 Q3.746,7.617 3.774,8.171 Q3.988,12.393 5.769,15.639 Q6.317,16.639 7.312,17.789 Q10.058,20.961 12,20.961 Q13.943,20.961 16.688,17.789 Q17.683,16.639 18.232,15.639 Q20.053,12.32 20.234,7.608 Q20.255,7.045 19.851,6.653 Q19.434,6.25 18.818,6.25 L18.229,6.25 Q15.729,6.25 15.729,3.75 Q15.729,2.75 14.729,2.75 Z"/>
</svg>

