<svg width="24" height="24" viewBox="0 0 24 24" fill="none" xmlns="http://www.w3.org/2000/svg">
<path fill-rule="evenodd" clip-rule="evenodd" d="M6.77141 4.04167C6.77141 2.49987 8.02129 1.25 9.56308 1.25H14.7291C16.1098 1.25 17.2291 2.36929 17.2291 3.75C17.2291 4.30228 17.6768 4.75 18.2291 4.75H18.8184C20.4033 4.75 21.7972 5.97999 21.7326 7.66561C21.6498 9.82667 21.2301 13.2931 19.5468 16.3608C19.0905 17.1923 18.4811 18.0092 17.8223 18.7703L17.7727 18.8276C16.825 19.9226 16.0349 20.8356 15.1854 21.4579C14.2717 22.1273 13.2965 22.4607 12.0003 22.4607C10.704 22.4607 9.72878 22.1273 8.81509 21.4579C7.96562 20.8356 7.17546 19.9226 6.22779 18.8276L6.1782 18.7703C5.51943 18.0092 4.91004 17.1923 4.45375 16.3608C2.82459 13.3918 2.37794 10.2575 2.27642 8.24648C2.19091 6.55273 3.59483 5.33333 5.17088 5.33333H5.47975C6.19312 5.33333 6.77141 4.75503 6.77141 4.04167ZM15.5842 10.4706C15.8441 10.148 15.7933 9.67589 15.4708 9.416C15.1482 9.15611 14.6761 9.20689 14.4162 9.52943L12.3947 12.0382C11.9796 12.5533 11.7177 12.8755 11.4997 13.0791C11.3973 13.1747 11.3319 13.2173 11.2943 13.2361C11.2663 13.2501 11.2563 13.25 11.2509 13.25H11.2495C11.2441 13.25 11.2341 13.2501 11.2061 13.2361C11.1685 13.2173 11.1031 13.1747 11.0006 13.0791C10.7827 12.8755 10.5208 12.5533 10.1057 12.0382L9.58419 11.391C9.3243 11.0685 8.85215 11.0177 8.52961 11.2776C8.20707 11.5375 8.15629 12.0096 8.41618 12.3321L8.97025 13.0198C9.34276 13.4822 9.67141 13.8901 9.97683 14.1753C10.3047 14.4816 10.7124 14.75 11.2502 14.75C11.7879 14.75 12.1956 14.4816 12.5235 14.1753C12.8289 13.8901 13.1576 13.4822 13.5301 13.0198L15.5842 10.4706Z" fill="#2D264B"/>
</svg>
