<svg width="24" height="24" viewBox="0 0 24 24" fill="none" xmlns="http://www.w3.org/2000/svg">
<path d="M9.56308 1.25C8.02129 1.25 6.77141 2.49987 6.77141 4.04167C6.77141 4.75503 6.19312 5.33333 5.47975 5.33333H5.17088C3.59483 5.33333 2.19091 6.55273 2.27642 8.24648C2.37794 10.2575 2.82459 13.3918 4.45375 16.3608C4.91004 17.1923 5.51943 18.0092 6.1782 18.7703L6.22779 18.8276C7.17546 19.9226 7.96562 20.8356 8.81509 21.4579C9.72878 22.1273 10.704 22.4607 12.0003 22.4607C13.2965 22.4607 14.2717 22.1273 15.1854 21.4579C16.0349 20.8356 16.825 19.9226 17.7727 18.8276L17.8223 18.7703C18.4811 18.0092 19.0905 17.1923 19.5468 16.3608C21.2301 13.2931 21.6498 9.82667 21.7326 7.66561C21.7972 5.97999 20.4033 4.75 18.8184 4.75H18.2291C17.6768 4.75 17.2291 4.30228 17.2291 3.75C17.2291 2.36929 16.1098 1.25 14.7291 1.25H9.56308Z" fill="#2D264B"/>
</svg>
