<svg width="24" height="24" viewBox="0 0 24 24" fill="none" xmlns="http://www.w3.org/2000/svg">
<path fill-rule="evenodd" clip-rule="evenodd" d="M6.77141 4.04167C6.77141 2.49987 8.02129 1.25 9.56308 1.25H14.7291C16.1098 1.25 17.2291 2.36929 17.2291 3.75C17.2291 4.30228 17.6768 4.75 18.2291 4.75H18.8184C20.4033 4.75 21.7972 5.97999 21.7326 7.66561C21.6498 9.82667 21.2301 13.2931 19.5468 16.3608C19.0905 17.1923 18.4811 18.0092 17.8223 18.7703L17.7727 18.8276C16.825 19.9226 16.0349 20.8356 15.1854 21.4579C14.2717 22.1273 13.2965 22.4607 12.0003 22.4607C10.704 22.4607 9.72878 22.1273 8.81509 21.4579C7.96562 20.8356 7.17546 19.9226 6.22779 18.8276L6.1782 18.7703C5.51943 18.0092 4.91004 17.1923 4.45375 16.3608C2.82459 13.3918 2.37794 10.2575 2.27642 8.24648C2.19091 6.55273 3.59483 5.33333 5.17088 5.33333H5.47975C6.19312 5.33333 6.77141 4.75503 6.77141 4.04167ZM12.7502 9C12.7502 8.58579 12.4144 8.25 12.0002 8.25C11.586 8.25 11.2502 8.58579 11.2502 9V11.25H9.00018C8.58597 11.25 8.25018 11.5858 8.25018 12C8.25018 12.4142 8.58597 12.75 9.00018 12.75H11.2502V15C11.2502 15.4142 11.586 15.75 12.0002 15.75C12.4144 15.75 12.7502 15.4142 12.7502 15V12.75H15.0002C15.4144 12.75 15.7502 12.4142 15.7502 12C15.7502 11.5858 15.4144 11.25 15.0002 11.25H12.7502V9Z" fill="#2D264B"/>
</svg>
