<svg xmlns="http://www.w3.org/2000/svg" width="24" height="24" viewBox="0 0 24 24">
  <defs/>
  <path fill="#2D264B" d="M11.406,9.208 C11.598,8.597 12.403,8.597 12.595,9.208 C12.873,10.094 13.683,10.716 14.62,10.716 C14.91,10.716 15.127,10.895 15.215,11.175 C15.303,11.456 15.231,11.752 14.98,11.94 C14.236,12.498 13.937,13.474 14.214,14.356 C14.316,14.682 14.194,14.961 13.979,15.122 C13.767,15.281 13.503,15.304 13.26,15.122 C12.511,14.559 11.49,14.559 10.74,15.122 C10.498,15.304 10.233,15.281 10.021,15.122 C9.807,14.961 9.684,14.682 9.786,14.356 C10.064,13.474 9.764,12.498 9.021,11.94 C8.769,11.752 8.697,11.456 8.786,11.175 C8.874,10.895 9.09,10.716 9.38,10.716 C10.318,10.716 11.127,10.094 11.406,9.208 Z"/>
  <path fill="#2D264B" d="M6.771,4.042 C6.771,2.5 8.021,1.25 9.563,1.25 L14.729,1.25 C16.11,1.25 17.229,2.369 17.229,3.75 C17.229,4.302 17.677,4.75 18.229,4.75 L18.818,4.75 C20.403,4.75 21.797,5.98 21.733,7.666 C21.65,9.827 21.23,13.293 19.547,16.361 C19.09,17.192 18.481,18.009 17.822,18.77 L17.773,18.828 C16.825,19.923 16.035,20.836 15.185,21.458 C14.272,22.127 13.297,22.461 12,22.461 C10.704,22.461 9.729,22.127 8.815,21.458 C7.966,20.836 7.175,19.923 6.228,18.828 L6.178,18.77 C5.519,18.009 4.91,17.192 4.454,16.361 C2.825,13.392 2.378,10.257 2.276,8.246 C2.191,6.553 3.595,5.333 5.171,5.333 L5.48,5.333 C6.193,5.333 6.771,4.755 6.771,4.042 Z M14.026,8.758 C13.393,6.747 10.607,6.747 9.975,8.758 C9.885,9.045 9.636,9.216 9.38,9.216 C7.271,9.216 6.508,11.93 8.12,13.14 C8.343,13.307 8.447,13.616 8.356,13.906 C8.046,14.891 8.443,15.813 9.121,16.322 C9.803,16.833 10.804,16.95 11.641,16.322 C11.857,16.16 12.144,16.16 12.36,16.322 C13.196,16.95 14.198,16.833 14.879,16.322 C15.557,15.813 15.955,14.891 15.645,13.906 C15.554,13.616 15.658,13.307 15.88,13.14 C17.492,11.93 16.729,9.216 14.62,9.216 C14.364,9.216 14.116,9.045 14.026,8.758 Z"/>
</svg>

