<svg width="24" height="24" viewBox="0 0 24 24" fill="none" xmlns="http://www.w3.org/2000/svg">
<path d="M11.4056 9.20819C11.5978 8.59727 12.4026 8.59727 12.5947 9.20819C12.8733 10.094 13.6826 10.7163 14.6201 10.7163C14.9102 10.7163 15.1267 10.8947 15.2147 11.1745C15.3032 11.456 15.2309 11.7518 14.9796 11.9404C14.2362 12.4983 13.9365 13.4739 14.2139 14.3561C14.3164 14.6818 14.1938 14.9606 13.9788 15.122C13.7674 15.2807 13.5026 15.304 13.26 15.122C12.5105 14.5594 11.4899 14.5594 10.7404 15.122C10.4978 15.304 10.233 15.2807 10.0215 15.122C9.80658 14.9606 9.68398 14.6818 9.78642 14.3561C10.0639 13.4739 9.76415 12.4983 9.0208 11.9404C8.76946 11.7518 8.69713 11.456 8.78568 11.1745C8.87369 10.8947 9.09016 10.7163 9.38022 10.7163C10.3178 10.7163 11.127 10.094 11.4056 9.20819Z" fill="#2D264B"/>
<path fill-rule="evenodd" clip-rule="evenodd" d="M6.77141 4.04167C6.77141 2.49987 8.02129 1.25 9.56308 1.25H14.7291C16.1098 1.25 17.2291 2.36929 17.2291 3.75C17.2291 4.30228 17.6768 4.75 18.2291 4.75H18.8184C20.4033 4.75 21.7972 5.97999 21.7326 7.66561C21.6498 9.82667 21.2301 13.2931 19.5468 16.3608C19.0905 17.1923 18.4811 18.0092 17.8223 18.7703L17.7727 18.8276C16.825 19.9226 16.0349 20.8356 15.1854 21.4579C14.2717 22.1273 13.2965 22.4607 12.0003 22.4607C10.704 22.4607 9.72878 22.1273 8.81509 21.4579C7.96562 20.8356 7.17546 19.9226 6.22779 18.8276L6.1782 18.7703C5.51943 18.0092 4.91004 17.1923 4.45375 16.3608C2.82459 13.3918 2.37794 10.2575 2.27642 8.24648C2.19091 6.55273 3.59483 5.33333 5.17088 5.33333H5.47975C6.19312 5.33333 6.77141 4.75503 6.77141 4.04167ZM14.0256 8.75812C13.3931 6.74729 10.6072 6.74729 9.97476 8.75812C9.88458 9.0448 9.63612 9.21631 9.38022 9.21631C7.27116 9.21631 6.50809 11.93 8.12041 13.1401C8.34259 13.3068 8.44685 13.6157 8.35553 13.906C8.04565 14.8912 8.4431 15.8128 9.12115 16.3217C9.8027 16.8332 10.8039 16.9498 11.6408 16.3217C11.8568 16.1595 12.1436 16.1595 12.3596 16.3217C13.1965 16.9498 14.1977 16.8332 14.8792 16.3217C15.5573 15.8128 15.9547 14.8912 15.6448 13.906C15.5535 13.6157 15.6578 13.3068 15.88 13.1401C17.4923 11.93 16.7292 9.21631 14.6201 9.21631C14.3642 9.21631 14.1158 9.0448 14.0256 8.75812Z" fill="#2D264B"/>
</svg>
