<svg xmlns="http://www.w3.org/2000/svg" width="24" height="24" viewBox="0 0 24 24">
  <defs/>
  <path fill="#2D264B" d="M9,11.25 C8.586,11.25 8.25,11.586 8.25,12 C8.25,12.414 8.586,12.75 9,12.75 L9,11.25 Z M15,12.75 C15.414,12.75 15.75,12.414 15.75,12 C15.75,11.586 15.414,11.25 15,11.25 L15,12.75 Z M11.25,15 C11.25,15.414 11.586,15.75 12,15.75 C12.414,15.75 12.75,15.414 12.75,15 L11.25,15 Z M12.75,9 C12.75,8.586 12.414,8.25 12,8.25 C11.586,8.25 11.25,8.586 11.25,9 L12.75,9 Z M20.234,7.608 C20.154,9.673 19.752,12.869 18.232,15.639 L19.547,16.361 C21.23,13.293 21.65,9.827 21.733,7.666 L20.234,7.608 Z M18.232,15.639 C17.843,16.348 17.304,17.077 16.688,17.789 L17.822,18.77 C18.481,18.009 19.09,17.192 19.547,16.361 L18.232,15.639 Z M7.312,17.789 C6.696,17.077 6.158,16.348 5.769,15.639 L4.454,16.361 C4.91,17.192 5.519,18.009 6.178,18.77 L7.312,17.789 Z M5.769,15.639 C4.29,12.945 3.87,10.062 3.774,8.171 L2.276,8.246 C2.378,10.258 2.824,13.392 4.454,16.361 L5.769,15.639 Z M5.171,6.833 L5.48,6.833 L5.48,5.333 L5.171,5.333 L5.171,6.833 Z M18.229,6.25 L18.818,6.25 L18.818,4.75 L18.229,4.75 L18.229,6.25 Z M15.729,3.75 C15.729,5.131 16.848,6.25 18.229,6.25 L18.229,4.75 C17.677,4.75 17.229,4.302 17.229,3.75 L15.729,3.75 Z M5.48,6.833 C7.021,6.833 8.271,5.583 8.271,4.042 L6.771,4.042 C6.771,4.755 6.193,5.333 5.48,5.333 L5.48,6.833 Z M9.563,1.25 C8.021,1.25 6.771,2.5 6.771,4.042 L8.271,4.042 C8.271,3.328 8.85,2.75 9.563,2.75 L9.563,1.25 Z M3.774,8.171 C3.738,7.451 4.331,6.833 5.171,6.833 L5.171,5.333 C3.595,5.333 2.191,6.553 2.276,8.246 L3.774,8.171 Z M16.688,17.789 C15.678,18.956 14.996,19.737 14.299,20.248 C13.651,20.722 12.989,20.961 12,20.961 L12,22.461 C13.296,22.461 14.272,22.127 15.185,21.458 C16.05,20.825 16.852,19.891 17.822,18.77 L16.688,17.789 Z M6.178,18.77 C7.148,19.891 7.951,20.825 8.815,21.458 C9.729,22.127 10.704,22.461 12,22.461 L12,20.961 C11.011,20.961 10.349,20.722 9.701,20.248 C9.004,19.737 8.322,18.956 7.312,17.789 L6.178,18.77 Z M14.729,2.75 C15.281,2.75 15.729,3.198 15.729,3.75 L17.229,3.75 C17.229,2.369 16.11,1.25 14.729,1.25 L14.729,2.75 Z M21.733,7.666 C21.797,5.98 20.403,4.75 18.818,4.75 L18.818,6.25 C19.656,6.25 20.262,6.873 20.234,7.608 L21.733,7.666 Z M9,12.75 L15,12.75 L15,11.25 L9,11.25 L9,12.75 Z M9.563,2.75 L14.729,2.75 L14.729,1.25 L9.563,1.25 L9.563,2.75 Z M12.75,15 L12.75,12 L11.25,12 L11.25,15 L12.75,15 Z M12.75,12 L12.75,9 L11.25,9 L11.25,12 L12.75,12 Z"/>
</svg>

