<svg xmlns="http://www.w3.org/2000/svg" width="24" height="24" viewBox="0 0 24 24">
  <defs/>
  <path fill="#2D264B" d="M6.771,4.042 C6.771,2.5 8.021,1.25 9.563,1.25 L14.729,1.25 C16.11,1.25 17.229,2.369 17.229,3.75 C17.229,4.302 17.677,4.75 18.229,4.75 L18.818,4.75 C20.403,4.75 21.797,5.98 21.733,7.666 C21.65,9.827 21.23,13.293 19.547,16.361 C19.09,17.192 18.481,18.009 17.822,18.77 L17.773,18.828 C16.825,19.923 16.035,20.836 15.185,21.458 C14.272,22.127 13.297,22.461 12,22.461 C10.704,22.461 9.729,22.127 8.815,21.458 C7.966,20.836 7.175,19.923 6.228,18.828 L6.178,18.77 C5.519,18.009 4.91,17.192 4.454,16.361 C2.825,13.392 2.378,10.257 2.276,8.246 C2.191,6.553 3.595,5.333 5.171,5.333 L5.48,5.333 C6.193,5.333 6.771,4.755 6.771,4.042 Z M14.895,10.652 C15.187,10.359 15.187,9.884 14.895,9.591 C14.602,9.298 14.127,9.298 13.834,9.591 L12.243,11.182 L10.652,9.591 C10.359,9.298 9.884,9.298 9.591,9.591 C9.298,9.884 9.298,10.359 9.591,10.652 L11.182,12.243 L9.591,13.834 C9.298,14.127 9.298,14.601 9.591,14.894 C9.884,15.187 10.359,15.187 10.652,14.894 L12.243,13.303 L13.834,14.894 C14.127,15.187 14.602,15.187 14.895,14.894 C15.187,14.601 15.187,14.127 14.895,13.834 L13.304,12.243 Z"/>
</svg>

