<svg xmlns="http://www.w3.org/2000/svg" width="24" height="24" viewBox="0 0 24 24">
  <defs/>
  <path fill="#2D264B" d="M9.563,1.25 C8.021,1.25 6.771,2.5 6.771,4.042 C6.771,4.755 6.193,5.333 5.48,5.333 L5.171,5.333 C3.595,5.333 2.191,6.553 2.276,8.246 C2.378,10.258 2.825,13.392 4.454,16.361 C4.91,17.192 5.519,18.009 6.178,18.77 L6.228,18.828 C7.175,19.923 7.966,20.836 8.815,21.458 C9.729,22.127 10.704,22.461 12,22.461 C13.296,22.461 14.272,22.127 15.185,21.458 C16.035,20.836 16.825,19.923 17.773,18.828 L17.822,18.77 C18.481,18.009 19.09,17.192 19.547,16.361 C21.23,13.293 21.65,9.827 21.733,7.666 C21.797,5.98 20.403,4.75 18.818,4.75 L18.229,4.75 C17.677,4.75 17.229,4.302 17.229,3.75 C17.229,2.369 16.11,1.25 14.729,1.25 L9.563,1.25 Z"/>
</svg>

