<svg xmlns="http://www.w3.org/2000/svg" width="24" height="24" viewBox="0 0 24 24">
  <defs/>
  <path fill="#2D264B" d="M6.771,4.042 C6.771,2.5 8.021,1.25 9.563,1.25 L14.729,1.25 C16.11,1.25 17.229,2.369 17.229,3.75 C17.229,4.302 17.677,4.75 18.229,4.75 L18.818,4.75 C20.403,4.75 21.797,5.98 21.733,7.666 C21.65,9.827 21.23,13.293 19.547,16.361 C19.09,17.192 18.481,18.009 17.822,18.77 L17.773,18.828 C16.825,19.923 16.035,20.836 15.185,21.458 C14.272,22.127 13.297,22.461 12,22.461 C10.704,22.461 9.729,22.127 8.815,21.458 C7.966,20.836 7.175,19.923 6.228,18.828 L6.178,18.77 C5.519,18.009 4.91,17.192 4.454,16.361 C2.825,13.392 2.378,10.257 2.276,8.246 C2.191,6.553 3.595,5.333 5.171,5.333 L5.48,5.333 C6.193,5.333 6.771,4.755 6.771,4.042 Z M15.584,10.471 C15.844,10.148 15.793,9.676 15.471,9.416 C15.148,9.156 14.676,9.207 14.416,9.529 L12.395,12.038 C11.98,12.553 11.718,12.875 11.5,13.079 C11.397,13.175 11.332,13.217 11.294,13.236 C11.266,13.25 11.256,13.25 11.251,13.25 L11.249,13.25 C11.244,13.25 11.234,13.25 11.206,13.236 C11.168,13.217 11.103,13.175 11.001,13.079 C10.783,12.875 10.521,12.553 10.106,12.038 L9.584,11.391 C9.324,11.068 8.852,11.018 8.53,11.278 C8.207,11.538 8.156,12.01 8.416,12.332 L8.97,13.02 C9.343,13.482 9.671,13.89 9.977,14.175 C10.305,14.482 10.712,14.75 11.25,14.75 C11.788,14.75 12.196,14.482 12.524,14.175 C12.829,13.89 13.158,13.482 13.53,13.02 Z"/>
</svg>

