<svg xmlns="http://www.w3.org/2000/svg" width="24" height="24" viewBox="0 0 24 24">
  <defs/>
  <path fill="#2D264B" d="M10.652,9.591 C10.359,9.298 9.884,9.298 9.591,9.591 C9.298,9.884 9.298,10.359 9.591,10.652 L10.652,9.591 Z M13.834,14.894 C14.127,15.187 14.601,15.187 14.894,14.894 C15.187,14.601 15.187,14.127 14.894,13.834 L13.834,14.894 Z M9.591,13.834 C9.298,14.127 9.298,14.601 9.591,14.894 C9.884,15.187 10.359,15.187 10.652,14.894 L9.591,13.834 Z M14.894,10.652 C15.187,10.359 15.187,9.884 14.894,9.591 C14.601,9.298 14.127,9.298 13.834,9.591 L14.894,10.652 Z M20.234,7.608 C20.154,9.673 19.752,12.869 18.232,15.639 L19.547,16.361 C21.23,13.293 21.65,9.827 21.733,7.666 L20.234,7.608 Z M18.232,15.639 C17.843,16.348 17.304,17.077 16.688,17.789 L17.822,18.77 C18.481,18.009 19.09,17.192 19.547,16.361 L18.232,15.639 Z M7.312,17.789 C6.696,17.077 6.158,16.348 5.769,15.639 L4.454,16.361 C4.91,17.192 5.519,18.009 6.178,18.77 L7.312,17.789 Z M5.769,15.639 C4.29,12.945 3.87,10.062 3.774,8.171 L2.276,8.246 C2.378,10.258 2.824,13.392 4.454,16.361 L5.769,15.639 Z M5.171,6.833 L5.48,6.833 L5.48,5.333 L5.171,5.333 L5.171,6.833 Z M18.229,6.25 L18.818,6.25 L18.818,4.75 L18.229,4.75 L18.229,6.25 Z M15.729,3.75 C15.729,5.131 16.848,6.25 18.229,6.25 L18.229,4.75 C17.677,4.75 17.229,4.302 17.229,3.75 L15.729,3.75 Z M5.48,6.833 C7.021,6.833 8.271,5.583 8.271,4.042 L6.771,4.042 C6.771,4.755 6.193,5.333 5.48,5.333 L5.48,6.833 Z M9.563,1.25 C8.021,1.25 6.771,2.5 6.771,4.042 L8.271,4.042 C8.271,3.328 8.85,2.75 9.563,2.75 L9.563,1.25 Z M3.774,8.171 C3.738,7.451 4.331,6.833 5.171,6.833 L5.171,5.333 C3.595,5.333 2.191,6.553 2.276,8.246 L3.774,8.171 Z M16.688,17.789 C15.678,18.956 14.996,19.737 14.299,20.248 C13.651,20.722 12.989,20.961 12,20.961 L12,22.461 C13.296,22.461 14.272,22.127 15.185,21.458 C16.05,20.825 16.852,19.891 17.822,18.77 L16.688,17.789 Z M6.178,18.77 C7.148,19.891 7.951,20.825 8.815,21.458 C9.729,22.127 10.704,22.461 12,22.461 L12,20.961 C11.011,20.961 10.349,20.722 9.701,20.248 C9.004,19.737 8.322,18.956 7.312,17.789 L6.178,18.77 Z M14.729,2.75 C15.281,2.75 15.729,3.198 15.729,3.75 L17.229,3.75 C17.229,2.369 16.11,1.25 14.729,1.25 L14.729,2.75 Z M21.733,7.666 C21.797,5.98 20.403,4.75 18.818,4.75 L18.818,6.25 C19.656,6.25 20.262,6.873 20.234,7.608 L21.733,7.666 Z M10.652,14.894 L14.894,10.652 L13.834,9.591 L9.591,13.834 L10.652,14.894 Z M9.563,2.75 L14.729,2.75 L14.729,1.25 L9.563,1.25 L9.563,2.75 Z M9.591,10.652 L11.712,12.773 L12.773,11.712 L10.652,9.591 L9.591,10.652 Z M11.712,12.773 L13.834,14.894 L14.894,13.834 L12.773,11.712 L11.712,12.773 Z"/>
</svg>

