<svg xmlns="http://www.w3.org/2000/svg" width="24" height="24" viewBox="0 0 24 24">
  <defs/>
  <path fill="#2D264B" d="M2.611,14.312 C3.48,15.521 4.772,17.11 6.352,18.404 C7.923,19.691 9.859,20.75 12,20.75 L12,19.25 C10.354,19.25 8.749,18.428 7.302,17.244 C5.863,16.066 4.659,14.592 3.83,13.437 L2.611,14.312 Z M12,20.75 C14.141,20.75 16.077,19.691 17.648,18.404 C19.228,17.11 20.52,15.521 21.389,14.312 L20.17,13.437 C19.341,14.592 18.137,16.066 16.698,17.244 C15.251,18.428 13.646,19.25 12,19.25 L12,20.75 Z M21.389,9.688 C20.52,8.479 19.228,6.889 17.648,5.596 C16.077,4.309 14.141,3.25 12,3.25 L12,4.75 C13.646,4.75 15.251,5.571 16.698,6.756 C18.137,7.934 19.341,9.408 20.17,10.563 L21.389,9.688 Z M12,3.25 C9.859,3.25 7.923,4.309 6.352,5.596 C4.772,6.889 3.48,8.479 2.611,9.688 L3.83,10.563 C4.659,9.408 5.863,7.934 7.302,6.756 C8.749,5.571 10.354,4.75 12,4.75 L12,3.25 Z M21.389,14.312 C21.943,13.54 22.413,12.929 22.413,12 L20.913,12 C20.913,12.358 20.794,12.568 20.17,13.437 L21.389,14.312 Z M20.17,10.563 C20.794,11.432 20.913,11.642 20.913,12 L22.413,12 C22.413,11.071 21.943,10.46 21.389,9.688 L20.17,10.563 Z M3.83,13.437 C3.206,12.568 3.087,12.358 3.087,12 L1.587,12 C1.587,12.929 2.057,13.54 2.611,14.312 L3.83,13.437 Z M2.611,9.688 C2.057,10.46 1.587,11.071 1.587,12 L3.087,12 C3.087,11.642 3.206,11.432 3.83,10.563 L2.611,9.688 Z M8.25,12 C8.25,14.071 9.929,15.75 12,15.75 L12,14.25 C10.757,14.25 9.75,13.243 9.75,12 L8.25,12 Z M12,15.75 C14.071,15.75 15.75,14.071 15.75,12 L14.25,12 C14.25,13.243 13.243,14.25 12,14.25 L12,15.75 Z M15.75,12 C15.75,9.929 14.071,8.25 12,8.25 L12,9.75 C13.243,9.75 14.25,10.757 14.25,12 L15.75,12 Z M12,8.25 C9.929,8.25 8.25,9.929 8.25,12 L9.75,12 C9.75,10.757 10.757,9.75 12,9.75 L12,8.25 Z"/>
</svg>

