<svg xmlns="http://www.w3.org/2000/svg" width="24" height="24" viewBox="0 0 24 24">
  <defs/>
  <path fill="#2D264B" d="M9.75,12 C9.75,10.757 10.757,9.75 12,9.75 C13.243,9.75 14.25,10.757 14.25,12 C14.25,13.243 13.243,14.25 12,14.25 C10.757,14.25 9.75,13.243 9.75,12 Z"/>
  <path fill="#2D264B" d="M6.352,5.596 C7.923,4.309 9.859,3.25 12,3.25 C14.141,3.25 16.077,4.309 17.648,5.596 C19.228,6.889 20.52,8.479 21.389,9.688 L21.46,9.788 C21.983,10.514 22.413,11.112 22.413,12 C22.413,12.888 21.983,13.486 21.46,14.212 L21.389,14.312 C20.52,15.521 19.228,17.111 17.648,18.404 C16.077,19.691 14.141,20.75 12,20.75 C9.859,20.75 7.923,19.691 6.352,18.404 C4.772,17.111 3.48,15.521 2.611,14.312 L2.54,14.212 C2.017,13.486 1.587,12.888 1.587,12 C1.587,11.112 2.017,10.514 2.54,9.788 L2.611,9.688 C3.48,8.479 4.772,6.889 6.352,5.596 Z M12,8.25 C9.929,8.25 8.25,9.929 8.25,12 C8.25,14.071 9.929,15.75 12,15.75 C14.071,15.75 15.75,14.071 15.75,12 C15.75,9.929 14.071,8.25 12,8.25 Z"/>
</svg>

