<svg width="24" height="24" viewBox="0 0 24 24" fill="none" xmlns="http://www.w3.org/2000/svg">
<path d="M18.7803 3.46967C18.4874 3.17678 18.0126 3.17678 17.7197 3.46967C17.4268 3.76256 17.4268 4.23744 17.7197 4.53033L18.444 5.25467C16.6098 5.32853 14.9151 6.27533 13.8916 7.81047L12 10.6479L10.1084 7.81047C9.04194 6.21083 7.24661 5.25 5.32408 5.25H5C4.58579 5.25 4.25 5.58579 4.25 6C4.25 6.41421 4.58579 6.75 5 6.75H5.32408C6.74508 6.75 8.07206 7.46018 8.86029 8.64252L11.0986 12L8.8603 15.3575C8.07207 16.5398 6.74508 17.25 5.32408 17.25H5C4.58579 17.25 4.25 17.5858 4.25 18C4.25 18.4142 4.58579 18.75 5 18.75H5.32408C7.24661 18.75 9.04194 17.7892 10.1084 16.1895L12 13.3521L13.8916 16.1895C14.8699 17.6569 16.4614 18.5867 18.2019 18.7305L17.5199 19.2988C17.2017 19.564 17.1587 20.0369 17.4238 20.3551C17.689 20.6733 18.1619 20.7163 18.4801 20.4512L19.8889 19.2772C20.2732 18.957 20.4839 18.5078 20.5146 18.0503C20.5471 17.5677 20.3796 17.0689 20.006 16.6954L18.7803 15.4697C18.4874 15.1768 18.0126 15.1768 17.7197 15.4697C17.4268 15.7626 17.4268 16.2374 17.7197 16.5303L18.4324 17.243C17.1044 17.167 15.8827 16.472 15.1397 15.3575L12.9014 12L15.1397 8.64252C15.8273 7.61106 16.925 6.93895 18.1374 6.7842L17.5199 7.29883C17.2017 7.56401 17.1587 8.03693 17.4238 8.35514C17.689 8.67335 18.1619 8.71634 18.4801 8.45117L19.8889 7.27719C20.2732 6.95697 20.4839 6.5078 20.5146 6.05027C20.5471 5.5677 20.3796 5.06894 20.006 4.69537L18.7803 3.46967Z" fill="#2D264B"/>
</svg>
