<svg xmlns="http://www.w3.org/2000/svg" width="24" height="24" viewBox="0 0 24 24">
  <defs/>
  <path fill="#2D264B" d="M18.78,3.47 C18.487,3.177 18.013,3.177 17.72,3.47 C17.427,3.763 17.427,4.237 17.72,4.53 L18.444,5.255 C16.61,5.329 14.915,6.275 13.892,7.81 L8.86,15.357 C8.072,16.54 6.745,17.25 5.324,17.25 L5,17.25 C4.586,17.25 4.25,17.586 4.25,18 C4.25,18.414 4.586,18.75 5,18.75 L5.324,18.75 C7.247,18.75 9.042,17.789 10.108,16.189 L15.14,8.643 C15.827,7.611 16.925,6.939 18.137,6.784 L17.52,7.299 C17.202,7.564 17.159,8.037 17.424,8.355 C17.689,8.673 18.162,8.716 18.48,8.451 L19.889,7.277 C20.273,6.957 20.484,6.508 20.515,6.05 C20.547,5.568 20.38,5.069 20.006,4.695 L18.78,3.47 Z"/>
  <path fill="#2D264B" d="M5,5.25 C4.586,5.25 4.25,5.586 4.25,6 C4.25,6.414 4.586,6.75 5,6.75 L5.324,6.75 C6.745,6.75 8.072,7.46 8.86,8.643 C9.09,8.987 9.556,9.08 9.9,8.851 C10.245,8.621 10.338,8.155 10.108,7.81 C9.042,6.211 7.247,5.25 5.324,5.25 L5,5.25 Z"/>
  <path fill="#2D264B" d="M15.14,15.357 C14.91,15.013 14.444,14.92 14.1,15.149 C13.755,15.379 13.662,15.845 13.892,16.189 C14.87,17.657 16.461,18.587 18.202,18.73 L17.52,19.299 C17.202,19.564 17.159,20.037 17.424,20.355 C17.689,20.673 18.162,20.716 18.48,20.451 L19.889,19.277 C20.273,18.957 20.484,18.508 20.515,18.05 C20.547,17.568 20.38,17.069 20.006,16.695 L18.78,15.47 C18.487,15.177 18.013,15.177 17.72,15.47 C17.427,15.763 17.427,16.237 17.72,16.53 L18.432,17.243 C17.104,17.167 15.883,16.472 15.14,15.357 Z"/>
</svg>

