<svg xmlns="http://www.w3.org/2000/svg" width="24" height="24" viewBox="0 0 24 24">
  <defs/>
  <path fill="#2D264B" d="M5,17.25 L5.324,17.25 Q7.599,17.25 8.86,15.357 L11.099,12 L8.86,8.643 Q7.599,6.75 5.324,6.75 L5,6.75 Q4.689,6.75 4.47,6.53 Q4.25,6.311 4.25,6 Q4.25,5.689 4.47,5.47 Q4.689,5.25 5,5.25 L5.324,5.25 Q8.401,5.25 10.108,7.81 L12,10.648 L13.892,7.81 Q15.533,5.348 18.443,5.254 L17.72,4.53 Q17.5,4.311 17.5,4 Q17.5,3.689 17.72,3.47 Q17.939,3.25 18.25,3.25 Q18.561,3.25 18.78,3.47 L20.006,4.695 Q20.562,5.252 20.516,6.035 Q20.515,6.061 20.512,6.087 Q20.45,6.809 19.889,7.277 L18.48,8.451 Q18.241,8.65 17.932,8.622 Q17.623,8.594 17.424,8.355 Q17.225,8.116 17.253,7.807 Q17.281,7.498 17.52,7.299 L18.146,6.777 Q16.25,6.977 15.14,8.643 L12.901,12 L15.14,15.357 Q16.333,17.148 18.434,17.245 L17.72,16.53 Q17.5,16.311 17.5,16 Q17.5,15.689 17.72,15.47 Q17.939,15.25 18.25,15.25 Q18.561,15.25 18.78,15.47 L20.006,16.695 Q20.562,17.252 20.516,18.035 Q20.515,18.061 20.512,18.087 Q20.45,18.809 19.889,19.277 L18.48,20.451 Q18.241,20.65 17.932,20.622 Q17.623,20.594 17.424,20.355 Q17.225,20.116 17.253,19.807 Q17.281,19.498 17.52,19.299 L18.198,18.734 Q15.464,18.547 13.892,16.19 L12,13.352 L10.108,16.19 Q8.401,18.75 5.324,18.75 L5,18.75 Q4.689,18.75 4.47,18.53 Q4.25,18.311 4.25,18 Q4.25,17.689 4.47,17.47 Q4.689,17.25 5,17.25 Z"/>
</svg>

