<svg xmlns="http://www.w3.org/2000/svg" width="24" height="24" viewBox="0 0 24 24">
  <defs/>
  <path fill="#2D264B" d="M11,12 C11,11.448 11.448,11 12,11 C12.552,11 13,11.448 13,12 C13,12.552 12.552,13 12,13 C11.448,13 11,12.552 11,12 Z"/>
  <path clip-rule="evenodd" fill="#2D264B" d="M12,0.25 C12.414,0.25 12.75,0.586 12.75,1 L12.75,4.25 C14.116,4.254 15.014,4.283 15.777,4.531 C17.527,5.1 18.9,6.473 19.469,8.223 C19.716,8.986 19.746,9.884 19.75,11.25 L23,11.25 C23.414,11.25 23.75,11.586 23.75,12 C23.75,12.414 23.414,12.75 23,12.75 L19.75,12.75 C19.746,14.116 19.716,15.014 19.469,15.777 C18.9,17.527 17.527,18.9 15.777,19.469 C15.014,19.716 14.116,19.746 12.75,19.75 L12.75,23 C12.75,23.414 12.414,23.75 12,23.75 C11.586,23.75 11.25,23.414 11.25,23 L11.25,19.75 C9.884,19.746 8.986,19.716 8.223,19.469 C6.473,18.9 5.1,17.527 4.531,15.777 C4.283,15.014 4.254,14.116 4.25,12.75 L1,12.75 C0.586,12.75 0.25,12.414 0.25,12 C0.25,11.586 0.586,11.25 1,11.25 L4.25,11.25 C4.254,9.884 4.283,8.986 4.531,8.223 C5.1,6.473 6.473,5.1 8.223,4.531 C8.986,4.283 9.884,4.254 11.25,4.25 L11.25,1 C11.25,0.586 11.586,0.25 12,0.25 Z M9.5,12 C9.5,13.381 10.619,14.5 12,14.5 C13.381,14.5 14.5,13.381 14.5,12 C14.5,10.619 13.381,9.5 12,9.5 C10.619,9.5 9.5,10.619 9.5,12 Z"/>
</svg>

