<svg width="24" height="24" viewBox="0 0 24 24" fill="none" xmlns="http://www.w3.org/2000/svg">
<g clip-path="url(#clip0_113_22688)">
<path d="M11 12C11 12.5523 11.4477 13 12 13C12.5523 13 13 12.5523 13 12C13 11.4477 12.5523 11 12 11C11.4477 11 11 11.4477 11 12Z" fill="#2D264B"/>
<path fill-rule="evenodd" clip-rule="evenodd" d="M12 0.25C12.4142 0.25 12.75 0.585786 12.75 1V4.25038C14.1163 4.25376 15.0138 4.28348 15.7768 4.53143C17.5274 5.1002 18.8998 6.47263 19.4686 8.22315C19.7165 8.98624 19.7462 9.88371 19.7496 11.25H23C23.4142 11.25 23.75 11.5858 23.75 12C23.75 12.4142 23.4142 12.75 23 12.75H19.7496C19.7462 14.1163 19.7165 15.0138 19.4686 15.7768C18.8998 17.5274 17.5274 18.8998 15.7768 19.4686C15.0138 19.7165 14.1163 19.7462 12.75 19.7496V23C12.75 23.4142 12.4142 23.75 12 23.75C11.5858 23.75 11.25 23.4142 11.25 23V19.7496C9.88371 19.7462 8.98624 19.7165 8.22315 19.4686C6.47263 18.8998 5.1002 17.5274 4.53143 15.7768C4.28348 15.0138 4.25376 14.1163 4.25038 12.75H1C0.585786 12.75 0.25 12.4142 0.25 12C0.25 11.5858 0.585786 11.25 1 11.25H4.25038C4.25376 9.88371 4.28348 8.98624 4.53143 8.22315C5.1002 6.47263 6.47263 5.1002 8.22315 4.53143C8.98624 4.28348 9.88371 4.25376 11.25 4.25038V1C11.25 0.585786 11.5858 0.25 12 0.25ZM9.5 12C9.5 13.3807 10.6193 14.5 12 14.5C13.3807 14.5 14.5 13.3807 14.5 12C14.5 10.6193 13.3807 9.5 12 9.5C10.6193 9.5 9.5 10.6193 9.5 12Z" fill="#2D264B"/>
</g>
<defs>
<clipPath id="clip0_113_22688">
<rect width="24" height="24" fill="white"/>
</clipPath>
</defs>
</svg>
