<svg width="24" height="24" viewBox="0 0 24 24" fill="none" xmlns="http://www.w3.org/2000/svg">
<g clip-path="url(#clip0_113_22692)">
<path d="M12 0.25C12.4142 0.25 12.75 0.585786 12.75 1V5.00074C12.5179 5 12.2686 5 12 5C11.7314 5 11.4821 5 11.25 5.00074V1C11.25 0.585786 11.5858 0.25 12 0.25Z" fill="#2D264B"/>
<path d="M11 12C11 12.5523 11.4477 13 12 13C12.5523 13 13 12.5523 13 12C13 11.4477 12.5523 11 12 11C11.4477 11 11 11.4477 11 12Z" fill="#2D264B"/>
<path fill-rule="evenodd" clip-rule="evenodd" d="M5.00074 11.25C5.0051 9.87379 5.03532 9.09938 5.24472 8.45492C5.73931 6.93272 6.93272 5.73931 8.45492 5.24472C9.09938 5.03532 9.87379 5.0051 11.25 5.00074V6C11.25 6.41421 11.5858 6.75 12 6.75C12.4142 6.75 12.75 6.41421 12.75 6V5.00074C14.1262 5.0051 14.9006 5.03532 15.5451 5.24472C17.0673 5.73931 18.2607 6.93272 18.7553 8.45492C18.9647 9.09938 18.9949 9.87379 18.9993 11.25H18C17.5858 11.25 17.25 11.5858 17.25 12C17.25 12.4142 17.5858 12.75 18 12.75H18.9993C18.9949 14.1262 18.9647 14.9006 18.7553 15.5451C18.2607 17.0673 17.0673 18.2607 15.5451 18.7553C14.9006 18.9647 14.1262 18.9949 12.75 18.9993V18C12.75 17.5858 12.4142 17.25 12 17.25C11.5858 17.25 11.25 17.5858 11.25 18V18.9993C9.87379 18.9949 9.09938 18.9647 8.45492 18.7553C6.93272 18.2607 5.73931 17.0673 5.24472 15.5451C5.03532 14.9006 5.0051 14.1262 5.00074 12.75H6C6.41421 12.75 6.75 12.4142 6.75 12C6.75 11.5858 6.41421 11.25 6 11.25H5.00074ZM9.5 12C9.5 13.3807 10.6193 14.5 12 14.5C13.3807 14.5 14.5 13.3807 14.5 12C14.5 10.6193 13.3807 9.5 12 9.5C10.6193 9.5 9.5 10.6193 9.5 12Z" fill="#2D264B"/>
<path d="M5.00074 11.25H1C0.585786 11.25 0.25 11.5858 0.25 12C0.25 12.4142 0.585786 12.75 1 12.75H5.00074C5 12.5179 5 12.2686 5 12C5 11.7314 5 11.4821 5.00074 11.25Z" fill="#2D264B"/>
<path d="M11.25 18.9993V23C11.25 23.4142 11.5858 23.75 12 23.75C12.4142 23.75 12.75 23.4142 12.75 23V18.9993C12.5179 19 12.2686 19 12 19C11.7314 19 11.4821 19 11.25 18.9993Z" fill="#2D264B"/>
<path d="M18.9993 12.75H23C23.4142 12.75 23.75 12.4142 23.75 12C23.75 11.5858 23.4142 11.25 23 11.25H18.9993C19 11.4821 19 11.7314 19 12C19 12.2686 19 12.5179 18.9993 12.75Z" fill="#2D264B"/>
</g>
<defs>
<clipPath id="clip0_113_22692">
<rect width="24" height="24" fill="white"/>
</clipPath>
</defs>
</svg>
