<svg xmlns="http://www.w3.org/2000/svg" width="24" height="24" viewBox="0 0 24 24">
  <defs/>
  <path fill="#2D264B" d="M12,0.25 C12.414,0.25 12.75,0.586 12.75,1 L12.75,5.001 C12.518,5 12.269,5 12,5 C11.731,5 11.482,5 11.25,5.001 L11.25,1 C11.25,0.586 11.586,0.25 12,0.25 Z"/>
  <path fill="#2D264B" d="M11,12 C11,11.448 11.448,11 12,11 C12.552,11 13,11.448 13,12 C13,12.552 12.552,13 12,13 C11.448,13 11,12.552 11,12 Z"/>
  <path clip-rule="evenodd" fill="#2D264B" d="M5.001,11.25 C5.005,9.874 5.035,9.099 5.245,8.455 C5.739,6.933 6.933,5.739 8.455,5.245 C9.099,5.035 9.874,5.005 11.25,5.001 L11.25,6 C11.25,6.414 11.586,6.75 12,6.75 C12.414,6.75 12.75,6.414 12.75,6 L12.75,5.001 C14.126,5.005 14.901,5.035 15.545,5.245 C17.067,5.739 18.261,6.933 18.755,8.455 C18.965,9.099 18.995,9.874 18.999,11.25 L18,11.25 C17.586,11.25 17.25,11.586 17.25,12 C17.25,12.414 17.586,12.75 18,12.75 L18.999,12.75 C18.995,14.126 18.965,14.901 18.755,15.545 C18.261,17.067 17.067,18.261 15.545,18.755 C14.901,18.965 14.126,18.995 12.75,18.999 L12.75,18 C12.75,17.586 12.414,17.25 12,17.25 C11.586,17.25 11.25,17.586 11.25,18 L11.25,18.999 C9.874,18.995 9.099,18.965 8.455,18.755 C6.933,18.261 5.739,17.067 5.245,15.545 C5.035,14.901 5.005,14.126 5.001,12.75 L6,12.75 C6.414,12.75 6.75,12.414 6.75,12 C6.75,11.586 6.414,11.25 6,11.25 Z M9.5,12 C9.5,13.381 10.619,14.5 12,14.5 C13.381,14.5 14.5,13.381 14.5,12 C14.5,10.619 13.381,9.5 12,9.5 C10.619,9.5 9.5,10.619 9.5,12 Z"/>
  <path fill="#2D264B" d="M5.001,11.25 C5,11.482 5,11.731 5,12 C5,12.269 5,12.518 5.001,12.75 L1,12.75 C0.586,12.75 0.25,12.414 0.25,12 C0.25,11.586 0.586,11.25 1,11.25 Z"/>
  <path fill="#2D264B" d="M11.25,18.999 C11.482,19 11.731,19 12,19 C12.269,19 12.518,19 12.75,18.999 L12.75,23 C12.75,23.414 12.414,23.75 12,23.75 C11.586,23.75 11.25,23.414 11.25,23 Z"/>
  <path fill="#2D264B" d="M18.999,12.75 C19,12.518 19,12.269 19,12 C19,11.731 19,11.482 18.999,11.25 L23,11.25 C23.414,11.25 23.75,11.586 23.75,12 C23.75,12.414 23.414,12.75 23,12.75 Z"/>
</svg>

