<svg width="24" height="24" viewBox="0 0 24 24" fill="none" xmlns="http://www.w3.org/2000/svg">
<path d="M2 14.25C1.58579 14.25 1.25 14.5858 1.25 15C1.25 15.4142 1.58579 15.75 2 15.75H5C5.41421 15.75 5.75 15.4142 5.75 15C5.75 14.5858 5.41421 14.25 5 14.25H2Z" fill="#2D264B"/>
<path d="M2 17.25C1.58579 17.25 1.25 17.5858 1.25 18C1.25 18.4142 1.58579 18.75 2 18.75H8C8.41421 18.75 8.75 18.4142 8.75 18C8.75 17.5858 8.41421 17.25 8 17.25H2Z" fill="#2D264B"/>
<path d="M5.52006 7.20646L4.5747 6.2611C5.09026 5.47367 5.81789 4.84739 6.6742 4.45483C7.66636 4 8.90089 4 11.3699 4H12.9941C15.4632 4 16.6977 4 17.6899 4.45483C18.4932 4.82309 19.1833 5.39704 19.6912 6.11676L18.6015 7.20646C16.9199 8.88812 15.7109 10.0949 14.668 10.8905C13.6425 11.673 12.8664 11.9868 12.0608 11.9868C11.2552 11.9868 10.4791 11.673 9.45355 10.8905C8.41074 10.0949 7.20172 8.88812 5.52006 7.20646Z" fill="#2D264B"/>
<path d="M3.44601 10.8995C3.63702 9.52416 3.77432 8.53557 3.96231 7.77004L4.49998 8.30771C6.13225 9.93999 7.41142 11.2192 8.54368 12.0831C9.70261 12.9673 10.7953 13.4868 12.0608 13.4868C13.3263 13.4868 14.419 12.9673 15.5779 12.0831C16.7102 11.2192 17.9893 9.93999 19.6216 8.30771L20.352 7.57727C20.5665 8.36829 20.7106 9.40583 20.9181 10.8995C21.3542 14.0399 21.5723 15.6101 21.0928 16.8297C20.6718 17.9003 19.8945 18.793 18.892 19.3573C17.75 20 16.1647 20 12.9941 20H11.3699C10.1636 20 9.18681 20 8.37657 19.9646C9.30112 19.7885 10 18.9758 10 18C10 16.8954 9.10457 16 8 16H6.73244C6.90261 15.7058 7 15.3643 7 15C7 13.8954 6.10457 13 5 13H3.16475C3.2394 12.387 3.33573 11.6934 3.44601 10.8995Z" fill="#2D264B"/>
</svg>
