<svg xmlns="http://www.w3.org/2000/svg" width="24" height="24" viewBox="0 0 24 24">
  <defs/>
  <path fill="#2D264B" d="M11,20.25 C10.586,20.25 10.25,20.586 10.25,21 C10.25,21.414 10.586,21.75 11,21.75 L11,20.25 Z M1.25,12 C1.25,12.414 1.586,12.75 2,12.75 C2.414,12.75 2.75,12.414 2.75,12 L1.25,12 Z M1,18.25 C0.586,18.25 0.25,18.586 0.25,19 C0.25,19.414 0.586,19.75 1,19.75 L1,18.25 Z M7,19.75 C7.414,19.75 7.75,19.414 7.75,19 C7.75,18.586 7.414,18.25 7,18.25 L7,19.75 Z M1,15.25 C0.586,15.25 0.25,15.586 0.25,16 C0.25,16.414 0.586,16.75 1,16.75 L1,15.25 Z M4,16.75 C4.414,16.75 4.75,16.414 4.75,16 C4.75,15.586 4.414,15.25 4,15.25 L4,16.75 Z M5.459,7.399 L3.652,5.591 L2.591,6.652 L4.399,8.459 L5.459,7.399 Z M20.348,5.591 L18.541,7.399 L19.601,8.459 L21.409,6.652 L20.348,5.591 Z M4.399,8.459 C6.05,10.111 7.341,11.404 8.483,12.275 C9.642,13.159 10.735,13.679 12,13.679 L12,12.179 C11.194,12.179 10.418,11.865 9.393,11.083 C8.35,10.287 7.141,9.08 5.459,7.399 L4.399,8.459 Z M18.541,7.399 C16.859,9.08 15.65,10.287 14.607,11.083 C13.582,11.865 12.806,12.179 12,12.179 L12,13.679 C13.265,13.679 14.358,13.159 15.517,12.275 C16.659,11.404 17.95,10.111 19.601,8.459 L18.541,7.399 Z M5.459,7.399 L3.53,5.47 L2.47,6.53 L4.399,8.459 L5.459,7.399 Z M20.47,5.47 L18.541,7.399 L19.601,8.459 L21.53,6.53 L20.47,5.47 Z M11,3.75 L13,3.75 L13,2.25 L11,2.25 L11,3.75 Z M13,20.25 L11,20.25 L11,21.75 L13,21.75 L13,20.25 Z M21.25,12 C21.25,13.892 21.249,15.25 21.135,16.302 C21.023,17.34 20.807,17.99 20.438,18.498 L21.652,19.38 C22.238,18.573 22.5,17.629 22.626,16.463 C22.751,15.312 22.75,13.858 22.75,12 L21.25,12 Z M13,21.75 C14.858,21.75 16.312,21.751 17.463,21.626 C18.629,21.5 19.573,21.238 20.38,20.652 L19.498,19.438 C18.99,19.807 18.34,20.023 17.302,20.135 C16.25,20.249 14.892,20.25 13,20.25 L13,21.75 Z M20.438,18.498 C20.176,18.859 19.859,19.176 19.498,19.438 L20.38,20.652 C20.868,20.297 21.297,19.868 21.652,19.38 L20.438,18.498 Z M13,3.75 C14.892,3.75 16.25,3.751 17.302,3.865 C18.34,3.977 18.99,4.193 19.498,4.562 L20.38,3.348 C19.573,2.762 18.629,2.5 17.463,2.374 C16.312,2.249 14.858,2.25 13,2.25 L13,3.75 Z M19.498,4.562 C19.859,4.824 20.176,5.141 20.438,5.502 L21.652,4.62 C21.297,4.132 20.868,3.703 20.38,3.348 L19.498,4.562 Z M11,2.25 C9.142,2.25 7.688,2.249 6.536,2.374 C5.371,2.5 4.427,2.762 3.62,3.348 L4.502,4.562 C5.01,4.193 5.66,3.977 6.698,3.865 C7.75,3.751 9.108,3.75 11,3.75 L11,2.25 Z M3.62,3.348 C3.132,3.703 2.703,4.132 2.348,4.62 L3.562,5.502 C3.824,5.141 4.141,4.824 4.502,4.562 L3.62,3.348 Z M1,19.75 L7,19.75 L7,18.25 L1,18.25 L1,19.75 Z M1,16.75 L4,16.75 L4,15.25 L1,15.25 L1,16.75 Z M2.75,12 C2.75,10.365 2.75,9.125 2.825,8.132 C2.9,7.141 3.046,6.467 3.297,5.947 L1.945,5.295 C1.575,6.064 1.41,6.955 1.33,8.019 C1.25,9.081 1.25,10.386 1.25,12 L2.75,12 Z M3.297,5.947 C3.373,5.787 3.461,5.64 3.562,5.502 L2.348,4.62 C2.194,4.833 2.06,5.057 1.945,5.295 L3.297,5.947 Z M3.53,5.47 L3.151,5.091 L2.091,6.151 L2.47,6.53 L3.53,5.47 Z M22.75,12 C22.75,10.386 22.75,9.081 22.67,8.019 C22.59,6.955 22.425,6.064 22.055,5.295 L20.703,5.947 C20.954,6.467 21.1,7.141 21.174,8.132 C21.25,9.125 21.25,10.365 21.25,12 L22.75,12 Z M22.055,5.295 C21.94,5.057 21.806,4.833 21.652,4.62 L20.438,5.502 C20.539,5.64 20.627,5.787 20.703,5.947 L22.055,5.295 Z M21.53,6.53 L21.909,6.151 L20.849,5.091 L20.47,5.47 L21.53,6.53 Z"/>
</svg>

