<svg xmlns="http://www.w3.org/2000/svg" width="24" height="24" viewBox="0 0 24 24">
  <defs/>
  <path fill="#2D264B" d="M2,14.25 C1.586,14.25 1.25,14.586 1.25,15 C1.25,15.414 1.586,15.75 2,15.75 L5,15.75 C5.414,15.75 5.75,15.414 5.75,15 C5.75,14.586 5.414,14.25 5,14.25 L2,14.25 Z"/>
  <path fill="#2D264B" d="M2,17.25 C1.586,17.25 1.25,17.586 1.25,18 C1.25,18.414 1.586,18.75 2,18.75 L8,18.75 C8.414,18.75 8.75,18.414 8.75,18 C8.75,17.586 8.414,17.25 8,17.25 L2,17.25 Z"/>
  <path fill="#2D264B" d="M5.52,7.206 L4.575,6.261 C5.09,5.474 5.818,4.847 6.674,4.455 C7.666,4 8.901,4 11.37,4 L12.994,4 C15.463,4 16.698,4 17.69,4.455 C18.493,4.823 19.183,5.397 19.691,6.117 L18.602,7.206 C16.92,8.888 15.711,10.095 14.668,10.89 C13.643,11.673 12.866,11.987 12.061,11.987 C11.255,11.987 10.479,11.673 9.454,10.89 C8.411,10.095 7.202,8.888 5.52,7.206 Z"/>
  <path fill="#2D264B" d="M3.446,10.899 C3.637,9.524 3.774,8.536 3.962,7.77 L4.5,8.308 C6.132,9.94 7.411,11.219 8.544,12.083 C9.703,12.967 10.795,13.487 12.061,13.487 C13.326,13.487 14.419,12.967 15.578,12.083 C16.71,11.219 17.989,9.94 19.622,8.308 L20.352,7.577 C20.567,8.368 20.711,9.406 20.918,10.899 C21.354,14.04 21.572,15.61 21.093,16.83 C20.672,17.9 19.895,18.793 18.892,19.357 C17.75,20 16.165,20 12.994,20 L11.37,20 C10.164,20 9.187,20 8.377,19.965 C9.301,19.788 10,18.976 10,18 C10,16.895 9.105,16 8,16 L6.732,16 C6.903,15.706 7,15.364 7,15 C7,13.895 6.105,13 5,13 L3.165,13 C3.239,12.387 3.336,11.693 3.446,10.899 Z"/>
</svg>

