<svg xmlns="http://www.w3.org/2000/svg" width="24" height="24" viewBox="0 0 24 24">
  <defs/>
  <path fill="#2D264B" d="M11.37,19.25 C10.956,19.25 10.62,19.586 10.62,20 C10.62,20.414 10.956,20.75 11.37,20.75 L11.37,19.25 Z M2.703,10.796 C2.646,11.207 2.933,11.585 3.343,11.642 C3.753,11.699 4.132,11.413 4.189,11.003 L2.703,10.796 Z M4.99,7.737 L5.52,7.206 L5.511,7.197 L5.501,7.188 L4.99,7.737 Z M2,17.25 C1.586,17.25 1.25,17.586 1.25,18 C1.25,18.414 1.586,18.75 2,18.75 L2,17.25 Z M8,18.75 C8.414,18.75 8.75,18.414 8.75,18 C8.75,17.586 8.414,17.25 8,17.25 L8,18.75 Z M2,14.25 C1.586,14.25 1.25,14.586 1.25,15 C1.25,15.414 1.586,15.75 2,15.75 L2,14.25 Z M5,15.75 C5.414,15.75 5.75,15.414 5.75,15 C5.75,14.586 5.414,14.25 5,14.25 L5,15.75 Z M11.37,4.75 L12.994,4.75 L12.994,3.25 L11.37,3.25 L11.37,4.75 Z M12.994,19.25 L11.37,19.25 L11.37,20.75 L12.994,20.75 L12.994,19.25 Z M20.175,11.003 C20.395,12.586 20.553,13.726 20.6,14.624 C20.647,15.515 20.578,16.089 20.395,16.555 L21.791,17.104 C22.087,16.351 22.149,15.53 22.098,14.546 C22.047,13.569 21.877,12.353 21.661,10.796 L20.175,11.003 Z M12.994,20.75 C14.566,20.75 15.793,20.751 16.768,20.667 C17.75,20.582 18.555,20.408 19.26,20.011 L18.524,18.704 C18.088,18.949 17.528,19.096 16.64,19.172 C15.744,19.249 14.593,19.25 12.994,19.25 L12.994,20.75 Z M20.395,16.555 C20.037,17.465 19.376,18.224 18.524,18.704 L19.26,20.011 C20.413,19.362 21.307,18.335 21.791,17.104 L20.395,16.555 Z M12.994,4.75 C14.24,4.75 15.133,4.751 15.839,4.805 C16.535,4.858 16.994,4.961 17.377,5.137 L18.003,3.773 C17.394,3.494 16.739,3.369 15.953,3.309 C15.177,3.249 14.217,3.25 12.994,3.25 L12.994,4.75 Z M17.377,5.137 C18.121,5.477 18.75,6.025 19.189,6.714 L20.454,5.908 C19.859,4.975 19.008,4.234 18.003,3.773 L17.377,5.137 Z M11.37,3.25 C10.147,3.25 9.188,3.249 8.411,3.309 C7.625,3.369 6.97,3.494 6.362,3.773 L6.987,5.137 C7.37,4.961 7.829,4.858 8.526,4.805 C9.232,4.751 10.124,4.75 11.37,4.75 L11.37,3.25 Z M4.189,11.003 C4.457,9.075 4.608,8.023 4.898,7.27 L3.499,6.73 C3.13,7.685 2.96,8.95 2.703,10.796 L4.189,11.003 Z M4.898,7.27 C4.98,7.059 5.071,6.878 5.175,6.714 L3.91,5.908 C3.746,6.164 3.612,6.436 3.499,6.73 L4.898,7.27 Z M6.362,3.773 C5.356,4.234 4.505,4.975 3.91,5.908 L5.175,6.714 C5.615,6.025 6.244,5.477 6.987,5.137 L6.362,3.773 Z M5.501,7.188 L4.71,6.451 L3.687,7.549 L4.479,8.286 L5.501,7.188 Z M19.46,6.348 L18.602,7.206 L19.662,8.267 L20.52,7.409 L19.46,6.348 Z M4.459,8.267 C6.111,9.919 7.402,11.212 8.544,12.083 C9.703,12.967 10.795,13.487 12.061,13.487 L12.061,11.987 C11.255,11.987 10.479,11.673 9.454,10.89 C8.411,10.095 7.202,8.888 5.52,7.206 L4.459,8.267 Z M18.602,7.206 C16.92,8.888 15.711,10.095 14.668,10.89 C13.643,11.673 12.866,11.987 12.061,11.987 L12.061,13.487 C13.326,13.487 14.419,12.967 15.578,12.083 C16.72,11.212 18.011,9.919 19.662,8.267 L18.602,7.206 Z M2,18.75 L8,18.75 L8,17.25 L2,17.25 L2,18.75 Z M2,15.75 L5,15.75 L5,14.25 L2,14.25 L2,15.75 Z M21.661,10.796 C21.384,8.801 21.208,7.479 20.763,6.484 L19.394,7.096 C19.73,7.848 19.884,8.905 20.175,11.003 L21.661,10.796 Z M20.763,6.484 C20.673,6.282 20.571,6.091 20.454,5.908 L19.189,6.714 C19.264,6.832 19.332,6.957 19.394,7.096 L20.763,6.484 Z M20.52,7.409 L20.609,7.32 L19.548,6.26 L19.46,6.348 L20.52,7.409 Z"/>
</svg>

