<svg xmlns="http://www.w3.org/2000/svg" width="24" height="24" viewBox="0 0 24 24">
  <defs/>
  <path fill="#2D264B" d="M1,15.25 C0.586,15.25 0.25,15.586 0.25,16 C0.25,16.414 0.586,16.75 1,16.75 L4,16.75 C4.414,16.75 4.75,16.414 4.75,16 C4.75,15.586 4.414,15.25 4,15.25 L1,15.25 Z"/>
  <path fill="#2D264B" d="M1,18.25 C0.586,18.25 0.25,18.586 0.25,19 C0.25,19.414 0.586,19.75 1,19.75 L7,19.75 C7.414,19.75 7.75,19.414 7.75,19 C7.75,18.586 7.414,18.25 7,18.25 L1,18.25 Z"/>
  <path fill="#2D264B" d="M3.109,5.09 L3,5 C3.308,4.576 3.637,4.263 4.061,3.955 C5.375,3 7.25,3 11,3 L13,3 C16.75,3 18.625,3 19.939,3.955 C20.363,4.263 20.666,4.541 20.974,4.966 L20.849,5.091 L18.541,7.399 C16.859,9.08 15.65,10.287 14.607,11.083 C13.582,11.865 12.806,12.179 12,12.179 C11.194,12.179 10.418,11.865 9.393,11.083 C8.35,10.287 7.141,9.08 5.459,7.399 L3.516,5.455 L3.109,5.09 Z"/>
  <path fill="#2D264B" d="M2,12 C2,9.36 2,7.649 2.333,6.409 L2.484,6.545 L4.439,8.5 C6.071,10.132 7.35,11.411 8.483,12.275 C9.642,13.159 10.734,13.679 12,13.679 C13.265,13.679 14.358,13.159 15.517,12.275 C16.649,11.411 17.928,10.132 19.561,8.5 L21.663,6.397 C22,7.638 22,9.351 22,12 C22,15.75 22,17.625 21.045,18.939 C20.737,19.363 20.363,19.737 19.939,20.045 C18.625,21 16.75,21 13,21 L11,21 C9.572,21 8.415,21 7.458,20.947 C8.342,20.74 9,19.947 9,19 C9,17.895 8.105,17 7,17 L5.732,17 C5.903,16.706 6,16.364 6,16 C6,14.895 5.105,14 4,14 L2.007,14 C2,13.399 2,12.736 2,12 Z"/>
</svg>

