<svg xmlns="http://www.w3.org/2000/svg" width="24" height="24" viewBox="0 0 24 24">
  <defs/>
  <path clip-rule="evenodd" fill="#2D264B" d="M12,6.75 C14.899,6.75 17.25,9.101 17.25,12 C17.25,14.899 14.899,17.25 12,17.25 C9.101,17.25 6.75,14.899 6.75,12 C6.75,9.101 9.101,6.75 12,6.75 Z M9,12 C9,13.657 10.343,15 12,15 C13.657,15 15,13.657 15,12 C15,10.343 13.657,9 12,9 C10.343,9 9,10.343 9,12 Z"/>
  <path clip-rule="evenodd" fill="#2D264B" d="M10.943,0.25 L13.057,0.25 C15.366,0.25 17.175,0.25 18.586,0.44 C20.031,0.634 21.171,1.039 22.066,1.934 C22.961,2.829 23.366,3.969 23.56,5.414 C23.75,6.825 23.75,8.634 23.75,10.943 L23.75,13.057 C23.75,15.366 23.75,17.175 23.56,18.586 C23.366,20.031 22.961,21.171 22.066,22.066 C21.171,22.961 20.031,23.366 18.586,23.56 C17.175,23.75 15.366,23.75 13.057,23.75 L10.943,23.75 C8.634,23.75 6.825,23.75 5.414,23.56 C3.969,23.366 2.829,22.961 1.934,22.066 C1.039,21.171 0.634,20.031 0.44,18.586 C0.25,17.175 0.25,15.366 0.25,13.057 L0.25,10.943 C0.25,8.634 0.25,6.825 0.44,5.414 C0.634,3.969 1.039,2.829 1.934,1.934 C2.829,1.039 3.969,0.634 5.414,0.44 C6.825,0.25 8.634,0.25 10.943,0.25 Z M5.25,12 C5.25,15.728 8.272,18.75 12,18.75 C15.728,18.75 18.75,15.728 18.75,12 C18.75,8.272 15.728,5.25 12,5.25 C8.272,5.25 5.25,8.272 5.25,12 Z M19,18 C18.448,18 18,18.448 18,19 C18,19.552 18.448,20 19,20 C19.552,20 20,19.552 20,19 C20,18.448 19.552,18 19,18 Z M18,5 C18,5.552 18.448,6 19,6 C19.552,6 20,5.552 20,5 C20,4.448 19.552,4 19,4 C18.448,4 18,4.448 18,5 Z M5,18 C4.448,18 4,18.448 4,19 C4,19.552 4.448,20 5,20 C5.552,20 6,19.552 6,19 C6,18.448 5.552,18 5,18 Z M4,5 C4,5.552 4.448,6 5,6 C5.552,6 6,5.552 6,5 C6,4.448 5.552,4 5,4 C4.448,4 4,4.448 4,5 Z"/>
</svg>

