<svg xmlns="http://www.w3.org/2000/svg" width="24" height="24" viewBox="0 0 24 24">
  <defs/>
  <path fill="#2D264B" d="M12,5.75 C11.31,5.75 10.75,6.31 10.75,7 C10.75,7.69 11.31,8.25 12,8.25 C12.69,8.25 13.25,7.69 13.25,7 C13.25,6.31 12.69,5.75 12,5.75 Z"/>
  <path fill="#2D264B" d="M12,13.75 C13.243,13.75 14.25,14.757 14.25,16 C14.25,17.243 13.243,18.25 12,18.25 C10.757,18.25 9.75,17.243 9.75,16 C9.75,14.757 10.757,13.75 12,13.75 Z M12,17 C12.552,17 13,16.552 13,16 C13,15.448 12.552,15 12,15 C11.448,15 11,15.448 11,16 C11,16.552 11.448,17 12,17 Z"/>
  <path fill="#2D264B" d="M11.955,0.25 L12.045,0.25 C13.882,0.25 15.321,0.25 16.463,0.374 C17.629,0.5 18.573,0.762 19.38,1.348 C19.868,1.703 20.297,2.132 20.652,2.62 C21.238,3.427 21.5,4.371 21.626,5.536 C21.75,6.679 21.75,8.118 21.75,9.955 L21.75,14.045 C21.75,15.882 21.75,17.321 21.626,18.463 C21.5,19.629 21.238,20.573 20.652,21.38 C20.297,21.868 19.868,22.297 19.38,22.652 C18.573,23.238 17.629,23.5 16.463,23.626 C15.321,23.75 13.882,23.75 12.045,23.75 L11.955,23.75 C10.118,23.75 8.679,23.75 7.536,23.626 C6.371,23.5 5.427,23.238 4.62,22.652 C4.132,22.297 3.703,21.868 3.348,21.38 C2.762,20.573 2.5,19.629 2.374,18.463 C2.25,17.321 2.25,15.882 2.25,14.045 L2.25,9.955 C2.25,8.118 2.25,6.679 2.374,5.536 C2.5,4.371 2.762,3.427 3.348,2.62 C3.703,2.132 4.132,1.703 4.62,1.348 C5.427,0.762 6.371,0.5 7.536,0.374 C8.679,0.25 10.118,0.25 11.955,0.25 Z M8.25,16 C8.25,18.071 9.929,19.75 12,19.75 C14.071,19.75 15.75,18.071 15.75,16 C15.75,13.929 14.071,12.25 12,12.25 C9.929,12.25 8.25,13.929 8.25,16 Z M9.25,7 C9.25,8.519 10.481,9.75 12,9.75 C13.519,9.75 14.75,8.519 14.75,7 C14.75,5.481 13.519,4.25 12,4.25 C10.481,4.25 9.25,5.481 9.25,7 Z"/>
</svg>

