<svg xmlns="http://www.w3.org/2000/svg" width="24" height="24" viewBox="0 0 24 24">
  <defs/>
  <path fill="#2D264B" d="M11,16 C11,16.552 11.448,17 12,17 C12.552,17 13,16.552 13,16 C13,15.448 12.552,15 12,15 C11.448,15 11,15.448 11,16 Z"/>
  <path fill="#2D264B" d="M20.25,10 L20.25,14 L21.75,14 L21.75,10 L20.25,10 Z M3.75,14 L3.75,10 L2.25,10 L2.25,14 L3.75,14 Z M12,22.25 C10.108,22.25 8.75,22.249 7.698,22.135 C6.66,22.023 6.01,21.807 5.502,21.438 L4.62,22.652 C5.427,23.238 6.371,23.5 7.536,23.626 C8.688,23.751 10.142,23.75 12,23.75 L12,22.25 Z M2.25,14 C2.25,15.858 2.249,17.312 2.374,18.463 C2.5,19.629 2.762,20.573 3.348,21.38 L4.562,20.498 C4.193,19.99 3.977,19.34 3.865,18.302 C3.751,17.25 3.75,15.892 3.75,14 L2.25,14 Z M5.502,21.438 C5.141,21.176 4.824,20.859 4.562,20.498 L3.348,21.38 C3.703,21.868 4.132,22.297 4.62,22.652 L5.502,21.438 Z M20.25,14 C20.25,15.892 20.249,17.25 20.135,18.302 C20.023,19.34 19.807,19.99 19.438,20.498 L20.652,21.38 C21.238,20.573 21.5,19.629 21.626,18.463 C21.751,17.312 21.75,15.858 21.75,14 L20.25,14 Z M12,23.75 C13.858,23.75 15.312,23.751 16.463,23.626 C17.629,23.5 18.573,23.238 19.38,22.652 L18.498,21.438 C17.99,21.807 17.34,22.023 16.302,22.135 C15.25,22.249 13.892,22.25 12,22.25 L12,23.75 Z M19.438,20.498 C19.176,20.859 18.859,21.176 18.498,21.438 L19.38,22.652 C19.868,22.297 20.297,21.868 20.652,21.38 L19.438,20.498 Z M12,1.75 C13.892,1.75 15.25,1.751 16.302,1.865 C17.34,1.977 17.99,2.193 18.498,2.562 L19.38,1.348 C18.573,0.762 17.629,0.5 16.463,0.374 C15.312,0.249 13.858,0.25 12,0.25 L12,1.75 Z M21.75,10 C21.75,8.142 21.751,6.688 21.626,5.536 C21.5,4.371 21.238,3.427 20.652,2.62 L19.438,3.502 C19.807,4.01 20.023,4.66 20.135,5.698 C20.249,6.75 20.25,8.108 20.25,10 L21.75,10 Z M18.498,2.562 C18.859,2.824 19.176,3.141 19.438,3.502 L20.652,2.62 C20.297,2.132 19.868,1.703 19.38,1.348 L18.498,2.562 Z M12,0.25 C10.142,0.25 8.688,0.249 7.536,0.374 C6.371,0.5 5.427,0.762 4.62,1.348 L5.502,2.562 C6.01,2.193 6.66,1.977 7.698,1.865 C8.75,1.751 10.108,1.75 12,1.75 L12,0.25 Z M3.75,10 C3.75,8.108 3.751,6.75 3.865,5.698 C3.977,4.66 4.193,4.01 4.562,3.502 L3.348,2.62 C2.762,3.427 2.5,4.371 2.374,5.536 C2.249,6.688 2.25,8.142 2.25,10 L3.75,10 Z M4.62,1.348 C4.132,1.703 3.703,2.132 3.348,2.62 L4.562,3.502 C4.824,3.141 5.141,2.824 5.502,2.562 L4.62,1.348 Z M8.25,16 C8.25,18.071 9.929,19.75 12,19.75 L12,18.25 C10.757,18.25 9.75,17.243 9.75,16 L8.25,16 Z M12,19.75 C14.071,19.75 15.75,18.071 15.75,16 L14.25,16 C14.25,17.243 13.243,18.25 12,18.25 L12,19.75 Z M15.75,16 C15.75,13.929 14.071,12.25 12,12.25 L12,13.75 C13.243,13.75 14.25,14.757 14.25,16 L15.75,16 Z M12,12.25 C9.929,12.25 8.25,13.929 8.25,16 L9.75,16 C9.75,14.757 10.757,13.75 12,13.75 L12,12.25 Z M9.25,7 C9.25,8.519 10.481,9.75 12,9.75 L12,8.25 C11.31,8.25 10.75,7.69 10.75,7 L9.25,7 Z M12,9.75 C13.519,9.75 14.75,8.519 14.75,7 L13.25,7 C13.25,7.69 12.69,8.25 12,8.25 L12,9.75 Z M14.75,7 C14.75,5.481 13.519,4.25 12,4.25 L12,5.75 C12.69,5.75 13.25,6.31 13.25,7 L14.75,7 Z M12,4.25 C10.481,4.25 9.25,5.481 9.25,7 L10.75,7 C10.75,6.31 11.31,5.75 12,5.75 L12,4.25 Z"/>
</svg>

