<svg xmlns="http://www.w3.org/2000/svg" width="24" height="24" viewBox="0 0 24 24">
  <defs/>
  <path fill="#2D264B" d="M9,12 C9,10.343 10.343,9 12,9 C13.657,9 15,10.343 15,12 C15,13.657 13.657,15 12,15 C10.343,15 9,13.657 9,12 Z"/>
  <path fill="#2D264B" d="M18,5 C18,4.448 18.448,4 19,4 C19.552,4 20,4.448 20,5 C20,5.552 19.552,6 19,6 C18.448,6 18,5.552 18,5 Z"/>
  <path fill="#2D264B" d="M18,19 C18,18.448 18.448,18 19,18 C19.552,18 20,18.448 20,19 C20,19.552 19.552,20 19,20 C18.448,20 18,19.552 18,19 Z"/>
  <path fill="#2D264B" d="M4,5 C4,4.448 4.448,4 5,4 C5.552,4 6,4.448 6,5 C6,5.552 5.552,6 5,6 C4.448,6 4,5.552 4,5 Z"/>
  <path fill="#2D264B" d="M4,19 C4,18.448 4.448,18 5,18 C5.552,18 6,18.448 6,19 C6,19.552 5.552,20 5,20 C4.448,20 4,19.552 4,19 Z"/>
  <path fill="#2D264B" d="M0.25,13 L0.25,10.943 C0.25,8.634 0.25,6.825 0.44,5.414 C0.634,3.969 1.039,2.829 1.934,1.934 C2.829,1.039 3.969,0.634 5.414,0.44 C6.825,0.25 8.634,0.25 10.943,0.25 L11,0.25 L13,0.25 L13.057,0.25 C15.366,0.25 17.175,0.25 18.586,0.44 C20.031,0.634 21.171,1.039 22.066,1.934 C22.961,2.829 23.366,3.969 23.56,5.414 C23.75,6.825 23.75,8.634 23.75,10.942 L23.75,13.058 C23.75,15.366 23.75,17.175 23.56,18.586 C23.366,20.031 22.961,21.171 22.066,22.066 C21.171,22.961 20.031,23.366 18.586,23.56 C17.175,23.75 15.366,23.75 13.058,23.75 L10.942,23.75 C8.634,23.75 6.825,23.75 5.414,23.56 C3.969,23.366 2.829,22.961 1.934,22.066 C1.039,21.171 0.634,20.031 0.44,18.586 C0.25,17.175 0.25,15.366 0.25,13.057 Z M11,1.75 C8.622,1.75 6.914,1.752 5.614,1.926 C4.335,2.098 3.564,2.425 2.995,2.995 C2.425,3.564 2.098,4.335 1.926,5.614 C1.752,6.914 1.75,8.622 1.75,11 L1.75,13 C1.75,15.378 1.752,17.086 1.926,18.386 C2.098,19.665 2.425,20.435 2.995,21.005 C3.564,21.575 4.335,21.902 5.614,22.074 C6.914,22.248 8.622,22.25 11,22.25 L13,22.25 C15.378,22.25 17.086,22.248 18.386,22.074 C19.665,21.902 20.435,21.575 21.005,21.005 C21.575,20.435 21.902,19.665 22.074,18.386 C22.248,17.086 22.25,15.378 22.25,13 L22.25,11 C22.25,8.622 22.248,6.914 22.074,5.614 C21.902,4.335 21.575,3.564 21.005,2.995 C20.435,2.425 19.665,2.098 18.386,1.926 C17.086,1.752 15.378,1.75 13,1.75 Z M12,18.75 C8.272,18.75 5.25,15.728 5.25,12 C5.25,8.272 8.272,5.25 12,5.25 C15.728,5.25 18.75,8.272 18.75,12 C18.75,15.728 15.728,18.75 12,18.75 Z M12,6.75 C9.101,6.75 6.75,9.101 6.75,12 C6.75,14.899 9.101,17.25 12,17.25 C14.899,17.25 17.25,14.899 17.25,12 C17.25,9.101 14.899,6.75 12,6.75 Z"/>
</svg>

