<svg width="24" height="24" viewBox="0 0 24 24" fill="none" xmlns="http://www.w3.org/2000/svg">
<path d="M16.1643 4.27559C14.8535 0.241469 9.14631 0.241469 7.83555 4.27559C7.45017 5.46167 6.34488 6.26471 5.09776 6.26471C0.856037 6.26471 -0.907588 11.6926 2.52404 14.1858C3.53298 14.9188 3.95516 16.2182 3.56978 17.4043C2.25902 21.4384 6.87624 24.793 10.3079 22.2998C11.3168 21.5667 12.683 21.5667 13.692 22.2998C17.1236 24.793 21.7408 21.4384 20.4301 17.4043C20.0447 16.2182 20.4669 14.9188 21.4758 14.1858C24.9074 11.6926 23.1438 6.26471 18.9021 6.26471C17.655 6.26471 16.5497 5.46167 16.1643 4.27559Z" fill="#2D264B"/>
</svg>
