<svg xmlns="http://www.w3.org/2000/svg" width="24" height="24" viewBox="0 0 24 24">
  <defs/>
  <path fill="#2D264B" d="M16.164,4.276 C14.854,0.241 9.146,0.241 7.836,4.276 C7.45,5.462 6.345,6.265 5.098,6.265 C0.856,6.265 -0.908,11.693 2.524,14.186 C3.533,14.919 3.955,16.218 3.57,17.404 C2.259,21.438 6.876,24.793 10.308,22.3 C11.317,21.567 12.683,21.567 13.692,22.3 C17.124,24.793 21.741,21.438 20.43,17.404 C20.045,16.218 20.467,14.919 21.476,14.186 C24.907,11.693 23.144,6.265 18.902,6.265 C17.655,6.265 16.55,5.462 16.164,4.276 Z"/>
</svg>

