<svg xmlns="http://www.w3.org/2000/svg" width="24" height="24" viewBox="0 0 24 24">
  <defs/>
  <path fill="#2D264B" d="M5.098,6.265 Q7.189,6.265 7.836,4.276 Q8.819,1.25 12,1.25 Q15.181,1.25 16.164,4.276 Q16.811,6.265 18.902,6.265 Q22.083,6.265 23.066,9.29 Q24.05,12.316 21.476,14.186 Q19.784,15.415 20.43,17.404 Q21.413,20.43 18.839,22.3 Q16.266,24.17 13.692,22.3 Q12,21.07 10.308,22.3 Q7.734,24.17 5.16,22.3 Q2.587,20.43 3.57,17.404 Q4.216,15.415 2.524,14.186 Q-0.05,12.316 0.933,9.29 Q1.917,6.265 5.098,6.265 Z M5.098,7.765 Q3.006,7.765 2.36,9.754 Q1.714,11.743 3.406,12.972 Q5.979,14.842 4.996,17.868 Q4.35,19.857 6.042,21.086 Q7.734,22.316 9.426,21.086 Q12,19.216 14.574,21.086 Q16.266,22.316 17.958,21.086 Q19.65,19.857 19.004,17.868 Q18.02,14.842 20.594,12.972 Q22.286,11.743 21.64,9.754 Q20.994,7.765 18.902,7.765 Q15.721,7.765 14.738,4.739 Q14.091,2.75 12,2.75 Q9.908,2.75 9.262,4.739 Q8.279,7.765 5.098,7.765 Z M14.71,7.645 Q15.079,8.734 16.292,8.734 Q16.603,8.734 16.823,8.953 Q17.042,9.173 17.042,9.484 Q17.042,9.794 16.823,10.014 Q16.603,10.234 16.292,10.234 Q14.003,10.234 13.29,8.127 Q13.19,7.832 13.327,7.554 Q13.465,7.275 13.759,7.176 Q14.054,7.076 14.332,7.214 Q14.611,7.351 14.71,7.645 Z"/>
</svg>

