<svg xmlns="http://www.w3.org/2000/svg" width="24" height="24" viewBox="0 0 24 24">
  <defs/>
  <path fill="#2D264B" d="M7.836,4.276 C9.146,0.241 14.854,0.241 16.164,4.276 C16.55,5.462 17.655,6.265 18.902,6.265 C23.144,6.265 24.907,11.693 21.476,14.186 C20.467,14.919 20.045,16.218 20.43,17.404 C21.741,21.438 17.124,24.793 13.692,22.3 C12.683,21.567 11.317,21.567 10.308,22.3 C6.876,24.793 2.259,21.438 3.57,17.404 C3.955,16.218 3.533,14.919 2.524,14.186 C-0.908,11.693 0.856,6.265 5.098,6.265 C6.345,6.265 7.45,5.462 7.836,4.276 Z M14.71,7.645 C14.577,7.253 14.152,7.043 13.759,7.176 C13.367,7.309 13.157,7.734 13.29,8.127 C13.721,9.399 14.943,10.234 16.292,10.234 C16.707,10.234 17.042,9.898 17.042,9.484 C17.042,9.069 16.707,8.734 16.292,8.734 C15.553,8.734 14.925,8.278 14.71,7.645 Z"/>
</svg>

