<svg xmlns="http://www.w3.org/2000/svg" width="24" height="24" viewBox="0 0 24 24">
  <defs/>
  <path fill="#2D264B" d="M1.25,12 C1.25,6.063 6.063,1.25 12,1.25 C17.937,1.25 22.75,6.063 22.75,12 C22.75,12.423 22.726,12.84 22.678,13.25 L20.838,13.25 C19.132,13.25 18.091,13.25 17.223,13.531 C15.473,14.1 14.1,15.473 13.531,17.223 C13.25,18.091 13.25,19.132 13.25,20.838 L13.25,22.678 C12.84,22.726 12.423,22.75 12,22.75 C6.063,22.75 1.25,17.937 1.25,12 Z"/>
  <path fill="#2D264B" d="M14.75,22.395 C18.478,21.411 21.411,18.478 22.395,14.75 L21,14.75 C19.08,14.75 18.298,14.759 17.687,14.958 C16.393,15.378 15.378,16.393 14.958,17.687 C14.759,18.298 14.75,19.08 14.75,21 L14.75,22.395 Z"/>
</svg>

