<svg width="24" height="24" viewBox="0 0 24 24" fill="none" xmlns="http://www.w3.org/2000/svg">
<path d="M1.25 12C1.25 6.06294 6.06294 1.25 12 1.25C17.9371 1.25 22.75 6.06294 22.75 12C22.75 12.4226 22.7256 12.8397 22.678 13.25L20.8382 13.25C19.1319 13.2497 18.0907 13.2496 17.2232 13.5314C15.4726 14.1002 14.1002 15.4726 13.5314 17.2232C13.2496 18.0907 13.2497 19.1319 13.25 20.8382L13.25 22.678C12.8397 22.7256 12.4226 22.75 12 22.75C6.06294 22.75 1.25 17.9371 1.25 12Z" fill="#2D264B"/>
<path d="M14.75 22.3949C18.4776 21.4112 21.4112 18.4776 22.3949 14.75H21C19.0803 14.75 18.2984 14.7593 17.6867 14.958C16.3928 15.3784 15.3784 16.3928 14.958 17.6867C14.7593 18.2984 14.75 19.0803 14.75 21V22.3949Z" fill="#2D264B"/>
</svg>
