<svg xmlns="http://www.w3.org/2000/svg" width="24" height="24" viewBox="0 0 24 24">
  <defs/>
  <path fill="#2D264B" d="M12,21.25 C6.891,21.25 2.75,17.109 2.75,12 L1.25,12 C1.25,17.937 6.063,22.75 12,22.75 L12,21.25 Z M2.75,12 C2.75,6.891 6.891,2.75 12,2.75 L12,1.25 C6.063,1.25 1.25,6.063 1.25,12 L2.75,12 Z M12,2.75 C17.109,2.75 21.25,6.891 21.25,12 L22.75,12 C22.75,6.063 17.937,1.25 12,1.25 L12,2.75 Z M16.39,13.877 C15.308,14.428 14.428,15.308 13.877,16.39 L15.213,17.07 C15.621,16.271 16.271,15.621 17.07,15.213 L16.39,13.877 Z M21.8,13.25 C20.477,13.25 19.434,13.253 18.591,13.326 C17.74,13.4 17.032,13.549 16.39,13.877 L17.07,15.213 C17.472,15.009 17.965,14.886 18.721,14.82 C19.485,14.754 20.456,14.75 21.8,14.75 L21.8,13.25 Z M21.25,12 C21.25,12.634 21.186,13.253 21.065,13.851 L22.535,14.149 C22.676,13.454 22.75,12.735 22.75,12 L21.25,12 Z M21.065,13.851 C20.329,17.474 17.474,20.329 13.851,21.065 L14.149,22.535 C18.363,21.68 21.68,18.363 22.535,14.149 L21.065,13.851 Z M13.851,21.065 C13.253,21.186 12.634,21.25 12,21.25 L12,22.75 C12.735,22.75 13.454,22.676 14.149,22.535 L13.851,21.065 Z M14.75,21.8 C14.75,20.456 14.754,19.485 14.82,18.721 C14.886,17.965 15.009,17.472 15.213,17.07 L13.877,16.39 C13.549,17.032 13.4,17.74 13.326,18.591 C13.253,19.434 13.25,20.477 13.25,21.8 L14.75,21.8 Z"/>
</svg>

