<svg xmlns="http://www.w3.org/2000/svg" width="24" height="24" viewBox="0 0 24 24">
  <defs/>
  <path fill="#2D264B" d="M10.418,8.827 C10.68,8.756 11.022,8.75 12,8.75 C12.978,8.75 13.32,8.756 13.582,8.827 C14.359,9.035 14.965,9.641 15.173,10.418 C15.244,10.68 15.25,11.022 15.25,12 C15.25,12.978 15.244,13.32 15.173,13.582 C14.965,14.359 14.359,14.965 13.582,15.173 C13.32,15.244 12.978,15.25 12,15.25 C11.022,15.25 10.68,15.244 10.418,15.173 C9.641,14.965 9.035,14.359 8.827,13.582 C8.756,13.32 8.75,12.978 8.75,12 C8.75,11.022 8.756,10.68 8.827,10.418 C9.035,9.641 9.641,9.035 10.418,8.827 Z"/>
  <path fill="#2D264B" d="M1.25,12 C1.25,6.063 6.063,1.25 12,1.25 C17.937,1.25 22.75,6.063 22.75,12 C22.75,17.937 17.937,22.75 12,22.75 C6.063,22.75 1.25,17.937 1.25,12 Z M11.884,7.25 C11.066,7.25 10.508,7.25 10.029,7.378 C8.735,7.725 7.725,8.735 7.378,10.029 C7.25,10.508 7.25,11.066 7.25,11.884 L7.25,12.116 C7.25,12.934 7.25,13.492 7.378,13.971 C7.725,15.265 8.735,16.275 10.029,16.622 C10.508,16.75 11.066,16.75 11.884,16.75 L12.116,16.75 C12.934,16.75 13.492,16.75 13.971,16.622 C15.265,16.275 16.275,15.265 16.622,13.971 C16.75,13.492 16.75,12.934 16.75,12.116 L16.75,11.884 C16.75,11.066 16.75,10.508 16.622,10.029 C16.275,8.735 15.265,7.725 13.971,7.378 C13.492,7.25 12.934,7.25 12.116,7.25 L11.884,7.25 Z"/>
</svg>

