<svg xmlns="http://www.w3.org/2000/svg" width="24" height="24" viewBox="0 0 24 24">
  <defs/>
  <path fill="#2D264B" d="M2.25,12 Q2.25,6.132 3.348,4.62 Q3.883,3.883 4.62,3.348 Q6.132,2.25 12,2.25 Q17.868,2.25 19.38,3.348 Q20.117,3.883 20.652,4.62 Q21.75,6.132 21.75,12 Q21.75,17.868 20.652,19.38 Q20.117,20.117 19.38,20.652 Q17.868,21.75 12,21.75 Q6.132,21.75 4.62,20.652 Q3.883,20.117 3.348,19.38 Q2.25,17.868 2.25,12 Z M3.75,12 Q3.75,17.381 4.562,18.498 Q4.957,19.043 5.502,19.438 Q6.619,20.25 12,20.25 Q17.381,20.25 18.498,19.438 Q19.043,19.043 19.438,18.498 Q20.25,17.381 20.25,12 Q20.25,6.619 19.438,5.502 Q19.043,4.957 18.498,4.562 Q17.381,3.75 12,3.75 Q6.619,3.75 5.502,4.562 Q4.957,4.957 4.562,5.502 Q3.75,6.619 3.75,12 Z"/>
</svg>

