<svg xmlns="http://www.w3.org/2000/svg" width="24" height="24" viewBox="0 0 24 24">
  <defs/>
  <path fill="#2D264B" d="M21.25,12 C21.25,17.109 17.109,21.25 12,21.25 L12,22.75 C17.937,22.75 22.75,17.937 22.75,12 L21.25,12 Z M12,21.25 C6.891,21.25 2.75,17.109 2.75,12 L1.25,12 C1.25,17.937 6.063,22.75 12,22.75 L12,21.25 Z M2.75,12 C2.75,6.891 6.891,2.75 12,2.75 L12,1.25 C6.063,1.25 1.25,6.063 1.25,12 L2.75,12 Z M12,2.75 C17.109,2.75 21.25,6.891 21.25,12 L22.75,12 C22.75,6.063 17.937,1.25 12,1.25 L12,2.75 Z M12,15.25 C11.022,15.25 10.68,15.244 10.418,15.173 L10.029,16.622 C10.53,16.756 11.118,16.75 12,16.75 L12,15.25 Z M7.25,12 C7.25,12.882 7.244,13.47 7.378,13.971 L8.827,13.582 C8.756,13.32 8.75,12.978 8.75,12 L7.25,12 Z M10.418,15.173 C9.641,14.965 9.035,14.359 8.827,13.582 L7.378,13.971 C7.725,15.265 8.735,16.276 10.029,16.622 L10.418,15.173 Z M15.25,12 C15.25,12.978 15.244,13.32 15.173,13.582 L16.622,13.971 C16.756,13.47 16.75,12.882 16.75,12 L15.25,12 Z M12,16.75 C12.882,16.75 13.47,16.756 13.971,16.622 L13.582,15.173 C13.32,15.244 12.978,15.25 12,15.25 L12,16.75 Z M15.173,13.582 C14.965,14.359 14.359,14.965 13.582,15.173 L13.971,16.622 C15.265,16.276 16.276,15.265 16.622,13.971 L15.173,13.582 Z M12,8.75 C12.978,8.75 13.32,8.756 13.582,8.827 L13.971,7.378 C13.47,7.244 12.882,7.25 12,7.25 L12,8.75 Z M16.75,12 C16.75,11.118 16.756,10.53 16.622,10.029 L15.173,10.418 C15.244,10.68 15.25,11.022 15.25,12 L16.75,12 Z M13.582,8.827 C14.359,9.035 14.965,9.641 15.173,10.418 L16.622,10.029 C16.276,8.735 15.265,7.725 13.971,7.378 L13.582,8.827 Z M12,7.25 C11.118,7.25 10.53,7.244 10.029,7.378 L10.418,8.827 C10.68,8.756 11.022,8.75 12,8.75 L12,7.25 Z M8.75,12 C8.75,11.022 8.756,10.68 8.827,10.418 L7.378,10.029 C7.244,10.53 7.25,11.118 7.25,12 L8.75,12 Z M10.029,7.378 C8.735,7.725 7.725,8.735 7.378,10.029 L8.827,10.418 C9.035,9.641 9.641,9.035 10.418,8.827 L10.029,7.378 Z"/>
</svg>

