<svg width="24" height="24" viewBox="0 0 24 24" fill="none" xmlns="http://www.w3.org/2000/svg">
<path d="M10.4177 8.82667C10.6797 8.75644 11.0217 8.75 12 8.75C12.9783 8.75 13.3203 8.75644 13.5823 8.82667C14.3588 9.03472 14.9653 9.6412 15.1733 10.4177C15.2436 10.6797 15.25 11.0217 15.25 12C15.25 12.9783 15.2436 13.3203 15.1733 13.5823C14.9653 14.3588 14.3588 14.9653 13.5823 15.1733C13.3203 15.2436 12.9783 15.25 12 15.25C11.0217 15.25 10.6797 15.2436 10.4177 15.1733C9.6412 14.9653 9.03472 14.3588 8.82667 13.5823C8.75644 13.3203 8.75 12.9783 8.75 12C8.75 11.0217 8.75644 10.6797 8.82667 10.4177C9.03472 9.6412 9.6412 9.03472 10.4177 8.82667Z" fill="#2D264B"/>
<path fill-rule="evenodd" clip-rule="evenodd" d="M1.25 12C1.25 6.06294 6.06294 1.25 12 1.25C17.9371 1.25 22.75 6.06294 22.75 12C22.75 17.9371 17.9371 22.75 12 22.75C6.06294 22.75 1.25 17.9371 1.25 12ZM11.8842 7.24997C11.0662 7.24971 10.5081 7.24952 10.0294 7.37778C8.73533 7.72453 7.72453 8.73533 7.37778 10.0294C7.24952 10.5081 7.24971 11.0662 7.24997 11.8842V12.1158C7.24971 12.9338 7.24952 13.4919 7.37778 13.9706C7.72453 15.2647 8.73533 16.2755 10.0294 16.6222C10.5081 16.7505 11.0662 16.7503 11.8842 16.75H12.1158C12.9338 16.7503 13.4919 16.7505 13.9706 16.6222C15.2647 16.2755 16.2755 15.2647 16.6222 13.9706C16.7505 13.4919 16.7503 12.9338 16.75 12.1158V11.8842C16.7503 11.0662 16.7505 10.5081 16.6222 10.0294C16.2755 8.73533 15.2647 7.72453 13.9706 7.37778C13.4919 7.24952 12.9338 7.24971 12.1158 7.24997H11.8842Z" fill="#2D264B"/>
</svg>
