<svg xmlns="http://www.w3.org/2000/svg" width="24" height="24" viewBox="0 0 24 24">
  <defs/>
  <path fill="#2D264B" d="M11.955,2.25 C10.118,2.25 8.679,2.25 7.536,2.374 C6.371,2.5 5.427,2.762 4.62,3.348 C4.132,3.703 3.703,4.132 3.348,4.62 C2.762,5.427 2.5,6.371 2.374,7.536 C2.25,8.679 2.25,10.118 2.25,11.955 L2.25,12.045 C2.25,13.882 2.25,15.321 2.374,16.463 C2.5,17.629 2.762,18.573 3.348,19.38 C3.703,19.868 4.132,20.297 4.62,20.652 C5.427,21.238 6.371,21.5 7.536,21.626 C8.679,21.75 10.118,21.75 11.955,21.75 L12.045,21.75 C13.882,21.75 15.321,21.75 16.463,21.626 C17.629,21.5 18.573,21.238 19.38,20.652 C19.868,20.297 20.297,19.868 20.652,19.38 C21.238,18.573 21.5,17.629 21.626,16.463 C21.75,15.321 21.75,13.882 21.75,12.045 L21.75,11.955 C21.75,10.118 21.75,8.679 21.626,7.536 C21.5,6.371 21.238,5.427 20.652,4.62 C20.297,4.132 19.868,3.703 19.38,3.348 C18.573,2.762 17.629,2.5 16.463,2.374 C15.321,2.25 13.882,2.25 12.045,2.25 L11.955,2.25 Z"/>
</svg>

