<svg width="24" height="24" viewBox="0 0 24 24" fill="none" xmlns="http://www.w3.org/2000/svg">
<g clip-path="url(#clip0_113_22610)">
<path d="M12.75 1C12.75 0.585786 12.4142 0.25 12 0.25C11.5858 0.25 11.25 0.585786 11.25 1V3C11.25 3.41421 11.5858 3.75 12 3.75C12.4142 3.75 12.75 3.41421 12.75 3V1Z" fill="#2D264B"/>
<path d="M4.75216 3.69149C4.45926 3.3986 3.98439 3.3986 3.6915 3.69149C3.3986 3.98439 3.3986 4.45926 3.6915 4.75216L5.10571 6.16637C5.3986 6.45926 5.87348 6.45926 6.16637 6.16637C6.45926 5.87348 6.45926 5.3986 6.16637 5.10571L4.75216 3.69149Z" fill="#2D264B"/>
<path d="M20.3085 4.75216C20.6014 4.45926 20.6014 3.98439 20.3085 3.6915C20.0156 3.3986 19.5407 3.3986 19.2478 3.69149L17.8336 5.10571C17.5407 5.3986 17.5407 5.87348 17.8336 6.16637C18.1265 6.45926 18.6014 6.45926 18.8943 6.16637L20.3085 4.75216Z" fill="#2D264B"/>
<path d="M12 5.25C8.27208 5.25 5.25 8.27208 5.25 12C5.25 15.7279 8.27208 18.75 12 18.75C15.7279 18.75 18.75 15.7279 18.75 12C18.75 8.27208 15.7279 5.25 12 5.25Z" fill="#2D264B"/>
<path d="M1 11.25C0.585786 11.25 0.25 11.5858 0.25 12C0.25 12.4142 0.585786 12.75 1 12.75H3C3.41421 12.75 3.75 12.4142 3.75 12C3.75 11.5858 3.41421 11.25 3 11.25H1Z" fill="#2D264B"/>
<path d="M21 11.25C20.5858 11.25 20.25 11.5858 20.25 12C20.25 12.4142 20.5858 12.75 21 12.75H23C23.4142 12.75 23.75 12.4142 23.75 12C23.75 11.5858 23.4142 11.25 23 11.25H21Z" fill="#2D264B"/>
<path d="M6.16637 18.8943C6.45926 18.6014 6.45926 18.1265 6.16637 17.8336C5.87348 17.5407 5.3986 17.5407 5.10571 17.8336L3.6915 19.2478C3.3986 19.5407 3.3986 20.0156 3.6915 20.3085C3.98439 20.6014 4.45926 20.6014 4.75216 20.3085L6.16637 18.8943Z" fill="#2D264B"/>
<path d="M18.8943 17.8336C18.6014 17.5407 18.1265 17.5407 17.8336 17.8336C17.5407 18.1265 17.5407 18.6014 17.8336 18.8943L19.2478 20.3085C19.5407 20.6014 20.0156 20.6014 20.3085 20.3085C20.6014 20.0156 20.6014 19.5407 20.3085 19.2478L18.8943 17.8336Z" fill="#2D264B"/>
<path d="M12.75 21C12.75 20.5858 12.4142 20.25 12 20.25C11.5858 20.25 11.25 20.5858 11.25 21V23C11.25 23.4142 11.5858 23.75 12 23.75C12.4142 23.75 12.75 23.4142 12.75 23V21Z" fill="#2D264B"/>
</g>
<defs>
<clipPath id="clip0_113_22610">
<rect width="24" height="24" fill="white"/>
</clipPath>
</defs>
</svg>
