<svg width="24" height="24" viewBox="0 0 24 24" fill="none" xmlns="http://www.w3.org/2000/svg">
<path d="M12 0.25C12.4142 0.25 12.75 0.585786 12.75 1V3C12.75 3.41421 12.4142 3.75 12 3.75C11.5858 3.75 11.25 3.41421 11.25 3V1C11.25 0.585786 11.5858 0.25 12 0.25Z" fill="#2D264B"/>
<path d="M3.6915 2.69151C3.98439 2.39862 4.45926 2.39862 4.75216 2.69151L6.16637 4.10572C6.45926 4.39862 6.45926 4.87349 6.16637 5.16638C5.87348 5.45928 5.3986 5.45928 5.10571 5.16638L3.6915 3.75217C3.3986 3.45928 3.3986 2.9844 3.6915 2.69151Z" fill="#2D264B"/>
<path d="M20.3085 2.69151C20.6014 2.9844 20.6014 3.45928 20.3085 3.75217L18.8943 5.16638C18.6014 5.45928 18.1265 5.45928 17.8336 5.16638C17.5407 4.87349 17.5407 4.39862 17.8336 4.10572L19.2478 2.69151C19.5407 2.39862 20.0156 2.39862 20.3085 2.69151Z" fill="#2D264B"/>
<path d="M6.25 11.75V11C6.25 7.82436 8.82436 5.25 12 5.25C15.1756 5.25 17.75 7.82436 17.75 11V11.75H6.25Z" fill="#2D264B"/>
<path d="M1.25 11C1.25 10.5858 1.58579 10.25 2 10.25H4C4.41421 10.25 4.75 10.5858 4.75 11C4.75 11.4142 4.41421 11.75 4 11.75H2C1.58579 11.75 1.25 11.4142 1.25 11Z" fill="#2D264B"/>
<path d="M19.25 11C19.25 10.5858 19.5858 10.25 20 10.25H22C22.4142 10.25 22.75 10.5858 22.75 11C22.75 11.4142 22.4142 11.75 22 11.75H20C19.5858 11.75 19.25 11.4142 19.25 11Z" fill="#2D264B"/>
<path d="M3.25 14C3.25 13.5858 3.58579 13.25 4 13.25H20C20.4142 13.25 20.75 13.5858 20.75 14C20.75 14.4142 20.4142 14.75 20 14.75H4C3.58579 14.75 3.25 14.4142 3.25 14Z" fill="#2D264B"/>
<path d="M6.25 18C6.25 17.5858 6.58579 17.25 7 17.25H17C17.4142 17.25 17.75 17.5858 17.75 18C17.75 18.4142 17.4142 18.75 17 18.75H7C6.58579 18.75 6.25 18.4142 6.25 18Z" fill="#2D264B"/>
<path d="M9.25 22C9.25 21.5858 9.58579 21.25 10 21.25H14C14.4142 21.25 14.75 21.5858 14.75 22C14.75 22.4142 14.4142 22.75 14 22.75H10C9.58579 22.75 9.25 22.4142 9.25 22Z" fill="#2D264B"/>
</svg>
