<svg xmlns="http://www.w3.org/2000/svg" width="24" height="24" viewBox="0 0 24 24">
  <defs/>
  <path fill="#2D264B" d="M12,0.25 C12.414,0.25 12.75,0.586 12.75,1 L12.75,3 C12.75,3.414 12.414,3.75 12,3.75 C11.586,3.75 11.25,3.414 11.25,3 L11.25,1 C11.25,0.586 11.586,0.25 12,0.25 Z"/>
  <path fill="#2D264B" d="M3.692,2.692 C3.984,2.399 4.459,2.399 4.752,2.692 L6.166,4.106 C6.459,4.399 6.459,4.873 6.166,5.166 C5.873,5.459 5.399,5.459 5.106,5.166 L3.692,3.752 C3.399,3.459 3.399,2.984 3.692,2.692 Z"/>
  <path fill="#2D264B" d="M20.308,2.692 C20.601,2.984 20.601,3.459 20.308,3.752 L18.894,5.166 C18.601,5.459 18.127,5.459 17.834,5.166 C17.541,4.873 17.541,4.399 17.834,4.106 L19.248,2.692 C19.541,2.399 20.016,2.399 20.308,2.692 Z"/>
  <path fill="#2D264B" d="M6.25,11.75 L6.25,11 C6.25,7.824 8.824,5.25 12,5.25 C15.176,5.25 17.75,7.824 17.75,11 L17.75,11.75 L6.25,11.75 Z"/>
  <path fill="#2D264B" d="M1.25,11 C1.25,10.586 1.586,10.25 2,10.25 L4,10.25 C4.414,10.25 4.75,10.586 4.75,11 C4.75,11.414 4.414,11.75 4,11.75 L2,11.75 C1.586,11.75 1.25,11.414 1.25,11 Z"/>
  <path fill="#2D264B" d="M19.25,11 C19.25,10.586 19.586,10.25 20,10.25 L22,10.25 C22.414,10.25 22.75,10.586 22.75,11 C22.75,11.414 22.414,11.75 22,11.75 L20,11.75 C19.586,11.75 19.25,11.414 19.25,11 Z"/>
  <path fill="#2D264B" d="M3.25,14 C3.25,13.586 3.586,13.25 4,13.25 L20,13.25 C20.414,13.25 20.75,13.586 20.75,14 C20.75,14.414 20.414,14.75 20,14.75 L4,14.75 C3.586,14.75 3.25,14.414 3.25,14 Z"/>
  <path fill="#2D264B" d="M6.25,18 C6.25,17.586 6.586,17.25 7,17.25 L17,17.25 C17.414,17.25 17.75,17.586 17.75,18 C17.75,18.414 17.414,18.75 17,18.75 L7,18.75 C6.586,18.75 6.25,18.414 6.25,18 Z"/>
  <path fill="#2D264B" d="M9.25,22 C9.25,21.586 9.586,21.25 10,21.25 L14,21.25 C14.414,21.25 14.75,21.586 14.75,22 C14.75,22.414 14.414,22.75 14,22.75 L10,22.75 C9.586,22.75 9.25,22.414 9.25,22 Z"/>
</svg>

