<svg xmlns="http://www.w3.org/2000/svg" width="24" height="24" viewBox="0 0 24 24">
  <defs/>
  <path fill="#2D264B" d="M12.75,1 L12.75,3 C12.75,3.414 12.414,3.75 12,3.75 C11.586,3.75 11.25,3.414 11.25,3 L11.25,1 C11.25,0.586 11.586,0.25 12,0.25 C12.414,0.25 12.75,0.586 12.75,1 Z"/>
  <path fill="#2D264B" d="M4.752,3.691 L6.166,5.106 C6.459,5.399 6.459,5.873 6.166,6.166 C5.873,6.459 5.399,6.459 5.106,6.166 L3.691,4.752 C3.399,4.459 3.399,3.984 3.691,3.691 C3.984,3.399 4.459,3.399 4.752,3.691 Z"/>
  <path fill="#2D264B" d="M20.309,4.752 L18.894,6.166 C18.601,6.459 18.126,6.459 17.834,6.166 C17.541,5.873 17.541,5.399 17.834,5.106 L19.248,3.691 C19.541,3.399 20.016,3.399 20.309,3.691 C20.601,3.984 20.601,4.459 20.309,4.752 Z"/>
  <path fill="#2D264B" d="M12,5.25 C15.728,5.25 18.75,8.272 18.75,12 C18.75,15.728 15.728,18.75 12,18.75 C8.272,18.75 5.25,15.728 5.25,12 C5.25,8.272 8.272,5.25 12,5.25 Z"/>
  <path fill="#2D264B" d="M1,11.25 L3,11.25 C3.414,11.25 3.75,11.586 3.75,12 C3.75,12.414 3.414,12.75 3,12.75 L1,12.75 C0.586,12.75 0.25,12.414 0.25,12 C0.25,11.586 0.586,11.25 1,11.25 Z"/>
  <path fill="#2D264B" d="M21,11.25 L23,11.25 C23.414,11.25 23.75,11.586 23.75,12 C23.75,12.414 23.414,12.75 23,12.75 L21,12.75 C20.586,12.75 20.25,12.414 20.25,12 C20.25,11.586 20.586,11.25 21,11.25 Z"/>
  <path fill="#2D264B" d="M6.166,18.894 L4.752,20.309 C4.459,20.601 3.984,20.601 3.691,20.309 C3.399,20.016 3.399,19.541 3.691,19.248 L5.106,17.834 C5.399,17.541 5.873,17.541 6.166,17.834 C6.459,18.126 6.459,18.601 6.166,18.894 Z"/>
  <path fill="#2D264B" d="M18.894,17.834 L20.309,19.248 C20.601,19.541 20.601,20.016 20.309,20.309 C20.016,20.601 19.541,20.601 19.248,20.309 L17.834,18.894 C17.541,18.601 17.541,18.126 17.834,17.834 C18.126,17.541 18.601,17.541 18.894,17.834 Z"/>
  <path fill="#2D264B" d="M12.75,21 L12.75,23 C12.75,23.414 12.414,23.75 12,23.75 C11.586,23.75 11.25,23.414 11.25,23 L11.25,21 C11.25,20.586 11.586,20.25 12,20.25 C12.414,20.25 12.75,20.586 12.75,21 Z"/>
</svg>

