<svg xmlns="http://www.w3.org/2000/svg" width="24" height="24" viewBox="0 0 24 24">
  <defs/>
  <path fill="#2D264B" d="M4,13.25 L20,13.25 Q20.311,13.25 20.53,13.47 Q20.75,13.689 20.75,14 Q20.75,14.311 20.53,14.53 Q20.311,14.75 20,14.75 L4,14.75 Q3.689,14.75 3.47,14.53 Q3.25,14.311 3.25,14 Q3.25,13.689 3.47,13.47 Q3.689,13.25 4,13.25 Z M6.25,11 Q6.25,8.618 7.934,6.934 Q9.618,5.25 12,5.25 Q14.382,5.25 16.066,6.934 Q17.75,8.618 17.75,11 Q17.75,11.311 17.53,11.53 Q17.311,11.75 17,11.75 Q16.689,11.75 16.47,11.53 Q16.25,11.311 16.25,11 Q16.25,9.24 15.005,7.995 Q13.76,6.75 12,6.75 Q10.24,6.75 8.995,7.995 Q7.75,9.24 7.75,11 Q7.75,11.311 7.53,11.53 Q7.311,11.75 7,11.75 Q6.689,11.75 6.47,11.53 Q6.25,11.311 6.25,11 Z M7,17.25 L17,17.25 Q17.311,17.25 17.53,17.47 Q17.75,17.689 17.75,18 Q17.75,18.311 17.53,18.53 Q17.311,18.75 17,18.75 L7,18.75 Q6.689,18.75 6.47,18.53 Q6.25,18.311 6.25,18 Q6.25,17.689 6.47,17.47 Q6.689,17.25 7,17.25 Z M10,21.25 L14,21.25 Q14.311,21.25 14.53,21.47 Q14.75,21.689 14.75,22 Q14.75,22.311 14.53,22.53 Q14.311,22.75 14,22.75 L10,22.75 Q9.689,22.75 9.47,22.53 Q9.25,22.311 9.25,22 Q9.25,21.689 9.47,21.47 Q9.689,21.25 10,21.25 Z M12.75,1 L12.75,3 Q12.75,3.311 12.53,3.53 Q12.311,3.75 12,3.75 Q11.689,3.75 11.47,3.53 Q11.25,3.311 11.25,3 L11.25,1 Q11.25,0.689 11.47,0.47 Q11.689,0.25 12,0.25 Q12.311,0.25 12.53,0.47 Q12.75,0.689 12.75,1 Z M4,11.75 L2,11.75 Q1.689,11.75 1.47,11.53 Q1.25,11.311 1.25,11 Q1.25,10.689 1.47,10.47 Q1.689,10.25 2,10.25 L4,10.25 Q4.311,10.25 4.53,10.47 Q4.75,10.689 4.75,11 Q4.75,11.311 4.53,11.53 Q4.311,11.75 4,11.75 Z M22,11.75 L20,11.75 Q19.689,11.75 19.47,11.53 Q19.25,11.311 19.25,11 Q19.25,10.689 19.47,10.47 Q19.689,10.25 20,10.25 L22,10.25 Q22.311,10.25 22.53,10.47 Q22.75,10.689 22.75,11 Q22.75,11.311 22.53,11.53 Q22.311,11.75 22,11.75 Z M5.106,5.166 L3.691,3.752 Q3.472,3.533 3.472,3.222 Q3.472,2.911 3.691,2.692 Q3.911,2.472 4.222,2.472 Q4.532,2.472 4.752,2.692 L6.166,4.106 Q6.386,4.325 6.386,4.636 Q6.386,4.947 6.166,5.166 Q5.947,5.386 5.636,5.386 Q5.325,5.386 5.106,5.166 Z M20.309,3.752 L18.894,5.166 Q18.675,5.386 18.364,5.386 Q18.053,5.386 17.834,5.166 Q17.614,4.947 17.614,4.636 Q17.614,4.325 17.834,4.106 L19.248,2.692 Q19.468,2.472 19.778,2.472 Q20.089,2.472 20.309,2.692 Q20.528,2.911 20.528,3.222 Q20.528,3.532 20.309,3.752 Z"/>
</svg>

