<svg xmlns="http://www.w3.org/2000/svg" width="24" height="24" viewBox="0 0 24 24">
  <defs/>
  <path fill="#2D264B" d="M15.206,4.113 C15.61,3.707 16.058,3.371 16.631,3.279 C16.753,3.26 16.877,3.25 17,3.25 C17.123,3.25 17.247,3.26 17.369,3.279 C17.942,3.371 18.39,3.707 18.794,4.113 C19.188,4.508 19.628,5.063 20.161,5.735 L21.588,7.534 C21.845,7.859 21.791,8.33 21.466,8.588 C21.141,8.845 20.67,8.791 20.412,8.466 L19.015,6.703 C18.456,5.999 18.073,5.517 17.75,5.19 L17.75,18 C17.75,18.414 17.414,18.75 17,18.75 C16.586,18.75 16.25,18.414 16.25,18 L16.25,5.19 C15.927,5.517 15.544,5.999 14.986,6.703 L13.588,8.466 C13.33,8.791 12.859,8.845 12.534,8.588 C12.21,8.33 12.155,7.859 12.412,7.534 L13.839,5.735 C14.372,5.063 14.812,4.508 15.206,4.113 Z"/>
  <path fill="#2D264B" d="M7.75,5 C7.75,4.586 7.414,4.25 7,4.25 C6.586,4.25 6.25,4.586 6.25,5 L6.25,17.811 C5.927,17.483 5.544,17.001 4.986,16.297 L3.588,14.534 C3.33,14.21 2.859,14.155 2.534,14.412 C2.209,14.67 2.155,15.141 2.412,15.466 L3.839,17.265 C4.372,17.937 4.812,18.492 5.206,18.887 C5.61,19.293 6.058,19.629 6.631,19.721 C6.753,19.74 6.877,19.75 7,19.75 C7.123,19.75 7.247,19.74 7.369,19.721 C7.942,19.629 8.39,19.293 8.795,18.887 C9.188,18.492 9.628,17.937 10.162,17.265 L11.588,15.466 C11.845,15.141 11.791,14.67 11.466,14.412 C11.141,14.155 10.67,14.21 10.412,14.534 L9.014,16.297 C8.456,17.001 8.073,17.483 7.75,17.811 L7.75,5 Z"/>
</svg>

