<svg width="24" height="24" viewBox="0 0 24 24" fill="none" xmlns="http://www.w3.org/2000/svg">
<path fill-rule="evenodd" clip-rule="evenodd" d="M3.95491 5.06107C3 6.3754 3 8.25027 3 12C3 15.7497 3 17.6246 3.95491 18.9389C4.26331 19.3634 4.6366 19.7367 5.06107 20.0451C6.3754 21 8.25027 21 12 21C15.7497 21 17.6246 21 18.9389 20.0451C19.3634 19.7367 19.7367 19.3634 20.0451 18.9389C21 17.6246 21 15.7497 21 12C21 8.25027 21 6.3754 20.0451 5.06107C19.7367 4.6366 19.3634 4.26331 18.9389 3.95491C17.6246 3 15.7497 3 12 3C8.25027 3 6.3754 3 5.06107 3.95491C4.6366 4.26331 4.26331 4.6366 3.95491 5.06107ZM13.96 6.89858C14.2429 6.61458 14.5884 6.34588 15.0483 6.2726C15.1427 6.25757 15.2379 6.25 15.3334 6.25C15.4289 6.25 15.5242 6.25757 15.6185 6.2726C16.0785 6.34588 16.424 6.61458 16.7069 6.89858C16.9795 7.17232 17.2805 7.55188 17.6294 7.99197L18.5878 9.2007C18.8451 9.52527 18.7906 9.997 18.4661 10.2544C18.1415 10.5117 17.6697 10.4572 17.4124 10.1326L16.4805 8.95732C16.3289 8.76614 16.1985 8.6019 16.0834 8.46043V16.3333C16.0834 16.7475 15.7476 17.0833 15.3334 17.0833C14.9192 17.0833 14.5834 16.7475 14.5834 16.3333V8.46044C14.4684 8.6019 14.3379 8.76614 14.1863 8.95732L13.2544 10.1326C12.9971 10.4572 12.5253 10.5117 12.2008 10.2544C11.8762 9.997 11.8217 9.52527 12.0791 9.2007L13.0374 7.99199C13.3864 7.5519 13.6873 7.17233 13.96 6.89858ZM9.41667 7.6665C9.41667 7.25229 9.08088 6.9165 8.66667 6.9165C8.25245 6.9165 7.91667 7.25229 7.91667 7.6665L7.91667 15.5394C7.80163 15.3979 7.67117 15.2337 7.51958 15.0425L6.58768 13.8672C6.33034 13.5426 5.8586 13.4881 5.53403 13.7455C5.20946 14.0028 5.15497 14.4746 5.41232 14.7991L6.37069 16.0079C6.71961 16.4479 7.02053 16.8275 7.29323 17.1013C7.57613 17.3853 7.92161 17.654 8.38155 17.7272C8.47591 17.7423 8.57119 17.7498 8.66667 17.7498C8.76215 17.7498 8.85742 17.7423 8.95179 17.7272C9.41173 17.654 9.7572 17.3853 10.0401 17.1013C10.3128 16.8275 10.6137 16.448 10.9626 16.0079L11.921 14.7991C12.1784 14.4746 12.1239 14.0028 11.7993 13.7455C11.4747 13.4881 11.003 13.5426 10.7457 13.8672L9.81375 15.0425C9.66217 15.2337 9.53171 15.3979 9.41667 15.5394L9.41667 7.6665Z" fill="#2D264B"/>
</svg>
