<svg xmlns="http://www.w3.org/2000/svg" width="24" height="24" viewBox="0 0 24 24">
  <defs/>
  <path fill="#2D264B" d="M7.75,5 C7.75,4.586 7.414,4.25 7,4.25 C6.586,4.25 6.25,4.586 6.25,5 L7.75,5 Z M3.588,14.534 C3.33,14.21 2.859,14.155 2.534,14.412 C2.209,14.67 2.155,15.141 2.412,15.466 L3.588,14.534 Z M11.588,15.466 C11.845,15.141 11.79,14.67 11.466,14.412 C11.141,14.155 10.67,14.21 10.412,14.534 L11.588,15.466 Z M16.25,18 C16.25,18.414 16.586,18.75 17,18.75 C17.414,18.75 17.75,18.414 17.75,18 L16.25,18 Z M12.412,7.534 C12.155,7.859 12.21,8.33 12.534,8.588 C12.859,8.845 13.33,8.791 13.588,8.466 L12.412,7.534 Z M20.412,8.466 C20.67,8.791 21.141,8.845 21.466,8.588 C21.791,8.33 21.845,7.859 21.588,7.534 L20.412,8.466 Z M6.25,5 L6.25,18 L7.75,18 L7.75,5 L6.25,5 Z M2.412,15.466 L3.81,17.229 L4.986,16.297 L3.588,14.534 L2.412,15.466 Z M10.19,17.229 L11.588,15.466 L10.412,14.534 L9.014,16.297 L10.19,17.229 Z M3.81,17.229 C4.356,17.918 4.805,18.485 5.206,18.887 C5.61,19.293 6.058,19.629 6.631,19.721 L6.867,18.239 C6.761,18.223 6.591,18.153 6.268,17.829 C5.942,17.501 5.554,17.014 4.986,16.297 L3.81,17.229 Z M9.014,16.297 C8.446,17.014 8.058,17.501 7.732,17.829 C7.409,18.153 7.239,18.223 7.133,18.239 L7.369,19.721 C7.942,19.629 8.39,19.293 8.794,18.887 C9.195,18.485 9.644,17.918 10.19,17.229 L9.014,16.297 Z M17.75,18 L17.75,5 L16.25,5 L16.25,18 L17.75,18 Z M13.588,8.466 L14.986,6.703 L13.81,5.771 L12.412,7.534 L13.588,8.466 Z M19.015,6.703 L20.412,8.466 L21.588,7.534 L20.19,5.771 L19.015,6.703 Z M14.986,6.703 C15.554,5.986 15.942,5.499 16.268,5.171 C16.591,4.847 16.761,4.777 16.867,4.761 L16.631,3.279 C16.058,3.371 15.61,3.707 15.206,4.113 C14.805,4.515 14.356,5.082 13.81,5.771 L14.986,6.703 Z M20.19,5.771 C19.644,5.082 19.195,4.515 18.794,4.113 C18.39,3.707 17.942,3.371 17.369,3.279 L17.133,4.761 C17.239,4.777 17.409,4.847 17.732,5.171 C18.058,5.499 18.446,5.986 19.015,6.703 L20.19,5.771 Z M16.867,4.761 C16.912,4.753 16.956,4.75 17,4.75 L17,3.25 C16.877,3.25 16.753,3.26 16.631,3.279 L16.867,4.761 Z M17,4.75 C17.044,4.75 17.088,4.753 17.133,4.761 L17.369,3.279 C17.247,3.26 17.123,3.25 17,3.25 L17,4.75 Z M17.75,5 L17.75,4 L16.25,4 L16.25,5 L17.75,5 Z M6.631,19.721 C6.753,19.74 6.877,19.75 7,19.75 L7,18.25 C6.956,18.25 6.912,18.247 6.867,18.239 L6.631,19.721 Z M7,19.75 C7.123,19.75 7.247,19.74 7.369,19.721 L7.133,18.239 C7.088,18.247 7.044,18.25 7,18.25 L7,19.75 Z M6.25,18 L6.25,19 L7.75,19 L7.75,18 L6.25,18 Z"/>
</svg>

