<svg xmlns="http://www.w3.org/2000/svg" width="24" height="24" viewBox="0 0 24 24">
  <defs/>
  <path fill="#2D264B" d="M3.955,5.061 C4.263,4.637 4.637,4.263 5.061,3.955 C6.375,3 8.25,3 12,3 C15.75,3 17.625,3 18.939,3.955 C19.363,4.263 19.737,4.637 20.045,5.061 C21,6.375 21,8.25 21,12 C21,15.75 21,17.625 20.045,18.939 C19.737,19.363 19.363,19.737 18.939,20.045 C17.625,21 15.75,21 12,21 C8.25,21 6.375,21 5.061,20.045 C4.637,19.737 4.263,19.363 3.955,18.939 C3,17.625 3,15.75 3,12 C3,8.25 3,6.375 3.955,5.061 Z M9.417,7.667 C9.417,7.252 9.081,6.917 8.667,6.917 C8.252,6.917 7.917,7.252 7.917,7.667 L7.917,15.539 C7.802,15.398 7.671,15.234 7.52,15.042 L6.588,13.867 C6.33,13.543 5.859,13.488 5.534,13.745 C5.209,14.003 5.155,14.475 5.412,14.799 L6.371,16.008 C6.72,16.448 7.021,16.827 7.293,17.101 C7.576,17.385 7.922,17.654 8.382,17.727 C8.476,17.742 8.571,17.75 8.667,17.75 C8.762,17.75 8.857,17.742 8.952,17.727 C9.412,17.654 9.757,17.385 10.04,17.101 C10.313,16.827 10.614,16.448 10.963,16.008 L11.921,14.799 C12.178,14.475 12.124,14.003 11.799,13.745 C11.475,13.488 11.003,13.543 10.746,13.867 L9.814,15.042 C9.662,15.234 9.532,15.398 9.417,15.539 Z M13.96,6.899 C13.687,7.172 13.386,7.552 13.037,7.992 L12.079,9.201 C11.822,9.525 11.876,9.997 12.201,10.254 C12.525,10.512 12.997,10.457 13.254,10.133 L14.186,8.957 C14.338,8.766 14.468,8.602 14.583,8.46 L14.583,16.333 C14.583,16.747 14.919,17.083 15.333,17.083 C15.748,17.083 16.083,16.747 16.083,16.333 L16.083,8.46 C16.198,8.602 16.329,8.766 16.48,8.957 L17.412,10.133 C17.67,10.457 18.142,10.512 18.466,10.254 C18.791,9.997 18.845,9.525 18.588,9.201 L17.629,7.992 C17.281,7.552 16.979,7.172 16.707,6.899 C16.424,6.615 16.079,6.346 15.618,6.273 C15.524,6.258 15.429,6.25 15.333,6.25 C15.238,6.25 15.143,6.258 15.048,6.273 C14.588,6.346 14.243,6.615 13.96,6.899 Z"/>
</svg>

