<svg width="24" height="24" viewBox="0 0 24 24" fill="none" xmlns="http://www.w3.org/2000/svg">
<path d="M15.2055 4.11252C15.6097 3.70685 16.0582 3.37055 16.6314 3.27923C16.7535 3.25978 16.8766 3.25 17 3.25C17.1234 3.25 17.2466 3.25978 17.3687 3.27923C17.9419 3.37055 18.3904 3.70685 18.7945 4.11252C19.1883 4.50783 19.6283 5.06274 20.1614 5.73522L21.5877 7.53403C21.8451 7.8586 21.7906 8.33034 21.466 8.58768C21.1414 8.84503 20.6697 8.79054 20.4123 8.46597L19.0145 6.703C18.4563 5.99898 18.0727 5.51697 17.75 5.18952L17.75 18C17.75 18.4142 17.4142 18.75 17 18.75C16.5858 18.75 16.25 18.4142 16.25 18L16.25 5.18952C15.9274 5.51697 15.5438 5.99897 14.9856 6.703L13.5877 8.46597C13.3304 8.79054 12.8586 8.84503 12.5341 8.58768C12.2095 8.33034 12.155 7.8586 12.4123 7.53403L13.8386 5.73521C14.3718 5.06274 14.8118 4.50783 15.2055 4.11252Z" fill="#2D264B"/>
<path d="M7.75003 5C7.75003 4.58579 7.41424 4.25 7.00003 4.25C6.58581 4.25 6.25003 4.58579 6.25003 5L6.25003 17.8105C5.92737 17.483 5.54378 17.001 4.98556 16.297L3.58771 14.534C3.33036 14.2095 2.85863 14.155 2.53406 14.4123C2.20949 14.6697 2.155 15.1414 2.41235 15.466L3.8386 17.2648C4.37178 17.9373 4.81175 18.4922 5.20554 18.8875C5.60965 19.2932 6.05819 19.6294 6.63136 19.7208C6.75347 19.7402 6.87664 19.75 7.00003 19.75C7.12341 19.75 7.24659 19.7402 7.3687 19.7208C7.94187 19.6294 8.39041 19.2932 8.79452 18.8875C9.18831 18.4922 9.62828 17.9372 10.1615 17.2648L11.5877 15.466C11.8451 15.1414 11.7906 14.6697 11.466 14.4123C11.1414 14.155 10.6697 14.2095 10.4123 14.534L9.0145 16.297C8.45628 17.001 8.07269 17.483 7.75003 17.8105L7.75003 5Z" fill="#2D264B"/>
</svg>
