<svg xmlns="http://www.w3.org/2000/svg" width="24" height="24" viewBox="0 0 24 24">
  <defs/>
  <path fill="#2D264B" d="M9.417,7.667 C9.417,7.252 9.081,6.917 8.667,6.917 C8.252,6.917 7.917,7.252 7.917,7.667 L9.417,7.667 Z M6.588,13.867 C6.33,13.543 5.859,13.488 5.534,13.745 C5.209,14.003 5.155,14.475 5.412,14.799 L6.588,13.867 Z M11.921,14.799 C12.178,14.475 12.124,14.003 11.799,13.745 C11.475,13.488 11.003,13.543 10.746,13.867 L11.921,14.799 Z M14.583,16.333 C14.583,16.747 14.919,17.083 15.333,17.083 C15.748,17.083 16.083,16.747 16.083,16.333 L14.583,16.333 Z M12.079,9.201 C11.822,9.525 11.876,9.997 12.201,10.254 C12.525,10.512 12.997,10.457 13.254,10.133 L12.079,9.201 Z M17.412,10.133 C17.67,10.457 18.142,10.512 18.466,10.254 C18.791,9.997 18.845,9.525 18.588,9.201 L17.412,10.133 Z M7.917,7.667 L7.917,16.333 L9.417,16.333 L9.417,7.667 L7.917,7.667 Z M5.412,14.799 L6.344,15.975 L7.52,15.043 L6.588,13.867 L5.412,14.799 Z M10.989,15.975 L11.921,14.799 L10.746,13.867 L9.814,15.043 L10.989,15.975 Z M6.344,15.975 C6.704,16.429 7.014,16.821 7.293,17.101 C7.576,17.385 7.922,17.654 8.382,17.727 L8.618,16.246 C8.616,16.246 8.613,16.245 8.606,16.243 C8.599,16.24 8.586,16.234 8.565,16.221 C8.521,16.193 8.454,16.141 8.356,16.043 C8.151,15.837 7.903,15.525 7.52,15.043 L6.344,15.975 Z M9.814,15.043 C9.431,15.525 9.183,15.837 8.977,16.043 C8.88,16.141 8.813,16.193 8.768,16.221 C8.747,16.234 8.734,16.24 8.727,16.243 C8.72,16.245 8.717,16.246 8.716,16.246 L8.952,17.727 C9.412,17.654 9.757,17.385 10.04,17.101 C10.32,16.821 10.629,16.429 10.989,15.975 L9.814,15.043 Z M16.083,16.333 L16.083,7.667 L14.583,7.667 L14.583,16.333 L16.083,16.333 Z M13.254,10.133 L14.186,8.957 L13.011,8.025 L12.079,9.201 L13.254,10.133 Z M16.48,8.957 L17.412,10.133 L18.588,9.201 L17.656,8.025 L16.48,8.957 Z M14.186,8.957 C14.569,8.474 14.817,8.163 15.023,7.957 C15.121,7.859 15.188,7.807 15.232,7.779 C15.253,7.766 15.266,7.76 15.273,7.757 C15.28,7.755 15.283,7.754 15.284,7.754 L15.048,6.273 C14.588,6.346 14.243,6.615 13.96,6.899 C13.68,7.179 13.371,7.571 13.011,8.025 L14.186,8.957 Z M17.656,8.025 C17.296,7.571 16.986,7.179 16.707,6.899 C16.424,6.615 16.078,6.346 15.618,6.273 L15.383,7.754 C15.384,7.754 15.387,7.755 15.394,7.757 C15.401,7.76 15.414,7.766 15.435,7.779 C15.479,7.807 15.546,7.859 15.644,7.957 C15.849,8.163 16.098,8.474 16.48,8.957 L17.656,8.025 Z M12,20.25 C10.108,20.25 8.75,20.249 7.698,20.135 C6.66,20.023 6.01,19.807 5.502,19.438 L4.62,20.652 C5.427,21.238 6.371,21.5 7.536,21.626 C8.688,21.751 10.142,21.75 12,21.75 L12,20.25 Z M2.25,12 C2.25,13.858 2.249,15.312 2.374,16.463 C2.5,17.629 2.762,18.573 3.348,19.38 L4.562,18.498 C4.193,17.99 3.977,17.34 3.865,16.302 C3.751,15.25 3.75,13.892 3.75,12 L2.25,12 Z M5.502,19.438 C5.141,19.176 4.824,18.859 4.562,18.498 L3.348,19.38 C3.703,19.868 4.132,20.297 4.62,20.652 L5.502,19.438 Z M20.25,12 C20.25,13.892 20.249,15.25 20.135,16.302 C20.023,17.34 19.807,17.99 19.438,18.498 L20.652,19.38 C21.238,18.573 21.5,17.629 21.626,16.463 C21.751,15.312 21.75,13.858 21.75,12 L20.25,12 Z M12,21.75 C13.858,21.75 15.312,21.751 16.463,21.626 C17.629,21.5 18.573,21.238 19.38,20.652 L18.498,19.438 C17.99,19.807 17.34,20.023 16.302,20.135 C15.25,20.249 13.892,20.25 12,20.25 L12,21.75 Z M19.438,18.498 C19.176,18.859 18.859,19.176 18.498,19.438 L19.38,20.652 C19.868,20.297 20.297,19.868 20.652,19.38 L19.438,18.498 Z M12,3.75 C13.892,3.75 15.25,3.751 16.302,3.865 C17.34,3.977 17.99,4.193 18.498,4.562 L19.38,3.348 C18.573,2.762 17.629,2.5 16.463,2.374 C15.312,2.249 13.858,2.25 12,2.25 L12,3.75 Z M21.75,12 C21.75,10.142 21.751,8.688 21.626,7.536 C21.5,6.371 21.238,5.427 20.652,4.62 L19.438,5.502 C19.807,6.01 20.023,6.66 20.135,7.698 C20.249,8.75 20.25,10.108 20.25,12 L21.75,12 Z M18.498,4.562 C18.859,4.824 19.176,5.141 19.438,5.502 L20.652,4.62 C20.297,4.132 19.868,3.703 19.38,3.348 L18.498,4.562 Z M12,2.25 C10.142,2.25 8.688,2.249 7.536,2.374 C6.371,2.5 5.427,2.762 4.62,3.348 L5.502,4.562 C6.01,4.193 6.66,3.977 7.698,3.865 C8.75,3.751 10.108,3.75 12,3.75 L12,2.25 Z M3.75,12 C3.75,10.108 3.751,8.75 3.865,7.698 C3.977,6.66 4.193,6.01 4.562,5.502 L3.348,4.62 C2.762,5.427 2.5,6.371 2.374,7.536 C2.249,8.688 2.25,10.142 2.25,12 L3.75,12 Z M4.62,3.348 C4.132,3.703 3.703,4.132 3.348,4.62 L4.562,5.502 C4.824,5.141 5.141,4.824 5.502,4.562 L4.62,3.348 Z M15.284,7.754 C15.301,7.751 15.317,7.75 15.333,7.75 L15.333,6.25 C15.238,6.25 15.143,6.258 15.048,6.273 L15.284,7.754 Z M15.333,7.75 C15.35,7.75 15.366,7.751 15.383,7.754 L15.618,6.273 C15.524,6.258 15.429,6.25 15.333,6.25 L15.333,7.75 Z M16.083,7.667 L16.083,7 L14.583,7 L14.583,7.667 L16.083,7.667 Z M8.382,17.727 C8.476,17.742 8.571,17.75 8.667,17.75 L8.667,16.25 C8.651,16.25 8.634,16.249 8.618,16.246 L8.382,17.727 Z M8.667,17.75 C8.762,17.75 8.857,17.742 8.952,17.727 L8.716,16.246 C8.699,16.249 8.683,16.25 8.667,16.25 L8.667,17.75 Z M7.917,16.333 L7.917,17 L9.417,17 L9.417,16.333 L7.917,16.333 Z"/>
</svg>

