<svg xmlns="http://www.w3.org/2000/svg" width="24" height="24" viewBox="0 0 24 24">
  <defs/>
  <path fill="#2D264B" d="M10.646,2.16 Q13.588,1.232 14.531,1.251 Q17.7,1.314 19.339,4.026 Q19.827,4.834 20.494,7.843 L20.495,7.845 L20.495,7.848 Q20.756,9.023 20.785,9.449 Q20.879,10.79 20.369,12.033 Q20.207,12.428 19.589,13.464 L17.131,17.587 Q15.737,19.925 15.105,20.5 Q12.873,22.531 9.932,21.847 Q9.1,21.653 6.743,20.292 Q4.386,18.931 3.802,18.308 Q1.739,16.103 2.382,13.154 Q2.564,12.32 3.891,9.944 L3.892,9.943 L6.233,5.753 L6.233,5.753 Q6.821,4.7 7.083,4.362 Q7.904,3.299 9.112,2.709 Q9.496,2.522 10.646,2.16 Z M11.097,3.59 Q10.054,3.919 9.77,4.058 Q8.877,4.493 8.27,5.279 Q8.077,5.529 7.543,6.484 L7.543,6.484 L5.201,10.675 L5.201,10.675 Q3.982,12.857 3.848,13.473 Q3.372,15.653 4.897,17.283 Q5.329,17.744 7.493,18.993 Q9.657,20.243 10.272,20.386 Q12.446,20.892 14.096,19.39 Q14.563,18.965 15.843,16.819 L18.301,12.696 Q18.861,11.756 18.981,11.464 Q19.358,10.545 19.289,9.554 Q19.267,9.239 19.031,8.172 L19.03,8.17 L19.03,8.168 Q18.416,5.399 18.055,4.802 Q16.844,2.797 14.502,2.75 Q13.804,2.737 11.097,3.59 Z"/>
  <path fill="#2D264B" d="M11.257,7.206 L11.257,7.206 Q11.775,6.309 12.775,6.041 Q13.775,5.773 14.672,6.291 Q15.569,6.809 15.837,7.809 Q16.105,8.809 15.587,9.706 Q14.337,11.871 12.172,10.621 Q11.275,10.104 11.007,9.103 Q10.739,8.103 11.257,7.206 Z M12.556,7.956 Q12.349,8.315 12.456,8.715 Q12.563,9.115 12.922,9.322 Q13.788,9.822 14.288,8.956 Q14.495,8.597 14.388,8.197 Q14.281,7.797 13.922,7.59 Q13.563,7.383 13.163,7.49 Q12.763,7.597 12.556,7.956 Z"/>
</svg>

