<svg xmlns="http://www.w3.org/2000/svg" width="24" height="24" viewBox="0 0 24 24">
  <defs/>
  <path fill="#2D264B" d="M12.556,7.956 C12.28,8.434 12.444,9.046 12.922,9.322 C13.4,9.598 14.012,9.434 14.288,8.956 C14.564,8.478 14.4,7.866 13.922,7.59 C13.444,7.314 12.832,7.478 12.556,7.956 Z"/>
  <path fill="#2D264B" d="M10.812,2.107 L10.812,2.107 C12.536,1.563 13.587,1.232 14.531,1.251 C16.504,1.29 18.319,2.338 19.339,4.026 C19.828,4.835 20.066,5.911 20.457,7.676 L20.508,7.906 C20.661,8.597 20.755,9.022 20.785,9.449 C20.847,10.331 20.705,11.215 20.369,12.033 C20.207,12.429 19.984,12.803 19.621,13.411 L17.054,17.716 C16.237,19.087 15.738,19.924 15.105,20.5 C13.707,21.772 11.773,22.275 9.932,21.847 C9.099,21.653 8.256,21.166 6.874,20.368 L6.612,20.217 C5.23,19.419 4.386,18.932 3.802,18.308 C2.51,16.927 1.979,15.001 2.382,13.154 C2.564,12.318 3.039,11.468 3.818,10.075 L6.263,5.699 C6.609,5.081 6.821,4.701 7.083,4.362 C7.623,3.662 8.318,3.097 9.112,2.709 C9.497,2.522 9.912,2.391 10.587,2.178 Z M11.257,7.206 C10.566,8.402 10.976,9.931 12.172,10.621 C13.368,11.312 14.896,10.902 15.587,9.706 C16.277,8.51 15.868,6.981 14.672,6.291 C13.476,5.601 11.947,6.01 11.257,7.206 Z"/>
</svg>

