<svg xmlns="http://www.w3.org/2000/svg" width="24" height="24" viewBox="0 0 24 24">
  <defs/>
  <path fill="#2D264B" d="M5,13.25 L19,13.25 Q19.311,13.25 19.53,13.47 Q19.75,13.689 19.75,14 Q19.75,14.311 19.53,14.53 Q19.311,14.75 19,14.75 L5,14.75 Q4.689,14.75 4.47,14.53 Q4.25,14.311 4.25,14 Q4.25,13.689 4.47,13.47 Q4.689,13.25 5,13.25 Z M5,17.25 L19,17.25 Q19.311,17.25 19.53,17.47 Q19.75,17.689 19.75,18 Q19.75,18.311 19.53,18.53 Q19.311,18.75 19,18.75 L5,18.75 Q4.689,18.75 4.47,18.53 Q4.25,18.311 4.25,18 Q4.25,17.689 4.47,17.47 Q4.689,17.25 5,17.25 Z M5,9.25 L11,9.25 Q11.311,9.25 11.53,9.47 Q11.75,9.689 11.75,10 Q11.75,10.311 11.53,10.53 Q11.311,10.75 11,10.75 L5,10.75 Q4.689,10.75 4.47,10.53 Q4.25,10.311 4.25,10 Q4.25,9.689 4.47,9.47 Q4.689,9.25 5,9.25 Z M5,5.25 L11,5.25 Q11.311,5.25 11.53,5.47 Q11.75,5.689 11.75,6 Q11.75,6.311 11.53,6.53 Q11.311,6.75 11,6.75 L5,6.75 Q4.689,6.75 4.47,6.53 Q4.25,6.311 4.25,6 Q4.25,5.689 4.47,5.47 Q4.689,5.25 5,5.25 Z"/>
</svg>

