<svg width="24" height="24" viewBox="0 0 24 24" fill="none" xmlns="http://www.w3.org/2000/svg">
<path fill-rule="evenodd" clip-rule="evenodd" d="M11.9548 2.25H12.0452C13.8818 2.24999 15.3214 2.24999 16.4635 2.37373C17.6291 2.50001 18.5734 2.76232 19.3798 3.34815C19.8679 3.70281 20.2972 4.13209 20.6518 4.62024C21.2377 5.42656 21.5 6.37094 21.6263 7.53648C21.75 8.67859 21.75 10.1182 21.75 11.9547V12.0453C21.75 13.8818 21.75 15.3214 21.6263 16.4635C21.5 17.6291 21.2377 18.5734 20.6518 19.3798C20.2972 19.8679 19.8679 20.2972 19.3798 20.6518C18.5734 21.2377 17.6291 21.5 16.4635 21.6263C15.3214 21.75 13.8818 21.75 12.0453 21.75H11.9547C10.1182 21.75 8.67859 21.75 7.53648 21.6263C6.37094 21.5 5.42656 21.2377 4.62024 20.6518C4.13209 20.2972 3.70281 19.8679 3.34815 19.3798C2.76232 18.5734 2.50001 17.6291 2.37373 16.4635C2.24999 15.3214 2.24999 13.8818 2.25 12.0452V11.9548C2.24999 10.1182 2.24999 8.67861 2.37373 7.53648C2.50001 6.37094 2.76232 5.42656 3.34815 4.62024C3.70281 4.13209 4.13209 3.70281 4.62024 3.34815C5.42656 2.76232 6.37094 2.50001 7.53648 2.37373C8.67861 2.24999 10.1182 2.24999 11.9548 2.25ZM10 6.25C8.48122 6.25 7.25 7.48122 7.25 9V10C7.25 10.4142 7.58579 10.75 8 10.75C8.41421 10.75 8.75 10.4142 8.75 10V9C8.75 8.30964 9.30964 7.75 10 7.75H11.25V16.25H10C9.58579 16.25 9.25 16.5858 9.25 17C9.25 17.4142 9.58579 17.75 10 17.75H14C14.4142 17.75 14.75 17.4142 14.75 17C14.75 16.5858 14.4142 16.25 14 16.25H12.75V7.75H14C14.6904 7.75 15.25 8.30964 15.25 9V10C15.25 10.4142 15.5858 10.75 16 10.75C16.4142 10.75 16.75 10.4142 16.75 10V9C16.75 7.48122 15.5188 6.25 14 6.25H10Z" fill="#2D264B"/>
</svg>
