<svg xmlns="http://www.w3.org/2000/svg" width="24" height="24" viewBox="0 0 24 24">
  <defs/>
  <path fill="#2D264B" d="M5,5.25 C4.586,5.25 4.25,5.586 4.25,6 C4.25,6.414 4.586,6.75 5,6.75 L19,6.75 C19.414,6.75 19.75,6.414 19.75,6 C19.75,5.586 19.414,5.25 19,5.25 L5,5.25 Z"/>
  <path fill="#2D264B" d="M5,9.25 C4.586,9.25 4.25,9.586 4.25,10 C4.25,10.414 4.586,10.75 5,10.75 L19,10.75 C19.414,10.75 19.75,10.414 19.75,10 C19.75,9.586 19.414,9.25 19,9.25 L5,9.25 Z"/>
  <path fill="#2D264B" d="M5,13.25 C4.586,13.25 4.25,13.586 4.25,14 C4.25,14.414 4.586,14.75 5,14.75 L19,14.75 C19.414,14.75 19.75,14.414 19.75,14 C19.75,13.586 19.414,13.25 19,13.25 L5,13.25 Z"/>
  <path fill="#2D264B" d="M5,17.25 C4.586,17.25 4.25,17.586 4.25,18 C4.25,18.414 4.586,18.75 5,18.75 L19,18.75 C19.414,18.75 19.75,18.414 19.75,18 C19.75,17.586 19.414,17.25 19,17.25 L5,17.25 Z"/>
</svg>

