<svg xmlns="http://www.w3.org/2000/svg" width="24" height="24" viewBox="0 0 24 24">
  <defs/>
  <path fill="#2D264B" d="M5,5.25 L19,5.25 Q19.311,5.25 19.53,5.47 Q19.75,5.689 19.75,6 Q19.75,6.311 19.53,6.53 Q19.311,6.75 19,6.75 L5,6.75 Q4.689,6.75 4.47,6.53 Q4.25,6.311 4.25,6 Q4.25,5.689 4.47,5.47 Q4.689,5.25 5,5.25 Z M5,13.25 L19,13.25 Q19.311,13.25 19.53,13.47 Q19.75,13.689 19.75,14 Q19.75,14.311 19.53,14.53 Q19.311,14.75 19,14.75 L5,14.75 Q4.689,14.75 4.47,14.53 Q4.25,14.311 4.25,14 Q4.25,13.689 4.47,13.47 Q4.689,13.25 5,13.25 Z M9,9.25 L15,9.25 Q15.311,9.25 15.53,9.47 Q15.75,9.689 15.75,10 Q15.75,10.311 15.53,10.53 Q15.311,10.75 15,10.75 L9,10.75 Q8.689,10.75 8.47,10.53 Q8.25,10.311 8.25,10 Q8.25,9.689 8.47,9.47 Q8.689,9.25 9,9.25 Z M9,17.25 L15,17.25 Q15.311,17.25 15.53,17.47 Q15.75,17.689 15.75,18 Q15.75,18.311 15.53,18.53 Q15.311,18.75 15,18.75 L9,18.75 Q8.689,18.75 8.47,18.53 Q8.25,18.311 8.25,18 Q8.25,17.689 8.47,17.47 Q8.689,17.25 9,17.25 Z"/>
</svg>

