<svg width="24" height="24" viewBox="0 0 24 24" fill="none" xmlns="http://www.w3.org/2000/svg">
<path d="M11.733 9.9624C11.822 9.6792 12.178 9.6792 12.267 9.9624C12.4996 10.7016 13.1766 11.2247 13.965 11.2247C14.0418 11.2247 14.091 11.2475 14.1277 11.2768C14.1695 11.3103 14.2093 11.3649 14.232 11.4371C14.2779 11.5831 14.2384 11.718 14.122 11.8053C13.4993 12.2726 13.2501 13.0877 13.4815 13.8233C13.5324 13.9851 13.4748 14.1139 13.3714 14.1915C13.3185 14.2312 13.2633 14.2485 13.2174 14.2499C13.1777 14.2511 13.1245 14.2419 13.0574 14.1915C12.4286 13.7196 11.5714 13.7196 10.9426 14.1915C10.8755 14.2419 10.8223 14.2511 10.7826 14.2499C10.7367 14.2485 10.6815 14.2312 10.6286 14.1915C10.5252 14.1139 10.4676 13.9851 10.5185 13.8233C10.7499 13.0877 10.5007 12.2726 9.87801 11.8053C9.76161 11.718 9.72208 11.5831 9.76798 11.4371C9.79072 11.3649 9.83046 11.3103 9.87229 11.2768C9.90898 11.2475 9.9582 11.2247 10.035 11.2247C10.8234 11.2247 11.5004 10.7016 11.733 9.9624Z" fill="#2D264B"/>
<path fill-rule="evenodd" clip-rule="evenodd" d="M1.25 8.44444C1.25 5.57563 3.57563 3.25 6.44444 3.25H17.5556C20.4244 3.25 22.75 5.57563 22.75 8.44444C22.75 9.27618 22.273 10.0342 21.5232 10.3941L21.0358 10.6281C19.8848 11.1806 19.8848 12.8194 21.0358 13.3719L21.5232 13.6059C22.273 13.9658 22.75 14.7238 22.75 15.5556C22.75 18.4244 20.4244 20.75 17.5556 20.75H6.44444C3.57563 20.75 1.25 18.4244 1.25 15.5556C1.25 14.7238 1.72698 13.9658 2.47681 13.6059L2.96417 13.3719C4.1152 12.8194 4.1152 11.1806 2.96417 10.6281L2.47681 10.3941C1.72698 10.0342 1.25 9.27618 1.25 8.44444ZM13.6979 9.51233C13.1685 7.82922 10.8315 7.82922 10.3021 9.51233C10.258 9.65245 10.1417 9.72473 10.035 9.72473C8.25955 9.72473 7.63517 11.9975 8.97762 13.005C9.07911 13.0812 9.13287 13.2295 9.08765 13.3732C8.82931 14.1946 9.16176 14.9661 9.72817 15.3912C10.2981 15.8189 11.141 15.918 11.843 15.3912C11.9383 15.3197 12.0617 15.3197 12.157 15.3912C12.859 15.918 13.7019 15.8189 14.2718 15.3912C14.8382 14.9661 15.1707 14.1946 14.9123 13.3732C14.8671 13.2295 14.9209 13.0812 15.0224 13.005C16.3648 11.9975 15.7405 9.72473 13.965 9.72473C13.8583 9.72473 13.742 9.65245 13.6979 9.51233Z" fill="#2D264B"/>
</svg>
