<svg width="24" height="24" viewBox="0 0 24 24" fill="none" xmlns="http://www.w3.org/2000/svg">
<path fill-rule="evenodd" clip-rule="evenodd" d="M10.75 3.25V5.06667C10.75 5.48088 10.4142 5.81667 10 5.81667C9.58579 5.81667 9.25 5.48088 9.25 5.06667V3.25H6.44444C3.57563 3.25 1.25 5.57563 1.25 8.44444C1.25 9.27618 1.72698 10.0342 2.4768 10.3941L2.96417 10.6281C4.1152 11.1806 4.1152 12.8194 2.96417 13.3719L2.4768 13.6059C1.72698 13.9658 1.25 14.7238 1.25 15.5556C1.25 18.4244 3.57563 20.75 6.44444 20.75H9.25V18.9333C9.25 18.5191 9.58579 18.1833 10 18.1833C10.4142 18.1833 10.75 18.5191 10.75 18.9333V20.75H17.5556C20.4244 20.75 22.75 18.4244 22.75 15.5556C22.75 14.7238 22.273 13.9658 21.5232 13.6059L21.0358 13.3719C19.8848 12.8194 19.8848 11.1806 21.0358 10.6281L21.5232 10.3941C22.273 10.0342 22.75 9.27618 22.75 8.44444C22.75 5.57563 20.4244 3.25 17.5556 3.25H10.75ZM10 7.51667C9.58579 7.51667 9.25 7.85245 9.25 8.26667V10.4C9.25 10.8142 9.58579 11.15 10 11.15C10.4142 11.15 10.75 10.8142 10.75 10.4V8.26667C10.75 7.85245 10.4142 7.51667 10 7.51667ZM9.25 13.6C9.25 13.1858 9.58579 12.85 10 12.85C10.4142 12.85 10.75 13.1858 10.75 13.6V15.7333C10.75 16.1475 10.4142 16.4833 10 16.4833C9.58579 16.4833 9.25 16.1475 9.25 15.7333V13.6Z" fill="#2D264B"/>
</svg>
