<svg xmlns="http://www.w3.org/2000/svg" width="24" height="24" viewBox="0 0 24 24">
  <defs/>
  <path fill="#2D264B" d="M3.955,5.061 C4.263,4.637 4.637,4.263 5.061,3.955 C6.375,3 8.25,3 12,3 C15.75,3 17.625,3 18.939,3.955 C19.363,4.263 19.737,4.637 20.045,5.061 C21,6.375 21,8.25 21,12 C21,15.75 21,17.625 20.045,18.939 C19.737,19.363 19.363,19.737 18.939,20.045 C17.625,21 15.75,21 12,21 C8.25,21 6.375,21 5.061,20.045 C4.637,19.737 4.263,19.363 3.955,18.939 C3,17.625 3,15.75 3,12 C3,8.25 3,6.375 3.955,5.061 Z M17.559,9.5 C17.835,9.192 17.809,8.718 17.5,8.441 C17.192,8.165 16.718,8.191 16.441,8.5 L13.072,12.263 C12.389,13.025 11.93,13.536 11.536,13.867 C11.162,14.181 10.942,14.25 10.75,14.25 C10.558,14.25 10.338,14.181 9.963,13.867 C9.57,13.536 9.111,13.025 8.428,12.263 L7.559,11.292 C7.282,10.983 6.808,10.957 6.5,11.234 C6.191,11.51 6.165,11.984 6.441,12.293 L7.348,13.305 C7.983,14.015 8.514,14.608 8.998,15.015 C9.511,15.446 10.064,15.75 10.75,15.75 C11.436,15.75 11.989,15.446 12.502,15.015 C12.986,14.608 13.517,14.015 14.153,13.305 Z"/>
</svg>

