<svg xmlns="http://www.w3.org/2000/svg" width="24" height="24" viewBox="0 0 24 24">
  <defs/>
  <path fill="#2D264B" d="M1.25,8.444 Q1.25,6.293 2.771,4.771 Q4.293,3.25 6.444,3.25 L17.556,3.25 Q19.707,3.25 21.229,4.771 Q22.75,6.293 22.75,8.444 Q22.75,9.805 21.523,10.394 L21.036,10.628 Q20.173,11.042 20.173,12 Q20.173,12.958 21.036,13.372 L21.523,13.606 Q22.75,14.195 22.75,15.556 Q22.75,17.707 21.229,19.229 Q19.707,20.75 17.556,20.75 L6.444,20.75 Q4.293,20.75 2.771,19.229 Q1.25,17.707 1.25,15.556 Q1.25,14.195 2.477,13.606 L2.964,13.372 Q3.827,12.958 3.827,12 Q3.827,11.042 2.964,10.628 L2.477,10.394 Q1.25,9.805 1.25,8.444 Z M2.75,8.444 Q2.75,8.861 3.126,9.042 L3.613,9.276 Q5.327,10.099 5.327,12 Q5.327,13.901 3.613,14.724 L3.126,14.958 Q2.75,15.139 2.75,15.556 Q2.75,19.25 6.444,19.25 L17.556,19.25 Q21.25,19.25 21.25,15.556 Q21.25,15.139 20.874,14.958 L20.387,14.724 Q18.673,13.901 18.673,12 Q18.673,10.099 20.387,9.276 L20.874,9.042 Q21.25,8.861 21.25,8.444 Q21.25,4.75 17.556,4.75 L6.444,4.75 Q2.75,4.75 2.75,8.444 Z"/>
  <path fill="#2D264B" d="M10.302,9.512 Q10.699,8.25 12,8.25 Q13.301,8.25 13.698,9.512 Q13.765,9.725 13.965,9.725 Q15.266,9.725 15.663,10.987 Q16.054,12.231 15.022,13.005 Q14.84,13.142 14.912,13.373 Q15.304,14.617 14.272,15.391 Q13.214,16.185 12.157,15.391 Q12,15.273 11.843,15.391 Q10.786,16.185 9.728,15.391 Q8.696,14.617 9.088,13.373 Q9.16,13.142 8.978,13.005 Q7.946,12.231 8.337,10.987 Q8.734,9.725 10.035,9.725 Q10.235,9.725 10.302,9.512 Z M11.733,9.962 Q11.336,11.225 10.035,11.225 Q9.835,11.225 9.768,11.437 Q9.695,11.668 9.878,11.805 Q10.91,12.58 10.519,13.823 Q10.446,14.054 10.629,14.192 Q10.786,14.309 10.943,14.192 Q12,13.398 13.057,14.192 Q13.214,14.309 13.371,14.192 Q13.554,14.054 13.481,13.823 Q13.09,12.58 14.122,11.805 Q14.305,11.668 14.232,11.437 Q14.165,11.225 13.965,11.225 Q12.664,11.225 12.267,9.962 Q12.2,9.75 12,9.75 Q11.8,9.75 11.733,9.962 Z"/>
</svg>

