<svg width="24" height="24" viewBox="0 0 24 24" fill="none" xmlns="http://www.w3.org/2000/svg">
<path fill-rule="evenodd" clip-rule="evenodd" d="M6.44444 3.25C3.57563 3.25 1.25 5.57563 1.25 8.44444C1.25 9.27618 1.72698 10.0342 2.47681 10.3941L2.96417 10.6281C4.1152 11.1806 4.1152 12.8194 2.96417 13.3719L2.47681 13.6059C1.72698 13.9658 1.25 14.7238 1.25 15.5556C1.25 18.4244 3.57563 20.75 6.44444 20.75H17.5556C20.4244 20.75 22.75 18.4244 22.75 15.5556C22.75 14.7238 22.273 13.9658 21.5232 13.6059L21.0358 13.3719C19.8848 12.8194 19.8848 11.1806 21.0358 10.6281L21.5232 10.3941C22.273 10.0342 22.75 9.27618 22.75 8.44444C22.75 5.57563 20.4244 3.25 17.5556 3.25H6.44444ZM15.1872 8.81282C15.4801 9.10571 15.4801 9.58058 15.1872 9.87348L9.53033 15.5303C9.23744 15.8232 8.76256 15.8232 8.46967 15.5303C8.17678 15.2374 8.17678 14.7626 8.46967 14.4697L14.1265 8.81282C14.4194 8.51992 14.8943 8.51992 15.1872 8.81282ZM9 10C8.44772 10 8 9.55228 8 9C8 8.44772 8.44772 8 9 8C9.55228 8 10 8.44772 10 9C10 9.55228 9.55228 10 9 10ZM15 16C14.4477 16 14 15.5523 14 15C14 14.4477 14.4477 14 15 14C15.5523 14 16 14.4477 16 15C16 15.5523 15.5523 16 15 16Z" fill="#2D264B"/>
</svg>
