<svg xmlns="http://www.w3.org/2000/svg" width="24" height="24" viewBox="0 0 24 24">
  <defs/>
  <path fill="#2D264B" d="M9.214,6.911 Q9.336,4.711 9.992,4.055 Q10.797,3.25 13.936,3.25 L18.492,3.25 Q20.644,3.25 22.165,4.771 Q23.686,6.293 23.686,8.444 Q23.686,9.805 22.46,10.394 L21.972,10.628 Q21.109,11.042 21.109,12 Q21.109,12.958 21.972,13.372 L22.46,13.606 Q23.686,14.195 23.686,15.556 Q23.686,17.707 22.165,19.229 Q20.644,20.75 18.492,20.75 L6.82,20.75 Q4.001,20.75 2.604,18.301 L2.416,17.973 Q2.294,17.757 2.229,17.518 Q1.916,16.349 2.834,15.562 L3.359,15.111 Q4.086,14.487 3.838,13.562 Q3.59,12.637 2.649,12.46 L2.118,12.361 Q0.78,12.109 0.428,10.795 Q-0.129,8.717 0.947,6.853 Q2.023,4.99 4.101,4.433 L4.101,4.433 Q6.441,3.806 7.256,4.103 Q7.712,4.269 8.083,4.58 Q8.663,5.067 9.214,6.911 Z M18.492,19.25 Q20.022,19.25 21.104,18.168 Q22.186,17.086 22.186,15.556 Q22.186,15.139 21.81,14.958 L21.323,14.724 Q19.609,13.901 19.609,12 Q19.609,10.099 21.323,9.276 L21.81,9.042 Q22.186,8.861 22.186,8.444 Q22.186,6.914 21.104,5.832 Q20.022,4.75 18.492,4.75 L13.936,4.75 Q11.419,4.75 11.052,5.116 Q10.686,5.482 10.686,8 L10.686,12.554 Q10.69,12.605 10.686,12.655 L10.686,13 Q10.686,13.311 10.467,13.53 Q10.247,13.75 9.936,13.75 Q9.626,13.75 9.406,13.53 Q9.186,13.311 9.186,13 L9.186,12.692 L8.386,9.583 L7.925,7.866 Q7.421,5.983 7.119,5.729 Q6.95,5.588 6.743,5.512 Q6.373,5.377 4.489,5.882 L4.489,5.882 Q0.921,6.838 1.877,10.407 Q1.985,10.81 2.395,10.886 L2.926,10.986 Q4.795,11.337 5.287,13.174 Q5.779,15.011 4.336,16.249 L3.811,16.7 Q3.61,16.873 3.678,17.13 Q3.692,17.182 3.719,17.229 L3.907,17.558 Q4.872,19.25 6.82,19.25 L18.492,19.25 Z"/>
  <path fill="#2D264B" d="M10.686,13 L10.686,15 Q10.686,15.311 10.467,15.53 Q10.247,15.75 9.936,15.75 Q9.626,15.75 9.406,15.53 Q9.186,15.311 9.186,15 L9.186,13 Q9.186,12.689 9.406,12.47 Q9.626,12.25 9.936,12.25 Q10.247,12.25 10.467,12.47 Q10.686,12.689 10.686,13 Z M10.686,8 L10.686,10 Q10.686,10.311 10.467,10.53 Q10.247,10.75 9.936,10.75 Q9.626,10.75 9.406,10.53 Q9.186,10.311 9.186,10 L9.186,8 Q9.186,7.689 9.406,7.47 Q9.626,7.25 9.936,7.25 Q10.247,7.25 10.467,7.47 Q10.686,7.689 10.686,8 Z M10.686,18 L10.686,20 Q10.686,20.311 10.467,20.53 Q10.247,20.75 9.936,20.75 Q9.626,20.75 9.406,20.53 Q9.186,20.311 9.186,20 L9.186,18 Q9.186,17.689 9.406,17.47 Q9.626,17.25 9.936,17.25 Q10.247,17.25 10.467,17.47 Q10.686,17.689 10.686,18 Z"/>
</svg>

