<svg width="24" height="24" viewBox="0 0 24 24" fill="none" xmlns="http://www.w3.org/2000/svg">
<path d="M13.733 9.9624C13.822 9.6792 14.178 9.6792 14.267 9.9624C14.4996 10.7016 15.1766 11.2247 15.965 11.2247C16.0418 11.2247 16.091 11.2475 16.1277 11.2768C16.1695 11.3103 16.2093 11.3649 16.232 11.4371C16.2779 11.5831 16.2384 11.718 16.122 11.8053C15.4993 12.2726 15.2501 13.0877 15.4815 13.8233C15.5324 13.9851 15.4748 14.1139 15.3714 14.1915C15.3185 14.2312 15.2633 14.2485 15.2174 14.2499C15.1777 14.2511 15.1245 14.2419 15.0574 14.1915C14.4286 13.7196 13.5714 13.7196 12.9426 14.1915C12.8755 14.2419 12.8223 14.2511 12.7826 14.2499C12.7366 14.2485 12.6815 14.2312 12.6286 14.1915C12.5252 14.1139 12.4676 13.9851 12.5185 13.8233C12.7499 13.0877 12.5007 12.2726 11.878 11.8053C11.7616 11.718 11.7221 11.5831 11.768 11.4371C11.7907 11.3649 11.8305 11.3103 11.8723 11.2768C11.909 11.2475 11.9582 11.2247 12.035 11.2247C12.8234 11.2247 13.5004 10.7016 13.733 9.9624Z" fill="#2D264B"/>
<path fill-rule="evenodd" clip-rule="evenodd" d="M7.25 5.06667V3.25H6.44444C3.57563 3.25 1.25 5.57563 1.25 8.44444C1.25 9.27618 1.72698 10.0342 2.47681 10.3941L2.96417 10.6281C4.1152 11.1806 4.1152 12.8194 2.96417 13.3719L2.47681 13.6059C1.72698 13.9658 1.25 14.7238 1.25 15.5556C1.25 18.4244 3.57563 20.75 6.44444 20.75H7.25V18.9333C7.25 18.5191 7.58579 18.1833 8 18.1833C8.41421 18.1833 8.75 18.5191 8.75 18.9333V20.75H17.5556C20.4244 20.75 22.75 18.4244 22.75 15.5556C22.75 14.7238 22.273 13.9658 21.5232 13.6059L21.0358 13.3719C19.8848 12.8194 19.8848 11.1806 21.0358 10.6281L21.5232 10.3941C22.273 10.0342 22.75 9.27618 22.75 8.44444C22.75 5.57563 20.4244 3.25 17.5556 3.25H8.75V5.06667C8.75 5.48088 8.41421 5.81667 8 5.81667C7.58579 5.81667 7.25 5.48088 7.25 5.06667ZM8.75 8.26667C8.75 7.85245 8.41421 7.51667 8 7.51667C7.58579 7.51667 7.25 7.85245 7.25 8.26667V10.4C7.25 10.8142 7.58579 11.15 8 11.15C8.41421 11.15 8.75 10.8142 8.75 10.4V8.26667ZM8 12.85C8.41421 12.85 8.75 13.1858 8.75 13.6V15.7333C8.75 16.1475 8.41421 16.4833 8 16.4833C7.58579 16.4833 7.25 16.1475 7.25 15.7333V13.6C7.25 13.1858 7.58579 12.85 8 12.85ZM15.6979 9.51233C15.1685 7.82922 12.8315 7.82922 12.3021 9.51233C12.258 9.65245 12.1417 9.72473 12.035 9.72473C10.2595 9.72473 9.63517 11.9975 10.9776 13.005C11.0791 13.0812 11.1329 13.2295 11.0877 13.3732C10.8293 14.1946 11.1618 14.9661 11.7282 15.3912C12.2981 15.8189 13.141 15.918 13.843 15.3912C13.9383 15.3197 14.0617 15.3197 14.157 15.3912C14.859 15.918 15.7019 15.8189 16.2718 15.3912C16.8382 14.9661 17.1707 14.1946 16.9123 13.3732C16.8671 13.2295 16.9209 13.0812 17.0224 13.005C18.3648 11.9975 17.7405 9.72473 15.965 9.72473C15.8583 9.72473 15.742 9.65245 15.6979 9.51233Z" fill="#2D264B"/>
</svg>
