<svg xmlns="http://www.w3.org/2000/svg" width="24" height="24" viewBox="0 0 24 24">
  <defs/>
  <path fill="#2D264B" d="M6.185,3.977 L9.161,13.118 C9.169,13.141 9.177,13.163 9.186,13.184 L9.186,15.2 C9.186,15.614 9.522,15.95 9.936,15.95 C10.35,15.95 10.686,15.614 10.686,15.2 L10.686,3.582 C10.982,3.451 11.303,3.375 11.642,3.33 C12.237,3.25 12.986,3.25 13.884,3.25 L18.492,3.25 C21.361,3.25 23.686,5.576 23.686,8.444 C23.686,9.276 23.209,10.034 22.459,10.394 L21.972,10.628 C20.821,11.181 20.821,12.819 21.972,13.372 L22.459,13.606 C23.209,13.966 23.686,14.724 23.686,15.556 C23.686,18.424 21.361,20.75 18.492,20.75 L9.938,20.75 C10.351,20.749 10.686,20.414 10.686,20 L10.686,18.8 C10.686,18.386 10.35,18.05 9.936,18.05 C9.522,18.05 9.186,18.386 9.186,18.8 L9.186,20 C9.186,20.413 9.521,20.749 9.934,20.75 L6.82,20.75 C5.077,20.75 3.467,19.815 2.604,18.301 L2.416,17.973 C2.335,17.83 2.272,17.677 2.229,17.518 C2.038,16.804 2.273,16.043 2.834,15.562 L3.359,15.111 C4.328,14.279 3.904,12.696 2.649,12.46 L2.118,12.361 C1.3,12.207 0.643,11.598 0.428,10.795 C-0.314,8.024 1.33,5.176 4.101,4.433 L4.14,4.423 C4.811,4.243 5.371,4.093 5.836,4.019 C5.953,4.001 6.069,3.986 6.185,3.977 Z"/>
</svg>

