<svg xmlns="http://www.w3.org/2000/svg" width="24" height="24" viewBox="0 0 24 24">
  <defs/>
  <path fill="#2D264B" d="M22.75,8.444 Q22.75,9.805 21.523,10.394 L21.036,10.628 Q20.173,11.042 20.173,12 Q20.173,12.958 21.036,13.372 L21.523,13.606 Q22.75,14.195 22.75,15.556 Q22.75,17.707 21.229,19.229 Q19.707,20.75 17.556,20.75 L6.444,20.75 Q4.293,20.75 2.771,19.229 Q1.25,17.707 1.25,15.556 Q1.25,14.195 2.477,13.606 L2.964,13.372 Q3.827,12.958 3.827,12 Q3.827,11.042 2.964,10.628 L2.477,10.394 Q1.25,9.805 1.25,8.444 Q1.25,6.293 2.771,4.771 Q4.293,3.25 6.444,3.25 L17.556,3.25 Q19.707,3.25 21.229,4.771 Q22.75,6.293 22.75,8.444 Z M21.25,8.444 Q21.25,4.75 17.556,4.75 L6.444,4.75 Q2.75,4.75 2.75,8.444 Q2.75,8.861 3.126,9.042 L3.613,9.276 Q5.327,10.099 5.327,12 Q5.327,13.901 3.613,14.724 L3.126,14.958 Q2.75,15.139 2.75,15.556 Q2.75,19.25 6.444,19.25 L17.556,19.25 Q21.25,19.25 21.25,15.556 Q21.25,15.139 20.874,14.958 L20.387,14.724 Q18.673,13.901 18.673,12 Q18.673,10.099 20.387,9.276 L20.874,9.042 Q21.25,8.861 21.25,8.444 Z"/>
  <path fill="#2D264B" d="M10.75,9 L10.75,11 Q10.75,11.311 10.53,11.53 Q10.311,11.75 10,11.75 Q9.689,11.75 9.47,11.53 Q9.25,11.311 9.25,11 L9.25,9 Q9.25,8.689 9.47,8.47 Q9.689,8.25 10,8.25 Q10.311,8.25 10.53,8.47 Q10.75,8.689 10.75,9 Z M10.75,4 L10.75,6 Q10.75,6.311 10.53,6.53 Q10.311,6.75 10,6.75 Q9.689,6.75 9.47,6.53 Q9.25,6.311 9.25,6 L9.25,4 Q9.25,3.689 9.47,3.47 Q9.689,3.25 10,3.25 Q10.311,3.25 10.53,3.47 Q10.75,3.689 10.75,4 Z M10.75,14 L10.75,16 Q10.75,16.311 10.53,16.53 Q10.311,16.75 10,16.75 Q9.689,16.75 9.47,16.53 Q9.25,16.311 9.25,16 L9.25,14 Q9.25,13.689 9.47,13.47 Q9.689,13.25 10,13.25 Q10.311,13.25 10.53,13.47 Q10.75,13.689 10.75,14 Z M10.75,19 L10.75,20 Q10.75,20.311 10.53,20.53 Q10.311,20.75 10,20.75 Q9.689,20.75 9.47,20.53 Q9.25,20.311 9.25,20 L9.25,19 Q9.25,18.689 9.47,18.47 Q9.689,18.25 10,18.25 Q10.311,18.25 10.53,18.47 Q10.75,18.689 10.75,19 Z"/>
</svg>

