<svg xmlns="http://www.w3.org/2000/svg" width="24" height="24" viewBox="0 0 24 24">
  <defs/>
  <path fill="#2D264B" d="M20.576,7.48 C20.841,7.162 20.798,6.689 20.48,6.424 C20.162,6.159 19.689,6.202 19.424,6.52 L14.033,12.989 C12.95,14.288 12.189,15.199 11.528,15.796 C10.883,16.379 10.437,16.564 10,16.564 C9.563,16.564 9.117,16.379 8.472,15.796 C7.811,15.199 7.05,14.288 5.967,12.989 L4.576,11.32 C4.311,11.002 3.838,10.959 3.52,11.224 C3.202,11.489 3.159,11.962 3.424,12.28 L4.853,13.995 C5.888,15.238 6.717,16.233 7.467,16.909 C8.241,17.608 9.032,18.064 10,18.064 C10.968,18.064 11.759,17.608 12.533,16.909 C13.283,16.233 14.112,15.238 15.147,13.995 L20.576,7.48 Z"/>
</svg>

