<svg xmlns="http://www.w3.org/2000/svg" width="24" height="24" viewBox="0 0 24 24">
  <defs/>
  <path fill="#2D264B" d="M11.733,9.962 C11.822,9.679 12.178,9.679 12.267,9.962 C12.5,10.702 13.177,11.225 13.965,11.225 C14.042,11.225 14.091,11.248 14.128,11.277 C14.169,11.31 14.209,11.365 14.232,11.437 C14.278,11.583 14.238,11.718 14.122,11.805 C13.499,12.273 13.25,13.088 13.482,13.823 C13.532,13.985 13.475,14.114 13.371,14.191 C13.319,14.231 13.263,14.248 13.217,14.25 C13.178,14.251 13.124,14.242 13.057,14.191 C12.429,13.72 11.571,13.72 10.943,14.191 C10.876,14.242 10.822,14.251 10.783,14.25 C10.737,14.248 10.681,14.231 10.629,14.191 C10.525,14.114 10.468,13.985 10.518,13.823 C10.75,13.088 10.501,12.273 9.878,11.805 C9.762,11.718 9.722,11.583 9.768,11.437 C9.791,11.365 9.83,11.31 9.872,11.277 C9.909,11.248 9.958,11.225 10.035,11.225 C10.823,11.225 11.5,10.702 11.733,9.962 Z"/>
  <path fill="#2D264B" d="M1.25,8.444 C1.25,5.576 3.576,3.25 6.444,3.25 L17.556,3.25 C20.424,3.25 22.75,5.576 22.75,8.444 C22.75,9.276 22.273,10.034 21.523,10.394 L21.036,10.628 C19.885,11.181 19.885,12.819 21.036,13.372 L21.523,13.606 C22.273,13.966 22.75,14.724 22.75,15.556 C22.75,18.424 20.424,20.75 17.556,20.75 L6.444,20.75 C3.576,20.75 1.25,18.424 1.25,15.556 C1.25,14.724 1.727,13.966 2.477,13.606 L2.964,13.372 C4.115,12.819 4.115,11.181 2.964,10.628 L2.477,10.394 C1.727,10.034 1.25,9.276 1.25,8.444 Z M13.698,9.512 C13.168,7.829 10.832,7.829 10.302,9.512 C10.258,9.652 10.142,9.725 10.035,9.725 C8.26,9.725 7.635,11.998 8.978,13.005 C9.079,13.081 9.133,13.229 9.088,13.373 C8.829,14.195 9.162,14.966 9.728,15.391 C10.298,15.819 11.141,15.918 11.843,15.391 C11.938,15.32 12.062,15.32 12.157,15.391 C12.859,15.918 13.702,15.819 14.272,15.391 C14.838,14.966 15.171,14.195 14.912,13.373 C14.867,13.229 14.921,13.081 15.022,13.005 C16.365,11.998 15.741,9.725 13.965,9.725 C13.858,9.725 13.742,9.652 13.698,9.512 Z"/>
</svg>

