<svg width="24" height="24" viewBox="0 0 24 24" fill="none" xmlns="http://www.w3.org/2000/svg">
<path d="M6.18465 3.97712L9.16135 13.118C9.16869 13.1406 9.177 13.1626 9.18622 13.1839V15.2C9.18622 15.6142 9.52201 15.95 9.93622 15.95C10.3504 15.95 10.6862 15.6142 10.6862 15.2V3.5817C10.9817 3.45057 11.3028 3.37548 11.6418 3.32991C12.2366 3.24995 12.9858 3.24997 13.8842 3.25L18.4918 3.25C21.3606 3.25 23.6863 5.57564 23.6863 8.44445C23.6863 9.27618 23.2093 10.0342 22.4595 10.3941L21.9721 10.6281C20.8211 11.1806 20.8211 12.8194 21.9721 13.3719L22.4595 13.6059C23.2093 13.9658 23.6863 14.7238 23.6863 15.5556C23.6863 18.4244 21.3606 20.75 18.4918 20.75H9.93793C10.3514 20.7491 10.6862 20.4136 10.6862 20V18.8C10.6862 18.3858 10.3504 18.05 9.93622 18.05C9.52201 18.05 9.18622 18.3858 9.18622 18.8V20C9.18622 20.4134 9.5207 20.7487 9.9338 20.75L6.81991 20.75C5.07675 20.75 3.46745 19.8153 2.60378 18.3011L2.41643 17.9726C2.33486 17.8296 2.272 17.6767 2.22939 17.5177C2.03805 16.8036 2.27319 16.043 2.83417 15.5615L3.35914 15.1109C4.32795 14.2793 3.90377 12.6963 2.64897 12.4605L2.11766 12.3607C1.30023 12.2071 0.643309 11.5984 0.428041 10.795C-0.314462 8.02393 1.33001 5.17562 4.10107 4.43312L4.13954 4.42281C4.81066 4.24297 5.37063 4.09291 5.8359 4.01936C5.9532 4.00082 6.06938 3.98623 6.18465 3.97712Z" fill="#2D264B"/>
</svg>
