<svg xmlns="http://www.w3.org/2000/svg" width="24" height="24" viewBox="0 0 24 24">
  <defs/>
  <path fill="#2D264B" d="M12,22 C6.477,22 2,17.523 2,12 C2,6.477 6.477,2 12,2 C17.523,2 22,6.477 22,12 C22,17.523 17.523,22 12,22 Z M17.559,9.5 C17.835,9.192 17.809,8.718 17.5,8.441 C17.192,8.165 16.718,8.191 16.441,8.5 L13.072,12.263 C12.389,13.025 11.93,13.536 11.536,13.867 C11.162,14.181 10.942,14.25 10.75,14.25 C10.558,14.25 10.338,14.181 9.963,13.867 C9.57,13.536 9.111,13.025 8.428,12.263 L7.559,11.292 C7.282,10.983 6.808,10.957 6.5,11.234 C6.191,11.51 6.165,11.984 6.441,12.293 L7.348,13.305 C7.983,14.015 8.514,14.608 8.998,15.015 C9.511,15.446 10.064,15.75 10.75,15.75 C11.436,15.75 11.989,15.446 12.502,15.015 C12.986,14.608 13.517,14.015 14.153,13.305 Z"/>
</svg>

