<svg width="24" height="24" viewBox="0 0 24 24" fill="none" xmlns="http://www.w3.org/2000/svg">
<path fill-rule="evenodd" clip-rule="evenodd" d="M13.25 3.25V5.06667C13.25 5.48088 13.5858 5.81667 14 5.81667C14.4142 5.81667 14.75 5.48088 14.75 5.06667V3.25H17.5556C20.4244 3.25 22.75 5.57563 22.75 8.44444C22.75 9.27618 22.273 10.0342 21.5232 10.3941L21.0358 10.6281C19.8848 11.1806 19.8848 12.8194 21.0358 13.3719L21.5232 13.6059C22.273 13.9658 22.75 14.7238 22.75 15.5556C22.75 18.4244 20.4244 20.75 17.5556 20.75H14.75V18.9333C14.75 18.5191 14.4142 18.1833 14 18.1833C13.5858 18.1833 13.25 18.5191 13.25 18.9333V20.75H6.44444C3.57563 20.75 1.25 18.4244 1.25 15.5556C1.25 14.7238 1.72698 13.9658 2.47681 13.6059L2.96417 13.3719C4.1152 12.8194 4.1152 11.1806 2.96417 10.6281L2.47681 10.3941C1.72698 10.0342 1.25 9.27618 1.25 8.44444C1.25 5.57563 3.57563 3.25 6.44444 3.25H13.25ZM14 7.51667C14.4142 7.51667 14.75 7.85245 14.75 8.26667V10.4C14.75 10.8142 14.4142 11.15 14 11.15C13.5858 11.15 13.25 10.8142 13.25 10.4V8.26667C13.25 7.85245 13.5858 7.51667 14 7.51667ZM14.75 13.6C14.75 13.1858 14.4142 12.85 14 12.85C13.5858 12.85 13.25 13.1858 13.25 13.6V15.7333C13.25 16.1475 13.5858 16.4833 14 16.4833C14.4142 16.4833 14.75 16.1475 14.75 15.7333V13.6Z" fill="#2D264B"/>
</svg>
