<svg xmlns="http://www.w3.org/2000/svg" width="24" height="24" viewBox="0 0 24 24">
  <defs/>
  <path fill="#2D264B" d="M8.75,9 L8.75,11 Q8.75,11.311 8.53,11.53 Q8.311,11.75 8,11.75 Q7.689,11.75 7.47,11.53 Q7.25,11.311 7.25,11 L7.25,9 Q7.25,8.689 7.47,8.47 Q7.689,8.25 8,8.25 Q8.311,8.25 8.53,8.47 Q8.75,8.689 8.75,9 Z M8.75,4 L8.75,6 Q8.75,6.311 8.53,6.53 Q8.311,6.75 8,6.75 Q7.689,6.75 7.47,6.53 Q7.25,6.311 7.25,6 L7.25,4 Q7.25,3.689 7.47,3.47 Q7.689,3.25 8,3.25 Q8.311,3.25 8.53,3.47 Q8.75,3.689 8.75,4 Z M8.75,14 L8.75,16 Q8.75,16.311 8.53,16.53 Q8.311,16.75 8,16.75 Q7.689,16.75 7.47,16.53 Q7.25,16.311 7.25,16 L7.25,14 Q7.25,13.689 7.47,13.47 Q7.689,13.25 8,13.25 Q8.311,13.25 8.53,13.47 Q8.75,13.689 8.75,14 Z M8.75,19 L8.75,20 Q8.75,20.311 8.53,20.53 Q8.311,20.75 8,20.75 Q7.689,20.75 7.47,20.53 Q7.25,20.311 7.25,20 L7.25,19 Q7.25,18.689 7.47,18.47 Q7.689,18.25 8,18.25 Q8.311,18.25 8.53,18.47 Q8.75,18.689 8.75,19 Z"/>
  <path fill="#2D264B" d="M1.25,8.444 Q1.25,6.293 2.771,4.771 Q4.293,3.25 6.444,3.25 L17.556,3.25 Q19.707,3.25 21.229,4.771 Q22.75,6.293 22.75,8.444 Q22.75,9.805 21.523,10.394 L21.036,10.628 Q20.173,11.042 20.173,12 Q20.173,12.958 21.036,13.372 L21.523,13.606 Q22.75,14.195 22.75,15.556 Q22.75,17.707 21.229,19.229 Q19.707,20.75 17.556,20.75 L6.444,20.75 Q4.293,20.75 2.771,19.229 Q1.25,17.707 1.25,15.556 Q1.25,14.195 2.477,13.606 L2.964,13.372 Q3.827,12.958 3.827,12 Q3.827,11.042 2.964,10.628 L2.477,10.394 Q1.25,9.805 1.25,8.444 Z M2.75,8.444 Q2.75,8.861 3.126,9.042 L3.613,9.276 Q5.327,10.099 5.327,12 Q5.327,13.901 3.613,14.724 L3.126,14.958 Q2.75,15.139 2.75,15.556 Q2.75,19.25 6.444,19.25 L17.556,19.25 Q21.25,19.25 21.25,15.556 Q21.25,15.139 20.874,14.958 L20.387,14.724 Q18.673,13.901 18.673,12 Q18.673,10.099 20.387,9.276 L20.874,9.042 Q21.25,8.861 21.25,8.444 Q21.25,4.75 17.556,4.75 L6.444,4.75 Q2.75,4.75 2.75,8.444 Z"/>
  <path fill="#2D264B" d="M12.302,9.512 Q12.699,8.25 14,8.25 Q15.301,8.25 15.698,9.512 Q15.765,9.725 15.965,9.725 Q17.266,9.725 17.663,10.987 Q18.054,12.231 17.022,13.005 Q16.84,13.142 16.912,13.373 Q17.304,14.617 16.272,15.391 Q15.214,16.185 14.157,15.391 Q14,15.273 13.843,15.391 Q12.786,16.185 11.728,15.391 Q10.696,14.617 11.088,13.373 Q11.16,13.142 10.978,13.005 Q9.946,12.231 10.337,10.987 Q10.734,9.725 12.035,9.725 Q12.235,9.725 12.302,9.512 Z M13.733,9.962 Q13.336,11.225 12.035,11.225 Q11.835,11.225 11.768,11.437 Q11.695,11.668 11.878,11.805 Q12.91,12.58 12.519,13.823 Q12.446,14.054 12.629,14.192 Q12.786,14.309 12.943,14.192 Q14,13.398 15.057,14.192 Q15.214,14.309 15.371,14.192 Q15.554,14.054 15.481,13.823 Q15.09,12.58 16.122,11.805 Q16.305,11.668 16.232,11.437 Q16.165,11.225 15.965,11.225 Q14.664,11.225 14.267,9.962 Q14.2,9.75 14,9.75 Q13.8,9.75 13.733,9.962 Z"/>
</svg>

