<svg xmlns="http://www.w3.org/2000/svg" width="24" height="24" viewBox="0 0 24 24">
  <defs/>
  <path fill="#2D264B" d="M10.75,3.25 L17.556,3.25 C20.424,3.25 22.75,5.576 22.75,8.444 C22.75,9.276 22.273,10.034 21.523,10.394 L21.036,10.628 C19.885,11.181 19.885,12.819 21.036,13.372 L21.523,13.606 C22.273,13.966 22.75,14.724 22.75,15.556 C22.75,18.424 20.424,20.75 17.556,20.75 L10.75,20.75 L10.75,18.933 C10.75,18.519 10.414,18.183 10,18.183 C9.586,18.183 9.25,18.519 9.25,18.933 L9.25,20.75 L6.444,20.75 C3.576,20.75 1.25,18.424 1.25,15.556 C1.25,14.724 1.727,13.966 2.477,13.606 L2.964,13.372 C4.115,12.819 4.115,11.181 2.964,10.628 L2.477,10.394 C1.727,10.034 1.25,9.276 1.25,8.444 C1.25,5.576 3.576,3.25 6.444,3.25 L9.25,3.25 L9.25,5.067 C9.25,5.481 9.586,5.817 10,5.817 C10.414,5.817 10.75,5.481 10.75,5.067 Z M10,7.517 C9.586,7.517 9.25,7.852 9.25,8.267 L9.25,10.4 C9.25,10.814 9.586,11.15 10,11.15 C10.414,11.15 10.75,10.814 10.75,10.4 L10.75,8.267 C10.75,7.852 10.414,7.517 10,7.517 Z M9.25,13.6 L9.25,15.733 C9.25,16.147 9.586,16.483 10,16.483 C10.414,16.483 10.75,16.147 10.75,15.733 L10.75,13.6 C10.75,13.186 10.414,12.85 10,12.85 C9.586,12.85 9.25,13.186 9.25,13.6 Z"/>
</svg>

