<svg xmlns="http://www.w3.org/2000/svg" width="24" height="24" viewBox="0 0 24 24">
  <defs/>
  <path fill="#2D264B" d="M8.47,14.47 C8.177,14.763 8.177,15.237 8.47,15.53 C8.763,15.823 9.237,15.823 9.53,15.53 L8.47,14.47 Z M15.187,9.873 C15.48,9.581 15.48,9.106 15.187,8.813 C14.894,8.52 14.419,8.52 14.127,8.813 L15.187,9.873 Z M6.444,4.75 L17.556,4.75 L17.556,3.25 L6.444,3.25 L6.444,4.75 Z M17.556,19.25 L6.444,19.25 L6.444,20.75 L17.556,20.75 L17.556,19.25 Z M20.874,9.042 L20.387,9.276 L21.036,10.628 L21.523,10.394 L20.874,9.042 Z M20.387,14.724 L20.874,14.958 L21.523,13.606 L21.036,13.372 L20.387,14.724 Z M3.126,14.958 L3.613,14.724 L2.964,13.372 L2.477,13.606 L3.126,14.958 Z M3.613,9.276 L3.126,9.042 L2.477,10.394 L2.964,10.628 L3.613,9.276 Z M3.613,14.724 C5.899,13.627 5.899,10.373 3.613,9.276 L2.964,10.628 C4.115,11.181 4.115,12.819 2.964,13.372 L3.613,14.724 Z M20.874,14.958 C21.104,15.068 21.25,15.301 21.25,15.556 L22.75,15.556 C22.75,14.724 22.273,13.966 21.523,13.606 L20.874,14.958 Z M21.25,8.444 C21.25,8.699 21.104,8.932 20.874,9.042 L21.523,10.394 C22.273,10.034 22.75,9.276 22.75,8.444 L21.25,8.444 Z M20.387,9.276 C18.101,10.373 18.101,13.627 20.387,14.724 L21.036,13.372 C19.885,12.819 19.885,11.181 21.036,10.628 L20.387,9.276 Z M6.444,19.25 C4.404,19.25 2.75,17.596 2.75,15.556 L1.25,15.556 C1.25,18.424 3.576,20.75 6.444,20.75 L6.444,19.25 Z M3.126,9.042 C2.896,8.932 2.75,8.699 2.75,8.444 L1.25,8.444 C1.25,9.276 1.727,10.034 2.477,10.394 L3.126,9.042 Z M17.556,20.75 C20.424,20.75 22.75,18.424 22.75,15.556 L21.25,15.556 C21.25,17.596 19.596,19.25 17.556,19.25 L17.556,20.75 Z M2.75,15.556 C2.75,15.301 2.896,15.068 3.126,14.958 L2.477,13.606 C1.727,13.966 1.25,14.724 1.25,15.556 L2.75,15.556 Z M17.556,4.75 C19.596,4.75 21.25,6.404 21.25,8.444 L22.75,8.444 C22.75,5.576 20.424,3.25 17.556,3.25 L17.556,4.75 Z M6.444,3.25 C3.576,3.25 1.25,5.576 1.25,8.444 L2.75,8.444 C2.75,6.404 4.404,4.75 6.444,4.75 L6.444,3.25 Z M9.53,15.53 L15.187,9.873 L14.127,8.813 L8.47,14.47 L9.53,15.53 Z"/>
  <path fill="#2D264B" d="M8,9 C8,9.552 8.448,10 9,10 C9.552,10 10,9.552 10,9 C10,8.448 9.552,8 9,8 C8.448,8 8,8.448 8,9 Z"/>
  <path fill="#2D264B" d="M14,15 C14,15.552 14.448,16 15,16 C15.552,16 16,15.552 16,15 C16,14.448 15.552,14 15,14 C14.448,14 14,14.448 14,15 Z"/>
</svg>

