<svg xmlns="http://www.w3.org/2000/svg" width="24" height="24" viewBox="0 0 24 24">
  <defs/>
  <path fill="#2D264B" d="M6.444,3.25 L17.556,3.25 C20.424,3.25 22.75,5.576 22.75,8.444 C22.75,9.276 22.273,10.034 21.523,10.394 L21.036,10.628 C19.885,11.181 19.885,12.819 21.036,13.372 L21.523,13.606 C22.273,13.966 22.75,14.724 22.75,15.556 C22.75,18.424 20.424,20.75 17.556,20.75 L6.444,20.75 C3.576,20.75 1.25,18.424 1.25,15.556 C1.25,14.724 1.727,13.966 2.477,13.606 L2.964,13.372 C4.115,12.819 4.115,11.181 2.964,10.628 L2.477,10.394 C1.727,10.034 1.25,9.276 1.25,8.444 C1.25,5.576 3.576,3.25 6.444,3.25 Z M15.187,8.813 C14.894,8.52 14.419,8.52 14.127,8.813 L8.47,14.47 C8.177,14.763 8.177,15.237 8.47,15.53 C8.763,15.823 9.237,15.823 9.53,15.53 L15.187,9.873 C15.48,9.581 15.48,9.106 15.187,8.813 Z M15,16 C15.552,16 16,15.552 16,15 C16,14.448 15.552,14 15,14 C14.448,14 14,14.448 14,15 C14,15.552 14.448,16 15,16 Z M9,10 C9.552,10 10,9.552 10,9 C10,8.448 9.552,8 9,8 C8.448,8 8,8.448 8,9 C8,9.552 8.448,10 9,10 Z"/>
</svg>

