<svg xmlns="http://www.w3.org/2000/svg" width="24" height="24" viewBox="0 0 24 24">
  <defs/>
  <path fill="#2D264B" d="M13.733,9.962 C13.822,9.679 14.178,9.679 14.267,9.962 C14.5,10.702 15.177,11.225 15.965,11.225 C16.042,11.225 16.091,11.248 16.128,11.277 C16.169,11.31 16.209,11.365 16.232,11.437 C16.278,11.583 16.238,11.718 16.122,11.805 C15.499,12.273 15.25,13.088 15.482,13.823 C15.532,13.985 15.475,14.114 15.371,14.191 C15.319,14.231 15.263,14.248 15.217,14.25 C15.178,14.251 15.124,14.242 15.057,14.191 C14.429,13.72 13.571,13.72 12.943,14.191 C12.876,14.242 12.822,14.251 12.783,14.25 C12.737,14.248 12.681,14.231 12.629,14.191 C12.525,14.114 12.468,13.985 12.518,13.823 C12.75,13.088 12.501,12.273 11.878,11.805 C11.762,11.718 11.722,11.583 11.768,11.437 C11.791,11.365 11.831,11.31 11.872,11.277 C11.909,11.248 11.958,11.225 12.035,11.225 C12.823,11.225 13.5,10.702 13.733,9.962 Z"/>
  <path fill="#2D264B" d="M7.25,5.067 C7.25,5.481 7.586,5.817 8,5.817 C8.414,5.817 8.75,5.481 8.75,5.067 L8.75,3.25 L17.556,3.25 C20.424,3.25 22.75,5.576 22.75,8.444 C22.75,9.276 22.273,10.034 21.523,10.394 L21.036,10.628 C19.885,11.181 19.885,12.819 21.036,13.372 L21.523,13.606 C22.273,13.966 22.75,14.724 22.75,15.556 C22.75,18.424 20.424,20.75 17.556,20.75 L8.75,20.75 L8.75,18.933 C8.75,18.519 8.414,18.183 8,18.183 C7.586,18.183 7.25,18.519 7.25,18.933 L7.25,20.75 L6.444,20.75 C3.576,20.75 1.25,18.424 1.25,15.556 C1.25,14.724 1.727,13.966 2.477,13.606 L2.964,13.372 C4.115,12.819 4.115,11.181 2.964,10.628 L2.477,10.394 C1.727,10.034 1.25,9.276 1.25,8.444 C1.25,5.576 3.576,3.25 6.444,3.25 L7.25,3.25 Z M15.698,9.512 C15.168,7.829 12.832,7.829 12.302,9.512 C12.258,9.652 12.142,9.725 12.035,9.725 C10.259,9.725 9.635,11.998 10.978,13.005 C11.079,13.081 11.133,13.229 11.088,13.373 C10.829,14.195 11.162,14.966 11.728,15.391 C12.298,15.819 13.141,15.918 13.843,15.391 C13.938,15.32 14.062,15.32 14.157,15.391 C14.859,15.918 15.702,15.819 16.272,15.391 C16.838,14.966 17.171,14.195 16.912,13.373 C16.867,13.229 16.921,13.081 17.022,13.005 C18.365,11.998 17.74,9.725 15.965,9.725 C15.858,9.725 15.742,9.652 15.698,9.512 Z M8.75,8.267 C8.75,7.852 8.414,7.517 8,7.517 C7.586,7.517 7.25,7.852 7.25,8.267 L7.25,10.4 C7.25,10.814 7.586,11.15 8,11.15 C8.414,11.15 8.75,10.814 8.75,10.4 Z M8,12.85 C7.586,12.85 7.25,13.186 7.25,13.6 L7.25,15.733 C7.25,16.147 7.586,16.483 8,16.483 C8.414,16.483 8.75,16.147 8.75,15.733 L8.75,13.6 C8.75,13.186 8.414,12.85 8,12.85 Z"/>
</svg>

