<svg xmlns="http://www.w3.org/2000/svg" width="24" height="24" viewBox="0 0 24 24">
  <defs/>
  <path fill="#2D264B" d="M12,21.75 Q6.132,21.75 4.62,20.652 Q3.883,20.117 3.348,19.38 Q2.25,17.868 2.25,12 Q2.25,6.132 3.348,4.62 Q3.883,3.883 4.62,3.348 Q6.132,2.25 12,2.25 Q17.868,2.25 19.38,3.348 Q20.117,3.883 20.652,4.62 Q21.75,6.132 21.75,12 Q21.75,17.868 20.652,19.38 Q20.117,20.117 19.38,20.652 Q17.868,21.75 12,21.75 Z M12,20.25 Q17.381,20.25 18.498,19.438 Q19.043,19.043 19.438,18.498 Q20.25,17.381 20.25,12 Q20.25,6.619 19.438,5.502 Q19.043,4.957 18.498,4.562 Q17.381,3.75 12,3.75 Q6.619,3.75 5.502,4.562 Q4.957,4.957 4.562,5.502 Q3.75,6.619 3.75,12 Q3.75,17.381 4.562,18.498 Q4.957,19.043 5.502,19.438 Q6.619,20.25 12,20.25 Z M17.559,9.5 L14.189,13.264 Q11.963,15.75 10.75,15.75 Q9.537,15.75 7.31,13.263 L6.441,12.293 Q6.234,12.061 6.251,11.751 Q6.268,11.441 6.5,11.234 Q6.731,11.026 7.041,11.044 Q7.352,11.061 7.559,11.292 L8.428,12.263 Q10.207,14.25 10.75,14.25 Q11.293,14.25 13.072,12.263 L13.072,12.263 L16.441,8.5 Q16.648,8.268 16.959,8.251 Q17.269,8.234 17.5,8.441 Q17.732,8.648 17.749,8.959 Q17.766,9.269 17.559,9.5 Z"/>
</svg>

