<svg xmlns="http://www.w3.org/2000/svg" width="24" height="24" viewBox="0 0 24 24">
  <defs/>
  <path fill="#2D264B" d="M20.576,7.48 L15.185,13.949 Q11.756,18.064 10,18.064 Q8.244,18.064 4.814,13.949 L3.424,12.28 Q3.225,12.041 3.253,11.732 Q3.281,11.423 3.52,11.224 Q3.759,11.025 4.068,11.053 Q4.377,11.081 4.576,11.32 L5.967,12.989 Q8.946,16.564 10,16.564 Q11.054,16.564 14.033,12.989 L19.424,6.52 Q19.623,6.281 19.932,6.253 Q20.241,6.225 20.48,6.424 Q20.719,6.623 20.747,6.932 Q20.775,7.241 20.576,7.48 Z"/>
</svg>

