<svg xmlns="http://www.w3.org/2000/svg" width="24" height="24" viewBox="0 0 24 24">
  <defs/>
  <path fill="#2D264B" d="M5.969,1.836 C6.292,1.577 6.344,1.105 6.086,0.782 C5.827,0.458 5.355,0.406 5.031,0.664 L2.531,2.664 C2.208,2.923 2.156,3.395 2.414,3.719 C2.673,4.042 3.145,4.094 3.469,3.836 L5.969,1.836 Z"/>
  <path fill="#2D264B" d="M18.968,0.664 C18.645,0.406 18.173,0.458 17.914,0.782 C17.656,1.105 17.708,1.577 18.032,1.836 L20.532,3.836 C20.855,4.094 21.327,4.042 21.586,3.719 C21.844,3.395 21.792,2.923 21.468,2.664 L18.968,0.664 Z"/>
  <path fill="#2D264B" d="M12,1.25 C17.937,1.25 22.75,6.063 22.75,12 C22.75,17.937 17.937,22.75 12,22.75 C6.063,22.75 1.25,17.937 1.25,12 C1.25,6.063 6.063,1.25 12,1.25 Z M12.75,8 C12.75,7.586 12.414,7.25 12,7.25 C11.586,7.25 11.25,7.586 11.25,8 L11.25,10.726 C11.25,11.259 11.25,11.713 11.287,12.09 C11.327,12.492 11.413,12.864 11.618,13.22 C11.824,13.577 12.104,13.837 12.432,14.072 C12.739,14.293 13.132,14.52 13.595,14.787 L14.223,15.15 C14.582,15.357 15.041,15.234 15.248,14.875 C15.455,14.516 15.332,14.058 14.973,13.851 L14.375,13.505 C13.874,13.216 13.546,13.026 13.305,12.853 C13.078,12.69 12.979,12.578 12.917,12.47 C12.856,12.363 12.807,12.221 12.78,11.943 C12.751,11.648 12.75,11.269 12.75,10.691 Z"/>
</svg>

