<svg width="24" height="24" viewBox="0 0 24 24" fill="none" xmlns="http://www.w3.org/2000/svg">
<path fill-rule="evenodd" clip-rule="evenodd" d="M12 1.25003C6.06294 1.25003 1.25 6.06297 1.25 12C1.25 17.9371 6.06294 22.75 12 22.75C17.9371 22.75 22.75 17.9371 22.75 12C22.75 6.06297 17.9371 1.25003 12 1.25003ZM12.75 8.00003C12.75 7.58581 12.4142 7.25003 12 7.25003C11.5858 7.25003 11.25 7.58581 11.25 8.00003L11.25 11.5C11.25 11.9142 10.9142 12.25 10.5 12.25H9C8.58579 12.25 8.25 12.5858 8.25 13C8.25 13.4142 8.58579 13.75 9 13.75H10.5C11.7426 13.75 12.75 12.7427 12.75 11.5L12.75 8.00003Z" fill="#2D264B"/>
<path d="M5.96852 1.83568C6.29197 1.57692 6.34441 1.10495 6.08565 0.781506C5.82689 0.45806 5.35493 0.405619 5.03148 0.664376L2.53148 2.66438C2.20803 2.92313 2.15559 3.3951 2.41435 3.71855C2.67311 4.042 3.14507 4.09444 3.46852 3.83568L5.96852 1.83568Z" fill="#2D264B"/>
<path d="M18.9685 0.664376C18.6451 0.405619 18.1731 0.45806 17.9143 0.781506C17.6556 1.10495 17.708 1.57692 18.0315 1.83568L20.5315 3.83568C20.8549 4.09444 21.3269 4.042 21.5857 3.71855C21.8444 3.3951 21.792 2.92313 21.4685 2.66438L18.9685 0.664376Z" fill="#2D264B"/>
</svg>
