<svg width="24" height="24" viewBox="0 0 24 24" fill="none" xmlns="http://www.w3.org/2000/svg">
<path d="M5.96852 1.83568C6.29197 1.57692 6.34441 1.10495 6.08565 0.781506C5.82689 0.45806 5.35493 0.405619 5.03148 0.664376L2.53148 2.66438C2.20803 2.92313 2.15559 3.3951 2.41435 3.71855C2.67311 4.042 3.14507 4.09444 3.46852 3.83568L5.96852 1.83568Z" fill="#2D264B"/>
<path d="M18.9685 0.664376C18.6451 0.405619 18.1731 0.45806 17.9143 0.781506C17.6556 1.10495 17.708 1.57692 18.0315 1.83568L20.5315 3.83568C20.8549 4.09444 21.3269 4.042 21.5857 3.71855C21.8444 3.3951 21.792 2.92313 21.4685 2.66438L18.9685 0.664376Z" fill="#2D264B"/>
<path fill-rule="evenodd" clip-rule="evenodd" d="M12 1.25003C6.06294 1.25003 1.25 6.06297 1.25 12C1.25 17.9371 6.06294 22.75 12 22.75C17.9371 22.75 22.75 17.9371 22.75 12C22.75 6.06297 17.9371 1.25003 12 1.25003ZM12.75 8.00003C12.75 7.58582 12.4142 7.25003 12 7.25003C11.5858 7.25003 11.25 7.58582 11.25 8.00003V10.7255C11.25 11.2593 11.25 11.7133 11.2871 12.0902C11.3267 12.4916 11.4125 12.8636 11.6184 13.2203C11.8244 13.577 12.1037 13.8374 12.4315 14.0723C12.7393 14.2929 13.1325 14.5199 13.5948 14.7868L14.2232 15.1496C14.5819 15.3567 15.0406 15.2337 15.2477 14.875C15.4548 14.5163 15.3319 14.0576 14.9731 13.8505L14.375 13.5052C13.8744 13.2161 13.5459 13.0256 13.3054 12.8531C13.0782 12.6903 12.9795 12.5777 12.9175 12.4703C12.8555 12.3629 12.8073 12.2212 12.7799 11.943C12.7508 11.6484 12.75 11.2687 12.75 10.6906L12.75 8.00003Z" fill="#2D264B"/>
</svg>
