<svg xmlns="http://www.w3.org/2000/svg" width="24" height="24" viewBox="0 0 24 24">
  <defs/>
  <path fill="#2D264B" d="M12,1.5 C17.937,1.5 22.75,6.313 22.75,12.25 C22.75,18.187 17.937,23 12,23 C6.063,23 1.25,18.187 1.25,12.25 C1.25,6.313 6.063,1.5 12,1.5 Z M12.75,8.25 C12.75,7.836 12.414,7.5 12,7.5 C11.586,7.5 11.25,7.836 11.25,8.25 L11.25,12.456 C11.25,12.775 11.128,13.081 10.91,13.313 L9.454,14.857 C9.17,15.158 9.184,15.633 9.486,15.917 C9.787,16.201 10.262,16.187 10.546,15.886 L12.001,14.342 C12.482,13.832 12.75,13.157 12.75,12.456 Z"/>
  <path fill="#2D264B" d="M5.969,1.836 C6.292,1.577 6.344,1.105 6.086,0.782 C5.827,0.458 5.355,0.406 5.031,0.664 L2.531,2.664 C2.208,2.923 2.156,3.395 2.414,3.719 C2.673,4.042 3.145,4.094 3.469,3.836 L5.969,1.836 Z"/>
  <path fill="#2D264B" d="M18.968,0.664 C18.645,0.406 18.173,0.458 17.914,0.782 C17.656,1.105 17.708,1.577 18.032,1.836 L20.532,3.836 C20.855,4.094 21.327,4.042 21.586,3.719 C21.844,3.395 21.792,2.923 21.468,2.664 L18.968,0.664 Z"/>
</svg>

