<svg width="24" height="24" viewBox="0 0 24 24" fill="none" xmlns="http://www.w3.org/2000/svg">
<path d="M8.46967 0.46967C8.76256 0.176777 9.23744 0.176777 9.53033 0.46967L12 2.93934L14.4697 0.46967C14.7626 0.176777 15.2374 0.176777 15.5303 0.46967C15.8232 0.762563 15.8232 1.23744 15.5303 1.53033L13.8107 3.25H14.0336C15.4053 3.25 16.4807 3.24999 17.3451 3.32061C18.2252 3.39252 18.9523 3.54138 19.6104 3.87671C20.6924 4.42798 21.572 5.30762 22.1233 6.38955C22.4586 7.04768 22.6075 7.77479 22.6794 8.65494C22.75 9.51924 22.75 10.5947 22.75 11.9663V12.0336C22.75 13.4052 22.75 14.4808 22.6794 15.3451C22.6075 16.2252 22.4586 16.9523 22.1233 17.6104C21.572 18.6924 20.6924 19.572 19.6104 20.1233C19.2818 20.2907 18.9354 20.4119 18.5608 20.5001L19.5303 21.4697C19.8232 21.7626 19.8232 22.2374 19.5303 22.5303C19.2374 22.8232 18.7626 22.8232 18.4697 22.5303L16.6594 20.7201C15.9277 20.75 15.0604 20.75 14.0224 20.75H9.97746C8.93926 20.75 8.0723 20.75 7.34056 20.7201L5.53033 22.5303C5.23744 22.8232 4.76256 22.8232 4.46967 22.5303C4.17678 22.2374 4.17678 21.7626 4.46967 21.4697L5.43919 20.5001C5.0646 20.4119 4.7182 20.2907 4.38955 20.1233C3.30762 19.572 2.42798 18.6924 1.87671 17.6104C1.54138 16.9523 1.39252 16.2252 1.32061 15.3451C1.24999 14.4807 1.25 13.4053 1.25 12.0336V11.9664C1.25 10.5947 1.24999 9.51929 1.32061 8.65494C1.39252 7.77479 1.54138 7.04768 1.87671 6.38955C2.42798 5.30762 3.30762 4.42798 4.38955 3.87671C5.04769 3.54138 5.77479 3.39252 6.65494 3.32061C7.51929 3.24999 8.59472 3.25 9.96645 3.25H10.1893L8.46967 1.53033C8.17678 1.23744 8.17678 0.762563 8.46967 0.46967Z" fill="#2D264B"/>
</svg>
