<svg xmlns="http://www.w3.org/2000/svg" width="24" height="24" viewBox="0 0 24 24">
  <defs/>
  <path fill="#2D264B" d="M8.47,0.47 C8.763,0.177 9.237,0.177 9.53,0.47 L12,2.939 L14.47,0.47 C14.763,0.177 15.237,0.177 15.53,0.47 C15.823,0.763 15.823,1.237 15.53,1.53 L13.811,3.25 L14.034,3.25 C15.405,3.25 16.481,3.25 17.345,3.321 C18.225,3.393 18.952,3.541 19.61,3.877 C20.692,4.428 21.572,5.308 22.123,6.39 C22.459,7.048 22.608,7.775 22.679,8.655 C22.75,9.519 22.75,10.595 22.75,11.966 L22.75,12.034 C22.75,13.405 22.75,14.481 22.679,15.345 C22.608,16.225 22.459,16.952 22.123,17.61 C21.572,18.692 20.692,19.572 19.61,20.123 C19.282,20.291 18.935,20.412 18.561,20.5 L19.53,21.47 C19.823,21.763 19.823,22.237 19.53,22.53 C19.237,22.823 18.763,22.823 18.47,22.53 L16.659,20.72 C15.928,20.75 15.06,20.75 14.022,20.75 L9.977,20.75 C8.939,20.75 8.072,20.75 7.341,20.72 L5.53,22.53 C5.237,22.823 4.763,22.823 4.47,22.53 C4.177,22.237 4.177,21.763 4.47,21.47 L5.439,20.5 C5.065,20.412 4.718,20.291 4.39,20.123 C3.308,19.572 2.428,18.692 1.877,17.61 C1.541,16.952 1.393,16.225 1.321,15.345 C1.25,14.481 1.25,13.405 1.25,12.034 L1.25,11.966 C1.25,10.595 1.25,9.519 1.321,8.655 C1.393,7.775 1.541,7.048 1.877,6.39 C2.428,5.308 3.308,4.428 4.39,3.877 C5.048,3.541 5.775,3.393 6.655,3.321 C7.519,3.25 8.595,3.25 9.966,3.25 L10.189,3.25 L8.47,1.53 C8.177,1.237 8.177,0.763 8.47,0.47 Z"/>
</svg>

