<svg xmlns="http://www.w3.org/2000/svg" width="24" height="24" viewBox="0 0 24 24">
  <defs/>
  <path fill="#2D264B" d="M4.47,21.47 C4.177,21.763 4.177,22.237 4.47,22.53 C4.763,22.823 5.237,22.823 5.53,22.53 L4.47,21.47 Z M7,20 L6.476,19.463 L6.47,19.47 L7,20 Z M17,20 L16.455,20.515 L16.462,20.523 L16.47,20.53 L17,20 Z M18.47,22.53 C18.763,22.823 19.237,22.823 19.53,22.53 C19.823,22.237 19.823,21.763 19.53,21.47 L18.47,22.53 Z M15.53,1.53 C15.823,1.237 15.823,0.763 15.53,0.47 C15.237,0.177 14.763,0.177 14.47,0.47 L15.53,1.53 Z M9.53,0.47 C9.237,0.177 8.763,0.177 8.47,0.47 C8.177,0.763 8.177,1.237 8.47,1.53 L9.53,0.47 Z M5.53,22.53 L7.53,20.53 L6.47,19.47 L4.47,21.47 L5.53,22.53 Z M16.47,20.53 L18.47,22.53 L19.53,21.47 L17.53,19.47 L16.47,20.53 Z M14,19.25 L10,19.25 L10,20.75 L14,20.75 L14,19.25 Z M1.25,12 C1.25,13.388 1.249,14.474 1.321,15.345 C1.393,16.225 1.541,16.952 1.877,17.61 L3.213,16.93 C3.004,16.518 2.88,16.01 2.816,15.223 C2.751,14.427 2.75,13.412 2.75,12 L1.25,12 Z M5.071,18.787 C4.271,18.379 3.621,17.729 3.213,16.93 L1.877,17.61 C2.428,18.692 3.308,19.572 4.39,20.123 L5.071,18.787 Z M21.25,12 C21.25,13.412 21.249,14.427 21.184,15.223 C21.12,16.01 20.996,16.518 20.787,16.93 L22.123,17.61 C22.459,16.952 22.608,16.225 22.679,15.345 C22.751,14.474 22.75,13.388 22.75,12 L21.25,12 Z M20.787,16.93 C20.379,17.729 19.729,18.379 18.93,18.787 L19.61,20.123 C20.692,19.572 21.572,18.692 22.123,17.61 L20.787,16.93 Z M14,4.75 C15.412,4.75 16.427,4.751 17.223,4.816 C18.01,4.88 18.518,5.004 18.93,5.213 L19.61,3.877 C18.952,3.541 18.225,3.393 17.345,3.321 C16.474,3.249 15.388,3.25 14,3.25 L14,4.75 Z M22.75,12 C22.75,10.612 22.751,9.526 22.679,8.655 C22.608,7.775 22.459,7.048 22.123,6.39 L20.787,7.071 C20.996,7.482 21.12,7.99 21.184,8.777 C21.249,9.573 21.25,10.588 21.25,12 L22.75,12 Z M18.93,5.213 C19.729,5.621 20.379,6.271 20.787,7.071 L22.123,6.39 C21.572,5.308 20.692,4.428 19.61,3.877 L18.93,5.213 Z M10,3.25 C8.612,3.25 7.526,3.249 6.655,3.321 C5.775,3.393 5.048,3.541 4.39,3.877 L5.071,5.213 C5.482,5.004 5.99,4.88 6.777,4.816 C7.573,4.751 8.587,4.75 10,4.75 L10,3.25 Z M2.75,12 C2.75,10.588 2.751,9.573 2.816,8.777 C2.88,7.99 3.004,7.482 3.213,7.071 L1.877,6.39 C1.541,7.048 1.393,7.775 1.321,8.655 C1.249,9.526 1.25,10.612 1.25,12 L2.75,12 Z M4.39,3.877 C3.308,4.428 2.428,5.308 1.877,6.39 L3.213,7.071 C3.621,6.271 4.271,5.621 5.071,5.213 L4.39,3.877 Z M12.53,4.53 L15.53,1.53 L14.47,0.47 L11.47,3.47 L12.53,4.53 Z M12.53,3.47 L9.53,0.47 L8.47,1.53 L11.47,4.53 L12.53,3.47 Z M10,4.75 L12,4.75 L12,3.25 L10,3.25 L10,4.75 Z M12,4.75 L14,4.75 L14,3.25 L12,3.25 L12,4.75 Z M10,19.25 C8.77,19.25 7.841,19.25 7.09,19.206 L7.003,20.703 C7.807,20.75 8.787,20.75 10,20.75 L10,19.25 Z M7.09,19.206 C6.121,19.15 5.536,19.024 5.071,18.787 L4.39,20.123 C5.131,20.501 5.962,20.643 7.003,20.703 L7.09,19.206 Z M7.524,20.537 L7.57,20.491 L6.522,19.418 L6.476,19.463 L7.524,20.537 Z M14,20.75 C15.215,20.75 16.196,20.75 17.001,20.703 L16.913,19.206 C16.162,19.25 15.231,19.25 14,19.25 L14,20.75 Z M17.001,20.703 C18.04,20.643 18.87,20.5 19.61,20.123 L18.93,18.787 C18.465,19.023 17.881,19.149 16.913,19.206 L17.001,20.703 Z M17.545,19.485 L17.502,19.44 L16.412,20.47 L16.455,20.515 L17.545,19.485 Z"/>
</svg>

