<svg width="24" height="24" viewBox="0 0 24 24" fill="none" xmlns="http://www.w3.org/2000/svg">
<path d="M7.72796 5.53269C8.02216 5.24111 8.02427 4.76624 7.73269 4.47204C7.44111 4.17784 6.96624 4.17573 6.67204 4.46731L5.2309 5.89565C4.69472 6.42704 4.24754 6.87022 3.92869 7.26724C3.59427 7.68366 3.33989 8.12131 3.27193 8.6545C3.25731 8.76921 3.25 8.8846 3.25 9C3.25 9.1154 3.25731 9.23079 3.27193 9.34549C3.33989 9.87869 3.59427 10.3163 3.92869 10.7328C4.24753 11.1298 4.69472 11.573 5.23089 12.1043L6.67204 13.5327C6.96624 13.8243 7.44111 13.8222 7.73269 13.528C8.02427 13.2338 8.02216 12.7589 7.72796 12.4673L6.31758 11.0695C5.74268 10.4997 5.35733 10.1161 5.09823 9.79351C5.08635 9.77872 5.07487 9.76422 5.06379 9.75H14C16.3473 9.75 18.25 11.6528 18.25 14C18.25 16.3472 16.3473 18.25 14 18.25H6.00005C5.58584 18.25 5.25005 18.5858 5.25005 19C5.25005 19.4142 5.58584 19.75 6.00005 19.75H14C17.1757 19.75 19.75 17.1756 19.75 14C19.75 10.8244 17.1757 8.25 14 8.25H5.06379C5.07487 8.23579 5.08635 8.22128 5.09823 8.20649C5.35733 7.88386 5.74268 7.50033 6.31758 6.93054L7.72796 5.53269Z" fill="#2D264B"/>
</svg>
