<svg xmlns="http://www.w3.org/2000/svg" width="24" height="24" viewBox="0 0 24 24">
  <defs/>
  <path fill="#2D264B" d="M6,18.25 C5.586,18.25 5.25,18.586 5.25,19 C5.25,19.414 5.586,19.75 6,19.75 L6,18.25 Z M6.672,13.533 C6.966,13.824 7.441,13.822 7.733,13.528 C8.024,13.234 8.022,12.759 7.728,12.467 L6.672,13.533 Z M7.728,5.533 C8.022,5.241 8.024,4.766 7.733,4.472 C7.441,4.178 6.966,4.176 6.672,4.467 L7.728,5.533 Z M5,9.75 L14,9.75 L14,8.25 L5,8.25 L5,9.75 Z M14,18.25 L6,18.25 L6,19.75 L14,19.75 L14,18.25 Z M18.25,14 C18.25,16.347 16.347,18.25 14,18.25 L14,19.75 C17.176,19.75 19.75,17.176 19.75,14 L18.25,14 Z M14,9.75 C16.347,9.75 18.25,11.653 18.25,14 L19.75,14 C19.75,10.824 17.176,8.25 14,8.25 L14,9.75 Z M7.728,12.467 L6.318,11.069 L5.262,12.135 L6.672,13.533 L7.728,12.467 Z M6.318,6.931 L7.728,5.533 L6.672,4.467 L5.262,5.865 L6.318,6.931 Z M6.318,11.069 C5.743,10.5 5.357,10.116 5.098,9.794 C4.849,9.483 4.779,9.302 4.76,9.156 L3.272,9.345 C3.34,9.879 3.594,10.316 3.929,10.733 C4.254,11.137 4.712,11.59 5.262,12.135 L6.318,11.069 Z M5.262,5.865 C4.712,6.41 4.254,6.863 3.929,7.267 C3.594,7.684 3.34,8.121 3.272,8.655 L4.76,8.844 C4.779,8.698 4.849,8.517 5.098,8.206 C5.357,7.884 5.743,7.5 6.318,6.931 L5.262,5.865 Z M4.76,9.156 C4.753,9.104 4.75,9.052 4.75,9 L3.25,9 C3.25,9.115 3.257,9.231 3.272,9.345 L4.76,9.156 Z M4.75,9 C4.75,8.948 4.753,8.896 4.76,8.844 L3.272,8.655 C3.257,8.769 3.25,8.885 3.25,9 L4.75,9 Z M5,8.25 L4,8.25 L4,9.75 L5,9.75 L5,8.25 Z"/>
</svg>

