<svg width="24" height="24" viewBox="0 0 24 24" fill="none" xmlns="http://www.w3.org/2000/svg">
<path d="M10.75 13C10.75 12.3096 11.3096 11.75 12 11.75C12.6904 11.75 13.25 12.3096 13.25 13C13.25 13.6904 12.6904 14.25 12 14.25C11.3096 14.25 10.75 13.6904 10.75 13Z" fill="#2D264B"/>
<path fill-rule="evenodd" clip-rule="evenodd" d="M12 1.25C8.82436 1.25 6.25 3.82436 6.25 7V8.11372C6.25 8.18052 6.25873 8.24529 6.27512 8.30693C4.83903 8.83463 3.71966 9.99318 3.24472 11.4549C3 12.2081 3 13.1387 3 15C3 16.8613 3 17.7919 3.24472 18.5451C3.73931 20.0673 4.93273 21.2607 6.45492 21.7553C7.20808 22 8.13871 22 9.99998 22H14C15.8613 22 16.7919 22 17.5451 21.7553C19.0673 21.2607 20.2607 20.0673 20.7553 18.5451C21 17.7919 21 16.8613 21 15C21 13.1387 21 12.2081 20.7553 11.4549C20.2607 9.93272 19.0673 8.73931 17.5451 8.24472C17.3753 8.18955 17.1965 8.14681 17 8.11372C16.325 8 15.4417 8 14 8H10C9.03471 8 8.31973 8 7.75 8.03413V7C7.75 4.65279 9.65279 2.75 12 2.75C12.9578 2.75 13.8397 3.06595 14.55 3.59962C14.8811 3.84843 15.3513 3.78167 15.6001 3.45051C15.8489 3.11935 15.7822 2.64919 15.451 2.40038C14.4898 1.67823 13.2938 1.25 12 1.25ZM9.25 13C9.25 11.4812 10.4812 10.25 12 10.25C13.5188 10.25 14.75 11.4812 14.75 13C14.75 14.2588 13.9043 15.32 12.75 15.6465V19C12.75 19.4142 12.4142 19.75 12 19.75C11.5858 19.75 11.25 19.4142 11.25 19V15.6465C10.0957 15.32 9.25 14.2588 9.25 13Z" fill="#2D264B"/>
</svg>
