<svg width="24" height="24" viewBox="0 0 24 24" fill="none" xmlns="http://www.w3.org/2000/svg">
<path d="M12.4082 3.27591C12.1371 3.24136 11.8629 3.24136 11.5918 3.27591C10.9737 3.35469 10.4588 3.64963 9.95146 4.05706C9.46359 4.44886 8.91604 5.00133 8.2461 5.67731L6.46731 7.47204C6.17573 7.76624 6.17784 8.24111 6.47204 8.53269C6.76624 8.82427 7.24111 8.82216 7.53269 8.52796L9.28 6.76499C9.98914 6.0495 10.4772 5.55869 10.8907 5.22659C11.0251 5.11867 11.1434 5.03446 11.25 4.96908L11.25 20C11.25 20.4142 11.5858 20.75 12 20.75C12.4142 20.75 12.75 20.4142 12.75 20L12.75 4.96908C12.8566 5.03446 12.9749 5.11867 13.1093 5.22659C13.5228 5.55869 14.0109 6.0495 14.72 6.76499L16.4673 8.52796C16.7589 8.82216 17.2338 8.82428 17.528 8.53269C17.8222 8.24111 17.8243 7.76624 17.5327 7.47204L15.7539 5.6773C15.084 5.00133 14.5364 4.44886 14.0485 4.05706C13.5412 3.64963 13.0263 3.3547 12.4082 3.27591Z" fill="#2D264B"/>
</svg>
