<svg width="24" height="24" viewBox="0 0 24 24" fill="none" xmlns="http://www.w3.org/2000/svg">
<path d="M11.7815 10.7639C11.9266 10.7454 12.0734 10.7454 12.2185 10.7639C12.4496 10.7933 12.7076 10.904 13.1093 11.2266C13.5228 11.5587 14.0109 12.0495 14.72 12.765L16.4673 14.528C16.7589 14.8222 17.2338 14.8243 17.528 14.5327C17.8222 14.2411 17.8243 13.7662 17.5327 13.472L15.7539 11.6773C15.084 11.0013 14.5364 10.4489 14.0485 10.0571C13.5412 9.64963 13.0263 9.35469 12.4082 9.27591C12.1371 9.24136 11.8629 9.24136 11.5918 9.27591C10.9737 9.35469 10.4588 9.64963 9.95146 10.0571C9.46358 10.4489 8.91604 11.0013 8.24609 11.6773L6.46731 13.472C6.17573 13.7662 6.17784 14.2411 6.47204 14.5327C6.76624 14.8243 7.24111 14.8222 7.53269 14.528L9.28 12.765C9.98914 12.0495 10.4772 11.5587 10.8907 11.2266C11.2924 10.904 11.5504 10.7933 11.7815 10.7639Z" fill="#2D264B"/>
</svg>
