<svg width="24" height="24" viewBox="0 0 24 24" fill="none" xmlns="http://www.w3.org/2000/svg">
<path d="M11.25 21.9999C11.25 22.4141 11.5858 22.7499 12 22.7499C12.4142 22.7499 12.75 22.4141 12.75 21.9999H11.25ZM12.75 10.9999C12.75 10.5857 12.4142 10.2499 12 10.2499C11.5858 10.2499 11.25 10.5857 11.25 10.9999H12.75ZM9.13533 10.9998L9.13533 11.7498L9.13533 10.9998ZM7.55053 7.77986L6.95622 7.32236H6.95622L7.55053 7.77986ZM16.4494 7.77986L17.0437 7.32236L16.4494 7.77986ZM14.8646 10.9998V10.2498V10.9998ZM13.5848 4.05858L12.9905 4.51607L13.5848 4.05858ZM10.4152 4.05858L11.0095 4.51607L10.4152 4.05858ZM12.75 21.9999L12.75 10.9999H11.25L11.25 21.9999H12.75ZM12.9905 4.51607L15.8551 8.23735L17.0437 7.32236L14.1791 3.60108L12.9905 4.51607ZM14.8646 10.2498L9.13533 10.2498L9.13533 11.7498L14.8646 11.7498V10.2498ZM8.14483 8.23735L11.0095 4.51607L9.82087 3.60108L6.95622 7.32236L8.14483 8.23735ZM9.13533 10.2498C8.09804 10.2498 7.51208 9.05931 8.14483 8.23735L6.95622 7.32236C5.56418 9.13067 6.85328 11.7498 9.13533 11.7498L9.13533 10.2498ZM15.8551 8.23735C16.4879 9.05931 15.9019 10.2498 14.8646 10.2498V11.7498C17.1467 11.7498 18.4358 9.13068 17.0437 7.32236L15.8551 8.23735ZM14.1791 3.60108C13.0783 2.17106 10.9217 2.17106 9.82087 3.60108L11.0095 4.51607C11.5099 3.86606 12.4901 3.86606 12.9905 4.51607L14.1791 3.60108Z" fill="#2D264B"/>
</svg>
