<svg width="24" height="24" viewBox="0 0 24 24" fill="none" xmlns="http://www.w3.org/2000/svg">
<path fill-rule="evenodd" clip-rule="evenodd" d="M3.95491 18.9389C3 17.6246 3 15.7497 3 12C3 8.25027 3 6.3754 3.95491 5.06107C4.26331 4.6366 4.6366 4.26331 5.06107 3.95491C6.3754 3 8.25027 3 12 3C15.7497 3 17.6246 3 18.9389 3.95491C19.3634 4.26331 19.7367 4.6366 20.0451 5.06107C21 6.3754 21 8.25027 21 12C21 15.7497 21 17.6246 20.0451 18.9389C19.7367 19.3634 19.3634 19.7367 18.9389 20.0451C17.6246 21 15.7497 21 12 21C8.25027 21 6.3754 21 5.06107 20.0451C4.6366 19.7367 4.26331 19.3634 3.95491 18.9389ZM17.5327 13.472C17.8243 13.7662 17.8222 14.2411 17.528 14.5327C17.2338 14.8243 16.7589 14.8222 16.4673 14.528L14.72 12.765C14.0109 12.0495 13.5228 11.5587 13.1093 11.2266C12.7076 10.904 12.4496 10.7933 12.2185 10.7639C12.0734 10.7454 11.9266 10.7454 11.7815 10.7639C11.5504 10.7933 11.2924 10.904 10.8907 11.2266C10.4772 11.5587 9.98914 12.0495 9.28 12.765L7.53269 14.528C7.24111 14.8222 6.76624 14.8243 6.47204 14.5327C6.17784 14.2411 6.17573 13.7662 6.46731 13.472L8.2461 11.6773C8.91603 11.0013 9.46359 10.4489 9.95146 10.0571C10.4588 9.64963 10.9737 9.35469 11.5918 9.27591C11.8629 9.24136 12.1371 9.24136 12.4082 9.27591C13.0263 9.35469 13.5412 9.64963 14.0485 10.0571C14.5364 10.4489 15.084 11.0013 15.7539 11.6773L17.5327 13.472Z" fill="#2D264B"/>
</svg>
