<svg xmlns="http://www.w3.org/2000/svg" width="24" height="24" viewBox="0 0 24 24">
  <defs/>
  <path fill="#2D264B" d="M11.25,20 C11.25,20.414 11.586,20.75 12,20.75 C12.414,20.75 12.75,20.414 12.75,20 L11.25,20 Z M12.75,4 C12.75,3.586 12.414,3.25 12,3.25 C11.586,3.25 11.25,3.586 11.25,4 L12.75,4 Z M6.467,7.472 C6.176,7.766 6.178,8.241 6.472,8.533 C6.766,8.824 7.241,8.822 7.533,8.528 L6.467,7.472 Z M16.467,8.528 C16.759,8.822 17.234,8.824 17.528,8.533 C17.822,8.241 17.824,7.766 17.533,7.472 L16.467,8.528 Z M12.75,20 L12.75,4 L11.25,4 L11.25,20 L12.75,20 Z M7.533,8.528 L9.28,6.765 L8.215,5.709 L6.467,7.472 L7.533,8.528 Z M14.72,6.765 L16.467,8.528 L17.533,7.472 L15.785,5.709 L14.72,6.765 Z M9.28,6.765 C9.989,6.05 10.477,5.559 10.891,5.227 C11.292,4.904 11.55,4.793 11.781,4.764 L11.592,3.276 C10.974,3.355 10.459,3.65 9.951,4.057 C9.456,4.455 8.899,5.019 8.215,5.709 L9.28,6.765 Z M15.785,5.709 C15.101,5.019 14.544,4.455 14.049,4.057 C13.541,3.65 13.026,3.355 12.408,3.276 L12.219,4.764 C12.45,4.793 12.708,4.904 13.109,5.227 C13.523,5.559 14.011,6.05 14.72,6.765 L15.785,5.709 Z M11.781,4.764 C11.927,4.745 12.073,4.745 12.219,4.764 L12.408,3.276 C12.137,3.241 11.863,3.241 11.592,3.276 L11.781,4.764 Z"/>
</svg>

