<svg xmlns="http://www.w3.org/2000/svg" width="24" height="24" viewBox="0 0 24 24">
  <defs/>
  <path fill="#2D264B" d="M12.408,3.276 C12.137,3.241 11.863,3.241 11.592,3.276 C10.974,3.355 10.459,3.65 9.951,4.057 C9.464,4.449 8.916,5.001 8.246,5.677 L6.467,7.472 C6.176,7.766 6.178,8.241 6.472,8.533 C6.766,8.824 7.241,8.822 7.533,8.528 L9.28,6.765 C9.989,6.05 10.477,5.559 10.891,5.227 C11.025,5.119 11.143,5.034 11.25,4.969 L11.25,20 C11.25,20.414 11.586,20.75 12,20.75 C12.414,20.75 12.75,20.414 12.75,20 L12.75,4.969 C12.857,5.034 12.975,5.119 13.109,5.227 C13.523,5.559 14.011,6.05 14.72,6.765 L16.467,8.528 C16.759,8.822 17.234,8.824 17.528,8.533 C17.822,8.241 17.824,7.766 17.533,7.472 L15.754,5.677 C15.084,5.001 14.536,4.449 14.049,4.057 C13.541,3.65 13.026,3.355 12.408,3.276 Z"/>
</svg>

