<svg xmlns="http://www.w3.org/2000/svg" width="24" height="24" viewBox="0 0 24 24">
  <defs/>
  <path fill="#2D264B" d="M6.467,13.472 L8.215,11.708 Q10.487,9.417 11.592,9.276 Q12,9.224 12.408,9.276 Q13.513,9.417 15.785,11.708 L15.785,11.709 L17.533,13.472 Q17.751,13.693 17.75,14.003 Q17.749,14.314 17.528,14.533 Q17.307,14.751 16.997,14.75 Q16.686,14.749 16.467,14.528 L14.72,12.765 L14.719,12.764 Q12.811,10.839 12.218,10.764 Q12,10.736 11.781,10.764 Q11.189,10.839 9.281,12.764 L9.28,12.765 L7.533,14.528 Q7.314,14.749 7.003,14.75 Q6.693,14.751 6.472,14.533 Q6.251,14.314 6.25,14.003 Q6.249,13.693 6.467,13.472 Z"/>
</svg>

