<svg xmlns="http://www.w3.org/2000/svg" width="24" height="24" viewBox="0 0 24 24">
  <defs/>
  <path fill="#2D264B" d="M11.25,22 C11.25,22.414 11.586,22.75 12,22.75 C12.414,22.75 12.75,22.414 12.75,22 L11.25,22 Z M12.75,11 C12.75,10.586 12.414,10.25 12,10.25 C11.586,10.25 11.25,10.586 11.25,11 L12.75,11 Z M12.75,22 L12.75,11 L11.25,11 L11.25,22 L12.75,22 Z M12.991,4.516 L15.855,8.237 L17.044,7.322 L14.179,3.601 L12.991,4.516 Z M14.865,10.25 L9.135,10.25 L9.135,11.75 L14.865,11.75 L14.865,10.25 Z M8.145,8.237 L11.009,4.516 L9.821,3.601 L6.956,7.322 L8.145,8.237 Z M9.135,10.25 C8.098,10.25 7.512,9.059 8.145,8.237 L6.956,7.322 C5.564,9.131 6.853,11.75 9.135,11.75 L9.135,10.25 Z M15.855,8.237 C16.488,9.059 15.902,10.25 14.865,10.25 L14.865,11.75 C17.147,11.75 18.436,9.131 17.044,7.322 L15.855,8.237 Z M14.179,3.601 C13.078,2.171 10.922,2.171 9.821,3.601 L11.009,4.516 C11.51,3.866 12.49,3.866 12.991,4.516 L14.179,3.601 Z"/>
</svg>

