<svg xmlns="http://www.w3.org/2000/svg" width="24" height="24" viewBox="0 0 24 24">
  <defs/>
  <path fill="#2D264B" d="M12,2 C17.523,2 22,6.477 22,12 C22,17.523 17.523,22 12,22 C6.477,22 2,17.523 2,12 C2,6.477 6.477,2 12,2 Z M17.533,13.472 L15.754,11.677 C15.084,11.001 14.536,10.449 14.049,10.057 C13.541,9.65 13.026,9.355 12.408,9.276 C12.137,9.241 11.863,9.241 11.592,9.276 C10.974,9.355 10.459,9.65 9.951,10.057 C9.464,10.449 8.916,11.001 8.246,11.677 L6.467,13.472 C6.176,13.766 6.178,14.241 6.472,14.533 C6.766,14.824 7.241,14.822 7.533,14.528 L9.28,12.765 C9.989,12.05 10.477,11.559 10.891,11.227 C11.292,10.904 11.55,10.793 11.781,10.764 C11.927,10.745 12.073,10.745 12.219,10.764 C12.45,10.793 12.708,10.904 13.109,11.227 C13.523,11.559 14.011,12.05 14.72,12.765 L16.467,14.528 C16.759,14.822 17.234,14.824 17.528,14.533 C17.822,14.241 17.824,13.766 17.533,13.472 Z"/>
</svg>

