<svg xmlns="http://www.w3.org/2000/svg" width="24" height="24" viewBox="0 0 24 24">
  <defs/>
  <path fill="#2D264B" d="M11.25,16 C11.25,16.414 11.586,16.75 12,16.75 C12.414,16.75 12.75,16.414 12.75,16 L11.25,16 Z M7.467,10.672 C7.176,10.966 7.178,11.441 7.472,11.733 C7.766,12.024 8.241,12.022 8.533,11.728 L7.467,10.672 Z M15.467,11.728 C15.759,12.022 16.234,12.024 16.528,11.733 C16.822,11.441 16.824,10.966 16.533,10.672 L15.467,11.728 Z M12.75,8.016 C12.75,7.602 12.414,7.266 12,7.266 C11.586,7.266 11.25,7.602 11.25,8.016 L12.75,8.016 Z M21.25,12 C21.25,17.109 17.109,21.25 12,21.25 L12,22.75 C17.937,22.75 22.75,17.937 22.75,12 L21.25,12 Z M12,21.25 C6.891,21.25 2.75,17.109 2.75,12 L1.25,12 C1.25,17.937 6.063,22.75 12,22.75 L12,21.25 Z M2.75,12 C2.75,6.891 6.891,2.75 12,2.75 L12,1.25 C6.063,1.25 1.25,6.063 1.25,12 L2.75,12 Z M12,2.75 C17.109,2.75 21.25,6.891 21.25,12 L22.75,12 C22.75,6.063 17.937,1.25 12,1.25 L12,2.75 Z M12.75,16 L12.75,8.8 L11.25,8.8 L11.25,16 L12.75,16 Z M8.533,11.728 L9.931,10.318 L8.865,9.262 L7.467,10.672 L8.533,11.728 Z M14.069,10.318 L15.467,11.728 L16.533,10.672 L15.135,9.262 L14.069,10.318 Z M9.931,10.318 C10.5,9.743 10.884,9.357 11.207,9.098 C11.517,8.849 11.698,8.779 11.844,8.76 L11.655,7.272 C11.121,7.34 10.684,7.594 10.267,7.929 C9.863,8.254 9.41,8.712 8.865,9.262 L9.931,10.318 Z M15.135,9.262 C14.59,8.712 14.137,8.254 13.733,7.929 C13.316,7.594 12.879,7.34 12.345,7.272 L12.156,8.76 C12.302,8.779 12.483,8.849 12.793,9.098 C13.116,9.357 13.5,9.743 14.069,10.318 L15.135,9.262 Z M11.844,8.76 C11.948,8.747 12.052,8.747 12.156,8.76 L12.345,7.272 C12.116,7.243 11.884,7.243 11.655,7.272 L11.844,8.76 Z M12.75,8.8 L12.75,8.016 L11.25,8.016 L11.25,8.8 L12.75,8.8 Z"/>
</svg>

