<svg xmlns="http://www.w3.org/2000/svg" width="24" height="24" viewBox="0 0 24 24">
  <defs/>
  <path fill="#2D264B" d="M12,2 C17.523,2 22,6.477 22,12 C22,17.523 17.523,22 12,22 C6.477,22 2,17.523 2,12 C2,6.477 6.477,2 12,2 Z M12.75,16 L12.75,9.064 C12.764,9.075 12.779,9.086 12.793,9.098 C13.116,9.357 13.5,9.743 14.069,10.318 L15.467,11.728 C15.759,12.022 16.234,12.024 16.528,11.733 C16.822,11.441 16.824,10.966 16.533,10.672 L15.104,9.231 C14.573,8.695 14.13,8.248 13.733,7.929 C13.316,7.594 12.879,7.34 12.345,7.272 C12.231,7.257 12.115,7.25 12,7.25 C11.885,7.25 11.769,7.257 11.655,7.272 C11.121,7.34 10.684,7.594 10.267,7.929 C9.87,8.248 9.427,8.695 8.896,9.231 L7.467,10.672 C7.176,10.966 7.178,11.441 7.472,11.733 C7.766,12.024 8.241,12.022 8.533,11.728 L9.931,10.318 C10.5,9.743 10.884,9.357 11.207,9.098 C11.221,9.086 11.236,9.075 11.25,9.064 L11.25,16 C11.25,16.414 11.586,16.75 12,16.75 C12.414,16.75 12.75,16.414 12.75,16 Z"/>
</svg>

