<svg xmlns="http://www.w3.org/2000/svg" width="24" height="24" viewBox="0 0 24 24">
  <defs/>
  <path fill="#2D264B" d="M3.955,18.939 C3,17.625 3,15.75 3,12 C3,8.25 3,6.375 3.955,5.061 C4.263,4.637 4.637,4.263 5.061,3.955 C6.375,3 8.25,3 12,3 C15.75,3 17.625,3 18.939,3.955 C19.363,4.263 19.737,4.637 20.045,5.061 C21,6.375 21,8.25 21,12 C21,15.75 21,17.625 20.045,18.939 C19.737,19.363 19.363,19.737 18.939,20.045 C17.625,21 15.75,21 12,21 C8.25,21 6.375,21 5.061,20.045 C4.637,19.737 4.263,19.363 3.955,18.939 Z M17.533,13.472 L15.754,11.677 C15.084,11.001 14.536,10.449 14.049,10.057 C13.541,9.65 13.026,9.355 12.408,9.276 C12.137,9.241 11.863,9.241 11.592,9.276 C10.974,9.355 10.459,9.65 9.951,10.057 C9.464,10.449 8.916,11.001 8.246,11.677 L6.467,13.472 C6.176,13.766 6.178,14.241 6.472,14.533 C6.766,14.824 7.241,14.822 7.533,14.528 L9.28,12.765 C9.989,12.05 10.477,11.559 10.891,11.227 C11.292,10.904 11.55,10.793 11.781,10.764 C11.927,10.745 12.073,10.745 12.219,10.764 C12.45,10.793 12.708,10.904 13.109,11.227 C13.523,11.559 14.011,12.05 14.72,12.765 L16.467,14.528 C16.759,14.822 17.234,14.824 17.528,14.533 C17.822,14.241 17.824,13.766 17.533,13.472 Z"/>
</svg>

