<svg xmlns="http://www.w3.org/2000/svg" width="24" height="24" viewBox="0 0 24 24">
  <defs/>
  <path fill="#2D264B" d="M20.6,10.55 C20.351,10.218 19.881,10.152 19.55,10.4 C19.219,10.649 19.152,11.119 19.401,11.45 L20.6,10.55 Z M4.599,11.45 C4.848,11.119 4.781,10.649 4.45,10.4 C4.119,10.152 3.649,10.218 3.4,10.55 L4.599,11.45 Z M11.25,17 C11.25,17.414 11.586,17.75 12,17.75 C12.414,17.75 12.75,17.414 12.75,17 L11.25,17 Z M7.412,6.534 C7.155,6.859 7.209,7.33 7.534,7.588 C7.859,7.845 8.33,7.791 8.588,7.466 L7.412,6.534 Z M15.412,7.466 C15.67,7.791 16.141,7.845 16.466,7.588 C16.791,7.33 16.845,6.859 16.588,6.534 L15.412,7.466 Z M20.25,14 L20.25,15 L21.75,15 L21.75,14 L20.25,14 Z M15,20.25 L9,20.25 L9,21.75 L15,21.75 L15,20.25 Z M3.75,15 L3.75,14 L2.25,14 L2.25,15 L3.75,15 Z M9,20.25 C8.042,20.25 7.651,20.248 7.335,20.198 L7.101,21.679 C7.562,21.752 8.1,21.75 9,21.75 L9,20.25 Z M2.25,15 C2.25,15.9 2.248,16.438 2.321,16.899 L3.802,16.665 C3.752,16.349 3.75,15.958 3.75,15 L2.25,15 Z M7.335,20.198 C5.517,19.91 4.09,18.483 3.802,16.665 L2.321,16.899 C2.71,19.36 4.64,21.29 7.101,21.679 L7.335,20.198 Z M20.25,15 C20.25,15.958 20.248,16.349 20.198,16.665 L21.679,16.899 C21.752,16.438 21.75,15.9 21.75,15 L20.25,15 Z M15,21.75 C15.9,21.75 16.438,21.752 16.899,21.679 L16.665,20.198 C16.349,20.248 15.958,20.25 15,20.25 L15,21.75 Z M20.198,16.665 C19.91,18.483 18.483,19.91 16.665,20.198 L16.899,21.679 C19.36,21.29 21.29,19.36 21.679,16.899 L20.198,16.665 Z M21.75,14 C21.75,12.706 21.322,11.511 20.6,10.55 L19.401,11.45 C19.934,12.161 20.25,13.042 20.25,14 L21.75,14 Z M3.75,14 C3.75,13.042 4.066,12.161 4.599,11.45 L3.4,10.55 C2.678,11.511 2.25,12.706 2.25,14 L3.75,14 Z M12.75,17 L12.75,4 L11.25,4 L11.25,17 L12.75,17 Z M8.588,7.466 L9.986,5.703 L8.81,4.771 L7.412,6.534 L8.588,7.466 Z M14.014,5.703 L15.412,7.466 L16.588,6.534 L15.19,4.771 L14.014,5.703 Z M9.986,5.703 C10.554,4.986 10.942,4.499 11.268,4.171 C11.591,3.847 11.761,3.777 11.867,3.761 L11.631,2.279 C11.058,2.371 10.61,2.707 10.206,3.113 C9.805,3.515 9.356,4.082 8.81,4.771 L9.986,5.703 Z M15.19,4.771 C14.644,4.082 14.195,3.515 13.794,3.113 C13.39,2.707 12.942,2.371 12.369,2.279 L12.133,3.761 C12.239,3.777 12.409,3.847 12.732,4.171 C13.058,4.499 13.446,4.986 14.014,5.703 L15.19,4.771 Z M11.867,3.761 C11.912,3.753 11.956,3.75 12,3.75 L12,2.25 C11.877,2.25 11.753,2.26 11.631,2.279 L11.867,3.761 Z M12,3.75 C12.044,3.75 12.088,3.753 12.133,3.761 L12.369,2.279 C12.247,2.26 12.123,2.25 12,2.25 L12,3.75 Z M12.75,4 L12.75,3 L11.25,3 L11.25,4 L12.75,4 Z"/>
</svg>

