<svg width="24" height="24" viewBox="0 0 24 24" fill="none" xmlns="http://www.w3.org/2000/svg">
<path fill-rule="evenodd" clip-rule="evenodd" d="M11.25 17C11.25 17.4142 11.5858 17.75 12 17.75C12.4142 17.75 12.75 17.4142 12.75 17L12.75 9H15C15.929 9 16.3935 9 16.7822 9.06156C18.9216 9.40042 20.5996 11.0784 20.9384 13.2178C21 13.6065 21 14.071 21 15C21 15.929 21 16.3935 20.9384 16.7822C20.5996 18.9216 18.9216 20.5996 16.7822 20.9384C16.3935 21 15.929 21 15 21H9C8.07099 21 7.60649 21 7.21783 20.9384C5.07837 20.5996 3.40042 18.9216 3.06156 16.7822C3 16.3935 3 15.929 3 15C3 14.071 3 13.6065 3.06156 13.2178C3.40042 11.0784 5.07837 9.40042 7.21783 9.06156C7.60649 9 8.07099 9 9 9H11.25L11.25 17ZM11.25 9L11.25 4.18952C10.9273 4.51697 10.5437 4.99898 9.98553 5.703L8.58768 7.46597C8.33034 7.79054 7.8586 7.84503 7.53403 7.58768C7.20946 7.33034 7.15497 6.8586 7.41232 6.53403L8.83857 4.73524C9.37175 4.06275 9.81172 3.50784 10.2055 3.11252C10.6096 2.70685 11.0582 2.37055 11.6313 2.27923C11.7534 2.25978 11.8766 2.25 12 2.25C12.1234 2.25 12.2466 2.25978 12.3687 2.27923C12.9418 2.37055 13.3904 2.70685 13.7945 3.11252C14.1883 3.50784 14.6282 4.06275 15.1614 4.73523L16.5877 6.53403C16.845 6.8586 16.7905 7.33034 16.466 7.58768C16.1414 7.84503 15.6697 7.79054 15.4123 7.46597L14.0145 5.703C13.4563 4.99897 13.0727 4.51697 12.75 4.18952L12.75 9H11.25Z" fill="#2D264B"/>
</svg>
