<svg xmlns="http://www.w3.org/2000/svg" width="24" height="24" viewBox="0 0 24 24">
  <defs/>
  <path fill="#2D264B" d="M11.25,9 L11.25,4.19 C10.927,4.517 10.544,4.999 9.986,5.703 L8.588,7.466 C8.33,7.791 7.859,7.845 7.534,7.588 C7.209,7.33 7.155,6.859 7.412,6.534 L8.839,4.735 C9.372,4.063 9.812,3.508 10.205,3.113 C10.61,2.707 11.058,2.371 11.631,2.279 C11.753,2.26 11.877,2.25 12,2.25 C12.123,2.25 12.247,2.26 12.369,2.279 C12.942,2.371 13.39,2.707 13.795,3.113 C14.188,3.508 14.628,4.063 15.161,4.735 L16.588,6.534 C16.845,6.859 16.791,7.33 16.466,7.588 C16.141,7.845 15.67,7.791 15.412,7.466 L14.014,5.703 C13.456,4.999 13.073,4.517 12.75,4.19 L12.75,9 L15,9 C15.929,9 16.393,9 16.782,9.062 C18.922,9.4 20.6,11.078 20.938,13.218 C21,13.606 21,14.071 21,15 C21,15.929 21,16.393 20.938,16.782 C20.6,18.922 18.922,20.6 16.782,20.938 C16.393,21 15.929,21 15,21 L9,21 C8.071,21 7.606,21 7.218,20.938 C5.078,20.6 3.4,18.922 3.062,16.782 C3,16.393 3,15.929 3,15 C3,14.071 3,13.606 3.062,13.218 C3.4,11.078 5.078,9.4 7.218,9.062 C7.606,9 8.071,9 9,9 Z M11.25,17 C11.25,17.414 11.586,17.75 12,17.75 C12.414,17.75 12.75,17.414 12.75,17 L12.75,9 L11.25,9 Z"/>
</svg>

