<svg width="24" height="24" viewBox="0 0 24 24" fill="none" xmlns="http://www.w3.org/2000/svg">
<path d="M7.25 8C7.25 5.37665 9.37665 3.25 12 3.25C14.6234 3.25 16.75 5.37665 16.75 8C16.75 10.6234 14.6234 12.75 12 12.75C9.37665 12.75 7.25 10.6234 7.25 8Z" fill="#2D264B"/>
<path fill-rule="evenodd" clip-rule="evenodd" d="M11.1462 1.25H12.8538C14.3096 1.24999 15.451 1.24999 16.3664 1.32925C17.2988 1.40998 18.0668 1.57719 18.7557 1.95335C19.7231 2.48162 20.5184 3.27685 21.0467 4.24432C21.4228 4.9332 21.59 5.70118 21.6708 6.63362C21.75 7.54902 21.75 8.69034 21.75 10.1461V13.2998C21.75 13.3587 21.75 13.3945 21.7497 13.4257C21.7282 15.4183 20.6939 17.1666 19.1403 18.181C18.2534 18.7601 17.1962 19.1011 16.0621 19.1133C16.031 19.1136 15.9954 19.1136 15.9371 19.1136L15.9253 19.1136L15.9241 19.1136C15.8571 19.114 15.793 19.1413 15.7463 19.1893L15.3854 19.5642C14.7399 20.235 14.2025 20.7932 13.7174 21.1768C13.206 21.5811 12.6625 21.8659 12 21.8659C11.3375 21.8659 10.794 21.5811 10.2826 21.1768C9.79744 20.7932 9.26013 20.2349 8.61457 19.5642L8.25452 19.1901L8.25371 19.1893C8.20698 19.1413 8.14293 19.114 8.07593 19.1136L8.0747 19.1136L8.06294 19.1136C8.00458 19.1136 7.96899 19.1136 7.93795 19.1133C6.80376 19.1011 5.74659 18.7601 4.85969 18.181C3.30611 17.1666 2.27184 15.4183 2.25034 13.4257C2.25 13.3946 2.25 13.359 2.25 13.3005V10.1462C2.24999 8.69035 2.24999 7.54902 2.32925 6.63362C2.40998 5.70118 2.57719 4.9332 2.95335 4.24432C3.48162 3.27685 4.27685 2.48162 5.24432 1.95335C5.9332 1.57719 6.70118 1.40998 7.63362 1.32925C8.54903 1.24999 9.69036 1.24999 11.1462 1.25ZM7.76301 2.82366C6.92944 2.89583 6.39438 3.03442 5.96319 3.26987C5.24811 3.66033 4.66033 4.24811 4.26987 4.96319C4.03442 5.39438 3.89583 5.92944 3.82366 6.76301C3.75066 7.60616 3.75 8.68267 3.75 10.1818V13.2949C3.75 13.3607 3.75001 13.3876 3.75025 13.4095C3.76288 14.58 4.24774 15.637 5.02505 16.3989C5.87316 15.1054 7.33606 14.25 9 14.25H15C16.6639 14.25 18.1268 15.1054 18.9749 16.3989C19.7523 15.637 20.2371 14.58 20.2498 13.4095C20.25 13.3876 20.25 13.3607 20.25 13.2949V10.1818C20.25 8.68267 20.2493 7.60616 20.1763 6.76301C20.1042 5.92944 19.9656 5.39438 19.7301 4.96319C19.3397 4.24811 18.7519 3.66033 18.0368 3.26987C17.6056 3.03442 17.0706 2.89583 16.237 2.82366C15.3938 2.75066 14.3173 2.75 12.8182 2.75H11.1818C9.68267 2.75 8.60616 2.75066 7.76301 2.82366Z" fill="#2D264B"/>
</svg>
