<svg width="24" height="24" viewBox="0 0 24 24" fill="none" xmlns="http://www.w3.org/2000/svg">
<path fill-rule="evenodd" clip-rule="evenodd" d="M12.8538 1.25C14.3096 1.24999 15.451 1.24999 16.3664 1.32925C17.2988 1.40998 18.0668 1.57719 18.7557 1.95335C19.7231 2.48162 20.5184 3.27685 21.0467 4.24432C21.4228 4.9332 21.59 5.70118 21.6708 6.63362C21.75 7.54902 21.75 8.69034 21.75 10.1461V13.2998C21.75 13.3587 21.75 13.3945 21.7497 13.4257C21.7282 15.4183 20.6939 17.1666 19.1403 18.181C18.2534 18.7601 17.1962 19.1011 16.0621 19.1133C16.031 19.1136 15.9954 19.1136 15.9371 19.1136L15.9253 19.1136L15.9241 19.1136C15.8571 19.114 15.793 19.1413 15.7463 19.1893L15.3854 19.5642C14.7399 20.235 14.2025 20.7932 13.7174 21.1768C13.206 21.5811 12.6625 21.8659 12 21.8659C11.3375 21.8659 10.794 21.5811 10.2826 21.1768C9.79744 20.7932 9.2601 20.2349 8.61454 19.5642L8.25452 19.1901L8.25371 19.1893C8.20698 19.1413 8.14293 19.114 8.07593 19.1136L8.0747 19.1136L8.06294 19.1136C8.052 19.1136 8.04186 19.1136 8.03239 19.1136C7.99139 19.1136 7.96317 19.1136 7.93795 19.1133C6.80376 19.1011 5.74659 18.7601 4.85969 18.181C3.30611 17.1666 2.27184 15.4183 2.25034 13.4257C2.25 13.3946 2.25 13.359 2.25 13.3005V10.1462C2.24999 8.69035 2.24999 7.54902 2.32925 6.63362C2.40998 5.70118 2.57719 4.9332 2.95335 4.24432C3.48162 3.27685 4.27685 2.48162 5.24432 1.95335C5.9332 1.57719 6.70118 1.40998 7.63362 1.32925C8.54903 1.24999 9.69036 1.24999 11.1462 1.25H12.8538ZM18.3912 16.8777C17.6839 15.7499 16.4295 15 15 15H9C7.5705 15 6.31614 15.7499 5.60882 16.8777C5.6323 16.8937 5.65596 16.9095 5.67978 16.9251C6.3345 17.3526 7.11403 17.6043 7.95413 17.6134C7.97604 17.6136 8.00293 17.6136 8.0687 17.6136L8.08422 17.6137C8.55323 17.6163 9.00157 17.807 9.32868 18.1431L9.33946 18.1543L9.65842 18.4857C10.3504 19.2046 10.8174 19.6875 11.2128 20.0001C11.5912 20.2991 11.8116 20.3659 12 20.3659C12.1884 20.3659 12.4088 20.2991 12.7872 20.0001C13.1826 19.6875 13.6496 19.2046 14.3416 18.4857L14.6605 18.1543L14.6713 18.1431C14.9984 17.807 15.4468 17.6163 15.9158 17.6137L15.9313 17.6136C15.9436 17.6136 15.9546 17.6136 15.9644 17.6136C16.007 17.6136 16.0281 17.6136 16.0459 17.6134C16.886 17.6043 17.6655 17.3526 18.3202 16.9251C18.344 16.9095 18.3677 16.8937 18.3912 16.8777ZM12 3.25C9.37665 3.25 7.25 5.37665 7.25 8C7.25 10.6234 9.37665 12.75 12 12.75C14.6234 12.75 16.75 10.6234 16.75 8C16.75 5.37665 14.6234 3.25 12 3.25Z" fill="#2D264B"/>
</svg>
