<svg xmlns="http://www.w3.org/2000/svg" width="24" height="24" viewBox="0 0 24 24">
  <defs/>
  <path fill="#2D264B" d="M12.854,1.25 C14.31,1.25 15.451,1.25 16.366,1.329 C17.299,1.41 18.067,1.577 18.756,1.953 C19.723,2.482 20.518,3.277 21.047,4.244 C21.423,4.933 21.59,5.701 21.671,6.634 C21.75,7.549 21.75,8.69 21.75,10.146 L21.75,13.3 C21.75,13.359 21.75,13.394 21.75,13.426 C21.728,15.418 20.694,17.167 19.14,18.181 C18.253,18.76 17.196,19.101 16.062,19.113 C16.031,19.114 15.995,19.114 15.937,19.114 L15.924,19.114 C15.857,19.114 15.793,19.141 15.746,19.189 L15.385,19.564 C14.74,20.235 14.203,20.793 13.717,21.177 C13.206,21.581 12.663,21.866 12,21.866 C11.337,21.866 10.794,21.581 10.283,21.177 C9.797,20.793 9.26,20.235 8.615,19.564 L8.255,19.19 L8.254,19.189 C8.207,19.141 8.143,19.114 8.076,19.114 L8.032,19.114 C7.991,19.114 7.963,19.114 7.938,19.113 C6.804,19.101 5.747,18.76 4.86,18.181 C3.306,17.167 2.272,15.418 2.25,13.426 C2.25,13.395 2.25,13.359 2.25,13.3 L2.25,10.146 C2.25,8.69 2.25,7.549 2.329,6.634 C2.41,5.701 2.577,4.933 2.953,4.244 C3.482,3.277 4.277,2.482 5.244,1.953 C5.933,1.577 6.701,1.41 7.634,1.329 C8.549,1.25 9.69,1.25 11.146,1.25 Z M12,3.25 C9.377,3.25 7.25,5.377 7.25,8 C7.25,10.623 9.377,12.75 12,12.75 C14.623,12.75 16.75,10.623 16.75,8 C16.75,5.377 14.623,3.25 12,3.25 Z M18.391,16.878 C17.684,15.75 16.43,15 15,15 L9,15 C7.57,15 6.316,15.75 5.609,16.878 C5.632,16.894 5.656,16.91 5.68,16.925 C6.334,17.353 7.114,17.604 7.954,17.613 C7.976,17.614 8.003,17.614 8.069,17.614 L8.084,17.614 C8.553,17.616 9.002,17.807 9.329,18.143 L9.339,18.154 L9.658,18.486 C10.35,19.205 10.817,19.688 11.213,20 C11.591,20.299 11.812,20.366 12,20.366 C12.188,20.366 12.409,20.299 12.787,20 C13.183,19.688 13.65,19.205 14.342,18.486 L14.66,18.154 L14.671,18.143 C14.998,17.807 15.447,17.616 15.916,17.614 L15.931,17.614 L15.964,17.614 C16.007,17.614 16.028,17.614 16.046,17.613 C16.886,17.604 17.666,17.353 18.32,16.925 C18.344,16.91 18.368,16.894 18.391,16.878 Z"/>
</svg>

