<svg xmlns="http://www.w3.org/2000/svg" width="24" height="24" viewBox="0 0 24 24">
  <defs/>
  <path fill="#2D264B" d="M15.25,8 C15.25,9.795 13.795,11.25 12,11.25 L12,12.75 C14.623,12.75 16.75,10.623 16.75,8 L15.25,8 Z M12,11.25 C10.205,11.25 8.75,9.795 8.75,8 L7.25,8 C7.25,10.623 9.377,12.75 12,12.75 L12,11.25 Z M8.75,8 C8.75,6.205 10.205,4.75 12,4.75 L12,3.25 C9.377,3.25 7.25,5.377 7.25,8 L8.75,8 Z M12,4.75 C13.795,4.75 15.25,6.205 15.25,8 L16.75,8 C16.75,5.377 14.623,3.25 12,3.25 L12,4.75 Z M11.182,2.75 L12.818,2.75 L12.818,1.25 L11.182,1.25 L11.182,2.75 Z M20.25,10.182 L20.25,13.295 L21.75,13.295 L21.75,10.182 L20.25,10.182 Z M3.75,13.295 L3.75,10.182 L2.25,10.182 L2.25,13.295 L3.75,13.295 Z M14.661,18.154 L14.342,18.486 L15.422,19.526 L15.741,19.195 L14.661,18.154 Z M9.658,18.486 L9.339,18.154 L8.259,19.195 L8.578,19.526 L9.658,18.486 Z M9.339,18.154 C9.336,18.151 9.332,18.147 9.329,18.143 L8.254,19.189 C8.254,19.189 8.254,19.189 8.255,19.19 C8.255,19.191 8.257,19.192 8.259,19.195 L9.339,18.154 Z M8.069,19.114 C8.072,19.114 8.073,19.114 8.075,19.114 C8.076,19.114 8.076,19.114 8.076,19.114 L8.084,17.614 C8.079,17.614 8.074,17.614 8.069,17.614 L8.069,19.114 Z M9.329,18.143 C9.002,17.807 8.553,17.616 8.084,17.614 L8.076,19.114 C8.143,19.114 8.207,19.141 8.254,19.189 L9.329,18.143 Z M15.931,17.614 C15.926,17.614 15.921,17.614 15.916,17.614 L15.924,19.114 C15.924,19.114 15.924,19.114 15.925,19.114 C15.927,19.114 15.928,19.114 15.931,19.114 L15.931,17.614 Z M15.741,19.195 C15.746,19.19 15.746,19.189 15.746,19.189 L14.671,18.143 C14.668,18.147 14.664,18.151 14.661,18.154 L15.741,19.195 Z M15.916,17.614 C15.447,17.616 14.998,17.807 14.671,18.143 L15.746,19.189 C15.793,19.141 15.857,19.114 15.924,19.114 L15.916,17.614 Z M14.342,18.486 C13.65,19.205 13.183,19.688 12.787,20 C12.409,20.299 12.188,20.366 12,20.366 L12,21.866 C12.662,21.866 13.206,21.581 13.717,21.177 C14.212,20.786 14.76,20.214 15.422,19.526 L14.342,18.486 Z M8.578,19.526 C9.24,20.214 9.788,20.786 10.283,21.177 C10.794,21.581 11.338,21.866 12,21.866 L12,20.366 C11.812,20.366 11.591,20.299 11.213,20 C10.817,19.688 10.35,19.205 9.658,18.486 L8.578,19.526 Z M2.25,13.295 C2.25,13.357 2.25,13.394 2.25,13.426 L3.75,13.409 C3.75,13.388 3.75,13.361 3.75,13.295 L2.25,13.295 Z M8.069,17.614 C8.003,17.614 7.976,17.614 7.954,17.613 L7.938,19.113 C7.97,19.114 8.007,19.114 8.069,19.114 L8.069,17.614 Z M20.25,13.295 C20.25,13.361 20.25,13.388 20.25,13.409 L21.75,13.426 C21.75,13.394 21.75,13.357 21.75,13.295 L20.25,13.295 Z M15.931,19.114 C15.993,19.114 16.03,19.114 16.062,19.113 L16.046,17.613 C16.024,17.614 15.997,17.614 15.931,17.614 L15.931,19.114 Z M12.818,2.75 C14.317,2.75 15.394,2.751 16.237,2.824 C17.071,2.896 17.606,3.034 18.037,3.27 L18.756,1.953 C18.067,1.577 17.299,1.41 16.366,1.329 C15.444,1.249 14.291,1.25 12.818,1.25 L12.818,2.75 Z M21.75,10.182 C21.75,8.709 21.751,7.556 21.671,6.634 C21.59,5.701 21.423,4.933 21.047,4.244 L19.73,4.963 C19.966,5.394 20.104,5.929 20.176,6.763 C20.249,7.606 20.25,8.683 20.25,10.182 L21.75,10.182 Z M18.037,3.27 C18.752,3.66 19.34,4.248 19.73,4.963 L21.047,4.244 C20.518,3.277 19.723,2.482 18.756,1.953 L18.037,3.27 Z M11.182,1.25 C9.709,1.25 8.556,1.249 7.634,1.329 C6.701,1.41 5.933,1.577 5.244,1.953 L5.963,3.27 C6.394,3.034 6.929,2.896 7.763,2.824 C8.606,2.751 9.683,2.75 11.182,2.75 L11.182,1.25 Z M3.75,10.182 C3.75,8.683 3.751,7.606 3.824,6.763 C3.896,5.929 4.034,5.394 4.27,4.963 L2.953,4.244 C2.577,4.933 2.41,5.701 2.329,6.634 C2.249,7.556 2.25,8.709 2.25,10.182 L3.75,10.182 Z M5.244,1.953 C4.277,2.482 3.482,3.277 2.953,4.244 L4.27,4.963 C4.66,4.248 5.248,3.66 5.963,3.27 L5.244,1.953 Z M9,15.75 L15,15.75 L15,14.25 L9,14.25 L9,15.75 Z M9,14.25 C6.981,14.25 5.259,15.509 4.571,17.282 L5.969,17.824 C6.441,16.609 7.621,15.75 9,15.75 L9,14.25 Z M2.25,13.426 C2.272,15.418 3.306,17.167 4.86,18.181 L5.68,16.925 C4.528,16.173 3.766,14.881 3.75,13.409 L2.25,13.426 Z M4.86,18.181 C5.747,18.76 6.804,19.101 7.938,19.113 L7.954,17.613 C7.114,17.604 6.335,17.353 5.68,16.925 L4.86,18.181 Z M15,15.75 C16.379,15.75 17.559,16.609 18.031,17.824 L19.429,17.282 C18.741,15.509 17.019,14.25 15,14.25 L15,15.75 Z M20.25,13.409 C20.234,14.881 19.472,16.173 18.32,16.925 L19.14,18.181 C20.694,17.167 21.728,15.418 21.75,13.426 L20.25,13.409 Z M18.32,16.925 C17.666,17.353 16.886,17.604 16.046,17.613 L16.062,19.113 C17.196,19.101 18.253,18.76 19.14,18.181 L18.32,16.925 Z"/>
</svg>

