<svg xmlns="http://www.w3.org/2000/svg" width="24" height="24" viewBox="0 0 24 24">
  <defs/>
  <path fill="#2D264B" d="M7.25,8 C7.25,5.377 9.377,3.25 12,3.25 C14.623,3.25 16.75,5.377 16.75,8 C16.75,10.623 14.623,12.75 12,12.75 C9.377,12.75 7.25,10.623 7.25,8 Z"/>
  <path fill="#2D264B" d="M11.146,1.25 L12.854,1.25 C14.31,1.25 15.451,1.25 16.366,1.329 C17.299,1.41 18.067,1.577 18.756,1.953 C19.723,2.482 20.518,3.277 21.047,4.244 C21.423,4.933 21.59,5.701 21.671,6.634 C21.75,7.549 21.75,8.69 21.75,10.146 L21.75,13.3 C21.75,13.359 21.75,13.394 21.75,13.426 C21.728,15.418 20.694,17.167 19.14,18.181 C18.253,18.76 17.196,19.101 16.062,19.113 C16.031,19.114 15.995,19.114 15.937,19.114 L15.924,19.114 C15.857,19.114 15.793,19.141 15.746,19.189 L15.385,19.564 C14.74,20.235 14.203,20.793 13.717,21.177 C13.206,21.581 12.663,21.866 12,21.866 C11.337,21.866 10.794,21.581 10.283,21.177 C9.797,20.793 9.26,20.235 8.615,19.564 L8.255,19.19 L8.254,19.189 C8.207,19.141 8.143,19.114 8.076,19.114 L8.063,19.114 C8.005,19.114 7.969,19.114 7.938,19.113 C6.804,19.101 5.747,18.76 4.86,18.181 C3.306,17.167 2.272,15.418 2.25,13.426 C2.25,13.395 2.25,13.359 2.25,13.3 L2.25,10.146 C2.25,8.69 2.25,7.549 2.329,6.634 C2.41,5.701 2.577,4.933 2.953,4.244 C3.482,3.277 4.277,2.482 5.244,1.953 C5.933,1.577 6.701,1.41 7.634,1.329 C8.549,1.25 9.69,1.25 11.146,1.25 Z M7.763,2.824 C6.929,2.896 6.394,3.034 5.963,3.27 C5.248,3.66 4.66,4.248 4.27,4.963 C4.034,5.394 3.896,5.929 3.824,6.763 C3.751,7.606 3.75,8.683 3.75,10.182 L3.75,13.295 C3.75,13.361 3.75,13.388 3.75,13.41 C3.763,14.58 4.248,15.637 5.025,16.399 C5.873,15.105 7.336,14.25 9,14.25 L15,14.25 C16.664,14.25 18.127,15.105 18.975,16.399 C19.752,15.637 20.237,14.58 20.25,13.41 C20.25,13.388 20.25,13.361 20.25,13.295 L20.25,10.182 C20.25,8.683 20.249,7.606 20.176,6.763 C20.104,5.929 19.966,5.394 19.73,4.963 C19.34,4.248 18.752,3.66 18.037,3.27 C17.606,3.034 17.071,2.896 16.237,2.824 C15.394,2.751 14.317,2.75 12.818,2.75 L11.182,2.75 C9.683,2.75 8.606,2.751 7.763,2.824 Z"/>
</svg>

