<svg width="24" height="24" viewBox="0 0 24 24" fill="none" xmlns="http://www.w3.org/2000/svg">
<path fill-rule="evenodd" clip-rule="evenodd" d="M8.43562 2.75683C9.45899 -0.829098 14.5409 -0.829098 15.5643 2.75683C15.8911 3.90199 17.0676 4.58125 18.2228 4.2917C21.84 3.385 24.381 7.78611 21.7872 10.4653C20.9588 11.3209 20.9588 12.6795 21.7872 13.5351C24.381 16.2143 21.84 20.6154 18.2228 19.7087C17.0676 19.4192 15.8911 20.0984 15.5643 21.2436C14.5409 24.8295 9.45899 24.8295 8.43562 21.2436C8.1088 20.0984 6.93229 19.4192 5.77714 19.7087C2.15995 20.6154 -0.381026 16.2143 2.21279 13.5351C3.04112 12.6795 3.04112 11.3209 2.21279 10.4653C-0.381025 7.78611 2.15995 3.385 5.77714 4.2917C6.93229 4.58125 8.1088 3.90199 8.43562 2.75683ZM16.5762 9.48035C16.8413 9.16214 16.7983 8.68922 16.4801 8.42405C16.1619 8.15887 15.689 8.20187 15.4238 8.52008L11.9603 12.6763C11.5895 13.1213 11.3618 13.3917 11.1742 13.5611C11.0872 13.6397 11.0356 13.671 11.0109 13.6829C11.0058 13.6854 11.0023 13.6868 11 13.6877C10.9977 13.6868 10.9942 13.6854 10.9891 13.6829C10.9644 13.671 10.9128 13.6397 10.8258 13.5611C10.6382 13.3917 10.4105 13.1213 10.0397 12.6763L8.57617 10.9201C8.31099 10.6019 7.83807 10.5589 7.51986 10.824C7.20165 11.0892 7.15866 11.5621 7.42383 11.8804L8.91933 13.675C9.2478 14.0692 9.54391 14.4246 9.82051 14.6744C10.1214 14.9461 10.5005 15.1882 11 15.1882C11.4995 15.1882 11.8786 14.9461 12.1795 14.6744C12.4561 14.4246 12.7522 14.0692 13.0807 13.675L16.5762 9.48035Z" fill="#2D264B"/>
</svg>
