<svg xmlns="http://www.w3.org/2000/svg" width="24" height="24" viewBox="0 0 24 24">
  <defs/>
  <path fill="#2D264B" d="M5.777,4.291 Q7.849,4.811 8.436,2.757 Q9.203,0.067 12,0.067 Q14.797,0.067 15.564,2.757 Q16.151,4.811 18.223,4.291 Q20.936,3.611 22.334,6.034 Q23.733,8.456 21.787,10.465 Q20.301,12 21.787,13.535 Q23.733,15.544 22.334,17.966 Q20.936,20.388 18.223,19.708 Q16.151,19.189 15.564,21.243 Q14.797,23.933 12,23.933 Q9.203,23.933 8.436,21.243 Q7.849,19.189 5.777,19.708 Q3.064,20.388 1.666,17.966 Q0.267,15.544 2.213,13.535 Q3.699,12 2.213,10.465 Q0.267,8.456 1.666,6.034 Q3.064,3.611 5.777,4.291 Z M5.412,5.746 Q3.797,5.342 2.965,6.784 Q2.132,8.225 3.29,9.422 Q5.787,12 3.29,14.578 Q2.132,15.774 2.965,17.216 Q3.797,18.658 5.412,18.254 Q8.893,17.381 9.878,20.832 Q10.335,22.433 12,22.433 Q13.665,22.433 14.122,20.832 Q15.107,17.381 18.587,18.254 Q20.203,18.658 21.035,17.216 Q21.868,15.774 20.709,14.578 Q18.213,12 20.709,9.422 Q21.868,8.225 21.035,6.784 Q20.203,5.342 18.587,5.746 Q15.107,6.619 14.122,3.168 Q13.665,1.567 12,1.567 Q10.335,1.567 9.878,3.168 Q8.893,6.619 5.412,5.746 Z M16.576,9.48 L13.113,13.636 Q11.82,15.188 11,15.188 Q10.18,15.188 8.887,13.636 L7.424,11.88 Q7.225,11.641 7.253,11.332 Q7.281,11.023 7.52,10.824 Q7.758,10.625 8.068,10.653 Q8.377,10.681 8.576,10.92 L10.04,12.676 Q10.883,13.688 11,13.688 Q11.117,13.688 11.96,12.676 L15.424,8.52 Q15.623,8.281 15.932,8.253 Q16.241,8.225 16.48,8.424 Q16.719,8.623 16.747,8.932 Q16.775,9.241 16.576,9.48 Z"/>
</svg>

