<svg xmlns="http://www.w3.org/2000/svg" width="24" height="24" viewBox="0 0 24 24">
  <defs/>
  <path fill="#2D264B" d="M8.436,2.757 C9.459,-0.829 14.541,-0.829 15.564,2.757 C15.891,3.902 17.068,4.581 18.223,4.292 C21.84,3.385 24.381,7.786 21.787,10.465 C20.959,11.321 20.959,12.679 21.787,13.535 C24.381,16.214 21.84,20.615 18.223,19.709 C17.068,19.419 15.891,20.098 15.564,21.244 C14.541,24.83 9.459,24.83 8.436,21.244 C8.109,20.098 6.932,19.419 5.777,19.709 C2.16,20.615 -0.381,16.214 2.213,13.535 C3.041,12.679 3.041,11.321 2.213,10.465 C-0.381,7.786 2.16,3.385 5.777,4.292 C6.932,4.581 8.109,3.902 8.436,2.757 Z M16.576,9.48 C16.841,9.162 16.798,8.689 16.48,8.424 C16.162,8.159 15.689,8.202 15.424,8.52 L11.96,12.676 C11.59,13.121 11.362,13.392 11.174,13.561 C11.087,13.64 11.036,13.671 11.011,13.683 C11.006,13.685 11.002,13.687 11,13.688 C10.998,13.687 10.994,13.685 10.989,13.683 C10.964,13.671 10.913,13.64 10.826,13.561 C10.638,13.392 10.41,13.121 10.04,12.676 L8.576,10.92 C8.311,10.602 7.838,10.559 7.52,10.824 C7.202,11.089 7.159,11.562 7.424,11.88 L8.919,13.675 C9.248,14.069 9.544,14.425 9.821,14.674 C10.121,14.946 10.5,15.188 11,15.188 C11.5,15.188 11.879,14.946 12.179,14.674 C12.456,14.425 12.752,14.069 13.081,13.675 Z"/>
</svg>

