<svg xmlns="http://www.w3.org/2000/svg" width="24" height="24" viewBox="0 0 24 24">
  <defs/>
  <path fill="#2D264B" d="M8.966,3.25 L9.034,3.25 C10.406,3.25 11.481,3.25 12.345,3.321 C13.225,3.393 13.952,3.541 14.61,3.877 C15.692,4.428 16.572,5.308 17.123,6.39 C17.173,6.488 17.219,6.587 17.261,6.689 C18.428,6.179 19.383,5.766 20.159,5.555 C20.984,5.331 21.787,5.285 22.506,5.755 C23.224,6.225 23.504,6.98 23.629,7.826 C23.75,8.644 23.75,9.722 23.75,11.047 L23.75,12.953 C23.75,14.277 23.75,15.356 23.629,16.174 C23.504,17.02 23.224,17.775 22.506,18.245 C21.787,18.715 20.984,18.669 20.159,18.445 C19.383,18.234 18.428,17.821 17.261,17.311 C17.219,17.413 17.173,17.512 17.123,17.61 C16.572,18.692 15.692,19.572 14.61,20.123 C13.952,20.459 13.225,20.608 12.345,20.679 C11.481,20.75 10.405,20.75 9.034,20.75 L8.966,20.75 C7.595,20.75 6.519,20.75 5.655,20.679 C4.775,20.608 4.048,20.459 3.39,20.123 C2.308,19.572 1.428,18.692 0.877,17.61 C0.541,16.952 0.393,16.225 0.321,15.345 C0.25,14.481 0.25,13.405 0.25,12.034 L0.25,11.966 C0.25,10.595 0.25,9.519 0.321,8.655 C0.393,7.775 0.541,7.048 0.877,6.39 C1.428,5.308 2.308,4.428 3.39,3.877 C4.048,3.541 4.775,3.393 5.655,3.321 C6.519,3.25 7.594,3.25 8.966,3.25 L8.966,3.25 Z M5,8.25 C4.586,8.25 4.25,8.586 4.25,9 C4.25,9.414 4.586,9.75 5,9.75 L9,9.75 C9.414,9.75 9.75,9.414 9.75,9 C9.75,8.586 9.414,8.25 9,8.25 Z"/>
</svg>

