<svg width="24" height="24" viewBox="0 0 24 24" fill="none" xmlns="http://www.w3.org/2000/svg">
<path d="M7.73306 8.75186C7.81155 8.74306 7.9809 8.7581 8.38358 8.95606C8.78108 9.15147 9.2894 9.46335 10.028 9.91788C10.7662 10.3722 11.2742 10.6858 11.6325 10.9556C11.9909 11.2255 12.1044 11.3843 12.1487 11.4904C12.2838 11.8138 12.2838 12.1862 12.1487 12.5096C12.1044 12.6157 11.9909 12.7745 11.6325 13.0444C11.2742 13.3142 10.7662 13.6278 10.028 14.0821C9.2894 14.5366 8.78108 14.8485 8.38358 15.0439C7.9809 15.2419 7.81155 15.2569 7.73306 15.2481C7.44154 15.2155 7.16131 15.0508 6.97155 14.7724C6.90747 14.6784 6.83227 14.4862 6.79121 14.0092C6.75066 13.538 6.75 12.9068 6.75 12C6.75 11.0932 6.75066 10.462 6.79121 9.9908C6.83227 9.51375 6.90747 9.32161 6.97155 9.22759C7.16131 8.94918 7.44154 8.78452 7.73306 8.75186Z" fill="#2D264B"/>
<path fill-rule="evenodd" clip-rule="evenodd" d="M9.03356 3.25H8.96644C7.59473 3.25 6.51928 3.24999 5.65494 3.32061C4.7748 3.39252 4.04769 3.54138 3.38955 3.87671C2.30762 4.42798 1.42798 5.30762 0.876713 6.38955C0.541379 7.04769 0.392522 7.7748 0.320612 8.65494C0.249992 9.51928 0.249996 10.5947 0.25 11.9664V12.0336C0.249996 13.4053 0.249992 14.4807 0.320612 15.3451C0.392522 16.2252 0.541379 16.9523 0.876713 17.6104C1.42798 18.6924 2.30762 19.572 3.38955 20.1233C4.04769 20.4586 4.77479 20.6075 5.65494 20.6794C6.51921 20.75 7.59454 20.75 8.96608 20.75H9.03358C10.4051 20.75 11.4808 20.75 12.3451 20.6794C13.2252 20.6075 13.9523 20.4586 14.6104 20.1233C15.6924 19.572 16.572 18.6924 17.1233 17.6104C17.1733 17.5123 17.2192 17.4125 17.2613 17.3109C18.428 17.8206 19.3834 18.2344 20.159 18.4448C20.9839 18.6686 21.7874 18.7147 22.5057 18.2446C23.2241 17.7746 23.5036 17.0198 23.6288 16.1743C23.7501 15.3556 23.75 14.2757 23.75 12.9502V11.0498C23.75 9.72426 23.7501 8.64436 23.6288 7.82567C23.5036 6.98019 23.2241 6.2254 22.5057 5.75537C21.7874 5.28534 20.9839 5.33144 20.159 5.55522C19.3834 5.76561 18.428 6.17938 17.2613 6.68909C17.2192 6.58748 17.1733 6.48774 17.1233 6.38955C16.572 5.30762 15.6924 4.42798 14.6104 3.87671C13.9523 3.54138 13.2252 3.39252 12.3451 3.32061C11.4807 3.24999 10.4053 3.25 9.03356 3.25ZM10.7807 8.61986C10.0837 8.19089 9.51459 7.84061 9.04534 7.60993C8.5738 7.37812 8.08281 7.20329 7.56605 7.26118C6.81915 7.34486 6.15604 7.76076 5.73207 8.38278C5.44434 8.80493 5.34363 9.31731 5.29674 9.86218C5.24998 10.4054 5.24999 11.1017 5.25 11.9641V12.0359C5.24999 12.8983 5.24998 13.5946 5.29674 14.1378C5.34363 14.6827 5.44434 15.1951 5.73207 15.6172C6.15604 16.2392 6.81915 16.6551 7.56605 16.7388C8.08281 16.7967 8.5738 16.6219 9.04534 16.3901C9.51459 16.1594 10.0837 15.8091 10.7807 15.3802L10.8468 15.3395C11.5445 14.9101 12.1134 14.56 12.5349 14.2426C12.9627 13.9204 13.3337 13.5645 13.5328 13.0877C13.8224 12.3944 13.8224 11.6056 13.5328 10.9123C13.3337 10.4355 12.9627 10.0796 12.5349 9.7574C12.1134 9.44001 11.5445 9.08987 10.8468 8.6605L10.7807 8.61986Z" fill="#2D264B"/>
</svg>
