<svg xmlns="http://www.w3.org/2000/svg" width="24" height="24" viewBox="0 0 24 24">
  <defs/>
  <path fill="#2D264B" d="M8.966,3.25 C7.595,3.25 6.519,3.25 5.655,3.321 C4.775,3.393 4.048,3.541 3.39,3.877 C2.308,4.428 1.428,5.308 0.877,6.39 C0.541,7.048 0.393,7.775 0.321,8.655 C0.25,9.519 0.25,10.595 0.25,11.966 L0.25,12.034 C0.25,13.405 0.25,14.481 0.321,15.345 C0.393,16.225 0.541,16.952 0.877,17.61 C0.9,17.656 0.924,17.702 0.948,17.747 C1.171,18.155 1.718,18.191 2.047,17.862 L2.104,17.806 C2.333,17.577 2.361,17.219 2.213,16.93 C2.004,16.518 1.88,16.01 1.816,15.223 C1.751,14.427 1.75,13.412 1.75,12 C1.75,10.588 1.751,9.573 1.816,8.777 C1.88,7.99 2.004,7.482 2.213,7.071 C2.621,6.271 3.271,5.621 4.071,5.213 C4.482,5.004 4.99,4.88 5.777,4.816 C6.573,4.751 7.587,4.75 9,4.75 C10.412,4.75 11.427,4.751 12.223,4.816 C13.01,4.88 13.518,5.004 13.93,5.213 C14.219,5.361 14.577,5.333 14.806,5.104 L14.862,5.047 C15.191,4.718 15.155,4.171 14.747,3.948 C14.702,3.924 14.656,3.9 14.61,3.877 C13.952,3.541 13.225,3.393 12.345,3.321 C11.481,3.25 10.405,3.25 9.034,3.25 L8.966,3.25 Z"/>
  <path fill="#2D264B" d="M17.028,6.21 C17.06,6.269 17.092,6.329 17.123,6.39 C17.205,6.551 17.398,6.629 17.564,6.557 C18.594,6.108 19.451,5.747 20.159,5.555 C20.984,5.331 21.787,5.285 22.506,5.755 C23.224,6.225 23.504,6.98 23.629,7.826 C23.75,8.644 23.75,9.722 23.75,11.047 L23.75,12.953 C23.75,14.277 23.75,15.356 23.629,16.174 C23.504,17.02 23.224,17.775 22.506,18.245 C21.787,18.715 20.984,18.669 20.159,18.445 C19.451,18.253 18.594,17.892 17.564,17.443 C17.398,17.371 17.205,17.449 17.123,17.61 C16.572,18.692 15.692,19.572 14.61,20.123 C13.952,20.459 13.225,20.608 12.345,20.679 C11.481,20.75 10.405,20.75 9.034,20.75 L8.966,20.75 C7.595,20.75 6.519,20.75 5.655,20.679 C4.775,20.608 4.048,20.459 3.39,20.123 C3.329,20.092 3.269,20.06 3.21,20.028 C2.805,19.803 2.772,19.259 3.099,18.932 L3.129,18.902 C3.375,18.656 3.76,18.629 4.071,18.787 C4.482,18.996 4.99,19.12 5.777,19.184 C6.573,19.249 7.587,19.25 9,19.25 C10.413,19.25 11.427,19.249 12.223,19.184 C13.01,19.12 13.518,18.996 13.929,18.787 C14.729,18.379 15.379,17.729 15.787,16.93 C15.996,16.518 16.12,16.01 16.184,15.223 C16.249,14.427 16.25,13.413 16.25,12 C16.25,10.587 16.249,9.573 16.184,8.777 C16.12,7.99 15.996,7.482 15.787,7.071 C15.629,6.76 15.656,6.375 15.902,6.129 L15.932,6.099 C16.259,5.772 16.803,5.805 17.028,6.21 Z M17.699,15.865 C18.985,16.427 19.873,16.813 20.552,16.997 C21.217,17.178 21.498,17.112 21.684,16.99 C21.871,16.867 22.044,16.636 22.145,15.955 C22.248,15.259 22.25,14.291 22.25,12.887 L22.25,11.113 C22.25,9.709 22.248,8.741 22.145,8.045 C22.044,7.364 21.871,7.133 21.684,7.011 C21.498,6.888 21.217,6.822 20.552,7.003 C19.873,7.187 18.985,7.573 17.699,8.135 C17.657,8.153 17.633,8.196 17.638,8.241 C17.654,8.375 17.668,8.513 17.679,8.655 C17.75,9.519 17.75,10.595 17.75,11.966 L17.75,12.034 C17.75,13.405 17.75,14.481 17.679,15.345 C17.668,15.487 17.654,15.625 17.638,15.759 C17.633,15.804 17.657,15.847 17.699,15.865 Z"/>
  <path fill="#2D264B" d="M19.501,4.53 L2.53,21.501 Q2.311,21.721 2,21.721 Q1.689,21.721 1.47,21.501 Q1.25,21.281 1.25,20.971 Q1.25,20.66 1.47,20.44 L18.44,3.47 Q18.66,3.25 18.971,3.25 Q19.281,3.25 19.501,3.47 Q19.721,3.689 19.721,4 Q19.721,4.311 19.501,4.53 Z M9,9.75 L5,9.75 Q4.689,9.75 4.47,9.53 Q4.25,9.311 4.25,9 Q4.25,8.689 4.47,8.47 Q4.689,8.25 5,8.25 L9,8.25 Q9.311,8.25 9.53,8.47 Q9.75,8.689 9.75,9 Q9.75,9.311 9.53,9.53 Q9.311,9.75 9,9.75 Z"/>
</svg>

