<svg xmlns="http://www.w3.org/2000/svg" width="24" height="24" viewBox="0 0 24 24">
  <defs/>
  <path fill="#2D264B" d="M17.261,17.31 Q17.197,17.465 17.123,17.61 Q16.275,19.275 14.61,20.123 Q13.38,20.75 9,20.75 Q4.62,20.75 3.39,20.123 Q1.725,19.275 0.877,17.61 Q0.25,16.38 0.25,12 Q0.25,7.62 0.877,6.39 Q1.725,4.725 3.39,3.877 Q4.62,3.25 9,3.25 Q13.38,3.25 14.61,3.877 Q16.275,4.725 17.123,6.39 Q17.197,6.535 17.261,6.69 Q21.286,4.957 22.506,5.755 Q23.75,6.57 23.75,11.113 L23.75,12.887 Q23.75,17.43 22.506,18.245 Q21.286,19.043 17.261,17.31 Z M16.068,7.91 Q16.056,7.867 16.05,7.824 Q15.953,7.397 15.787,7.071 Q15.16,5.84 13.93,5.213 Q13.02,4.75 9,4.75 Q4.98,4.75 4.071,5.213 Q2.84,5.84 2.213,7.071 Q1.75,7.98 1.75,12 Q1.75,16.02 2.213,16.93 Q2.84,18.16 4.071,18.787 Q4.98,19.25 9,19.25 Q13.02,19.25 13.93,18.787 Q15.16,18.16 15.787,16.93 Q15.953,16.603 16.05,16.175 Q16.056,16.132 16.068,16.089 Q16.25,15.174 16.25,12 Q16.25,8.825 16.068,7.91 Z M17.619,8.17 Q17.75,9.39 17.75,12 Q17.75,14.61 17.619,15.83 L17.699,15.865 Q21.119,17.36 21.684,16.989 Q22.25,16.619 22.25,12.887 L22.25,11.113 Q22.25,7.381 21.684,7.011 Q21.119,6.64 17.699,8.135 L17.619,8.17 Z M9,9.75 L5,9.75 Q4.689,9.75 4.47,9.53 Q4.25,9.311 4.25,9 Q4.25,8.689 4.47,8.47 Q4.689,8.25 5,8.25 L9,8.25 Q9.311,8.25 9.53,8.47 Q9.75,8.689 9.75,9 Q9.75,9.311 9.53,9.53 Q9.311,9.75 9,9.75 Z"/>
</svg>

