<svg xmlns="http://www.w3.org/2000/svg" width="24" height="24" viewBox="0 0 24 24">
  <defs/>
  <path fill="#2D264B" d="M7.733,8.752 C7.812,8.743 7.981,8.758 8.384,8.956 C8.781,9.151 9.289,9.463 10.028,9.918 C10.766,10.372 11.274,10.686 11.633,10.956 C11.991,11.226 12.104,11.384 12.149,11.49 C12.284,11.814 12.284,12.186 12.149,12.51 C12.104,12.616 11.991,12.774 11.633,13.044 C11.274,13.314 10.766,13.628 10.028,14.082 C9.289,14.537 8.781,14.848 8.384,15.044 C7.981,15.242 7.812,15.257 7.733,15.248 C7.442,15.216 7.161,15.051 6.972,14.772 C6.907,14.678 6.832,14.486 6.791,14.009 C6.751,13.538 6.75,12.907 6.75,12 C6.75,11.093 6.751,10.462 6.791,9.991 C6.832,9.514 6.907,9.322 6.972,9.228 C7.161,8.949 7.442,8.785 7.733,8.752 Z"/>
  <path fill="#2D264B" d="M8.966,3.25 L9.034,3.25 C10.406,3.25 11.481,3.25 12.345,3.321 C13.225,3.393 13.952,3.541 14.61,3.877 C15.692,4.428 16.572,5.308 17.123,6.39 C17.173,6.488 17.219,6.587 17.261,6.689 C18.428,6.179 19.383,5.766 20.159,5.555 C20.984,5.331 21.787,5.285 22.506,5.755 C23.224,6.225 23.504,6.98 23.629,7.826 C23.75,8.644 23.75,9.722 23.75,11.047 L23.75,12.953 C23.75,14.277 23.75,15.356 23.629,16.174 C23.504,17.02 23.224,17.775 22.506,18.245 C21.787,18.715 20.984,18.669 20.159,18.445 C19.383,18.234 18.428,17.821 17.261,17.311 C17.219,17.413 17.173,17.512 17.123,17.61 C16.572,18.692 15.692,19.572 14.61,20.123 C13.952,20.459 13.225,20.608 12.345,20.679 C11.481,20.75 10.405,20.75 9.034,20.75 L8.966,20.75 C7.595,20.75 6.519,20.75 5.655,20.679 C4.775,20.608 4.048,20.459 3.39,20.123 C2.308,19.572 1.428,18.692 0.877,17.61 C0.541,16.952 0.393,16.225 0.321,15.345 C0.25,14.481 0.25,13.405 0.25,12.034 L0.25,11.966 C0.25,10.595 0.25,9.519 0.321,8.655 C0.393,7.775 0.541,7.048 0.877,6.39 C1.428,5.308 2.308,4.428 3.39,3.877 C4.048,3.541 4.775,3.393 5.655,3.321 C6.519,3.25 7.594,3.25 8.966,3.25 L8.966,3.25 Z M10.781,8.62 C10.084,8.191 9.515,7.841 9.045,7.61 C8.574,7.378 8.083,7.203 7.566,7.261 C6.819,7.345 6.156,7.761 5.732,8.383 C5.444,8.805 5.344,9.317 5.297,9.862 C5.25,10.405 5.25,11.102 5.25,11.964 L5.25,12.036 C5.25,12.898 5.25,13.595 5.297,14.138 C5.344,14.683 5.444,15.195 5.732,15.617 C6.156,16.239 6.819,16.655 7.566,16.739 C8.083,16.797 8.574,16.622 9.045,16.39 C9.515,16.159 10.084,15.809 10.781,15.38 L10.847,15.34 C11.545,14.91 12.113,14.56 12.535,14.243 C12.963,13.92 13.334,13.564 13.533,13.088 C13.822,12.394 13.822,11.606 13.533,10.912 C13.334,10.436 12.963,10.08 12.535,9.757 C12.113,9.44 11.545,9.09 10.847,8.66 Z"/>
</svg>

