<svg xmlns="http://www.w3.org/2000/svg" width="24" height="24" viewBox="0 0 24 24">
  <defs/>
  <path fill="#2D264B" d="M15.484,4.426 L1.426,18.484 C1.218,18.211 1.034,17.919 0.877,17.61 C0.541,16.952 0.393,16.225 0.321,15.345 C0.25,14.481 0.25,13.405 0.25,12.034 L0.25,11.966 C0.25,10.595 0.25,9.519 0.321,8.655 C0.393,7.775 0.541,7.048 0.877,6.39 C1.428,5.308 2.308,4.428 3.39,3.877 C4.048,3.541 4.775,3.393 5.655,3.321 C6.519,3.25 7.594,3.25 8.966,3.25 L9.034,3.25 C10.406,3.25 11.481,3.25 12.345,3.321 C13.225,3.393 13.952,3.541 14.61,3.877 C14.919,4.034 15.211,4.218 15.484,4.426 Z M4.25,9 C4.25,9.414 4.586,9.75 5,9.75 L9,9.75 C9.414,9.75 9.75,9.414 9.75,9 C9.75,8.586 9.414,8.25 9,8.25 L5,8.25 C4.586,8.25 4.25,8.586 4.25,9 Z"/>
  <path fill="#2D264B" d="M19.501,4.53 C19.794,4.237 19.794,3.763 19.501,3.47 C19.208,3.177 18.733,3.177 18.44,3.47 L1.47,20.44 C1.177,20.733 1.177,21.208 1.47,21.501 C1.762,21.794 2.237,21.794 2.53,21.501 L3.746,20.285 C4.31,20.509 4.931,20.62 5.655,20.679 C6.519,20.75 7.594,20.75 8.966,20.75 L9.034,20.75 C10.405,20.75 11.481,20.75 12.345,20.679 C13.225,20.608 13.952,20.459 14.61,20.123 C15.692,19.572 16.572,18.692 17.123,17.61 C17.173,17.512 17.219,17.413 17.261,17.311 C18.428,17.821 19.383,18.234 20.159,18.445 C20.984,18.669 21.787,18.715 22.506,18.245 C23.224,17.775 23.504,17.02 23.629,16.174 C23.75,15.356 23.75,14.276 23.75,12.95 L23.75,11.05 C23.75,9.724 23.75,8.644 23.629,7.826 C23.504,6.98 23.224,6.225 22.506,5.755 C21.787,5.285 20.984,5.331 20.159,5.555 C19.415,5.757 18.506,6.146 17.405,6.627 L19.501,4.53 Z"/>
</svg>

