<svg width="24" height="24" viewBox="0 0 24 24" fill="none" xmlns="http://www.w3.org/2000/svg">
<path fill-rule="evenodd" clip-rule="evenodd" d="M15.484 4.42573C15.2113 4.21795 14.9191 4.03397 14.6104 3.87671C13.9523 3.54138 13.2252 3.39252 12.3451 3.32061C11.4807 3.24999 10.4053 3.25 9.03357 3.25H8.96644C7.59473 3.25 6.51928 3.24999 5.65494 3.32061C4.7748 3.39252 4.04769 3.54138 3.38955 3.87671C2.30762 4.42798 1.42798 5.30762 0.876713 6.38955C0.541379 7.04769 0.392523 7.7748 0.320612 8.65494C0.249993 9.51928 0.249996 10.5947 0.25 11.9664V12.0336C0.249996 13.4053 0.249993 14.4807 0.320612 15.3451C0.392523 16.2252 0.541379 16.9523 0.876713 17.6104C1.03397 17.9191 1.21795 18.2113 1.42573 18.484L15.484 4.42573ZM4.25 9C4.25 8.58579 4.58579 8.25 5 8.25H9C9.41421 8.25 9.75 8.58579 9.75 9C9.75 9.41421 9.41421 9.75 9 9.75H5C4.58579 9.75 4.25 9.41421 4.25 9Z" fill="#2D264B"/>
<path d="M19.5008 4.53033C19.7937 4.23744 19.7937 3.76256 19.5008 3.46967C19.2079 3.17678 18.733 3.17678 18.4401 3.46967L1.46955 20.4402C1.17665 20.7331 1.17665 21.208 1.46955 21.5009C1.76244 21.7938 2.23731 21.7938 2.53021 21.5009L3.74647 20.2846C4.31024 20.509 4.93079 20.6202 5.65494 20.6794C6.51917 20.75 7.59444 20.75 8.96589 20.75H9.03358C10.405 20.75 11.4808 20.75 12.3451 20.6794C13.2252 20.6075 13.9523 20.4586 14.6104 20.1233C15.6924 19.572 16.572 18.6924 17.1233 17.6104C17.1733 17.5123 17.2192 17.4125 17.2613 17.3109C18.428 17.8206 19.3834 18.2344 20.159 18.4448C20.9839 18.6686 21.7874 18.7147 22.5057 18.2446C23.2241 17.7746 23.5036 17.0198 23.6288 16.1743C23.7501 15.3556 23.75 14.2757 23.75 12.9502V11.0498C23.75 9.72426 23.7501 8.64436 23.6288 7.82567C23.5036 6.98019 23.2241 6.2254 22.5057 5.75537C21.7874 5.28534 20.9839 5.33144 20.159 5.55522C19.4154 5.75694 18.5065 6.14561 17.4046 6.62655L19.5008 4.53033Z" fill="#2D264B"/>
</svg>
