<svg xmlns="http://www.w3.org/2000/svg" width="24" height="24" viewBox="0 0 24 24">
  <defs/>
  <path fill="#2D264B" d="M17.261,17.31 Q17.197,17.465 17.123,17.61 Q16.275,19.275 14.61,20.123 Q13.38,20.75 9,20.75 Q4.62,20.75 3.39,20.123 Q1.725,19.275 0.877,17.61 Q0.25,16.38 0.25,12 Q0.25,7.62 0.877,6.39 Q1.725,4.725 3.39,3.877 Q4.62,3.25 9,3.25 Q13.38,3.25 14.61,3.877 Q16.275,4.725 17.123,6.389 Q17.197,6.534 17.261,6.69 Q21.286,4.957 22.506,5.755 Q23.75,6.57 23.75,11.113 L23.75,12.887 Q23.75,17.43 22.506,18.245 Q21.286,19.043 17.261,17.31 Z M16.059,7.868 Q15.962,7.414 15.787,7.071 Q15.16,5.84 13.93,5.213 Q13.02,4.75 9,4.75 Q4.98,4.75 4.071,5.213 Q2.84,5.84 2.213,7.071 Q1.75,7.98 1.75,12 Q1.75,16.02 2.213,16.93 Q2.84,18.16 4.071,18.787 Q4.98,19.25 9,19.25 Q13.02,19.25 13.93,18.787 Q15.16,18.16 15.787,16.93 Q15.962,16.586 16.059,16.131 L16.793,16.288 L16.059,16.131 Q16.25,15.243 16.25,12 Q16.25,8.756 16.059,7.868 Z M5.25,12 Q5.25,9.09 5.732,8.383 Q6.408,7.391 7.566,7.261 Q8.418,7.166 10.814,8.64 L10.814,8.64 Q13.196,10.106 13.533,10.912 Q13.987,12 13.533,13.088 Q13.196,13.894 10.814,15.36 L10.813,15.36 Q8.418,16.834 7.566,16.739 Q6.408,16.609 5.732,15.617 Q5.25,14.91 5.25,12 Z M17.618,8.17 Q17.75,9.392 17.75,12 Q17.75,14.608 17.618,15.83 L17.699,15.865 Q21.119,17.36 21.684,16.989 Q22.25,16.619 22.25,12.887 L22.25,11.113 Q22.25,7.381 21.684,7.011 Q21.119,6.64 17.699,8.135 L17.618,8.17 Z M6.75,12 Q6.75,14.447 6.972,14.772 Q7.26,15.195 7.733,15.248 Q8.072,15.286 10.027,14.082 L10.028,14.082 Q11.998,12.87 12.149,12.51 Q12.362,12 12.149,11.49 Q11.998,11.13 10.028,9.918 L10.028,9.918 Q8.072,8.714 7.733,8.752 Q7.26,8.805 6.972,9.228 Q6.75,9.553 6.75,12 Z"/>
</svg>

