<svg width="24" height="24" viewBox="0 0 24 24" fill="none" xmlns="http://www.w3.org/2000/svg">
<path d="M10 2.75L11.25 2.75V6.29853C10.2233 6.43239 9.28141 6.83722 8.49916 7.43828L5.4751 4.41422L6.35898 3.53034C6.65187 3.23744 6.65187 2.76257 6.35898 2.46967C6.06609 2.17678 5.59121 2.17678 5.29832 2.46967L2.46989 5.2981C2.177 5.59099 2.177 6.06587 2.46989 6.35876C2.76278 6.65166 3.23766 6.65166 3.53055 6.35876L4.41444 5.47488L7.43848 8.49892C6.83732 9.28121 6.4324 10.2232 6.29852 11.25H2.75L2.75 10C2.75 9.58579 2.41421 9.25 2 9.25C1.58579 9.25 1.25 9.58579 1.25 10V14C1.25 14.4142 1.58579 14.75 2 14.75C2.41421 14.75 2.75 14.4142 2.75 14L2.75 12.75H6.29852C6.43242 13.7769 6.83743 14.7191 7.43873 15.5014L4.40936 18.5911L3.53055 17.7123C3.23766 17.4194 2.76278 17.4194 2.46989 17.7123C2.177 18.0052 2.177 18.4801 2.46989 18.773L5.29832 21.6014C5.59121 21.8943 6.06609 21.8943 6.35898 21.6014C6.65187 21.3085 6.65187 20.8336 6.35898 20.5407L5.47008 19.6518L8.49955 16.562C9.28172 17.1629 10.2235 17.5676 11.25 17.7015V21.25H10C9.58579 21.25 9.25 21.5858 9.25 22C9.25 22.4142 9.58579 22.75 10 22.75H14C14.4142 22.75 14.75 22.4142 14.75 22C14.75 21.5858 14.4142 21.25 14 21.25H12.75V17.7015C13.7766 17.5676 14.7186 17.1628 15.5008 16.5617L18.596 19.657L17.7123 20.5407C17.4194 20.8336 17.4194 21.3085 17.7123 21.6014C18.0052 21.8943 18.4801 21.8943 18.773 21.6014L21.6014 18.773C21.8943 18.4801 21.8943 18.0052 21.6014 17.7123C21.3085 17.4194 20.8336 17.4194 20.5407 17.7123L19.6567 18.5964L16.5615 15.5011C17.1627 14.7188 17.5676 13.7768 17.7015 12.75H21.25V14C21.25 14.4142 21.5858 14.75 22 14.75C22.4142 14.75 22.75 14.4142 22.75 14V10C22.75 9.58579 22.4142 9.25 22 9.25C21.5858 9.25 21.25 9.58579 21.25 10V11.25H17.7015C17.5676 10.2235 17.1629 9.2817 16.562 8.49954L19.6517 5.46976L20.5407 6.35876C20.8336 6.65166 21.3085 6.65166 21.6014 6.35876C21.8943 6.06587 21.8943 5.59099 21.6014 5.2981L20.1956 3.89229L20.1925 3.88909L20.1787 3.87537L18.773 2.46967C18.4801 2.17678 18.0052 2.17678 17.7123 2.46968C17.4194 2.76257 17.4194 3.23744 17.7123 3.53034L18.591 4.40904L15.5014 7.43871C14.719 6.83742 13.7769 6.43242 12.75 6.29853V2.75L14 2.75C14.4142 2.75 14.75 2.41421 14.75 2C14.75 1.58579 14.4142 1.25 14 1.25H10C9.58579 1.25 9.25 1.58579 9.25 2C9.25 2.41421 9.58579 2.75 10 2.75Z" fill="#2D264B"/>
</svg>
