<svg xmlns="http://www.w3.org/2000/svg" width="24" height="24" viewBox="0 0 24 24">
  <defs/>
  <path fill="#2D264B" d="M10,2.75 L11.25,2.75 L11.25,6.299 C10.223,6.432 9.281,6.837 8.499,7.438 L5.475,4.414 L6.359,3.53 C6.652,3.237 6.652,2.763 6.359,2.47 C6.066,2.177 5.591,2.177 5.298,2.47 L2.47,5.298 C2.177,5.591 2.177,6.066 2.47,6.359 C2.763,6.652 3.238,6.652 3.531,6.359 L4.414,5.475 L7.438,8.499 C6.837,9.281 6.432,10.223 6.299,11.25 L2.75,11.25 L2.75,10 C2.75,9.586 2.414,9.25 2,9.25 C1.586,9.25 1.25,9.586 1.25,10 L1.25,14 C1.25,14.414 1.586,14.75 2,14.75 C2.414,14.75 2.75,14.414 2.75,14 L2.75,12.75 L6.299,12.75 C6.432,13.777 6.837,14.719 7.439,15.501 L4.409,18.591 L3.531,17.712 C3.238,17.419 2.763,17.419 2.47,17.712 C2.177,18.005 2.177,18.48 2.47,18.773 L5.298,21.601 C5.591,21.894 6.066,21.894 6.359,21.601 C6.652,21.308 6.652,20.834 6.359,20.541 L5.47,19.652 L8.5,16.562 C9.282,17.163 10.223,17.568 11.25,17.701 L11.25,21.25 L10,21.25 C9.586,21.25 9.25,21.586 9.25,22 C9.25,22.414 9.586,22.75 10,22.75 L14,22.75 C14.414,22.75 14.75,22.414 14.75,22 C14.75,21.586 14.414,21.25 14,21.25 L12.75,21.25 L12.75,17.701 C13.777,17.568 14.719,17.163 15.501,16.562 L18.596,19.657 L17.712,20.541 C17.419,20.834 17.419,21.308 17.712,21.601 C18.005,21.894 18.48,21.894 18.773,21.601 L21.601,18.773 C21.894,18.48 21.894,18.005 21.601,17.712 C21.308,17.419 20.834,17.419 20.541,17.712 L19.657,18.596 L16.561,15.501 C17.163,14.719 17.568,13.777 17.701,12.75 L21.25,12.75 L21.25,14 C21.25,14.414 21.586,14.75 22,14.75 C22.414,14.75 22.75,14.414 22.75,14 L22.75,10 C22.75,9.586 22.414,9.25 22,9.25 C21.586,9.25 21.25,9.586 21.25,10 L21.25,11.25 L17.701,11.25 C17.568,10.223 17.163,9.282 16.562,8.5 L19.652,5.47 L20.541,6.359 C20.834,6.652 21.308,6.652 21.601,6.359 C21.894,6.066 21.894,5.591 21.601,5.298 L20.196,3.892 L20.192,3.889 L20.179,3.875 L18.773,2.47 C18.48,2.177 18.005,2.177 17.712,2.47 C17.419,2.763 17.419,3.237 17.712,3.53 L18.591,4.409 L15.501,7.439 C14.719,6.837 13.777,6.432 12.75,6.299 L12.75,2.75 L14,2.75 C14.414,2.75 14.75,2.414 14.75,2 C14.75,1.586 14.414,1.25 14,1.25 L10,1.25 C9.586,1.25 9.25,1.586 9.25,2 C9.25,2.414 9.586,2.75 10,2.75 Z"/>
</svg>

