<svg xmlns="http://www.w3.org/2000/svg" width="24" height="24" viewBox="0 0 24 24">
  <defs/>
  <path fill="#2D264B" d="M12.75,8 L12.75,16 Q12.75,16.311 12.53,16.53 Q12.311,16.75 12,16.75 Q11.689,16.75 11.47,16.53 Q11.25,16.311 11.25,16 L11.25,8 Q11.25,7.689 11.47,7.47 Q11.689,7.25 12,7.25 Q12.311,7.25 12.53,7.47 Q12.75,7.689 12.75,8 Z M15.75,9 L15.75,15 Q15.75,15.311 15.53,15.53 Q15.311,15.75 15,15.75 Q14.689,15.75 14.47,15.53 Q14.25,15.311 14.25,15 L14.25,9 Q14.25,8.689 14.47,8.47 Q14.689,8.25 15,8.25 Q15.311,8.25 15.53,8.47 Q15.75,8.689 15.75,9 Z M9.75,9 L9.75,15 Q9.75,15.311 9.53,15.53 Q9.311,15.75 9,15.75 Q8.689,15.75 8.47,15.53 Q8.25,15.311 8.25,15 L8.25,9 Q8.25,8.689 8.47,8.47 Q8.689,8.25 9,8.25 Q9.311,8.25 9.53,8.47 Q9.75,8.689 9.75,9 Z M18.75,11 L18.75,13 Q18.75,13.311 18.53,13.53 Q18.311,13.75 18,13.75 Q17.689,13.75 17.47,13.53 Q17.25,13.311 17.25,13 L17.25,11 Q17.25,10.689 17.47,10.47 Q17.689,10.25 18,10.25 Q18.311,10.25 18.53,10.47 Q18.75,10.689 18.75,11 Z M6.75,11 L6.75,13 Q6.75,13.311 6.53,13.53 Q6.311,13.75 6,13.75 Q5.689,13.75 5.47,13.53 Q5.25,13.311 5.25,13 L5.25,11 Q5.25,10.689 5.47,10.47 Q5.689,10.25 6,10.25 Q6.311,10.25 6.53,10.47 Q6.75,10.689 6.75,11 Z"/>
</svg>

