<svg xmlns="http://www.w3.org/2000/svg" width="24" height="24" viewBox="0 0 24 24">
  <defs/>
  <path fill="#2D264B" d="M12.75,8 C12.75,7.586 12.414,7.25 12,7.25 C11.586,7.25 11.25,7.586 11.25,8 L12.75,8 Z M11.25,16 C11.25,16.414 11.586,16.75 12,16.75 C12.414,16.75 12.75,16.414 12.75,16 L11.25,16 Z M15.75,9 C15.75,8.586 15.414,8.25 15,8.25 C14.586,8.25 14.25,8.586 14.25,9 L15.75,9 Z M14.25,15 C14.25,15.414 14.586,15.75 15,15.75 C15.414,15.75 15.75,15.414 15.75,15 L14.25,15 Z M18.75,11 C18.75,10.586 18.414,10.25 18,10.25 C17.586,10.25 17.25,10.586 17.25,11 L18.75,11 Z M17.25,13 C17.25,13.414 17.586,13.75 18,13.75 C18.414,13.75 18.75,13.414 18.75,13 L17.25,13 Z M9.75,9 C9.75,8.586 9.414,8.25 9,8.25 C8.586,8.25 8.25,8.586 8.25,9 L9.75,9 Z M8.25,15 C8.25,15.414 8.586,15.75 9,15.75 C9.414,15.75 9.75,15.414 9.75,15 L8.25,15 Z M6.75,11 C6.75,10.586 6.414,10.25 6,10.25 C5.586,10.25 5.25,10.586 5.25,11 L6.75,11 Z M5.25,13 C5.25,13.414 5.586,13.75 6,13.75 C6.414,13.75 6.75,13.414 6.75,13 L5.25,13 Z M11.25,8 L11.25,16 L12.75,16 L12.75,8 L11.25,8 Z M14.25,9 L14.25,15 L15.75,15 L15.75,9 L14.25,9 Z M17.25,11 L17.25,13 L18.75,13 L18.75,11 L17.25,11 Z M8.25,9 L8.25,15 L9.75,15 L9.75,9 L8.25,9 Z M5.25,11 L5.25,13 L6.75,13 L6.75,11 L5.25,11 Z M20.776,12 C20.776,13.287 20.776,14.203 20.71,14.933 C20.646,15.649 20.524,16.132 20.308,16.553 L21.642,17.238 C21.977,16.584 22.131,15.893 22.204,15.067 C22.277,14.255 22.276,13.26 22.276,12 L20.776,12 Z M17.138,20.899 C18.23,20.269 19.091,19.773 19.758,19.304 C20.437,18.827 20.959,18.349 21.357,17.732 L20.097,16.918 C19.84,17.316 19.483,17.663 18.895,18.077 C18.296,18.498 17.502,18.957 16.388,19.6 L17.138,20.899 Z M20.308,16.553 C20.244,16.678 20.173,16.8 20.097,16.918 L21.357,17.732 C21.46,17.572 21.555,17.407 21.642,17.238 L20.308,16.553 Z M16.388,4.399 C17.502,5.043 18.296,5.502 18.895,5.923 C19.483,6.336 19.84,6.684 20.097,7.082 L21.357,6.268 C20.959,5.651 20.437,5.173 19.758,4.696 C19.091,4.227 18.23,3.731 17.138,3.1 L16.388,4.399 Z M22.276,12 C22.276,10.739 22.277,9.745 22.204,8.933 C22.131,8.107 21.977,7.415 21.642,6.762 L20.308,7.447 C20.524,7.868 20.646,8.351 20.71,9.067 C20.776,9.797 20.776,10.713 20.776,12 L22.276,12 Z M20.097,7.082 C20.173,7.2 20.244,7.322 20.308,7.447 L21.642,6.762 C21.555,6.593 21.46,6.428 21.357,6.268 L20.097,7.082 Z M7.612,4.399 C8.726,3.756 9.52,3.298 10.185,2.99 C10.837,2.687 11.316,2.552 11.789,2.529 L11.715,1.031 C10.981,1.067 10.306,1.28 9.554,1.629 C8.814,1.973 7.953,2.47 6.862,3.1 L7.612,4.399 Z M17.138,3.1 C16.046,2.47 15.186,1.973 14.446,1.629 C13.694,1.28 13.018,1.067 12.285,1.031 L12.211,2.529 C12.684,2.552 13.163,2.687 13.815,2.99 C14.48,3.298 15.274,3.756 16.388,4.399 L17.138,3.1 Z M11.789,2.529 C11.93,2.522 12.07,2.522 12.211,2.529 L12.285,1.031 C12.095,1.021 11.905,1.021 11.715,1.031 L11.789,2.529 Z M3.224,12 C3.224,10.713 3.224,9.797 3.29,9.067 C3.354,8.351 3.476,7.868 3.692,7.447 L2.358,6.762 C2.022,7.415 1.869,8.107 1.796,8.933 C1.723,9.745 1.724,10.739 1.724,12 L3.224,12 Z M6.862,3.1 C5.77,3.731 4.909,4.227 4.242,4.696 C3.563,5.173 3.041,5.651 2.643,6.268 L3.903,7.082 C4.16,6.684 4.517,6.336 5.104,5.923 C5.704,5.502 6.497,5.043 7.612,4.399 L6.862,3.1 Z M3.692,7.447 C3.756,7.322 3.827,7.2 3.903,7.082 L2.643,6.268 C2.54,6.428 2.444,6.593 2.358,6.762 L3.692,7.447 Z M7.612,19.6 C6.497,18.957 5.704,18.498 5.104,18.077 C4.517,17.663 4.16,17.316 3.903,16.918 L2.643,17.732 C3.041,18.349 3.563,18.827 4.242,19.304 C4.909,19.773 5.77,20.269 6.862,20.899 L7.612,19.6 Z M1.724,12 C1.724,13.26 1.723,14.255 1.796,15.067 C1.869,15.893 2.022,16.584 2.358,17.238 L3.692,16.553 C3.476,16.132 3.354,15.649 3.29,14.933 C3.224,14.203 3.224,13.287 3.224,12 L1.724,12 Z M3.903,16.918 C3.827,16.8 3.756,16.678 3.692,16.553 L2.358,17.238 C2.444,17.407 2.54,17.572 2.643,17.732 L3.903,16.918 Z M6.862,20.899 C7.953,21.53 8.814,22.027 9.554,22.371 C10.306,22.72 10.981,22.933 11.715,22.969 L11.789,21.471 C11.316,21.448 10.837,21.312 10.185,21.01 C9.52,20.701 8.726,20.244 7.612,19.6 L6.862,20.899 Z M16.388,19.6 C15.274,20.244 14.48,20.701 13.815,21.01 C13.163,21.312 12.684,21.448 12.211,21.471 L12.285,22.969 C13.018,22.933 13.694,22.72 14.446,22.371 C15.186,22.027 16.046,21.53 17.138,20.899 L16.388,19.6 Z M11.715,22.969 C11.905,22.979 12.095,22.979 12.285,22.969 L12.211,21.471 C12.07,21.478 11.93,21.478 11.789,21.471 L11.715,22.969 Z"/>
</svg>

