<svg width="24" height="24" viewBox="0 0 24 24" fill="none" xmlns="http://www.w3.org/2000/svg">
<path fill-rule="evenodd" clip-rule="evenodd" d="M11.9647 1.72363H12.0352C13.279 1.72363 14.2621 1.72362 15.0667 1.79551C15.8932 1.86936 16.5844 2.0224 17.2377 2.35755C17.407 2.44437 17.5718 2.53953 17.7316 2.64268C18.3485 3.04089 18.8266 3.56301 19.3038 4.24182C19.7684 4.90265 20.2599 5.75406 20.8818 6.83121L20.917 6.89225C21.539 7.96943 22.0306 8.82087 22.3706 9.5536C22.7199 10.3063 22.9329 10.9814 22.9694 11.7148C22.9788 11.9048 22.9788 12.0951 22.9694 12.285C22.9329 13.0184 22.7199 13.6936 22.3706 14.4462C22.0306 15.179 21.539 16.0304 20.9171 17.1076L20.8818 17.1686C20.26 18.2457 19.7684 19.0972 19.3038 19.758C18.8266 20.4368 18.3485 20.9589 17.7316 21.3571C17.5718 21.4603 17.4069 21.5555 17.2377 21.6423C16.5844 21.9774 15.8931 22.1305 15.0667 22.2043C14.2621 22.2762 13.279 22.2762 12.0352 22.2762H11.9647C10.7209 22.2762 9.73774 22.2762 8.93318 22.2043C8.10672 22.1305 7.41546 21.9774 6.76215 21.6423C6.59292 21.5555 6.42809 21.4603 6.26829 21.3571C5.65139 20.9589 5.17323 20.4368 4.69604 19.758C4.2315 19.0972 3.73992 18.2457 3.11802 17.1685L3.0828 17.1075C2.46091 16.0304 1.96931 15.1789 1.62929 14.4462C1.28001 13.6936 1.06692 13.0184 1.03051 12.285C1.02108 12.0951 1.02108 11.9048 1.03051 11.7148C1.06692 10.9814 1.28001 10.3063 1.62929 9.5536C1.96931 8.82087 2.4609 7.96944 3.08281 6.89227L3.11803 6.83127C3.73993 5.7541 4.2315 4.90266 4.69604 4.24182C5.17323 3.56301 5.65139 3.04089 6.2683 2.64268C6.4281 2.53952 6.59292 2.44437 6.76215 2.35755C7.41547 2.0224 8.10672 1.86936 8.93318 1.79551C9.73775 1.72362 10.7209 1.72363 11.9647 1.72363ZM12.7499 7.99994C12.7499 7.58573 12.4142 7.24994 11.9999 7.24994C11.5857 7.24994 11.2499 7.58573 11.2499 7.99994V15.9999C11.2499 16.4142 11.5857 16.7499 11.9999 16.7499C12.4142 16.7499 12.7499 16.4142 12.7499 15.9999V7.99994ZM9.74994 8.99994C9.74994 8.58573 9.41415 8.24994 8.99994 8.24994C8.58573 8.24994 8.24994 8.58573 8.24994 8.99994L8.24994 14.9999C8.24994 15.4142 8.58573 15.7499 8.99994 15.7499C9.41415 15.7499 9.74994 15.4142 9.74994 14.9999V8.99994ZM15.7499 8.99994C15.7499 8.58573 15.4142 8.24994 14.9999 8.24994C14.5857 8.24994 14.2499 8.58573 14.2499 8.99994V14.9999C14.2499 15.4142 14.5857 15.7499 14.9999 15.7499C15.4142 15.7499 15.7499 15.4142 15.7499 14.9999V8.99994ZM6.74994 10.9999C6.74994 10.5857 6.41415 10.2499 5.99994 10.2499C5.58573 10.2499 5.24994 10.5857 5.24994 10.9999L5.24994 12.9999C5.24994 13.4142 5.58573 13.7499 5.99994 13.7499C6.41415 13.7499 6.74994 13.4142 6.74994 12.9999L6.74994 10.9999ZM18.7499 10.9999C18.7499 10.5857 18.4142 10.2499 17.9999 10.2499C17.5857 10.2499 17.2499 10.5857 17.2499 10.9999V12.9999C17.2499 13.4142 17.5857 13.7499 17.9999 13.7499C18.4142 13.7499 18.7499 13.4142 18.7499 12.9999V10.9999Z" fill="#2D264B"/>
</svg>
