<svg width="24" height="24" viewBox="0 0 24 24" fill="none" xmlns="http://www.w3.org/2000/svg">
<path fill-rule="evenodd" clip-rule="evenodd" d="M11.7148 1.03051C11.9048 1.02108 12.0951 1.02108 12.285 1.03051C13.0184 1.06692 13.6936 1.28001 14.4462 1.62929C15.1789 1.96931 16.0303 2.46087 17.1075 3.08276L17.1685 3.11802C18.2457 3.73992 19.0972 4.2315 19.758 4.69604C20.4368 5.17323 20.9589 5.65139 21.3571 6.26829C21.4603 6.42809 21.5555 6.59292 21.6423 6.76215C21.9774 7.41546 22.1305 8.10672 22.2043 8.93318C22.2762 9.73774 22.2762 10.7209 22.2762 11.9647V12.0351C22.2762 13.2789 22.2762 14.2621 22.2043 15.0667C22.1305 15.8931 21.9774 16.5844 21.6423 17.2377C21.5555 17.4069 21.4603 17.5718 21.3571 17.7316C20.9589 18.3485 20.4368 18.8266 19.758 19.3038C19.0972 19.7684 18.2457 20.26 17.1685 20.8819L17.1076 20.9171C16.0304 21.539 15.179 22.0306 14.4462 22.3706C13.6936 22.7199 13.0184 22.9329 12.285 22.9694C12.0951 22.9788 11.9048 22.9788 11.7148 22.9694C10.9814 22.9329 10.3063 22.7199 9.5536 22.3706C8.82089 22.0306 7.96947 21.539 6.89233 20.9171L6.83121 20.8818C5.75413 20.26 4.90262 19.7683 4.24182 19.3038C3.56301 18.8266 3.04089 18.3485 2.64268 17.7316C2.53953 17.5718 2.44437 17.407 2.35755 17.2377C2.0224 16.5844 1.86936 15.8932 1.79551 15.0667C1.72362 14.2621 1.72363 13.279 1.72363 12.0352V11.9647C1.72363 10.7209 1.72362 9.73775 1.79551 8.93318C1.86936 8.10672 2.0224 7.41547 2.35755 6.76215C2.44436 6.59292 2.53952 6.4281 2.64268 6.2683C3.04089 5.65139 3.56301 5.17323 4.24182 4.69604C4.90266 4.2315 5.75409 3.73993 6.83127 3.11803L6.89225 3.08282C7.96943 2.4609 8.82087 1.96931 9.5536 1.62929C10.3063 1.28001 10.9814 1.06692 11.7148 1.03051ZM12.7499 7.99994C12.7499 7.58573 12.4142 7.24994 11.9999 7.24994C11.5857 7.24994 11.2499 7.58573 11.2499 7.99994V15.9999C11.2499 16.4142 11.5857 16.7499 11.9999 16.7499C12.4142 16.7499 12.7499 16.4142 12.7499 15.9999V7.99994ZM9.74994 8.99994C9.74994 8.58573 9.41415 8.24994 8.99994 8.24994C8.58573 8.24994 8.24994 8.58573 8.24994 8.99994L8.24994 14.9999C8.24994 15.4142 8.58573 15.7499 8.99994 15.7499C9.41415 15.7499 9.74994 15.4142 9.74994 14.9999V8.99994ZM15.7499 8.99994C15.7499 8.58573 15.4142 8.24994 14.9999 8.24994C14.5857 8.24994 14.2499 8.58573 14.2499 8.99994V14.9999C14.2499 15.4142 14.5857 15.7499 14.9999 15.7499C15.4142 15.7499 15.7499 15.4142 15.7499 14.9999V8.99994ZM6.74994 10.9999C6.74994 10.5857 6.41415 10.2499 5.99994 10.2499C5.58573 10.2499 5.24994 10.5857 5.24994 10.9999L5.24994 12.9999C5.24994 13.4142 5.58573 13.7499 5.99994 13.7499C6.41415 13.7499 6.74994 13.4142 6.74994 12.9999V10.9999ZM18.7499 10.9999C18.7499 10.5857 18.4142 10.2499 17.9999 10.2499C17.5857 10.2499 17.2499 10.5857 17.2499 10.9999V12.9999C17.2499 13.4142 17.5857 13.7499 17.9999 13.7499C18.4142 13.7499 18.7499 13.4142 18.7499 12.9999V10.9999Z" fill="#2D264B"/>
</svg>
