<svg xmlns="http://www.w3.org/2000/svg" width="24" height="24" viewBox="0 0 24 24">
  <defs/>
  <path fill="#2D264B" d="M12.75,8 C12.75,7.586 12.414,7.25 12,7.25 C11.586,7.25 11.25,7.586 11.25,8 L12.75,8 Z M11.25,16 C11.25,16.414 11.586,16.75 12,16.75 C12.414,16.75 12.75,16.414 12.75,16 L11.25,16 Z M15.75,9 C15.75,8.586 15.414,8.25 15,8.25 C14.586,8.25 14.25,8.586 14.25,9 L15.75,9 Z M14.25,15 C14.25,15.414 14.586,15.75 15,15.75 C15.414,15.75 15.75,15.414 15.75,15 L14.25,15 Z M18.75,11 C18.75,10.586 18.414,10.25 18,10.25 C17.586,10.25 17.25,10.586 17.25,11 L18.75,11 Z M17.25,13 C17.25,13.414 17.586,13.75 18,13.75 C18.414,13.75 18.75,13.414 18.75,13 L17.25,13 Z M9.75,9 C9.75,8.586 9.414,8.25 9,8.25 C8.586,8.25 8.25,8.586 8.25,9 L9.75,9 Z M8.25,15 C8.25,15.414 8.586,15.75 9,15.75 C9.414,15.75 9.75,15.414 9.75,15 L8.25,15 Z M6.75,11 C6.75,10.586 6.414,10.25 6,10.25 C5.586,10.25 5.25,10.586 5.25,11 L6.75,11 Z M5.25,13 C5.25,13.414 5.586,13.75 6,13.75 C6.414,13.75 6.75,13.414 6.75,13 L5.25,13 Z M11.25,8 L11.25,16 L12.75,16 L12.75,8 L11.25,8 Z M14.25,9 L14.25,15 L15.75,15 L15.75,9 L14.25,9 Z M17.25,11 L17.25,13 L18.75,13 L18.75,11 L17.25,11 Z M8.25,9 L8.25,15 L9.75,15 L9.75,9 L8.25,9 Z M5.25,11 L5.25,13 L6.75,13 L6.75,11 L5.25,11 Z M12,3.224 C13.287,3.224 14.203,3.224 14.933,3.29 C15.649,3.354 16.132,3.476 16.553,3.692 L17.238,2.358 C16.584,2.022 15.893,1.869 15.067,1.796 C14.255,1.723 13.26,1.724 12,1.724 L12,3.224 Z M20.899,6.862 C20.269,5.77 19.773,4.909 19.304,4.242 C18.827,3.563 18.349,3.041 17.732,2.643 L16.918,3.903 C17.316,4.16 17.663,4.517 18.077,5.104 C18.498,5.704 18.957,6.497 19.6,7.612 L20.899,6.862 Z M16.553,3.692 C16.678,3.756 16.8,3.827 16.918,3.903 L17.732,2.643 C17.572,2.54 17.407,2.444 17.238,2.358 L16.553,3.692 Z M4.399,7.612 C5.043,6.497 5.502,5.704 5.923,5.104 C6.336,4.517 6.684,4.16 7.082,3.903 L6.268,2.643 C5.651,3.041 5.173,3.563 4.696,4.242 C4.227,4.909 3.731,5.77 3.1,6.862 L4.399,7.612 Z M12,1.724 C10.739,1.724 9.745,1.723 8.933,1.796 C8.107,1.869 7.415,2.022 6.762,2.358 L7.447,3.692 C7.868,3.476 8.351,3.354 9.067,3.29 C9.797,3.224 10.713,3.224 12,3.224 L12,1.724 Z M7.082,3.903 C7.2,3.827 7.322,3.756 7.447,3.692 L6.762,2.358 C6.593,2.444 6.428,2.54 6.268,2.643 L7.082,3.903 Z M4.399,16.388 C3.756,15.274 3.298,14.48 2.99,13.815 C2.687,13.163 2.552,12.684 2.529,12.211 L1.031,12.285 C1.067,13.018 1.28,13.694 1.629,14.446 C1.973,15.186 2.47,16.046 3.1,17.138 L4.399,16.388 Z M3.1,6.862 C2.47,7.953 1.973,8.814 1.629,9.554 C1.28,10.306 1.067,10.981 1.031,11.715 L2.529,11.789 C2.552,11.316 2.687,10.837 2.99,10.185 C3.298,9.52 3.756,8.726 4.399,7.612 L3.1,6.862 Z M2.529,12.211 C2.522,12.07 2.522,11.93 2.529,11.789 L1.031,11.715 C1.021,11.905 1.021,12.095 1.031,12.285 L2.529,12.211 Z M12,20.776 C10.713,20.776 9.797,20.776 9.067,20.71 C8.351,20.646 7.868,20.524 7.447,20.308 L6.762,21.642 C7.415,21.977 8.107,22.131 8.933,22.204 C9.745,22.277 10.739,22.276 12,22.276 L12,20.776 Z M3.1,17.138 C3.731,18.23 4.227,19.091 4.696,19.758 C5.173,20.437 5.651,20.959 6.268,21.357 L7.082,20.097 C6.684,19.84 6.336,19.483 5.923,18.895 C5.502,18.296 5.043,17.502 4.399,16.388 L3.1,17.138 Z M7.447,20.308 C7.322,20.244 7.2,20.173 7.082,20.097 L6.268,21.357 C6.428,21.46 6.593,21.555 6.762,21.642 L7.447,20.308 Z M19.6,16.388 C18.957,17.502 18.498,18.296 18.077,18.895 C17.663,19.483 17.316,19.84 16.918,20.097 L17.732,21.357 C18.349,20.959 18.827,20.437 19.304,19.758 C19.773,19.091 20.269,18.23 20.899,17.138 L19.6,16.388 Z M12,22.276 C13.26,22.276 14.255,22.277 15.067,22.204 C15.893,22.131 16.584,21.977 17.238,21.642 L16.553,20.308 C16.132,20.524 15.649,20.646 14.933,20.71 C14.203,20.776 13.287,20.776 12,20.776 L12,22.276 Z M16.918,20.097 C16.8,20.173 16.678,20.244 16.553,20.308 L17.238,21.642 C17.407,21.555 17.572,21.46 17.732,21.357 L16.918,20.097 Z M20.899,17.138 C21.53,16.046 22.027,15.186 22.371,14.446 C22.72,13.694 22.933,13.018 22.969,12.285 L21.471,12.211 C21.448,12.684 21.312,13.163 21.01,13.815 C20.701,14.48 20.244,15.274 19.6,16.388 L20.899,17.138 Z M19.6,7.612 C20.244,8.726 20.701,9.52 21.01,10.185 C21.312,10.837 21.448,11.316 21.471,11.789 L22.969,11.715 C22.933,10.981 22.72,10.306 22.371,9.554 C22.027,8.814 21.53,7.953 20.899,6.862 L19.6,7.612 Z M22.969,12.285 C22.979,12.095 22.979,11.905 22.969,11.715 L21.471,11.789 C21.478,11.93 21.478,12.07 21.471,12.211 L22.969,12.285 Z"/>
</svg>

