<svg width="24" height="24" viewBox="0 0 24 24" fill="none" xmlns="http://www.w3.org/2000/svg">
<path d="M6.91496 16.1605L7.39196 15.5817H7.39196L6.91496 16.1605ZM6.52604 15.8477L6.0779 16.4491L6.52604 15.8477ZM3.78282 14.8629L3.74616 15.612L3.78282 14.8629ZM3.78282 9.13667L3.74616 8.38757L3.78282 9.13667ZM6.91496 7.83911L7.39196 8.41788H7.39196L6.91496 7.83911ZM6.52604 8.15191L6.97418 8.75329L6.52604 8.15191ZM1.0124 13.0793L0.267056 13.1627L1.0124 13.0793ZM2.7776 14.8445L2.6942 15.5899L2.7776 14.8445ZM13.1258 19.4128L12.7036 18.7929L13.1258 19.4128ZM7.91095 16.9813L7.43395 17.5601L7.91095 16.9813ZM12.5596 19.6798L12.3498 18.9598L12.5596 19.6798ZM13.1258 4.58681L13.5479 3.96691L13.1258 4.58681ZM7.91095 7.01824L7.43395 6.43948H7.43395L7.91095 7.01824ZM12.5596 4.31977L12.3498 5.03981L12.5596 4.31977ZM1.0124 10.9202L0.267056 10.8368L1.0124 10.9202ZM2.7776 9.15506L2.6942 8.40971L2.7776 9.15506ZM17 11.2498C16.5858 11.2498 16.25 11.5856 16.25 11.9998C16.25 12.414 16.5858 12.7498 17 12.7498V11.2498ZM23 12.7498C23.4142 12.7498 23.75 12.414 23.75 11.9998C23.75 11.5856 23.4142 11.2498 23 11.2498V12.7498ZM19.25 14.9998C19.25 15.414 19.5858 15.7498 20 15.7498C20.4142 15.7498 20.75 15.414 20.75 14.9998H19.25ZM20.75 8.99979C20.75 8.58558 20.4142 8.24979 20 8.24979C19.5858 8.24979 19.25 8.58558 19.25 8.99979H20.75ZM13.25 9.89038V14.1092H14.75V9.89038H13.25ZM1.75 12.5732V11.4264H0.25V12.5732H1.75ZM7.39196 8.41788L8.38796 7.597L7.43395 6.43948L6.43796 7.26035L7.39196 8.41788ZM8.38796 16.4026L7.39196 15.5817L6.43796 16.7392L7.43395 17.5601L8.38796 16.4026ZM7.39196 15.5817C7.2036 15.4265 7.09034 15.3328 6.97418 15.2463L6.0779 16.4491C6.15784 16.5086 6.23849 16.5748 6.43796 16.7392L7.39196 15.5817ZM3.28376 15.6069C3.54224 15.6069 3.64659 15.6071 3.74616 15.612L3.81948 14.1138C3.6748 14.1067 3.52786 14.1069 3.28376 14.1069V15.6069ZM6.97418 15.2463C6.05842 14.5639 4.96018 14.1696 3.81948 14.1138L3.74616 15.612C4.58929 15.6533 5.40103 15.9447 6.0779 16.4491L6.97418 15.2463ZM3.28376 9.89265C3.52786 9.89265 3.6748 9.89286 3.81948 9.88578L3.74616 8.38757C3.64659 8.39244 3.54224 8.39265 3.28376 8.39265V9.89265ZM6.43796 7.26035C6.23849 7.42474 6.15783 7.49095 6.0779 7.55052L6.97418 8.75329C7.09034 8.66674 7.2036 8.57312 7.39196 8.41788L6.43796 7.26035ZM3.81948 9.88578C4.96018 9.82995 6.05842 9.43571 6.97418 8.75329L6.0779 7.55052C5.40103 8.05491 4.58929 8.34631 3.74616 8.38757L3.81948 9.88578ZM0.25 12.5732C0.25 12.8164 0.248827 12.9998 0.267056 13.1627L1.75775 12.9959C1.75117 12.9371 1.75 12.857 1.75 12.5732H0.25ZM3.28376 14.1069C2.99995 14.1069 2.9198 14.1058 2.861 14.0992L2.6942 15.5899C2.8571 15.6081 3.04049 15.6069 3.28376 15.6069V14.1069ZM0.267056 13.1627C0.409905 14.4394 1.41756 15.447 2.6942 15.5899L2.861 14.0992C2.28071 14.0343 1.82268 13.5762 1.75775 12.9959L0.267056 13.1627ZM13.25 14.1092C13.25 15.7004 13.2485 16.8198 13.1467 17.6201C13.043 18.4358 12.8589 18.6871 12.7036 18.7929L13.5479 20.0327C14.2668 19.5431 14.5199 18.712 14.6347 17.8094C14.7515 16.8916 14.75 15.6569 14.75 14.1092H13.25ZM7.43395 17.5601C8.62824 18.5444 9.58011 19.3308 10.3627 19.8245C11.1322 20.31 11.9345 20.6432 12.7695 20.3999L12.3498 18.9598C12.1694 19.0124 11.8584 18.9945 11.163 18.5559C10.4806 18.1254 9.61583 17.4146 8.38796 16.4026L7.43395 17.5601ZM12.7036 18.7929C12.5952 18.8667 12.4758 18.9231 12.3498 18.9598L12.7695 20.3999C13.0467 20.3191 13.3093 20.1952 13.5479 20.0327L12.7036 18.7929ZM14.75 9.89038C14.75 8.34274 14.7515 7.10803 14.6347 6.19017C14.5199 5.28757 14.2668 4.4565 13.5479 3.96691L12.7036 5.20671C12.8589 5.31249 13.043 5.5638 13.1467 6.37944C13.2485 7.17983 13.25 8.29922 13.25 9.89038H14.75ZM8.38796 7.597C9.61583 6.58502 10.4806 5.87422 11.163 5.44374C11.8584 5.00504 12.1694 4.98723 12.3498 5.03981L12.7695 3.59974C11.9345 3.35635 11.1322 3.68962 10.3627 4.17508C9.58011 4.66875 8.62824 5.45517 7.43395 6.43948L8.38796 7.597ZM13.5479 3.96691C13.3093 3.80442 13.0467 3.68051 12.7695 3.59974L12.3498 5.03981C12.4758 5.07653 12.5952 5.13285 12.7036 5.20671L13.5479 3.96691ZM1.75 11.4264C1.75 11.1426 1.75117 11.0625 1.75775 11.0036L0.267056 10.8368C0.248827 10.9998 0.25 11.1831 0.25 11.4264H1.75ZM3.28376 8.39265C3.04049 8.39265 2.8571 8.39148 2.6942 8.40971L2.861 9.9004C2.9198 9.89382 2.99995 9.89265 3.28376 9.89265V8.39265ZM1.75775 11.0036C1.82268 10.4234 2.28071 9.96534 2.861 9.9004L2.6942 8.40971C1.41756 8.55256 0.409905 9.56021 0.267056 10.8368L1.75775 11.0036ZM20.75 14.9998V8.99979H19.25V14.9998H20.75ZM17 12.7498H20V11.2498H17V12.7498ZM20 12.7498H23V11.2498H20V12.7498Z" fill="#2D264B"/>
</svg>
