<svg xmlns="http://www.w3.org/2000/svg" width="24" height="24" viewBox="0 0 24 24">
  <defs/>
  <path fill="#2D264B" d="M4.22,19.47 L20.22,3.47 Q20.439,3.25 20.75,3.25 Q21.061,3.25 21.28,3.47 Q21.5,3.689 21.5,4 Q21.5,4.311 21.28,4.53 L5.28,20.53 Q5.061,20.75 4.75,20.75 Q4.439,20.75 4.22,20.53 Q4,20.311 4,20 Q4,19.689 4.22,19.47 Z"/>
  <path fill="#2D264B" d="M11.138,7.597 C12.366,6.585 13.231,5.875 13.913,5.444 C14.608,5.005 14.919,4.988 15.1,5.04 C15.226,5.077 15.345,5.133 15.454,5.207 C15.609,5.313 15.793,5.564 15.897,6.38 C15.949,6.792 15.975,7.289 15.988,7.892 C16.002,8.555 16.802,8.888 17.271,8.419 C17.413,8.276 17.492,8.083 17.488,7.882 C17.474,7.232 17.445,6.669 17.385,6.191 C17.27,5.288 17.017,4.457 16.298,3.967 C16.059,3.805 15.797,3.681 15.52,3.6 C14.684,3.357 13.882,3.69 13.113,4.175 C12.34,4.663 11.402,5.436 10.228,6.403 L9.188,7.261 C8.989,7.425 8.908,7.491 8.828,7.551 C8.151,8.055 7.339,8.347 6.496,8.388 C6.397,8.393 6.292,8.393 6.034,8.393 L5.992,8.393 C5.769,8.393 5.598,8.393 5.444,8.41 C4.168,8.553 3.16,9.561 3.017,10.837 C3,10.991 3,11.162 3,11.385 L3,12.615 C3,12.838 3,13.01 3.017,13.163 C3.16,14.44 4.168,15.447 5.444,15.59 C5.598,15.607 5.769,15.607 5.992,15.607 L6.034,15.607 C6.292,15.607 6.397,15.607 6.496,15.612 C7.339,15.654 8.151,15.945 8.828,16.45 C8.961,16.549 9.147,16.542 9.265,16.425 L9.762,15.928 C9.955,15.734 9.944,15.41 9.724,15.247 C8.808,14.564 7.71,14.17 6.569,14.114 C6.429,14.107 6.286,14.107 6.054,14.107 L6.034,14.107 C5.75,14.107 5.67,14.106 5.611,14.1 C5.031,14.035 4.573,13.577 4.508,12.996 C4.501,12.938 4.5,12.857 4.5,12.574 L4.5,11.427 C4.5,11.143 4.501,11.063 4.508,11.004 C4.573,10.424 5.031,9.966 5.611,9.901 C5.67,9.894 5.75,9.893 6.034,9.893 L6.054,9.893 C6.286,9.893 6.429,9.893 6.569,9.886 C7.71,9.83 8.808,9.436 9.724,8.754 C9.837,8.67 9.947,8.579 10.126,8.431 L11.138,7.597 Z"/>
  <path fill="#2D264B" d="M11.812,16.957 C11.513,16.713 11.077,16.733 10.804,17.006 L10.227,17.583 C10.224,17.587 10.224,17.593 10.228,17.597 C11.402,18.564 12.34,19.337 13.113,19.825 C13.882,20.31 14.684,20.644 15.52,20.4 C15.797,20.32 16.059,20.196 16.298,20.033 C17.017,19.544 17.27,18.712 17.385,17.81 C17.5,16.903 17.5,15.688 17.5,14.167 L17.5,12.121 C17.5,11.453 16.692,11.119 16.22,11.591 C16.079,11.732 16,11.922 16,12.121 L16,14.11 C16,15.701 15.998,16.82 15.897,17.621 C15.793,18.436 15.609,18.688 15.454,18.793 C15.345,18.867 15.226,18.924 15.1,18.96 C14.919,19.013 14.608,18.995 13.913,18.556 C13.363,18.209 12.694,17.68 11.812,16.957 Z"/>
</svg>

