<svg xmlns="http://www.w3.org/2000/svg" width="24" height="24" viewBox="0 0 24 24">
  <defs/>
  <path fill="#2D264B" d="M12.77,3.332 C11.934,3.088 11.132,3.421 10.363,3.907 C9.59,4.394 8.652,5.168 7.478,6.135 L6.438,6.992 C6.239,7.157 6.158,7.223 6.078,7.282 C5.401,7.787 4.589,8.078 3.746,8.119 C3.647,8.124 3.542,8.124 3.284,8.124 L3.242,8.124 C3.019,8.124 2.848,8.124 2.694,8.142 C1.418,8.284 0.41,9.292 0.267,10.569 C0.25,10.722 0.25,10.894 0.25,11.117 L0.25,12.347 C0.25,12.569 0.25,12.741 0.267,12.895 C0.41,14.171 1.418,15.179 2.694,15.322 C2.848,15.339 3.019,15.339 3.242,15.339 L3.284,15.339 C3.542,15.339 3.647,15.339 3.746,15.344 C4.589,15.385 5.401,15.677 6.078,16.181 C6.158,16.241 6.239,16.307 6.438,16.471 L7.478,17.328 C8.652,18.296 9.59,19.069 10.363,19.556 C11.132,20.042 11.934,20.375 12.77,20.132 C13.047,20.051 13.309,19.927 13.548,19.765 C14.267,19.275 14.52,18.444 14.635,17.541 C14.75,16.635 14.75,15.419 14.75,13.898 L14.75,9.565 C14.75,8.044 14.75,6.829 14.635,5.922 C14.52,5.019 14.267,4.188 13.548,3.699 C13.309,3.536 13.047,3.412 12.77,3.332 Z"/>
  <path fill="#2D264B" d="M19.53,4.201 C19.238,3.908 18.763,3.908 18.47,4.201 C18.177,4.494 18.177,4.969 18.47,5.262 L19.17,5.962 C19.778,6.571 20.047,6.841 20.25,7.083 C22.499,9.774 22.499,13.689 20.25,16.381 C20.047,16.623 19.778,16.893 19.17,17.501 L18.47,18.201 C18.177,18.494 18.177,18.969 18.47,19.262 C18.763,19.555 19.238,19.555 19.53,19.262 L20.266,18.526 C20.829,17.963 21.15,17.643 21.401,17.342 C24.115,14.094 24.115,9.369 21.401,6.121 C21.15,5.821 20.829,5.5 20.266,4.937 L19.53,4.201 Z"/>
  <path fill="#2D264B" d="M17.53,7.201 C17.238,6.908 16.763,6.908 16.47,7.201 C16.177,7.494 16.177,7.969 16.47,8.262 L16.87,8.662 C16.931,8.724 16.957,8.749 16.977,8.77 C18.58,10.419 18.58,13.044 16.977,14.694 C16.957,14.714 16.931,14.74 16.87,14.801 L16.47,15.201 C16.177,15.494 16.177,15.969 16.47,16.262 C16.763,16.555 17.238,16.555 17.53,16.262 L17.936,15.857 C17.99,15.802 18.024,15.768 18.053,15.739 C20.221,13.507 20.221,9.956 18.053,7.724 C18.024,7.695 17.991,7.661 17.936,7.607 L17.53,7.201 Z"/>
</svg>

