<svg width="24" height="24" viewBox="0 0 24 24" fill="none" xmlns="http://www.w3.org/2000/svg">
<path d="M12.1127 3.65693C12.8822 3.17147 13.6845 2.8382 14.5195 3.08159C14.7967 3.16236 15.0594 3.28627 15.298 3.44876C16.0169 3.93835 16.2699 4.76942 16.3847 5.67202C16.4501 6.18569 16.4784 6.79861 16.4907 7.51007L20.7806 3.22007C21.0735 2.92717 21.5484 2.92717 21.8413 3.22007C22.1342 3.51296 22.1342 3.98783 21.8413 4.28073L5.84138 20.2807C5.54849 20.5736 5.07362 20.5736 4.78072 20.2807C4.48783 19.9878 4.48783 19.513 4.78072 19.2201L7.96365 16.0371C7.90829 15.9924 7.86801 15.9608 7.82791 15.9309C7.15104 15.4265 6.3393 15.1351 5.49617 15.0939C5.3966 15.089 5.29225 15.0888 5.03377 15.0888L4.99221 15.0888C4.76939 15.0889 4.59771 15.0889 4.44421 15.0717C3.16758 14.9289 2.15992 13.9212 2.01707 12.6446C1.9999 12.4911 1.99994 12.3194 2.00001 12.0966V10.8667C1.99994 10.6439 1.9999 10.4722 2.01707 10.3187C2.15992 9.04206 3.16758 8.03441 4.44421 7.89156C4.5977 7.87438 4.76937 7.87443 4.99217 7.87449L5.03377 7.8745C5.29225 7.8745 5.3966 7.87429 5.49617 7.86942C6.3393 7.82816 7.15104 7.53676 7.82791 7.03237C7.90785 6.9728 7.98851 6.90659 8.18797 6.7422L9.22816 5.8849C10.4018 4.91762 11.3398 4.14449 12.1127 3.65693Z" fill="#2D264B"/>
<path d="M15.0672 13.0548C15.596 12.5261 16.5 12.9006 16.5 13.6483C16.5 15.1692 16.5 16.3848 16.3847 17.2913C16.2699 18.1939 16.0169 19.0249 15.298 19.5145C15.0594 19.677 14.7967 19.8009 14.5195 19.8817C13.6845 20.1251 12.8822 19.7918 12.1127 19.3064C12.0745 19.2823 12.036 19.2575 11.997 19.2321C11.1657 18.6891 10.75 18.4177 10.7009 17.944C10.6517 17.4704 11.0328 17.0893 11.795 16.3271L15.0672 13.0548Z" fill="#2D264B"/>
</svg>
