<svg width="24" height="24" viewBox="0 0 24 24" fill="none" xmlns="http://www.w3.org/2000/svg">
<path d="M17.7695 3.33159C16.9345 3.0882 16.1322 3.42147 15.3627 3.90693C14.5898 4.39449 13.6518 5.16762 12.4782 6.1349L11.438 6.9922C11.2385 7.15659 11.1578 7.2228 11.0779 7.28237C10.401 7.78676 9.5893 8.07816 8.74617 8.11942C8.6466 8.12429 8.54225 8.1245 8.28377 8.1245L8.2422 8.12449C8.01938 8.12443 7.8477 8.12438 7.69421 8.14156C6.41758 8.28441 5.40992 9.29206 5.26707 10.5687C5.2499 10.7222 5.24994 10.8939 5.25001 11.1167V12.3466C5.24994 12.5694 5.2499 12.7411 5.26707 12.8946C5.40992 14.1712 6.41758 15.1789 7.69421 15.3217C7.84771 15.3389 8.01939 15.3389 8.24221 15.3388L8.28377 15.3388C8.54225 15.3388 8.6466 15.339 8.74617 15.3439C9.5893 15.3851 10.401 15.6765 11.0779 16.1809C11.1579 16.2405 11.2385 16.3067 11.438 16.4711L12.4781 17.3284C13.6518 18.2957 14.5898 19.0688 15.3627 19.5564C16.1322 20.0418 16.9345 20.3751 17.7695 20.1317C18.0467 20.0509 18.3094 19.927 18.548 19.7645C19.2669 19.2749 19.5199 18.4439 19.6347 17.5413C19.75 16.6348 19.75 15.4192 19.75 13.8983V9.56497C19.75 8.04411 19.75 6.82853 19.6347 5.92202C19.5199 5.01942 19.2669 4.18835 18.548 3.69876C18.3094 3.53627 18.0467 3.41236 17.7695 3.33159Z" fill="#2D264B"/>
</svg>
