<svg width="24" height="24" viewBox="0 0 24 24" fill="none" xmlns="http://www.w3.org/2000/svg">
<path d="M14.7695 3.33159C13.9345 3.0882 13.1322 3.42147 12.3627 3.90693C11.5898 4.39449 10.6518 5.16762 9.47816 6.1349L8.43797 6.9922C8.23851 7.15659 8.15785 7.2228 8.07791 7.28237C7.40104 7.78676 6.5893 8.07816 5.74617 8.11942C5.6466 8.12429 5.54225 8.1245 5.28377 8.1245L5.2422 8.12449C5.01938 8.12443 4.8477 8.12438 4.69421 8.14156C3.41758 8.28441 2.40992 9.29206 2.26707 10.5687C2.2499 10.7222 2.24994 10.8939 2.25001 11.1167V12.3466C2.24994 12.5694 2.2499 12.7411 2.26707 12.8946C2.40992 14.1712 3.41758 15.1789 4.69421 15.3217C4.84771 15.3389 5.01939 15.3389 5.24221 15.3388L5.28377 15.3388C5.54225 15.3388 5.6466 15.339 5.74617 15.3439C6.5893 15.3851 7.40104 15.6765 8.07791 16.1809C8.15785 16.2405 8.23851 16.3067 8.43797 16.4711L9.47814 17.3284C10.6518 18.2957 11.5898 19.0688 12.3627 19.5564C13.1322 20.0418 13.9345 20.3751 14.7695 20.1317C15.0467 20.0509 15.3094 19.927 15.548 19.7645C16.2669 19.2749 16.5199 18.4439 16.6347 17.5413C16.75 16.6348 16.75 15.4192 16.75 13.8983V9.56497C16.75 8.04411 16.75 6.82853 16.6347 5.92202C16.5199 5.01942 16.2669 4.18835 15.548 3.69876C15.3094 3.53627 15.0467 3.41236 14.7695 3.33159Z" fill="#2D264B"/>
<path d="M20.5303 7.20131C20.2375 6.90842 19.7626 6.90842 19.4697 7.20131C19.1768 7.49421 19.1768 7.96908 19.4697 8.26197L19.8697 8.66197C19.9314 8.72367 19.9566 8.74893 19.9769 8.76979C21.5796 10.4191 21.5796 13.0442 19.9769 14.6935C19.9566 14.7144 19.9314 14.7396 19.8697 14.8013L19.4697 15.2013C19.1768 15.4942 19.1768 15.9691 19.4697 16.262C19.7626 16.5549 20.2375 16.5549 20.5303 16.262L20.9357 15.8566C20.9904 15.8019 21.0239 15.7684 21.0526 15.7389C23.2211 13.5074 23.2211 9.95587 21.0526 7.72442C21.0239 7.69487 20.9905 7.66146 20.9357 7.60663L20.5303 7.20131Z" fill="#2D264B"/>
</svg>
