<svg xmlns="http://www.w3.org/2000/svg" width="24" height="24" viewBox="0 0 24 24">
  <defs/>
  <path fill="#2D264B" d="M6.438,16.471 L6.437,16.47 Q6.161,16.243 6.078,16.18 Q5.04,15.407 3.746,15.343 Q3.642,15.338 3.284,15.338 Q2.847,15.338 2.694,15.321 Q0.511,15.077 0.267,12.894 Q0.25,12.742 0.25,12.305 L0.25,11.158 Q0.25,10.721 0.267,10.568 Q0.511,8.385 2.694,8.141 Q2.847,8.124 3.284,8.124 Q3.642,8.124 3.746,8.119 Q5.04,8.056 6.078,7.282 Q6.161,7.22 6.437,6.992 L6.438,6.992 L7.434,6.171 Q11.373,2.924 12.769,3.331 Q13.188,3.453 13.548,3.698 Q14.75,4.517 14.75,9.622 L14.75,13.841 Q14.75,18.946 13.548,19.764 Q13.188,20.009 12.769,20.131 Q11.373,20.538 7.434,17.292 Z M7.392,15.313 L8.388,16.134 Q11.715,18.876 12.35,18.691 Q12.54,18.636 12.704,18.524 Q13.25,18.152 13.25,13.841 L13.25,9.622 Q13.25,5.31 12.704,4.938 Q12.54,4.827 12.35,4.771 Q11.715,4.586 8.388,7.328 L7.392,8.149 L7.391,8.15 Q7.087,8.401 6.974,8.485 Q5.569,9.532 3.819,9.617 Q3.679,9.624 3.284,9.624 Q2.93,9.624 2.861,9.632 Q1.869,9.743 1.758,10.735 Q1.75,10.804 1.75,11.158 L1.75,12.305 Q1.75,12.658 1.758,12.727 Q1.869,13.72 2.861,13.831 Q2.93,13.838 3.284,13.838 Q3.679,13.838 3.82,13.845 Q5.569,13.931 6.974,14.978 Q7.087,15.062 7.391,15.313 L7.392,15.313 Z M18.47,18.201 L19.17,17.501 Q20.042,16.629 20.25,16.38 Q21.936,14.362 21.936,11.731 Q21.936,9.101 20.25,7.082 Q20.042,6.834 19.173,5.965 L19.17,5.962 L18.47,5.262 Q18.25,5.042 18.25,4.731 Q18.25,4.421 18.47,4.201 Q18.689,3.981 19,3.981 Q19.311,3.981 19.53,4.201 L20.23,4.901 L20.234,4.904 Q21.15,5.821 21.401,6.12 Q23.436,8.557 23.436,11.731 Q23.436,14.906 21.401,17.342 Q21.15,17.642 20.23,18.562 L19.53,19.262 Q19.311,19.481 19,19.481 Q18.689,19.481 18.47,19.262 Q18.25,19.042 18.25,18.731 Q18.25,18.421 18.47,18.201 Z M16.47,15.201 L16.87,14.801 Q16.954,14.717 16.976,14.694 Q19.855,11.731 16.977,8.769 Q16.954,8.746 16.87,8.662 L16.47,8.262 Q16.25,8.042 16.25,7.731 Q16.25,7.421 16.47,7.201 Q16.689,6.981 17,6.981 Q17.311,6.981 17.53,7.201 L17.93,7.601 Q18.022,7.693 18.053,7.724 Q19.679,9.398 19.679,11.731 Q19.679,14.065 18.053,15.738 Q18.023,15.769 17.93,15.862 L17.53,16.262 Q17.311,16.481 17,16.481 Q16.689,16.481 16.47,16.262 Q16.25,16.042 16.25,15.731 Q16.25,15.421 16.47,15.201 Z"/>
</svg>

