<svg width="24" height="24" viewBox="0 0 24 24" fill="none" xmlns="http://www.w3.org/2000/svg">
<path d="M12.7695 3.60014C11.9345 3.35675 11.1322 3.69003 10.3627 4.17549C9.5898 4.66305 8.65177 5.43617 7.47816 6.40346L6.43797 7.26075C6.23851 7.42515 6.15785 7.49135 6.07791 7.55092C5.40104 8.05531 4.5893 8.34671 3.74617 8.38798C3.6466 8.39285 3.54225 8.39306 3.28377 8.39306L3.2422 8.39305C3.01938 8.39299 2.8477 8.39294 2.69421 8.41011C1.41758 8.55296 0.409921 9.56062 0.267071 10.8373C0.249896 10.9907 0.249945 11.1624 0.250007 11.3852V12.6152C0.249945 12.838 0.249896 13.0097 0.267071 13.1631C0.409921 14.4398 1.41758 15.4474 2.69421 15.5903C2.84771 15.6075 3.01939 15.6074 3.24221 15.6074L3.28377 15.6073C3.54225 15.6073 3.6466 15.6075 3.74617 15.6124C4.5893 15.6537 5.40104 15.9451 6.07791 16.4495C6.15785 16.509 6.23851 16.5752 6.43797 16.7396L7.47814 17.5969C8.65176 18.5642 9.5898 19.3373 10.3627 19.8249C11.1322 20.3104 11.9345 20.6436 12.7695 20.4003C13.0467 20.3195 13.3094 20.1956 13.548 20.0331C14.2669 19.5435 14.5199 18.7124 14.6347 17.8098C14.75 16.9033 14.75 15.6877 14.75 14.1669V9.83352C14.75 8.31266 14.75 7.09708 14.6347 6.19058C14.5199 5.28798 14.2669 4.4569 13.548 3.96731C13.3094 3.80483 13.0467 3.68092 12.7695 3.60014Z" fill="#2D264B"/>
<path d="M18.6517 9.59119C18.3588 9.2983 17.8839 9.2983 17.591 9.59119C17.2981 9.88408 17.2981 10.359 17.591 10.6518L19.182 12.2428L17.591 13.8338C17.2981 14.1267 17.2981 14.6016 17.591 14.8945C17.8839 15.1874 18.3588 15.1874 18.6517 14.8945L20.2427 13.3035L21.8337 14.8945C22.1266 15.1874 22.6014 15.1874 22.8943 14.8945C23.1872 14.6016 23.1872 14.1267 22.8943 13.8338L21.3034 12.2428L22.8943 10.6518C23.1872 10.359 23.1872 9.88408 22.8943 9.59119C22.6014 9.2983 22.1266 9.2983 21.8337 9.59119L20.2427 11.1822L18.6517 9.59119Z" fill="#2D264B"/>
</svg>
