<svg width="24" height="24" viewBox="0 0 24 24" fill="none" xmlns="http://www.w3.org/2000/svg">
<path d="M4.75 20L20.7499 4" stroke="#2D264B" stroke-width="1.5" stroke-linecap="round"/>
<path d="M11.138 7.59741C12.3658 6.58542 13.2306 5.87463 13.913 5.44414C14.6084 5.00545 14.9194 4.98763 15.0998 5.04022C15.2258 5.07693 15.3452 5.13326 15.4536 5.20711C15.6089 5.31289 15.793 5.5642 15.8967 6.37985C15.9492 6.79224 15.975 7.28932 15.9877 7.89198C16.0017 8.55521 16.8018 8.8876 17.2709 8.41852C17.413 8.27638 17.4921 8.08272 17.4879 7.88175C17.4743 7.23246 17.4455 6.66856 17.3847 6.19058C17.2699 5.28798 17.0169 4.4569 16.298 3.96731C16.0594 3.80483 15.7967 3.68092 15.5195 3.60014C14.6845 3.35675 13.8822 3.69003 13.1127 4.17549C12.3398 4.66305 11.4018 5.43617 10.2282 6.40346L9.18797 7.26075C8.98851 7.42515 8.90785 7.49135 8.82791 7.55092C8.15104 8.05531 7.3393 8.34671 6.49617 8.38798C6.3966 8.39285 6.29225 8.39306 6.03377 8.39306L5.9922 8.39305C5.76938 8.39299 5.5977 8.39294 5.44421 8.41011C4.16758 8.55296 3.15992 9.56062 3.01707 10.8373C2.9999 10.9907 2.99994 11.1624 3.00001 11.3852V12.6152C2.99994 12.838 2.9999 13.0097 3.01707 13.1631C3.15992 14.4398 4.16758 15.4474 5.44421 15.5903C5.59771 15.6075 5.76939 15.6074 5.99221 15.6074L6.03377 15.6073C6.29225 15.6073 6.3966 15.6075 6.49617 15.6124C7.3393 15.6537 8.15104 15.9451 8.82791 16.4495C8.96136 16.5489 9.14704 16.5424 9.26472 16.4247L9.76151 15.928C9.95528 15.7342 9.94394 15.4104 9.7242 15.2467C8.80843 14.5643 7.71019 14.17 6.56949 14.1142C6.42886 14.1073 6.28609 14.1073 6.05402 14.1073H6.03377C5.74997 14.1073 5.66982 14.1062 5.61101 14.0996C5.03072 14.0347 4.5727 13.5766 4.50777 12.9963C4.50119 12.9375 4.50002 12.8574 4.50002 12.5736V11.4268C4.50002 11.143 4.50119 11.0629 4.50777 11.0041C4.5727 10.4238 5.03072 9.96574 5.61101 9.90081C5.66982 9.89423 5.74997 9.89306 6.03377 9.89306H6.05403C6.28607 9.89306 6.42887 9.89307 6.56949 9.88618C7.71019 9.83036 8.80843 9.43611 9.7242 8.7537C9.83711 8.66956 9.94728 8.57876 10.1264 8.43115L11.138 7.59741Z" fill="#2D264B"/>
<path d="M11.8122 16.9575C11.5133 16.7127 11.0774 16.7333 10.8043 17.0065L10.2275 17.5833C10.2236 17.5871 10.2239 17.5935 10.2281 17.5969C11.4018 18.5642 12.3398 19.3373 13.1127 19.8249C13.8822 20.3104 14.6845 20.6436 15.5195 20.4003C15.7967 20.3195 16.0594 20.1956 16.298 20.0331C17.0169 19.5435 17.2699 18.7124 17.3847 17.8098C17.5 16.9033 17.5 15.6877 17.5 14.1669V12.1214C17.5 11.4532 16.6922 11.1186 16.2197 11.5911C16.079 11.7317 16 11.9225 16 12.1214V14.1096C16 15.7008 15.9985 16.8202 15.8967 17.6206C15.793 18.4362 15.6089 18.6875 15.4536 18.7933C15.3452 18.8671 15.2258 18.9235 15.0998 18.9602C14.9194 19.0128 14.6084 18.995 13.913 18.5563C13.3628 18.2092 12.6941 17.6799 11.8122 16.9575Z" fill="#2D264B"/>
</svg>
