<svg xmlns="http://www.w3.org/2000/svg" width="24" height="24" viewBox="0 0 24 24">
  <defs/>
  <path fill="#2D264B" d="M18.652,9.591 C18.359,9.298 17.884,9.298 17.591,9.591 C17.298,9.884 17.298,10.359 17.591,10.651 L18.652,9.591 Z M21.834,14.894 C22.127,15.187 22.601,15.187 22.894,14.894 C23.187,14.601 23.187,14.126 22.894,13.833 L21.834,14.894 Z M17.591,13.833 C17.298,14.126 17.298,14.601 17.591,14.894 C17.884,15.187 18.359,15.187 18.652,14.894 L17.591,13.833 Z M22.894,10.651 C23.187,10.359 23.187,9.884 22.894,9.591 C22.601,9.298 22.127,9.298 21.834,9.591 L22.894,10.651 Z M13.25,9.89 L13.25,14.109 L14.75,14.109 L14.75,9.89 L13.25,9.89 Z M1.75,12.573 L1.75,11.426 L0.25,11.426 L0.25,12.573 L1.75,12.573 Z M7.392,8.418 L8.388,7.597 L7.434,6.439 L6.438,7.26 L7.392,8.418 Z M8.388,16.403 L7.392,15.582 L6.438,16.739 L7.434,17.56 L8.388,16.403 Z M7.392,15.582 C7.204,15.427 7.09,15.333 6.974,15.246 L6.078,16.449 C6.158,16.509 6.238,16.575 6.438,16.739 L7.392,15.582 Z M3.284,15.607 C3.542,15.607 3.647,15.607 3.746,15.612 L3.819,14.114 C3.675,14.107 3.528,14.107 3.284,14.107 L3.284,15.607 Z M6.974,15.246 C6.058,14.564 4.96,14.17 3.819,14.114 L3.746,15.612 C4.589,15.653 5.401,15.945 6.078,16.449 L6.974,15.246 Z M3.284,9.893 C3.528,9.893 3.675,9.893 3.819,9.886 L3.746,8.388 C3.647,8.392 3.542,8.393 3.284,8.393 L3.284,9.893 Z M6.438,7.26 C6.238,7.425 6.158,7.491 6.078,7.551 L6.974,8.753 C7.09,8.667 7.204,8.573 7.392,8.418 L6.438,7.26 Z M3.819,9.886 C4.96,9.83 6.058,9.436 6.974,8.753 L6.078,7.551 C5.401,8.055 4.589,8.346 3.746,8.388 L3.819,9.886 Z M0.25,12.573 C0.25,12.816 0.249,13 0.267,13.163 L1.758,12.996 C1.751,12.937 1.75,12.857 1.75,12.573 L0.25,12.573 Z M3.284,14.107 C3,14.107 2.92,14.106 2.861,14.099 L2.694,15.59 C2.857,15.608 3.04,15.607 3.284,15.607 L3.284,14.107 Z M0.267,13.163 C0.41,14.439 1.418,15.447 2.694,15.59 L2.861,14.099 C2.281,14.034 1.823,13.576 1.758,12.996 L0.267,13.163 Z M13.25,14.109 C13.25,15.7 13.248,16.82 13.147,17.62 C13.043,18.436 12.859,18.687 12.704,18.793 L13.548,20.033 C14.267,19.543 14.52,18.712 14.635,17.809 C14.752,16.892 14.75,15.657 14.75,14.109 L13.25,14.109 Z M7.434,17.56 C8.628,18.544 9.58,19.331 10.363,19.825 C11.132,20.31 11.934,20.643 12.77,20.4 L12.35,18.96 C12.169,19.012 11.858,18.994 11.163,18.556 C10.481,18.125 9.616,17.415 8.388,16.403 L7.434,17.56 Z M12.704,18.793 C12.595,18.867 12.476,18.923 12.35,18.96 L12.77,20.4 C13.047,20.319 13.309,20.195 13.548,20.033 L12.704,18.793 Z M14.75,9.89 C14.75,8.343 14.752,7.108 14.635,6.19 C14.52,5.288 14.267,4.457 13.548,3.967 L12.704,5.207 C12.859,5.312 13.043,5.564 13.147,6.379 C13.248,7.18 13.25,8.299 13.25,9.89 L14.75,9.89 Z M8.388,7.597 C9.616,6.585 10.481,5.874 11.163,5.444 C11.858,5.005 12.169,4.987 12.35,5.04 L12.77,3.6 C11.934,3.356 11.132,3.69 10.363,4.175 C9.58,4.669 8.628,5.455 7.434,6.439 L8.388,7.597 Z M13.548,3.967 C13.309,3.804 13.047,3.681 12.77,3.6 L12.35,5.04 C12.476,5.077 12.595,5.133 12.704,5.207 L13.548,3.967 Z M1.75,11.426 C1.75,11.143 1.751,11.062 1.758,11.004 L0.267,10.837 C0.249,11 0.25,11.183 0.25,11.426 L1.75,11.426 Z M3.284,8.393 C3.04,8.393 2.857,8.391 2.694,8.41 L2.861,9.9 C2.92,9.894 3,9.893 3.284,9.893 L3.284,8.393 Z M1.758,11.004 C1.823,10.423 2.281,9.965 2.861,9.9 L2.694,8.41 C1.418,8.553 0.41,9.56 0.267,10.837 L1.758,11.004 Z M18.652,14.894 L22.894,10.651 L21.834,9.591 L17.591,13.833 L18.652,14.894 Z M17.591,10.651 L19.712,12.773 L20.773,11.712 L18.652,9.591 L17.591,10.651 Z M19.712,12.773 L21.834,14.894 L22.894,13.833 L20.773,11.712 L19.712,12.773 Z"/>
</svg>

