<svg xmlns="http://www.w3.org/2000/svg" width="24" height="24" viewBox="0 0 24 24">
  <defs/>
  <path fill="#2D264B" d="M14.77,3.332 C13.934,3.088 13.132,3.421 12.363,3.907 C11.59,4.394 10.652,5.168 9.478,6.135 L8.438,6.992 C8.239,7.157 8.158,7.223 8.078,7.282 C7.401,7.787 6.589,8.078 5.746,8.119 C5.647,8.124 5.542,8.124 5.284,8.124 L5.242,8.124 C5.019,8.124 4.848,8.124 4.694,8.142 C3.418,8.284 2.41,9.292 2.267,10.569 C2.25,10.722 2.25,10.894 2.25,11.117 L2.25,12.347 C2.25,12.569 2.25,12.741 2.267,12.895 C2.41,14.171 3.418,15.179 4.694,15.322 C4.848,15.339 5.019,15.339 5.242,15.339 L5.284,15.339 C5.542,15.339 5.647,15.339 5.746,15.344 C6.589,15.385 7.401,15.677 8.078,16.181 C8.158,16.241 8.239,16.307 8.438,16.471 L9.478,17.328 C10.652,18.296 11.59,19.069 12.363,19.556 C13.132,20.042 13.934,20.375 14.77,20.132 C15.047,20.051 15.309,19.927 15.548,19.765 C16.267,19.275 16.52,18.444 16.635,17.541 C16.75,16.635 16.75,15.419 16.75,13.898 L16.75,9.565 C16.75,8.044 16.75,6.829 16.635,5.922 C16.52,5.019 16.267,4.188 15.548,3.699 C15.309,3.536 15.047,3.412 14.77,3.332 Z"/>
  <path fill="#2D264B" d="M20.53,7.201 C20.238,6.908 19.763,6.908 19.47,7.201 C19.177,7.494 19.177,7.969 19.47,8.262 L19.87,8.662 C19.931,8.724 19.957,8.749 19.977,8.77 C21.58,10.419 21.58,13.044 19.977,14.694 C19.957,14.714 19.931,14.74 19.87,14.801 L19.47,15.201 C19.177,15.494 19.177,15.969 19.47,16.262 C19.763,16.555 20.238,16.555 20.53,16.262 L20.936,15.857 C20.99,15.802 21.024,15.768 21.053,15.739 C23.221,13.507 23.221,9.956 21.053,7.724 C21.024,7.695 20.991,7.661 20.936,7.607 L20.53,7.201 Z"/>
</svg>

