<svg xmlns="http://www.w3.org/2000/svg" width="24" height="24" viewBox="0 0 24 24">
  <defs/>
  <path fill="#2D264B" d="M12.77,3.6 C11.934,3.357 11.132,3.69 10.363,4.175 C9.59,4.663 8.652,5.436 7.478,6.403 L6.438,7.261 C6.239,7.425 6.158,7.491 6.078,7.551 C5.401,8.055 4.589,8.347 3.746,8.388 C3.647,8.393 3.542,8.393 3.284,8.393 L3.242,8.393 C3.019,8.393 2.848,8.393 2.694,8.41 C1.418,8.553 0.41,9.561 0.267,10.837 C0.25,10.991 0.25,11.162 0.25,11.385 L0.25,12.615 C0.25,12.838 0.25,13.01 0.267,13.163 C0.41,14.44 1.418,15.447 2.694,15.59 C2.848,15.607 3.019,15.607 3.242,15.607 L3.284,15.607 C3.542,15.607 3.647,15.607 3.746,15.612 C4.589,15.654 5.401,15.945 6.078,16.45 C6.158,16.509 6.239,16.575 6.438,16.74 L7.478,17.597 C8.652,18.564 9.59,19.337 10.363,19.825 C11.132,20.31 11.934,20.644 12.77,20.4 C13.047,20.32 13.309,20.196 13.548,20.033 C14.267,19.544 14.52,18.712 14.635,17.81 C14.75,16.903 14.75,15.688 14.75,14.167 L14.75,9.834 C14.75,8.313 14.75,7.097 14.635,6.191 C14.52,5.288 14.267,4.457 13.548,3.967 C13.309,3.805 13.047,3.681 12.77,3.6 Z"/>
  <path fill="#2D264B" d="M20.75,9 C20.75,8.586 20.414,8.25 20,8.25 C19.586,8.25 19.25,8.586 19.25,9 L19.25,11.25 L17,11.25 C16.586,11.25 16.25,11.586 16.25,12 C16.25,12.414 16.586,12.75 17,12.75 L19.25,12.75 L19.25,15 C19.25,15.414 19.586,15.75 20,15.75 C20.414,15.75 20.75,15.414 20.75,15 L20.75,12.75 L23,12.75 C23.414,12.75 23.75,12.414 23.75,12 C23.75,11.586 23.414,11.25 23,11.25 L20.75,11.25 L20.75,9 Z"/>
</svg>

