<svg xmlns="http://www.w3.org/2000/svg" width="24" height="24" viewBox="0 0 24 24">
  <defs/>
  <path fill="#2D264B" d="M10.363,3.907 C11.132,3.421 11.934,3.088 12.77,3.332 C13.047,3.412 13.309,3.536 13.548,3.699 C14.267,4.188 14.52,5.019 14.635,5.922 C14.7,6.436 14.728,7.049 14.741,7.76 L19.031,3.47 C19.323,3.177 19.798,3.177 20.091,3.47 C20.384,3.763 20.384,4.238 20.091,4.531 L4.091,20.531 C3.798,20.824 3.324,20.824 3.031,20.531 C2.738,20.238 2.738,19.763 3.031,19.47 L6.214,16.287 C6.158,16.242 6.118,16.211 6.078,16.181 C5.401,15.677 4.589,15.385 3.746,15.344 C3.647,15.339 3.542,15.339 3.284,15.339 L3.242,15.339 C3.019,15.339 2.848,15.339 2.694,15.322 C1.418,15.179 0.41,14.171 0.267,12.895 C0.25,12.741 0.25,12.569 0.25,12.347 L0.25,11.117 C0.25,10.894 0.25,10.722 0.267,10.569 C0.41,9.292 1.418,8.284 2.694,8.142 C2.848,8.124 3.019,8.124 3.242,8.124 L3.284,8.124 C3.542,8.124 3.647,8.124 3.746,8.119 C4.589,8.078 5.401,7.787 6.078,7.282 C6.158,7.223 6.239,7.157 6.438,6.992 L7.478,6.135 C8.652,5.168 9.59,4.394 10.363,3.907 Z"/>
  <path fill="#2D264B" d="M13.317,13.305 C13.846,12.776 14.75,13.151 14.75,13.898 C14.75,15.419 14.75,16.635 14.635,17.541 C14.52,18.444 14.267,19.275 13.548,19.765 C13.309,19.927 13.047,20.051 12.77,20.132 C11.934,20.375 11.132,20.042 10.363,19.556 C10.325,19.532 10.286,19.508 10.247,19.482 C9.416,18.939 9,18.668 8.951,18.194 C8.902,17.72 9.283,17.339 10.045,16.577 L13.317,13.305 Z"/>
  <path fill="#2D264B" d="M17.838,8.784 C17.572,9.05 17.546,9.467 17.717,9.802 C18.522,11.381 18.275,13.357 16.977,14.694 C16.957,14.714 16.931,14.74 16.87,14.801 L16.47,15.201 C16.177,15.494 16.177,15.969 16.47,16.262 C16.763,16.555 17.238,16.555 17.53,16.262 L17.937,15.855 C17.991,15.801 18.024,15.768 18.053,15.739 C19.873,13.865 20.165,11.061 18.928,8.889 C18.702,8.49 18.162,8.46 17.838,8.784 Z"/>
  <path fill="#2D264B" d="M20.25,7.083 C20.07,6.868 20.069,6.553 20.267,6.355 L20.522,6.1 C20.769,5.853 21.176,5.852 21.401,6.121 C24.115,9.369 24.115,14.094 21.401,17.342 C21.15,17.643 20.829,17.963 20.266,18.526 L19.53,19.262 C19.238,19.555 18.763,19.555 18.47,19.262 C18.177,18.969 18.177,18.494 18.47,18.201 L19.17,17.501 C19.778,16.893 20.047,16.623 20.25,16.381 C22.499,13.689 22.499,9.774 20.25,7.083 Z"/>
</svg>

