<svg xmlns="http://www.w3.org/2000/svg" width="24" height="24" viewBox="0 0 24 24">
  <defs/>
  <path fill="#2D264B" d="M17.77,3.332 C16.934,3.088 16.132,3.421 15.363,3.907 C14.59,4.394 13.652,5.168 12.478,6.135 L11.438,6.992 C11.239,7.157 11.158,7.223 11.078,7.282 C10.401,7.787 9.589,8.078 8.746,8.119 C8.647,8.124 8.542,8.124 8.284,8.124 L8.242,8.124 C8.019,8.124 7.848,8.124 7.694,8.142 C6.418,8.284 5.41,9.292 5.267,10.569 C5.25,10.722 5.25,10.894 5.25,11.117 L5.25,12.347 C5.25,12.569 5.25,12.741 5.267,12.895 C5.41,14.171 6.418,15.179 7.694,15.322 C7.848,15.339 8.019,15.339 8.242,15.339 L8.284,15.339 C8.542,15.339 8.647,15.339 8.746,15.344 C9.589,15.385 10.401,15.677 11.078,16.181 C11.158,16.241 11.239,16.307 11.438,16.471 L12.478,17.328 C13.652,18.296 14.59,19.069 15.363,19.556 C16.132,20.042 16.934,20.375 17.77,20.132 C18.047,20.051 18.309,19.927 18.548,19.765 C19.267,19.275 19.52,18.444 19.635,17.541 C19.75,16.635 19.75,15.419 19.75,13.898 L19.75,9.565 C19.75,8.044 19.75,6.829 19.635,5.922 C19.52,5.019 19.267,4.188 18.548,3.699 C18.309,3.536 18.047,3.412 17.77,3.332 Z"/>
</svg>

