<svg xmlns="http://www.w3.org/2000/svg" width="24" height="24" viewBox="0 0 24 24">
  <defs/>
  <path fill="#2D264B" d="M12.77,3.6 C11.934,3.357 11.132,3.69 10.363,4.175 C9.59,4.663 8.652,5.436 7.478,6.403 L6.438,7.261 C6.239,7.425 6.158,7.491 6.078,7.551 C5.401,8.055 4.589,8.347 3.746,8.388 C3.647,8.393 3.542,8.393 3.284,8.393 L3.242,8.393 C3.019,8.393 2.848,8.393 2.694,8.41 C1.418,8.553 0.41,9.561 0.267,10.837 C0.25,10.991 0.25,11.162 0.25,11.385 L0.25,12.615 C0.25,12.838 0.25,13.01 0.267,13.163 C0.41,14.44 1.418,15.447 2.694,15.59 C2.848,15.607 3.019,15.607 3.242,15.607 L3.284,15.607 C3.542,15.607 3.647,15.607 3.746,15.612 C4.589,15.654 5.401,15.945 6.078,16.45 C6.158,16.509 6.239,16.575 6.438,16.74 L7.478,17.597 C8.652,18.564 9.59,19.337 10.363,19.825 C11.132,20.31 11.934,20.644 12.77,20.4 C13.047,20.32 13.309,20.196 13.548,20.033 C14.267,19.544 14.52,18.712 14.635,17.81 C14.75,16.903 14.75,15.688 14.75,14.167 L14.75,9.834 C14.75,8.313 14.75,7.097 14.635,6.191 C14.52,5.288 14.267,4.457 13.548,3.967 C13.309,3.805 13.047,3.681 12.77,3.6 Z"/>
  <path fill="#2D264B" d="M18.652,9.591 C18.359,9.298 17.884,9.298 17.591,9.591 C17.298,9.884 17.298,10.359 17.591,10.652 L19.182,12.243 L17.591,13.834 C17.298,14.127 17.298,14.602 17.591,14.895 C17.884,15.187 18.359,15.187 18.652,14.895 L20.243,13.303 L21.834,14.895 C22.127,15.187 22.601,15.187 22.894,14.895 C23.187,14.602 23.187,14.127 22.894,13.834 L21.303,12.243 L22.894,10.652 C23.187,10.359 23.187,9.884 22.894,9.591 C22.601,9.298 22.127,9.298 21.834,9.591 L20.243,11.182 L18.652,9.591 Z"/>
</svg>

