<svg width="24" height="24" viewBox="0 0 24 24" fill="none" xmlns="http://www.w3.org/2000/svg">
<path d="M10.3627 3.90693C11.1322 3.42147 11.9345 3.0882 12.7695 3.33159C13.0467 3.41236 13.3094 3.53627 13.548 3.69876C14.2669 4.18835 14.5199 5.01942 14.6347 5.92202C14.7001 6.43569 14.7284 7.04861 14.7407 7.76007L19.0306 3.47007C19.3235 3.17717 19.7984 3.17717 20.0913 3.47007C20.3842 3.76296 20.3842 4.23783 20.0913 4.53073L4.09138 20.5307C3.79849 20.8236 3.32362 20.8236 3.03072 20.5307C2.73783 20.2378 2.73783 19.763 3.03072 19.4701L6.21365 16.2871C6.15829 16.2424 6.11801 16.2108 6.07791 16.1809C5.40104 15.6765 4.5893 15.3851 3.74617 15.3439C3.6466 15.339 3.54225 15.3388 3.28377 15.3388L3.24221 15.3388C3.01939 15.3389 2.84771 15.3389 2.69421 15.3217C1.41758 15.1789 0.409921 14.1712 0.267071 12.8946C0.249896 12.7411 0.249945 12.5694 0.250007 12.3466V11.1167C0.249945 10.8939 0.249896 10.7222 0.267071 10.5687C0.409921 9.29206 1.41758 8.28441 2.69421 8.14156C2.8477 8.12438 3.01937 8.12443 3.24217 8.12449L3.28377 8.1245C3.54225 8.1245 3.6466 8.12429 3.74617 8.11942C4.5893 8.07816 5.40104 7.78676 6.07791 7.28237C6.15785 7.2228 6.23851 7.15659 6.43797 6.9922L7.47816 6.1349C8.65177 5.16762 9.5898 4.39449 10.3627 3.90693Z" fill="#2D264B"/>
<path d="M13.3172 13.3048C13.846 12.7761 14.75 13.1506 14.75 13.8983C14.75 15.4192 14.75 16.6348 14.6347 17.5413C14.5199 18.4439 14.2669 19.2749 13.548 19.7645C13.3094 19.927 13.0467 20.0509 12.7695 20.1317C11.9345 20.3751 11.1322 20.0418 10.3627 19.5564C10.3245 19.5323 10.286 19.5075 10.247 19.4821C9.41569 18.9391 9.00001 18.6677 8.95085 18.194C8.90169 17.7204 9.28279 17.3393 10.045 16.5771L13.3172 13.3048Z" fill="#2D264B"/>
<path d="M17.838 8.78401C17.5721 9.04995 17.5459 9.46683 17.7167 9.8019C18.5218 11.3812 18.2752 13.3575 16.9769 14.6935C16.9566 14.7144 16.9314 14.7396 16.8697 14.8013L16.4697 15.2013C16.1768 15.4942 16.1768 15.9691 16.4697 16.262C16.7626 16.5549 17.2375 16.5549 17.5303 16.262L17.937 15.8554C17.9909 15.8014 18.0242 15.7681 18.0526 15.7389C19.8733 13.8652 20.1653 11.0609 18.9285 8.88881C18.7016 8.49027 18.1623 8.45972 17.838 8.78401Z" fill="#2D264B"/>
<path d="M20.2496 7.08271C20.0705 6.86839 20.0693 6.55268 20.2668 6.35518L20.5218 6.10026C20.7691 5.8529 21.1763 5.85243 21.4006 6.12086C24.1149 9.36898 24.1149 14.0943 21.4006 17.3424C21.1497 17.6426 20.8295 17.9628 20.266 18.5263L19.5303 19.262C19.2375 19.5549 18.7626 19.5549 18.4697 19.262C18.1768 18.9691 18.1768 18.4942 18.4697 18.2013L19.1697 17.5013C19.7784 16.8926 20.0473 16.6227 20.2496 16.3806C22.4986 13.6893 22.4986 9.77401 20.2496 7.08271Z" fill="#2D264B"/>
</svg>
