<svg xmlns="http://www.w3.org/2000/svg" width="24" height="24" viewBox="0 0 24 24">
  <defs/>
  <path fill="#2D264B" d="M5.25,11.158 Q5.25,10.721 5.267,10.568 Q5.511,8.385 7.694,8.141 Q7.847,8.124 8.284,8.124 Q8.642,8.124 8.746,8.119 Q10.04,8.056 11.078,7.282 Q11.16,7.221 11.432,6.997 L11.438,6.992 L12.434,6.171 Q16.373,2.924 17.769,3.331 Q18.188,3.453 18.548,3.698 Q19.75,4.517 19.75,9.622 L19.75,13.841 Q19.75,18.946 18.548,19.764 Q18.188,20.009 17.77,20.131 Q16.373,20.538 12.434,17.292 L11.438,16.471 L11.432,16.466 Q11.16,16.242 11.078,16.18 Q10.04,15.407 8.746,15.344 Q8.642,15.338 8.284,15.338 Q7.847,15.338 7.694,15.321 Q5.511,15.077 5.267,12.894 Q5.25,12.742 5.25,12.305 Z M6.75,11.158 L6.75,12.305 Q6.75,12.658 6.758,12.727 Q6.869,13.72 7.861,13.831 Q7.93,13.838 8.284,13.838 Q8.679,13.838 8.819,13.845 Q10.569,13.931 11.974,14.978 Q12.086,15.061 12.386,15.308 L12.392,15.313 L13.388,16.134 Q16.715,18.876 17.35,18.691 Q17.54,18.636 17.704,18.524 Q18.25,18.152 18.25,13.841 L18.25,9.622 Q18.25,5.31 17.704,4.938 Q17.54,4.827 17.35,4.771 Q16.715,4.586 13.388,7.328 L12.392,8.149 L12.386,8.154 Q12.086,8.402 11.974,8.485 Q10.569,9.532 8.819,9.617 Q8.679,9.624 8.284,9.624 Q7.93,9.624 7.861,9.632 Q6.869,9.743 6.758,10.735 Q6.75,10.804 6.75,11.158 Z"/>
</svg>

