<svg xmlns="http://www.w3.org/2000/svg" width="24" height="24" viewBox="0 0 24 24">
  <defs/>
  <path fill="#2D264B" d="M12.113,3.657 C12.882,3.171 13.684,2.838 14.52,3.082 C14.797,3.162 15.059,3.286 15.298,3.449 C16.017,3.938 16.27,4.769 16.385,5.672 C16.45,6.186 16.478,6.799 16.491,7.51 L20.781,3.22 C21.073,2.927 21.548,2.927 21.841,3.22 C22.134,3.513 22.134,3.988 21.841,4.281 L5.841,20.281 C5.548,20.574 5.074,20.574 4.781,20.281 C4.488,19.988 4.488,19.513 4.781,19.22 L7.964,16.037 C7.908,15.992 7.868,15.961 7.828,15.931 C7.151,15.427 6.339,15.135 5.496,15.094 C5.397,15.089 5.292,15.089 5.034,15.089 L4.992,15.089 C4.769,15.089 4.598,15.089 4.444,15.072 C3.168,14.929 2.16,13.921 2.017,12.645 C2,12.491 2,12.319 2,12.097 L2,10.867 C2,10.644 2,10.472 2.017,10.319 C2.16,9.042 3.168,8.034 4.444,7.892 C4.598,7.874 4.769,7.874 4.992,7.874 L5.034,7.875 C5.292,7.875 5.397,7.874 5.496,7.869 C6.339,7.828 7.151,7.537 7.828,7.032 C7.908,6.973 7.989,6.907 8.188,6.742 L9.228,5.885 C10.402,4.918 11.34,4.144 12.113,3.657 Z"/>
  <path fill="#2D264B" d="M15.067,13.055 C15.596,12.526 16.5,12.901 16.5,13.648 C16.5,15.169 16.5,16.385 16.385,17.291 C16.27,18.194 16.017,19.025 15.298,19.515 C15.059,19.677 14.797,19.801 14.52,19.882 C13.684,20.125 12.882,19.792 12.113,19.306 C12.075,19.282 12.036,19.258 11.997,19.232 C11.166,18.689 10.75,18.418 10.701,17.944 C10.652,17.47 11.033,17.089 11.795,16.327 L15.067,13.055 Z"/>
</svg>

