<svg xmlns="http://www.w3.org/2000/svg" width="24" height="24" viewBox="0 0 24 24">
  <defs/>
  <path fill="#2D264B" d="M17.639,9.924 C17.45,9.587 17.467,9.155 17.741,8.881 C18.056,8.566 18.578,8.586 18.814,8.965 C20.181,11.161 19.928,14.078 18.053,16.007 C18.024,16.037 17.991,16.07 17.936,16.125 L17.53,16.53 C17.238,16.823 16.763,16.823 16.47,16.53 C16.177,16.238 16.177,15.763 16.47,15.47 L16.87,15.07 C16.931,15.008 16.957,14.983 16.977,14.962 C18.316,13.585 18.536,11.526 17.639,9.924 Z"/>
  <path fill="#2D264B" d="M14.53,9.97 C14.671,9.829 14.75,9.639 14.75,9.44 C14.749,8.101 14.74,7.017 14.635,6.191 C14.52,5.288 14.267,4.457 13.548,3.967 C13.309,3.805 13.047,3.681 12.77,3.6 C11.934,3.357 11.132,3.69 10.363,4.175 C9.59,4.663 8.652,5.436 7.478,6.403 L6.438,7.261 C6.239,7.425 6.158,7.491 6.078,7.551 C5.401,8.055 4.589,8.347 3.746,8.388 C3.647,8.393 3.542,8.393 3.284,8.393 L3.242,8.393 C3.019,8.393 2.848,8.393 2.694,8.41 C1.418,8.553 0.41,9.561 0.267,10.837 C0.25,10.991 0.25,11.162 0.25,11.385 L0.25,12.615 C0.25,12.838 0.25,13.01 0.267,13.163 C0.41,14.44 1.418,15.447 2.694,15.59 C2.848,15.607 3.019,15.607 3.242,15.607 L3.284,15.607 C3.542,15.607 3.647,15.607 3.746,15.612 C4.589,15.654 5.401,15.945 6.078,16.45 C6.158,16.509 6.239,16.575 6.438,16.74 L6.638,16.904 C6.936,17.15 7.372,17.129 7.645,16.856 C7.958,16.543 7.933,16.028 7.592,15.747 L7.376,15.569 C7.197,15.422 7.087,15.331 6.974,15.247 C6.058,14.564 4.96,14.17 3.819,14.114 C3.679,14.107 3.536,14.107 3.304,14.107 L3.284,14.107 C3,14.107 2.92,14.106 2.861,14.1 C2.281,14.035 1.823,13.577 1.758,12.996 C1.751,12.938 1.75,12.857 1.75,12.574 L1.75,11.427 C1.75,11.143 1.751,11.063 1.758,11.004 C1.823,10.424 2.281,9.966 2.861,9.901 C2.92,9.894 3,9.893 3.284,9.893 L3.304,9.893 C3.536,9.893 3.679,9.893 3.819,9.886 C4.96,9.83 6.058,9.436 6.974,8.754 C7.087,8.67 7.197,8.579 7.376,8.431 L8.388,7.597 C9.616,6.585 10.481,5.875 11.163,5.444 C11.858,5.005 12.169,4.988 12.35,5.04 C12.476,5.077 12.595,5.133 12.704,5.207 C12.859,5.313 13.043,5.564 13.147,6.38 C13.248,7.18 13.25,8.3 13.25,9.891 C13.25,10.393 13.857,10.644 14.211,10.289 L14.53,9.97 Z"/>
  <path fill="#2D264B" d="M13.25,13.682 C13.25,13.483 13.329,13.293 13.47,13.152 C13.942,12.68 14.75,13.014 14.75,13.682 L14.75,14.167 C14.75,15.688 14.75,16.903 14.635,17.81 C14.52,18.712 14.267,19.544 13.548,20.033 C13.309,20.196 13.047,20.32 12.77,20.4 C11.934,20.644 11.132,20.31 10.363,19.825 C9.951,19.565 9.492,19.224 8.975,18.816 C8.626,18.54 8.601,18.021 8.915,17.707 C9.187,17.435 9.62,17.413 9.922,17.652 C10.402,18.031 10.807,18.332 11.163,18.556 C11.858,18.995 12.169,19.013 12.35,18.96 C12.476,18.924 12.595,18.867 12.704,18.793 C12.859,18.688 13.043,18.436 13.147,17.621 C13.248,16.82 13.25,15.701 13.25,14.11 L13.25,13.682 Z"/>
  <path fill="#2D264B" d="M20.25,7.351 C20.003,7.057 19.997,6.624 20.269,6.353 L20.304,6.318 C20.599,6.023 21.085,6.02 21.356,6.336 C21.371,6.354 21.386,6.372 21.401,6.389 C24.115,9.638 24.115,14.363 21.401,17.611 C21.15,17.911 20.829,18.231 20.266,18.795 L19.53,19.53 C19.238,19.823 18.763,19.823 18.47,19.53 C18.177,19.238 18.177,18.763 18.47,18.47 L19.17,17.77 C19.778,17.161 20.047,16.891 20.25,16.649 C22.499,13.958 22.499,10.043 20.25,7.351 Z"/>
  <path fill="#2D264B" d="M3.031,19.47 L19.031,3.47 Q19.25,3.25 19.561,3.25 Q19.872,3.25 20.091,3.47 Q20.311,3.689 20.311,4 Q20.311,4.311 20.091,4.53 L4.091,20.53 Q3.872,20.75 3.561,20.75 Q3.25,20.75 3.031,20.53 Q2.811,20.311 2.811,20 Q2.811,19.689 3.031,19.47 Z"/>
</svg>

