<svg width="24" height="24" viewBox="0 0 24 24" fill="none" xmlns="http://www.w3.org/2000/svg">
<path d="M12.7695 3.33159C11.9345 3.0882 11.1322 3.42147 10.3627 3.90693C9.5898 4.39449 8.65177 5.16762 7.47816 6.1349L6.43797 6.9922C6.23851 7.15659 6.15785 7.2228 6.07791 7.28237C5.40104 7.78676 4.5893 8.07816 3.74617 8.11942C3.6466 8.12429 3.54225 8.1245 3.28377 8.1245L3.2422 8.12449C3.01938 8.12443 2.8477 8.12438 2.69421 8.14156C1.41758 8.28441 0.409921 9.29206 0.267071 10.5687C0.249896 10.7222 0.249945 10.8939 0.250007 11.1167V12.3466C0.249945 12.5694 0.249896 12.7411 0.267071 12.8946C0.409921 14.1712 1.41758 15.1789 2.69421 15.3217C2.84771 15.3389 3.01939 15.3389 3.24221 15.3388L3.28377 15.3388C3.54225 15.3388 3.6466 15.339 3.74617 15.3439C4.5893 15.3851 5.40104 15.6765 6.07791 16.1809C6.15785 16.2405 6.23851 16.3067 6.43797 16.4711L7.47814 17.3284C8.65176 18.2957 9.5898 19.0688 10.3627 19.5564C11.1322 20.0418 11.9345 20.3751 12.7695 20.1317C13.0467 20.0509 13.3094 19.927 13.548 19.7645C14.2669 19.2749 14.5199 18.4439 14.6347 17.5413C14.75 16.6348 14.75 15.4192 14.75 13.8983V9.56497C14.75 8.04411 14.75 6.82853 14.6347 5.92202C14.5199 5.01942 14.2669 4.18835 13.548 3.69876C13.3094 3.53627 13.0467 3.41236 12.7695 3.33159Z" fill="#2D264B"/>
<path d="M19.5303 4.20132C19.2375 3.90842 18.7626 3.90842 18.4697 4.20131C18.1768 4.49421 18.1768 4.96908 18.4697 5.26197L19.1697 5.96197C19.7784 6.57068 20.0473 6.84064 20.2496 7.08271C22.4986 9.77401 22.4986 13.6893 20.2496 16.3806C20.0473 16.6227 19.7784 16.8926 19.1697 17.5013L18.4697 18.2013C18.1768 18.4942 18.1768 18.9691 18.4697 19.262C18.7626 19.5549 19.2375 19.5549 19.5303 19.262L20.266 18.5263C20.8295 17.9628 21.1497 17.6426 21.4006 17.3424C24.1149 14.0943 24.1149 9.36898 21.4006 6.12086C21.1497 5.82067 20.8295 5.50046 20.266 4.93693L19.5303 4.20132Z" fill="#2D264B"/>
<path d="M17.5303 7.20131C17.2375 6.90842 16.7626 6.90842 16.4697 7.20131C16.1768 7.49421 16.1768 7.96908 16.4697 8.26197L16.8697 8.66198C16.9314 8.72367 16.9566 8.74893 16.9769 8.76979C18.5796 10.4191 18.5796 13.0442 16.9769 14.6935C16.9566 14.7144 16.9314 14.7396 16.8697 14.8013L16.4697 15.2013C16.1768 15.4942 16.1768 15.9691 16.4697 16.262C16.7626 16.5549 17.2375 16.5549 17.5303 16.262L17.9357 15.8566C17.9904 15.8019 18.0239 15.7684 18.0526 15.7389C20.2211 13.5074 20.2211 9.95587 18.0526 7.72442C18.0239 7.69487 17.9905 7.66146 17.9357 7.60663L17.5303 7.20131Z" fill="#2D264B"/>
</svg>
