<svg xmlns="http://www.w3.org/2000/svg" width="24" height="24" viewBox="0 0 24 24">
  <defs/>
  <path fill="#2D264B" d="M8.438,16.471 L8.437,16.47 Q8.161,16.243 8.078,16.18 Q7.04,15.407 5.746,15.343 Q5.642,15.338 5.284,15.338 Q4.847,15.338 4.694,15.321 Q2.511,15.077 2.267,12.894 Q2.25,12.742 2.25,12.305 L2.25,11.158 Q2.25,10.721 2.267,10.568 Q2.511,8.385 4.694,8.141 Q4.847,8.124 5.284,8.124 Q5.642,8.124 5.746,8.119 Q7.04,8.056 8.078,7.282 Q8.161,7.22 8.437,6.992 L8.438,6.992 L9.434,6.171 Q13.373,2.924 14.769,3.331 Q15.188,3.453 15.548,3.698 Q16.75,4.517 16.75,9.622 L16.75,13.841 Q16.75,18.946 15.548,19.764 Q15.188,20.009 14.769,20.131 Q13.373,20.538 9.434,17.292 Z M9.392,15.313 L10.388,16.134 Q13.715,18.876 14.35,18.691 Q14.54,18.636 14.704,18.524 Q15.25,18.152 15.25,13.841 L15.25,9.622 Q15.25,5.31 14.704,4.938 Q14.54,4.827 14.35,4.771 Q13.715,4.586 10.388,7.328 L9.392,8.149 L9.391,8.15 Q9.087,8.401 8.974,8.485 Q7.569,9.532 5.819,9.617 Q5.679,9.624 5.284,9.624 Q4.93,9.624 4.861,9.632 Q3.869,9.743 3.758,10.735 Q3.75,10.804 3.75,11.158 L3.75,12.305 Q3.75,12.658 3.758,12.727 Q3.869,13.72 4.861,13.831 Q4.93,13.838 5.284,13.838 Q5.679,13.838 5.82,13.845 Q7.569,13.931 8.974,14.978 Q9.087,15.062 9.391,15.313 L9.392,15.313 Z M19.47,15.201 L19.87,14.801 Q19.954,14.717 19.976,14.694 Q22.855,11.731 19.977,8.769 Q19.954,8.746 19.87,8.662 L19.47,8.262 Q19.25,8.042 19.25,7.731 Q19.25,7.421 19.47,7.201 Q19.689,6.981 20,6.981 Q20.311,6.981 20.53,7.201 L20.93,7.601 Q21.022,7.693 21.053,7.724 Q22.679,9.398 22.679,11.731 Q22.679,14.065 21.053,15.738 Q21.023,15.769 20.93,15.862 L20.53,16.262 Q20.311,16.481 20,16.481 Q19.689,16.481 19.47,16.262 Q19.25,16.042 19.25,15.731 Q19.25,15.421 19.47,15.201 Z"/>
</svg>

