<svg width="24" height="24" viewBox="0 0 24 24" fill="none" xmlns="http://www.w3.org/2000/svg">
<path d="M17.6386 9.92443C17.4495 9.58692 17.4672 9.15461 17.7407 8.88106C18.0559 8.56583 18.578 8.58617 18.8136 8.9646C20.1814 11.1612 19.9277 14.0779 18.0526 16.0074C18.0239 16.0369 17.9906 16.0703 17.9359 16.1249L17.5303 16.5305C17.2375 16.8234 16.7626 16.8234 16.4697 16.5305C16.1768 16.2376 16.1768 15.7628 16.4697 15.4699L16.8697 15.0699C16.9314 15.0082 16.9566 14.9829 16.9769 14.9621C18.3155 13.5845 18.5361 11.5263 17.6386 9.92443Z" fill="#2D264B"/>
<path d="M14.5303 9.97011C14.671 9.82946 14.7501 9.63852 14.7499 9.43961C14.7491 8.10138 14.7399 7.01741 14.6347 6.19058C14.5199 5.28798 14.2669 4.4569 13.548 3.96731C13.3094 3.80483 13.0467 3.68092 12.7695 3.60014C11.9345 3.35675 11.1322 3.69003 10.3627 4.17549C9.5898 4.66305 8.65177 5.43617 7.47816 6.40346L6.43797 7.26075C6.23851 7.42515 6.15785 7.49135 6.07791 7.55092C5.40104 8.05531 4.5893 8.34671 3.74617 8.38798C3.6466 8.39285 3.54225 8.39306 3.28377 8.39306L3.2422 8.39305C3.01938 8.39299 2.8477 8.39294 2.69421 8.41011C1.41758 8.55296 0.409921 9.56062 0.267071 10.8373C0.249896 10.9907 0.249945 11.1624 0.250007 11.3852V12.6152C0.249945 12.838 0.249896 13.0097 0.267071 13.1631C0.409921 14.4398 1.41758 15.4474 2.69421 15.5903C2.84771 15.6075 3.01939 15.6074 3.24221 15.6074L3.28377 15.6073C3.54225 15.6073 3.6466 15.6075 3.74617 15.6124C4.5893 15.6537 5.40104 15.9451 6.07791 16.4495C6.15785 16.509 6.23851 16.5752 6.43797 16.7396L6.6375 16.9041C6.93564 17.1498 7.37165 17.1288 7.64484 16.8557C7.95783 16.5427 7.93309 16.0281 7.59151 15.7466L7.37636 15.5692C7.19728 15.4216 7.0871 15.3308 6.9742 15.2467C6.05843 14.5643 4.96019 14.17 3.81949 14.1142C3.67886 14.1073 3.53609 14.1073 3.30402 14.1073H3.28377C2.99997 14.1073 2.91982 14.1062 2.86101 14.0996C2.28072 14.0347 1.8227 13.5766 1.75777 12.9963C1.75119 12.9375 1.75002 12.8574 1.75002 12.5736V11.4268C1.75002 11.143 1.75119 11.0629 1.75777 11.0041C1.8227 10.4238 2.28072 9.96574 2.86101 9.90081C2.91982 9.89423 2.99997 9.89306 3.28377 9.89306H3.30403C3.53607 9.89306 3.67887 9.89307 3.81949 9.88618C4.96019 9.83036 6.05843 9.43611 6.9742 8.7537C7.08711 8.66956 7.19728 8.57876 7.37636 8.43115L8.38797 7.59741C9.61585 6.58542 10.4806 5.87463 11.163 5.44414C11.8584 5.00545 12.1694 4.98763 12.3498 5.04022C12.4758 5.07693 12.5952 5.13326 12.7036 5.20711C12.8589 5.31289 13.043 5.5642 13.1467 6.37985C13.2485 7.18023 13.25 8.29962 13.25 9.89078C13.25 10.3925 13.8567 10.6438 14.2114 10.289L14.5303 9.97011Z" fill="#2D264B"/>
<path d="M13.25 13.6824C13.25 13.4835 13.329 13.2928 13.4697 13.1521C13.9422 12.6796 14.75 13.0143 14.75 13.6824V14.1669C14.75 15.6877 14.75 16.9033 14.6347 17.8098C14.5199 18.7124 14.2669 19.5435 13.548 20.0331C13.3094 20.1956 13.0467 20.3195 12.7695 20.4003C11.9345 20.6436 11.1322 20.3104 10.3627 19.8249C9.95063 19.565 9.49164 19.2239 8.97504 18.8155C8.62615 18.5396 8.60063 18.0212 8.91511 17.7067C9.1871 17.4347 9.62002 17.4133 9.92181 17.6518C10.4021 18.0314 10.8073 18.3319 11.163 18.5563C11.8584 18.995 12.1694 19.0128 12.3498 18.9602C12.4758 18.9235 12.5952 18.8671 12.7036 18.7933C12.8589 18.6875 13.043 18.4362 13.1467 17.6206C13.2485 16.8202 13.25 15.7008 13.25 14.1096V13.6824Z" fill="#2D264B"/>
<path d="M20.2496 7.35126C20.0034 7.05671 19.9974 6.6244 20.2688 6.35297L20.3038 6.31795C20.5988 6.02295 21.0846 6.01952 21.3558 6.33649C21.371 6.35423 21.3859 6.37185 21.4006 6.38941C24.1149 9.63753 24.1149 14.3629 21.4006 17.611C21.1497 17.9112 20.8295 18.2314 20.266 18.7949L19.5303 19.5305C19.2375 19.8234 18.7626 19.8234 18.4697 19.5305C18.1768 19.2376 18.1768 18.7628 18.4697 18.4699L19.1697 17.7699C19.7784 17.1611 20.0473 16.8912 20.2496 16.6491C22.4986 13.9578 22.4986 10.0426 20.2496 7.35126Z" fill="#2D264B"/>
<path d="M3.56104 20L19.561 4" stroke="#2D264B" stroke-width="1.5" stroke-linecap="round"/>
</svg>
