<svg xmlns="http://www.w3.org/2000/svg" width="24" height="24" viewBox="0 0 24 24">
  <defs/>
  <path fill="#2D264B" d="M18.994,4.642 C18.381,4.449 17.692,4.355 16.896,4.306 C15.986,4.25 14.88,4.25 13.523,4.25 L10.461,4.25 C8.857,4.25 7.6,4.25 6.596,4.345 C5.573,4.443 4.735,4.645 3.996,5.097 C3.222,5.571 2.572,6.222 2.097,6.996 C2.081,7.023 2.064,7.051 2.048,7.078 C2.125,5.635 2.327,4.679 2.855,3.923 C3.13,3.527 3.465,3.178 3.844,2.891 C5.02,2 6.698,2 10.053,2 L15.422,2 C17.109,2 17.953,2 18.477,2.546 C18.879,2.966 18.973,3.582 18.994,4.642 Z"/>
  <path fill="#2D264B" d="M2.737,7.388 C2,8.59 2,10.227 2,13.5 C2,16.773 2,18.41 2.737,19.613 C3.149,20.285 3.715,20.851 4.388,21.263 C5.59,22 7.227,22 10.5,22 L13.5,22 C16.773,22 18.41,22 19.613,21.263 C20.285,20.851 20.851,20.285 21.263,19.613 C21.747,18.823 21.913,17.846 21.97,16.341 L15.636,16.341 C13.716,16.341 12.159,14.784 12.159,12.864 C12.159,10.943 13.716,9.386 15.636,9.386 L21.878,9.386 C21.777,8.559 21.595,7.929 21.263,7.388 C20.851,6.715 20.285,6.149 19.613,5.737 C19.421,5.619 19.218,5.521 19,5.438 C17.847,5 16.252,5 13.5,5 L10.5,5 C7.227,5 5.59,5 4.388,5.737 C3.715,6.149 3.149,6.715 2.737,7.388 Z"/>
  <path fill="#2D264B" d="M21.978,10.886 C22,11.624 22,12.483 22,13.5 C22,13.981 22,14.427 21.998,14.841 L15.637,14.841 C14.544,14.841 13.659,13.956 13.659,12.864 C13.659,11.772 14.544,10.886 15.637,10.886 Z M15.637,12.114 C15.222,12.114 14.887,12.449 14.887,12.864 C14.887,13.278 15.222,13.614 15.637,13.614 L18.364,13.614 C18.778,13.614 19.114,13.278 19.114,12.864 C19.114,12.449 18.778,12.114 18.364,12.114 Z"/>
</svg>

