<svg xmlns="http://www.w3.org/2000/svg" width="24" height="24" viewBox="0 0 24 24">
  <defs/>
  <path fill="#2D264B" d="M19,5.13 L19.75,5.13 L19.75,5.127 L19,5.13 Z M18.364,13.614 C18.778,13.614 19.114,13.278 19.114,12.864 C19.114,12.449 18.778,12.114 18.364,12.114 L18.364,13.614 Z M15.636,12.114 C15.222,12.114 14.886,12.449 14.886,12.864 C14.886,13.278 15.222,13.614 15.636,13.614 L15.636,12.114 Z M10.5,5.75 L13.5,5.75 L13.5,4.25 L10.5,4.25 L10.5,5.75 Z M13.5,21.25 L10.5,21.25 L10.5,22.75 L13.5,22.75 L13.5,21.25 Z M10.5,21.25 C8.849,21.25 7.663,21.249 6.738,21.161 C5.824,21.074 5.243,20.908 4.779,20.624 L3.996,21.903 C4.734,22.355 5.573,22.557 6.596,22.654 C7.609,22.751 8.878,22.75 10.5,22.75 L10.5,21.25 Z M1.25,13.5 C1.25,15.122 1.249,16.392 1.345,17.404 C1.443,18.427 1.645,19.265 2.097,20.004 L3.376,19.221 C3.092,18.757 2.926,18.176 2.839,17.262 C2.751,16.337 2.75,15.151 2.75,13.5 L1.25,13.5 Z M4.779,20.624 C4.208,20.273 3.727,19.793 3.376,19.221 L2.097,20.004 C2.571,20.778 3.222,21.429 3.996,21.903 L4.779,20.624 Z M13.5,22.75 C15.122,22.75 16.392,22.751 17.404,22.654 C18.427,22.557 19.266,22.355 20.004,21.903 L19.221,20.624 C18.757,20.908 18.176,21.074 17.262,21.161 C16.337,21.249 15.151,21.25 13.5,21.25 L13.5,22.75 Z M20.624,19.221 C20.273,19.793 19.793,20.273 19.221,20.624 L20.004,21.903 C20.778,21.429 21.429,20.778 21.903,20.004 L20.624,19.221 Z M19.221,6.376 C19.793,6.727 20.273,7.208 20.624,7.779 L21.903,6.996 C21.429,6.222 20.778,5.571 20.004,5.097 L19.221,6.376 Z M10.5,4.25 C8.878,4.25 7.609,4.249 6.596,4.345 C5.573,4.443 4.734,4.645 3.996,5.097 L4.779,6.376 C5.243,6.092 5.824,5.926 6.738,5.839 C7.663,5.751 8.849,5.75 10.5,5.75 L10.5,4.25 Z M2.75,13.5 C2.75,11.849 2.751,10.663 2.839,9.738 C2.926,8.824 3.092,8.243 3.376,7.779 L2.097,6.996 C1.645,7.734 1.443,8.573 1.345,9.596 C1.249,10.608 1.25,11.878 1.25,13.5 L2.75,13.5 Z M3.996,5.097 C3.222,5.571 2.571,6.222 2.097,6.996 L3.376,7.779 C3.727,7.208 4.208,6.727 4.779,6.376 L3.996,5.097 Z M10.053,2.75 L15.422,2.75 L15.422,1.25 L10.053,1.25 L10.053,2.75 Z M15.422,2.75 C16.288,2.75 16.858,2.752 17.281,2.811 C17.68,2.867 17.835,2.96 17.936,3.066 L19.018,2.027 C18.595,1.586 18.066,1.406 17.49,1.326 C16.938,1.248 16.243,1.25 15.422,1.25 L15.422,2.75 Z M10.053,1.25 C8.393,1.25 7.085,1.249 6.047,1.366 C4.994,1.485 4.13,1.734 3.391,2.293 L4.297,3.489 C4.735,3.157 5.298,2.96 6.216,2.857 C7.15,2.751 8.358,2.75 10.053,2.75 L10.053,1.25 Z M2.75,10.396 C2.75,8.631 2.751,7.365 2.853,6.385 C2.953,5.417 3.146,4.817 3.47,4.351 L2.239,3.494 C1.709,4.255 1.474,5.142 1.361,6.23 C1.249,7.305 1.25,8.663 1.25,10.396 L2.75,10.396 Z M3.391,2.293 C2.948,2.629 2.559,3.034 2.239,3.494 L3.47,4.351 C3.701,4.019 3.981,3.728 4.297,3.489 L3.391,2.293 Z M19.75,5.127 C19.747,4.45 19.732,3.864 19.648,3.377 C19.559,2.872 19.385,2.41 19.018,2.027 L17.936,3.066 C18.029,3.163 18.113,3.31 18.17,3.635 C18.23,3.979 18.247,4.445 18.25,5.134 L19.75,5.127 Z M1.25,10.396 C1.25,11.371 1.23,12.264 1.25,13.02 L2.75,12.98 C2.73,12.248 2.75,11.424 2.75,10.396 L1.25,10.396 Z M21.5,14.841 L15.636,14.841 L15.636,16.341 L21.5,16.341 L21.5,14.841 Z M12.159,12.864 C12.159,14.784 13.716,16.341 15.636,16.341 L15.636,14.841 C14.544,14.841 13.659,13.956 13.659,12.864 L12.159,12.864 Z M13.659,12.864 C13.659,11.772 14.544,10.886 15.636,10.886 L15.636,9.386 C13.716,9.386 12.159,10.943 12.159,12.864 L13.659,12.864 Z M18.364,12.114 L15.636,12.114 L15.636,13.614 L18.364,13.614 L18.364,12.114 Z M13.5,5.75 C14.885,5.75 15.945,5.75 16.803,5.803 C17.661,5.856 18.261,5.959 18.734,6.139 L19.266,4.737 C18.586,4.478 17.812,4.363 16.896,4.306 C15.981,4.25 14.867,4.25 13.5,4.25 L13.5,5.75 Z M18.734,6.139 C18.911,6.206 19.071,6.285 19.221,6.376 L20.004,5.097 C19.771,4.954 19.526,4.835 19.266,4.737 L18.734,6.139 Z M18.25,5.13 L18.25,5.438 L19.75,5.438 L19.75,5.13 L18.25,5.13 Z M15.636,10.886 L21.944,10.886 L21.944,9.386 L15.636,9.386 L15.636,10.886 Z M22.75,13.5 C22.75,12.126 22.75,11.008 22.693,10.09 L21.196,10.183 C21.25,11.044 21.25,12.108 21.25,13.5 L22.75,13.5 Z M22.693,10.09 C22.614,8.835 22.425,7.847 21.903,6.996 L20.624,7.779 C20.953,8.316 21.122,9.007 21.196,10.183 L22.693,10.09 Z M21.25,13.5 C21.25,14.287 21.25,14.972 21.24,15.579 L22.74,15.603 C22.75,14.982 22.75,14.284 22.75,13.5 L21.25,13.5 Z M21.24,15.579 C21.207,17.537 21.064,18.503 20.624,19.221 L21.903,20.004 C22.583,18.894 22.708,17.531 22.74,15.603 L21.24,15.579 Z M21.5,16.341 L21.99,16.341 L21.99,14.841 L21.5,14.841 L21.5,16.341 Z"/>
</svg>

