<svg xmlns="http://www.w3.org/2000/svg" width="24" height="24" viewBox="0 0 24 24">
  <defs/>
  <path fill="#2D264B" d="M15.839,2.796 C15.384,2.68 14.908,2.614 14.406,2.573 C13.511,2.5 12.41,2.5 11.063,2.5 L10.937,2.5 C9.59,2.5 8.489,2.5 7.594,2.573 C7.092,2.614 6.616,2.68 6.162,2.796 C7.079,1.698 8.458,1 10,1 L12,1 C13.542,1 14.921,1.698 15.839,2.796 Z"/>
  <path fill="#2D264B" d="M6.161,21.204 C6.616,21.32 7.092,21.386 7.594,21.427 C8.489,21.5 9.59,21.5 10.937,21.5 L11.063,21.5 C12.41,21.5 13.511,21.5 14.406,21.427 C14.908,21.386 15.384,21.32 15.838,21.204 C14.921,22.302 13.542,23 12,23 L10,23 C8.458,23 7.079,22.302 6.161,21.204 Z"/>
  <path fill="#2D264B" d="M10.966,3.25 L11.034,3.25 C12.406,3.25 13.481,3.25 14.345,3.321 C15.225,3.393 15.952,3.541 16.61,3.877 C16.856,4.002 17.091,4.144 17.314,4.301 C18.075,4.838 18.697,5.553 19.123,6.39 C19.459,7.048 19.608,7.775 19.679,8.655 C19.75,9.519 19.75,10.595 19.75,11.966 L19.75,12.034 C19.75,13.405 19.75,14.481 19.679,15.345 C19.608,16.225 19.459,16.952 19.123,17.61 C18.697,18.447 18.074,19.163 17.314,19.699 C17.091,19.856 16.856,19.998 16.61,20.123 C15.952,20.459 15.225,20.608 14.345,20.679 C13.481,20.75 12.405,20.75 11.034,20.75 L10.966,20.75 C9.595,20.75 8.519,20.75 7.655,20.679 C6.775,20.608 6.048,20.459 5.39,20.123 C5.144,19.998 4.909,19.856 4.686,19.699 C3.925,19.162 3.303,18.447 2.877,17.61 C2.541,16.952 2.393,16.225 2.321,15.345 C2.25,14.481 2.25,13.406 2.25,12.034 L2.25,11.966 C2.25,10.594 2.25,9.519 2.321,8.655 C2.393,7.775 2.541,7.048 2.877,6.39 C3.303,5.553 3.926,4.837 4.686,4.301 C4.909,4.144 5.144,4.002 5.39,3.877 C6.048,3.541 6.775,3.393 7.655,3.321 C8.519,3.25 9.594,3.25 10.966,3.25 L10.966,3.25 Z M11.75,8 C11.75,7.586 11.414,7.25 11,7.25 C10.586,7.25 10.25,7.586 10.25,8 L10.25,11.5 C10.25,12.743 11.257,13.75 12.5,13.75 L14,13.75 C14.414,13.75 14.75,13.414 14.75,13 C14.75,12.586 14.414,12.25 14,12.25 L12.5,12.25 C12.086,12.25 11.75,11.914 11.75,11.5 Z"/>
  <path fill="#2D264B" d="M21.75,10 C21.75,9.586 21.414,9.25 21,9.25 C20.586,9.25 20.25,9.586 20.25,10 L20.25,14 C20.25,14.414 20.586,14.75 21,14.75 C21.414,14.75 21.75,14.414 21.75,14 L21.75,10 Z"/>
</svg>

