<svg xmlns="http://www.w3.org/2000/svg" width="24" height="24" viewBox="0 0 24 24">
  <defs/>
  <path fill="#2D264B" d="M4.452,19.525 Q3.456,18.748 2.877,17.61 Q2.25,16.38 2.25,12 Q2.25,7.62 2.877,6.39 Q3.456,5.252 4.452,4.475 Q5.528,0.25 10,0.25 L12,0.25 Q16.473,0.25 17.548,4.475 Q18.544,5.252 19.123,6.39 Q19.75,7.62 19.75,12 Q19.75,16.38 19.123,17.61 Q18.544,18.748 17.548,19.525 Q16.472,23.75 12,23.75 L10,23.75 Q5.527,23.75 4.452,19.525 Z M16.435,5.517 Q16.193,5.348 15.929,5.213 Q15.02,4.75 11,4.75 Q6.98,4.75 6.071,5.213 Q5.807,5.348 5.565,5.517 Q5.554,5.525 5.543,5.532 Q4.689,6.137 4.213,7.071 Q3.75,7.98 3.75,12 Q3.75,16.02 4.213,16.93 Q4.689,17.863 5.543,18.468 Q5.554,18.475 5.564,18.483 Q5.807,18.653 6.07,18.787 Q6.98,19.25 11,19.25 Q15.02,19.25 15.93,18.787 Q16.194,18.652 16.435,18.483 Q16.446,18.476 16.457,18.468 Q17.311,17.863 17.787,16.93 Q18.25,16.02 18.25,12 Q18.25,7.98 17.787,7.071 Q17.311,6.137 16.457,5.532 Q16.446,5.525 16.435,5.517 Z M11.75,8 L11.75,11.5 Q11.75,12.25 12.5,12.25 L14,12.25 Q14.311,12.25 14.53,12.47 Q14.75,12.689 14.75,13 Q14.75,13.311 14.53,13.53 Q14.311,13.75 14,13.75 L12.5,13.75 Q10.25,13.75 10.25,11.5 L10.25,8 Q10.25,7.689 10.47,7.47 Q10.689,7.25 11,7.25 Q11.311,7.25 11.53,7.47 Q11.75,7.689 11.75,8 Z M6.425,3.554 Q7.947,3.25 11,3.25 Q14.053,3.25 15.576,3.554 Q14.514,1.75 12,1.75 L10,1.75 Q7.486,1.75 6.425,3.554 Z M15.575,20.446 Q14.053,20.75 11,20.75 Q7.947,20.75 6.424,20.446 Q7.486,22.25 10,22.25 L12,22.25 Q14.513,22.25 15.575,20.446 Z M20.25,14 L20.25,10 Q20.25,9.689 20.47,9.47 Q20.689,9.25 21,9.25 Q21.311,9.25 21.53,9.47 Q21.75,9.689 21.75,10 L21.75,14 Q21.75,14.311 21.53,14.53 Q21.311,14.75 21,14.75 Q20.689,14.75 20.47,14.53 Q20.25,14.311 20.25,14 Z"/>
</svg>

