<svg width="24" height="24" viewBox="0 0 24 24" fill="none" xmlns="http://www.w3.org/2000/svg">
<path d="M15.8386 2.7957C15.3838 2.68031 14.9081 2.61412 14.4061 2.5731C13.511 2.49997 12.4096 2.49998 11.0628 2.5H10.9372C9.59041 2.49998 8.48899 2.49997 7.59386 2.5731C7.09201 2.61411 6.61648 2.68027 6.1618 2.79559C7.07899 1.69814 8.45805 1 10.0002 1H12.0002C13.5423 1 14.9214 1.69818 15.8386 2.7957Z" fill="#2D264B"/>
<path d="M6.16149 21.2043C6.61626 21.3197 7.0919 21.3859 7.59386 21.4269C8.48897 21.5 9.59035 21.5 10.9371 21.5H11.0629C12.4096 21.5 13.511 21.5 14.4061 21.4269C14.908 21.3859 15.3836 21.3197 15.8383 21.2044C14.9211 22.3019 13.542 23 11.9999 23H9.99992C8.45776 23 7.07868 22.3018 6.16149 21.2043Z" fill="#2D264B"/>
<path fill-rule="evenodd" clip-rule="evenodd" d="M11.0336 3.25H10.9664C9.59473 3.25 8.51928 3.24999 7.65494 3.32061C6.7748 3.39252 6.04769 3.54138 5.38955 3.87671C5.1442 4.00173 4.90923 4.14364 4.68613 4.30098C3.92553 4.83737 3.30297 5.55298 2.87671 6.38955C2.54138 7.04768 2.39252 7.77479 2.32061 8.65494C2.24999 9.51928 2.25 10.5947 2.25 11.9664V12.0336C2.25 13.4053 2.24999 14.4807 2.32061 15.3451C2.39252 16.2252 2.54138 16.9523 2.87671 17.6104C3.3029 18.4469 3.92535 19.1624 4.68579 19.6988C4.90899 19.8562 5.14408 19.9982 5.38955 20.1233C6.04769 20.4586 6.77479 20.6075 7.65494 20.6794C8.51923 20.75 9.59473 20.75 10.9663 20.75H11.0337C12.4053 20.75 13.4808 20.75 14.3451 20.6794C15.2252 20.6075 15.9523 20.4586 16.6104 20.1233C16.8558 19.9983 17.0907 19.8564 17.3138 19.6991C18.0744 19.1627 18.697 18.4471 19.1233 17.6104C19.4586 16.9523 19.6075 16.2252 19.6794 15.3451C19.75 14.4808 19.75 13.4053 19.75 12.0337V11.9663C19.75 10.5947 19.75 9.51923 19.6794 8.65494C19.6075 7.77479 19.4586 7.04768 19.1233 6.38955C18.6971 5.55306 18.0746 4.83751 17.3141 4.30113C17.0909 4.14373 16.8559 4.00177 16.6104 3.87671C15.9523 3.54138 15.2252 3.39252 14.3451 3.32061C13.4807 3.24999 12.4053 3.25 11.0336 3.25ZM11.75 8C11.75 7.58579 11.4142 7.25 11 7.25C10.5858 7.25 10.25 7.58579 10.25 8V11.5C10.25 12.7426 11.2574 13.75 12.5 13.75H14C14.4142 13.75 14.75 13.4142 14.75 13C14.75 12.5858 14.4142 12.25 14 12.25H12.5C12.0858 12.25 11.75 11.9142 11.75 11.5V8Z" fill="#2D264B"/>
<path d="M21.75 10C21.75 9.58579 21.4142 9.25 21 9.25C20.5858 9.25 20.25 9.58579 20.25 10V14C20.25 14.4142 20.5858 14.75 21 14.75C21.4142 14.75 21.75 14.4142 21.75 14V10Z" fill="#2D264B"/>
</svg>
