<svg xmlns="http://www.w3.org/2000/svg" width="24" height="24" viewBox="0 0 24 24">
  <defs/>
  <path fill="#2D264B" d="M6.25,2 C6.25,1.586 6.586,1.25 7,1.25 L15,1.25 C15.414,1.25 15.75,1.586 15.75,2 C15.75,2.414 15.414,2.75 15,2.75 L7,2.75 C6.586,2.75 6.25,2.414 6.25,2 Z"/>
  <path fill="#2D264B" d="M14.345,3.321 C15.225,3.393 15.952,3.541 16.61,3.877 C17.692,4.428 18.572,5.308 19.123,6.39 C19.459,7.048 19.608,7.775 19.679,8.655 C19.737,9.363 19.748,10.212 19.75,11.25 L21,11.25 C21.414,11.25 21.75,11.586 21.75,12 C21.75,12.414 21.414,12.75 21,12.75 L19.75,12.75 C19.748,13.788 19.737,14.637 19.679,15.345 C19.608,16.225 19.459,16.952 19.123,17.61 C18.572,18.692 17.692,19.572 16.61,20.123 C15.952,20.459 15.225,20.608 14.345,20.679 C13.481,20.75 12.405,20.75 11.034,20.75 L10.966,20.75 C9.595,20.75 8.519,20.75 7.655,20.679 C6.775,20.608 6.048,20.459 5.39,20.123 C4.308,19.572 3.428,18.692 2.877,17.61 C2.541,16.952 2.393,16.225 2.321,15.345 C2.25,14.481 2.25,13.406 2.25,12.034 L2.25,11.966 C2.25,10.594 2.25,9.519 2.321,8.655 C2.393,7.775 2.541,7.048 2.877,6.39 C3.428,5.308 4.308,4.428 5.39,3.877 C6.048,3.541 6.775,3.393 7.655,3.321 C8.519,3.25 9.594,3.25 10.966,3.25 L11.034,3.25 C12.406,3.25 13.481,3.25 14.345,3.321 Z M11.75,8 C11.75,7.586 11.414,7.25 11,7.25 C10.586,7.25 10.25,7.586 10.25,8 L10.25,11.5 C10.25,12.743 11.257,13.75 12.5,13.75 L14,13.75 C14.414,13.75 14.75,13.414 14.75,13 C14.75,12.586 14.414,12.25 14,12.25 L12.5,12.25 C12.086,12.25 11.75,11.914 11.75,11.5 Z"/>
  <path fill="#2D264B" d="M6.25,22 C6.25,21.586 6.586,21.25 7,21.25 L15,21.25 C15.414,21.25 15.75,21.586 15.75,22 C15.75,22.414 15.414,22.75 15,22.75 L7,22.75 C6.586,22.75 6.25,22.414 6.25,22 Z"/>
</svg>

