<svg xmlns="http://www.w3.org/2000/svg" width="24" height="24" viewBox="0 0 24 24">
  <defs/>
  <path fill="#2D264B" d="M19.745,11.25 L21,11.25 Q21.311,11.25 21.53,11.47 Q21.75,11.689 21.75,12 Q21.75,12.311 21.53,12.53 Q21.311,12.75 21,12.75 L19.745,12.75 Q19.695,16.489 19.123,17.61 Q18.275,19.275 16.61,20.123 Q15.38,20.75 11,20.75 Q6.62,20.75 5.39,20.123 Q3.725,19.275 2.877,17.61 Q2.25,16.38 2.25,12 Q2.25,7.62 2.877,6.39 Q3.725,4.725 5.39,3.877 Q6.62,3.25 11,3.25 Q15.38,3.25 16.61,3.877 Q18.275,4.725 19.123,6.39 Q19.695,7.511 19.745,11.25 Z M18.25,12 Q18.25,7.98 17.787,7.071 Q17.16,5.84 15.93,5.213 Q15.02,4.75 11,4.75 Q6.98,4.75 6.071,5.213 Q4.84,5.84 4.213,7.071 Q3.75,7.98 3.75,12 Q3.75,16.02 4.213,16.93 Q4.84,18.16 6.071,18.787 Q6.98,19.25 11,19.25 Q15.02,19.25 15.93,18.787 Q17.16,18.16 17.787,16.93 Q18.25,16.02 18.25,12 Z M7,1.25 L15,1.25 Q15.311,1.25 15.53,1.47 Q15.75,1.689 15.75,2 Q15.75,2.311 15.53,2.53 Q15.311,2.75 15,2.75 L7,2.75 Q6.689,2.75 6.47,2.53 Q6.25,2.311 6.25,2 Q6.25,1.689 6.47,1.47 Q6.689,1.25 7,1.25 Z M7,21.25 L15,21.25 Q15.311,21.25 15.53,21.47 Q15.75,21.689 15.75,22 Q15.75,22.311 15.53,22.53 Q15.311,22.75 15,22.75 L7,22.75 Q6.689,22.75 6.47,22.53 Q6.25,22.311 6.25,22 Q6.25,21.689 6.47,21.47 Q6.689,21.25 7,21.25 Z M11.75,8 L11.75,11.5 Q11.75,12.25 12.5,12.25 L14,12.25 Q14.311,12.25 14.53,12.47 Q14.75,12.689 14.75,13 Q14.75,13.311 14.53,13.53 Q14.311,13.75 14,13.75 L12.5,13.75 Q10.25,13.75 10.25,11.5 L10.25,8 Q10.25,7.689 10.47,7.47 Q10.689,7.25 11,7.25 Q11.311,7.25 11.53,7.47 Q11.75,7.689 11.75,8 Z"/>
</svg>

