<svg width="24" height="24" viewBox="0 0 24 24" fill="none" xmlns="http://www.w3.org/2000/svg">
<path d="M15.164 10.46C15.2187 10.9959 15.25 11.5146 15.25 12C15.25 12.9087 15.1402 13.9348 14.9722 14.9722C13.9348 15.1402 12.9087 15.25 12 15.25C11.0954 15.25 10.0697 15.1405 9.02773 14.9719C8.85982 13.9345 8.75 12.9086 8.75 12C8.75 11.5148 8.78132 10.996 8.83609 10.46C9.9296 10.6351 11.0205 10.75 12 10.75C12.9796 10.75 14.0705 10.6351 15.164 10.46Z" fill="#2D264B"/>
<path d="M16.6431 10.1899C16.7107 10.8171 16.75 11.4277 16.75 12C16.75 12.8352 16.6664 13.7514 16.5333 14.6812C18.4214 14.2872 20.1667 13.7839 21.1016 13.4974C21.4038 13.4047 21.5224 13.3679 21.6817 13.3042C21.7613 13.2724 21.8343 13.24 21.9294 13.1945C21.976 12.8029 22 12.4042 22 12C22 10.9314 21.8324 9.90204 21.5221 8.93663L21.4412 8.96207C20.4637 9.25947 18.6335 9.78524 16.6431 10.1899Z" fill="#2D264B"/>
<path d="M20.954 7.54236C19.9712 7.8402 18.2657 8.32419 16.438 8.70098C16.017 6.14215 15.279 3.59001 14.924 2.43427C17.564 3.24025 19.7403 5.10921 20.954 7.54236Z" fill="#2D264B"/>
<path d="M14.9635 8.97361C13.9289 9.14077 12.906 9.25 12 9.25C11.094 9.25 10.0712 9.14078 9.0366 8.97362C9.43306 6.55243 10.1408 4.0791 10.5026 2.89841C10.5953 2.59625 10.6321 2.47756 10.6958 2.31826C10.7276 2.23869 10.76 2.1657 10.8055 2.07061C11.1971 2.02399 11.5958 2 12 2C12.4223 2 12.8384 2.02617 13.2469 2.07699C13.2556 2.11013 13.2636 2.1398 13.2715 2.16786C13.2949 2.25079 13.3316 2.36734 13.3931 2.56289L13.3996 2.58344C13.7081 3.56403 14.5256 6.29906 14.9635 8.97361Z" fill="#2D264B"/>
<path d="M7.56194 8.70095C7.98105 6.1534 8.71415 3.61501 9.06849 2.45887L9.07603 2.43426C6.43597 3.24024 4.25972 5.10919 3.04604 7.54234C4.02874 7.84018 5.73424 8.32415 7.56194 8.70095Z" fill="#2D264B"/>
<path d="M2.47794 8.93662C2.1676 9.90204 2 10.9314 2 12C2 12.418 2.02565 12.83 2.07546 13.2346L2.23306 13.2871L2.23431 13.2875L2.23586 13.288L2.23694 13.2884C2.28767 13.3052 3.77434 13.7962 5.73217 14.2833C6.28463 14.4207 6.86959 14.5566 7.46672 14.6811C7.33357 13.7513 7.25 12.8351 7.25 12C7.25 11.4275 7.28928 10.8169 7.35688 10.1899C5.36598 9.78511 3.53541 9.25916 2.55806 8.9618L2.55127 8.95973L2.47794 8.93662Z" fill="#2D264B"/>
<path d="M12 16.75C12.8352 16.75 13.7514 16.6664 14.6812 16.5333C14.2872 18.4214 13.7839 20.1667 13.4974 21.1016C13.4048 21.4037 13.3679 21.5224 13.3042 21.6817C13.2724 21.7613 13.24 21.8343 13.1945 21.9294C12.8029 21.976 12.4042 22 12 22C11.5958 22 11.1971 21.976 10.8055 21.9294C10.76 21.8343 10.7276 21.7613 10.6958 21.6817C10.6321 21.5224 10.5953 21.4038 10.5026 21.1016C10.2161 20.1668 9.71282 18.4216 9.31884 16.5336C10.2456 16.6663 11.162 16.75 12 16.75Z" fill="#2D264B"/>
<path d="M5.37 15.7389C4.13193 15.4309 3.07748 15.1215 2.43425 14.924C3.40246 18.0954 5.90459 20.5975 9.07603 21.5657L9.06849 21.5411C8.7591 20.5316 8.16092 18.4683 7.73515 16.2651C6.90715 16.105 6.10212 15.9211 5.37 15.7389Z" fill="#2D264B"/>
<path d="M21.5411 14.9315C20.5316 15.2409 18.4681 15.8391 16.2649 16.2649C15.8391 18.4681 15.2409 20.5316 14.9315 21.5411L14.924 21.5657C18.0954 20.5975 20.5975 18.0954 21.5657 14.924L21.5411 14.9315Z" fill="#2D264B"/>
<path d="M2.10505 13.26C2.13967 13.2645 2.16788 13.2692 2.17724 13.2713C2.18545 13.2734 2.19829 13.2767 2.20296 13.278L2.21325 13.281L2.21879 13.2826L2.22462 13.2844L2.2295 13.286C2.22676 13.2851 2.1712 13.2712 2.10505 13.26Z" fill="#2D264B"/>
</svg>
