<svg xmlns="http://www.w3.org/2000/svg" width="24" height="24" viewBox="0 0 24 24">
  <defs/>
  <path fill="#2D264B" d="M15.164,10.46 C15.219,10.996 15.25,11.515 15.25,12 C15.25,12.909 15.14,13.935 14.972,14.972 C13.935,15.14 12.909,15.25 12,15.25 C11.095,15.25 10.07,15.14 9.028,14.972 C8.86,13.934 8.75,12.909 8.75,12 C8.75,11.515 8.781,10.996 8.836,10.46 C9.93,10.635 11.021,10.75 12,10.75 C12.98,10.75 14.07,10.635 15.164,10.46 Z"/>
  <path fill="#2D264B" d="M16.643,10.19 C16.711,10.817 16.75,11.428 16.75,12 C16.75,12.835 16.666,13.751 16.533,14.681 C18.421,14.287 20.167,13.784 21.102,13.497 C21.404,13.405 21.522,13.368 21.682,13.304 C21.761,13.272 21.834,13.24 21.929,13.194 C21.976,12.803 22,12.404 22,12 C22,10.931 21.832,9.902 21.522,8.937 L21.441,8.962 C20.464,9.259 18.634,9.785 16.643,10.19 Z"/>
  <path fill="#2D264B" d="M20.954,7.542 C19.971,7.84 18.266,8.324 16.438,8.701 C16.017,6.142 15.279,3.59 14.924,2.434 C17.564,3.24 19.74,5.109 20.954,7.542 Z"/>
  <path fill="#2D264B" d="M14.963,8.974 C13.929,9.141 12.906,9.25 12,9.25 C11.094,9.25 10.071,9.141 9.037,8.974 C9.433,6.552 10.141,4.079 10.503,2.898 C10.595,2.596 10.632,2.478 10.696,2.318 C10.728,2.239 10.76,2.166 10.806,2.071 C11.197,2.024 11.596,2 12,2 C12.422,2 12.838,2.026 13.247,2.077 C13.256,2.11 13.264,2.14 13.271,2.168 C13.295,2.251 13.332,2.367 13.393,2.563 L13.4,2.583 C13.708,3.564 14.526,6.299 14.963,8.974 Z"/>
  <path fill="#2D264B" d="M7.562,8.701 C7.981,6.153 8.714,3.615 9.068,2.459 L9.076,2.434 C6.436,3.24 4.26,5.109 3.046,7.542 C4.029,7.84 5.734,8.324 7.562,8.701 Z"/>
  <path fill="#2D264B" d="M2.478,8.937 C2.168,9.902 2,10.931 2,12 C2,12.418 2.026,12.83 2.075,13.235 L2.233,13.287 L2.234,13.287 L2.236,13.288 L2.237,13.288 C2.288,13.305 3.774,13.796 5.732,14.283 C6.285,14.421 6.87,14.557 7.467,14.681 C7.334,13.751 7.25,12.835 7.25,12 C7.25,11.428 7.289,10.817 7.357,10.19 C5.366,9.785 3.535,9.259 2.558,8.962 L2.551,8.96 L2.478,8.937 Z"/>
  <path fill="#2D264B" d="M12,16.75 C12.835,16.75 13.751,16.666 14.681,16.533 C14.287,18.421 13.784,20.167 13.497,21.102 C13.405,21.404 13.368,21.522 13.304,21.682 C13.272,21.761 13.24,21.834 13.194,21.929 C12.803,21.976 12.404,22 12,22 C11.596,22 11.197,21.976 10.806,21.929 C10.76,21.834 10.728,21.761 10.696,21.682 C10.632,21.522 10.595,21.404 10.503,21.102 C10.216,20.167 9.713,18.422 9.319,16.534 C10.246,16.666 11.162,16.75 12,16.75 Z"/>
  <path fill="#2D264B" d="M5.37,15.739 C4.132,15.431 3.077,15.121 2.434,14.924 C3.402,18.095 5.905,20.598 9.076,21.566 L9.068,21.541 C8.759,20.532 8.161,18.468 7.735,16.265 C6.907,16.105 6.102,15.921 5.37,15.739 Z"/>
  <path fill="#2D264B" d="M21.541,14.931 C20.532,15.241 18.468,15.839 16.265,16.265 C15.839,18.468 15.241,20.532 14.931,21.541 L14.924,21.566 C18.095,20.598 20.598,18.095 21.566,14.924 L21.541,14.931 Z"/>
  <path fill="#2D264B" d="M2.105,13.26 C2.14,13.264 2.168,13.269 2.177,13.271 C2.185,13.273 2.198,13.277 2.203,13.278 L2.213,13.281 L2.219,13.283 L2.225,13.284 L2.229,13.286 C2.227,13.285 2.171,13.271 2.105,13.26 Z"/>
</svg>

