<svg xmlns="http://www.w3.org/2000/svg" width="24" height="24" viewBox="0 0 24 24">
  <defs/>
  <path fill="#2D264B" d="M20.568,8.507 C21.008,9.584 21.25,10.763 21.25,12 L22.75,12 C22.75,10.565 22.468,9.194 21.957,7.941 L20.568,8.507 Z M21.25,12 C21.25,12.657 21.182,13.298 21.052,13.915 L22.52,14.224 C22.671,13.506 22.75,12.762 22.75,12 L21.25,12 Z M21.052,13.915 C20.3,17.486 17.486,20.3 13.915,21.052 L14.224,22.52 C18.377,21.646 21.646,18.377 22.52,14.224 L21.052,13.915 Z M13.915,21.052 C13.298,21.182 12.657,21.25 12,21.25 L12,22.75 C12.762,22.75 13.506,22.671 14.224,22.52 L13.915,21.052 Z M12,21.25 C11.343,21.25 10.702,21.182 10.085,21.052 L9.776,22.52 C10.494,22.671 11.238,22.75 12,22.75 L12,21.25 Z M2.75,12 C2.75,10.762 2.993,9.582 3.433,8.505 L2.044,7.938 C1.532,9.192 1.25,10.564 1.25,12 L2.75,12 Z M10.085,21.052 C6.514,20.3 3.7,17.486 2.948,13.915 L1.48,14.224 C2.354,18.377 5.623,21.646 9.776,22.52 L10.085,21.052 Z M2.948,13.915 C2.818,13.298 2.75,12.657 2.75,12 L1.25,12 C1.25,12.762 1.329,13.506 1.48,14.224 L2.948,13.915 Z M3.433,8.505 C4.578,5.701 7.061,3.585 10.085,2.948 L9.776,1.48 C6.257,2.221 3.375,4.68 2.044,7.938 L3.433,8.505 Z M10.085,2.948 C10.702,2.818 11.343,2.75 12,2.75 L12,1.25 C11.238,1.25 10.494,1.329 9.776,1.48 L10.085,2.948 Z M12,2.75 C12.657,2.75 13.298,2.818 13.915,2.948 L14.224,1.48 C13.506,1.329 12.762,1.25 12,1.25 L12,2.75 Z M13.915,2.948 C16.94,3.585 19.423,5.702 20.568,8.507 L21.957,7.941 C20.627,4.681 17.744,2.221 14.224,1.48 L13.915,2.948 Z M13.355,2.442 C13.631,3.307 14.652,6.633 15.071,9.689 L16.557,9.485 C16.12,6.293 15.064,2.864 14.784,1.986 L13.355,2.442 Z M15.071,9.689 C15.183,10.508 15.25,11.294 15.25,12 L16.75,12 C16.75,11.206 16.675,10.348 16.557,9.485 L15.071,9.689 Z M20.963,7.54 C19.866,7.872 17.804,8.457 15.678,8.85 L15.95,10.325 C18.156,9.918 20.277,9.315 21.398,8.975 L20.963,7.54 Z M15.678,8.85 C14.388,9.088 13.1,9.25 12,9.25 L12,10.75 C13.229,10.75 14.618,10.57 15.95,10.325 L15.678,8.85 Z M15.25,12 C15.25,13.046 15.103,14.262 14.884,15.49 L16.36,15.754 C16.587,14.483 16.75,13.17 16.75,12 L15.25,12 Z M14.884,15.49 C14.402,18.181 13.594,20.808 13.355,21.558 L14.784,22.014 C15.029,21.244 15.861,18.543 16.36,15.754 L14.884,15.49 Z M21.558,13.355 C20.808,13.594 18.181,14.402 15.49,14.884 L15.754,16.36 C18.543,15.861 21.244,15.029 22.014,14.784 L21.558,13.355 Z M15.49,14.884 C14.262,15.103 13.046,15.25 12,15.25 L12,16.75 C13.17,16.75 14.483,16.587 15.754,16.36 L15.49,14.884 Z M12,15.25 C10.954,15.25 9.738,15.103 8.51,14.884 L8.246,16.36 C9.517,16.587 10.83,16.75 12,16.75 L12,15.25 Z M8.51,14.884 C5.819,14.402 3.192,13.594 2.442,13.355 L1.986,14.784 C2.756,15.029 5.457,15.861 8.246,16.36 L8.51,14.884 Z M7.25,12 C7.25,13.17 7.413,14.483 7.64,15.754 L9.116,15.49 C8.897,14.262 8.75,13.046 8.75,12 L7.25,12 Z M7.64,15.754 C8.138,18.543 8.971,21.244 9.216,22.014 L10.645,21.558 C10.406,20.808 9.598,18.181 9.116,15.49 L7.64,15.754 Z M9.216,1.986 C8.936,2.864 7.88,6.293 7.443,9.485 L8.929,9.689 C9.348,6.633 10.369,3.307 10.645,2.442 L9.216,1.986 Z M7.443,9.485 C7.325,10.348 7.25,11.206 7.25,12 L8.75,12 C8.75,11.294 8.817,10.508 8.929,9.689 L7.443,9.485 Z M12,9.25 C10.9,9.25 9.612,9.088 8.322,8.85 L8.05,10.325 C9.382,10.57 10.771,10.75 12,10.75 L12,9.25 Z M8.322,8.85 C6.195,8.457 4.133,7.872 3.036,7.539 L2.6,8.975 C3.721,9.315 5.844,9.917 8.05,10.325 L8.322,8.85 Z M20.917,7.558 C20.93,7.551 20.946,7.545 20.963,7.54 L21.398,8.975 C21.473,8.953 21.542,8.924 21.608,8.89 L20.917,7.558 Z M2.347,8.861 C2.425,8.909 2.509,8.947 2.6,8.975 L3.036,7.539 C3.07,7.55 3.102,7.564 3.13,7.581 L2.347,8.861 Z"/>
</svg>

