<svg xmlns="http://www.w3.org/2000/svg" width="24" height="24" viewBox="0 0 24 24">
  <defs/>
  <path fill="#2D264B" d="M22.43,6.57 C16.67,0.81 7.33,0.81 1.57,6.57 L0.47,7.67 C0.177,7.963 0.177,8.438 0.47,8.731 C0.763,9.024 1.237,9.024 1.53,8.731 L2.63,7.631 C7.805,2.456 16.195,2.456 21.37,7.631 L22.47,8.731 C22.763,9.024 23.237,9.024 23.53,8.731 C23.823,8.438 23.823,7.963 23.53,7.67 L22.43,6.57 Z"/>
  <path fill="#2D264B" d="M18.83,10.97 C15.058,7.198 8.942,7.198 5.17,10.97 L4.47,11.67 C4.177,11.963 4.177,12.438 4.47,12.731 C4.763,13.024 5.237,13.024 5.53,12.731 L6.23,12.031 C9.417,8.845 14.583,8.845 17.77,12.031 L18.47,12.731 C18.763,13.024 19.237,13.024 19.53,12.731 C19.823,12.438 19.823,11.963 19.53,11.67 L18.83,10.97 Z"/>
  <path fill="#2D264B" d="M16.13,15.27 C13.849,12.989 10.151,12.989 7.87,15.27 L7.47,15.67 C7.177,15.963 7.177,16.438 7.47,16.731 C7.763,17.024 8.237,17.024 8.53,16.731 L8.93,16.331 C10.626,14.636 13.374,14.636 15.07,16.331 L15.47,16.731 C15.763,17.024 16.237,17.024 16.53,16.731 C16.823,16.438 16.823,15.963 16.53,15.67 L16.13,15.27 Z"/>
  <path fill="#2D264B" d="M13,20 C13,20.552 12.552,21 12,21 C11.448,21 11,20.552 11,20 C11,19.448 11.448,19 12,19 C12.552,19 13,19.448 13,20 Z"/>
</svg>

