<svg width="24" height="24" viewBox="0 0 24 24" fill="none" xmlns="http://www.w3.org/2000/svg">
<path d="M22.4303 6.57038C16.6698 0.809873 7.33018 0.809872 1.56967 6.57038L0.46967 7.67038C0.176777 7.96327 0.176777 8.43815 0.46967 8.73104C0.762563 9.02393 1.23744 9.02394 1.53033 8.73104L2.63033 7.63104C7.80506 2.45632 16.1949 2.45632 21.3697 7.63104L22.4697 8.73104C22.7626 9.02394 23.2374 9.02394 23.5303 8.73104C23.8232 8.43815 23.8232 7.96328 23.5303 7.67038L22.4303 6.57038Z" fill="#2D264B"/>
<path d="M18.8303 10.9704C15.058 7.1981 8.94196 7.1981 5.16967 10.9704L4.46967 11.6704C4.17678 11.9633 4.17678 12.4382 4.46967 12.731C4.76256 13.0239 5.23744 13.0239 5.53033 12.731L6.23033 12.031C9.41683 8.84454 14.5832 8.84454 17.7697 12.031L18.4697 12.731C18.7626 13.0239 19.2374 13.0239 19.5303 12.731C19.8232 12.4382 19.8232 11.9633 19.5303 11.6704L18.8303 10.9704Z" fill="#2D264B"/>
<path d="M16.1303 15.2704C13.8492 12.9893 10.1508 12.9893 7.86967 15.2704L7.46967 15.6704C7.17678 15.9633 7.17678 16.4382 7.46967 16.731C7.76256 17.0239 8.23744 17.0239 8.53033 16.731L8.93033 16.331C10.6257 14.6357 13.3743 14.6357 15.0697 16.331L15.4697 16.731C15.7626 17.0239 16.2374 17.0239 16.5303 16.731C16.8232 16.4382 16.8232 15.9633 16.5303 15.6704L16.1303 15.2704Z" fill="#2D264B"/>
<path d="M13 20C13 20.5523 12.5523 21 12 21C11.4477 21 11 20.5523 11 20C11 19.4477 11.4477 19 12 19C12.5523 19 13 19.4477 13 20Z" fill="#2D264B"/>
</svg>
