<svg xmlns="http://www.w3.org/2000/svg" width="24" height="24" viewBox="0 0 24 24">
  <defs/>
  <path fill="#2D264B" d="M6.296,5.27 C6.654,2.439 9.072,0.25 12,0.25 C14.932,0.25 17.352,2.445 17.705,5.281 C19.07,5.335 20.102,5.487 20.971,5.966 C21.714,6.377 22.352,6.944 22.845,7.622 C22.48,7.979 22.091,8.363 22.052,8.402 L18.419,12.035 C16.738,13.716 15.529,14.923 14.486,15.719 C13.46,16.501 12.684,16.815 11.879,16.815 C11.073,16.815 10.297,16.501 9.271,15.719 C8.229,14.923 7.02,13.716 5.338,12.035 L1.06,7.757 C1.565,7.019 2.237,6.404 3.03,5.966 C3.895,5.488 4.93,5.327 6.296,5.27 Z M7.817,5.245 C7.991,5.245 8.17,5.246 8.353,5.247 C8.613,5.249 8.882,5.25 9.16,5.25 L14.845,5.25 C15.325,5.25 15.771,5.25 16.184,5.252 C15.831,3.262 14.092,1.75 12,1.75 C9.91,1.75 8.173,3.258 7.817,5.245 Z"/>
  <path fill="#2D264B" d="M23.579,8.996 L19.439,13.136 C17.807,14.768 16.528,16.047 15.396,16.911 C14.237,17.796 13.144,18.315 11.879,18.315 C10.613,18.315 9.521,17.796 8.362,16.911 C7.229,16.047 5.95,14.768 4.318,13.136 L0.361,9.179 C0.169,9.809 0.116,10.496 0.137,11.295 C0.161,12.244 0.292,13.424 0.46,14.931 L0.467,14.998 C0.604,16.229 0.712,17.197 0.86,17.974 C1.011,18.766 1.213,19.416 1.569,19.999 C2.157,20.961 3.015,21.729 4.036,22.207 C4.655,22.497 5.324,22.626 6.128,22.689 C6.916,22.75 7.889,22.75 9.129,22.75 L14.871,22.75 C16.11,22.75 17.084,22.75 17.872,22.689 C18.676,22.626 19.345,22.497 19.964,22.207 C20.985,21.729 21.843,20.961 22.431,19.999 C22.787,19.416 22.989,18.766 23.14,17.974 C23.288,17.197 23.396,16.23 23.533,14.998 L23.54,14.931 C23.707,13.424 23.839,12.244 23.863,11.295 C23.886,10.418 23.82,9.676 23.579,8.996 Z"/>
</svg>

