<svg width="24" height="24" viewBox="0 0 24 24" fill="none" xmlns="http://www.w3.org/2000/svg">
<path fill-rule="evenodd" clip-rule="evenodd" d="M6.29587 5.27023C6.65445 2.43916 9.07157 0.25 12 0.25C14.9322 0.25 17.3517 2.44477 17.7055 5.28111C19.0696 5.33464 20.1017 5.48655 20.9705 5.96618C21.7141 6.37668 22.3524 6.94388 22.8449 7.62249C22.4797 7.97882 22.0914 8.36268 22.0521 8.40193L18.4194 12.0346C16.7378 13.7163 15.5288 14.923 14.4859 15.7187C13.4604 16.5011 12.6843 16.815 11.8787 16.815C11.0731 16.815 10.2969 16.5011 9.27144 15.7187C8.22863 14.9231 7.01961 13.7163 5.33795 12.0346L1.06033 7.757C1.56459 7.01872 2.23732 6.40352 3.0295 5.96618C3.89484 5.48844 4.93038 5.32678 6.29587 5.27023ZM7.81688 5.24492C7.99058 5.24531 8.16951 5.24625 8.35347 5.24722C8.61262 5.24858 8.88176 5.25 9.16034 5.25H14.8453C15.3249 5.25 15.7705 5.25 16.1845 5.25239C15.8312 3.2617 14.0921 1.75 12 1.75C9.91049 1.75 8.17317 3.25792 7.81688 5.24492Z" fill="#2D264B"/>
<path d="M23.5792 8.99614L19.4395 13.1359C17.8072 14.7681 16.5281 16.0473 15.3958 16.9112C14.2369 17.7955 13.1441 18.315 11.8787 18.315C10.6132 18.315 9.5205 17.7955 8.36157 16.9112C7.22933 16.0474 5.95016 14.7682 4.31793 13.1359L0.360642 9.17863C0.168697 9.80855 0.116435 10.4962 0.136994 11.2951C0.161425 12.2444 0.292444 13.4235 0.459944 14.931L0.467342 14.9976C0.604202 16.2294 0.711726 17.1971 0.859659 17.9736C1.01059 18.7659 1.21303 19.4163 1.56929 19.9991C2.15736 20.961 3.01525 21.7289 4.03626 22.2071C4.65481 22.4968 5.32359 22.6262 6.12766 22.6887C6.91572 22.75 7.88932 22.75 9.12853 22.75H14.8712C16.1104 22.75 17.0843 22.75 17.8723 22.6887C18.6764 22.6262 19.3452 22.4968 19.9637 22.2071C20.9848 21.7289 21.8427 20.961 22.4307 19.9991C22.787 19.4163 22.9894 18.7659 23.1404 17.9736C23.2883 17.1972 23.3958 16.2296 23.5326 14.998L23.5401 14.9311C23.7075 13.424 23.8386 12.2443 23.863 11.2951C23.8856 10.4183 23.8204 9.67564 23.5792 8.99614Z" fill="#2D264B"/>
</svg>
