<svg xmlns="http://www.w3.org/2000/svg" width="24" height="24" viewBox="0 0 24 24">
  <defs/>
  <path fill="#2D264B" d="M6.291,5.274 Q6.513,3.356 7.934,1.934 Q9.618,0.25 12,0.25 Q14.382,0.25 16.066,1.934 Q17.492,3.36 17.71,5.286 Q19.943,5.399 20.97,5.966 Q22.581,6.855 23.376,8.513 L22.7,8.838 L23.376,8.514 Q23.443,8.652 23.501,8.794 Q24.07,10.162 23.536,14.965 L23.536,14.966 L23.536,14.966 Q23.098,18.907 22.431,19.999 Q21.529,21.474 19.964,22.207 Q18.805,22.75 14.84,22.75 L9.16,22.75 Q5.195,22.75 4.036,22.207 Q2.471,21.474 1.569,19.999 Q0.902,18.907 0.464,14.966 L0.464,14.966 L0.464,14.966 Q-0.07,10.162 0.499,8.794 Q0.521,8.74 0.544,8.687 L0.544,8.687 Q1.327,6.906 3.029,5.966 Q4.074,5.389 6.291,5.274 Z M2.145,8.842 L5.338,12.035 L5.338,12.035 Q10.118,16.815 11.879,16.815 Q13.639,16.815 18.419,12.035 L21.762,8.692 Q21.196,7.804 20.246,7.279 Q19.389,6.807 16.986,6.762 Q16.368,6.75 14.84,6.75 L9.16,6.75 Q8.869,6.75 8.332,6.747 Q7.414,6.742 7.014,6.75 Q4.632,6.795 3.754,7.279 Q2.72,7.851 2.145,8.842 Z M22.287,10.289 L19.48,13.095 Q14.26,18.315 11.879,18.315 Q9.497,18.315 4.277,13.096 L4.277,13.095 L1.7,10.518 Q1.638,11.951 1.955,14.801 L1.955,14.801 L1.955,14.801 Q2.356,18.41 2.849,19.217 Q3.515,20.307 4.672,20.849 Q5.529,21.25 9.16,21.25 L14.84,21.25 Q18.471,21.25 19.327,20.849 Q20.484,20.307 21.151,19.217 Q21.644,18.41 22.045,14.801 L22.045,14.801 L22.045,14.799 Q22.388,11.712 22.287,10.289 Z M16.19,5.253 Q15.977,3.967 15.005,2.995 Q13.76,1.75 12,1.75 Q10.24,1.75 8.995,2.995 Q8.026,3.964 7.811,5.245 Q8.051,5.246 8.34,5.247 Q8.873,5.25 9.16,5.25 L14.84,5.25 Q15.636,5.25 16.19,5.253 Z"/>
</svg>

