<svg xmlns="http://www.w3.org/2000/svg" width="24" height="24" viewBox="0 0 24 24">
  <defs/>
  <path fill="#2D264B" d="M19.359,18.298 C19.066,18.005 18.591,18.005 18.298,18.298 C18.005,18.591 18.005,19.066 18.298,19.359 L19.359,18.298 Z M22.298,23.359 C22.591,23.652 23.066,23.652 23.359,23.359 C23.652,23.066 23.652,22.591 23.359,22.298 L22.298,23.359 Z M8,10.25 C7.586,10.25 7.25,10.586 7.25,11 C7.25,11.414 7.586,11.75 8,11.75 L8,10.25 Z M14,11.75 C14.414,11.75 14.75,11.414 14.75,11 C14.75,10.586 14.414,10.25 14,10.25 L14,11.75 Z M10.25,14 C10.25,14.414 10.586,14.75 11,14.75 C11.414,14.75 11.75,14.414 11.75,14 L10.25,14 Z M11.75,8 C11.75,7.586 11.414,7.25 11,7.25 C10.586,7.25 10.25,7.586 10.25,8 L11.75,8 Z M18.298,19.359 L22.298,23.359 L23.359,22.298 L19.359,18.298 L18.298,19.359 Z M8,11.75 L14,11.75 L14,10.25 L8,10.25 L8,11.75 Z M11.75,14 L11.75,8 L10.25,8 L10.25,14 L11.75,14 Z M11,19.25 C6.444,19.25 2.75,15.556 2.75,11 L1.25,11 C1.25,16.385 5.615,20.75 11,20.75 L11,19.25 Z M19.25,11 C19.25,15.556 15.556,19.25 11,19.25 L11,20.75 C16.385,20.75 20.75,16.385 20.75,11 L19.25,11 Z M11,2.75 C15.556,2.75 19.25,6.444 19.25,11 L20.75,11 C20.75,5.615 16.385,1.25 11,1.25 L11,2.75 Z M11,1.25 C5.615,1.25 1.25,5.615 1.25,11 L2.75,11 C2.75,6.444 6.444,2.75 11,2.75 L11,1.25 Z"/>
</svg>

