<svg xmlns="http://www.w3.org/2000/svg" width="24" height="24" viewBox="0 0 24 24">
  <defs/>
  <path fill="#2D264B" d="M19.53,17.47 C19.237,17.177 18.763,17.177 18.47,17.47 C18.177,17.763 18.177,18.238 18.47,18.53 L22.47,22.53 C22.762,22.823 23.237,22.823 23.53,22.53 C23.823,22.238 23.823,21.763 23.53,21.47 L19.53,17.47 Z"/>
  <path fill="#2D264B" d="M11,1 C15.971,1 20,5.029 20,10 C20,14.971 15.971,19 11,19 C6.029,19 2,14.971 2,10 C2,5.029 6.029,1 11,1 Z M8,9.25 C7.586,9.25 7.25,9.586 7.25,10 C7.25,10.414 7.586,10.75 8,10.75 L14,10.75 C14.414,10.75 14.75,10.414 14.75,10 C14.75,9.586 14.414,9.25 14,9.25 Z"/>
</svg>

