<svg xmlns="http://www.w3.org/2000/svg" width="24" height="24" viewBox="0 0 24 24">
  <defs/>
  <path fill="#2D264B" d="M11,2 C15.971,2 20,6.029 20,11 C20,15.971 15.971,20 11,20 C6.029,20 2,15.971 2,11 C2,6.029 6.029,2 11,2 Z M11.75,8 C11.75,7.586 11.414,7.25 11,7.25 C10.586,7.25 10.25,7.586 10.25,8 L10.25,10.25 L8,10.25 C7.586,10.25 7.25,10.586 7.25,11 C7.25,11.414 7.586,11.75 8,11.75 L10.25,11.75 L10.25,14 C10.25,14.414 10.586,14.75 11,14.75 C11.414,14.75 11.75,14.414 11.75,14 L11.75,11.75 L14,11.75 C14.414,11.75 14.75,11.414 14.75,11 C14.75,10.586 14.414,10.25 14,10.25 L11.75,10.25 Z"/>
  <path fill="#2D264B" d="M19.359,18.298 C19.066,18.005 18.591,18.005 18.298,18.298 C18.005,18.591 18.005,19.066 18.298,19.359 L22.298,23.359 C22.591,23.652 23.066,23.652 23.359,23.359 C23.651,23.066 23.651,22.591 23.359,22.298 L19.359,18.298 Z"/>
</svg>

