<svg width="24" height="24" viewBox="0 0 24 24" fill="none" xmlns="http://www.w3.org/2000/svg">
<path fill-rule="evenodd" clip-rule="evenodd" d="M11 2C6.02944 2 2 6.02944 2 11C2 15.9706 6.02944 20 11 20C15.9706 20 20 15.9706 20 11C20 6.02944 15.9706 2 11 2ZM11.75 8C11.75 7.58579 11.4142 7.25 11 7.25C10.5858 7.25 10.25 7.58579 10.25 8V10.25H8C7.58579 10.25 7.25 10.5858 7.25 11C7.25 11.4142 7.58579 11.75 8 11.75H10.25V14C10.25 14.4142 10.5858 14.75 11 14.75C11.4142 14.75 11.75 14.4142 11.75 14V11.75H14C14.4142 11.75 14.75 11.4142 14.75 11C14.75 10.5858 14.4142 10.25 14 10.25H11.75V8Z" fill="#2D264B"/>
<path d="M19.3587 18.2982C19.0658 18.0053 18.5909 18.0053 18.298 18.2982C18.0051 18.5911 18.0051 19.066 18.298 19.3589L22.2979 23.3588C22.5908 23.6517 23.0657 23.6517 23.3586 23.3588C23.6515 23.0659 23.6515 22.5911 23.3586 22.2982L19.3587 18.2982Z" fill="#2D264B"/>
</svg>
