<svg width="24" height="24" viewBox="0 0 24 24" fill="none" xmlns="http://www.w3.org/2000/svg">
<path d="M19.5303 17.4698C19.2374 17.1769 18.7626 17.1769 18.4697 17.4698C18.1768 17.7626 18.1768 18.2375 18.4697 18.5304L22.4696 22.5304C22.7625 22.8233 23.2373 22.8233 23.5302 22.5304C23.8231 22.2375 23.8231 21.7626 23.5302 21.4697L19.5303 17.4698Z" fill="#2D264B"/>
<path fill-rule="evenodd" clip-rule="evenodd" d="M11 1C6.02944 1 2 5.02944 2 10C2 14.9706 6.02944 19 11 19C15.9706 19 20 14.9706 20 10C20 5.02944 15.9706 1 11 1ZM8 9.25C7.58579 9.25 7.25 9.58579 7.25 10C7.25 10.4142 7.58579 10.75 8 10.75H14C14.4142 10.75 14.75 10.4142 14.75 10C14.75 9.58579 14.4142 9.25 14 9.25H8Z" fill="#2D264B"/>
</svg>
